<?xml version="1.0" encoding="utf-8" standalone="no"?>
<!DOCTYPE svg PUBLIC "-//W3C//DTD SVG 1.1//EN"
  "http://www.w3.org/Graphics/SVG/1.1/DTD/svg11.dtd">
<!-- Created with matplotlib (https://matplotlib.org/) -->
<svg height="345.6pt" version="1.1" viewBox="0 0 576 345.6" width="576pt" xmlns="http://www.w3.org/2000/svg" xmlns:xlink="http://www.w3.org/1999/xlink">
 <metadata>
  <rdf:RDF xmlns:cc="http://creativecommons.org/ns#" xmlns:dc="http://purl.org/dc/elements/1.1/" xmlns:rdf="http://www.w3.org/1999/02/22-rdf-syntax-ns#">
   <cc:Work>
    <dc:type rdf:resource="http://purl.org/dc/dcmitype/StillImage"/>
    <dc:date>2020-12-15T10:10:55.700985</dc:date>
    <dc:format>image/svg+xml</dc:format>
    <dc:creator>
     <cc:Agent>
      <dc:title>Matplotlib v3.3.3, https://matplotlib.org/</dc:title>
     </cc:Agent>
    </dc:creator>
   </cc:Work>
  </rdf:RDF>
 </metadata>
 <defs>
  <style type="text/css">*{stroke-linecap:butt;stroke-linejoin:round;}</style>
 </defs>
 <g id="figure_1">
  <g id="patch_1">
   <path d="M 0 345.6 
L 576 345.6 
L 576 0 
L 0 0 
z
" style="fill:#ffffff;"/>
  </g>
  <g id="axes_1">
   <g id="patch_2">
    <path d="M 30.13 317.72 
L 565.2 317.72 
L 565.2 51.0736 
L 30.13 51.0736 
z
" style="fill:#ffffff;"/>
   </g>
   <g id="matplotlib.axis_1">
    <g id="xtick_1">
     <g id="line2d_1">
      <path clip-path="url(#pb9277242c6)" d="M 30.13 317.72 
L 30.13 51.0736 
" style="fill:none;stroke:#e5e7eb;stroke-dasharray:3.7,1.6;stroke-dashoffset:0;"/>
     </g>
     <g id="line2d_2">
      <defs>
       <path d="M 0 0 
L 0 3.5 
" id="m0456d652d8" style="stroke:#000000;stroke-width:0.8;"/>
      </defs>
      <g>
       <use style="stroke:#000000;stroke-width:0.8;" x="30.13" xlink:href="#m0456d652d8" y="317.72"/>
      </g>
     </g>
     <g id="text_1">
      <!-- 0 -->
      <g transform="translate(27.005 331.993437)scale(0.1 -0.1)">
       <defs>
        <path d="M 31.25 -1 
C 47.296875 -1 56.53125 12.609375 56.53125 36.359375 
C 56.53125 59.9375 47.15625 73.71875 31.25 73.71875 
C 15.34375 73.71875 5.96875 59.9375 5.96875 36.359375 
C 5.96875 12.609375 15.203125 -1 31.25 -1 
z
M 31.25 6.8125 
C 20.671875 6.8125 14.484375 17.4375 14.484375 36.359375 
C 14.484375 55.25 20.734375 66.046875 31.25 66.046875 
C 41.765625 66.046875 48.015625 55.25 48.015625 36.359375 
C 48.015625 17.4375 41.828125 6.8125 31.25 6.8125 
z
" id="Inter-Regular-48"/>
       </defs>
       <use xlink:href="#Inter-Regular-48"/>
      </g>
     </g>
    </g>
    <g id="xtick_2">
     <g id="line2d_3">
      <path clip-path="url(#pb9277242c6)" d="M 101.472667 317.72 
L 101.472667 51.0736 
" style="fill:none;stroke:#e5e7eb;stroke-dasharray:3.7,1.6;stroke-dashoffset:0;"/>
     </g>
     <g id="line2d_4">
      <g>
       <use style="stroke:#000000;stroke-width:0.8;" x="101.472667" xlink:href="#m0456d652d8" y="317.72"/>
      </g>
     </g>
     <g id="text_2">
      <!-- 2 -->
      <g transform="translate(98.446885 331.993437)scale(0.1 -0.1)">
       <defs>
        <path d="M 7.53125 0 
L 53.40625 0 
L 53.40625 7.8125 
L 19.609375 7.8125 
L 19.609375 8.375 
L 35.9375 25.859375 
C 48.4375 39.234375 52.125 45.484375 52.125 53.546875 
C 52.125 64.765625 43.046875 73.71875 30.25 73.71875 
C 17.515625 73.71875 7.8125 65.0625 7.8125 52.265625 
L 16.1875 52.265625 
C 16.1875 60.546875 21.5625 66.046875 29.96875 66.046875 
C 37.859375 66.046875 43.890625 61.21875 43.890625 53.546875 
C 43.890625 46.84375 39.953125 41.875 31.53125 32.671875 
L 7.53125 6.390625 
z
" id="Inter-Regular-50"/>
       </defs>
       <use xlink:href="#Inter-Regular-50"/>
      </g>
     </g>
    </g>
    <g id="xtick_3">
     <g id="line2d_5">
      <path clip-path="url(#pb9277242c6)" d="M 172.815333 317.72 
L 172.815333 51.0736 
" style="fill:none;stroke:#e5e7eb;stroke-dasharray:3.7,1.6;stroke-dashoffset:0;"/>
     </g>
     <g id="line2d_6">
      <g>
       <use style="stroke:#000000;stroke-width:0.8;" x="172.815333" xlink:href="#m0456d652d8" y="317.72"/>
      </g>
     </g>
     <g id="text_3">
      <!-- 4 -->
      <g transform="translate(169.605177 331.993437)scale(0.1 -0.1)">
       <defs>
        <path d="M 5.828125 14.921875 
L 40.0625 14.921875 
L 40.0625 0 
L 48.4375 0 
L 48.4375 14.921875 
L 58.375 14.921875 
L 58.375 22.734375 
L 48.4375 22.734375 
L 48.4375 72.734375 
L 37.78125 72.734375 
L 5.828125 22.15625 
z
M 15.34375 22.734375 
L 15.34375 23.296875 
L 39.484375 61.5 
L 40.0625 61.5 
L 40.0625 22.734375 
z
" id="Inter-Regular-52"/>
       </defs>
       <use xlink:href="#Inter-Regular-52"/>
      </g>
     </g>
    </g>
    <g id="xtick_4">
     <g id="line2d_7">
      <path clip-path="url(#pb9277242c6)" d="M 244.158 317.72 
L 244.158 51.0736 
" style="fill:none;stroke:#e5e7eb;stroke-dasharray:3.7,1.6;stroke-dashoffset:0;"/>
     </g>
     <g id="line2d_8">
      <g>
       <use style="stroke:#000000;stroke-width:0.8;" x="244.158" xlink:href="#m0456d652d8" y="317.72"/>
      </g>
     </g>
     <g id="text_4">
      <!-- 6 -->
      <g transform="translate(241.040031 331.993437)scale(0.1 -0.1)">
       <defs>
        <path d="M 31.671875 -1 
C 46.375 -1.171875 55.96875 9.90625 55.96875 23.4375 
C 55.96875 37.5 45.5625 47.578125 33.09375 47.578125 
C 25.609375 47.578125 19.171875 43.921875 15.203125 37.921875 
L 14.625 37.921875 
C 14.671875 55.78125 21.5625 66.046875 32.8125 66.046875 
C 40.484375 66.046875 45.09375 61.21875 46.734375 54.546875 
L 55.40625 54.546875 
C 53.625 65.984375 45.03125 73.859375 32.8125 73.859375 
C 16.4375 73.859375 6.390625 59.375 6.390625 33.515625 
C 6.390625 6.640625 19.75 -0.859375 31.671875 -1 
z
M 31.671875 6.8125 
C 22.546875 6.8125 15.875 14.59375 15.90625 23.296875 
C 15.953125 32 22.9375 39.765625 31.96875 39.765625 
C 40.875 39.765625 47.4375 32.453125 47.4375 23.4375 
C 47.4375 14.203125 40.59375 6.8125 31.671875 6.8125 
z
" id="Inter-Regular-54"/>
       </defs>
       <use xlink:href="#Inter-Regular-54"/>
      </g>
     </g>
    </g>
    <g id="xtick_5">
     <g id="line2d_9">
      <path clip-path="url(#pb9277242c6)" d="M 315.500667 317.72 
L 315.500667 51.0736 
" style="fill:none;stroke:#e5e7eb;stroke-dasharray:3.7,1.6;stroke-dashoffset:0;"/>
     </g>
     <g id="line2d_10">
      <g>
       <use style="stroke:#000000;stroke-width:0.8;" x="315.500667" xlink:href="#m0456d652d8" y="317.72"/>
      </g>
     </g>
     <g id="text_5">
      <!-- 8 -->
      <g transform="translate(312.417854 331.993437)scale(0.1 -0.1)">
       <defs>
        <path d="M 30.828125 -1 
C 45.34375 -1 55.46875 7.5 55.546875 19.3125 
C 55.46875 28.515625 49.328125 36.328125 41.484375 37.78125 
L 41.484375 38.203125 
C 48.296875 39.984375 52.765625 46.65625 52.84375 54.40625 
C 52.765625 65.484375 43.46875 73.71875 30.828125 73.71875 
C 18.046875 73.71875 8.734375 65.484375 8.8125 54.40625 
C 8.734375 46.65625 13.21875 39.984375 20.171875 38.203125 
L 20.171875 37.78125 
C 12.1875 36.328125 6.03125 28.515625 6.109375 19.3125 
C 6.03125 7.5 16.15625 -1 30.828125 -1 
z
M 30.828125 41.328125 
C 22.875 41.328125 17.265625 46.3125 17.328125 53.828125 
C 17.265625 61.21875 22.65625 66.046875 30.828125 66.046875 
C 38.84375 66.046875 44.25 61.21875 44.3125 53.828125 
C 44.25 46.3125 38.640625 41.328125 30.828125 41.328125 
z
M 30.828125 6.8125 
C 20.84375 6.8125 14.703125 11.9375 14.78125 19.75 
C 14.703125 27.953125 21.484375 33.8125 30.828125 33.8125 
C 40.015625 33.8125 46.8125 27.953125 46.875 19.75 
C 46.8125 11.9375 40.65625 6.8125 30.828125 6.8125 
z
" id="Inter-Regular-56"/>
       </defs>
       <use xlink:href="#Inter-Regular-56"/>
      </g>
     </g>
    </g>
    <g id="xtick_6">
     <g id="line2d_11">
      <path clip-path="url(#pb9277242c6)" d="M 386.843333 317.72 
L 386.843333 51.0736 
" style="fill:none;stroke:#e5e7eb;stroke-dasharray:3.7,1.6;stroke-dashoffset:0;"/>
     </g>
     <g id="line2d_12">
      <g>
       <use style="stroke:#000000;stroke-width:0.8;" x="386.843333" xlink:href="#m0456d652d8" y="317.72"/>
      </g>
     </g>
     <g id="text_6">
      <!-- 10 -->
      <g transform="translate(381.395677 331.993437)scale(0.1 -0.1)">
       <defs>
        <path d="M 33.09375 72.734375 
L 24.296875 72.734375 
L 6.109375 60.65625 
L 6.109375 51.703125 
L 23.859375 63.5 
L 24.296875 63.5 
L 24.296875 0 
L 33.09375 0 
z
" id="Inter-Regular-49"/>
       </defs>
       <use xlink:href="#Inter-Regular-49"/>
       <use x="46.448868" xlink:href="#Inter-Regular-48"/>
      </g>
     </g>
    </g>
    <g id="xtick_7">
     <g id="line2d_13">
      <path clip-path="url(#pb9277242c6)" d="M 458.186 317.72 
L 458.186 51.0736 
" style="fill:none;stroke:#e5e7eb;stroke-dasharray:3.7,1.6;stroke-dashoffset:0;"/>
     </g>
     <g id="line2d_14">
      <g>
       <use style="stroke:#000000;stroke-width:0.8;" x="458.186" xlink:href="#m0456d652d8" y="317.72"/>
      </g>
     </g>
     <g id="text_7">
      <!-- 12 -->
      <g transform="translate(452.837562 331.993437)scale(0.1 -0.1)">
       <use xlink:href="#Inter-Regular-49"/>
       <use x="46.448868" xlink:href="#Inter-Regular-50"/>
      </g>
     </g>
    </g>
    <g id="xtick_8">
     <g id="line2d_15">
      <path clip-path="url(#pb9277242c6)" d="M 529.528667 317.72 
L 529.528667 51.0736 
" style="fill:none;stroke:#e5e7eb;stroke-dasharray:3.7,1.6;stroke-dashoffset:0;"/>
     </g>
     <g id="line2d_16">
      <g>
       <use style="stroke:#000000;stroke-width:0.8;" x="529.528667" xlink:href="#m0456d652d8" y="317.72"/>
      </g>
     </g>
     <g id="text_8">
      <!-- 14 -->
      <g transform="translate(523.995854 331.993437)scale(0.1 -0.1)">
       <use xlink:href="#Inter-Regular-49"/>
       <use x="46.448868" xlink:href="#Inter-Regular-52"/>
      </g>
     </g>
    </g>
   </g>
   <g id="matplotlib.axis_2">
    <g id="ytick_1">
     <g id="line2d_17">
      <path clip-path="url(#pb9277242c6)" d="M 30.13 304.707376 
L 565.2 304.707376 
" style="fill:none;stroke:#e5e7eb;stroke-dasharray:3.7,1.6;stroke-dashoffset:0;"/>
     </g>
     <g id="line2d_18">
      <defs>
       <path d="M 0 0 
L -3.5 0 
" id="m3c3845887d" style="stroke:#000000;stroke-width:0.8;"/>
      </defs>
      <g>
       <use style="stroke:#000000;stroke-width:0.8;" x="30.13" xlink:href="#m3c3845887d" y="304.707376"/>
      </g>
     </g>
     <g id="text_9">
      <!-- 0 -->
      <g transform="translate(16.88 308.344095)scale(0.1 -0.1)">
       <use xlink:href="#Inter-Regular-48"/>
      </g>
     </g>
    </g>
    <g id="ytick_2">
     <g id="line2d_19">
      <path clip-path="url(#pb9277242c6)" d="M 30.13 260.400987 
L 565.2 260.400987 
" style="fill:none;stroke:#e5e7eb;stroke-dasharray:3.7,1.6;stroke-dashoffset:0;"/>
     </g>
     <g id="line2d_20">
      <g>
       <use style="stroke:#000000;stroke-width:0.8;" x="30.13" xlink:href="#m3c3845887d" y="260.400987"/>
      </g>
     </g>
     <g id="text_10">
      <!-- 5 -->
      <g transform="translate(17.050313 264.037705)scale(0.1 -0.1)">
       <defs>
        <path d="M 30.25 -1 
C 44.109375 -1 54.265625 9.234375 54.265625 23.15625 
C 54.265625 37.25 44.46875 47.578125 31.109375 47.578125 
C 26.203125 47.578125 21.453125 45.84375 18.46875 43.46875 
L 18.046875 43.46875 
L 20.59375 64.921875 
L 51 64.921875 
L 51 72.734375 
L 13.21875 72.734375 
L 8.8125 36.9375 
L 17.046875 35.9375 
C 20.0625 38.109375 25.21875 39.671875 29.6875 39.625 
C 38.953125 39.5625 45.734375 32.53125 45.734375 23.015625 
C 45.734375 13.671875 39.203125 6.8125 30.25 6.8125 
C 22.796875 6.8125 16.875 11.609375 16.1875 18.1875 
L 7.671875 18.1875 
C 8.203125 7.109375 17.75 -1 30.25 -1 
z
" id="Inter-Regular-53"/>
       </defs>
       <use xlink:href="#Inter-Regular-53"/>
      </g>
     </g>
    </g>
    <g id="ytick_3">
     <g id="line2d_21">
      <path clip-path="url(#pb9277242c6)" d="M 30.13 216.094597 
L 565.2 216.094597 
" style="fill:none;stroke:#e5e7eb;stroke-dasharray:3.7,1.6;stroke-dashoffset:0;"/>
     </g>
     <g id="line2d_22">
      <g>
       <use style="stroke:#000000;stroke-width:0.8;" x="30.13" xlink:href="#m3c3845887d" y="216.094597"/>
      </g>
     </g>
     <g id="text_11">
      <!-- 10 -->
      <g transform="translate(12.234688 219.731316)scale(0.1 -0.1)">
       <use xlink:href="#Inter-Regular-49"/>
       <use x="46.448868" xlink:href="#Inter-Regular-48"/>
      </g>
     </g>
    </g>
    <g id="ytick_4">
     <g id="line2d_23">
      <path clip-path="url(#pb9277242c6)" d="M 30.13 171.788208 
L 565.2 171.788208 
" style="fill:none;stroke:#e5e7eb;stroke-dasharray:3.7,1.6;stroke-dashoffset:0;"/>
     </g>
     <g id="line2d_24">
      <g>
       <use style="stroke:#000000;stroke-width:0.8;" x="30.13" xlink:href="#m3c3845887d" y="171.788208"/>
      </g>
     </g>
     <g id="text_12">
      <!-- 15 -->
      <g transform="translate(12.405 175.424926)scale(0.1 -0.1)">
       <use xlink:href="#Inter-Regular-49"/>
       <use x="46.448868" xlink:href="#Inter-Regular-53"/>
      </g>
     </g>
    </g>
    <g id="ytick_5">
     <g id="line2d_25">
      <path clip-path="url(#pb9277242c6)" d="M 30.13 127.481818 
L 565.2 127.481818 
" style="fill:none;stroke:#e5e7eb;stroke-dasharray:3.7,1.6;stroke-dashoffset:0;"/>
     </g>
     <g id="line2d_26">
      <g>
       <use style="stroke:#000000;stroke-width:0.8;" x="30.13" xlink:href="#m3c3845887d" y="127.481818"/>
      </g>
     </g>
     <g id="text_13">
      <!-- 20 -->
      <g transform="translate(10.828438 131.118537)scale(0.1 -0.1)">
       <use xlink:href="#Inter-Regular-50"/>
       <use x="60.511383" xlink:href="#Inter-Regular-48"/>
      </g>
     </g>
    </g>
    <g id="ytick_6">
     <g id="line2d_27">
      <path clip-path="url(#pb9277242c6)" d="M 30.13 83.175429 
L 565.2 83.175429 
" style="fill:none;stroke:#e5e7eb;stroke-dasharray:3.7,1.6;stroke-dashoffset:0;"/>
     </g>
     <g id="line2d_28">
      <g>
       <use style="stroke:#000000;stroke-width:0.8;" x="30.13" xlink:href="#m3c3845887d" y="83.175429"/>
      </g>
     </g>
     <g id="text_14">
      <!-- 25 -->
      <g transform="translate(10.99875 86.812147)scale(0.1 -0.1)">
       <use xlink:href="#Inter-Regular-50"/>
       <use x="60.511383" xlink:href="#Inter-Regular-53"/>
      </g>
     </g>
    </g>
   </g>
   <g id="line2d_29">
    <path clip-path="url(#pb9277242c6)" d="M 30.13 158.412225 
L 46.102409 158.800118 
L 62.074817 158.971944 
L 78.047226 158.927703 
L 94.019635 158.667396 
L 109.992044 158.191023 
L 125.964452 157.498582 
L 142.438046 156.737582 
L 143.487202 157.207777 
L 144.536359 158.033127 
L 145.585516 159.209632 
L 146.634673 160.731589 
L 147.68383 162.591621 
L 148.732987 164.78071 
L 149.782144 167.288245 
L 151.880457 173.208549 
L 153.978771 180.237877 
L 156.077085 188.240096 
L 158.175398 197.060232 
L 162.499184 215.973495 
L 165.823752 229.341039 
L 169.2482 241.95237 
L 172.572768 253.071826 
L 175.847397 262.94167 
L 178.076855 268.748844 
L 180.306313 273.579386 
L 182.535772 277.586235 
L 184.76523 280.896254 
L 187.97565 284.991241 
L 191.18607 288.641392 
L 194.39649 291.846706 
L 197.60691 294.607184 
L 199.74719 296.200371 
L 201.850569 297.554109 
L 203.953947 298.722925 
L 206.057326 299.705963 
L 208.160704 300.502502 
L 210.264083 301.111956 
L 212.367462 301.533881 
L 214.47084 301.767965 
L 216.574219 301.814037 
L 218.677598 301.672064 
L 220.780976 301.342149 
L 222.884355 300.824535 
L 224.987733 300.119601 
L 227.091112 299.227864 
L 229.194491 298.149979 
L 231.31632 296.864311 
L 233.4566 295.361711 
L 235.59688 293.661406 
L 237.73716 291.763395 
L 240.94758 288.545683 
L 244.158 284.883134 
L 246.247321 282.227297 
L 248.285683 279.195265 
L 250.324045 275.620998 
L 252.362407 271.417762 
L 254.552627 266.340012 
L 257.837956 258.016812 
L 261.123286 248.845725 
L 264.454989 238.679262 
L 267.879437 227.321052 
L 271.075588 215.888913 
L 274.157591 204.105061 
L 277.239595 191.575023 
L 280.408993 178.209576 
L 281.523722 174.139071 
L 282.638451 170.634389 
L 283.75318 167.728924 
L 284.867909 165.450361 
L 285.982638 163.820412 
L 287.097368 162.854607 
L 288.212097 162.56215 
L 303.693455 163.091833 
L 307.117903 163.1807 
L 308.232633 163.54451 
L 309.347362 164.57804 
L 310.462091 166.271443 
L 311.57682 168.608583 
L 312.691549 171.56719 
L 313.806278 175.119073 
L 314.921008 179.230388 
L 322.199743 209.307757 
L 325.281746 220.887525 
L 328.592046 232.476198 
L 332.016494 243.539314 
L 335.301824 253.268699 
L 338.587154 262.132126 
L 341.872483 270.129596 
L 343.986774 274.772079 
L 346.025136 278.619963 
L 348.063498 281.890302 
L 350.10186 284.662456 
L 353.31228 288.440706 
L 356.5227 291.754276 
L 358.66298 293.705167 
L 360.80326 295.449534 
L 362.94354 296.987376 
L 365.08382 298.318693 
L 367.187199 299.411432 
L 369.290577 300.309456 
L 371.393956 301.012107 
L 373.497334 301.518869 
L 375.600713 301.829371 
L 377.704092 301.943385 
L 379.80747 301.860828 
L 381.910849 301.58176 
L 384.014228 301.106386 
L 386.117606 300.435054 
L 388.220985 299.568256 
L 390.324363 298.50663 
L 392.427742 297.250952 
L 394.531121 295.802144 
L 396.65295 294.131805 
L 398.79323 292.229234 
L 400.93351 290.120139 
L 404.14393 286.569263 
L 407.35435 282.553707 
L 410.56477 278.073471 
L 412.794228 274.404398 
L 413.908957 272.244724 
L 415.023687 269.840705 
L 416.138416 267.168702 
L 417.253145 264.202437 
L 418.367874 260.912742 
L 420.574146 253.436164 
L 422.757232 245.318777 
L 424.940317 236.594481 
L 427.223283 226.821838 
L 430.647731 210.918411 
L 433.922359 194.313976 
L 438.203758 171.724106 
L 439.252915 167.089342 
L 440.302072 163.00964 
L 441.351229 159.522066 
L 442.400386 156.658308 
L 443.449543 154.444386 
L 444.4987 152.900414 
L 445.547856 152.040421 
L 446.597013 151.872221 
L 447.64617 152.397342 
L 448.695327 153.611012 
L 449.744484 155.502205 
L 450.793641 158.053737 
L 451.842798 161.242426 
L 452.891954 165.039301 
L 461.681791 201.480482 
L 465.106239 214.266389 
L 468.380867 225.688504 
L 470.563953 232.866349 
L 472.602315 238.700923 
L 473.621496 241.124638 
L 474.640676 243.246535 
L 475.659857 245.083917 
L 476.679038 246.651769 
L 478.765314 249.197085 
L 484.100789 255.127021 
L 489.436263 260.6551 
L 493.704643 264.788226 
L 497.973022 268.664165 
L 502.241402 272.282915 
L 506.509781 275.644478 
L 510.778161 278.748852 
L 515.04654 281.596038 
L 519.31492 284.186036 
L 523.583299 286.518846 
L 527.851679 288.594468 
L 532.120059 290.412902 
L 536.388438 291.974148 
L 540.656818 293.278206 
L 544.925197 294.325075 
L 549.193577 295.114757 
L 553.461956 295.64725 
L 557.730336 295.922556 
L 561.998715 295.940673 
L 565.2 295.785481 
L 565.2 295.785481 
" style="fill:none;stroke:#ef4444;stroke-linecap:square;stroke-width:1.5;"/>
   </g>
   <g id="line2d_30">
    <path clip-path="url(#pb9277242c6)" d="M 30.13 271.917299 
L 37.583791 271.754553 
L 45.037581 271.382636 
L 52.491372 270.801547 
L 59.945163 270.011286 
L 67.398954 269.011853 
L 74.852744 267.803249 
L 82.306535 266.385472 
L 89.760326 264.758524 
L 97.214117 262.922405 
L 104.667907 260.877113 
L 112.121698 258.62265 
L 119.575489 256.159014 
L 127.02928 253.486208 
L 134.789692 250.481196 
L 141.388889 247.747451 
L 142.438046 247.228281 
L 143.487202 246.56428 
L 144.536359 245.752225 
L 145.585516 244.788177 
L 147.68383 242.384633 
L 149.782144 239.306951 
L 151.880457 235.495333 
L 153.978771 230.875723 
L 156.077085 225.358365 
L 158.175398 218.836063 
L 160.316098 211.135897 
L 163.590727 198.525638 
L 166.965235 184.683162 
L 170.389683 169.756315 
L 173.664311 154.653836 
L 176.962126 138.949566 
L 178.076855 134.344189 
L 179.191584 130.355638 
L 180.306313 127.015379 
L 181.421042 124.349765 
L 182.535772 122.379825 
L 183.650501 121.121102 
L 184.76523 120.583524 
L 199.74719 118.147244 
L 217.625908 119.263303 
L 230.24618 119.921375 
L 245.22814 124.050556 
L 246.247321 124.597278 
L 247.266502 125.686387 
L 248.285683 127.311292 
L 249.304864 129.46216 
L 250.324045 132.125975 
L 251.343226 135.286617 
L 254.552627 147.135688 
L 258.933066 162.920584 
L 263.313506 177.856734 
L 267.879437 192.521941 
L 272.102923 205.266257 
L 276.21226 216.908816 
L 279.294263 225.150556 
L 280.408993 227.842825 
L 281.523722 230.126146 
L 282.638451 232.022312 
L 283.75318 233.549417 
L 284.867909 234.722037 
L 285.982638 235.551362 
L 287.097368 236.045308 
L 288.212097 236.208588 
L 299.537745 236.080116 
L 307.117903 235.865024 
L 308.232633 235.660345 
L 309.347362 235.122966 
L 310.462091 234.247758 
L 311.57682 233.026369 
L 312.691549 231.447142 
L 313.806278 229.495006 
L 314.921008 227.151329 
L 317.063071 221.629677 
L 321.172409 210.089833 
L 325.281746 197.776272 
L 329.733529 183.563462 
L 334.206714 168.367719 
L 338.587154 152.598559 
L 345.005955 128.95539 
L 346.025136 126.206175 
L 347.044317 123.978963 
L 348.063498 122.287233 
L 349.082679 121.141221 
L 350.10186 120.547862 
L 365.08382 115.804779 
L 382.962538 114.195593 
L 395.58281 112.930365 
L 410.56477 114.930643 
L 411.679499 115.538809 
L 412.794228 117.071729 
L 413.908957 119.514354 
L 415.023687 122.842704 
L 416.138416 127.0241 
L 417.253145 132.017491 
L 418.367874 137.773854 
L 426.0818 181.927677 
L 429.506248 199.485777 
L 432.830816 215.224113 
L 436.105445 229.466619 
L 438.203758 237.301865 
L 439.252915 240.603505 
L 440.302072 243.53576 
L 441.351229 246.125311 
L 442.400386 248.395722 
L 443.449543 250.367654 
L 444.4987 252.059049 
L 445.547856 253.485299 
L 446.597013 254.659382 
L 447.64617 255.591982 
L 448.695327 256.291585 
L 449.744484 256.764556 
L 450.793641 257.015201 
L 451.842798 257.045799 
L 452.891954 256.856628 
L 453.941111 256.445969 
L 460.540308 253.047935 
L 467.289324 249.34183 
L 471.583134 246.979783 
L 472.602315 246.73178 
L 473.621496 246.717496 
L 474.640676 246.937048 
L 475.659857 247.388649 
L 476.679038 248.06862 
L 478.765314 250.024617 
L 484.100789 255.101716 
L 489.436263 259.864028 
L 494.771738 264.311554 
L 500.107212 268.444295 
L 505.442686 272.262249 
L 510.778161 275.765417 
L 516.113635 278.953799 
L 521.44911 281.827395 
L 525.717489 283.899626 
L 529.985869 285.770393 
L 534.254248 287.439698 
L 538.522628 288.90754 
L 542.791007 290.173918 
L 547.059387 291.238833 
L 551.327766 292.102286 
L 555.596146 292.764275 
L 559.864526 293.224801 
L 564.132905 293.483864 
L 565.2 293.517151 
L 565.2 293.517151 
" style="fill:none;stroke:#1d4ed8;stroke-linecap:square;stroke-width:1.5;"/>
   </g>
   <g id="line2d_31">
    <path clip-path="url(#pb9277242c6)" d="M 30.13 305.458215 
L 158.175398 305.253001 
L 203.953947 304.612784 
L 208.160704 304.15027 
L 212.367462 303.405163 
L 216.574219 302.378009 
L 220.780976 301.069561 
L 224.987733 299.48078 
L 229.194491 297.612829 
L 238.8073 292.835228 
L 248.285683 288.004643 
L 251.343226 286.146629 
L 261.123286 279.552945 
L 280.408993 266.56713 
L 282.638451 265.424777 
L 284.867909 264.656731 
L 287.097368 264.27031 
L 290.495062 264.220361 
L 308.232633 264.259755 
L 310.462091 264.644049 
L 312.691549 265.410088 
L 314.921008 266.550573 
L 319.11774 269.33802 
L 346.025136 287.371102 
L 349.082679 289.071473 
L 360.80326 294.910951 
L 368.238888 298.514759 
L 372.445645 300.238143 
L 376.652402 301.681804 
L 380.85916 302.844681 
L 385.065917 303.725922 
L 389.272674 304.324881 
L 393.479431 304.641118 
L 398.79323 304.718507 
L 459.398825 305.095015 
L 497.973022 305.025856 
L 565.2 305.021935 
L 565.2 305.021935 
" style="fill:none;stroke:#10b981;stroke-linecap:square;stroke-width:1.5;"/>
   </g>
   <g id="patch_3">
    <path d="M 30.13 317.72 
L 30.13 51.0736 
" style="fill:none;stroke:#000000;stroke-linecap:square;stroke-linejoin:miter;stroke-width:0.8;"/>
   </g>
   <g id="patch_4">
    <path d="M 565.2 317.72 
L 565.2 51.0736 
" style="fill:none;stroke:#000000;stroke-linecap:square;stroke-linejoin:miter;stroke-width:0.8;"/>
   </g>
   <g id="patch_5">
    <path d="M 30.13 317.72 
L 565.2 317.72 
" style="fill:none;stroke:#000000;stroke-linecap:square;stroke-linejoin:miter;stroke-width:0.8;"/>
   </g>
   <g id="patch_6">
    <path d="M 30.13 51.0736 
L 565.2 51.0736 
" style="fill:none;stroke:#000000;stroke-linecap:square;stroke-linejoin:miter;stroke-width:0.8;"/>
   </g>
   <g id="legend_1">
    <g id="line2d_32">
     <path d="M 39.13 22.14128 
L 59.13 22.14128 
" style="fill:none;stroke:#ef4444;stroke-linecap:square;stroke-width:1.5;"/>
    </g>
    <g id="line2d_33"/>
    <g id="text_15">
     <!-- $\beta_x$ / m -->
     <g transform="translate(67.13 25.64128)scale(0.1 -0.1)">
      <defs>
       <path d="M 13.625 3.375 
L 8.9375 -20.796875 
L -0.09375 -20.796875 
L 14.5 54.34375 
Q 18.84375 76.609375 39.65625 76.609375 
Q 60.75 76.609375 57.171875 57.8125 
Q 54.734375 44.4375 45.21875 39.546875 
Q 58.015625 35.15625 55.515625 22.125 
Q 51.125 -1.078125 27.484375 -1.03125 
Q 17.140625 -0.984375 13.625 3.375 
z
M 15.921875 15.09375 
Q 19.671875 6.59375 29.296875 6.640625 
Q 43.359375 6.640625 46.34375 21.96875 
Q 49.03125 35.75 26.171875 34.671875 
L 27.78125 42.96875 
Q 45.453125 42.671875 48.53125 58.59375 
Q 50.640625 69.34375 39.203125 69.28125 
Q 26.421875 69.28125 23.484375 54.046875 
z
" id="DejaVuSans-Oblique-946"/>
       <path d="M 60.015625 54.6875 
L 34.90625 27.875 
L 50.296875 0 
L 39.984375 0 
L 28.421875 21.6875 
L 8.296875 0 
L -2.59375 0 
L 24.3125 28.8125 
L 10.015625 54.6875 
L 20.3125 54.6875 
L 30.8125 34.90625 
L 49.125 54.6875 
z
" id="DejaVuSans-Oblique-120"/>
       <path id="Inter-Regular-32"/>
       <path d="M 33.375 76.140625 
L 25.71875 76.140625 
L 2.28125 -10.9375 
L 9.9375 -10.9375 
z
" id="Inter-Regular-47"/>
       <path d="M 7.671875 0 
L 16.046875 0 
L 16.046875 34.09375 
C 16.046875 42.078125 21.875 47.734375 28.40625 47.734375 
C 34.765625 47.734375 39.203125 43.578125 39.203125 37.359375 
L 39.203125 0 
L 47.734375 0 
L 47.734375 35.515625 
C 47.734375 42.546875 52.125 47.734375 59.796875 47.734375 
C 65.765625 47.734375 70.875 44.5625 70.875 36.5 
L 70.875 0 
L 79.265625 0 
L 79.265625 36.5 
C 79.265625 49.328125 72.375 55.25 62.640625 55.25 
C 54.828125 55.25 49.109375 51.671875 46.3125 46.015625 
L 45.734375 46.015625 
C 43.046875 51.84375 38.28125 55.25 31.109375 55.25 
C 24 55.25 18.75 51.84375 16.484375 46.015625 
L 15.765625 46.015625 
L 15.765625 54.546875 
L 7.671875 54.546875 
z
" id="Inter-Regular-109"/>
      </defs>
      <use transform="translate(0 0.390625)" xlink:href="#DejaVuSans-Oblique-946"/>
      <use transform="translate(63.818359 -16.015625)scale(0.7)" xlink:href="#DejaVuSans-Oblique-120"/>
      <use transform="translate(107.978516 0.390625)" xlink:href="#Inter-Regular-32"/>
      <use transform="translate(136.103516 0.390625)" xlink:href="#Inter-Regular-47"/>
      <use transform="translate(171.756927 0.390625)" xlink:href="#Inter-Regular-32"/>
      <use transform="translate(199.881927 0.390625)" xlink:href="#Inter-Regular-109"/>
     </g>
    </g>
    <g id="line2d_34">
     <path d="M 262.465 22.14128 
L 282.465 22.14128 
" style="fill:none;stroke:#1d4ed8;stroke-linecap:square;stroke-width:1.5;"/>
    </g>
    <g id="line2d_35"/>
    <g id="text_16">
     <!-- $\beta_y$ / m -->
     <g transform="translate(290.465 25.64128)scale(0.1 -0.1)">
      <defs>
       <path d="M 24.8125 -5.078125 
Q 18.5625 -15.578125 14.625 -18.1875 
Q 10.6875 -20.796875 4.59375 -20.796875 
L -2.484375 -20.796875 
L -0.984375 -13.28125 
L 4.203125 -13.28125 
Q 7.953125 -13.28125 10.59375 -11.234375 
Q 13.234375 -9.1875 16.5 -3.21875 
L 19.28125 2 
L 7.171875 54.6875 
L 16.703125 54.6875 
L 25.78125 12.796875 
L 50.875 54.6875 
L 60.296875 54.6875 
z
" id="DejaVuSans-Oblique-121"/>
      </defs>
      <use transform="translate(0 0.390625)" xlink:href="#DejaVuSans-Oblique-946"/>
      <use transform="translate(63.818359 -16.015625)scale(0.7)" xlink:href="#DejaVuSans-Oblique-121"/>
      <use transform="translate(107.978516 0.390625)" xlink:href="#Inter-Regular-32"/>
      <use transform="translate(136.103516 0.390625)" xlink:href="#Inter-Regular-47"/>
      <use transform="translate(171.756927 0.390625)" xlink:href="#Inter-Regular-32"/>
      <use transform="translate(199.881927 0.390625)" xlink:href="#Inter-Regular-109"/>
     </g>
    </g>
    <g id="line2d_36">
     <path d="M 485.8 22.14128 
L 505.8 22.14128 
" style="fill:none;stroke:#10b981;stroke-linecap:square;stroke-width:1.5;"/>
    </g>
    <g id="line2d_37"/>
    <g id="text_17">
     <!-- 10 $\eta_x$ / m -->
     <g transform="translate(513.8 25.64128)scale(0.1 -0.1)">
      <defs>
       <path d="M 57.859375 33.015625 
L 47.40625 -20.796875 
L 38.421875 -20.796875 
L 48.828125 32.71875 
Q 50.34375 40.484375 48.046875 44.34375 
Q 45.796875 48.1875 39.75 48.1875 
Q 32.46875 48.1875 27.34375 43.5625 
Q 22.265625 38.921875 20.703125 30.90625 
L 14.703125 0 
L 5.671875 0 
L 16.3125 54.6875 
L 25.34375 54.6875 
L 23.6875 46.1875 
Q 27.828125 51.125 32.71875 53.5625 
Q 37.546875 56 43.265625 56 
Q 52.6875 56 56.390625 50.203125 
Q 60.0625 44.34375 57.859375 33.015625 
z
" id="DejaVuSans-Oblique-951"/>
      </defs>
      <use transform="translate(0 0.859375)" xlink:href="#Inter-Regular-49"/>
      <use transform="translate(46.448868 0.859375)" xlink:href="#Inter-Regular-48"/>
      <use transform="translate(108.948883 0.859375)" xlink:href="#Inter-Regular-32"/>
      <use transform="translate(137.073883 0.859375)" xlink:href="#DejaVuSans-Oblique-951"/>
      <use transform="translate(200.452789 -15.546875)scale(0.7)" xlink:href="#DejaVuSans-Oblique-120"/>
      <use transform="translate(244.612946 0.859375)" xlink:href="#Inter-Regular-32"/>
      <use transform="translate(272.737946 0.859375)" xlink:href="#Inter-Regular-47"/>
      <use transform="translate(308.391357 0.859375)" xlink:href="#Inter-Regular-32"/>
      <use transform="translate(336.516357 0.859375)" xlink:href="#Inter-Regular-109"/>
     </g>
    </g>
   </g>
   <g id="patch_7">
    <path d="M 130.223761 57.422324 
L 135.931175 57.422324 
L 135.931175 44.724876 
L 130.223761 44.724876 
z
" style="fill:#10b981;"/>
   </g>
   <g id="patch_8">
    <path d="M 141.388889 57.422324 
L 159.224555 57.422324 
L 159.224555 44.724876 
L 141.388889 44.724876 
z
" style="fill:#ef4444;"/>
   </g>
   <g id="patch_9">
    <path d="M 164.682269 57.422324 
L 170.389683 57.422324 
L 170.389683 44.724876 
L 164.682269 44.724876 
z
" style="fill:#10b981;"/>
   </g>
   <g id="patch_10">
    <path d="M 175.847397 57.422324 
L 184.76523 57.422324 
L 184.76523 44.724876 
L 175.847397 44.724876 
z
" style="fill:#ef4444;"/>
   </g>
   <g id="patch_11">
    <path d="M 199.74719 57.422324 
L 230.24618 57.422324 
L 230.24618 44.724876 
L 199.74719 44.724876 
z
" style="fill:#fbbf24;"/>
   </g>
   <g id="patch_12">
    <path d="M 245.22814 57.422324 
L 252.362407 57.422324 
L 252.362407 44.724876 
L 245.22814 44.724876 
z
" style="fill:#ef4444;"/>
   </g>
   <g id="patch_13">
    <path d="M 263.313506 57.422324 
L 269.020919 57.422324 
L 269.020919 44.724876 
L 263.313506 44.724876 
z
" style="fill:#10b981;"/>
   </g>
   <g id="patch_14">
    <path d="M 279.294263 57.422324 
L 288.212097 57.422324 
L 288.212097 44.724876 
L 279.294263 44.724876 
z
" style="fill:#ef4444;"/>
   </g>
   <g id="patch_15">
    <path d="M 293.91951 57.422324 
L 301.41049 57.422324 
L 301.41049 44.724876 
L 293.91951 44.724876 
z
" style="fill:#10b981;"/>
   </g>
   <g id="patch_16">
    <path d="M 307.117903 57.422324 
L 316.035737 57.422324 
L 316.035737 44.724876 
L 307.117903 44.724876 
z
" style="fill:#ef4444;"/>
   </g>
   <g id="patch_17">
    <path d="M 326.309081 57.422324 
L 332.016494 57.422324 
L 332.016494 44.724876 
L 326.309081 44.724876 
z
" style="fill:#10b981;"/>
   </g>
   <g id="patch_18">
    <path d="M 342.967593 57.422324 
L 350.10186 57.422324 
L 350.10186 44.724876 
L 342.967593 44.724876 
z
" style="fill:#ef4444;"/>
   </g>
   <g id="patch_19">
    <path d="M 365.08382 57.422324 
L 395.58281 57.422324 
L 395.58281 44.724876 
L 365.08382 44.724876 
z
" style="fill:#fbbf24;"/>
   </g>
   <g id="patch_20">
    <path d="M 410.56477 57.422324 
L 419.482603 57.422324 
L 419.482603 44.724876 
L 410.56477 44.724876 
z
" style="fill:#ef4444;"/>
   </g>
   <g id="patch_21">
    <path d="M 424.940317 57.422324 
L 430.647731 57.422324 
L 430.647731 44.724876 
L 424.940317 44.724876 
z
" style="fill:#10b981;"/>
   </g>
   <g id="patch_22">
    <path d="M 436.105445 57.422324 
L 453.941111 57.422324 
L 453.941111 44.724876 
L 436.105445 44.724876 
z
" style="fill:#ef4444;"/>
   </g>
   <g id="patch_23">
    <path d="M 459.398825 57.422324 
L 465.106239 57.422324 
L 465.106239 44.724876 
L 459.398825 44.724876 
z
" style="fill:#10b981;"/>
   </g>
   <g id="patch_24">
    <path d="M 470.563953 57.422324 
L 477.698219 57.422324 
L 477.698219 44.724876 
L 470.563953 44.724876 
z
" style="fill:#ef4444;"/>
   </g>
   <g id="text_18">
    <!-- S4D1 -->
    <g transform="translate(126.919655 39.683184)scale(0.05 -0.05)">
     <defs>
      <path d="M 48.578125 54.546875 
L 57.109375 54.546875 
C 56.71875 65.515625 46.59375 73.71875 32.53125 73.71875 
C 18.609375 73.71875 7.671875 65.625 7.671875 53.40625 
C 7.671875 43.609375 14.78125 37.78125 26.140625 34.515625 
L 35.09375 31.953125 
C 42.75 29.828125 49.578125 27.125 49.578125 19.890625 
C 49.578125 11.9375 41.90625 6.671875 31.8125 6.671875 
C 23.15625 6.671875 15.484375 10.515625 14.78125 18.75 
L 5.6875 18.75 
C 6.53125 6.8125 16.1875 -1.28125 31.8125 -1.28125 
C 48.578125 -1.28125 58.09375 7.953125 58.09375 19.75 
C 58.09375 33.375 45.171875 37.78125 37.640625 39.765625 
L 30.25 41.765625 
C 24.859375 43.1875 16.1875 46.015625 16.1875 53.828125 
C 16.1875 60.796875 22.59375 65.90625 32.25 65.90625 
C 41.046875 65.90625 47.734375 61.71875 48.578125 54.546875 
z
" id="Inter-Regular-83"/>
      <path d="M 31.25 0 
C 53.40625 0 65.90625 13.78125 65.90625 36.5 
C 65.90625 59.09375 53.40625 72.734375 32.25 72.734375 
L 8.8125 72.734375 
L 8.8125 0 
z
M 31.671875 64.921875 
C 48.71875 64.921875 57.390625 54.125 57.390625 36.5 
C 57.390625 18.75 48.71875 7.8125 30.6875 7.8125 
L 17.609375 7.8125 
L 17.609375 64.921875 
z
" id="Inter-Regular-68"/>
     </defs>
     <use xlink:href="#Inter-Regular-83"/>
     <use x="63.778427" xlink:href="#Inter-Regular-52"/>
     <use x="127.982986" xlink:href="#Inter-Regular-68"/>
     <use x="199.858002" xlink:href="#Inter-Regular-49"/>
    </g>
   </g>
   <g id="text_19">
    <!-- Q4D1 -->
    <g transform="translate(143.839925 65.078079)scale(0.05 -0.05)">
     <defs>
      <path d="M 70.171875 36.359375 
C 70.171875 59.375 56.671875 73.71875 38.0625 73.71875 
C 19.46875 73.71875 5.96875 59.375 5.96875 36.359375 
C 5.96875 13.359375 19.46875 -1 38.0625 -1 
C 42.828125 -1 47.234375 -0.078125 51.171875 1.703125 
L 57.53125 -6.8125 
L 67.1875 -6.8125 
L 57.703125 5.78125 
C 65.453125 12.140625 70.171875 22.734375 70.171875 36.359375 
z
M 35.234375 22.734375 
L 45.984375 8.59375 
C 43.53125 7.703125 40.875 7.25 38.0625 7.25 
C 24.859375 7.25 14.484375 17.46875 14.484375 36.359375 
C 14.484375 55.25 24.859375 65.484375 38.0625 65.484375 
C 51.28125 65.484375 61.65625 55.25 61.65625 36.359375 
C 61.65625 25.390625 58.171875 17.359375 52.625 12.53125 
L 44.890625 22.734375 
z
" id="Inter-Regular-81"/>
     </defs>
     <use xlink:href="#Inter-Regular-81"/>
     <use x="76.136383" xlink:href="#Inter-Regular-52"/>
     <use x="140.340942" xlink:href="#Inter-Regular-68"/>
     <use x="212.215958" xlink:href="#Inter-Regular-49"/>
    </g>
   </g>
   <g id="text_20">
    <!-- S3D1 -->
    <g transform="translate(161.392226 39.683184)scale(0.05 -0.05)">
     <defs>
      <path d="M 32.109375 -1 
C 46.203125 -1 56.671875 7.84375 56.671875 19.75 
C 56.671875 28.984375 51.203125 35.6875 42.046875 37.21875 
L 42.046875 37.78125 
C 49.390625 40.015625 53.984375 46.0625 53.984375 54.265625 
C 53.984375 64.5625 45.84375 73.71875 32.390625 73.71875 
C 19.8125 73.71875 9.375 65.984375 8.953125 54.546875 
L 17.46875 54.546875 
C 17.796875 61.796875 24.6875 66.046875 32.25 66.046875 
C 40.265625 66.046875 45.453125 61.1875 45.453125 53.828125 
C 45.453125 46.171875 39.453125 41.1875 30.828125 41.1875 
L 25 41.1875 
L 25 33.375 
L 30.828125 33.375 
C 41.875 33.375 48.015625 27.765625 48.015625 19.75 
C 48.015625 12.03125 41.296875 6.8125 31.96875 6.8125 
C 23.546875 6.8125 16.875 11.15625 16.34375 18.1875 
L 7.390625 18.1875 
C 7.921875 6.75 18 -1 32.109375 -1 
z
" id="Inter-Regular-51"/>
     </defs>
     <use xlink:href="#Inter-Regular-83"/>
     <use x="63.778427" xlink:href="#Inter-Regular-51"/>
     <use x="127.41481" xlink:href="#Inter-Regular-68"/>
     <use x="199.289825" xlink:href="#Inter-Regular-49"/>
    </g>
   </g>
   <g id="text_21">
    <!-- Q3D1 -->
    <g transform="translate(173.853579 65.078079)scale(0.05 -0.05)">
     <use xlink:href="#Inter-Regular-81"/>
     <use x="76.136383" xlink:href="#Inter-Regular-51"/>
     <use x="139.772766" xlink:href="#Inter-Regular-68"/>
     <use x="211.647781" xlink:href="#Inter-Regular-49"/>
    </g>
   </g>
   <g id="text_22">
    <!-- B -->
    <g transform="translate(213.370123 39.683184)scale(0.05 -0.05)">
     <defs>
      <path d="M 8.8125 0 
L 35.09375 0 
C 52.28125 0 59.375 8.375 59.375 19.3125 
C 59.375 30.828125 51.421875 37.078125 44.75 37.5 
L 44.75 38.203125 
C 51 39.921875 56.53125 44.03125 56.53125 53.40625 
C 56.53125 64.0625 49.4375 72.734375 34.234375 72.734375 
L 8.8125 72.734375 
z
M 17.609375 40.765625 
L 17.609375 64.921875 
L 34.234375 64.921875 
C 43.890625 64.921875 48.15625 59.796875 48.15625 53.40625 
C 48.15625 45.734375 41.90625 40.765625 33.953125 40.765625 
z
M 17.609375 7.8125 
L 17.609375 33.09375 
L 35.515625 33.09375 
C 45.03125 33.09375 51 26.703125 51 19.3125 
C 51 12.921875 46.59375 7.8125 35.09375 7.8125 
z
" id="Inter-Regular-66"/>
     </defs>
     <use xlink:href="#Inter-Regular-66"/>
    </g>
   </g>
   <g id="text_23">
    <!-- Q2D -->
    <g transform="translate(243.581992 65.078079)scale(0.05 -0.05)">
     <use xlink:href="#Inter-Regular-81"/>
     <use x="76.136383" xlink:href="#Inter-Regular-50"/>
     <use x="136.647766" xlink:href="#Inter-Regular-68"/>
    </g>
   </g>
   <g id="text_24">
    <!-- S2 -->
    <g transform="translate(263.059791 39.683184)scale(0.05 -0.05)">
     <use xlink:href="#Inter-Regular-83"/>
     <use x="63.778427" xlink:href="#Inter-Regular-50"/>
    </g>
   </g>
   <g id="text_25">
    <!-- Q1D -->
    <g transform="translate(278.891461 65.078079)scale(0.05 -0.05)">
     <use xlink:href="#Inter-Regular-81"/>
     <use x="76.136383" xlink:href="#Inter-Regular-49"/>
     <use x="122.585251" xlink:href="#Inter-Regular-68"/>
    </g>
   </g>
   <g id="text_26">
    <!-- S1 -->
    <g transform="translate(294.909141 39.683184)scale(0.05 -0.05)">
     <use xlink:href="#Inter-Regular-83"/>
     <use x="63.778427" xlink:href="#Inter-Regular-49"/>
    </g>
   </g>
   <g id="text_27">
    <!-- Q1D -->
    <g transform="translate(306.715101 65.078079)scale(0.05 -0.05)">
     <use xlink:href="#Inter-Regular-81"/>
     <use x="76.136383" xlink:href="#Inter-Regular-49"/>
     <use x="122.585251" xlink:href="#Inter-Regular-68"/>
    </g>
   </g>
   <g id="text_28">
    <!-- S2 -->
    <g transform="translate(326.055365 39.683184)scale(0.05 -0.05)">
     <use xlink:href="#Inter-Regular-83"/>
     <use x="63.778427" xlink:href="#Inter-Regular-50"/>
    </g>
   </g>
   <g id="text_29">
    <!-- Q2D -->
    <g transform="translate(341.321445 65.078079)scale(0.05 -0.05)">
     <use xlink:href="#Inter-Regular-81"/>
     <use x="76.136383" xlink:href="#Inter-Regular-50"/>
     <use x="136.647766" xlink:href="#Inter-Regular-68"/>
    </g>
   </g>
   <g id="text_30">
    <!-- B -->
    <g transform="translate(378.706752 39.683184)scale(0.05 -0.05)">
     <use xlink:href="#Inter-Regular-66"/>
    </g>
   </g>
   <g id="text_31">
    <!-- Q3P1T1 -->
    <g transform="translate(406.013921 65.078079)scale(0.05 -0.05)">
     <defs>
      <path d="M 8.8125 0 
L 17.609375 0 
L 17.609375 26.5625 
L 33.53125 26.5625 
C 50.46875 26.5625 58.09375 36.859375 58.09375 49.71875 
C 58.09375 62.578125 50.46875 72.734375 33.375 72.734375 
L 8.8125 72.734375 
z
M 33.09375 64.921875 
C 44.921875 64.921875 49.4375 58.453125 49.4375 49.71875 
C 49.4375 40.984375 44.921875 34.375 33.234375 34.375 
L 17.609375 34.375 
L 17.609375 64.921875 
z
" id="Inter-Regular-80"/>
      <path d="M 4.828125 64.921875 
L 27.703125 64.921875 
L 27.703125 0 
L 36.5 0 
L 36.5 64.921875 
L 59.375 64.921875 
L 59.375 72.734375 
L 4.828125 72.734375 
z
" id="Inter-Regular-84"/>
     </defs>
     <use xlink:href="#Inter-Regular-81"/>
     <use x="76.136383" xlink:href="#Inter-Regular-51"/>
     <use x="139.772766" xlink:href="#Inter-Regular-80"/>
     <use x="203.26709" xlink:href="#Inter-Regular-49"/>
     <use x="249.715958" xlink:href="#Inter-Regular-84"/>
     <use x="313.920517" xlink:href="#Inter-Regular-49"/>
    </g>
   </g>
   <g id="text_32">
    <!-- S3T -->
    <g transform="translate(423.003399 39.683184)scale(0.05 -0.05)">
     <use xlink:href="#Inter-Regular-83"/>
     <use x="63.778427" xlink:href="#Inter-Regular-51"/>
     <use x="127.41481" xlink:href="#Inter-Regular-84"/>
    </g>
   </g>
   <g id="text_33">
    <!-- Q4P1T1 -->
    <g transform="translate(435.99945 65.078079)scale(0.05 -0.05)">
     <use xlink:href="#Inter-Regular-81"/>
     <use x="76.136383" xlink:href="#Inter-Regular-52"/>
     <use x="140.340942" xlink:href="#Inter-Regular-80"/>
     <use x="203.835266" xlink:href="#Inter-Regular-49"/>
     <use x="250.284134" xlink:href="#Inter-Regular-84"/>
     <use x="314.488693" xlink:href="#Inter-Regular-49"/>
    </g>
   </g>
   <g id="text_34">
    <!-- S4T -->
    <g transform="translate(457.447844 39.683184)scale(0.05 -0.05)">
     <use xlink:href="#Inter-Regular-83"/>
     <use x="63.778427" xlink:href="#Inter-Regular-52"/>
     <use x="127.982986" xlink:href="#Inter-Regular-84"/>
    </g>
   </g>
   <g id="text_35">
    <!-- Q5P1T1 -->
    <g transform="translate(465.192414 65.078079)scale(0.05 -0.05)">
     <use xlink:href="#Inter-Regular-81"/>
     <use x="76.136383" xlink:href="#Inter-Regular-53"/>
     <use x="136.931854" xlink:href="#Inter-Regular-80"/>
     <use x="200.426178" xlink:href="#Inter-Regular-49"/>
     <use x="246.875046" xlink:href="#Inter-Regular-84"/>
     <use x="311.079605" xlink:href="#Inter-Regular-49"/>
    </g>
   </g>
  </g>
 </g>
 <defs>
  <clipPath id="pb9277242c6">
   <rect height="266.6464" width="535.07" x="30.13" y="51.0736"/>
  </clipPath>
 </defs>
</svg>
