<?xml version="1.0" encoding="utf-8" standalone="no"?>
<!DOCTYPE svg PUBLIC "-//W3C//DTD SVG 1.1//EN"
  "http://www.w3.org/Graphics/SVG/1.1/DTD/svg11.dtd">
<!-- Created with matplotlib (https://matplotlib.org/) -->
<svg height="345.6pt" version="1.1" viewBox="0 0 576 345.6" width="576pt" xmlns="http://www.w3.org/2000/svg" xmlns:xlink="http://www.w3.org/1999/xlink">
 <metadata>
  <rdf:RDF xmlns:cc="http://creativecommons.org/ns#" xmlns:dc="http://purl.org/dc/elements/1.1/" xmlns:rdf="http://www.w3.org/1999/02/22-rdf-syntax-ns#">
   <cc:Work>
    <dc:type rdf:resource="http://purl.org/dc/dcmitype/StillImage"/>
    <dc:date>2020-12-15T11:56:08.449362</dc:date>
    <dc:format>image/svg+xml</dc:format>
    <dc:creator>
     <cc:Agent>
      <dc:title>Matplotlib v3.3.3, https://matplotlib.org/</dc:title>
     </cc:Agent>
    </dc:creator>
   </cc:Work>
  </rdf:RDF>
 </metadata>
 <defs>
  <style type="text/css">*{stroke-linecap:butt;stroke-linejoin:round;}</style>
 </defs>
 <g id="figure_1">
  <g id="patch_1">
   <path d="M 0 345.6 
L 576 345.6 
L 576 0 
L 0 0 
z
" style="fill:#ffffff;"/>
  </g>
  <g id="axes_1">
   <g id="patch_2">
    <path d="M 30.13 301.48 
L 554.4 301.48 
L 554.4 51.0736 
L 30.13 51.0736 
z
" style="fill:#ffffff;"/>
   </g>
   <g id="matplotlib.axis_1">
    <g id="xtick_1">
     <g id="line2d_1">
      <path clip-path="url(#p9eb148ceab)" d="M 30.13 301.48 
L 30.13 51.0736 
" style="fill:none;stroke:#e5e7eb;stroke-dasharray:3.7,1.6;stroke-dashoffset:0;"/>
     </g>
     <g id="line2d_2">
      <defs>
       <path d="M 0 0 
L 0 3.5 
" id="m9a32caf3e3" style="stroke:#000000;stroke-width:0.8;"/>
      </defs>
      <g>
       <use style="stroke:#000000;stroke-width:0.8;" x="30.13" xlink:href="#m9a32caf3e3" y="301.48"/>
      </g>
     </g>
     <g id="text_1">
      <!-- 0.0 -->
      <g transform="translate(22.501875 315.753437)scale(0.1 -0.1)">
       <defs>
        <path d="M 31.25 -1 
C 47.296875 -1 56.53125 12.609375 56.53125 36.359375 
C 56.53125 59.9375 47.15625 73.71875 31.25 73.71875 
C 15.34375 73.71875 5.96875 59.9375 5.96875 36.359375 
C 5.96875 12.609375 15.203125 -1 31.25 -1 
z
M 31.25 6.8125 
C 20.671875 6.8125 14.484375 17.4375 14.484375 36.359375 
C 14.484375 55.25 20.734375 66.046875 31.25 66.046875 
C 41.765625 66.046875 48.015625 55.25 48.015625 36.359375 
C 48.015625 17.4375 41.828125 6.8125 31.25 6.8125 
z
" id="Inter-Regular-48"/>
        <path d="M 13.78125 -0.5625 
C 17.296875 -0.5625 20.171875 2.3125 20.171875 5.828125 
C 20.171875 9.34375 17.296875 12.21875 13.78125 12.21875 
C 10.265625 12.21875 7.390625 9.34375 7.390625 5.828125 
C 7.390625 2.3125 10.265625 -0.5625 13.78125 -0.5625 
z
" id="Inter-Regular-46"/>
       </defs>
       <use xlink:href="#Inter-Regular-48"/>
       <use x="62.500015" xlink:href="#Inter-Regular-46"/>
       <use x="90.056839" xlink:href="#Inter-Regular-48"/>
      </g>
     </g>
    </g>
    <g id="xtick_2">
     <g id="line2d_3">
      <path clip-path="url(#p9eb148ceab)" d="M 110.430688 301.48 
L 110.430688 51.0736 
" style="fill:none;stroke:#e5e7eb;stroke-dasharray:3.7,1.6;stroke-dashoffset:0;"/>
     </g>
     <g id="line2d_4">
      <g>
       <use style="stroke:#000000;stroke-width:0.8;" x="110.430688" xlink:href="#m9a32caf3e3" y="301.48"/>
      </g>
     </g>
     <g id="text_2">
      <!-- 4.6 -->
      <g transform="translate(102.724438 315.753437)scale(0.1 -0.1)">
       <defs>
        <path d="M 5.828125 14.921875 
L 40.0625 14.921875 
L 40.0625 0 
L 48.4375 0 
L 48.4375 14.921875 
L 58.375 14.921875 
L 58.375 22.734375 
L 48.4375 22.734375 
L 48.4375 72.734375 
L 37.78125 72.734375 
L 5.828125 22.15625 
z
M 15.34375 22.734375 
L 15.34375 23.296875 
L 39.484375 61.5 
L 40.0625 61.5 
L 40.0625 22.734375 
z
" id="Inter-Regular-52"/>
        <path d="M 31.671875 -1 
C 46.375 -1.171875 55.96875 9.90625 55.96875 23.4375 
C 55.96875 37.5 45.5625 47.578125 33.09375 47.578125 
C 25.609375 47.578125 19.171875 43.921875 15.203125 37.921875 
L 14.625 37.921875 
C 14.671875 55.78125 21.5625 66.046875 32.8125 66.046875 
C 40.484375 66.046875 45.09375 61.21875 46.734375 54.546875 
L 55.40625 54.546875 
C 53.625 65.984375 45.03125 73.859375 32.8125 73.859375 
C 16.4375 73.859375 6.390625 59.375 6.390625 33.515625 
C 6.390625 6.640625 19.75 -0.859375 31.671875 -1 
z
M 31.671875 6.8125 
C 22.546875 6.8125 15.875 14.59375 15.90625 23.296875 
C 15.953125 32 22.9375 39.765625 31.96875 39.765625 
C 40.875 39.765625 47.4375 32.453125 47.4375 23.4375 
C 47.4375 14.203125 40.59375 6.8125 31.671875 6.8125 
z
" id="Inter-Regular-54"/>
       </defs>
       <use xlink:href="#Inter-Regular-52"/>
       <use x="64.204559" xlink:href="#Inter-Regular-46"/>
       <use x="91.761383" xlink:href="#Inter-Regular-54"/>
      </g>
     </g>
    </g>
    <g id="xtick_3">
     <g id="line2d_5">
      <path clip-path="url(#p9eb148ceab)" d="M 161.1975 301.48 
L 161.1975 51.0736 
" style="fill:none;stroke:#e5e7eb;stroke-dasharray:3.7,1.6;stroke-dashoffset:0;"/>
     </g>
     <g id="line2d_6">
      <g>
       <use style="stroke:#000000;stroke-width:0.8;" x="161.1975" xlink:href="#m9a32caf3e3" y="301.48"/>
      </g>
     </g>
     <g id="text_3">
      <!-- 7.5 -->
      <g transform="translate(153.924062 315.753437)scale(0.1 -0.1)">
       <defs>
        <path d="M 9.796875 0 
L 19.03125 0 
L 51.421875 64.484375 
L 51.421875 72.734375 
L 4.828125 72.734375 
L 4.828125 64.921875 
L 42.328125 64.921875 
L 42.328125 64.34375 
z
" id="Inter-Regular-55"/>
        <path d="M 30.25 -1 
C 44.109375 -1 54.265625 9.234375 54.265625 23.15625 
C 54.265625 37.25 44.46875 47.578125 31.109375 47.578125 
C 26.203125 47.578125 21.453125 45.84375 18.46875 43.46875 
L 18.046875 43.46875 
L 20.59375 64.921875 
L 51 64.921875 
L 51 72.734375 
L 13.21875 72.734375 
L 8.8125 36.9375 
L 17.046875 35.9375 
C 20.0625 38.109375 25.21875 39.671875 29.6875 39.625 
C 38.953125 39.5625 45.734375 32.53125 45.734375 23.015625 
C 45.734375 13.671875 39.203125 6.8125 30.25 6.8125 
C 22.796875 6.8125 16.875 11.609375 16.1875 18.1875 
L 7.671875 18.1875 
C 8.203125 7.109375 17.75 -1 30.25 -1 
z
" id="Inter-Regular-53"/>
       </defs>
       <use xlink:href="#Inter-Regular-55"/>
       <use x="57.10228" xlink:href="#Inter-Regular-46"/>
       <use x="84.659103" xlink:href="#Inter-Regular-53"/>
      </g>
     </g>
    </g>
    <g id="xtick_4">
     <g id="line2d_7">
      <path clip-path="url(#p9eb148ceab)" d="M 211.964312 301.48 
L 211.964312 51.0736 
" style="fill:none;stroke:#e5e7eb;stroke-dasharray:3.7,1.6;stroke-dashoffset:0;"/>
     </g>
     <g id="line2d_8">
      <g>
       <use style="stroke:#000000;stroke-width:0.8;" x="211.964312" xlink:href="#m9a32caf3e3" y="301.48"/>
      </g>
     </g>
     <g id="text_4">
      <!-- 10.4 -->
      <g transform="translate(201.928374 315.753437)scale(0.1 -0.1)">
       <defs>
        <path d="M 33.09375 72.734375 
L 24.296875 72.734375 
L 6.109375 60.65625 
L 6.109375 51.703125 
L 23.859375 63.5 
L 24.296875 63.5 
L 24.296875 0 
L 33.09375 0 
z
" id="Inter-Regular-49"/>
       </defs>
       <use xlink:href="#Inter-Regular-49"/>
       <use x="46.448868" xlink:href="#Inter-Regular-48"/>
       <use x="108.948883" xlink:href="#Inter-Regular-46"/>
       <use x="136.505707" xlink:href="#Inter-Regular-52"/>
      </g>
     </g>
    </g>
    <g id="xtick_5">
     <g id="line2d_9">
      <path clip-path="url(#p9eb148ceab)" d="M 292.265 301.48 
L 292.265 51.0736 
" style="fill:none;stroke:#e5e7eb;stroke-dasharray:3.7,1.6;stroke-dashoffset:0;"/>
     </g>
     <g id="line2d_10">
      <g>
       <use style="stroke:#000000;stroke-width:0.8;" x="292.265" xlink:href="#m9a32caf3e3" y="301.48"/>
      </g>
     </g>
     <g id="text_5">
      <!-- 15.0 -->
      <g transform="translate(282.399375 315.753437)scale(0.1 -0.1)">
       <use xlink:href="#Inter-Regular-49"/>
       <use x="46.448868" xlink:href="#Inter-Regular-53"/>
       <use x="107.244339" xlink:href="#Inter-Regular-46"/>
       <use x="134.801163" xlink:href="#Inter-Regular-48"/>
      </g>
     </g>
    </g>
    <g id="xtick_6">
     <g id="line2d_11">
      <path clip-path="url(#p9eb148ceab)" d="M 372.565688 301.48 
L 372.565688 51.0736 
" style="fill:none;stroke:#e5e7eb;stroke-dasharray:3.7,1.6;stroke-dashoffset:0;"/>
     </g>
     <g id="line2d_12">
      <g>
       <use style="stroke:#000000;stroke-width:0.8;" x="372.565688" xlink:href="#m9a32caf3e3" y="301.48"/>
      </g>
     </g>
     <g id="text_6">
      <!-- 19.6 -->
      <g transform="translate(362.62897 315.753437)scale(0.1 -0.1)">
       <defs>
        <path d="M 30.6875 73.859375 
C 15.90625 74 6.390625 62.921875 6.390625 49.4375 
C 6.390625 35.375 16.765625 25.28125 29.265625 25.28125 
C 36.796875 25.28125 43.1875 28.984375 47.15625 34.9375 
L 47.734375 34.9375 
C 47.734375 17.046875 40.765625 6.8125 29.546875 6.8125 
C 21.875 6.8125 17.1875 11.640625 15.625 18.328125 
L 6.96875 18.328125 
C 8.671875 6.8125 17.328125 -1 29.546875 -1 
C 45.875 -1 55.96875 13.5 55.96875 39.34375 
C 55.96875 66.1875 42.609375 73.71875 30.6875 73.859375 
z
M 30.6875 66.046875 
C 39.78125 66.046875 46.453125 58.234375 46.453125 49.578125 
C 46.453125 40.90625 39.34375 33.09375 30.40625 33.09375 
C 21.453125 33.09375 14.921875 40.34375 14.921875 49.4375 
C 14.921875 58.671875 21.734375 66.046875 30.6875 66.046875 
z
" id="Inter-Regular-57"/>
       </defs>
       <use xlink:href="#Inter-Regular-49"/>
       <use x="46.448868" xlink:href="#Inter-Regular-57"/>
       <use x="108.806839" xlink:href="#Inter-Regular-46"/>
       <use x="136.363663" xlink:href="#Inter-Regular-54"/>
      </g>
     </g>
    </g>
    <g id="xtick_7">
     <g id="line2d_13">
      <path clip-path="url(#p9eb148ceab)" d="M 423.3325 301.48 
L 423.3325 51.0736 
" style="fill:none;stroke:#e5e7eb;stroke-dasharray:3.7,1.6;stroke-dashoffset:0;"/>
     </g>
     <g id="line2d_14">
      <g>
       <use style="stroke:#000000;stroke-width:0.8;" x="423.3325" xlink:href="#m9a32caf3e3" y="301.48"/>
      </g>
     </g>
     <g id="text_7">
      <!-- 22.5 -->
      <g transform="translate(412.862969 315.753437)scale(0.1 -0.1)">
       <defs>
        <path d="M 7.53125 0 
L 53.40625 0 
L 53.40625 7.8125 
L 19.609375 7.8125 
L 19.609375 8.375 
L 35.9375 25.859375 
C 48.4375 39.234375 52.125 45.484375 52.125 53.546875 
C 52.125 64.765625 43.046875 73.71875 30.25 73.71875 
C 17.515625 73.71875 7.8125 65.0625 7.8125 52.265625 
L 16.1875 52.265625 
C 16.1875 60.546875 21.5625 66.046875 29.96875 66.046875 
C 37.859375 66.046875 43.890625 61.21875 43.890625 53.546875 
C 43.890625 46.84375 39.953125 41.875 31.53125 32.671875 
L 7.53125 6.390625 
z
" id="Inter-Regular-50"/>
       </defs>
       <use xlink:href="#Inter-Regular-50"/>
       <use x="60.511383" xlink:href="#Inter-Regular-50"/>
       <use x="121.022766" xlink:href="#Inter-Regular-46"/>
       <use x="148.57959" xlink:href="#Inter-Regular-53"/>
      </g>
     </g>
    </g>
    <g id="xtick_8">
     <g id="line2d_15">
      <path clip-path="url(#p9eb148ceab)" d="M 474.099312 301.48 
L 474.099312 51.0736 
" style="fill:none;stroke:#e5e7eb;stroke-dasharray:3.7,1.6;stroke-dashoffset:0;"/>
     </g>
     <g id="line2d_16">
      <g>
       <use style="stroke:#000000;stroke-width:0.8;" x="474.099312" xlink:href="#m9a32caf3e3" y="301.48"/>
      </g>
     </g>
     <g id="text_8">
      <!-- 25.4 -->
      <g transform="translate(463.445405 315.753437)scale(0.1 -0.1)">
       <use xlink:href="#Inter-Regular-50"/>
       <use x="60.511383" xlink:href="#Inter-Regular-53"/>
       <use x="121.306854" xlink:href="#Inter-Regular-46"/>
       <use x="148.863678" xlink:href="#Inter-Regular-52"/>
      </g>
     </g>
    </g>
    <g id="xtick_9">
     <g id="line2d_17">
      <path clip-path="url(#p9eb148ceab)" d="M 554.4 301.48 
L 554.4 51.0736 
" style="fill:none;stroke:#e5e7eb;stroke-dasharray:3.7,1.6;stroke-dashoffset:0;"/>
     </g>
     <g id="line2d_18">
      <g>
       <use style="stroke:#000000;stroke-width:0.8;" x="554.4" xlink:href="#m9a32caf3e3" y="301.48"/>
      </g>
     </g>
     <g id="text_9">
      <!-- 30.0 -->
      <g transform="translate(543.589844 315.753437)scale(0.1 -0.1)">
       <defs>
        <path d="M 32.109375 -1 
C 46.203125 -1 56.671875 7.84375 56.671875 19.75 
C 56.671875 28.984375 51.203125 35.6875 42.046875 37.21875 
L 42.046875 37.78125 
C 49.390625 40.015625 53.984375 46.0625 53.984375 54.265625 
C 53.984375 64.5625 45.84375 73.71875 32.390625 73.71875 
C 19.8125 73.71875 9.375 65.984375 8.953125 54.546875 
L 17.46875 54.546875 
C 17.796875 61.796875 24.6875 66.046875 32.25 66.046875 
C 40.265625 66.046875 45.453125 61.1875 45.453125 53.828125 
C 45.453125 46.171875 39.453125 41.1875 30.828125 41.1875 
L 25 41.1875 
L 25 33.375 
L 30.828125 33.375 
C 41.875 33.375 48.015625 27.765625 48.015625 19.75 
C 48.015625 12.03125 41.296875 6.8125 31.96875 6.8125 
C 23.546875 6.8125 16.875 11.15625 16.34375 18.1875 
L 7.390625 18.1875 
C 7.921875 6.75 18 -1 32.109375 -1 
z
" id="Inter-Regular-51"/>
       </defs>
       <use xlink:href="#Inter-Regular-51"/>
       <use x="63.636383" xlink:href="#Inter-Regular-48"/>
       <use x="126.136398" xlink:href="#Inter-Regular-46"/>
       <use x="153.693222" xlink:href="#Inter-Regular-48"/>
      </g>
     </g>
    </g>
    <g id="text_10">
     <!-- Orbit Position $s$ / m -->
     <g transform="translate(247.215 329.072187)scale(0.1 -0.1)">
      <defs>
       <path d="M 70.171875 36.359375 
C 70.171875 59.375 56.671875 73.71875 38.0625 73.71875 
C 19.46875 73.71875 5.96875 59.375 5.96875 36.359375 
C 5.96875 13.359375 19.46875 -1 38.0625 -1 
C 56.671875 -1 70.171875 13.359375 70.171875 36.359375 
z
M 61.65625 36.359375 
C 61.65625 17.46875 51.28125 7.25 38.0625 7.25 
C 24.859375 7.25 14.484375 17.46875 14.484375 36.359375 
C 14.484375 55.25 24.859375 65.484375 38.0625 65.484375 
C 51.28125 65.484375 61.65625 55.25 61.65625 36.359375 
z
" id="Inter-Regular-79"/>
       <path d="M 7.671875 0 
L 16.046875 0 
L 16.046875 34.515625 
C 16.046875 41.90625 21.875 47.296875 29.828125 47.296875 
C 32.0625 47.296875 34.375 46.875 34.9375 46.734375 
L 34.9375 55.25 
C 33.984375 55.328125 31.78125 55.390625 30.546875 55.390625 
C 24 55.390625 18.328125 51.703125 16.34375 46.3125 
L 15.765625 46.3125 
L 15.765625 54.546875 
L 7.671875 54.546875 
z
" id="Inter-Regular-114"/>
       <path d="M 8.8125 0 
L 16.90625 0 
L 16.90625 8.375 
L 17.90625 8.375 
C 19.75 5.390625 23.296875 -1.140625 33.8125 -1.140625 
C 47.4375 -1.140625 56.96875 9.796875 56.96875 27.125 
C 56.96875 44.3125 47.4375 55.25 33.671875 55.25 
C 23.015625 55.25 19.75 48.71875 17.90625 45.875 
L 17.1875 45.875 
L 17.1875 72.734375 
L 8.8125 72.734375 
z
M 17.046875 27.265625 
C 17.046875 39.484375 22.4375 47.734375 32.671875 47.734375 
C 43.328125 47.734375 48.578125 38.78125 48.578125 27.265625 
C 48.578125 15.625 43.1875 6.390625 32.671875 6.390625 
C 22.59375 6.390625 17.046875 14.921875 17.046875 27.265625 
z
" id="Inter-Regular-98"/>
       <path d="M 11.9375 63.640625 
C 15.203125 63.640625 17.90625 66.1875 17.90625 69.3125 
C 17.90625 72.4375 15.203125 75 11.9375 75 
C 8.671875 75 5.96875 72.4375 5.96875 69.3125 
C 5.96875 66.1875 8.671875 63.640625 11.9375 63.640625 
z
M 7.671875 0 
L 16.046875 0 
L 16.046875 54.546875 
L 7.671875 54.546875 
z
" id="Inter-Regular-105"/>
       <path d="M 31.390625 54.546875 
L 19.75 54.546875 
L 19.75 67.609375 
L 11.359375 67.609375 
L 11.359375 54.546875 
L 3.125 54.546875 
L 3.125 47.4375 
L 11.359375 47.4375 
L 11.359375 13.359375 
C 11.359375 3.828125 19.03125 -0.703125 26.140625 -0.703125 
C 29.265625 -0.703125 31.25 -0.140625 32.390625 0.28125 
L 30.6875 7.8125 
C 29.96875 7.671875 28.84375 7.390625 26.984375 7.390625 
C 23.296875 7.390625 19.75 8.515625 19.75 15.625 
L 19.75 47.4375 
L 31.390625 47.4375 
z
" id="Inter-Regular-116"/>
       <path id="Inter-Regular-32"/>
       <path d="M 8.8125 0 
L 17.609375 0 
L 17.609375 26.5625 
L 33.53125 26.5625 
C 50.46875 26.5625 58.09375 36.859375 58.09375 49.71875 
C 58.09375 62.578125 50.46875 72.734375 33.375 72.734375 
L 8.8125 72.734375 
z
M 33.09375 64.921875 
C 44.921875 64.921875 49.4375 58.453125 49.4375 49.71875 
C 49.4375 40.984375 44.921875 34.375 33.234375 34.375 
L 17.609375 34.375 
L 17.609375 64.921875 
z
" id="Inter-Regular-80"/>
       <path d="M 29.828125 -1.140625 
C 44.609375 -1.140625 54.546875 10.078125 54.546875 26.984375 
C 54.546875 44.03125 44.609375 55.25 29.828125 55.25 
C 15.0625 55.25 5.109375 44.03125 5.109375 26.984375 
C 5.109375 10.078125 15.0625 -1.140625 29.828125 -1.140625 
z
M 29.828125 6.390625 
C 18.609375 6.390625 13.5 16.046875 13.5 26.984375 
C 13.5 37.921875 18.609375 47.734375 29.828125 47.734375 
C 41.046875 47.734375 46.171875 37.921875 46.171875 26.984375 
C 46.171875 16.046875 41.046875 6.390625 29.828125 6.390625 
z
" id="Inter-Regular-111"/>
       <path d="M 46.3125 42.328125 
C 43.6875 50.078125 37.78125 55.25 26.984375 55.25 
C 15.484375 55.25 6.96875 48.71875 6.96875 39.484375 
C 6.96875 31.953125 11.4375 26.921875 21.453125 24.578125 
L 30.546875 22.4375 
C 36.046875 21.171875 38.640625 18.53125 38.640625 14.765625 
C 38.640625 10.078125 33.671875 6.25 25.859375 6.25 
C 19 6.25 14.703125 9.203125 13.21875 15.0625 
L 5.25 13.0625 
C 7.203125 3.796875 14.84375 -1.140625 26 -1.140625 
C 38.671875 -1.140625 47.296875 5.78125 47.296875 15.203125 
C 47.296875 22.796875 42.546875 27.59375 32.8125 29.96875 
L 24.71875 31.953125 
C 18.25 33.5625 15.34375 35.71875 15.34375 39.921875 
C 15.34375 44.609375 20.3125 48.015625 26.984375 48.015625 
C 34.3125 48.015625 37.328125 43.96875 38.78125 40.203125 
z
" id="Inter-Regular-115"/>
       <path d="M 16.046875 32.8125 
C 16.046875 42.328125 21.953125 47.734375 29.96875 47.734375 
C 37.75 47.734375 42.46875 42.65625 42.46875 34.09375 
L 42.46875 0 
L 50.859375 0 
L 50.859375 34.65625 
C 50.859375 48.578125 43.4375 55.25 32.390625 55.25 
C 24.15625 55.25 19.03125 51.5625 16.484375 46.015625 
L 15.765625 46.015625 
L 15.765625 54.546875 
L 7.671875 54.546875 
L 7.671875 0 
L 16.046875 0 
z
" id="Inter-Regular-110"/>
       <path d="M 50 53.078125 
L 48.296875 44.578125 
Q 44.734375 46.53125 40.765625 47.5 
Q 36.8125 48.484375 32.625 48.484375 
Q 25.53125 48.484375 21.453125 46.0625 
Q 17.390625 43.65625 17.390625 39.5 
Q 17.390625 34.671875 26.859375 32.078125 
Q 27.59375 31.890625 27.9375 31.78125 
L 30.8125 30.90625 
Q 39.796875 28.421875 42.796875 25.6875 
Q 45.796875 22.953125 45.796875 18.21875 
Q 45.796875 9.515625 38.890625 4.046875 
Q 31.984375 -1.421875 20.796875 -1.421875 
Q 16.453125 -1.421875 11.671875 -0.578125 
Q 6.890625 0.25 1.125 2 
L 2.875 11.28125 
Q 7.8125 8.734375 12.59375 7.421875 
Q 17.390625 6.109375 21.78125 6.109375 
Q 28.375 6.109375 32.5 8.9375 
Q 36.625 11.765625 36.625 16.109375 
Q 36.625 20.796875 25.78125 23.6875 
L 24.859375 23.921875 
L 21.78125 24.703125 
Q 14.9375 26.515625 11.765625 29.46875 
Q 8.59375 32.421875 8.59375 37.015625 
Q 8.59375 45.75 15.15625 50.875 
Q 21.734375 56 33.015625 56 
Q 37.453125 56 41.671875 55.265625 
Q 45.90625 54.546875 50 53.078125 
z
" id="DejaVuSans-Oblique-115"/>
       <path d="M 33.375 76.140625 
L 25.71875 76.140625 
L 2.28125 -10.9375 
L 9.9375 -10.9375 
z
" id="Inter-Regular-47"/>
       <path d="M 7.671875 0 
L 16.046875 0 
L 16.046875 34.09375 
C 16.046875 42.078125 21.875 47.734375 28.40625 47.734375 
C 34.765625 47.734375 39.203125 43.578125 39.203125 37.359375 
L 39.203125 0 
L 47.734375 0 
L 47.734375 35.515625 
C 47.734375 42.546875 52.125 47.734375 59.796875 47.734375 
C 65.765625 47.734375 70.875 44.5625 70.875 36.5 
L 70.875 0 
L 79.265625 0 
L 79.265625 36.5 
C 79.265625 49.328125 72.375 55.25 62.640625 55.25 
C 54.828125 55.25 49.109375 51.671875 46.3125 46.015625 
L 45.734375 46.015625 
C 43.046875 51.84375 38.28125 55.25 31.109375 55.25 
C 24 55.25 18.75 51.84375 16.484375 46.015625 
L 15.765625 46.015625 
L 15.765625 54.546875 
L 7.671875 54.546875 
z
" id="Inter-Regular-109"/>
      </defs>
      <use transform="translate(0 0.859375)" xlink:href="#Inter-Regular-79"/>
      <use transform="translate(76.136383 0.859375)" xlink:href="#Inter-Regular-114"/>
      <use transform="translate(113.352295 0.859375)" xlink:href="#Inter-Regular-98"/>
      <use transform="translate(175.426178 0.859375)" xlink:href="#Inter-Regular-105"/>
      <use transform="translate(199.147766 0.859375)" xlink:href="#Inter-Regular-116"/>
      <use transform="translate(235.511414 0.859375)" xlink:href="#Inter-Regular-32"/>
      <use transform="translate(263.636414 0.859375)" xlink:href="#Inter-Regular-80"/>
      <use transform="translate(327.130737 0.859375)" xlink:href="#Inter-Regular-111"/>
      <use transform="translate(386.789841 0.859375)" xlink:href="#Inter-Regular-115"/>
      <use transform="translate(439.062576 0.859375)" xlink:href="#Inter-Regular-105"/>
      <use transform="translate(462.784164 0.859375)" xlink:href="#Inter-Regular-116"/>
      <use transform="translate(499.147812 0.859375)" xlink:href="#Inter-Regular-105"/>
      <use transform="translate(522.8694 0.859375)" xlink:href="#Inter-Regular-111"/>
      <use transform="translate(582.528503 0.859375)" xlink:href="#Inter-Regular-110"/>
      <use transform="translate(641.051239 0.859375)" xlink:href="#Inter-Regular-32"/>
      <use transform="translate(669.176239 0.859375)" xlink:href="#DejaVuSans-Oblique-115"/>
      <use transform="translate(721.275848 0.859375)" xlink:href="#Inter-Regular-32"/>
      <use transform="translate(749.400848 0.859375)" xlink:href="#Inter-Regular-47"/>
      <use transform="translate(785.05426 0.859375)" xlink:href="#Inter-Regular-32"/>
      <use transform="translate(813.17926 0.859375)" xlink:href="#Inter-Regular-109"/>
     </g>
    </g>
   </g>
   <g id="matplotlib.axis_2">
    <g id="ytick_1">
     <g id="line2d_19">
      <path clip-path="url(#p9eb148ceab)" d="M 30.13 272.89415 
L 554.4 272.89415 
" style="fill:none;stroke:#e5e7eb;stroke-dasharray:3.7,1.6;stroke-dashoffset:0;"/>
     </g>
     <g id="line2d_20">
      <defs>
       <path d="M 0 0 
L -3.5 0 
" id="m66a185fdf7" style="stroke:#000000;stroke-width:0.8;"/>
      </defs>
      <g>
       <use style="stroke:#000000;stroke-width:0.8;" x="30.13" xlink:href="#m66a185fdf7" y="272.89415"/>
      </g>
     </g>
     <g id="text_11">
      <!-- 0 -->
      <g transform="translate(16.88 276.530869)scale(0.1 -0.1)">
       <use xlink:href="#Inter-Regular-48"/>
      </g>
     </g>
    </g>
    <g id="ytick_2">
     <g id="line2d_21">
      <path clip-path="url(#p9eb148ceab)" d="M 30.13 227.360919 
L 554.4 227.360919 
" style="fill:none;stroke:#e5e7eb;stroke-dasharray:3.7,1.6;stroke-dashoffset:0;"/>
     </g>
     <g id="line2d_22">
      <g>
       <use style="stroke:#000000;stroke-width:0.8;" x="30.13" xlink:href="#m66a185fdf7" y="227.360919"/>
      </g>
     </g>
     <g id="text_12">
      <!-- 5 -->
      <g transform="translate(17.050313 230.997638)scale(0.1 -0.1)">
       <use xlink:href="#Inter-Regular-53"/>
      </g>
     </g>
    </g>
    <g id="ytick_3">
     <g id="line2d_23">
      <path clip-path="url(#p9eb148ceab)" d="M 30.13 181.827688 
L 554.4 181.827688 
" style="fill:none;stroke:#e5e7eb;stroke-dasharray:3.7,1.6;stroke-dashoffset:0;"/>
     </g>
     <g id="line2d_24">
      <g>
       <use style="stroke:#000000;stroke-width:0.8;" x="30.13" xlink:href="#m66a185fdf7" y="181.827688"/>
      </g>
     </g>
     <g id="text_13">
      <!-- 10 -->
      <g transform="translate(12.234688 185.464406)scale(0.1 -0.1)">
       <use xlink:href="#Inter-Regular-49"/>
       <use x="46.448868" xlink:href="#Inter-Regular-48"/>
      </g>
     </g>
    </g>
    <g id="ytick_4">
     <g id="line2d_25">
      <path clip-path="url(#p9eb148ceab)" d="M 30.13 136.294456 
L 554.4 136.294456 
" style="fill:none;stroke:#e5e7eb;stroke-dasharray:3.7,1.6;stroke-dashoffset:0;"/>
     </g>
     <g id="line2d_26">
      <g>
       <use style="stroke:#000000;stroke-width:0.8;" x="30.13" xlink:href="#m66a185fdf7" y="136.294456"/>
      </g>
     </g>
     <g id="text_14">
      <!-- 15 -->
      <g transform="translate(12.405 139.931175)scale(0.1 -0.1)">
       <use xlink:href="#Inter-Regular-49"/>
       <use x="46.448868" xlink:href="#Inter-Regular-53"/>
      </g>
     </g>
    </g>
    <g id="ytick_5">
     <g id="line2d_27">
      <path clip-path="url(#p9eb148ceab)" d="M 30.13 90.761225 
L 554.4 90.761225 
" style="fill:none;stroke:#e5e7eb;stroke-dasharray:3.7,1.6;stroke-dashoffset:0;"/>
     </g>
     <g id="line2d_28">
      <g>
       <use style="stroke:#000000;stroke-width:0.8;" x="30.13" xlink:href="#m66a185fdf7" y="90.761225"/>
      </g>
     </g>
     <g id="text_15">
      <!-- 20 -->
      <g transform="translate(10.828438 94.397944)scale(0.1 -0.1)">
       <use xlink:href="#Inter-Regular-50"/>
       <use x="60.511383" xlink:href="#Inter-Regular-48"/>
      </g>
     </g>
    </g>
   </g>
   <g id="patch_3">
    <path d="M 30.13 301.48 
L 30.13 51.0736 
" style="fill:none;stroke:#000000;stroke-linecap:square;stroke-linejoin:miter;stroke-width:0.8;"/>
   </g>
   <g id="patch_4">
    <path d="M 554.4 301.48 
L 554.4 51.0736 
" style="fill:none;stroke:#000000;stroke-linecap:square;stroke-linejoin:miter;stroke-width:0.8;"/>
   </g>
   <g id="patch_5">
    <path d="M 30.13 301.48 
L 554.4 301.48 
" style="fill:none;stroke:#000000;stroke-linecap:square;stroke-linejoin:miter;stroke-width:0.8;"/>
   </g>
   <g id="patch_6">
    <path d="M 30.13 51.0736 
L 554.4 51.0736 
" style="fill:none;stroke:#000000;stroke-linecap:square;stroke-linejoin:miter;stroke-width:0.8;"/>
   </g>
   <g id="legend_1">
    <g id="line2d_29">
     <path d="M 39.13 22.95328 
L 59.13 22.95328 
" style="fill:none;stroke:#ef4444;stroke-linecap:square;stroke-width:1.3;"/>
    </g>
    <g id="line2d_30"/>
    <g id="text_16">
     <!-- $\beta_x$ / m -->
     <g transform="translate(67.13 26.45328)scale(0.1 -0.1)">
      <defs>
       <path d="M 13.625 3.375 
L 8.9375 -20.796875 
L -0.09375 -20.796875 
L 14.5 54.34375 
Q 18.84375 76.609375 39.65625 76.609375 
Q 60.75 76.609375 57.171875 57.8125 
Q 54.734375 44.4375 45.21875 39.546875 
Q 58.015625 35.15625 55.515625 22.125 
Q 51.125 -1.078125 27.484375 -1.03125 
Q 17.140625 -0.984375 13.625 3.375 
z
M 15.921875 15.09375 
Q 19.671875 6.59375 29.296875 6.640625 
Q 43.359375 6.640625 46.34375 21.96875 
Q 49.03125 35.75 26.171875 34.671875 
L 27.78125 42.96875 
Q 45.453125 42.671875 48.53125 58.59375 
Q 50.640625 69.34375 39.203125 69.28125 
Q 26.421875 69.28125 23.484375 54.046875 
z
" id="DejaVuSans-Oblique-946"/>
       <path d="M 60.015625 54.6875 
L 34.90625 27.875 
L 50.296875 0 
L 39.984375 0 
L 28.421875 21.6875 
L 8.296875 0 
L -2.59375 0 
L 24.3125 28.8125 
L 10.015625 54.6875 
L 20.3125 54.6875 
L 30.8125 34.90625 
L 49.125 54.6875 
z
" id="DejaVuSans-Oblique-120"/>
      </defs>
      <use transform="translate(0 0.390625)" xlink:href="#DejaVuSans-Oblique-946"/>
      <use transform="translate(63.818359 -16.015625)scale(0.7)" xlink:href="#DejaVuSans-Oblique-120"/>
      <use transform="translate(107.978516 0.390625)" xlink:href="#Inter-Regular-32"/>
      <use transform="translate(136.103516 0.390625)" xlink:href="#Inter-Regular-47"/>
      <use transform="translate(171.756927 0.390625)" xlink:href="#Inter-Regular-32"/>
      <use transform="translate(199.881927 0.390625)" xlink:href="#Inter-Regular-109"/>
     </g>
    </g>
    <g id="line2d_31">
     <path d="M 257.065 22.95328 
L 277.065 22.95328 
" style="fill:none;stroke:#3b82f6;stroke-linecap:square;stroke-width:1.3;"/>
    </g>
    <g id="line2d_32"/>
    <g id="text_17">
     <!-- $\beta_y$ / m -->
     <g transform="translate(285.065 26.45328)scale(0.1 -0.1)">
      <defs>
       <path d="M 24.8125 -5.078125 
Q 18.5625 -15.578125 14.625 -18.1875 
Q 10.6875 -20.796875 4.59375 -20.796875 
L -2.484375 -20.796875 
L -0.984375 -13.28125 
L 4.203125 -13.28125 
Q 7.953125 -13.28125 10.59375 -11.234375 
Q 13.234375 -9.1875 16.5 -3.21875 
L 19.28125 2 
L 7.171875 54.6875 
L 16.703125 54.6875 
L 25.78125 12.796875 
L 50.875 54.6875 
L 60.296875 54.6875 
z
" id="DejaVuSans-Oblique-121"/>
      </defs>
      <use transform="translate(0 0.390625)" xlink:href="#DejaVuSans-Oblique-946"/>
      <use transform="translate(63.818359 -16.015625)scale(0.7)" xlink:href="#DejaVuSans-Oblique-121"/>
      <use transform="translate(107.978516 0.390625)" xlink:href="#Inter-Regular-32"/>
      <use transform="translate(136.103516 0.390625)" xlink:href="#Inter-Regular-47"/>
      <use transform="translate(171.756927 0.390625)" xlink:href="#Inter-Regular-32"/>
      <use transform="translate(199.881927 0.390625)" xlink:href="#Inter-Regular-109"/>
     </g>
    </g>
    <g id="line2d_33">
     <path d="M 475 22.95328 
L 495 22.95328 
" style="fill:none;stroke:#10b981;stroke-linecap:square;stroke-width:1.3;"/>
    </g>
    <g id="line2d_34"/>
    <g id="text_18">
     <!-- 10 $\eta_x$ / m -->
     <g transform="translate(503 26.45328)scale(0.1 -0.1)">
      <defs>
       <path d="M 57.859375 33.015625 
L 47.40625 -20.796875 
L 38.421875 -20.796875 
L 48.828125 32.71875 
Q 50.34375 40.484375 48.046875 44.34375 
Q 45.796875 48.1875 39.75 48.1875 
Q 32.46875 48.1875 27.34375 43.5625 
Q 22.265625 38.921875 20.703125 30.90625 
L 14.703125 0 
L 5.671875 0 
L 16.3125 54.6875 
L 25.34375 54.6875 
L 23.6875 46.1875 
Q 27.828125 51.125 32.71875 53.5625 
Q 37.546875 56 43.265625 56 
Q 52.6875 56 56.390625 50.203125 
Q 60.0625 44.34375 57.859375 33.015625 
z
" id="DejaVuSans-Oblique-951"/>
      </defs>
      <use transform="translate(0 0.859375)" xlink:href="#Inter-Regular-49"/>
      <use transform="translate(46.448868 0.859375)" xlink:href="#Inter-Regular-48"/>
      <use transform="translate(108.948883 0.859375)" xlink:href="#Inter-Regular-32"/>
      <use transform="translate(137.073883 0.859375)" xlink:href="#DejaVuSans-Oblique-951"/>
      <use transform="translate(200.452789 -15.546875)scale(0.7)" xlink:href="#DejaVuSans-Oblique-120"/>
      <use transform="translate(244.612946 0.859375)" xlink:href="#Inter-Regular-32"/>
      <use transform="translate(272.737946 0.859375)" xlink:href="#Inter-Regular-47"/>
      <use transform="translate(308.391357 0.859375)" xlink:href="#Inter-Regular-32"/>
      <use transform="translate(336.516357 0.859375)" xlink:href="#Inter-Regular-109"/>
     </g>
    </g>
   </g>
   <g id="line2d_35">
    <path clip-path="url(#p9eb148ceab)" d="M 30.13 272.894245 
L 111.822818 272.797607 
L 113.388963 272.45821 
L 114.955109 271.87478 
L 116.521254 271.047839 
L 118.0874 269.97813 
L 119.827562 268.506011 
L 121.567723 266.736999 
L 123.481901 264.45052 
L 125.396079 261.810241 
L 127.484273 258.530599 
L 129.572467 254.839355 
L 131.663623 250.703596 
L 137.08108 239.263417 
L 138.828647 234.877264 
L 153.420828 195.657997 
L 154.294612 194.162333 
L 154.993638 193.308989 
L 155.692665 192.764367 
L 156.391692 192.53058 
L 158.488772 192.520834 
L 166.352822 192.608532 
L 167.051848 192.997925 
L 167.750875 193.697247 
L 168.449902 194.703785 
L 169.323685 196.387918 
L 170.37102 199.007502 
L 185.139163 238.850955 
L 186.88673 242.73331 
L 192.996549 255.162528 
L 195.258759 259.105926 
L 197.346953 262.31644 
L 199.435147 265.109315 
L 201.349325 267.29875 
L 203.089487 268.978885 
L 204.829649 270.361602 
L 206.56981 271.44537 
L 208.135956 272.164162 
L 209.702101 272.639184 
L 211.268247 272.870011 
L 213.362365 272.894157 
L 373.957818 272.797587 
L 375.523963 272.458191 
L 377.090109 271.874761 
L 378.656254 271.047821 
L 380.2224 269.978113 
L 381.962562 268.505995 
L 383.702723 266.736983 
L 385.616901 264.450505 
L 387.531079 261.810227 
L 389.619273 258.530586 
L 391.707467 254.839343 
L 393.798623 250.703585 
L 399.21608 239.263409 
L 400.963647 234.877257 
L 415.555828 195.657994 
L 416.429612 194.16233 
L 417.128638 193.308987 
L 417.827665 192.764365 
L 418.526692 192.530578 
L 420.623772 192.520832 
L 428.487822 192.608534 
L 429.186848 192.997928 
L 429.885875 193.69725 
L 430.584902 194.703788 
L 431.458685 196.387922 
L 432.50602 199.007505 
L 447.274163 238.850963 
L 449.02173 242.733319 
L 455.131549 255.16254 
L 457.393759 259.105939 
L 459.481953 262.316455 
L 461.570147 265.10933 
L 463.484325 267.298766 
L 465.224487 268.978902 
L 466.964649 270.36162 
L 468.70481 271.445389 
L 470.270956 272.164181 
L 471.837101 272.639204 
L 473.403247 272.870031 
L 475.497365 272.894178 
L 554.4 272.894245 
L 554.4 272.894245 
" style="fill:none;stroke:#10b981;stroke-linecap:square;stroke-width:1.3;"/>
   </g>
   <g id="line2d_36">
    <path clip-path="url(#p9eb148ceab)" d="M 30.13 229.829124 
L 34.31819 229.718519 
L 38.506379 229.386702 
L 42.694569 228.833673 
L 46.882759 228.059434 
L 51.070948 227.063983 
L 55.259138 225.84732 
L 59.621836 224.344734 
L 63.984533 222.602119 
L 68.347231 220.619474 
L 72.709928 218.396799 
L 77.247134 215.830594 
L 81.788071 213.002342 
L 84.986118 210.819624 
L 85.685144 210.052436 
L 86.558928 208.679793 
L 87.432711 206.82922 
L 88.306494 204.474704 
L 89.355034 200.936956 
L 90.403574 196.55383 
L 91.452114 191.236559 
L 92.500654 184.877459 
L 93.70866 176.140064 
L 96.048215 157.31811 
L 98.494808 135.816715 
L 101.016765 111.707251 
L 102.741395 95.585285 
L 103.615178 89.344504 
L 104.488962 84.6339 
L 105.187988 82.023776 
L 105.712258 80.762156 
L 106.935555 78.956631 
L 110.430688 73.826762 
L 119.479529 74.008265 
L 128.52837 73.966161 
L 130.964597 73.91662 
L 136.03254 81.647194 
L 136.55681 83.255703 
L 137.255837 86.259348 
L 138.12962 91.347964 
L 139.003403 97.839369 
L 142.118582 122.416803 
L 145.06746 143.940198 
L 147.858745 162.752521 
L 150.635569 179.961168 
L 152.721802 191.722715 
L 153.595585 195.422268 
L 154.469368 198.109693 
L 155.168395 199.575571 
L 155.692665 200.291653 
L 156.216935 200.686385 
L 156.741205 200.780707 
L 162.198379 200.910761 
L 166.003308 200.851023 
L 166.527578 200.574227 
L 167.051848 199.978113 
L 167.576118 199.057472 
L 168.275145 197.310813 
L 168.974172 194.945437 
L 169.847955 191.061682 
L 171.238777 183.279305 
L 173.842049 167.559996 
L 176.628514 149.285822 
L 179.411091 129.542348 
L 182.353204 107.04223 
L 184.440137 91.137874 
L 185.31392 86.383357 
L 186.012947 83.651959 
L 186.537217 82.248648 
L 187.061487 81.376346 
L 191.60442 75.079195 
L 200.65326 75.362103 
L 209.702101 75.419811 
L 211.964312 75.39905 
L 216.857498 82.764268 
L 217.381768 84.427557 
L 217.906038 86.849781 
L 218.605065 91.224861 
L 219.478848 98.441917 
L 220.527388 109.444633 
L 224.424462 154.235065 
L 226.681007 176.936876 
L 228.853451 196.492936 
L 229.894346 204.600143 
L 230.942886 211.092262 
L 231.991426 216.131606 
L 232.865209 219.361227 
L 233.738992 221.8014 
L 234.438019 223.229111 
L 235.137046 224.217318 
L 235.836072 224.782717 
L 236.360342 224.935308 
L 236.884612 224.857035 
L 237.408882 224.547153 
L 238.259729 223.649334 
L 242.004983 219.266885 
L 246.77584 213.58743 
L 247.30011 213.497687 
L 247.82438 213.68584 
L 248.34865 214.150111 
L 248.87292 214.886118 
L 249.571449 216.261821 
L 252.882377 223.094971 
L 256.019047 229.059947 
L 258.981456 234.239214 
L 261.943866 238.977139 
L 264.732016 243.0332 
L 267.520166 246.698316 
L 270.134057 249.779304 
L 272.747948 252.516687 
L 275.18758 254.76157 
L 277.627211 256.707136 
L 279.892583 258.245721 
L 282.157955 259.526221 
L 284.423327 260.548635 
L 286.688699 261.312965 
L 288.779812 261.78943 
L 290.870925 262.045988 
L 292.962038 262.082639 
L 295.05315 261.899383 
L 297.144263 261.49622 
L 299.235376 260.873151 
L 301.326488 260.030174 
L 303.59186 258.868791 
L 305.857233 257.449322 
L 308.122605 255.771768 
L 310.562236 253.676543 
L 313.001868 251.282001 
L 315.615758 248.384269 
L 318.229649 245.142933 
L 320.84354 241.557991 
L 323.63169 237.355325 
L 326.5941 232.461632 
L 329.55651 227.126599 
L 332.693179 220.996693 
L 336.006594 214.365545 
L 336.530864 213.81008 
L 337.055134 213.529561 
L 337.579404 213.526636 
L 338.103674 213.801334 
L 338.627944 214.351061 
L 342.525017 219.266885 
L 346.270271 223.649334 
L 347.295874 224.676317 
L 347.820144 224.908778 
L 348.344414 224.910123 
L 348.868684 224.680363 
L 349.392954 224.217318 
L 350.091981 223.229111 
L 350.791008 221.8014 
L 351.490034 219.910067 
L 352.363818 216.844465 
L 353.237601 212.922927 
L 354.111384 208.041855 
L 355.159924 200.734442 
L 356.512104 189.238355 
L 358.532728 170.315229 
L 360.629808 148.612238 
L 362.817543 123.730591 
L 364.876395 100.105816 
L 365.750178 92.516789 
L 366.623962 86.849781 
L 367.322988 83.788 
L 367.847258 82.381023 
L 368.895798 80.811871 
L 372.565688 75.39905 
L 381.614529 75.397643 
L 390.66337 75.171035 
L 393.099597 75.071548 
L 398.16754 82.654247 
L 398.69181 84.243413 
L 399.390837 87.21696 
L 400.089863 91.137874 
L 400.963647 97.307221 
L 404.945844 128.265038 
L 407.901486 149.285822 
L 410.687951 167.559996 
L 413.464774 184.280772 
L 415.031558 192.743635 
L 415.905342 196.207531 
L 416.604368 198.259566 
L 417.303395 199.707629 
L 417.827665 200.411201 
L 418.351935 200.794031 
L 418.876205 200.876931 
L 424.333379 200.889149 
L 428.138308 200.747228 
L 428.662578 200.458709 
L 429.186848 199.850299 
L 429.711118 198.916683 
L 430.410145 197.151469 
L 431.109172 194.765838 
L 431.982955 190.853893 
L 433.373777 183.020543 
L 435.977049 167.195523 
L 438.763514 148.793876 
L 441.546091 128.908327 
L 444.488204 106.241925 
L 446.575137 90.214987 
L 447.44892 85.417773 
L 448.147947 82.657486 
L 448.672217 81.235786 
L 449.196487 80.347858 
L 453.73942 73.920697 
L 462.78826 74.018702 
L 471.837101 73.893101 
L 474.099312 73.826762 
L 478.992498 81.115703 
L 479.516768 82.577663 
L 480.215795 85.449228 
L 480.914822 89.344504 
L 481.788605 95.585285 
L 482.837145 104.937696 
L 486.035192 135.816715 
L 488.648896 158.718909 
L 491.155562 178.69015 
L 492.378859 187.120406 
L 493.602156 194.018226 
L 494.825452 199.573861 
L 495.873992 203.384628 
L 496.922532 206.399586 
L 497.796316 208.348646 
L 498.670099 209.815121 
L 499.543882 210.819624 
L 500.56184 211.552115 
L 505.188523 214.558474 
L 509.725977 217.244657 
L 514.263182 219.671069 
L 518.62588 221.759327 
L 522.988578 223.607555 
L 527.351275 225.215754 
L 531.713973 226.583923 
L 536.07667 227.712063 
L 540.26486 228.569257 
L 544.45305 229.205239 
L 548.641239 229.620011 
L 552.829429 229.81357 
L 554.4 229.829124 
L 554.4 229.829124 
" style="fill:none;stroke:#3b82f6;stroke-linecap:square;stroke-width:1.3;"/>
   </g>
   <g id="patch_7">
    <path d="M 79.166721 56.594023 
L 81.962827 56.594023 
L 81.962827 45.553177 
L 79.166721 45.553177 
z
" style="fill:#10b981;"/>
   </g>
   <g id="patch_8">
    <path d="M 84.636604 56.594023 
L 93.374438 56.594023 
L 93.374438 45.553177 
L 84.636604 45.553177 
z
" style="fill:#ef4444;"/>
   </g>
   <g id="patch_9">
    <path d="M 96.048215 56.594023 
L 98.844321 56.594023 
L 98.844321 45.553177 
L 96.048215 45.553177 
z
" style="fill:#10b981;"/>
   </g>
   <g id="patch_10">
    <path d="M 101.518098 56.594023 
L 105.887015 56.594023 
L 105.887015 45.553177 
L 101.518098 45.553177 
z
" style="fill:#ef4444;"/>
   </g>
   <g id="patch_11">
    <path d="M 110.430688 56.594023 
L 130.964597 56.594023 
L 130.964597 45.553177 
L 110.430688 45.553177 
z
" style="fill:#fbbf24;"/>
   </g>
   <g id="patch_12">
    <path d="M 135.50827 56.594023 
L 139.003403 56.594023 
L 139.003403 45.553177 
L 135.50827 45.553177 
z
" style="fill:#ef4444;"/>
   </g>
   <g id="patch_13">
    <path d="M 144.368433 56.594023 
L 147.16454 56.594023 
L 147.16454 45.553177 
L 144.368433 45.553177 
z
" style="fill:#10b981;"/>
   </g>
   <g id="patch_14">
    <path d="M 152.197532 56.594023 
L 156.566448 56.594023 
L 156.566448 45.553177 
L 152.197532 45.553177 
z
" style="fill:#ef4444;"/>
   </g>
   <g id="patch_15">
    <path d="M 159.362555 56.594023 
L 163.032445 56.594023 
L 163.032445 45.553177 
L 159.362555 45.553177 
z
" style="fill:#10b981;"/>
   </g>
   <g id="patch_16">
    <path d="M 165.828552 56.594023 
L 170.197468 56.594023 
L 170.197468 45.553177 
L 165.828552 45.553177 
z
" style="fill:#ef4444;"/>
   </g>
   <g id="patch_17">
    <path d="M 175.23046 56.594023 
L 178.026567 56.594023 
L 178.026567 45.553177 
L 175.23046 45.553177 
z
" style="fill:#10b981;"/>
   </g>
   <g id="patch_18">
    <path d="M 183.391597 56.594023 
L 186.88673 56.594023 
L 186.88673 45.553177 
L 183.391597 45.553177 
z
" style="fill:#ef4444;"/>
   </g>
   <g id="patch_19">
    <path d="M 191.430403 56.594023 
L 211.964312 56.594023 
L 211.964312 45.553177 
L 191.430403 45.553177 
z
" style="fill:#fbbf24;"/>
   </g>
   <g id="patch_20">
    <path d="M 216.507985 56.594023 
L 220.876902 56.594023 
L 220.876902 45.553177 
L 216.507985 45.553177 
z
" style="fill:#ef4444;"/>
   </g>
   <g id="patch_21">
    <path d="M 223.550679 56.594023 
L 226.346785 56.594023 
L 226.346785 45.553177 
L 223.550679 45.553177 
z
" style="fill:#10b981;"/>
   </g>
   <g id="patch_22">
    <path d="M 229.020562 56.594023 
L 237.758396 56.594023 
L 237.758396 45.553177 
L 229.020562 45.553177 
z
" style="fill:#ef4444;"/>
   </g>
   <g id="patch_23">
    <path d="M 240.432173 56.594023 
L 243.228279 56.594023 
L 243.228279 45.553177 
L 240.432173 45.553177 
z
" style="fill:#10b981;"/>
   </g>
   <g id="patch_24">
    <path d="M 245.902056 56.594023 
L 249.39719 56.594023 
L 249.39719 45.553177 
L 245.902056 45.553177 
z
" style="fill:#ef4444;"/>
   </g>
   <g id="patch_25">
    <path d="M 335.13281 56.594023 
L 338.627944 56.594023 
L 338.627944 45.553177 
L 335.13281 45.553177 
z
" style="fill:#ef4444;"/>
   </g>
   <g id="patch_26">
    <path d="M 341.301721 56.594023 
L 344.097827 56.594023 
L 344.097827 45.553177 
L 341.301721 45.553177 
z
" style="fill:#10b981;"/>
   </g>
   <g id="patch_27">
    <path d="M 346.771604 56.594023 
L 355.509438 56.594023 
L 355.509438 45.553177 
L 346.771604 45.553177 
z
" style="fill:#ef4444;"/>
   </g>
   <g id="patch_28">
    <path d="M 358.183215 56.594023 
L 360.979321 56.594023 
L 360.979321 45.553177 
L 358.183215 45.553177 
z
" style="fill:#10b981;"/>
   </g>
   <g id="patch_29">
    <path d="M 363.653098 56.594023 
L 368.022015 56.594023 
L 368.022015 45.553177 
L 363.653098 45.553177 
z
" style="fill:#ef4444;"/>
   </g>
   <g id="patch_30">
    <path d="M 372.565688 56.594023 
L 393.099597 56.594023 
L 393.099597 45.553177 
L 372.565688 45.553177 
z
" style="fill:#fbbf24;"/>
   </g>
   <g id="patch_31">
    <path d="M 397.64327 56.594023 
L 401.138403 56.594023 
L 401.138403 45.553177 
L 397.64327 45.553177 
z
" style="fill:#ef4444;"/>
   </g>
   <g id="patch_32">
    <path d="M 406.503433 56.594023 
L 409.29954 56.594023 
L 409.29954 45.553177 
L 406.503433 45.553177 
z
" style="fill:#10b981;"/>
   </g>
   <g id="patch_33">
    <path d="M 414.332532 56.594023 
L 418.701448 56.594023 
L 418.701448 45.553177 
L 414.332532 45.553177 
z
" style="fill:#ef4444;"/>
   </g>
   <g id="patch_34">
    <path d="M 421.497555 56.594023 
L 425.167445 56.594023 
L 425.167445 45.553177 
L 421.497555 45.553177 
z
" style="fill:#10b981;"/>
   </g>
   <g id="patch_35">
    <path d="M 427.963552 56.594023 
L 432.332468 56.594023 
L 432.332468 45.553177 
L 427.963552 45.553177 
z
" style="fill:#ef4444;"/>
   </g>
   <g id="patch_36">
    <path d="M 437.36546 56.594023 
L 440.161567 56.594023 
L 440.161567 45.553177 
L 437.36546 45.553177 
z
" style="fill:#10b981;"/>
   </g>
   <g id="patch_37">
    <path d="M 445.526597 56.594023 
L 449.02173 56.594023 
L 449.02173 45.553177 
L 445.526597 45.553177 
z
" style="fill:#ef4444;"/>
   </g>
   <g id="patch_38">
    <path d="M 453.565403 56.594023 
L 474.099312 56.594023 
L 474.099312 45.553177 
L 453.565403 45.553177 
z
" style="fill:#fbbf24;"/>
   </g>
   <g id="patch_39">
    <path d="M 478.642985 56.594023 
L 483.011902 56.594023 
L 483.011902 45.553177 
L 478.642985 45.553177 
z
" style="fill:#ef4444;"/>
   </g>
   <g id="patch_40">
    <path d="M 485.685679 56.594023 
L 488.481785 56.594023 
L 488.481785 45.553177 
L 485.685679 45.553177 
z
" style="fill:#10b981;"/>
   </g>
   <g id="patch_41">
    <path d="M 491.155562 56.594023 
L 499.893396 56.594023 
L 499.893396 45.553177 
L 491.155562 45.553177 
z
" style="fill:#ef4444;"/>
   </g>
   <g id="patch_42">
    <path d="M 502.567173 56.594023 
L 505.363279 56.594023 
L 505.363279 45.553177 
L 502.567173 45.553177 
z
" style="fill:#10b981;"/>
   </g>
   <g id="line2d_37">
    <path clip-path="url(#p9eb148ceab)" d="M 30.13 94.944092 
L 38.680887 94.832516 
L 47.231774 94.497785 
L 55.782662 93.939902 
L 64.333549 93.158865 
L 72.884436 92.154674 
L 81.438557 90.926823 
L 84.986118 90.454583 
L 85.335631 90.703194 
L 85.859901 91.45812 
L 86.384171 92.667892 
L 87.083198 94.977569 
L 87.782224 98.063998 
L 88.656008 102.971477 
L 89.704548 110.306694 
L 90.927844 120.668185 
L 92.325898 134.535765 
L 97.446268 188.138366 
L 99.512766 206.223227 
L 101.350987 220.462728 
L 102.566638 228.629711 
L 103.789935 235.442926 
L 105.013232 241.073516 
L 106.236528 245.735902 
L 107.984095 251.550616 
L 109.731662 256.596784 
L 111.126753 260.003615 
L 112.692899 263.211702 
L 114.085028 265.591108 
L 115.477157 267.518997 
L 116.695271 268.831187 
L 117.739368 269.675254 
L 118.783465 270.258805 
L 119.827562 270.580907 
L 120.871659 270.641049 
L 121.915756 270.439133 
L 122.959853 269.975483 
L 124.00395 269.250837 
L 125.048047 268.26635 
L 126.26616 266.791491 
L 127.484273 264.968315 
L 128.876403 262.463286 
L 130.268532 259.515606 
L 131.663623 256.038609 
L 133.236433 251.449627 
L 134.984 245.62064 
L 136.382053 240.274417 
L 137.60535 234.608877 
L 138.828647 227.796156 
L 140.560993 216.442711 
L 142.464713 202.450032 
L 144.54319 185.369903 
L 146.64027 166.22948 
L 148.900054 143.459365 
L 151.156223 118.506269 
L 153.420828 93.319752 
L 154.294612 86.453795 
L 154.993638 82.512697 
L 155.517908 80.503905 
L 156.042178 79.326986 
L 156.391692 79.009899 
L 156.915962 79.050623 
L 166.178065 80.6573 
L 166.527578 81.265086 
L 167.051848 82.868805 
L 167.576118 85.290001 
L 168.275145 89.752377 
L 169.148928 97.212716 
L 170.197468 108.681173 
L 172.627189 136.833253 
L 174.883357 160.586716 
L 177.152784 182.160131 
L 179.238025 199.931802 
L 181.314811 215.679215 
L 183.218531 228.40288 
L 184.614893 236.382295 
L 185.83819 242.12768 
L 187.061487 246.905454 
L 188.809053 252.781232 
L 190.381863 257.364462 
L 191.778436 260.841949 
L 193.344581 264.043396 
L 194.736711 266.378092 
L 195.954824 268.020903 
L 197.172937 269.286571 
L 198.217034 270.069149 
L 199.261131 270.571362 
L 200.131212 270.775115 
L 201.001293 270.78338 
L 201.871374 270.596148 
L 202.915471 270.113722 
L 203.959568 269.350861 
L 205.003665 268.30878 
L 206.221778 266.742359 
L 207.439891 264.801569 
L 208.832021 262.130553 
L 210.22415 258.983665 
L 211.790295 254.88576 
L 213.012852 251.117549 
L 214.760418 244.996216 
L 216.507985 238.050356 
L 217.556525 233.176539 
L 218.605065 227.273081 
L 219.653605 220.146163 
L 220.702145 211.5618 
L 222.380901 195.284386 
L 224.249705 174.867628 
L 226.172029 151.358797 
L 228.185007 124.015841 
L 230.418616 93.35076 
L 231.292399 84.420686 
L 232.166182 77.805718 
L 232.865209 74.29971 
L 233.389479 72.753022 
L 233.738992 72.246496 
L 234.088506 72.162399 
L 234.438019 72.501085 
L 234.787532 73.261127 
L 235.311802 75.183739 
L 235.836072 78.028547 
L 236.535099 83.208302 
L 237.408882 91.784298 
L 242.529253 148.517365 
L 244.89939 171.213288 
L 246.601083 185.709389 
L 247.649623 192.456069 
L 248.523406 196.736508 
L 249.39719 199.918918 
L 252.533859 209.130731 
L 255.670528 217.642913 
L 258.632937 225.039787 
L 261.421088 231.431481 
L 264.209238 237.27038 
L 266.823129 242.242298 
L 269.43702 246.72836 
L 271.876651 250.477002 
L 274.142023 253.578917 
L 276.407395 256.315901 
L 278.498508 258.518444 
L 280.589621 260.41004 
L 282.680733 261.990689 
L 284.597587 263.166458 
L 286.51444 264.080945 
L 288.431293 264.734151 
L 290.173887 265.101241 
L 291.916481 265.252396 
L 293.659075 265.187615 
L 295.401669 264.906899 
L 297.144263 264.410247 
L 298.886857 263.69766 
L 300.80371 262.664408 
L 302.720563 261.369874 
L 304.637417 259.814058 
L 306.72853 257.818813 
L 308.819642 255.51262 
L 311.085014 252.66335 
L 313.350386 249.449149 
L 315.790018 245.579582 
L 318.229649 241.286782 
L 320.84354 236.217694 
L 323.457431 230.66275 
L 326.245581 224.201957 
L 329.033732 217.188368 
L 331.996141 209.130731 
L 335.13281 199.918918 
L 335.831837 197.457753 
L 336.70562 193.404967 
L 337.579404 188.166506 
L 338.453187 181.604561 
L 340.299054 165.04644 
L 342.525017 143.184864 
L 344.933383 117.235551 
L 348.169658 81.768578 
L 348.868684 76.979299 
L 349.392954 74.43932 
L 349.917224 72.828595 
L 350.266738 72.278941 
L 350.616251 72.15158 
L 350.965764 72.447047 
L 351.315278 73.164099 
L 351.839548 75.023048 
L 352.363818 77.805718 
L 353.062844 82.906006 
L 353.936628 91.38998 
L 354.985168 104.36106 
L 359.406511 164.497015 
L 361.313543 186.452944 
L 363.151765 205.247985 
L 364.526882 217.459499 
L 365.750178 226.176008 
L 366.973475 233.176539 
L 368.196772 238.782046 
L 370.119095 246.286444 
L 371.866662 252.242873 
L 373.261753 256.316525 
L 374.827899 260.218977 
L 376.394044 263.52605 
L 377.786174 265.956206 
L 379.004287 267.683535 
L 380.2224 269.034452 
L 381.266497 269.890544 
L 382.310594 270.466556 
L 383.354691 270.76157 
L 384.224772 270.79241 
L 385.094853 270.627744 
L 385.964934 270.267754 
L 387.009031 269.578514 
L 388.053128 268.609692 
L 389.271241 267.128125 
L 390.489354 265.271351 
L 391.881483 262.695095 
L 393.274353 259.622117 
L 394.847163 255.409923 
L 396.419973 250.529864 
L 397.992783 244.963775 
L 399.21608 239.794479 
L 400.439377 233.577477 
L 401.6576 226.211251 
L 403.388254 214.441342 
L 405.291975 199.931802 
L 407.377216 182.160131 
L 409.473091 162.318667 
L 411.72926 138.742075 
L 413.985429 112.866164 
L 415.381072 97.212716 
L 416.254855 89.752377 
L 416.953882 85.290001 
L 417.652908 82.242562 
L 418.177178 80.914801 
L 418.526692 80.492835 
L 419.050962 80.372101 
L 428.313065 79.121527 
L 428.662578 79.626077 
L 429.012092 80.503905 
L 429.536362 82.512697 
L 430.235388 86.453795 
L 430.934415 91.780711 
L 431.808198 100.260419 
L 433.72088 122.48955 
L 436.1506 148.902841 
L 438.414 171.194204 
L 440.680763 191.281834 
L 442.757549 207.720961 
L 444.661269 221.139497 
L 446.225623 230.869623 
L 447.44892 237.165928 
L 448.672217 242.398086 
L 450.245027 248.04446 
L 451.992593 253.566029 
L 453.565403 257.878335 
L 455.131549 261.409357 
L 456.697694 264.383966 
L 458.089824 266.552279 
L 459.307937 268.077111 
L 460.52605 269.250837 
L 461.570147 269.975483 
L 462.614244 270.439133 
L 463.658341 270.641049 
L 464.702438 270.580907 
L 465.746535 270.258805 
L 466.790632 269.675254 
L 467.834729 268.831187 
L 469.052843 267.518997 
L 470.270956 265.85691 
L 471.663085 263.533602 
L 473.055215 260.764609 
L 474.448825 257.513792 
L 476.021635 253.145163 
L 477.769202 247.561014 
L 479.342012 241.79317 
L 480.565308 236.314744 
L 481.788605 229.683885 
L 483.011902 221.670967 
L 484.850123 207.589611 
L 486.734219 191.35159 
L 488.816007 171.284553 
L 490.988451 147.96467 
L 492.903129 127.358974 
L 494.301182 114.523475 
L 495.524479 105.24715 
L 496.573019 98.953875 
L 497.446802 94.977569 
L 498.145829 92.667892 
L 498.844856 91.155703 
L 499.369126 90.553356 
L 499.718639 90.40693 
L 500.56184 90.520942 
L 509.202453 91.826775 
L 517.75334 92.894724 
L 526.304228 93.739519 
L 534.855115 94.361161 
L 543.406002 94.759649 
L 551.956889 94.934984 
L 554.4 94.944092 
L 554.4 94.944092 
" style="fill:none;stroke:#ef4444;stroke-linecap:square;stroke-width:1.3;"/>
   </g>
   <g id="text_19">
    <!-- q4d -->
    <g transform="translate(81.516771 42.124003)scale(0.08 -0.08)">
     <defs>
      <path d="M 53.265625 -20.453125 
L 53.265625 54.546875 
L 45.171875 54.546875 
L 45.171875 45.875 
L 44.171875 45.875 
C 42.328125 48.71875 39.0625 55.25 28.40625 55.25 
C 14.625 55.25 5.109375 44.3125 5.109375 27.125 
C 5.109375 9.796875 14.625 -1.140625 28.265625 -1.140625 
C 38.78125 -1.140625 42.328125 5.390625 44.171875 8.375 
L 44.890625 8.375 
L 44.890625 -20.453125 
z
M 45.03125 27.265625 
C 45.03125 14.921875 39.484375 6.390625 29.40625 6.390625 
C 18.890625 6.390625 13.5 15.625 13.5 27.265625 
C 13.5 38.78125 18.75 47.734375 29.40625 47.734375 
C 39.625 47.734375 45.03125 39.484375 45.03125 27.265625 
z
" id="Inter-Regular-113"/>
      <path d="M 28.265625 -1.140625 
C 38.78125 -1.140625 42.328125 5.390625 44.171875 8.375 
L 45.171875 8.375 
L 45.171875 0 
L 53.265625 0 
L 53.265625 72.734375 
L 44.890625 72.734375 
L 44.890625 45.875 
L 44.171875 45.875 
C 42.328125 48.71875 39.0625 55.25 28.40625 55.25 
C 14.625 55.25 5.109375 44.3125 5.109375 27.125 
C 5.109375 9.796875 14.625 -1.140625 28.265625 -1.140625 
z
M 29.40625 6.390625 
C 18.890625 6.390625 13.5 15.625 13.5 27.265625 
C 13.5 38.78125 18.75 47.734375 29.40625 47.734375 
C 39.625 47.734375 45.03125 39.484375 45.03125 27.265625 
C 45.03125 14.921875 39.484375 6.390625 29.40625 6.390625 
z
" id="Inter-Regular-100"/>
     </defs>
     <use xlink:href="#Inter-Regular-113"/>
     <use x="60.937515" xlink:href="#Inter-Regular-52"/>
     <use x="125.142075" xlink:href="#Inter-Regular-100"/>
    </g>
   </g>
   <g id="text_20">
    <!-- q3d -->
    <g transform="translate(96.236307 64.245072)scale(0.08 -0.08)">
     <use xlink:href="#Inter-Regular-113"/>
     <use x="60.937515" xlink:href="#Inter-Regular-51"/>
     <use x="124.573898" xlink:href="#Inter-Regular-100"/>
    </g>
   </g>
   <g id="text_21">
    <!-- b -->
    <g transform="translate(118.214517 42.124003)scale(0.08 -0.08)">
     <use xlink:href="#Inter-Regular-98"/>
    </g>
   </g>
   <g id="text_22">
    <!-- q2 -->
    <g transform="translate(132.397712 64.245072)scale(0.08 -0.08)">
     <use xlink:href="#Inter-Regular-113"/>
     <use x="60.937515" xlink:href="#Inter-Regular-50"/>
    </g>
   </g>
   <g id="text_23">
    <!-- q1 -->
    <g transform="translate(150.086365 42.124003)scale(0.08 -0.08)">
     <use xlink:href="#Inter-Regular-113"/>
     <use x="60.937515" xlink:href="#Inter-Regular-49"/>
    </g>
   </g>
   <g id="text_24">
    <!-- q1 -->
    <g transform="translate(163.717385 64.205697)scale(0.08 -0.08)">
     <use xlink:href="#Inter-Regular-113"/>
     <use x="60.937515" xlink:href="#Inter-Regular-49"/>
    </g>
   </g>
   <g id="text_25">
    <!-- q2 -->
    <g transform="translate(180.281038 42.163378)scale(0.08 -0.08)">
     <use xlink:href="#Inter-Regular-113"/>
     <use x="60.937515" xlink:href="#Inter-Regular-50"/>
    </g>
   </g>
   <g id="text_26">
    <!-- b -->
    <g transform="translate(199.214233 64.205697)scale(0.08 -0.08)">
     <use xlink:href="#Inter-Regular-98"/>
    </g>
   </g>
   <g id="text_27">
    <!-- q3t -->
    <g transform="translate(212.254943 42.163378)scale(0.08 -0.08)">
     <use xlink:href="#Inter-Regular-113"/>
     <use x="60.937515" xlink:href="#Inter-Regular-51"/>
     <use x="124.573898" xlink:href="#Inter-Regular-116"/>
    </g>
   </g>
   <g id="text_28">
    <!-- q4t -->
    <g transform="translate(226.929479 64.205697)scale(0.08 -0.08)">
     <use xlink:href="#Inter-Regular-113"/>
     <use x="60.937515" xlink:href="#Inter-Regular-52"/>
     <use x="125.142075" xlink:href="#Inter-Regular-116"/>
    </g>
   </g>
   <g id="text_29">
    <!-- q5t -->
    <g transform="translate(241.325873 42.124003)scale(0.08 -0.08)">
     <use xlink:href="#Inter-Regular-113"/>
     <use x="60.937515" xlink:href="#Inter-Regular-53"/>
     <use x="121.732986" xlink:href="#Inter-Regular-116"/>
    </g>
   </g>
   <g id="text_30">
    <!-- q5t -->
    <g transform="translate(330.556627 64.205697)scale(0.08 -0.08)">
     <use xlink:href="#Inter-Regular-113"/>
     <use x="60.937515" xlink:href="#Inter-Regular-53"/>
     <use x="121.732986" xlink:href="#Inter-Regular-116"/>
    </g>
   </g>
   <g id="text_31">
    <!-- q4t -->
    <g transform="translate(344.680521 42.124003)scale(0.08 -0.08)">
     <use xlink:href="#Inter-Regular-113"/>
     <use x="60.937515" xlink:href="#Inter-Regular-52"/>
     <use x="125.142075" xlink:href="#Inter-Regular-116"/>
    </g>
   </g>
   <g id="text_32">
    <!-- q3t -->
    <g transform="translate(359.400057 64.245072)scale(0.08 -0.08)">
     <use xlink:href="#Inter-Regular-113"/>
     <use x="60.937515" xlink:href="#Inter-Regular-51"/>
     <use x="124.573898" xlink:href="#Inter-Regular-116"/>
    </g>
   </g>
   <g id="text_33">
    <!-- b -->
    <g transform="translate(380.349517 42.124003)scale(0.08 -0.08)">
     <use xlink:href="#Inter-Regular-98"/>
    </g>
   </g>
   <g id="text_34">
    <!-- q2 -->
    <g transform="translate(394.532712 64.245072)scale(0.08 -0.08)">
     <use xlink:href="#Inter-Regular-113"/>
     <use x="60.937515" xlink:href="#Inter-Regular-50"/>
    </g>
   </g>
   <g id="text_35">
    <!-- q1 -->
    <g transform="translate(412.221365 42.124003)scale(0.08 -0.08)">
     <use xlink:href="#Inter-Regular-113"/>
     <use x="60.937515" xlink:href="#Inter-Regular-49"/>
    </g>
   </g>
   <g id="text_36">
    <!-- q1 -->
    <g transform="translate(425.852385 64.205697)scale(0.08 -0.08)">
     <use xlink:href="#Inter-Regular-113"/>
     <use x="60.937515" xlink:href="#Inter-Regular-49"/>
    </g>
   </g>
   <g id="text_37">
    <!-- q2 -->
    <g transform="translate(442.416038 42.163378)scale(0.08 -0.08)">
     <use xlink:href="#Inter-Regular-113"/>
     <use x="60.937515" xlink:href="#Inter-Regular-50"/>
    </g>
   </g>
   <g id="text_38">
    <!-- b -->
    <g transform="translate(461.349233 64.205697)scale(0.08 -0.08)">
     <use xlink:href="#Inter-Regular-98"/>
    </g>
   </g>
   <g id="text_39">
    <!-- q3d -->
    <g transform="translate(473.361193 42.163378)scale(0.08 -0.08)">
     <use xlink:href="#Inter-Regular-113"/>
     <use x="60.937515" xlink:href="#Inter-Regular-51"/>
     <use x="124.573898" xlink:href="#Inter-Regular-100"/>
    </g>
   </g>
   <g id="text_40">
    <!-- q4d -->
    <g transform="translate(488.035729 64.205697)scale(0.08 -0.08)">
     <use xlink:href="#Inter-Regular-113"/>
     <use x="60.937515" xlink:href="#Inter-Regular-52"/>
     <use x="125.142075" xlink:href="#Inter-Regular-100"/>
    </g>
   </g>
   <g id="text_41">
    <g clip-path="url(#p9eb148ceab)">
     <!-- drh -->
     <g style="opacity:0.5;" transform="translate(62.34675 291.728314)scale(0.1 -0.1)">
      <defs>
       <path d="M 23.71875 -1.140625 
C 34.203125 -1.140625 38.84375 5.390625 41.1875 8.375 
L 42.1875 8.375 
L 40.765625 0 
L 48.859375 0 
L 60.9375 72.734375 
L 52.5625 72.734375 
L 48.078125 45.875 
L 47.375 45.875 
C 46.03125 48.71875 43.828125 55.25 33.171875 55.25 
C 19.390625 55.25 8.0625 44.3125 5.1875 27.125 
C 2.34375 9.796875 10.046875 -1.140625 23.71875 -1.140625 
z
M 25.78125 6.390625 
C 15.265625 6.390625 11.6875 15.625 13.640625 27.265625 
C 15.515625 38.78125 21.984375 47.734375 32.59375 47.734375 
C 42.859375 47.734375 47.203125 39.484375 45.171875 27.265625 
C 43.109375 14.921875 35.875 6.390625 25.78125 6.390625 
z
" id="Inter-Italic-100"/>
       <path d="M 3.125 0 
L 11.5 0 
L 17.1875 34.515625 
C 18.46875 41.90625 25.140625 47.296875 33.09375 47.296875 
C 35.375 47.296875 37.640625 46.875 38.21875 46.734375 
L 39.625 55.25 
C 38.640625 55.390625 36.5 55.390625 35.234375 55.390625 
C 28.6875 55.390625 22.296875 51.703125 19.46875 46.3125 
L 18.890625 46.3125 
L 20.3125 54.546875 
L 12.21875 54.546875 
z
" id="Inter-Italic-114"/>
       <path d="M 16.90625 32.8125 
C 18.609375 42.328125 25.5625 47.734375 33.8125 47.734375 
C 41.625 47.734375 45.59375 42.75 44.171875 34.09375 
L 38.5 0 
L 46.875 0 
L 52.703125 34.65625 
C 54.96875 48.71875 48.578125 55.25 37.5 55.25 
C 28.84375 55.25 23.296875 51.703125 19.890625 46.015625 
L 19.171875 46.015625 
L 23.578125 72.734375 
L 15.203125 72.734375 
L 3.125 0 
L 11.5 0 
z
" id="Inter-Italic-104"/>
      </defs>
      <use xlink:href="#Inter-Italic-100"/>
      <use x="62.215927" xlink:href="#Inter-Italic-114"/>
      <use x="99.573883" xlink:href="#Inter-Italic-104"/>
     </g>
    </g>
   </g>
   <g id="text_42">
    <g clip-path="url(#p9eb148ceab)">
     <!-- achlh -->
     <g style="opacity:0.5;" transform="translate(123.107844 291.728314)scale(0.1 -0.1)">
      <defs>
       <path d="M 19.03125 -1.28125 
C 28.546875 -1.28125 34.375 3.828125 36.65625 7.390625 
L 37.078125 7.390625 
L 35.796875 0 
L 44.171875 0 
L 50.140625 35.9375 
C 52.984375 53.265625 40.203125 55.25 33.234375 55.25 
C 25 55.25 15.0625 52.421875 9.234375 42.46875 
L 16.625 39.625 
C 19.171875 43.609375 24.578125 47.875 32.53125 47.875 
C 40.203125 47.875 43.046875 43.75 41.90625 36.796875 
L 41.90625 36.5 
C 41.1875 32.53125 37.078125 32.8125 26.984375 31.53125 
C 16.625 30.25 5.25 27.984375 3.125 15.484375 
C 1.421875 4.828125 8.671875 -1.28125 19.03125 -1.28125 
z
M 21.453125 6.25 
C 14.78125 6.25 10.515625 9.234375 11.5 15.0625 
C 12.5 21.453125 18.75 23.4375 25.421875 24.296875 
C 28.984375 24.71875 38.640625 25.703125 40.34375 27.421875 
L 39.0625 19.75 
C 37.921875 12.921875 31.390625 6.25 21.453125 6.25 
z
" id="Inter-Italic-97"/>
       <path d="M 25.140625 -1.140625 
C 37.1875 -1.140625 46.265625 6.25 49.4375 15.90625 
L 41.046875 15.90625 
C 38.453125 9.9375 32.921875 6.390625 26.421875 6.390625 
C 16.4375 6.390625 11.328125 14.625 13.5 27.265625 
C 15.453125 39.625 23.40625 47.734375 33.234375 47.734375 
C 40.59375 47.734375 44.28125 43.1875 44.75 38.203125 
L 53.125 38.203125 
C 53.375 48.4375 45.84375 55.25 34.375 55.25 
C 19.5625 55.25 7.78125 43.609375 5.109375 26.984375 
C 2.375 10.65625 9.765625 -1.140625 25.140625 -1.140625 
z
" id="Inter-Italic-99"/>
       <path d="M 23.578125 72.734375 
L 15.203125 72.734375 
L 3.125 0 
L 11.5 0 
z
" id="Inter-Italic-108"/>
      </defs>
      <use xlink:href="#Inter-Italic-97"/>
      <use x="56.392059" xlink:href="#Inter-Italic-99"/>
      <use x="112.215927" xlink:href="#Inter-Italic-104"/>
      <use x="171.306854" xlink:href="#Inter-Italic-108"/>
      <use x="195.028442" xlink:href="#Inter-Italic-104"/>
     </g>
    </g>
   </g>
   <g id="text_43">
    <g clip-path="url(#p9eb148ceab)">
     <!-- achlh_reversed -->
     <g style="opacity:0.5;" transform="translate(150.6145 291.728314)scale(0.1 -0.1)">
      <defs>
       <path d="M 40.765625 0 
L -4.6875 0 
L -5.96875 -7.8125 
L 39.484375 -7.8125 
z
" id="Inter-Italic-95"/>
       <path d="M 25.859375 -1.140625 
C 36.96875 -1.140625 45.921875 4.40625 49.859375 12.640625 
L 42.1875 14.921875 
C 39.09375 9.234375 33.84375 6.390625 27.125 6.390625 
C 16.625 6.390625 11.015625 11.078125 13.03125 24.4375 
L 52.703125 24.4375 
L 53.265625 27.984375 
C 56.71875 48.296875 45.78125 55.25 34.375 55.25 
C 19.640625 55.25 7.84375 43.609375 5.109375 26.84375 
C 2.3125 10.078125 10.125 -1.140625 25.859375 -1.140625 
z
M 33.09375 47.734375 
C 42.21875 47.734375 46.90625 40.90625 45.3125 31.671875 
L 14.203125 31.671875 
C 15.875 39.421875 23.9375 47.734375 33.09375 47.734375 
z
" id="Inter-Italic-101"/>
       <path d="M 56.8125 54.546875 
L 47.375 54.546875 
L 25.078125 11.078125 
L 24.5 11.078125 
L 16.6875 54.546875 
L 7.953125 54.546875 
L 19.03125 0 
L 27.5625 0 
z
" id="Inter-Italic-118"/>
       <path d="M 48.859375 42.328125 
C 47.4375 50.140625 42.46875 55.25 31.671875 55.25 
C 20.171875 55.25 10.515625 48.71875 8.953125 39.484375 
C 7.671875 31.953125 11.359375 26.984375 21.03125 24.578125 
L 29.6875 22.4375 
C 35.09375 21.171875 37.21875 18.609375 36.5 14.765625 
C 35.796875 10.078125 30.109375 6.25 22.296875 6.25 
C 15.484375 6.25 11.65625 9.234375 11.21875 15.0625 
L 2.84375 13.0625 
C 3.265625 3.828125 10.09375 -1.140625 21.3125 -1.140625 
C 33.953125 -1.140625 43.75 5.828125 45.3125 15.203125 
C 46.59375 22.875 42.609375 27.5625 33.234375 29.96875 
L 25.421875 31.953125 
C 19.3125 33.515625 16.765625 35.796875 17.46875 39.921875 
C 18.1875 44.609375 23.71875 48.015625 30.40625 48.015625 
C 37.78125 48.015625 40.0625 44.03125 40.90625 40.203125 
z
" id="Inter-Italic-115"/>
      </defs>
      <use xlink:href="#Inter-Italic-97"/>
      <use x="56.392059" xlink:href="#Inter-Italic-99"/>
      <use x="112.215927" xlink:href="#Inter-Italic-104"/>
      <use x="171.306854" xlink:href="#Inter-Italic-108"/>
      <use x="195.028442" xlink:href="#Inter-Italic-104"/>
      <use x="254.11937" xlink:href="#Inter-Italic-95"/>
      <use x="299.289825" xlink:href="#Inter-Italic-114"/>
      <use x="336.647781" xlink:href="#Inter-Italic-101"/>
      <use x="395.028473" xlink:href="#Inter-Italic-118"/>
      <use x="450.710297" xlink:href="#Inter-Italic-101"/>
      <use x="509.090988" xlink:href="#Inter-Italic-114"/>
      <use x="546.448944" xlink:href="#Inter-Italic-115"/>
      <use x="598.72168" xlink:href="#Inter-Italic-101"/>
      <use x="657.102371" xlink:href="#Inter-Italic-100"/>
     </g>
    </g>
   </g>
   <g id="text_44">
    <g clip-path="url(#p9eb148ceab)">
     <!-- tlh -->
     <g style="opacity:0.5;" transform="translate(246.156062 291.728314)scale(0.1 -0.1)">
      <defs>
       <path d="M 35.9375 54.546875 
L 24.25 54.546875 
L 26.421875 67.609375 
L 18.046875 67.609375 
L 15.875 54.546875 
L 7.671875 54.546875 
L 6.53125 47.4375 
L 14.703125 47.4375 
L 9.09375 13.359375 
C 7.53125 3.828125 14.34375 -0.703125 21.453125 -0.703125 
C 24.578125 -0.703125 26.703125 -0.140625 27.984375 0.28125 
L 27.421875 7.8125 
C 26.703125 7.671875 25.5625 7.390625 23.71875 7.390625 
C 20.03125 7.390625 16.625 8.515625 17.75 15.625 
L 23.046875 47.4375 
L 34.796875 47.4375 
z
" id="Inter-Italic-116"/>
      </defs>
      <use xlink:href="#Inter-Italic-116"/>
      <use x="36.363647" xlink:href="#Inter-Italic-108"/>
      <use x="60.085236" xlink:href="#Inter-Italic-104"/>
     </g>
    </g>
   </g>
   <g id="text_45">
    <g clip-path="url(#p9eb148ceab)">
     <!-- tlh_reversed -->
     <g style="opacity:0.5;" transform="translate(303.196594 291.728314)scale(0.1 -0.1)">
      <use xlink:href="#Inter-Italic-116"/>
      <use x="36.363647" xlink:href="#Inter-Italic-108"/>
      <use x="60.085236" xlink:href="#Inter-Italic-104"/>
      <use x="119.176163" xlink:href="#Inter-Italic-95"/>
      <use x="164.346619" xlink:href="#Inter-Italic-114"/>
      <use x="201.704575" xlink:href="#Inter-Italic-101"/>
      <use x="260.085266" xlink:href="#Inter-Italic-118"/>
      <use x="315.76709" xlink:href="#Inter-Italic-101"/>
      <use x="374.147781" xlink:href="#Inter-Italic-114"/>
      <use x="411.505737" xlink:href="#Inter-Italic-115"/>
      <use x="463.778473" xlink:href="#Inter-Italic-101"/>
      <use x="522.159164" xlink:href="#Inter-Italic-100"/>
     </g>
    </g>
   </g>
   <g id="text_46">
    <g clip-path="url(#p9eb148ceab)">
     <!-- achlh -->
     <g style="opacity:0.5;" transform="translate(385.242844 291.728314)scale(0.1 -0.1)">
      <use xlink:href="#Inter-Italic-97"/>
      <use x="56.392059" xlink:href="#Inter-Italic-99"/>
      <use x="112.215927" xlink:href="#Inter-Italic-104"/>
      <use x="171.306854" xlink:href="#Inter-Italic-108"/>
      <use x="195.028442" xlink:href="#Inter-Italic-104"/>
     </g>
    </g>
   </g>
   <g id="text_47">
    <g clip-path="url(#p9eb148ceab)">
     <!-- achlh_reversed -->
     <g style="opacity:0.5;" transform="translate(412.7495 291.728314)scale(0.1 -0.1)">
      <use xlink:href="#Inter-Italic-97"/>
      <use x="56.392059" xlink:href="#Inter-Italic-99"/>
      <use x="112.215927" xlink:href="#Inter-Italic-104"/>
      <use x="171.306854" xlink:href="#Inter-Italic-108"/>
      <use x="195.028442" xlink:href="#Inter-Italic-104"/>
      <use x="254.11937" xlink:href="#Inter-Italic-95"/>
      <use x="299.289825" xlink:href="#Inter-Italic-114"/>
      <use x="336.647781" xlink:href="#Inter-Italic-101"/>
      <use x="395.028473" xlink:href="#Inter-Italic-118"/>
      <use x="450.710297" xlink:href="#Inter-Italic-101"/>
      <use x="509.090988" xlink:href="#Inter-Italic-114"/>
      <use x="546.448944" xlink:href="#Inter-Italic-115"/>
      <use x="598.72168" xlink:href="#Inter-Italic-101"/>
      <use x="657.102371" xlink:href="#Inter-Italic-100"/>
     </g>
    </g>
   </g>
   <g id="text_48">
    <g clip-path="url(#p9eb148ceab)">
     <!-- drh_reversed -->
     <g style="opacity:0.5;" transform="translate(483.055906 291.728314)scale(0.1 -0.1)">
      <use xlink:href="#Inter-Italic-100"/>
      <use x="62.215927" xlink:href="#Inter-Italic-114"/>
      <use x="99.573883" xlink:href="#Inter-Italic-104"/>
      <use x="158.66481" xlink:href="#Inter-Italic-95"/>
      <use x="203.835266" xlink:href="#Inter-Italic-114"/>
      <use x="241.193222" xlink:href="#Inter-Italic-101"/>
      <use x="299.573914" xlink:href="#Inter-Italic-118"/>
      <use x="355.255737" xlink:href="#Inter-Italic-101"/>
      <use x="413.636429" xlink:href="#Inter-Italic-114"/>
      <use x="450.994385" xlink:href="#Inter-Italic-115"/>
      <use x="503.26712" xlink:href="#Inter-Italic-101"/>
      <use x="561.647812" xlink:href="#Inter-Italic-100"/>
     </g>
    </g>
   </g>
  </g>
 </g>
 <defs>
  <clipPath id="p9eb148ceab">
   <rect height="250.4064" width="524.27" x="30.13" y="51.0736"/>
  </clipPath>
 </defs>
</svg>
