<?xml version="1.0" encoding="utf-8" standalone="no"?>
<!DOCTYPE svg PUBLIC "-//W3C//DTD SVG 1.1//EN"
  "http://www.w3.org/Graphics/SVG/1.1/DTD/svg11.dtd">
<!-- Created with matplotlib (https://matplotlib.org/) -->
<svg height="345.6pt" version="1.1" viewBox="0 0 576 345.6" width="576pt" xmlns="http://www.w3.org/2000/svg" xmlns:xlink="http://www.w3.org/1999/xlink">
 <metadata>
  <rdf:RDF xmlns:cc="http://creativecommons.org/ns#" xmlns:dc="http://purl.org/dc/elements/1.1/" xmlns:rdf="http://www.w3.org/1999/02/22-rdf-syntax-ns#">
   <cc:Work>
    <dc:type rdf:resource="http://purl.org/dc/dcmitype/StillImage"/>
    <dc:date>2020-12-16T19:48:29.694366</dc:date>
    <dc:format>image/svg+xml</dc:format>
    <dc:creator>
     <cc:Agent>
      <dc:title>Matplotlib v3.3.3, https://matplotlib.org/</dc:title>
     </cc:Agent>
    </dc:creator>
   </cc:Work>
  </rdf:RDF>
 </metadata>
 <defs>
  <style type="text/css">*{stroke-linecap:butt;stroke-linejoin:round;}</style>
 </defs>
 <g id="figure_1">
  <g id="patch_1">
   <path d="M 0 345.6 
L 576 345.6 
L 576 0 
L 0 0 
z
" style="fill:#ffffff;"/>
  </g>
  <g id="axes_1">
   <g id="patch_2">
    <path d="M 30.13 301.48 
L 554.4 301.48 
L 554.4 51.0736 
L 30.13 51.0736 
z
" style="fill:#ffffff;"/>
   </g>
   <g id="matplotlib.axis_1">
    <g id="xtick_1">
     <g id="line2d_1">
      <path clip-path="url(#p7f1a4be29b)" d="M 30.13 301.48 
L 30.13 51.0736 
" style="fill:none;stroke:#e5e7eb;stroke-dasharray:3.7,1.6;stroke-dashoffset:0;"/>
     </g>
     <g id="line2d_2">
      <defs>
       <path d="M 0 0 
L 0 3.5 
" id="mf34af40272" style="stroke:#000000;stroke-width:0.8;"/>
      </defs>
      <g>
       <use style="stroke:#000000;stroke-width:0.8;" x="30.13" xlink:href="#mf34af40272" y="301.48"/>
      </g>
     </g>
     <g id="text_1">
      <!-- 0.0 -->
      <g transform="translate(22.501875 315.753437)scale(0.1 -0.1)">
       <defs>
        <path d="M 31.25 -1 
C 47.296875 -1 56.53125 12.609375 56.53125 36.359375 
C 56.53125 59.9375 47.15625 73.71875 31.25 73.71875 
C 15.34375 73.71875 5.96875 59.9375 5.96875 36.359375 
C 5.96875 12.609375 15.203125 -1 31.25 -1 
z
M 31.25 6.8125 
C 20.671875 6.8125 14.484375 17.4375 14.484375 36.359375 
C 14.484375 55.25 20.734375 66.046875 31.25 66.046875 
C 41.765625 66.046875 48.015625 55.25 48.015625 36.359375 
C 48.015625 17.4375 41.828125 6.8125 31.25 6.8125 
z
" id="Inter-Regular-48"/>
        <path d="M 13.78125 -0.5625 
C 17.296875 -0.5625 20.171875 2.3125 20.171875 5.828125 
C 20.171875 9.34375 17.296875 12.21875 13.78125 12.21875 
C 10.265625 12.21875 7.390625 9.34375 7.390625 5.828125 
C 7.390625 2.3125 10.265625 -0.5625 13.78125 -0.5625 
z
" id="Inter-Regular-46"/>
       </defs>
       <use xlink:href="#Inter-Regular-48"/>
       <use x="62.500015" xlink:href="#Inter-Regular-46"/>
       <use x="90.056839" xlink:href="#Inter-Regular-48"/>
      </g>
     </g>
    </g>
    <g id="xtick_2">
     <g id="line2d_3">
      <path clip-path="url(#p7f1a4be29b)" d="M 110.430688 301.48 
L 110.430688 51.0736 
" style="fill:none;stroke:#e5e7eb;stroke-dasharray:3.7,1.6;stroke-dashoffset:0;"/>
     </g>
     <g id="line2d_4">
      <g>
       <use style="stroke:#000000;stroke-width:0.8;" x="110.430688" xlink:href="#mf34af40272" y="301.48"/>
      </g>
     </g>
     <g id="text_2">
      <!-- 4.6 -->
      <g transform="translate(102.724438 315.753437)scale(0.1 -0.1)">
       <defs>
        <path d="M 5.828125 14.921875 
L 40.0625 14.921875 
L 40.0625 0 
L 48.4375 0 
L 48.4375 14.921875 
L 58.375 14.921875 
L 58.375 22.734375 
L 48.4375 22.734375 
L 48.4375 72.734375 
L 37.78125 72.734375 
L 5.828125 22.15625 
z
M 15.34375 22.734375 
L 15.34375 23.296875 
L 39.484375 61.5 
L 40.0625 61.5 
L 40.0625 22.734375 
z
" id="Inter-Regular-52"/>
        <path d="M 31.671875 -1 
C 46.375 -1.171875 55.96875 9.90625 55.96875 23.4375 
C 55.96875 37.5 45.5625 47.578125 33.09375 47.578125 
C 25.609375 47.578125 19.171875 43.921875 15.203125 37.921875 
L 14.625 37.921875 
C 14.671875 55.78125 21.5625 66.046875 32.8125 66.046875 
C 40.484375 66.046875 45.09375 61.21875 46.734375 54.546875 
L 55.40625 54.546875 
C 53.625 65.984375 45.03125 73.859375 32.8125 73.859375 
C 16.4375 73.859375 6.390625 59.375 6.390625 33.515625 
C 6.390625 6.640625 19.75 -0.859375 31.671875 -1 
z
M 31.671875 6.8125 
C 22.546875 6.8125 15.875 14.59375 15.90625 23.296875 
C 15.953125 32 22.9375 39.765625 31.96875 39.765625 
C 40.875 39.765625 47.4375 32.453125 47.4375 23.4375 
C 47.4375 14.203125 40.59375 6.8125 31.671875 6.8125 
z
" id="Inter-Regular-54"/>
       </defs>
       <use xlink:href="#Inter-Regular-52"/>
       <use x="64.204559" xlink:href="#Inter-Regular-46"/>
       <use x="91.761383" xlink:href="#Inter-Regular-54"/>
      </g>
     </g>
    </g>
    <g id="xtick_3">
     <g id="line2d_5">
      <path clip-path="url(#p7f1a4be29b)" d="M 161.1975 301.48 
L 161.1975 51.0736 
" style="fill:none;stroke:#e5e7eb;stroke-dasharray:3.7,1.6;stroke-dashoffset:0;"/>
     </g>
     <g id="line2d_6">
      <g>
       <use style="stroke:#000000;stroke-width:0.8;" x="161.1975" xlink:href="#mf34af40272" y="301.48"/>
      </g>
     </g>
     <g id="text_3">
      <!-- 7.5 -->
      <g transform="translate(153.924062 315.753437)scale(0.1 -0.1)">
       <defs>
        <path d="M 9.796875 0 
L 19.03125 0 
L 51.421875 64.484375 
L 51.421875 72.734375 
L 4.828125 72.734375 
L 4.828125 64.921875 
L 42.328125 64.921875 
L 42.328125 64.34375 
z
" id="Inter-Regular-55"/>
        <path d="M 30.25 -1 
C 44.109375 -1 54.265625 9.234375 54.265625 23.15625 
C 54.265625 37.25 44.46875 47.578125 31.109375 47.578125 
C 26.203125 47.578125 21.453125 45.84375 18.46875 43.46875 
L 18.046875 43.46875 
L 20.59375 64.921875 
L 51 64.921875 
L 51 72.734375 
L 13.21875 72.734375 
L 8.8125 36.9375 
L 17.046875 35.9375 
C 20.0625 38.109375 25.21875 39.671875 29.6875 39.625 
C 38.953125 39.5625 45.734375 32.53125 45.734375 23.015625 
C 45.734375 13.671875 39.203125 6.8125 30.25 6.8125 
C 22.796875 6.8125 16.875 11.609375 16.1875 18.1875 
L 7.671875 18.1875 
C 8.203125 7.109375 17.75 -1 30.25 -1 
z
" id="Inter-Regular-53"/>
       </defs>
       <use xlink:href="#Inter-Regular-55"/>
       <use x="57.10228" xlink:href="#Inter-Regular-46"/>
       <use x="84.659103" xlink:href="#Inter-Regular-53"/>
      </g>
     </g>
    </g>
    <g id="xtick_4">
     <g id="line2d_7">
      <path clip-path="url(#p7f1a4be29b)" d="M 211.964312 301.48 
L 211.964312 51.0736 
" style="fill:none;stroke:#e5e7eb;stroke-dasharray:3.7,1.6;stroke-dashoffset:0;"/>
     </g>
     <g id="line2d_8">
      <g>
       <use style="stroke:#000000;stroke-width:0.8;" x="211.964312" xlink:href="#mf34af40272" y="301.48"/>
      </g>
     </g>
     <g id="text_4">
      <!-- 10.4 -->
      <g transform="translate(201.928374 315.753437)scale(0.1 -0.1)">
       <defs>
        <path d="M 33.09375 72.734375 
L 24.296875 72.734375 
L 6.109375 60.65625 
L 6.109375 51.703125 
L 23.859375 63.5 
L 24.296875 63.5 
L 24.296875 0 
L 33.09375 0 
z
" id="Inter-Regular-49"/>
       </defs>
       <use xlink:href="#Inter-Regular-49"/>
       <use x="46.448868" xlink:href="#Inter-Regular-48"/>
       <use x="108.948883" xlink:href="#Inter-Regular-46"/>
       <use x="136.505707" xlink:href="#Inter-Regular-52"/>
      </g>
     </g>
    </g>
    <g id="xtick_5">
     <g id="line2d_9">
      <path clip-path="url(#p7f1a4be29b)" d="M 292.265 301.48 
L 292.265 51.0736 
" style="fill:none;stroke:#e5e7eb;stroke-dasharray:3.7,1.6;stroke-dashoffset:0;"/>
     </g>
     <g id="line2d_10">
      <g>
       <use style="stroke:#000000;stroke-width:0.8;" x="292.265" xlink:href="#mf34af40272" y="301.48"/>
      </g>
     </g>
     <g id="text_5">
      <!-- 15.0 -->
      <g transform="translate(282.399375 315.753437)scale(0.1 -0.1)">
       <use xlink:href="#Inter-Regular-49"/>
       <use x="46.448868" xlink:href="#Inter-Regular-53"/>
       <use x="107.244339" xlink:href="#Inter-Regular-46"/>
       <use x="134.801163" xlink:href="#Inter-Regular-48"/>
      </g>
     </g>
    </g>
    <g id="xtick_6">
     <g id="line2d_11">
      <path clip-path="url(#p7f1a4be29b)" d="M 372.565688 301.48 
L 372.565688 51.0736 
" style="fill:none;stroke:#e5e7eb;stroke-dasharray:3.7,1.6;stroke-dashoffset:0;"/>
     </g>
     <g id="line2d_12">
      <g>
       <use style="stroke:#000000;stroke-width:0.8;" x="372.565688" xlink:href="#mf34af40272" y="301.48"/>
      </g>
     </g>
     <g id="text_6">
      <!-- 19.6 -->
      <g transform="translate(362.62897 315.753437)scale(0.1 -0.1)">
       <defs>
        <path d="M 30.6875 73.859375 
C 15.90625 74 6.390625 62.921875 6.390625 49.4375 
C 6.390625 35.375 16.765625 25.28125 29.265625 25.28125 
C 36.796875 25.28125 43.1875 28.984375 47.15625 34.9375 
L 47.734375 34.9375 
C 47.734375 17.046875 40.765625 6.8125 29.546875 6.8125 
C 21.875 6.8125 17.1875 11.640625 15.625 18.328125 
L 6.96875 18.328125 
C 8.671875 6.8125 17.328125 -1 29.546875 -1 
C 45.875 -1 55.96875 13.5 55.96875 39.34375 
C 55.96875 66.1875 42.609375 73.71875 30.6875 73.859375 
z
M 30.6875 66.046875 
C 39.78125 66.046875 46.453125 58.234375 46.453125 49.578125 
C 46.453125 40.90625 39.34375 33.09375 30.40625 33.09375 
C 21.453125 33.09375 14.921875 40.34375 14.921875 49.4375 
C 14.921875 58.671875 21.734375 66.046875 30.6875 66.046875 
z
" id="Inter-Regular-57"/>
       </defs>
       <use xlink:href="#Inter-Regular-49"/>
       <use x="46.448868" xlink:href="#Inter-Regular-57"/>
       <use x="108.806839" xlink:href="#Inter-Regular-46"/>
       <use x="136.363663" xlink:href="#Inter-Regular-54"/>
      </g>
     </g>
    </g>
    <g id="xtick_7">
     <g id="line2d_13">
      <path clip-path="url(#p7f1a4be29b)" d="M 423.3325 301.48 
L 423.3325 51.0736 
" style="fill:none;stroke:#e5e7eb;stroke-dasharray:3.7,1.6;stroke-dashoffset:0;"/>
     </g>
     <g id="line2d_14">
      <g>
       <use style="stroke:#000000;stroke-width:0.8;" x="423.3325" xlink:href="#mf34af40272" y="301.48"/>
      </g>
     </g>
     <g id="text_7">
      <!-- 22.5 -->
      <g transform="translate(412.862969 315.753437)scale(0.1 -0.1)">
       <defs>
        <path d="M 7.53125 0 
L 53.40625 0 
L 53.40625 7.8125 
L 19.609375 7.8125 
L 19.609375 8.375 
L 35.9375 25.859375 
C 48.4375 39.234375 52.125 45.484375 52.125 53.546875 
C 52.125 64.765625 43.046875 73.71875 30.25 73.71875 
C 17.515625 73.71875 7.8125 65.0625 7.8125 52.265625 
L 16.1875 52.265625 
C 16.1875 60.546875 21.5625 66.046875 29.96875 66.046875 
C 37.859375 66.046875 43.890625 61.21875 43.890625 53.546875 
C 43.890625 46.84375 39.953125 41.875 31.53125 32.671875 
L 7.53125 6.390625 
z
" id="Inter-Regular-50"/>
       </defs>
       <use xlink:href="#Inter-Regular-50"/>
       <use x="60.511383" xlink:href="#Inter-Regular-50"/>
       <use x="121.022766" xlink:href="#Inter-Regular-46"/>
       <use x="148.57959" xlink:href="#Inter-Regular-53"/>
      </g>
     </g>
    </g>
    <g id="xtick_8">
     <g id="line2d_15">
      <path clip-path="url(#p7f1a4be29b)" d="M 474.099312 301.48 
L 474.099312 51.0736 
" style="fill:none;stroke:#e5e7eb;stroke-dasharray:3.7,1.6;stroke-dashoffset:0;"/>
     </g>
     <g id="line2d_16">
      <g>
       <use style="stroke:#000000;stroke-width:0.8;" x="474.099312" xlink:href="#mf34af40272" y="301.48"/>
      </g>
     </g>
     <g id="text_8">
      <!-- 25.4 -->
      <g transform="translate(463.445405 315.753437)scale(0.1 -0.1)">
       <use xlink:href="#Inter-Regular-50"/>
       <use x="60.511383" xlink:href="#Inter-Regular-53"/>
       <use x="121.306854" xlink:href="#Inter-Regular-46"/>
       <use x="148.863678" xlink:href="#Inter-Regular-52"/>
      </g>
     </g>
    </g>
    <g id="xtick_9">
     <g id="line2d_17">
      <path clip-path="url(#p7f1a4be29b)" d="M 554.4 301.48 
L 554.4 51.0736 
" style="fill:none;stroke:#e5e7eb;stroke-dasharray:3.7,1.6;stroke-dashoffset:0;"/>
     </g>
     <g id="line2d_18">
      <g>
       <use style="stroke:#000000;stroke-width:0.8;" x="554.4" xlink:href="#mf34af40272" y="301.48"/>
      </g>
     </g>
     <g id="text_9">
      <!-- 30.0 -->
      <g transform="translate(543.589844 315.753437)scale(0.1 -0.1)">
       <defs>
        <path d="M 32.109375 -1 
C 46.203125 -1 56.671875 7.84375 56.671875 19.75 
C 56.671875 28.984375 51.203125 35.6875 42.046875 37.21875 
L 42.046875 37.78125 
C 49.390625 40.015625 53.984375 46.0625 53.984375 54.265625 
C 53.984375 64.5625 45.84375 73.71875 32.390625 73.71875 
C 19.8125 73.71875 9.375 65.984375 8.953125 54.546875 
L 17.46875 54.546875 
C 17.796875 61.796875 24.6875 66.046875 32.25 66.046875 
C 40.265625 66.046875 45.453125 61.1875 45.453125 53.828125 
C 45.453125 46.171875 39.453125 41.1875 30.828125 41.1875 
L 25 41.1875 
L 25 33.375 
L 30.828125 33.375 
C 41.875 33.375 48.015625 27.765625 48.015625 19.75 
C 48.015625 12.03125 41.296875 6.8125 31.96875 6.8125 
C 23.546875 6.8125 16.875 11.15625 16.34375 18.1875 
L 7.390625 18.1875 
C 7.921875 6.75 18 -1 32.109375 -1 
z
" id="Inter-Regular-51"/>
       </defs>
       <use xlink:href="#Inter-Regular-51"/>
       <use x="63.636383" xlink:href="#Inter-Regular-48"/>
       <use x="126.136398" xlink:href="#Inter-Regular-46"/>
       <use x="153.693222" xlink:href="#Inter-Regular-48"/>
      </g>
     </g>
    </g>
    <g id="text_10">
     <!-- Orbit Position $s$ / m -->
     <g transform="translate(247.215 329.072187)scale(0.1 -0.1)">
      <defs>
       <path d="M 70.171875 36.359375 
C 70.171875 59.375 56.671875 73.71875 38.0625 73.71875 
C 19.46875 73.71875 5.96875 59.375 5.96875 36.359375 
C 5.96875 13.359375 19.46875 -1 38.0625 -1 
C 56.671875 -1 70.171875 13.359375 70.171875 36.359375 
z
M 61.65625 36.359375 
C 61.65625 17.46875 51.28125 7.25 38.0625 7.25 
C 24.859375 7.25 14.484375 17.46875 14.484375 36.359375 
C 14.484375 55.25 24.859375 65.484375 38.0625 65.484375 
C 51.28125 65.484375 61.65625 55.25 61.65625 36.359375 
z
" id="Inter-Regular-79"/>
       <path d="M 7.671875 0 
L 16.046875 0 
L 16.046875 34.515625 
C 16.046875 41.90625 21.875 47.296875 29.828125 47.296875 
C 32.0625 47.296875 34.375 46.875 34.9375 46.734375 
L 34.9375 55.25 
C 33.984375 55.328125 31.78125 55.390625 30.546875 55.390625 
C 24 55.390625 18.328125 51.703125 16.34375 46.3125 
L 15.765625 46.3125 
L 15.765625 54.546875 
L 7.671875 54.546875 
z
" id="Inter-Regular-114"/>
       <path d="M 8.8125 0 
L 16.90625 0 
L 16.90625 8.375 
L 17.90625 8.375 
C 19.75 5.390625 23.296875 -1.140625 33.8125 -1.140625 
C 47.4375 -1.140625 56.96875 9.796875 56.96875 27.125 
C 56.96875 44.3125 47.4375 55.25 33.671875 55.25 
C 23.015625 55.25 19.75 48.71875 17.90625 45.875 
L 17.1875 45.875 
L 17.1875 72.734375 
L 8.8125 72.734375 
z
M 17.046875 27.265625 
C 17.046875 39.484375 22.4375 47.734375 32.671875 47.734375 
C 43.328125 47.734375 48.578125 38.78125 48.578125 27.265625 
C 48.578125 15.625 43.1875 6.390625 32.671875 6.390625 
C 22.59375 6.390625 17.046875 14.921875 17.046875 27.265625 
z
" id="Inter-Regular-98"/>
       <path d="M 11.9375 63.640625 
C 15.203125 63.640625 17.90625 66.1875 17.90625 69.3125 
C 17.90625 72.4375 15.203125 75 11.9375 75 
C 8.671875 75 5.96875 72.4375 5.96875 69.3125 
C 5.96875 66.1875 8.671875 63.640625 11.9375 63.640625 
z
M 7.671875 0 
L 16.046875 0 
L 16.046875 54.546875 
L 7.671875 54.546875 
z
" id="Inter-Regular-105"/>
       <path d="M 31.390625 54.546875 
L 19.75 54.546875 
L 19.75 67.609375 
L 11.359375 67.609375 
L 11.359375 54.546875 
L 3.125 54.546875 
L 3.125 47.4375 
L 11.359375 47.4375 
L 11.359375 13.359375 
C 11.359375 3.828125 19.03125 -0.703125 26.140625 -0.703125 
C 29.265625 -0.703125 31.25 -0.140625 32.390625 0.28125 
L 30.6875 7.8125 
C 29.96875 7.671875 28.84375 7.390625 26.984375 7.390625 
C 23.296875 7.390625 19.75 8.515625 19.75 15.625 
L 19.75 47.4375 
L 31.390625 47.4375 
z
" id="Inter-Regular-116"/>
       <path id="Inter-Regular-32"/>
       <path d="M 8.8125 0 
L 17.609375 0 
L 17.609375 26.5625 
L 33.53125 26.5625 
C 50.46875 26.5625 58.09375 36.859375 58.09375 49.71875 
C 58.09375 62.578125 50.46875 72.734375 33.375 72.734375 
L 8.8125 72.734375 
z
M 33.09375 64.921875 
C 44.921875 64.921875 49.4375 58.453125 49.4375 49.71875 
C 49.4375 40.984375 44.921875 34.375 33.234375 34.375 
L 17.609375 34.375 
L 17.609375 64.921875 
z
" id="Inter-Regular-80"/>
       <path d="M 29.828125 -1.140625 
C 44.609375 -1.140625 54.546875 10.078125 54.546875 26.984375 
C 54.546875 44.03125 44.609375 55.25 29.828125 55.25 
C 15.0625 55.25 5.109375 44.03125 5.109375 26.984375 
C 5.109375 10.078125 15.0625 -1.140625 29.828125 -1.140625 
z
M 29.828125 6.390625 
C 18.609375 6.390625 13.5 16.046875 13.5 26.984375 
C 13.5 37.921875 18.609375 47.734375 29.828125 47.734375 
C 41.046875 47.734375 46.171875 37.921875 46.171875 26.984375 
C 46.171875 16.046875 41.046875 6.390625 29.828125 6.390625 
z
" id="Inter-Regular-111"/>
       <path d="M 46.3125 42.328125 
C 43.6875 50.078125 37.78125 55.25 26.984375 55.25 
C 15.484375 55.25 6.96875 48.71875 6.96875 39.484375 
C 6.96875 31.953125 11.4375 26.921875 21.453125 24.578125 
L 30.546875 22.4375 
C 36.046875 21.171875 38.640625 18.53125 38.640625 14.765625 
C 38.640625 10.078125 33.671875 6.25 25.859375 6.25 
C 19 6.25 14.703125 9.203125 13.21875 15.0625 
L 5.25 13.0625 
C 7.203125 3.796875 14.84375 -1.140625 26 -1.140625 
C 38.671875 -1.140625 47.296875 5.78125 47.296875 15.203125 
C 47.296875 22.796875 42.546875 27.59375 32.8125 29.96875 
L 24.71875 31.953125 
C 18.25 33.5625 15.34375 35.71875 15.34375 39.921875 
C 15.34375 44.609375 20.3125 48.015625 26.984375 48.015625 
C 34.3125 48.015625 37.328125 43.96875 38.78125 40.203125 
z
" id="Inter-Regular-115"/>
       <path d="M 16.046875 32.8125 
C 16.046875 42.328125 21.953125 47.734375 29.96875 47.734375 
C 37.75 47.734375 42.46875 42.65625 42.46875 34.09375 
L 42.46875 0 
L 50.859375 0 
L 50.859375 34.65625 
C 50.859375 48.578125 43.4375 55.25 32.390625 55.25 
C 24.15625 55.25 19.03125 51.5625 16.484375 46.015625 
L 15.765625 46.015625 
L 15.765625 54.546875 
L 7.671875 54.546875 
L 7.671875 0 
L 16.046875 0 
z
" id="Inter-Regular-110"/>
       <path d="M 50 53.078125 
L 48.296875 44.578125 
Q 44.734375 46.53125 40.765625 47.5 
Q 36.8125 48.484375 32.625 48.484375 
Q 25.53125 48.484375 21.453125 46.0625 
Q 17.390625 43.65625 17.390625 39.5 
Q 17.390625 34.671875 26.859375 32.078125 
Q 27.59375 31.890625 27.9375 31.78125 
L 30.8125 30.90625 
Q 39.796875 28.421875 42.796875 25.6875 
Q 45.796875 22.953125 45.796875 18.21875 
Q 45.796875 9.515625 38.890625 4.046875 
Q 31.984375 -1.421875 20.796875 -1.421875 
Q 16.453125 -1.421875 11.671875 -0.578125 
Q 6.890625 0.25 1.125 2 
L 2.875 11.28125 
Q 7.8125 8.734375 12.59375 7.421875 
Q 17.390625 6.109375 21.78125 6.109375 
Q 28.375 6.109375 32.5 8.9375 
Q 36.625 11.765625 36.625 16.109375 
Q 36.625 20.796875 25.78125 23.6875 
L 24.859375 23.921875 
L 21.78125 24.703125 
Q 14.9375 26.515625 11.765625 29.46875 
Q 8.59375 32.421875 8.59375 37.015625 
Q 8.59375 45.75 15.15625 50.875 
Q 21.734375 56 33.015625 56 
Q 37.453125 56 41.671875 55.265625 
Q 45.90625 54.546875 50 53.078125 
z
" id="DejaVuSans-Oblique-115"/>
       <path d="M 33.375 76.140625 
L 25.71875 76.140625 
L 2.28125 -10.9375 
L 9.9375 -10.9375 
z
" id="Inter-Regular-47"/>
       <path d="M 7.671875 0 
L 16.046875 0 
L 16.046875 34.09375 
C 16.046875 42.078125 21.875 47.734375 28.40625 47.734375 
C 34.765625 47.734375 39.203125 43.578125 39.203125 37.359375 
L 39.203125 0 
L 47.734375 0 
L 47.734375 35.515625 
C 47.734375 42.546875 52.125 47.734375 59.796875 47.734375 
C 65.765625 47.734375 70.875 44.5625 70.875 36.5 
L 70.875 0 
L 79.265625 0 
L 79.265625 36.5 
C 79.265625 49.328125 72.375 55.25 62.640625 55.25 
C 54.828125 55.25 49.109375 51.671875 46.3125 46.015625 
L 45.734375 46.015625 
C 43.046875 51.84375 38.28125 55.25 31.109375 55.25 
C 24 55.25 18.75 51.84375 16.484375 46.015625 
L 15.765625 46.015625 
L 15.765625 54.546875 
L 7.671875 54.546875 
z
" id="Inter-Regular-109"/>
      </defs>
      <use transform="translate(0 0.859375)" xlink:href="#Inter-Regular-79"/>
      <use transform="translate(76.136383 0.859375)" xlink:href="#Inter-Regular-114"/>
      <use transform="translate(113.352295 0.859375)" xlink:href="#Inter-Regular-98"/>
      <use transform="translate(175.426178 0.859375)" xlink:href="#Inter-Regular-105"/>
      <use transform="translate(199.147766 0.859375)" xlink:href="#Inter-Regular-116"/>
      <use transform="translate(235.511414 0.859375)" xlink:href="#Inter-Regular-32"/>
      <use transform="translate(263.636414 0.859375)" xlink:href="#Inter-Regular-80"/>
      <use transform="translate(327.130737 0.859375)" xlink:href="#Inter-Regular-111"/>
      <use transform="translate(386.789841 0.859375)" xlink:href="#Inter-Regular-115"/>
      <use transform="translate(439.062576 0.859375)" xlink:href="#Inter-Regular-105"/>
      <use transform="translate(462.784164 0.859375)" xlink:href="#Inter-Regular-116"/>
      <use transform="translate(499.147812 0.859375)" xlink:href="#Inter-Regular-105"/>
      <use transform="translate(522.8694 0.859375)" xlink:href="#Inter-Regular-111"/>
      <use transform="translate(582.528503 0.859375)" xlink:href="#Inter-Regular-110"/>
      <use transform="translate(641.051239 0.859375)" xlink:href="#Inter-Regular-32"/>
      <use transform="translate(669.176239 0.859375)" xlink:href="#DejaVuSans-Oblique-115"/>
      <use transform="translate(721.275848 0.859375)" xlink:href="#Inter-Regular-32"/>
      <use transform="translate(749.400848 0.859375)" xlink:href="#Inter-Regular-47"/>
      <use transform="translate(785.05426 0.859375)" xlink:href="#Inter-Regular-32"/>
      <use transform="translate(813.17926 0.859375)" xlink:href="#Inter-Regular-109"/>
     </g>
    </g>
   </g>
   <g id="matplotlib.axis_2">
    <g id="ytick_1">
     <g id="line2d_19">
      <path clip-path="url(#p7f1a4be29b)" d="M 30.13 290.639794 
L 554.4 290.639794 
" style="fill:none;stroke:#e5e7eb;stroke-dasharray:3.7,1.6;stroke-dashoffset:0;"/>
     </g>
     <g id="line2d_20">
      <defs>
       <path d="M 0 0 
L -3.5 0 
" id="m2a92103c23" style="stroke:#000000;stroke-width:0.8;"/>
      </defs>
      <g>
       <use style="stroke:#000000;stroke-width:0.8;" x="30.13" xlink:href="#m2a92103c23" y="290.639794"/>
      </g>
     </g>
     <g id="text_11">
      <!-- 0 -->
      <g transform="translate(16.88 294.276513)scale(0.1 -0.1)">
       <use xlink:href="#Inter-Regular-48"/>
      </g>
     </g>
    </g>
    <g id="ytick_2">
     <g id="line2d_21">
      <path clip-path="url(#p7f1a4be29b)" d="M 30.13 241.463904 
L 554.4 241.463904 
" style="fill:none;stroke:#e5e7eb;stroke-dasharray:3.7,1.6;stroke-dashoffset:0;"/>
     </g>
     <g id="line2d_22">
      <g>
       <use style="stroke:#000000;stroke-width:0.8;" x="30.13" xlink:href="#m2a92103c23" y="241.463904"/>
      </g>
     </g>
     <g id="text_12">
      <!-- 5 -->
      <g transform="translate(17.050313 245.100623)scale(0.1 -0.1)">
       <use xlink:href="#Inter-Regular-53"/>
      </g>
     </g>
    </g>
    <g id="ytick_3">
     <g id="line2d_23">
      <path clip-path="url(#p7f1a4be29b)" d="M 30.13 192.288015 
L 554.4 192.288015 
" style="fill:none;stroke:#e5e7eb;stroke-dasharray:3.7,1.6;stroke-dashoffset:0;"/>
     </g>
     <g id="line2d_24">
      <g>
       <use style="stroke:#000000;stroke-width:0.8;" x="30.13" xlink:href="#m2a92103c23" y="192.288015"/>
      </g>
     </g>
     <g id="text_13">
      <!-- 10 -->
      <g transform="translate(12.234688 195.924733)scale(0.1 -0.1)">
       <use xlink:href="#Inter-Regular-49"/>
       <use x="46.448868" xlink:href="#Inter-Regular-48"/>
      </g>
     </g>
    </g>
    <g id="ytick_4">
     <g id="line2d_25">
      <path clip-path="url(#p7f1a4be29b)" d="M 30.13 143.112125 
L 554.4 143.112125 
" style="fill:none;stroke:#e5e7eb;stroke-dasharray:3.7,1.6;stroke-dashoffset:0;"/>
     </g>
     <g id="line2d_26">
      <g>
       <use style="stroke:#000000;stroke-width:0.8;" x="30.13" xlink:href="#m2a92103c23" y="143.112125"/>
      </g>
     </g>
     <g id="text_14">
      <!-- 15 -->
      <g transform="translate(12.405 146.748844)scale(0.1 -0.1)">
       <use xlink:href="#Inter-Regular-49"/>
       <use x="46.448868" xlink:href="#Inter-Regular-53"/>
      </g>
     </g>
    </g>
    <g id="ytick_5">
     <g id="line2d_27">
      <path clip-path="url(#p7f1a4be29b)" d="M 30.13 93.936235 
L 554.4 93.936235 
" style="fill:none;stroke:#e5e7eb;stroke-dasharray:3.7,1.6;stroke-dashoffset:0;"/>
     </g>
     <g id="line2d_28">
      <g>
       <use style="stroke:#000000;stroke-width:0.8;" x="30.13" xlink:href="#m2a92103c23" y="93.936235"/>
      </g>
     </g>
     <g id="text_15">
      <!-- 20 -->
      <g transform="translate(10.828438 97.572954)scale(0.1 -0.1)">
       <use xlink:href="#Inter-Regular-50"/>
       <use x="60.511383" xlink:href="#Inter-Regular-48"/>
      </g>
     </g>
    </g>
   </g>
   <g id="patch_3">
    <path d="M 30.13 301.48 
L 30.13 51.0736 
" style="fill:none;stroke:#000000;stroke-linecap:square;stroke-linejoin:miter;stroke-width:0.8;"/>
   </g>
   <g id="patch_4">
    <path d="M 554.4 301.48 
L 554.4 51.0736 
" style="fill:none;stroke:#000000;stroke-linecap:square;stroke-linejoin:miter;stroke-width:0.8;"/>
   </g>
   <g id="patch_5">
    <path d="M 30.13 301.48 
L 554.4 301.48 
" style="fill:none;stroke:#000000;stroke-linecap:square;stroke-linejoin:miter;stroke-width:0.8;"/>
   </g>
   <g id="patch_6">
    <path d="M 30.13 51.0736 
L 554.4 51.0736 
" style="fill:none;stroke:#000000;stroke-linecap:square;stroke-linejoin:miter;stroke-width:0.8;"/>
   </g>
   <g id="legend_1">
    <g id="line2d_29">
     <path d="M 39.13 22.95328 
L 59.13 22.95328 
" style="fill:none;stroke:#ef4444;stroke-linecap:square;stroke-width:1.3;"/>
    </g>
    <g id="line2d_30"/>
    <g id="text_16">
     <!-- $\beta_x$ / m -->
     <g transform="translate(67.13 26.45328)scale(0.1 -0.1)">
      <defs>
       <path d="M 13.625 3.375 
L 8.9375 -20.796875 
L -0.09375 -20.796875 
L 14.5 54.34375 
Q 18.84375 76.609375 39.65625 76.609375 
Q 60.75 76.609375 57.171875 57.8125 
Q 54.734375 44.4375 45.21875 39.546875 
Q 58.015625 35.15625 55.515625 22.125 
Q 51.125 -1.078125 27.484375 -1.03125 
Q 17.140625 -0.984375 13.625 3.375 
z
M 15.921875 15.09375 
Q 19.671875 6.59375 29.296875 6.640625 
Q 43.359375 6.640625 46.34375 21.96875 
Q 49.03125 35.75 26.171875 34.671875 
L 27.78125 42.96875 
Q 45.453125 42.671875 48.53125 58.59375 
Q 50.640625 69.34375 39.203125 69.28125 
Q 26.421875 69.28125 23.484375 54.046875 
z
" id="DejaVuSans-Oblique-946"/>
       <path d="M 60.015625 54.6875 
L 34.90625 27.875 
L 50.296875 0 
L 39.984375 0 
L 28.421875 21.6875 
L 8.296875 0 
L -2.59375 0 
L 24.3125 28.8125 
L 10.015625 54.6875 
L 20.3125 54.6875 
L 30.8125 34.90625 
L 49.125 54.6875 
z
" id="DejaVuSans-Oblique-120"/>
      </defs>
      <use transform="translate(0 0.390625)" xlink:href="#DejaVuSans-Oblique-946"/>
      <use transform="translate(63.818359 -16.015625)scale(0.7)" xlink:href="#DejaVuSans-Oblique-120"/>
      <use transform="translate(107.978516 0.390625)" xlink:href="#Inter-Regular-32"/>
      <use transform="translate(136.103516 0.390625)" xlink:href="#Inter-Regular-47"/>
      <use transform="translate(171.756927 0.390625)" xlink:href="#Inter-Regular-32"/>
      <use transform="translate(199.881927 0.390625)" xlink:href="#Inter-Regular-109"/>
     </g>
    </g>
    <g id="line2d_31">
     <path d="M 257.065 22.95328 
L 277.065 22.95328 
" style="fill:none;stroke:#3b82f6;stroke-linecap:square;stroke-width:1.3;"/>
    </g>
    <g id="line2d_32"/>
    <g id="text_17">
     <!-- $\beta_y$ / m -->
     <g transform="translate(285.065 26.45328)scale(0.1 -0.1)">
      <defs>
       <path d="M 24.8125 -5.078125 
Q 18.5625 -15.578125 14.625 -18.1875 
Q 10.6875 -20.796875 4.59375 -20.796875 
L -2.484375 -20.796875 
L -0.984375 -13.28125 
L 4.203125 -13.28125 
Q 7.953125 -13.28125 10.59375 -11.234375 
Q 13.234375 -9.1875 16.5 -3.21875 
L 19.28125 2 
L 7.171875 54.6875 
L 16.703125 54.6875 
L 25.78125 12.796875 
L 50.875 54.6875 
L 60.296875 54.6875 
z
" id="DejaVuSans-Oblique-121"/>
      </defs>
      <use transform="translate(0 0.390625)" xlink:href="#DejaVuSans-Oblique-946"/>
      <use transform="translate(63.818359 -16.015625)scale(0.7)" xlink:href="#DejaVuSans-Oblique-121"/>
      <use transform="translate(107.978516 0.390625)" xlink:href="#Inter-Regular-32"/>
      <use transform="translate(136.103516 0.390625)" xlink:href="#Inter-Regular-47"/>
      <use transform="translate(171.756927 0.390625)" xlink:href="#Inter-Regular-32"/>
      <use transform="translate(199.881927 0.390625)" xlink:href="#Inter-Regular-109"/>
     </g>
    </g>
    <g id="line2d_33">
     <path d="M 475 22.95328 
L 495 22.95328 
" style="fill:none;stroke:#10b981;stroke-linecap:square;stroke-width:1.3;"/>
    </g>
    <g id="line2d_34"/>
    <g id="text_18">
     <!-- 10 $\eta_x$ / m -->
     <g transform="translate(503 26.45328)scale(0.1 -0.1)">
      <defs>
       <path d="M 57.859375 33.015625 
L 47.40625 -20.796875 
L 38.421875 -20.796875 
L 48.828125 32.71875 
Q 50.34375 40.484375 48.046875 44.34375 
Q 45.796875 48.1875 39.75 48.1875 
Q 32.46875 48.1875 27.34375 43.5625 
Q 22.265625 38.921875 20.703125 30.90625 
L 14.703125 0 
L 5.671875 0 
L 16.3125 54.6875 
L 25.34375 54.6875 
L 23.6875 46.1875 
Q 27.828125 51.125 32.71875 53.5625 
Q 37.546875 56 43.265625 56 
Q 52.6875 56 56.390625 50.203125 
Q 60.0625 44.34375 57.859375 33.015625 
z
" id="DejaVuSans-Oblique-951"/>
      </defs>
      <use transform="translate(0 0.859375)" xlink:href="#Inter-Regular-49"/>
      <use transform="translate(46.448868 0.859375)" xlink:href="#Inter-Regular-48"/>
      <use transform="translate(108.948883 0.859375)" xlink:href="#Inter-Regular-32"/>
      <use transform="translate(137.073883 0.859375)" xlink:href="#DejaVuSans-Oblique-951"/>
      <use transform="translate(200.452789 -15.546875)scale(0.7)" xlink:href="#DejaVuSans-Oblique-120"/>
      <use transform="translate(244.612946 0.859375)" xlink:href="#Inter-Regular-32"/>
      <use transform="translate(272.737946 0.859375)" xlink:href="#Inter-Regular-47"/>
      <use transform="translate(308.391357 0.859375)" xlink:href="#Inter-Regular-32"/>
      <use transform="translate(336.516357 0.859375)" xlink:href="#Inter-Regular-109"/>
     </g>
    </g>
   </g>
   <g id="line2d_35">
    <path clip-path="url(#p7f1a4be29b)" d="M 30.13 290.639896 
L 111.822818 290.535528 
L 113.214947 290.22273 
L 114.607076 289.701649 
L 116.173222 288.866934 
L 117.739368 287.769832 
L 119.305513 286.411326 
L 121.045675 284.596779 
L 122.785837 282.463032 
L 124.700014 279.750062 
L 126.614192 276.657361 
L 128.702386 272.855306 
L 130.964597 268.239068 
L 137.08108 254.318602 
L 138.828647 249.581557 
L 153.420828 207.224749 
L 154.294612 205.609432 
L 154.993638 204.68782 
L 155.692665 204.099629 
L 156.391692 203.847138 
L 158.314015 203.836612 
L 166.352822 203.931327 
L 166.877092 204.215269 
L 167.576118 204.88708 
L 168.275145 205.891538 
L 169.148928 207.608836 
L 170.022712 209.829307 
L 176.104244 227.675505 
L 185.139163 253.873143 
L 186.88673 258.066087 
L 192.996549 271.489642 
L 195.258759 275.748512 
L 197.346953 279.215868 
L 199.261131 281.998164 
L 201.175309 284.397715 
L 202.915471 286.244277 
L 204.655632 287.769813 
L 206.221778 288.866915 
L 207.787924 289.701628 
L 209.354069 290.273205 
L 210.746198 290.559948 
L 212.313825 290.639799 
L 373.957818 290.535506 
L 375.349947 290.222709 
L 376.742076 289.701628 
L 378.308222 288.866915 
L 379.874368 287.769813 
L 381.440513 286.411307 
L 383.180675 284.596762 
L 384.920837 282.463015 
L 386.835014 279.750047 
L 388.749192 276.657347 
L 390.837386 272.855293 
L 393.099597 268.239056 
L 399.21608 254.318593 
L 400.963647 249.581549 
L 415.555828 207.224745 
L 416.429612 205.609429 
L 417.128638 204.687818 
L 417.827665 204.099626 
L 418.526692 203.847136 
L 420.449015 203.836611 
L 428.487822 203.931329 
L 429.012092 204.215272 
L 429.711118 204.887083 
L 430.410145 205.891541 
L 431.283928 207.60884 
L 432.157712 209.829311 
L 438.239244 227.675511 
L 447.274163 253.873152 
L 449.02173 258.066096 
L 455.131549 271.489655 
L 457.393759 275.748526 
L 459.481953 279.215883 
L 461.396131 281.99818 
L 463.310309 284.397732 
L 465.050471 286.244295 
L 466.790632 287.769832 
L 468.356778 288.866934 
L 469.922924 289.701649 
L 471.489069 290.273226 
L 472.881198 290.55997 
L 474.448825 290.639822 
L 554.4 290.639896 
L 554.4 290.639896 
" style="fill:none;stroke:#10b981;stroke-linecap:square;stroke-width:1.3;"/>
   </g>
   <g id="line2d_36">
    <path clip-path="url(#p7f1a4be29b)" d="M 30.13 244.129566 
L 34.143682 244.019859 
L 38.157364 243.690738 
L 42.171045 243.142203 
L 46.184727 242.374254 
L 50.198409 241.386891 
L 54.386598 240.122669 
L 58.574788 238.619537 
L 62.762978 236.877498 
L 66.951167 234.896551 
L 71.139357 232.676695 
L 75.502055 230.110297 
L 79.865747 227.283994 
L 84.302382 224.144558 
L 85.160874 223.421417 
L 85.859901 222.514443 
L 86.733684 220.93065 
L 87.607468 218.825665 
L 88.481251 216.1699 
L 89.529791 212.202816 
L 90.578331 207.308077 
L 91.626871 201.386555 
L 92.850168 193.019121 
L 94.377104 180.524797 
L 96.747241 159.387821 
L 99.178543 135.747642 
L 103.265665 94.909891 
L 104.139448 89.148994 
L 104.838475 85.767533 
L 105.537502 83.519071 
L 106.061772 82.55534 
L 110.604705 75.653062 
L 119.305513 75.841546 
L 128.006322 75.806754 
L 130.964597 75.744062 
L 136.03254 84.093081 
L 136.55681 85.830271 
L 137.255837 89.074208 
L 137.954863 93.346298 
L 138.828647 100.062493 
L 142.810844 133.745541 
L 145.766486 156.611498 
L 148.552951 176.485277 
L 151.329774 194.664997 
L 152.896558 203.865456 
L 153.770342 207.635466 
L 154.469368 209.87258 
L 155.168395 211.455729 
L 155.692665 212.229098 
L 156.216935 212.655408 
L 156.741205 212.757276 
L 162.031566 212.897036 
L 166.003308 212.833217 
L 166.527578 212.534277 
L 167.051848 211.890474 
L 167.576118 210.896182 
L 168.275145 209.00979 
L 168.974172 206.455184 
L 169.847955 202.260729 
L 171.238777 193.855762 
L 173.842049 176.878908 
L 176.628514 157.1428 
L 179.411091 135.819848 
L 182.353204 111.519721 
L 184.440137 94.343016 
L 185.31392 89.208137 
L 186.012947 86.258227 
L 186.537217 84.742652 
L 187.061487 83.800566 
L 191.60442 76.999643 
L 200.305228 77.297929 
L 209.006037 77.371348 
L 211.964312 77.345086 
L 216.857498 85.299521 
L 217.381768 87.095873 
L 217.906038 89.711876 
L 218.605065 94.436962 
L 219.478848 102.231382 
L 220.527388 114.114316 
L 224.424462 162.487982 
L 226.681007 187.005938 
L 228.853451 208.126482 
L 229.894346 216.882267 
L 230.942886 223.893755 
L 231.991426 229.336247 
L 232.865209 232.824237 
L 233.738992 235.459624 
L 234.438019 237.001551 
L 235.137046 238.068815 
L 235.661316 238.568904 
L 236.185586 238.817044 
L 236.709856 238.815592 
L 237.234126 238.564535 
L 237.758396 238.061487 
L 241.480713 233.406674 
L 245.233612 228.351737 
L 246.426326 226.819553 
L 246.950596 226.522879 
L 247.474866 226.526038 
L 247.999136 226.828999 
L 248.523406 227.428901 
L 249.222433 228.680491 
L 254.450712 240.144565 
L 257.587381 246.319551 
L 260.549791 251.660816 
L 263.337941 256.252473 
L 266.126091 260.421909 
L 268.739982 263.947292 
L 271.353873 267.101582 
L 273.793504 269.710778 
L 276.233136 271.99671 
L 278.498508 273.829909 
L 280.76388 275.384377 
L 283.029252 276.660112 
L 285.120365 277.590318 
L 287.211478 278.283025 
L 289.30259 278.738232 
L 291.393703 278.95594 
L 293.484816 278.936149 
L 295.575928 278.678857 
L 297.667041 278.184067 
L 299.758154 277.451777 
L 301.849267 276.481987 
L 303.940379 275.274698 
L 306.205751 273.69879 
L 308.471123 271.84415 
L 310.736496 269.710778 
L 313.176127 267.101582 
L 315.615758 264.169123 
L 318.229649 260.668479 
L 320.84354 256.796743 
L 323.63169 252.257863 
L 326.419841 247.296763 
L 329.38225 241.562964 
L 332.34466 235.352518 
L 336.18135 227.196232 
L 336.70562 226.694819 
L 337.22989 226.491614 
L 337.75416 226.588536 
L 338.27843 226.984671 
L 338.962166 227.883938 
L 342.874531 233.179353 
L 346.604493 237.860176 
L 347.295874 238.564535 
L 347.820144 238.815592 
L 348.344414 238.817044 
L 348.868684 238.568904 
L 349.392954 238.068815 
L 350.091981 237.001551 
L 350.791008 235.459624 
L 351.490034 233.416984 
L 352.363818 230.106134 
L 353.237601 225.870873 
L 354.111384 220.599315 
L 355.159924 212.70731 
L 356.512104 200.291535 
L 358.532728 179.854559 
L 360.629808 156.415329 
L 362.817543 129.543151 
L 364.876395 104.028393 
L 365.750178 95.832244 
L 366.623962 89.711876 
L 367.322988 86.405152 
L 367.847258 84.885617 
L 368.895798 83.190933 
L 372.565688 77.345086 
L 381.266497 77.348122 
L 389.967306 77.12629 
L 393.099597 76.991384 
L 398.16754 85.180699 
L 398.69181 86.896998 
L 399.390837 90.108429 
L 400.089863 94.343016 
L 400.963647 101.00591 
L 404.945844 134.440354 
L 407.901486 157.1428 
L 410.687951 176.878908 
L 413.464774 194.937346 
L 415.031558 204.077237 
L 415.905342 207.818245 
L 416.604368 210.034443 
L 417.303395 211.598352 
L 417.827665 212.35821 
L 418.351935 212.771666 
L 418.876205 212.861197 
L 424.166566 212.877585 
L 428.138308 212.721118 
L 428.662578 212.409517 
L 429.186848 211.752435 
L 429.711118 210.74413 
L 430.410145 208.837698 
L 431.109172 206.261217 
L 431.982955 202.036316 
L 433.373777 193.576298 
L 435.977049 176.485277 
L 438.763514 156.611498 
L 441.546091 135.135105 
L 444.488204 110.655391 
L 446.575137 93.346298 
L 447.44892 88.165307 
L 448.147947 85.184197 
L 448.672217 83.648761 
L 449.196487 82.689798 
L 453.73942 75.748464 
L 462.440228 75.854705 
L 471.141037 75.737669 
L 474.099312 75.647015 
L 478.992498 83.519071 
L 479.516768 85.097988 
L 480.215795 88.199278 
L 480.914822 92.406176 
L 481.788605 99.14622 
L 482.837145 109.246824 
L 486.035192 142.596164 
L 488.648896 167.330534 
L 491.155562 188.899474 
L 492.378859 198.004151 
L 493.602156 205.453796 
L 494.825452 211.453882 
L 495.873992 215.569511 
L 496.922532 218.825665 
L 497.796316 220.93065 
L 498.670099 222.514443 
L 499.543882 223.599306 
L 500.56184 224.390396 
L 505.013766 227.519924 
L 509.376961 230.325149 
L 513.739659 232.870808 
L 518.102356 235.157234 
L 522.290546 237.108318 
L 526.478736 238.820494 
L 530.666925 240.293762 
L 534.855115 241.528121 
L 539.043305 242.523572 
L 543.056986 243.253362 
L 547.070668 243.763738 
L 551.08435 244.0547 
L 554.4 244.129566 
L 554.4 244.129566 
" style="fill:none;stroke:#3b82f6;stroke-linecap:square;stroke-width:1.3;"/>
   </g>
   <g id="patch_7">
    <path d="M 79.166721 57.035657 
L 81.962827 57.035657 
L 81.962827 45.111543 
L 79.166721 45.111543 
z
" style="fill:#10b981;"/>
   </g>
   <g id="patch_8">
    <path d="M 84.636604 57.035657 
L 93.374438 57.035657 
L 93.374438 45.111543 
L 84.636604 45.111543 
z
" style="fill:#ef4444;"/>
   </g>
   <g id="patch_9">
    <path d="M 96.048215 57.035657 
L 98.844321 57.035657 
L 98.844321 45.111543 
L 96.048215 45.111543 
z
" style="fill:#10b981;"/>
   </g>
   <g id="patch_10">
    <path d="M 101.518098 57.035657 
L 105.887015 57.035657 
L 105.887015 45.111543 
L 101.518098 45.111543 
z
" style="fill:#ef4444;"/>
   </g>
   <g id="patch_11">
    <path d="M 110.430688 57.035657 
L 130.964597 57.035657 
L 130.964597 45.111543 
L 110.430688 45.111543 
z
" style="fill:#fbbf24;"/>
   </g>
   <g id="patch_12">
    <path d="M 135.50827 57.035657 
L 139.003403 57.035657 
L 139.003403 45.111543 
L 135.50827 45.111543 
z
" style="fill:#ef4444;"/>
   </g>
   <g id="patch_13">
    <path d="M 144.368433 57.035657 
L 147.16454 57.035657 
L 147.16454 45.111543 
L 144.368433 45.111543 
z
" style="fill:#10b981;"/>
   </g>
   <g id="patch_14">
    <path d="M 152.197532 57.035657 
L 156.566448 57.035657 
L 156.566448 45.111543 
L 152.197532 45.111543 
z
" style="fill:#ef4444;"/>
   </g>
   <g id="patch_15">
    <path d="M 159.362555 57.035657 
L 163.032445 57.035657 
L 163.032445 45.111543 
L 159.362555 45.111543 
z
" style="fill:#10b981;"/>
   </g>
   <g id="patch_16">
    <path d="M 165.828552 57.035657 
L 170.197468 57.035657 
L 170.197468 45.111543 
L 165.828552 45.111543 
z
" style="fill:#ef4444;"/>
   </g>
   <g id="patch_17">
    <path d="M 175.23046 57.035657 
L 178.026567 57.035657 
L 178.026567 45.111543 
L 175.23046 45.111543 
z
" style="fill:#10b981;"/>
   </g>
   <g id="patch_18">
    <path d="M 183.391597 57.035657 
L 186.88673 57.035657 
L 186.88673 45.111543 
L 183.391597 45.111543 
z
" style="fill:#ef4444;"/>
   </g>
   <g id="patch_19">
    <path d="M 191.430403 57.035657 
L 211.964312 57.035657 
L 211.964312 45.111543 
L 191.430403 45.111543 
z
" style="fill:#fbbf24;"/>
   </g>
   <g id="patch_20">
    <path d="M 216.507985 57.035657 
L 220.876902 57.035657 
L 220.876902 45.111543 
L 216.507985 45.111543 
z
" style="fill:#ef4444;"/>
   </g>
   <g id="patch_21">
    <path d="M 223.550679 57.035657 
L 226.346785 57.035657 
L 226.346785 45.111543 
L 223.550679 45.111543 
z
" style="fill:#10b981;"/>
   </g>
   <g id="patch_22">
    <path d="M 229.020562 57.035657 
L 237.758396 57.035657 
L 237.758396 45.111543 
L 229.020562 45.111543 
z
" style="fill:#ef4444;"/>
   </g>
   <g id="patch_23">
    <path d="M 240.432173 57.035657 
L 243.228279 57.035657 
L 243.228279 45.111543 
L 240.432173 45.111543 
z
" style="fill:#10b981;"/>
   </g>
   <g id="patch_24">
    <path d="M 245.902056 57.035657 
L 249.39719 57.035657 
L 249.39719 45.111543 
L 245.902056 45.111543 
z
" style="fill:#ef4444;"/>
   </g>
   <g id="patch_25">
    <path d="M 335.13281 57.035657 
L 338.627944 57.035657 
L 338.627944 45.111543 
L 335.13281 45.111543 
z
" style="fill:#ef4444;"/>
   </g>
   <g id="patch_26">
    <path d="M 341.301721 57.035657 
L 344.097827 57.035657 
L 344.097827 45.111543 
L 341.301721 45.111543 
z
" style="fill:#10b981;"/>
   </g>
   <g id="patch_27">
    <path d="M 346.771604 57.035657 
L 355.509438 57.035657 
L 355.509438 45.111543 
L 346.771604 45.111543 
z
" style="fill:#ef4444;"/>
   </g>
   <g id="patch_28">
    <path d="M 358.183215 57.035657 
L 360.979321 57.035657 
L 360.979321 45.111543 
L 358.183215 45.111543 
z
" style="fill:#10b981;"/>
   </g>
   <g id="patch_29">
    <path d="M 363.653098 57.035657 
L 368.022015 57.035657 
L 368.022015 45.111543 
L 363.653098 45.111543 
z
" style="fill:#ef4444;"/>
   </g>
   <g id="patch_30">
    <path d="M 372.565688 57.035657 
L 393.099597 57.035657 
L 393.099597 45.111543 
L 372.565688 45.111543 
z
" style="fill:#fbbf24;"/>
   </g>
   <g id="patch_31">
    <path d="M 397.64327 57.035657 
L 401.138403 57.035657 
L 401.138403 45.111543 
L 397.64327 45.111543 
z
" style="fill:#ef4444;"/>
   </g>
   <g id="patch_32">
    <path d="M 406.503433 57.035657 
L 409.29954 57.035657 
L 409.29954 45.111543 
L 406.503433 45.111543 
z
" style="fill:#10b981;"/>
   </g>
   <g id="patch_33">
    <path d="M 414.332532 57.035657 
L 418.701448 57.035657 
L 418.701448 45.111543 
L 414.332532 45.111543 
z
" style="fill:#ef4444;"/>
   </g>
   <g id="patch_34">
    <path d="M 421.497555 57.035657 
L 425.167445 57.035657 
L 425.167445 45.111543 
L 421.497555 45.111543 
z
" style="fill:#10b981;"/>
   </g>
   <g id="patch_35">
    <path d="M 427.963552 57.035657 
L 432.332468 57.035657 
L 432.332468 45.111543 
L 427.963552 45.111543 
z
" style="fill:#ef4444;"/>
   </g>
   <g id="patch_36">
    <path d="M 437.36546 57.035657 
L 440.161567 57.035657 
L 440.161567 45.111543 
L 437.36546 45.111543 
z
" style="fill:#10b981;"/>
   </g>
   <g id="patch_37">
    <path d="M 445.526597 57.035657 
L 449.02173 57.035657 
L 449.02173 45.111543 
L 445.526597 45.111543 
z
" style="fill:#ef4444;"/>
   </g>
   <g id="patch_38">
    <path d="M 453.565403 57.035657 
L 474.099312 57.035657 
L 474.099312 45.111543 
L 453.565403 45.111543 
z
" style="fill:#fbbf24;"/>
   </g>
   <g id="patch_39">
    <path d="M 478.642985 57.035657 
L 483.011902 57.035657 
L 483.011902 45.111543 
L 478.642985 45.111543 
z
" style="fill:#ef4444;"/>
   </g>
   <g id="patch_40">
    <path d="M 485.685679 57.035657 
L 488.481785 57.035657 
L 488.481785 45.111543 
L 485.685679 45.111543 
z
" style="fill:#10b981;"/>
   </g>
   <g id="patch_41">
    <path d="M 491.155562 57.035657 
L 499.893396 57.035657 
L 499.893396 45.111543 
L 491.155562 45.111543 
z
" style="fill:#ef4444;"/>
   </g>
   <g id="patch_42">
    <path d="M 502.567173 57.035657 
L 505.363279 57.035657 
L 505.363279 45.111543 
L 502.567173 45.111543 
z
" style="fill:#10b981;"/>
   </g>
   <g id="line2d_37">
    <path clip-path="url(#p7f1a4be29b)" d="M 30.13 98.453732 
L 38.331871 98.342865 
L 46.533743 98.010265 
L 54.735614 97.455932 
L 62.937486 96.679865 
L 71.139357 95.682065 
L 79.341477 94.462492 
L 84.986118 93.605061 
L 85.335631 93.873562 
L 85.859901 94.688881 
L 86.384171 95.995435 
L 87.083198 98.489887 
L 87.782224 101.82323 
L 88.656008 107.123307 
L 89.704548 115.045342 
L 90.927844 126.235752 
L 92.325898 141.212739 
L 97.446268 199.103548 
L 99.512766 218.635197 
L 101.350987 234.013858 
L 102.566638 242.8342 
L 103.789935 250.192472 
L 105.013232 256.273509 
L 106.236528 261.308887 
L 107.984095 267.588777 
L 109.731662 273.038639 
L 111.126753 276.718016 
L 112.692899 280.18275 
L 114.085028 282.752508 
L 115.303141 284.601246 
L 116.521254 286.072604 
L 117.565351 287.03096 
L 118.609448 287.708169 
L 119.653545 288.103151 
L 120.523626 288.216245 
L 121.393707 288.132777 
L 122.263788 287.85284 
L 123.307885 287.258028 
L 124.351982 286.381707 
L 125.396079 285.225274 
L 126.614192 283.524557 
L 127.832306 281.448796 
L 129.224435 278.623076 
L 130.79058 274.875705 
L 132.013137 271.392556 
L 133.585947 266.28705 
L 135.333513 259.825739 
L 136.55681 254.604302 
L 137.780107 248.321552 
L 139.003403 240.768345 
L 140.734058 228.368877 
L 142.637778 213.101764 
L 144.717946 194.470001 
L 146.815026 173.625912 
L 149.073606 148.862231 
L 151.329774 121.728652 
L 153.420828 96.699444 
L 154.294612 89.28421 
L 154.993638 85.027825 
L 155.517908 82.858329 
L 156.042178 81.587257 
L 156.391692 81.244803 
L 156.915962 81.288785 
L 165.479038 82.715981 
L 166.003308 82.846374 
L 166.352822 83.302097 
L 166.702335 84.158553 
L 167.226605 86.186924 
L 167.750875 89.091413 
L 168.449902 94.282042 
L 169.323685 102.771354 
L 170.37102 115.557021 
L 172.80074 145.755553 
L 175.056909 171.218272 
L 177.32754 194.337023 
L 179.411091 213.33809 
L 181.314811 228.847664 
L 183.218531 242.589223 
L 184.440137 250.223595 
L 185.663433 256.594146 
L 186.88673 261.888442 
L 188.634297 268.32333 
L 190.207107 273.353363 
L 191.60442 277.199153 
L 193.170565 280.729084 
L 194.562694 283.315952 
L 195.780808 285.148082 
L 196.998921 286.573394 
L 198.043018 287.468925 
L 199.087115 288.061855 
L 199.957196 288.324111 
L 200.827277 288.375271 
L 201.697357 288.215278 
L 202.567438 287.844309 
L 203.611535 287.121253 
L 204.655632 286.096149 
L 205.699729 284.770632 
L 206.917843 282.847352 
L 208.135956 280.522246 
L 209.528085 277.379464 
L 211.094231 273.235556 
L 212.488582 268.930732 
L 214.061392 263.2613 
L 215.808958 256.115967 
L 217.207012 249.613679 
L 218.255552 243.629941 
L 219.304092 236.399096 
L 220.352632 227.683744 
L 221.712457 214.078054 
L 223.550679 193.322835 
L 225.473002 168.931913 
L 227.516563 139.99125 
L 230.768129 92.589935 
L 231.641912 83.918692 
L 232.340939 78.833246 
L 232.865209 76.157799 
L 233.389479 74.487376 
L 233.738992 73.940328 
L 234.088506 73.849503 
L 234.438019 74.215284 
L 234.787532 75.036129 
L 235.311802 77.11255 
L 235.836072 80.184943 
L 236.535099 85.779078 
L 237.408882 95.041154 
L 242.529253 156.312867 
L 244.89939 180.824463 
L 246.601083 196.480252 
L 247.649623 203.766666 
L 248.523406 208.389541 
L 249.39719 211.826543 
L 252.533859 221.775302 
L 255.496268 230.47755 
L 258.458678 238.50582 
L 261.246828 245.446163 
L 264.034979 251.789488 
L 266.648869 257.19414 
L 269.088501 261.765065 
L 271.528132 265.878897 
L 273.793504 269.2896 
L 276.058877 272.306178 
L 278.149989 274.740895 
L 280.241102 276.839789 
L 282.157955 278.468764 
L 284.074809 279.815555 
L 285.991662 280.88016 
L 287.734256 281.603113 
L 289.47685 282.092855 
L 291.219444 282.349386 
L 292.962038 282.372707 
L 294.704631 282.162818 
L 296.447225 281.719718 
L 298.189819 281.043408 
L 299.932413 280.133887 
L 301.849267 278.864056 
L 303.76612 277.31204 
L 305.682973 275.47784 
L 307.774086 273.155064 
L 309.865199 270.496465 
L 312.130571 267.237348 
L 314.395943 263.584107 
L 316.835574 259.209078 
L 319.275206 254.376958 
L 321.889097 248.692453 
L 324.502987 242.483224 
L 327.291138 235.281685 
L 330.253547 226.975895 
L 333.215957 217.996126 
L 335.482324 210.587593 
L 336.18135 207.56326 
L 337.055134 202.689667 
L 337.928917 196.480252 
L 338.962166 187.28609 
L 341.13461 165.559787 
L 343.398801 140.683821 
L 345.768938 112.203184 
L 347.820144 87.435584 
L 348.693928 80.184943 
L 349.392954 76.308577 
L 349.917224 74.568995 
L 350.266738 73.975369 
L 350.616251 73.837818 
L 350.965764 74.156923 
L 351.315278 74.931338 
L 351.839548 76.939004 
L 352.363818 79.944287 
L 353.062844 85.452598 
L 353.936628 94.61529 
L 354.985168 108.624056 
L 359.406511 173.570888 
L 361.313543 197.283292 
L 363.151765 217.581936 
L 364.526882 230.770371 
L 365.750178 240.184201 
L 366.973475 247.744774 
L 368.196772 253.798722 
L 370.119095 261.903472 
L 371.866662 268.336415 
L 373.261753 272.735959 
L 374.827899 276.950608 
L 376.394044 280.522246 
L 377.786174 283.146814 
L 379.004287 285.012329 
L 380.2224 286.47132 
L 381.266497 287.395899 
L 382.310594 288.017992 
L 383.180675 288.304607 
L 384.050756 288.380147 
L 384.920837 288.244529 
L 385.790917 287.897902 
L 386.835014 287.203977 
L 387.879111 286.207871 
L 388.923209 284.911174 
L 390.141322 283.02123 
L 391.359435 280.729084 
L 392.751564 277.623417 
L 393.97338 274.373194 
L 395.54619 269.503449 
L 397.119 263.91241 
L 398.517053 258.208502 
L 399.74035 252.164918 
L 400.963647 244.901252 
L 402.695993 232.770702 
L 404.599713 217.743314 
L 406.503433 200.947911 
L 408.600513 180.40011 
L 410.861503 155.842784 
L 413.117672 128.851902 
L 415.730585 97.419959 
L 416.604368 90.250105 
L 417.303395 86.186924 
L 417.827665 84.158553 
L 418.351935 83.023996 
L 418.701448 82.769401 
L 427.264525 81.351492 
L 428.138308 81.244803 
L 428.487822 81.587257 
L 428.837335 82.334103 
L 429.361605 84.205843 
L 429.885875 86.964251 
L 430.584902 91.978704 
L 431.458685 100.281468 
L 432.50602 112.898015 
L 434.93574 142.813214 
L 437.36546 169.950725 
L 439.637297 192.812025 
L 441.719156 211.629289 
L 443.795942 228.368877 
L 445.701353 241.933961 
L 446.92465 249.2917 
L 448.147947 255.410483 
L 449.546 261.184403 
L 451.293567 267.479709 
L 453.041133 272.944987 
L 454.435484 276.614752 
L 456.00163 280.09596 
L 457.393759 282.680624 
L 458.785889 284.777855 
L 460.004002 286.208376 
L 461.048099 287.131491 
L 462.092196 287.7733 
L 463.136293 288.132777 
L 464.006374 288.216245 
L 464.876455 288.103151 
L 465.746535 287.793621 
L 466.790632 287.163387 
L 467.834729 286.251794 
L 468.878826 285.060297 
L 470.09694 283.319009 
L 471.315053 281.203122 
L 472.707182 278.332203 
L 474.099312 274.986175 
L 475.672122 270.417461 
L 477.244932 265.176424 
L 478.992498 258.542244 
L 480.215795 252.941822 
L 481.439092 246.159376 
L 482.662388 237.96003 
L 484.181679 225.858402 
L 486.035192 209.310628 
L 487.957515 190.13069 
L 489.985785 167.666087 
L 493.776912 124.518967 
L 495.000209 113.612528 
L 496.048749 105.965534 
L 496.922532 100.912758 
L 497.796316 97.13622 
L 498.495342 95.070093 
L 499.019612 94.090448 
L 499.543882 93.605061 
L 499.893396 93.557372 
L 508.155406 94.929236 
L 516.357277 96.068568 
L 524.559149 96.986166 
L 532.76102 97.682032 
L 540.962891 98.156163 
L 549.164763 98.408562 
L 554.4 98.453732 
L 554.4 98.453732 
" style="fill:none;stroke:#ef4444;stroke-linecap:square;stroke-width:1.3;"/>
   </g>
   <g id="text_19">
    <!-- q4d -->
    <g transform="translate(81.516771 41.240736)scale(0.08 -0.08)">
     <defs>
      <path d="M 53.265625 -20.453125 
L 53.265625 54.546875 
L 45.171875 54.546875 
L 45.171875 45.875 
L 44.171875 45.875 
C 42.328125 48.71875 39.0625 55.25 28.40625 55.25 
C 14.625 55.25 5.109375 44.3125 5.109375 27.125 
C 5.109375 9.796875 14.625 -1.140625 28.265625 -1.140625 
C 38.78125 -1.140625 42.328125 5.390625 44.171875 8.375 
L 44.890625 8.375 
L 44.890625 -20.453125 
z
M 45.03125 27.265625 
C 45.03125 14.921875 39.484375 6.390625 29.40625 6.390625 
C 18.890625 6.390625 13.5 15.625 13.5 27.265625 
C 13.5 38.78125 18.75 47.734375 29.40625 47.734375 
C 39.625 47.734375 45.03125 39.484375 45.03125 27.265625 
z
" id="Inter-Regular-113"/>
      <path d="M 28.265625 -1.140625 
C 38.78125 -1.140625 42.328125 5.390625 44.171875 8.375 
L 45.171875 8.375 
L 45.171875 0 
L 53.265625 0 
L 53.265625 72.734375 
L 44.890625 72.734375 
L 44.890625 45.875 
L 44.171875 45.875 
C 42.328125 48.71875 39.0625 55.25 28.40625 55.25 
C 14.625 55.25 5.109375 44.3125 5.109375 27.125 
C 5.109375 9.796875 14.625 -1.140625 28.265625 -1.140625 
z
M 29.40625 6.390625 
C 18.890625 6.390625 13.5 15.625 13.5 27.265625 
C 13.5 38.78125 18.75 47.734375 29.40625 47.734375 
C 39.625 47.734375 45.03125 39.484375 45.03125 27.265625 
C 45.03125 14.921875 39.484375 6.390625 29.40625 6.390625 
z
" id="Inter-Regular-100"/>
     </defs>
     <use xlink:href="#Inter-Regular-113"/>
     <use x="60.937515" xlink:href="#Inter-Regular-52"/>
     <use x="125.142075" xlink:href="#Inter-Regular-100"/>
    </g>
   </g>
   <g id="text_20">
    <!-- q3d -->
    <g transform="translate(96.236307 65.128339)scale(0.08 -0.08)">
     <use xlink:href="#Inter-Regular-113"/>
     <use x="60.937515" xlink:href="#Inter-Regular-51"/>
     <use x="124.573898" xlink:href="#Inter-Regular-100"/>
    </g>
   </g>
   <g id="text_21">
    <!-- b -->
    <g transform="translate(118.214517 41.240736)scale(0.08 -0.08)">
     <use xlink:href="#Inter-Regular-98"/>
    </g>
   </g>
   <g id="text_22">
    <!-- q2 -->
    <g transform="translate(132.397712 65.128339)scale(0.08 -0.08)">
     <use xlink:href="#Inter-Regular-113"/>
     <use x="60.937515" xlink:href="#Inter-Regular-50"/>
    </g>
   </g>
   <g id="text_23">
    <!-- q1 -->
    <g transform="translate(150.086365 41.240736)scale(0.08 -0.08)">
     <use xlink:href="#Inter-Regular-113"/>
     <use x="60.937515" xlink:href="#Inter-Regular-49"/>
    </g>
   </g>
   <g id="text_24">
    <!-- q1 -->
    <g transform="translate(163.717385 65.088964)scale(0.08 -0.08)">
     <use xlink:href="#Inter-Regular-113"/>
     <use x="60.937515" xlink:href="#Inter-Regular-49"/>
    </g>
   </g>
   <g id="text_25">
    <!-- q2 -->
    <g transform="translate(180.281038 41.280111)scale(0.08 -0.08)">
     <use xlink:href="#Inter-Regular-113"/>
     <use x="60.937515" xlink:href="#Inter-Regular-50"/>
    </g>
   </g>
   <g id="text_26">
    <!-- b -->
    <g transform="translate(199.214233 65.088964)scale(0.08 -0.08)">
     <use xlink:href="#Inter-Regular-98"/>
    </g>
   </g>
   <g id="text_27">
    <!-- q3t -->
    <g transform="translate(212.254943 41.280111)scale(0.08 -0.08)">
     <use xlink:href="#Inter-Regular-113"/>
     <use x="60.937515" xlink:href="#Inter-Regular-51"/>
     <use x="124.573898" xlink:href="#Inter-Regular-116"/>
    </g>
   </g>
   <g id="text_28">
    <!-- q4t -->
    <g transform="translate(226.929479 65.088964)scale(0.08 -0.08)">
     <use xlink:href="#Inter-Regular-113"/>
     <use x="60.937515" xlink:href="#Inter-Regular-52"/>
     <use x="125.142075" xlink:href="#Inter-Regular-116"/>
    </g>
   </g>
   <g id="text_29">
    <!-- q5t -->
    <g transform="translate(241.325873 41.240736)scale(0.08 -0.08)">
     <use xlink:href="#Inter-Regular-113"/>
     <use x="60.937515" xlink:href="#Inter-Regular-53"/>
     <use x="121.732986" xlink:href="#Inter-Regular-116"/>
    </g>
   </g>
   <g id="text_30">
    <!-- q5t -->
    <g transform="translate(330.556627 65.088964)scale(0.08 -0.08)">
     <use xlink:href="#Inter-Regular-113"/>
     <use x="60.937515" xlink:href="#Inter-Regular-53"/>
     <use x="121.732986" xlink:href="#Inter-Regular-116"/>
    </g>
   </g>
   <g id="text_31">
    <!-- q4t -->
    <g transform="translate(344.680521 41.240736)scale(0.08 -0.08)">
     <use xlink:href="#Inter-Regular-113"/>
     <use x="60.937515" xlink:href="#Inter-Regular-52"/>
     <use x="125.142075" xlink:href="#Inter-Regular-116"/>
    </g>
   </g>
   <g id="text_32">
    <!-- q3t -->
    <g transform="translate(359.400057 65.128339)scale(0.08 -0.08)">
     <use xlink:href="#Inter-Regular-113"/>
     <use x="60.937515" xlink:href="#Inter-Regular-51"/>
     <use x="124.573898" xlink:href="#Inter-Regular-116"/>
    </g>
   </g>
   <g id="text_33">
    <!-- b -->
    <g transform="translate(380.349517 41.240736)scale(0.08 -0.08)">
     <use xlink:href="#Inter-Regular-98"/>
    </g>
   </g>
   <g id="text_34">
    <!-- q2 -->
    <g transform="translate(394.532712 65.128339)scale(0.08 -0.08)">
     <use xlink:href="#Inter-Regular-113"/>
     <use x="60.937515" xlink:href="#Inter-Regular-50"/>
    </g>
   </g>
   <g id="text_35">
    <!-- q1 -->
    <g transform="translate(412.221365 41.240736)scale(0.08 -0.08)">
     <use xlink:href="#Inter-Regular-113"/>
     <use x="60.937515" xlink:href="#Inter-Regular-49"/>
    </g>
   </g>
   <g id="text_36">
    <!-- q1 -->
    <g transform="translate(425.852385 65.088964)scale(0.08 -0.08)">
     <use xlink:href="#Inter-Regular-113"/>
     <use x="60.937515" xlink:href="#Inter-Regular-49"/>
    </g>
   </g>
   <g id="text_37">
    <!-- q2 -->
    <g transform="translate(442.416038 41.280111)scale(0.08 -0.08)">
     <use xlink:href="#Inter-Regular-113"/>
     <use x="60.937515" xlink:href="#Inter-Regular-50"/>
    </g>
   </g>
   <g id="text_38">
    <!-- b -->
    <g transform="translate(461.349233 65.088964)scale(0.08 -0.08)">
     <use xlink:href="#Inter-Regular-98"/>
    </g>
   </g>
   <g id="text_39">
    <!-- q3d -->
    <g transform="translate(473.361193 41.280111)scale(0.08 -0.08)">
     <use xlink:href="#Inter-Regular-113"/>
     <use x="60.937515" xlink:href="#Inter-Regular-51"/>
     <use x="124.573898" xlink:href="#Inter-Regular-100"/>
    </g>
   </g>
   <g id="text_40">
    <!-- q4d -->
    <g transform="translate(488.035729 65.088964)scale(0.08 -0.08)">
     <use xlink:href="#Inter-Regular-113"/>
     <use x="60.937515" xlink:href="#Inter-Regular-52"/>
     <use x="125.142075" xlink:href="#Inter-Regular-100"/>
    </g>
   </g>
  </g>
 </g>
 <defs>
  <clipPath id="p7f1a4be29b">
   <rect height="250.4064" width="524.27" x="30.13" y="51.0736"/>
  </clipPath>
 </defs>
</svg>
