<?xml version="1.0" encoding="utf-8" standalone="no"?>
<!DOCTYPE svg PUBLIC "-//W3C//DTD SVG 1.1//EN"
  "http://www.w3.org/Graphics/SVG/1.1/DTD/svg11.dtd">
<!-- Created with matplotlib (https://matplotlib.org/) -->
<svg height="345.6pt" version="1.1" viewBox="0 0 576 345.6" width="576pt" xmlns="http://www.w3.org/2000/svg" xmlns:xlink="http://www.w3.org/1999/xlink">
 <metadata>
  <rdf:RDF xmlns:cc="http://creativecommons.org/ns#" xmlns:dc="http://purl.org/dc/elements/1.1/" xmlns:rdf="http://www.w3.org/1999/02/22-rdf-syntax-ns#">
   <cc:Work>
    <dc:type rdf:resource="http://purl.org/dc/dcmitype/StillImage"/>
    <dc:date>2020-12-15T11:54:03.042880</dc:date>
    <dc:format>image/svg+xml</dc:format>
    <dc:creator>
     <cc:Agent>
      <dc:title>Matplotlib v3.3.3, https://matplotlib.org/</dc:title>
     </cc:Agent>
    </dc:creator>
   </cc:Work>
  </rdf:RDF>
 </metadata>
 <defs>
  <style type="text/css">*{stroke-linecap:butt;stroke-linejoin:round;}</style>
 </defs>
 <g id="figure_1">
  <g id="patch_1">
   <path d="M 0 345.6 
L 576 345.6 
L 576 0 
L 0 0 
z
" style="fill:#ffffff;"/>
  </g>
  <g id="axes_1">
   <g id="patch_2">
    <path d="M 30.13 317.72 
L 565.2 317.72 
L 565.2 51.0736 
L 30.13 51.0736 
z
" style="fill:#ffffff;"/>
   </g>
   <g id="matplotlib.axis_1">
    <g id="xtick_1">
     <g id="line2d_1">
      <path clip-path="url(#p5d3cde5ff1)" d="M 30.13 317.72 
L 30.13 51.0736 
" style="fill:none;stroke:#e5e7eb;stroke-dasharray:3.7,1.6;stroke-dashoffset:0;"/>
     </g>
     <g id="line2d_2">
      <defs>
       <path d="M 0 0 
L 0 3.5 
" id="mf6cba1008a" style="stroke:#000000;stroke-width:0.8;"/>
      </defs>
      <g>
       <use style="stroke:#000000;stroke-width:0.8;" x="30.13" xlink:href="#mf6cba1008a" y="317.72"/>
      </g>
     </g>
     <g id="text_1">
      <!-- 0 -->
      <g transform="translate(27.005 331.993437)scale(0.1 -0.1)">
       <defs>
        <path d="M 31.25 -1 
C 47.296875 -1 56.53125 12.609375 56.53125 36.359375 
C 56.53125 59.9375 47.15625 73.71875 31.25 73.71875 
C 15.34375 73.71875 5.96875 59.9375 5.96875 36.359375 
C 5.96875 12.609375 15.203125 -1 31.25 -1 
z
M 31.25 6.8125 
C 20.671875 6.8125 14.484375 17.4375 14.484375 36.359375 
C 14.484375 55.25 20.734375 66.046875 31.25 66.046875 
C 41.765625 66.046875 48.015625 55.25 48.015625 36.359375 
C 48.015625 17.4375 41.828125 6.8125 31.25 6.8125 
z
" id="Inter-Regular-48"/>
       </defs>
       <use xlink:href="#Inter-Regular-48"/>
      </g>
     </g>
    </g>
    <g id="xtick_2">
     <g id="line2d_3">
      <path clip-path="url(#p5d3cde5ff1)" d="M 101.472667 317.72 
L 101.472667 51.0736 
" style="fill:none;stroke:#e5e7eb;stroke-dasharray:3.7,1.6;stroke-dashoffset:0;"/>
     </g>
     <g id="line2d_4">
      <g>
       <use style="stroke:#000000;stroke-width:0.8;" x="101.472667" xlink:href="#mf6cba1008a" y="317.72"/>
      </g>
     </g>
     <g id="text_2">
      <!-- 2 -->
      <g transform="translate(98.446885 331.993437)scale(0.1 -0.1)">
       <defs>
        <path d="M 7.53125 0 
L 53.40625 0 
L 53.40625 7.8125 
L 19.609375 7.8125 
L 19.609375 8.375 
L 35.9375 25.859375 
C 48.4375 39.234375 52.125 45.484375 52.125 53.546875 
C 52.125 64.765625 43.046875 73.71875 30.25 73.71875 
C 17.515625 73.71875 7.8125 65.0625 7.8125 52.265625 
L 16.1875 52.265625 
C 16.1875 60.546875 21.5625 66.046875 29.96875 66.046875 
C 37.859375 66.046875 43.890625 61.21875 43.890625 53.546875 
C 43.890625 46.84375 39.953125 41.875 31.53125 32.671875 
L 7.53125 6.390625 
z
" id="Inter-Regular-50"/>
       </defs>
       <use xlink:href="#Inter-Regular-50"/>
      </g>
     </g>
    </g>
    <g id="xtick_3">
     <g id="line2d_5">
      <path clip-path="url(#p5d3cde5ff1)" d="M 172.815333 317.72 
L 172.815333 51.0736 
" style="fill:none;stroke:#e5e7eb;stroke-dasharray:3.7,1.6;stroke-dashoffset:0;"/>
     </g>
     <g id="line2d_6">
      <g>
       <use style="stroke:#000000;stroke-width:0.8;" x="172.815333" xlink:href="#mf6cba1008a" y="317.72"/>
      </g>
     </g>
     <g id="text_3">
      <!-- 4 -->
      <g transform="translate(169.605177 331.993437)scale(0.1 -0.1)">
       <defs>
        <path d="M 5.828125 14.921875 
L 40.0625 14.921875 
L 40.0625 0 
L 48.4375 0 
L 48.4375 14.921875 
L 58.375 14.921875 
L 58.375 22.734375 
L 48.4375 22.734375 
L 48.4375 72.734375 
L 37.78125 72.734375 
L 5.828125 22.15625 
z
M 15.34375 22.734375 
L 15.34375 23.296875 
L 39.484375 61.5 
L 40.0625 61.5 
L 40.0625 22.734375 
z
" id="Inter-Regular-52"/>
       </defs>
       <use xlink:href="#Inter-Regular-52"/>
      </g>
     </g>
    </g>
    <g id="xtick_4">
     <g id="line2d_7">
      <path clip-path="url(#p5d3cde5ff1)" d="M 244.158 317.72 
L 244.158 51.0736 
" style="fill:none;stroke:#e5e7eb;stroke-dasharray:3.7,1.6;stroke-dashoffset:0;"/>
     </g>
     <g id="line2d_8">
      <g>
       <use style="stroke:#000000;stroke-width:0.8;" x="244.158" xlink:href="#mf6cba1008a" y="317.72"/>
      </g>
     </g>
     <g id="text_4">
      <!-- 6 -->
      <g transform="translate(241.040031 331.993437)scale(0.1 -0.1)">
       <defs>
        <path d="M 31.671875 -1 
C 46.375 -1.171875 55.96875 9.90625 55.96875 23.4375 
C 55.96875 37.5 45.5625 47.578125 33.09375 47.578125 
C 25.609375 47.578125 19.171875 43.921875 15.203125 37.921875 
L 14.625 37.921875 
C 14.671875 55.78125 21.5625 66.046875 32.8125 66.046875 
C 40.484375 66.046875 45.09375 61.21875 46.734375 54.546875 
L 55.40625 54.546875 
C 53.625 65.984375 45.03125 73.859375 32.8125 73.859375 
C 16.4375 73.859375 6.390625 59.375 6.390625 33.515625 
C 6.390625 6.640625 19.75 -0.859375 31.671875 -1 
z
M 31.671875 6.8125 
C 22.546875 6.8125 15.875 14.59375 15.90625 23.296875 
C 15.953125 32 22.9375 39.765625 31.96875 39.765625 
C 40.875 39.765625 47.4375 32.453125 47.4375 23.4375 
C 47.4375 14.203125 40.59375 6.8125 31.671875 6.8125 
z
" id="Inter-Regular-54"/>
       </defs>
       <use xlink:href="#Inter-Regular-54"/>
      </g>
     </g>
    </g>
    <g id="xtick_5">
     <g id="line2d_9">
      <path clip-path="url(#p5d3cde5ff1)" d="M 315.500667 317.72 
L 315.500667 51.0736 
" style="fill:none;stroke:#e5e7eb;stroke-dasharray:3.7,1.6;stroke-dashoffset:0;"/>
     </g>
     <g id="line2d_10">
      <g>
       <use style="stroke:#000000;stroke-width:0.8;" x="315.500667" xlink:href="#mf6cba1008a" y="317.72"/>
      </g>
     </g>
     <g id="text_5">
      <!-- 8 -->
      <g transform="translate(312.417854 331.993437)scale(0.1 -0.1)">
       <defs>
        <path d="M 30.828125 -1 
C 45.34375 -1 55.46875 7.5 55.546875 19.3125 
C 55.46875 28.515625 49.328125 36.328125 41.484375 37.78125 
L 41.484375 38.203125 
C 48.296875 39.984375 52.765625 46.65625 52.84375 54.40625 
C 52.765625 65.484375 43.46875 73.71875 30.828125 73.71875 
C 18.046875 73.71875 8.734375 65.484375 8.8125 54.40625 
C 8.734375 46.65625 13.21875 39.984375 20.171875 38.203125 
L 20.171875 37.78125 
C 12.1875 36.328125 6.03125 28.515625 6.109375 19.3125 
C 6.03125 7.5 16.15625 -1 30.828125 -1 
z
M 30.828125 41.328125 
C 22.875 41.328125 17.265625 46.3125 17.328125 53.828125 
C 17.265625 61.21875 22.65625 66.046875 30.828125 66.046875 
C 38.84375 66.046875 44.25 61.21875 44.3125 53.828125 
C 44.25 46.3125 38.640625 41.328125 30.828125 41.328125 
z
M 30.828125 6.8125 
C 20.84375 6.8125 14.703125 11.9375 14.78125 19.75 
C 14.703125 27.953125 21.484375 33.8125 30.828125 33.8125 
C 40.015625 33.8125 46.8125 27.953125 46.875 19.75 
C 46.8125 11.9375 40.65625 6.8125 30.828125 6.8125 
z
" id="Inter-Regular-56"/>
       </defs>
       <use xlink:href="#Inter-Regular-56"/>
      </g>
     </g>
    </g>
    <g id="xtick_6">
     <g id="line2d_11">
      <path clip-path="url(#p5d3cde5ff1)" d="M 386.843333 317.72 
L 386.843333 51.0736 
" style="fill:none;stroke:#e5e7eb;stroke-dasharray:3.7,1.6;stroke-dashoffset:0;"/>
     </g>
     <g id="line2d_12">
      <g>
       <use style="stroke:#000000;stroke-width:0.8;" x="386.843333" xlink:href="#mf6cba1008a" y="317.72"/>
      </g>
     </g>
     <g id="text_6">
      <!-- 10 -->
      <g transform="translate(381.395677 331.993437)scale(0.1 -0.1)">
       <defs>
        <path d="M 33.09375 72.734375 
L 24.296875 72.734375 
L 6.109375 60.65625 
L 6.109375 51.703125 
L 23.859375 63.5 
L 24.296875 63.5 
L 24.296875 0 
L 33.09375 0 
z
" id="Inter-Regular-49"/>
       </defs>
       <use xlink:href="#Inter-Regular-49"/>
       <use x="46.448868" xlink:href="#Inter-Regular-48"/>
      </g>
     </g>
    </g>
    <g id="xtick_7">
     <g id="line2d_13">
      <path clip-path="url(#p5d3cde5ff1)" d="M 458.186 317.72 
L 458.186 51.0736 
" style="fill:none;stroke:#e5e7eb;stroke-dasharray:3.7,1.6;stroke-dashoffset:0;"/>
     </g>
     <g id="line2d_14">
      <g>
       <use style="stroke:#000000;stroke-width:0.8;" x="458.186" xlink:href="#mf6cba1008a" y="317.72"/>
      </g>
     </g>
     <g id="text_7">
      <!-- 12 -->
      <g transform="translate(452.837562 331.993437)scale(0.1 -0.1)">
       <use xlink:href="#Inter-Regular-49"/>
       <use x="46.448868" xlink:href="#Inter-Regular-50"/>
      </g>
     </g>
    </g>
    <g id="xtick_8">
     <g id="line2d_15">
      <path clip-path="url(#p5d3cde5ff1)" d="M 529.528667 317.72 
L 529.528667 51.0736 
" style="fill:none;stroke:#e5e7eb;stroke-dasharray:3.7,1.6;stroke-dashoffset:0;"/>
     </g>
     <g id="line2d_16">
      <g>
       <use style="stroke:#000000;stroke-width:0.8;" x="529.528667" xlink:href="#mf6cba1008a" y="317.72"/>
      </g>
     </g>
     <g id="text_8">
      <!-- 14 -->
      <g transform="translate(523.995854 331.993437)scale(0.1 -0.1)">
       <use xlink:href="#Inter-Regular-49"/>
       <use x="46.448868" xlink:href="#Inter-Regular-52"/>
      </g>
     </g>
    </g>
   </g>
   <g id="matplotlib.axis_2">
    <g id="ytick_1">
     <g id="line2d_17">
      <path clip-path="url(#p5d3cde5ff1)" d="M 30.13 306.176757 
L 565.2 306.176757 
" style="fill:none;stroke:#e5e7eb;stroke-dasharray:3.7,1.6;stroke-dashoffset:0;"/>
     </g>
     <g id="line2d_18">
      <defs>
       <path d="M 0 0 
L -3.5 0 
" id="m983bfd08b6" style="stroke:#000000;stroke-width:0.8;"/>
      </defs>
      <g>
       <use style="stroke:#000000;stroke-width:0.8;" x="30.13" xlink:href="#m983bfd08b6" y="306.176757"/>
      </g>
     </g>
     <g id="text_9">
      <!-- 0 -->
      <g transform="translate(16.88 309.813476)scale(0.1 -0.1)">
       <use xlink:href="#Inter-Regular-48"/>
      </g>
     </g>
    </g>
    <g id="ytick_2">
     <g id="line2d_19">
      <path clip-path="url(#p5d3cde5ff1)" d="M 30.13 253.799582 
L 565.2 253.799582 
" style="fill:none;stroke:#e5e7eb;stroke-dasharray:3.7,1.6;stroke-dashoffset:0;"/>
     </g>
     <g id="line2d_20">
      <g>
       <use style="stroke:#000000;stroke-width:0.8;" x="30.13" xlink:href="#m983bfd08b6" y="253.799582"/>
      </g>
     </g>
     <g id="text_10">
      <!-- 5 -->
      <g transform="translate(17.050313 257.436301)scale(0.1 -0.1)">
       <defs>
        <path d="M 30.25 -1 
C 44.109375 -1 54.265625 9.234375 54.265625 23.15625 
C 54.265625 37.25 44.46875 47.578125 31.109375 47.578125 
C 26.203125 47.578125 21.453125 45.84375 18.46875 43.46875 
L 18.046875 43.46875 
L 20.59375 64.921875 
L 51 64.921875 
L 51 72.734375 
L 13.21875 72.734375 
L 8.8125 36.9375 
L 17.046875 35.9375 
C 20.0625 38.109375 25.21875 39.671875 29.6875 39.625 
C 38.953125 39.5625 45.734375 32.53125 45.734375 23.015625 
C 45.734375 13.671875 39.203125 6.8125 30.25 6.8125 
C 22.796875 6.8125 16.875 11.609375 16.1875 18.1875 
L 7.671875 18.1875 
C 8.203125 7.109375 17.75 -1 30.25 -1 
z
" id="Inter-Regular-53"/>
       </defs>
       <use xlink:href="#Inter-Regular-53"/>
      </g>
     </g>
    </g>
    <g id="ytick_3">
     <g id="line2d_21">
      <path clip-path="url(#p5d3cde5ff1)" d="M 30.13 201.422407 
L 565.2 201.422407 
" style="fill:none;stroke:#e5e7eb;stroke-dasharray:3.7,1.6;stroke-dashoffset:0;"/>
     </g>
     <g id="line2d_22">
      <g>
       <use style="stroke:#000000;stroke-width:0.8;" x="30.13" xlink:href="#m983bfd08b6" y="201.422407"/>
      </g>
     </g>
     <g id="text_11">
      <!-- 10 -->
      <g transform="translate(12.234688 205.059126)scale(0.1 -0.1)">
       <use xlink:href="#Inter-Regular-49"/>
       <use x="46.448868" xlink:href="#Inter-Regular-48"/>
      </g>
     </g>
    </g>
    <g id="ytick_4">
     <g id="line2d_23">
      <path clip-path="url(#p5d3cde5ff1)" d="M 30.13 149.045232 
L 565.2 149.045232 
" style="fill:none;stroke:#e5e7eb;stroke-dasharray:3.7,1.6;stroke-dashoffset:0;"/>
     </g>
     <g id="line2d_24">
      <g>
       <use style="stroke:#000000;stroke-width:0.8;" x="30.13" xlink:href="#m983bfd08b6" y="149.045232"/>
      </g>
     </g>
     <g id="text_12">
      <!-- 15 -->
      <g transform="translate(12.405 152.68195)scale(0.1 -0.1)">
       <use xlink:href="#Inter-Regular-49"/>
       <use x="46.448868" xlink:href="#Inter-Regular-53"/>
      </g>
     </g>
    </g>
    <g id="ytick_5">
     <g id="line2d_25">
      <path clip-path="url(#p5d3cde5ff1)" d="M 30.13 96.668056 
L 565.2 96.668056 
" style="fill:none;stroke:#e5e7eb;stroke-dasharray:3.7,1.6;stroke-dashoffset:0;"/>
     </g>
     <g id="line2d_26">
      <g>
       <use style="stroke:#000000;stroke-width:0.8;" x="30.13" xlink:href="#m983bfd08b6" y="96.668056"/>
      </g>
     </g>
     <g id="text_13">
      <!-- 20 -->
      <g transform="translate(10.828438 100.304775)scale(0.1 -0.1)">
       <use xlink:href="#Inter-Regular-50"/>
       <use x="60.511383" xlink:href="#Inter-Regular-48"/>
      </g>
     </g>
    </g>
   </g>
   <g id="line2d_27">
    <path clip-path="url(#p5d3cde5ff1)" d="M 30.13 101.479636 
L 46.102409 101.372154 
L 62.074817 101.049709 
L 78.047226 100.512301 
L 94.019635 99.759929 
L 109.992044 98.792593 
L 125.964452 97.610295 
L 141.388889 96.26453 
L 142.438046 96.420633 
L 143.487202 97.084734 
L 144.536359 98.25361 
L 145.585516 99.921583 
L 146.634673 102.080555 
L 147.68383 104.72004 
L 148.732987 107.82722 
L 149.782144 111.387008 
L 151.880457 119.793141 
L 153.978771 129.775352 
L 156.077085 141.139975 
L 158.175398 153.666523 
L 162.499184 180.528228 
L 165.823752 199.515603 
L 169.2482 217.430947 
L 172.572768 233.229198 
L 174.755854 242.748675 
L 176.962126 251.584737 
L 179.191584 259.223542 
L 181.421042 265.671639 
L 183.650501 271.106934 
L 185.795735 275.566797 
L 188.887251 281.346646 
L 191.978766 286.462466 
L 194.039777 289.504108 
L 196.189203 292.246098 
L 198.33863 294.69986 
L 200.488056 296.861413 
L 202.637483 298.727251 
L 204.786909 300.294349 
L 206.936336 301.560163 
L 209.085762 302.522643 
L 211.235189 303.180225 
L 213.384615 303.531843 
L 215.534042 303.576927 
L 217.683468 303.315405 
L 219.832895 302.747699 
L 221.982321 301.874732 
L 224.131748 300.697918 
L 226.281174 299.219168 
L 228.430601 297.440878 
L 230.580027 295.365934 
L 232.729454 292.997701 
L 234.87888 290.340021 
L 236.984099 287.389753 
L 239.045109 284.139984 
L 241.106119 280.59509 
L 244.197635 274.724392 
L 246.247321 270.418823 
L 248.285683 265.479843 
L 250.324045 259.734554 
L 252.362407 253.058742 
L 254.552627 245.047433 
L 257.837956 231.948621 
L 261.123286 217.551591 
L 264.454989 201.625512 
L 267.879437 183.864702 
L 271.075588 166.015368 
L 274.157591 147.639855 
L 277.239595 128.121842 
L 280.408993 107.324442 
L 281.523722 100.999457 
L 282.638451 95.560027 
L 283.75318 91.057645 
L 284.867909 87.53493 
L 285.982638 85.025228 
L 287.097368 83.552298 
L 288.212097 83.130081 
L 304.834938 84.590784 
L 307.117903 84.774276 
L 308.232633 85.386186 
L 309.347362 87.039233 
L 310.462091 89.717768 
L 311.57682 93.396436 
L 312.691549 98.040413 
L 313.806278 103.60574 
L 314.921008 110.039734 
L 322.199743 157.066643 
L 325.281746 175.182348 
L 328.592046 193.320508 
L 332.016494 210.646051 
L 335.301824 225.89321 
L 338.587154 239.794335 
L 341.872483 252.349425 
L 343.986774 259.653223 
L 346.025136 265.768321 
L 348.063498 271.030567 
L 350.10186 275.55373 
L 353.193376 281.548482 
L 355.254386 285.149207 
L 357.315396 288.433312 
L 359.376407 291.400796 
L 361.525833 294.05667 
L 363.67526 296.398891 
L 365.824686 298.423659 
L 367.974113 300.127692 
L 370.123539 301.508224 
L 372.272966 302.563017 
L 374.422392 303.290359 
L 376.571819 303.689072 
L 378.721245 303.758507 
L 380.870672 303.498553 
L 383.020098 302.909631 
L 385.169525 301.992697 
L 387.318951 300.749238 
L 389.468378 299.18127 
L 391.617804 297.291337 
L 393.767231 295.082504 
L 395.916657 292.558354 
L 398.066084 289.722982 
L 400.21551 286.580985 
L 402.320729 283.124213 
L 404.381739 279.342019 
L 407.473254 273.075064 
L 410.56477 266.095712 
L 412.794228 260.231429 
L 415.023687 253.072501 
L 417.253145 244.363834 
L 419.482603 233.795117 
L 421.665689 221.965954 
L 423.848775 209.231395 
L 426.0818 195.268824 
L 428.364765 180.014683 
L 431.739273 155.653731 
L 435.013902 129.945615 
L 437.154602 112.474007 
L 439.252915 97.78227 
L 440.302072 91.673974 
L 441.351229 86.467526 
L 442.400386 82.21038 
L 443.449543 78.941335 
L 444.4987 76.690186 
L 445.547856 75.477451 
L 446.597013 75.314182 
L 447.64617 76.201868 
L 448.695327 78.132417 
L 449.744484 81.088236 
L 450.793641 85.042383 
L 451.842798 89.958821 
L 452.891954 95.792739 
L 461.681791 151.549933 
L 465.106239 171.081627 
L 468.380867 188.512734 
L 470.563953 199.456688 
L 471.583134 204.158755 
L 472.602315 208.325366 
L 473.621496 211.992261 
L 474.640676 215.190892 
L 475.659857 217.948697 
L 476.679038 220.28933 
L 478.765314 224.054824 
L 483.033694 231.119097 
L 487.302073 237.825685 
L 491.570453 244.174589 
L 495.838832 250.165807 
L 500.107212 255.799341 
L 504.375591 261.075191 
L 508.643971 265.993355 
L 512.912351 270.553835 
L 517.18073 274.75663 
L 521.44911 278.601741 
L 525.717489 282.089167 
L 529.985869 285.218908 
L 534.254248 287.990964 
L 537.455533 289.835276 
L 540.656818 291.47839 
L 543.858102 292.920306 
L 547.059387 294.161025 
L 550.260672 295.200546 
L 553.461956 296.03887 
L 556.663241 296.675996 
L 559.864526 297.111924 
L 563.06581 297.346655 
L 565.2 297.391365 
L 565.2 297.391365 
" style="fill:none;stroke:#ef4444;stroke-linecap:square;stroke-width:1.5;"/>
   </g>
   <g id="line2d_28">
    <path clip-path="url(#p5d3cde5ff1)" d="M 30.13 256.638833 
L 38.648618 256.512504 
L 47.167236 256.133514 
L 55.685854 255.501865 
L 64.204472 254.617556 
L 72.72309 253.480587 
L 81.241708 252.090959 
L 89.760326 250.448671 
L 98.278944 248.553724 
L 106.797562 246.406117 
L 115.31618 244.00585 
L 123.834798 241.352923 
L 132.506727 238.39273 
L 140.297346 235.510102 
L 142.438046 234.594302 
L 143.487202 233.920279 
L 144.536359 233.063995 
L 145.585516 232.021287 
L 146.634673 230.787088 
L 147.68383 229.3554 
L 148.732987 227.719264 
L 150.8313 223.800811 
L 152.929614 218.95546 
L 155.027928 213.088901 
L 157.126242 206.086946 
L 159.224555 197.813311 
L 162.499184 183.36915 
L 165.823752 167.764144 
L 169.2482 150.699503 
L 172.572768 133.170663 
L 178.076855 103.438473 
L 179.191584 98.59515 
L 180.306313 94.415548 
L 181.421042 90.928413 
L 182.535772 88.157729 
L 183.650501 86.122554 
L 184.76523 84.836884 
L 194.039777 77.188276 
L 211.235189 77.390901 
L 228.430601 77.3706 
L 235.953593 77.291619 
L 245.22814 84.98163 
L 246.247321 86.112121 
L 247.266502 87.830569 
L 248.285683 90.127707 
L 249.304864 92.991148 
L 250.324045 96.405448 
L 251.343226 100.352195 
L 254.552627 114.793642 
L 258.933066 133.986616 
L 263.313506 152.147457 
L 267.879437 169.978708 
L 272.102923 185.474223 
L 276.21226 199.629995 
L 279.294263 209.650732 
L 280.408993 212.926071 
L 281.523722 215.707983 
L 282.638451 218.022846 
L 283.75318 219.892605 
L 284.867909 221.33499 
L 285.982638 222.363674 
L 287.097368 222.988412 
L 288.212097 223.215126 
L 298.601373 223.370487 
L 307.117903 223.330147 
L 308.232633 223.11729 
L 309.347362 222.507087 
L 310.462091 221.493751 
L 311.57682 220.067676 
L 312.691549 218.21534 
L 313.806278 215.91918 
L 314.921008 213.157428 
L 317.063071 206.641622 
L 321.172409 193.030367 
L 325.281746 178.519675 
L 329.733529 161.784768 
L 334.206714 143.906191 
L 338.587154 125.365455 
L 345.005955 97.463946 
L 346.025136 94.078959 
L 347.044317 91.242189 
L 348.063498 88.968935 
L 349.082679 87.271454 
L 350.10186 86.158902 
L 359.376407 78.620066 
L 376.571819 78.935989 
L 393.767231 79.027397 
L 401.290223 78.996789 
L 410.56477 86.686553 
L 411.679499 88.083078 
L 412.794228 90.438354 
L 413.908958 93.731479 
L 415.023687 97.933224 
L 416.138416 103.006299 
L 417.253145 108.905678 
L 418.367874 115.579003 
L 424.940317 158.818475 
L 428.364765 179.306426 
L 431.739273 197.981669 
L 435.013902 214.667415 
L 437.154602 224.620971 
L 439.252915 232.583283 
L 440.302072 235.912155 
L 441.351229 238.847974 
L 442.400386 241.417538 
L 443.449543 243.644303 
L 444.4987 245.548594 
L 445.547856 247.147794 
L 446.597013 248.4565 
L 447.64617 249.486658 
L 448.695327 250.247672 
L 449.744484 250.746488 
L 450.793641 250.987659 
L 451.842798 250.973387 
L 452.891954 250.703542 
L 453.941111 250.17566 
L 460.540308 245.891294 
L 467.289324 241.212593 
L 471.583134 238.224865 
L 472.602315 237.902263 
L 473.621496 237.869204 
L 474.640676 238.125969 
L 475.659857 238.67036 
L 476.679038 239.497714 
L 478.765314 241.889461 
L 484.100789 248.094898 
L 489.436263 253.905083 
L 494.771738 259.320018 
L 499.040117 263.367386 
L 503.308497 267.161793 
L 507.576876 270.703239 
L 511.845256 273.991725 
L 516.113635 277.027251 
L 520.382015 279.809816 
L 524.650394 282.339421 
L 528.918774 284.616065 
L 533.187153 286.639748 
L 537.455533 288.410472 
L 541.723913 289.928234 
L 545.992292 291.193037 
L 550.260672 292.204879 
L 554.529051 292.96376 
L 558.797431 293.469681 
L 563.06581 293.722641 
L 565.2 293.754261 
L 565.2 293.754261 
" style="fill:none;stroke:#1d4ed8;stroke-linecap:square;stroke-width:1.5;"/>
   </g>
   <g id="line2d_29">
    <path clip-path="url(#p5d3cde5ff1)" d="M 30.13 306.176866 
L 196.189203 306.113227 
L 199.413343 305.779624 
L 202.637483 305.160395 
L 205.861622 304.256103 
L 209.085762 303.067575 
L 212.309902 301.595894 
L 215.534042 299.842403 
L 218.758181 297.808702 
L 221.982321 295.496648 
L 225.206461 292.908348 
L 228.430601 290.046166 
L 231.65474 286.912712 
L 234.87888 283.510846 
L 238.014604 279.909947 
L 247.266502 269.005412 
L 250.324045 264.909025 
L 253.457517 260.225053 
L 280.408993 219.035847 
L 281.523722 217.636309 
L 282.638451 216.446429 
L 283.75318 215.469026 
L 284.867909 214.706412 
L 285.982638 214.160395 
L 287.097368 213.832266 
L 288.212097 213.722803 
L 308.232633 213.832264 
L 309.347362 214.160392 
L 310.462091 214.706409 
L 311.57682 215.469023 
L 312.691549 216.446426 
L 313.806278 217.636305 
L 314.921008 219.035843 
L 318.090405 223.78959 
L 345.005955 264.909016 
L 348.063498 269.005402 
L 351.132365 272.686457 
L 361.525833 284.674425 
L 364.749973 287.987152 
L 367.974113 291.030487 
L 371.198252 293.801652 
L 374.422392 296.298119 
L 377.646532 298.51761 
L 380.870672 300.4581 
L 384.094811 302.117818 
L 387.318951 303.495251 
L 390.543091 304.58914 
L 393.767231 305.398489 
L 396.99137 305.922559 
L 400.21551 306.160871 
L 408.50376 306.17677 
L 565.2 306.176802 
L 565.2 306.176802 
" style="fill:none;stroke:#10b981;stroke-linecap:square;stroke-width:1.5;"/>
   </g>
   <g id="patch_3">
    <path d="M 30.13 317.72 
L 30.13 51.0736 
" style="fill:none;stroke:#000000;stroke-linecap:square;stroke-linejoin:miter;stroke-width:0.8;"/>
   </g>
   <g id="patch_4">
    <path d="M 565.2 317.72 
L 565.2 51.0736 
" style="fill:none;stroke:#000000;stroke-linecap:square;stroke-linejoin:miter;stroke-width:0.8;"/>
   </g>
   <g id="patch_5">
    <path d="M 30.13 317.72 
L 565.2 317.72 
" style="fill:none;stroke:#000000;stroke-linecap:square;stroke-linejoin:miter;stroke-width:0.8;"/>
   </g>
   <g id="patch_6">
    <path d="M 30.13 51.0736 
L 565.2 51.0736 
" style="fill:none;stroke:#000000;stroke-linecap:square;stroke-linejoin:miter;stroke-width:0.8;"/>
   </g>
   <g id="legend_1">
    <g id="line2d_30">
     <path d="M 39.13 22.14128 
L 59.13 22.14128 
" style="fill:none;stroke:#ef4444;stroke-linecap:square;stroke-width:1.5;"/>
    </g>
    <g id="line2d_31"/>
    <g id="text_14">
     <!-- $\beta_x$ / m -->
     <g transform="translate(67.13 25.64128)scale(0.1 -0.1)">
      <defs>
       <path d="M 13.625 3.375 
L 8.9375 -20.796875 
L -0.09375 -20.796875 
L 14.5 54.34375 
Q 18.84375 76.609375 39.65625 76.609375 
Q 60.75 76.609375 57.171875 57.8125 
Q 54.734375 44.4375 45.21875 39.546875 
Q 58.015625 35.15625 55.515625 22.125 
Q 51.125 -1.078125 27.484375 -1.03125 
Q 17.140625 -0.984375 13.625 3.375 
z
M 15.921875 15.09375 
Q 19.671875 6.59375 29.296875 6.640625 
Q 43.359375 6.640625 46.34375 21.96875 
Q 49.03125 35.75 26.171875 34.671875 
L 27.78125 42.96875 
Q 45.453125 42.671875 48.53125 58.59375 
Q 50.640625 69.34375 39.203125 69.28125 
Q 26.421875 69.28125 23.484375 54.046875 
z
" id="DejaVuSans-Oblique-946"/>
       <path d="M 60.015625 54.6875 
L 34.90625 27.875 
L 50.296875 0 
L 39.984375 0 
L 28.421875 21.6875 
L 8.296875 0 
L -2.59375 0 
L 24.3125 28.8125 
L 10.015625 54.6875 
L 20.3125 54.6875 
L 30.8125 34.90625 
L 49.125 54.6875 
z
" id="DejaVuSans-Oblique-120"/>
       <path id="Inter-Regular-32"/>
       <path d="M 33.375 76.140625 
L 25.71875 76.140625 
L 2.28125 -10.9375 
L 9.9375 -10.9375 
z
" id="Inter-Regular-47"/>
       <path d="M 7.671875 0 
L 16.046875 0 
L 16.046875 34.09375 
C 16.046875 42.078125 21.875 47.734375 28.40625 47.734375 
C 34.765625 47.734375 39.203125 43.578125 39.203125 37.359375 
L 39.203125 0 
L 47.734375 0 
L 47.734375 35.515625 
C 47.734375 42.546875 52.125 47.734375 59.796875 47.734375 
C 65.765625 47.734375 70.875 44.5625 70.875 36.5 
L 70.875 0 
L 79.265625 0 
L 79.265625 36.5 
C 79.265625 49.328125 72.375 55.25 62.640625 55.25 
C 54.828125 55.25 49.109375 51.671875 46.3125 46.015625 
L 45.734375 46.015625 
C 43.046875 51.84375 38.28125 55.25 31.109375 55.25 
C 24 55.25 18.75 51.84375 16.484375 46.015625 
L 15.765625 46.015625 
L 15.765625 54.546875 
L 7.671875 54.546875 
z
" id="Inter-Regular-109"/>
      </defs>
      <use transform="translate(0 0.390625)" xlink:href="#DejaVuSans-Oblique-946"/>
      <use transform="translate(63.818359 -16.015625)scale(0.7)" xlink:href="#DejaVuSans-Oblique-120"/>
      <use transform="translate(107.978516 0.390625)" xlink:href="#Inter-Regular-32"/>
      <use transform="translate(136.103516 0.390625)" xlink:href="#Inter-Regular-47"/>
      <use transform="translate(171.756927 0.390625)" xlink:href="#Inter-Regular-32"/>
      <use transform="translate(199.881927 0.390625)" xlink:href="#Inter-Regular-109"/>
     </g>
    </g>
    <g id="line2d_32">
     <path d="M 262.465 22.14128 
L 282.465 22.14128 
" style="fill:none;stroke:#1d4ed8;stroke-linecap:square;stroke-width:1.5;"/>
    </g>
    <g id="line2d_33"/>
    <g id="text_15">
     <!-- $\beta_y$ / m -->
     <g transform="translate(290.465 25.64128)scale(0.1 -0.1)">
      <defs>
       <path d="M 24.8125 -5.078125 
Q 18.5625 -15.578125 14.625 -18.1875 
Q 10.6875 -20.796875 4.59375 -20.796875 
L -2.484375 -20.796875 
L -0.984375 -13.28125 
L 4.203125 -13.28125 
Q 7.953125 -13.28125 10.59375 -11.234375 
Q 13.234375 -9.1875 16.5 -3.21875 
L 19.28125 2 
L 7.171875 54.6875 
L 16.703125 54.6875 
L 25.78125 12.796875 
L 50.875 54.6875 
L 60.296875 54.6875 
z
" id="DejaVuSans-Oblique-121"/>
      </defs>
      <use transform="translate(0 0.390625)" xlink:href="#DejaVuSans-Oblique-946"/>
      <use transform="translate(63.818359 -16.015625)scale(0.7)" xlink:href="#DejaVuSans-Oblique-121"/>
      <use transform="translate(107.978516 0.390625)" xlink:href="#Inter-Regular-32"/>
      <use transform="translate(136.103516 0.390625)" xlink:href="#Inter-Regular-47"/>
      <use transform="translate(171.756927 0.390625)" xlink:href="#Inter-Regular-32"/>
      <use transform="translate(199.881927 0.390625)" xlink:href="#Inter-Regular-109"/>
     </g>
    </g>
    <g id="line2d_34">
     <path d="M 485.8 22.14128 
L 505.8 22.14128 
" style="fill:none;stroke:#10b981;stroke-linecap:square;stroke-width:1.5;"/>
    </g>
    <g id="line2d_35"/>
    <g id="text_16">
     <!-- 10 $\eta_x$ / m -->
     <g transform="translate(513.8 25.64128)scale(0.1 -0.1)">
      <defs>
       <path d="M 57.859375 33.015625 
L 47.40625 -20.796875 
L 38.421875 -20.796875 
L 48.828125 32.71875 
Q 50.34375 40.484375 48.046875 44.34375 
Q 45.796875 48.1875 39.75 48.1875 
Q 32.46875 48.1875 27.34375 43.5625 
Q 22.265625 38.921875 20.703125 30.90625 
L 14.703125 0 
L 5.671875 0 
L 16.3125 54.6875 
L 25.34375 54.6875 
L 23.6875 46.1875 
Q 27.828125 51.125 32.71875 53.5625 
Q 37.546875 56 43.265625 56 
Q 52.6875 56 56.390625 50.203125 
Q 60.0625 44.34375 57.859375 33.015625 
z
" id="DejaVuSans-Oblique-951"/>
      </defs>
      <use transform="translate(0 0.859375)" xlink:href="#Inter-Regular-49"/>
      <use transform="translate(46.448868 0.859375)" xlink:href="#Inter-Regular-48"/>
      <use transform="translate(108.948883 0.859375)" xlink:href="#Inter-Regular-32"/>
      <use transform="translate(137.073883 0.859375)" xlink:href="#DejaVuSans-Oblique-951"/>
      <use transform="translate(200.452789 -15.546875)scale(0.7)" xlink:href="#DejaVuSans-Oblique-120"/>
      <use transform="translate(244.612946 0.859375)" xlink:href="#Inter-Regular-32"/>
      <use transform="translate(272.737946 0.859375)" xlink:href="#Inter-Regular-47"/>
      <use transform="translate(308.391357 0.859375)" xlink:href="#Inter-Regular-32"/>
      <use transform="translate(336.516357 0.859375)" xlink:href="#Inter-Regular-109"/>
     </g>
    </g>
   </g>
   <g id="patch_7">
    <path d="M 130.223761 57.422324 
L 135.931175 57.422324 
L 135.931175 44.724876 
L 130.223761 44.724876 
z
" style="fill:#10b981;"/>
   </g>
   <g id="patch_8">
    <path d="M 141.388889 57.422324 
L 159.224555 57.422324 
L 159.224555 44.724876 
L 141.388889 44.724876 
z
" style="fill:#ef4444;"/>
   </g>
   <g id="patch_9">
    <path d="M 164.682269 57.422324 
L 170.389683 57.422324 
L 170.389683 44.724876 
L 164.682269 44.724876 
z
" style="fill:#10b981;"/>
   </g>
   <g id="patch_10">
    <path d="M 175.847397 57.422324 
L 184.76523 57.422324 
L 184.76523 44.724876 
L 175.847397 44.724876 
z
" style="fill:#ef4444;"/>
   </g>
   <g id="patch_11">
    <path d="M 194.039777 57.422324 
L 235.953593 57.422324 
L 235.953593 44.724876 
L 194.039777 44.724876 
z
" style="fill:#fbbf24;"/>
   </g>
   <g id="patch_12">
    <path d="M 245.22814 57.422324 
L 252.362407 57.422324 
L 252.362407 44.724876 
L 245.22814 44.724876 
z
" style="fill:#ef4444;"/>
   </g>
   <g id="patch_13">
    <path d="M 263.313506 57.422324 
L 269.020919 57.422324 
L 269.020919 44.724876 
L 263.313506 44.724876 
z
" style="fill:#10b981;"/>
   </g>
   <g id="patch_14">
    <path d="M 279.294263 57.422324 
L 288.212097 57.422324 
L 288.212097 44.724876 
L 279.294263 44.724876 
z
" style="fill:#ef4444;"/>
   </g>
   <g id="patch_15">
    <path d="M 293.91951 57.422324 
L 301.41049 57.422324 
L 301.41049 44.724876 
L 293.91951 44.724876 
z
" style="fill:#10b981;"/>
   </g>
   <g id="patch_16">
    <path d="M 307.117903 57.422324 
L 316.035737 57.422324 
L 316.035737 44.724876 
L 307.117903 44.724876 
z
" style="fill:#ef4444;"/>
   </g>
   <g id="patch_17">
    <path d="M 326.309081 57.422324 
L 332.016494 57.422324 
L 332.016494 44.724876 
L 326.309081 44.724876 
z
" style="fill:#10b981;"/>
   </g>
   <g id="patch_18">
    <path d="M 342.967593 57.422324 
L 350.10186 57.422324 
L 350.10186 44.724876 
L 342.967593 44.724876 
z
" style="fill:#ef4444;"/>
   </g>
   <g id="patch_19">
    <path d="M 359.376407 57.422324 
L 401.290223 57.422324 
L 401.290223 44.724876 
L 359.376407 44.724876 
z
" style="fill:#fbbf24;"/>
   </g>
   <g id="patch_20">
    <path d="M 410.56477 57.422324 
L 419.482603 57.422324 
L 419.482603 44.724876 
L 410.56477 44.724876 
z
" style="fill:#ef4444;"/>
   </g>
   <g id="patch_21">
    <path d="M 424.940317 57.422324 
L 430.647731 57.422324 
L 430.647731 44.724876 
L 424.940317 44.724876 
z
" style="fill:#10b981;"/>
   </g>
   <g id="patch_22">
    <path d="M 436.105445 57.422324 
L 453.941111 57.422324 
L 453.941111 44.724876 
L 436.105445 44.724876 
z
" style="fill:#ef4444;"/>
   </g>
   <g id="patch_23">
    <path d="M 459.398825 57.422324 
L 465.106239 57.422324 
L 465.106239 44.724876 
L 459.398825 44.724876 
z
" style="fill:#10b981;"/>
   </g>
   <g id="patch_24">
    <path d="M 470.563953 57.422324 
L 477.698219 57.422324 
L 477.698219 44.724876 
L 470.563953 44.724876 
z
" style="fill:#ef4444;"/>
   </g>
   <g id="text_17">
    <!-- S4D -->
    <g transform="translate(128.080984 39.683184)scale(0.05 -0.05)">
     <defs>
      <path d="M 48.578125 54.546875 
L 57.109375 54.546875 
C 56.71875 65.515625 46.59375 73.71875 32.53125 73.71875 
C 18.609375 73.71875 7.671875 65.625 7.671875 53.40625 
C 7.671875 43.609375 14.78125 37.78125 26.140625 34.515625 
L 35.09375 31.953125 
C 42.75 29.828125 49.578125 27.125 49.578125 19.890625 
C 49.578125 11.9375 41.90625 6.671875 31.8125 6.671875 
C 23.15625 6.671875 15.484375 10.515625 14.78125 18.75 
L 5.6875 18.75 
C 6.53125 6.8125 16.1875 -1.28125 31.8125 -1.28125 
C 48.578125 -1.28125 58.09375 7.953125 58.09375 19.75 
C 58.09375 33.375 45.171875 37.78125 37.640625 39.765625 
L 30.25 41.765625 
C 24.859375 43.1875 16.1875 46.015625 16.1875 53.828125 
C 16.1875 60.796875 22.59375 65.90625 32.25 65.90625 
C 41.046875 65.90625 47.734375 61.71875 48.578125 54.546875 
z
" id="Inter-Regular-83"/>
      <path d="M 31.25 0 
C 53.40625 0 65.90625 13.78125 65.90625 36.5 
C 65.90625 59.09375 53.40625 72.734375 32.25 72.734375 
L 8.8125 72.734375 
L 8.8125 0 
z
M 31.671875 64.921875 
C 48.71875 64.921875 57.390625 54.125 57.390625 36.5 
C 57.390625 18.75 48.71875 7.8125 30.6875 7.8125 
L 17.609375 7.8125 
L 17.609375 64.921875 
z
" id="Inter-Regular-68"/>
     </defs>
     <use xlink:href="#Inter-Regular-83"/>
     <use x="63.778427" xlink:href="#Inter-Regular-52"/>
     <use x="127.982986" xlink:href="#Inter-Regular-68"/>
    </g>
   </g>
   <g id="text_18">
    <!-- Q4D -->
    <g transform="translate(145.001253 65.078079)scale(0.05 -0.05)">
     <defs>
      <path d="M 70.171875 36.359375 
C 70.171875 59.375 56.671875 73.71875 38.0625 73.71875 
C 19.46875 73.71875 5.96875 59.375 5.96875 36.359375 
C 5.96875 13.359375 19.46875 -1 38.0625 -1 
C 42.828125 -1 47.234375 -0.078125 51.171875 1.703125 
L 57.53125 -6.8125 
L 67.1875 -6.8125 
L 57.703125 5.78125 
C 65.453125 12.140625 70.171875 22.734375 70.171875 36.359375 
z
M 35.234375 22.734375 
L 45.984375 8.59375 
C 43.53125 7.703125 40.875 7.25 38.0625 7.25 
C 24.859375 7.25 14.484375 17.46875 14.484375 36.359375 
C 14.484375 55.25 24.859375 65.484375 38.0625 65.484375 
C 51.28125 65.484375 61.65625 55.25 61.65625 36.359375 
C 61.65625 25.390625 58.171875 17.359375 52.625 12.53125 
L 44.890625 22.734375 
z
" id="Inter-Regular-81"/>
     </defs>
     <use xlink:href="#Inter-Regular-81"/>
     <use x="76.136383" xlink:href="#Inter-Regular-52"/>
     <use x="140.340942" xlink:href="#Inter-Regular-68"/>
    </g>
   </g>
   <g id="text_19">
    <!-- S3D -->
    <g transform="translate(162.553554 39.683184)scale(0.05 -0.05)">
     <defs>
      <path d="M 32.109375 -1 
C 46.203125 -1 56.671875 7.84375 56.671875 19.75 
C 56.671875 28.984375 51.203125 35.6875 42.046875 37.21875 
L 42.046875 37.78125 
C 49.390625 40.015625 53.984375 46.0625 53.984375 54.265625 
C 53.984375 64.5625 45.84375 73.71875 32.390625 73.71875 
C 19.8125 73.71875 9.375 65.984375 8.953125 54.546875 
L 17.46875 54.546875 
C 17.796875 61.796875 24.6875 66.046875 32.25 66.046875 
C 40.265625 66.046875 45.453125 61.1875 45.453125 53.828125 
C 45.453125 46.171875 39.453125 41.1875 30.828125 41.1875 
L 25 41.1875 
L 25 33.375 
L 30.828125 33.375 
C 41.875 33.375 48.015625 27.765625 48.015625 19.75 
C 48.015625 12.03125 41.296875 6.8125 31.96875 6.8125 
C 23.546875 6.8125 16.875 11.15625 16.34375 18.1875 
L 7.390625 18.1875 
C 7.921875 6.75 18 -1 32.109375 -1 
z
" id="Inter-Regular-51"/>
     </defs>
     <use xlink:href="#Inter-Regular-83"/>
     <use x="63.778427" xlink:href="#Inter-Regular-51"/>
     <use x="127.41481" xlink:href="#Inter-Regular-68"/>
    </g>
   </g>
   <g id="text_20">
    <!-- Q3D -->
    <g transform="translate(175.014907 65.078079)scale(0.05 -0.05)">
     <use xlink:href="#Inter-Regular-81"/>
     <use x="76.136383" xlink:href="#Inter-Regular-51"/>
     <use x="139.772766" xlink:href="#Inter-Regular-68"/>
    </g>
   </g>
   <g id="text_21">
    <!-- B -->
    <g transform="translate(213.370123 39.683184)scale(0.05 -0.05)">
     <defs>
      <path d="M 8.8125 0 
L 35.09375 0 
C 52.28125 0 59.375 8.375 59.375 19.3125 
C 59.375 30.828125 51.421875 37.078125 44.75 37.5 
L 44.75 38.203125 
C 51 39.921875 56.53125 44.03125 56.53125 53.40625 
C 56.53125 64.0625 49.4375 72.734375 34.234375 72.734375 
L 8.8125 72.734375 
z
M 17.609375 40.765625 
L 17.609375 64.921875 
L 34.234375 64.921875 
C 43.890625 64.921875 48.15625 59.796875 48.15625 53.40625 
C 48.15625 45.734375 41.90625 40.765625 33.953125 40.765625 
z
M 17.609375 7.8125 
L 17.609375 33.09375 
L 35.515625 33.09375 
C 45.03125 33.09375 51 26.703125 51 19.3125 
C 51 12.921875 46.59375 7.8125 35.09375 7.8125 
z
" id="Inter-Regular-66"/>
     </defs>
     <use xlink:href="#Inter-Regular-66"/>
    </g>
   </g>
   <g id="text_22">
    <!-- Q2 -->
    <g transform="translate(245.378867 65.078079)scale(0.05 -0.05)">
     <use xlink:href="#Inter-Regular-81"/>
     <use x="76.136383" xlink:href="#Inter-Regular-50"/>
    </g>
   </g>
   <g id="text_23">
    <!-- S2 -->
    <g transform="translate(263.059791 39.683184)scale(0.05 -0.05)">
     <use xlink:href="#Inter-Regular-83"/>
     <use x="63.778427" xlink:href="#Inter-Regular-50"/>
    </g>
   </g>
   <g id="text_24">
    <!-- Q1 -->
    <g transform="translate(280.688336 65.078079)scale(0.05 -0.05)">
     <use xlink:href="#Inter-Regular-81"/>
     <use x="76.136383" xlink:href="#Inter-Regular-49"/>
    </g>
   </g>
   <g id="text_25">
    <!-- S1 -->
    <g transform="translate(294.909141 39.683184)scale(0.05 -0.05)">
     <use xlink:href="#Inter-Regular-83"/>
     <use x="63.778427" xlink:href="#Inter-Regular-49"/>
    </g>
   </g>
   <g id="text_26">
    <!-- Q1 -->
    <g transform="translate(308.511976 65.078079)scale(0.05 -0.05)">
     <use xlink:href="#Inter-Regular-81"/>
     <use x="76.136383" xlink:href="#Inter-Regular-49"/>
    </g>
   </g>
   <g id="text_27">
    <!-- S2 -->
    <g transform="translate(326.055365 39.683184)scale(0.05 -0.05)">
     <use xlink:href="#Inter-Regular-83"/>
     <use x="63.778427" xlink:href="#Inter-Regular-50"/>
    </g>
   </g>
   <g id="text_28">
    <!-- Q2 -->
    <g transform="translate(343.11832 65.078079)scale(0.05 -0.05)">
     <use xlink:href="#Inter-Regular-81"/>
     <use x="76.136383" xlink:href="#Inter-Regular-50"/>
    </g>
   </g>
   <g id="text_29">
    <!-- B -->
    <g transform="translate(378.706753 39.683184)scale(0.05 -0.05)">
     <use xlink:href="#Inter-Regular-66"/>
    </g>
   </g>
   <g id="text_30">
    <!-- Q3T -->
    <g transform="translate(409.924077 65.078079)scale(0.05 -0.05)">
     <defs>
      <path d="M 4.828125 64.921875 
L 27.703125 64.921875 
L 27.703125 0 
L 36.5 0 
L 36.5 64.921875 
L 59.375 64.921875 
L 59.375 72.734375 
L 4.828125 72.734375 
z
" id="Inter-Regular-84"/>
     </defs>
     <use xlink:href="#Inter-Regular-81"/>
     <use x="76.136383" xlink:href="#Inter-Regular-51"/>
     <use x="139.772766" xlink:href="#Inter-Regular-84"/>
    </g>
   </g>
   <g id="text_31">
    <!-- S3T -->
    <g transform="translate(423.003399 39.683184)scale(0.05 -0.05)">
     <use xlink:href="#Inter-Regular-83"/>
     <use x="63.778427" xlink:href="#Inter-Regular-51"/>
     <use x="127.41481" xlink:href="#Inter-Regular-84"/>
    </g>
   </g>
   <g id="text_32">
    <!-- Q4T -->
    <g transform="translate(439.909606 65.078079)scale(0.05 -0.05)">
     <use xlink:href="#Inter-Regular-81"/>
     <use x="76.136383" xlink:href="#Inter-Regular-52"/>
     <use x="140.340942" xlink:href="#Inter-Regular-84"/>
    </g>
   </g>
   <g id="text_33">
    <!-- S4T -->
    <g transform="translate(457.447845 39.683184)scale(0.05 -0.05)">
     <use xlink:href="#Inter-Regular-83"/>
     <use x="63.778427" xlink:href="#Inter-Regular-52"/>
     <use x="127.982986" xlink:href="#Inter-Regular-84"/>
    </g>
   </g>
   <g id="text_34">
    <!-- Q5T -->
    <g transform="translate(469.10257 65.078079)scale(0.05 -0.05)">
     <use xlink:href="#Inter-Regular-81"/>
     <use x="76.136383" xlink:href="#Inter-Regular-53"/>
     <use x="136.931854" xlink:href="#Inter-Regular-84"/>
    </g>
   </g>
  </g>
 </g>
 <defs>
  <clipPath id="p5d3cde5ff1">
   <rect height="266.6464" width="535.07" x="30.13" y="51.0736"/>
  </clipPath>
 </defs>
</svg>
