<?xml version="1.0" encoding="utf-8" standalone="no"?>
<!DOCTYPE svg PUBLIC "-//W3C//DTD SVG 1.1//EN"
  "http://www.w3.org/Graphics/SVG/1.1/DTD/svg11.dtd">
<!-- Created with matplotlib (https://matplotlib.org/) -->
<svg height="360pt" version="1.1" viewBox="0 0 576 360" width="576pt" xmlns="http://www.w3.org/2000/svg" xmlns:xlink="http://www.w3.org/1999/xlink">
 <metadata>
  <rdf:RDF xmlns:cc="http://creativecommons.org/ns#" xmlns:dc="http://purl.org/dc/elements/1.1/" xmlns:rdf="http://www.w3.org/1999/02/22-rdf-syntax-ns#">
   <cc:Work>
    <dc:type rdf:resource="http://purl.org/dc/dcmitype/StillImage"/>
    <dc:date>2020-12-03T08:58:35.349260</dc:date>
    <dc:format>image/svg+xml</dc:format>
    <dc:creator>
     <cc:Agent>
      <dc:title>Matplotlib v3.3.3, https://matplotlib.org/</dc:title>
     </cc:Agent>
    </dc:creator>
   </cc:Work>
  </rdf:RDF>
 </metadata>
 <defs>
  <style type="text/css">*{stroke-linecap:butt;stroke-linejoin:round;}</style>
 </defs>
 <g id="figure_1">
  <g id="patch_1">
   <path d="M 0 360 
L 576 360 
L 576 0 
L 0 0 
z
" style="fill:#ffffff;"/>
  </g>
  <g id="axes_1">
   <g id="patch_2">
    <path d="M 28.78 315.88 
L 565.2 315.88 
L 565.2 25.488 
L 28.78 25.488 
z
" style="fill:#ffffff;"/>
   </g>
   <g id="matplotlib.axis_1">
    <g id="xtick_1">
     <g id="line2d_1">
      <path clip-path="url(#pebdd0b5b9c)" d="M 53.162727 315.88 
L 53.162727 25.488 
" style="fill:none;stroke:#b0b0b0;stroke-dasharray:2.96,1.28;stroke-dashoffset:0;stroke-width:0.8;"/>
     </g>
     <g id="line2d_2">
      <defs>
       <path d="M 0 0 
L 0 3.5 
" id="m693c72ce39" style="stroke:#000000;stroke-width:0.8;"/>
      </defs>
      <g>
       <use style="stroke:#000000;stroke-width:0.8;" x="53.162727" xlink:href="#m693c72ce39" y="315.88"/>
      </g>
     </g>
     <g id="text_1">
      <!-- 0.00 -->
      <g transform="translate(42.409602 330.153437)scale(0.1 -0.1)">
       <defs>
        <path d="M 31.25 -1 
C 47.296875 -1 56.53125 12.609375 56.53125 36.359375 
C 56.53125 59.9375 47.15625 73.71875 31.25 73.71875 
C 15.34375 73.71875 5.96875 59.9375 5.96875 36.359375 
C 5.96875 12.609375 15.203125 -1 31.25 -1 
z
M 31.25 6.8125 
C 20.671875 6.8125 14.484375 17.4375 14.484375 36.359375 
C 14.484375 55.25 20.734375 66.046875 31.25 66.046875 
C 41.765625 66.046875 48.015625 55.25 48.015625 36.359375 
C 48.015625 17.4375 41.828125 6.8125 31.25 6.8125 
z
" id="Inter-Regular-48"/>
        <path d="M 13.78125 -0.5625 
C 17.296875 -0.5625 20.171875 2.3125 20.171875 5.828125 
C 20.171875 9.34375 17.296875 12.21875 13.78125 12.21875 
C 10.265625 12.21875 7.390625 9.34375 7.390625 5.828125 
C 7.390625 2.3125 10.265625 -0.5625 13.78125 -0.5625 
z
" id="Inter-Regular-46"/>
       </defs>
       <use xlink:href="#Inter-Regular-48"/>
       <use x="62.500015" xlink:href="#Inter-Regular-46"/>
       <use x="90.056839" xlink:href="#Inter-Regular-48"/>
       <use x="152.556854" xlink:href="#Inter-Regular-48"/>
      </g>
     </g>
    </g>
    <g id="xtick_2">
     <g id="line2d_3">
      <path clip-path="url(#pebdd0b5b9c)" d="M 227.151553 315.88 
L 227.151553 25.488 
" style="fill:none;stroke:#b0b0b0;stroke-dasharray:2.96,1.28;stroke-dashoffset:0;stroke-width:0.8;"/>
     </g>
     <g id="line2d_4">
      <g>
       <use style="stroke:#000000;stroke-width:0.8;" x="227.151553" xlink:href="#m693c72ce39" y="315.88"/>
      </g>
     </g>
     <g id="text_2">
      <!-- 5.73 -->
      <g transform="translate(216.696085 330.153437)scale(0.1 -0.1)">
       <defs>
        <path d="M 30.25 -1 
C 44.109375 -1 54.265625 9.234375 54.265625 23.15625 
C 54.265625 37.25 44.46875 47.578125 31.109375 47.578125 
C 26.203125 47.578125 21.453125 45.84375 18.46875 43.46875 
L 18.046875 43.46875 
L 20.59375 64.921875 
L 51 64.921875 
L 51 72.734375 
L 13.21875 72.734375 
L 8.8125 36.9375 
L 17.046875 35.9375 
C 20.0625 38.109375 25.21875 39.671875 29.6875 39.625 
C 38.953125 39.5625 45.734375 32.53125 45.734375 23.015625 
C 45.734375 13.671875 39.203125 6.8125 30.25 6.8125 
C 22.796875 6.8125 16.875 11.609375 16.1875 18.1875 
L 7.671875 18.1875 
C 8.203125 7.109375 17.75 -1 30.25 -1 
z
" id="Inter-Regular-53"/>
        <path d="M 9.796875 0 
L 19.03125 0 
L 51.421875 64.484375 
L 51.421875 72.734375 
L 4.828125 72.734375 
L 4.828125 64.921875 
L 42.328125 64.921875 
L 42.328125 64.34375 
z
" id="Inter-Regular-55"/>
        <path d="M 32.109375 -1 
C 46.203125 -1 56.671875 7.84375 56.671875 19.75 
C 56.671875 28.984375 51.203125 35.6875 42.046875 37.21875 
L 42.046875 37.78125 
C 49.390625 40.015625 53.984375 46.0625 53.984375 54.265625 
C 53.984375 64.5625 45.84375 73.71875 32.390625 73.71875 
C 19.8125 73.71875 9.375 65.984375 8.953125 54.546875 
L 17.46875 54.546875 
C 17.796875 61.796875 24.6875 66.046875 32.25 66.046875 
C 40.265625 66.046875 45.453125 61.1875 45.453125 53.828125 
C 45.453125 46.171875 39.453125 41.1875 30.828125 41.1875 
L 25 41.1875 
L 25 33.375 
L 30.828125 33.375 
C 41.875 33.375 48.015625 27.765625 48.015625 19.75 
C 48.015625 12.03125 41.296875 6.8125 31.96875 6.8125 
C 23.546875 6.8125 16.875 11.15625 16.34375 18.1875 
L 7.390625 18.1875 
C 7.921875 6.75 18 -1 32.109375 -1 
z
" id="Inter-Regular-51"/>
       </defs>
       <use xlink:href="#Inter-Regular-53"/>
       <use x="60.795471" xlink:href="#Inter-Regular-46"/>
       <use x="88.352295" xlink:href="#Inter-Regular-55"/>
       <use x="145.454575" xlink:href="#Inter-Regular-51"/>
      </g>
     </g>
    </g>
    <g id="xtick_3">
     <g id="line2d_5">
      <path clip-path="url(#pebdd0b5b9c)" d="M 262.070777 315.88 
L 262.070777 25.488 
" style="fill:none;stroke:#b0b0b0;stroke-dasharray:2.96,1.28;stroke-dashoffset:0;stroke-width:0.8;"/>
     </g>
     <g id="line2d_6">
      <g>
       <use style="stroke:#000000;stroke-width:0.8;" x="262.070777" xlink:href="#m693c72ce39" y="315.88"/>
      </g>
     </g>
     <g id="text_3">
      <!-- 6.88 -->
      <g transform="translate(251.409058 330.153437)scale(0.1 -0.1)">
       <defs>
        <path d="M 31.671875 -1 
C 46.375 -1.171875 55.96875 9.90625 55.96875 23.4375 
C 55.96875 37.5 45.5625 47.578125 33.09375 47.578125 
C 25.609375 47.578125 19.171875 43.921875 15.203125 37.921875 
L 14.625 37.921875 
C 14.671875 55.78125 21.5625 66.046875 32.8125 66.046875 
C 40.484375 66.046875 45.09375 61.21875 46.734375 54.546875 
L 55.40625 54.546875 
C 53.625 65.984375 45.03125 73.859375 32.8125 73.859375 
C 16.4375 73.859375 6.390625 59.375 6.390625 33.515625 
C 6.390625 6.640625 19.75 -0.859375 31.671875 -1 
z
M 31.671875 6.8125 
C 22.546875 6.8125 15.875 14.59375 15.90625 23.296875 
C 15.953125 32 22.9375 39.765625 31.96875 39.765625 
C 40.875 39.765625 47.4375 32.453125 47.4375 23.4375 
C 47.4375 14.203125 40.59375 6.8125 31.671875 6.8125 
z
" id="Inter-Regular-54"/>
        <path d="M 30.828125 -1 
C 45.34375 -1 55.46875 7.5 55.546875 19.3125 
C 55.46875 28.515625 49.328125 36.328125 41.484375 37.78125 
L 41.484375 38.203125 
C 48.296875 39.984375 52.765625 46.65625 52.84375 54.40625 
C 52.765625 65.484375 43.46875 73.71875 30.828125 73.71875 
C 18.046875 73.71875 8.734375 65.484375 8.8125 54.40625 
C 8.734375 46.65625 13.21875 39.984375 20.171875 38.203125 
L 20.171875 37.78125 
C 12.1875 36.328125 6.03125 28.515625 6.109375 19.3125 
C 6.03125 7.5 16.15625 -1 30.828125 -1 
z
M 30.828125 41.328125 
C 22.875 41.328125 17.265625 46.3125 17.328125 53.828125 
C 17.265625 61.21875 22.65625 66.046875 30.828125 66.046875 
C 38.84375 66.046875 44.25 61.21875 44.3125 53.828125 
C 44.25 46.3125 38.640625 41.328125 30.828125 41.328125 
z
M 30.828125 6.8125 
C 20.84375 6.8125 14.703125 11.9375 14.78125 19.75 
C 14.703125 27.953125 21.484375 33.8125 30.828125 33.8125 
C 40.015625 33.8125 46.8125 27.953125 46.875 19.75 
C 46.8125 11.9375 40.65625 6.8125 30.828125 6.8125 
z
" id="Inter-Regular-56"/>
       </defs>
       <use xlink:href="#Inter-Regular-54"/>
       <use x="62.357971" xlink:href="#Inter-Regular-46"/>
       <use x="89.914795" xlink:href="#Inter-Regular-56"/>
       <use x="151.562531" xlink:href="#Inter-Regular-56"/>
      </g>
     </g>
    </g>
    <g id="xtick_4">
     <g id="line2d_7">
      <path clip-path="url(#pebdd0b5b9c)" d="M 331.909223 315.88 
L 331.909223 25.488 
" style="fill:none;stroke:#b0b0b0;stroke-dasharray:2.96,1.28;stroke-dashoffset:0;stroke-width:0.8;"/>
     </g>
     <g id="line2d_8">
      <g>
       <use style="stroke:#000000;stroke-width:0.8;" x="331.909223" xlink:href="#m693c72ce39" y="315.88"/>
      </g>
     </g>
     <g id="text_4">
      <!-- 9.18 -->
      <g transform="translate(322.007661 330.153437)scale(0.1 -0.1)">
       <defs>
        <path d="M 30.6875 73.859375 
C 15.90625 74 6.390625 62.921875 6.390625 49.4375 
C 6.390625 35.375 16.765625 25.28125 29.265625 25.28125 
C 36.796875 25.28125 43.1875 28.984375 47.15625 34.9375 
L 47.734375 34.9375 
C 47.734375 17.046875 40.765625 6.8125 29.546875 6.8125 
C 21.875 6.8125 17.1875 11.640625 15.625 18.328125 
L 6.96875 18.328125 
C 8.671875 6.8125 17.328125 -1 29.546875 -1 
C 45.875 -1 55.96875 13.5 55.96875 39.34375 
C 55.96875 66.1875 42.609375 73.71875 30.6875 73.859375 
z
M 30.6875 66.046875 
C 39.78125 66.046875 46.453125 58.234375 46.453125 49.578125 
C 46.453125 40.90625 39.34375 33.09375 30.40625 33.09375 
C 21.453125 33.09375 14.921875 40.34375 14.921875 49.4375 
C 14.921875 58.671875 21.734375 66.046875 30.6875 66.046875 
z
" id="Inter-Regular-57"/>
        <path d="M 33.09375 72.734375 
L 24.296875 72.734375 
L 6.109375 60.65625 
L 6.109375 51.703125 
L 23.859375 63.5 
L 24.296875 63.5 
L 24.296875 0 
L 33.09375 0 
z
" id="Inter-Regular-49"/>
       </defs>
       <use xlink:href="#Inter-Regular-57"/>
       <use x="62.357971" xlink:href="#Inter-Regular-46"/>
       <use x="89.914795" xlink:href="#Inter-Regular-49"/>
       <use x="136.363663" xlink:href="#Inter-Regular-56"/>
      </g>
     </g>
    </g>
    <g id="xtick_5">
     <g id="line2d_9">
      <path clip-path="url(#pebdd0b5b9c)" d="M 366.828447 315.88 
L 366.828447 25.488 
" style="fill:none;stroke:#b0b0b0;stroke-dasharray:2.96,1.28;stroke-dashoffset:0;stroke-width:0.8;"/>
     </g>
     <g id="line2d_10">
      <g>
       <use style="stroke:#000000;stroke-width:0.8;" x="366.828447" xlink:href="#m693c72ce39" y="315.88"/>
      </g>
     </g>
     <g id="text_5">
      <!-- 10.33 -->
      <g transform="translate(353.638603 330.153437)scale(0.1 -0.1)">
       <use xlink:href="#Inter-Regular-49"/>
       <use x="46.448868" xlink:href="#Inter-Regular-48"/>
       <use x="108.948883" xlink:href="#Inter-Regular-46"/>
       <use x="136.505707" xlink:href="#Inter-Regular-51"/>
       <use x="200.14209" xlink:href="#Inter-Regular-51"/>
      </g>
     </g>
    </g>
    <g id="xtick_6">
     <g id="line2d_11">
      <path clip-path="url(#pebdd0b5b9c)" d="M 540.817273 315.88 
L 540.817273 25.488 
" style="fill:none;stroke:#b0b0b0;stroke-dasharray:2.96,1.28;stroke-dashoffset:0;stroke-width:0.8;"/>
     </g>
     <g id="line2d_12">
      <g>
       <use style="stroke:#000000;stroke-width:0.8;" x="540.817273" xlink:href="#m693c72ce39" y="315.88"/>
      </g>
     </g>
     <g id="text_6">
      <!-- 16.06 -->
      <g transform="translate(527.755554 330.153437)scale(0.1 -0.1)">
       <use xlink:href="#Inter-Regular-49"/>
       <use x="46.448868" xlink:href="#Inter-Regular-54"/>
       <use x="108.806839" xlink:href="#Inter-Regular-46"/>
       <use x="136.363663" xlink:href="#Inter-Regular-48"/>
       <use x="198.863678" xlink:href="#Inter-Regular-54"/>
      </g>
     </g>
    </g>
    <g id="text_7">
     <!-- Orbit Position $s$ / m -->
     <g transform="translate(251.94 343.472188)scale(0.1 -0.1)">
      <defs>
       <path d="M 70.171875 36.359375 
C 70.171875 59.375 56.671875 73.71875 38.0625 73.71875 
C 19.46875 73.71875 5.96875 59.375 5.96875 36.359375 
C 5.96875 13.359375 19.46875 -1 38.0625 -1 
C 56.671875 -1 70.171875 13.359375 70.171875 36.359375 
z
M 61.65625 36.359375 
C 61.65625 17.46875 51.28125 7.25 38.0625 7.25 
C 24.859375 7.25 14.484375 17.46875 14.484375 36.359375 
C 14.484375 55.25 24.859375 65.484375 38.0625 65.484375 
C 51.28125 65.484375 61.65625 55.25 61.65625 36.359375 
z
" id="Inter-Regular-79"/>
       <path d="M 7.671875 0 
L 16.046875 0 
L 16.046875 34.515625 
C 16.046875 41.90625 21.875 47.296875 29.828125 47.296875 
C 32.0625 47.296875 34.375 46.875 34.9375 46.734375 
L 34.9375 55.25 
C 33.984375 55.328125 31.78125 55.390625 30.546875 55.390625 
C 24 55.390625 18.328125 51.703125 16.34375 46.3125 
L 15.765625 46.3125 
L 15.765625 54.546875 
L 7.671875 54.546875 
z
" id="Inter-Regular-114"/>
       <path d="M 8.8125 0 
L 16.90625 0 
L 16.90625 8.375 
L 17.90625 8.375 
C 19.75 5.390625 23.296875 -1.140625 33.8125 -1.140625 
C 47.4375 -1.140625 56.96875 9.796875 56.96875 27.125 
C 56.96875 44.3125 47.4375 55.25 33.671875 55.25 
C 23.015625 55.25 19.75 48.71875 17.90625 45.875 
L 17.1875 45.875 
L 17.1875 72.734375 
L 8.8125 72.734375 
z
M 17.046875 27.265625 
C 17.046875 39.484375 22.4375 47.734375 32.671875 47.734375 
C 43.328125 47.734375 48.578125 38.78125 48.578125 27.265625 
C 48.578125 15.625 43.1875 6.390625 32.671875 6.390625 
C 22.59375 6.390625 17.046875 14.921875 17.046875 27.265625 
z
" id="Inter-Regular-98"/>
       <path d="M 11.9375 63.640625 
C 15.203125 63.640625 17.90625 66.1875 17.90625 69.3125 
C 17.90625 72.4375 15.203125 75 11.9375 75 
C 8.671875 75 5.96875 72.4375 5.96875 69.3125 
C 5.96875 66.1875 8.671875 63.640625 11.9375 63.640625 
z
M 7.671875 0 
L 16.046875 0 
L 16.046875 54.546875 
L 7.671875 54.546875 
z
" id="Inter-Regular-105"/>
       <path d="M 31.390625 54.546875 
L 19.75 54.546875 
L 19.75 67.609375 
L 11.359375 67.609375 
L 11.359375 54.546875 
L 3.125 54.546875 
L 3.125 47.4375 
L 11.359375 47.4375 
L 11.359375 13.359375 
C 11.359375 3.828125 19.03125 -0.703125 26.140625 -0.703125 
C 29.265625 -0.703125 31.25 -0.140625 32.390625 0.28125 
L 30.6875 7.8125 
C 29.96875 7.671875 28.84375 7.390625 26.984375 7.390625 
C 23.296875 7.390625 19.75 8.515625 19.75 15.625 
L 19.75 47.4375 
L 31.390625 47.4375 
z
" id="Inter-Regular-116"/>
       <path id="Inter-Regular-32"/>
       <path d="M 8.8125 0 
L 17.609375 0 
L 17.609375 26.5625 
L 33.53125 26.5625 
C 50.46875 26.5625 58.09375 36.859375 58.09375 49.71875 
C 58.09375 62.578125 50.46875 72.734375 33.375 72.734375 
L 8.8125 72.734375 
z
M 33.09375 64.921875 
C 44.921875 64.921875 49.4375 58.453125 49.4375 49.71875 
C 49.4375 40.984375 44.921875 34.375 33.234375 34.375 
L 17.609375 34.375 
L 17.609375 64.921875 
z
" id="Inter-Regular-80"/>
       <path d="M 29.828125 -1.140625 
C 44.609375 -1.140625 54.546875 10.078125 54.546875 26.984375 
C 54.546875 44.03125 44.609375 55.25 29.828125 55.25 
C 15.0625 55.25 5.109375 44.03125 5.109375 26.984375 
C 5.109375 10.078125 15.0625 -1.140625 29.828125 -1.140625 
z
M 29.828125 6.390625 
C 18.609375 6.390625 13.5 16.046875 13.5 26.984375 
C 13.5 37.921875 18.609375 47.734375 29.828125 47.734375 
C 41.046875 47.734375 46.171875 37.921875 46.171875 26.984375 
C 46.171875 16.046875 41.046875 6.390625 29.828125 6.390625 
z
" id="Inter-Regular-111"/>
       <path d="M 46.3125 42.328125 
C 43.6875 50.078125 37.78125 55.25 26.984375 55.25 
C 15.484375 55.25 6.96875 48.71875 6.96875 39.484375 
C 6.96875 31.953125 11.4375 26.921875 21.453125 24.578125 
L 30.546875 22.4375 
C 36.046875 21.171875 38.640625 18.53125 38.640625 14.765625 
C 38.640625 10.078125 33.671875 6.25 25.859375 6.25 
C 19 6.25 14.703125 9.203125 13.21875 15.0625 
L 5.25 13.0625 
C 7.203125 3.796875 14.84375 -1.140625 26 -1.140625 
C 38.671875 -1.140625 47.296875 5.78125 47.296875 15.203125 
C 47.296875 22.796875 42.546875 27.59375 32.8125 29.96875 
L 24.71875 31.953125 
C 18.25 33.5625 15.34375 35.71875 15.34375 39.921875 
C 15.34375 44.609375 20.3125 48.015625 26.984375 48.015625 
C 34.3125 48.015625 37.328125 43.96875 38.78125 40.203125 
z
" id="Inter-Regular-115"/>
       <path d="M 16.046875 32.8125 
C 16.046875 42.328125 21.953125 47.734375 29.96875 47.734375 
C 37.75 47.734375 42.46875 42.65625 42.46875 34.09375 
L 42.46875 0 
L 50.859375 0 
L 50.859375 34.65625 
C 50.859375 48.578125 43.4375 55.25 32.390625 55.25 
C 24.15625 55.25 19.03125 51.5625 16.484375 46.015625 
L 15.765625 46.015625 
L 15.765625 54.546875 
L 7.671875 54.546875 
L 7.671875 0 
L 16.046875 0 
z
" id="Inter-Regular-110"/>
       <path d="M 50 53.078125 
L 48.296875 44.578125 
Q 44.734375 46.53125 40.765625 47.5 
Q 36.8125 48.484375 32.625 48.484375 
Q 25.53125 48.484375 21.453125 46.0625 
Q 17.390625 43.65625 17.390625 39.5 
Q 17.390625 34.671875 26.859375 32.078125 
Q 27.59375 31.890625 27.9375 31.78125 
L 30.8125 30.90625 
Q 39.796875 28.421875 42.796875 25.6875 
Q 45.796875 22.953125 45.796875 18.21875 
Q 45.796875 9.515625 38.890625 4.046875 
Q 31.984375 -1.421875 20.796875 -1.421875 
Q 16.453125 -1.421875 11.671875 -0.578125 
Q 6.890625 0.25 1.125 2 
L 2.875 11.28125 
Q 7.8125 8.734375 12.59375 7.421875 
Q 17.390625 6.109375 21.78125 6.109375 
Q 28.375 6.109375 32.5 8.9375 
Q 36.625 11.765625 36.625 16.109375 
Q 36.625 20.796875 25.78125 23.6875 
L 24.859375 23.921875 
L 21.78125 24.703125 
Q 14.9375 26.515625 11.765625 29.46875 
Q 8.59375 32.421875 8.59375 37.015625 
Q 8.59375 45.75 15.15625 50.875 
Q 21.734375 56 33.015625 56 
Q 37.453125 56 41.671875 55.265625 
Q 45.90625 54.546875 50 53.078125 
z
" id="DejaVuSans-Oblique-115"/>
       <path d="M 33.375 76.140625 
L 25.71875 76.140625 
L 2.28125 -10.9375 
L 9.9375 -10.9375 
z
" id="Inter-Regular-47"/>
       <path d="M 7.671875 0 
L 16.046875 0 
L 16.046875 34.09375 
C 16.046875 42.078125 21.875 47.734375 28.40625 47.734375 
C 34.765625 47.734375 39.203125 43.578125 39.203125 37.359375 
L 39.203125 0 
L 47.734375 0 
L 47.734375 35.515625 
C 47.734375 42.546875 52.125 47.734375 59.796875 47.734375 
C 65.765625 47.734375 70.875 44.5625 70.875 36.5 
L 70.875 0 
L 79.265625 0 
L 79.265625 36.5 
C 79.265625 49.328125 72.375 55.25 62.640625 55.25 
C 54.828125 55.25 49.109375 51.671875 46.3125 46.015625 
L 45.734375 46.015625 
C 43.046875 51.84375 38.28125 55.25 31.109375 55.25 
C 24 55.25 18.75 51.84375 16.484375 46.015625 
L 15.765625 46.015625 
L 15.765625 54.546875 
L 7.671875 54.546875 
z
" id="Inter-Regular-109"/>
      </defs>
      <use transform="translate(0 0.859375)" xlink:href="#Inter-Regular-79"/>
      <use transform="translate(76.136383 0.859375)" xlink:href="#Inter-Regular-114"/>
      <use transform="translate(113.352295 0.859375)" xlink:href="#Inter-Regular-98"/>
      <use transform="translate(175.426178 0.859375)" xlink:href="#Inter-Regular-105"/>
      <use transform="translate(199.147766 0.859375)" xlink:href="#Inter-Regular-116"/>
      <use transform="translate(235.511414 0.859375)" xlink:href="#Inter-Regular-32"/>
      <use transform="translate(263.636414 0.859375)" xlink:href="#Inter-Regular-80"/>
      <use transform="translate(327.130737 0.859375)" xlink:href="#Inter-Regular-111"/>
      <use transform="translate(386.789841 0.859375)" xlink:href="#Inter-Regular-115"/>
      <use transform="translate(439.062576 0.859375)" xlink:href="#Inter-Regular-105"/>
      <use transform="translate(462.784164 0.859375)" xlink:href="#Inter-Regular-116"/>
      <use transform="translate(499.147812 0.859375)" xlink:href="#Inter-Regular-105"/>
      <use transform="translate(522.8694 0.859375)" xlink:href="#Inter-Regular-111"/>
      <use transform="translate(582.528503 0.859375)" xlink:href="#Inter-Regular-110"/>
      <use transform="translate(641.051239 0.859375)" xlink:href="#Inter-Regular-32"/>
      <use transform="translate(669.176239 0.859375)" xlink:href="#DejaVuSans-Oblique-115"/>
      <use transform="translate(721.275848 0.859375)" xlink:href="#Inter-Regular-32"/>
      <use transform="translate(749.400848 0.859375)" xlink:href="#Inter-Regular-47"/>
      <use transform="translate(785.05426 0.859375)" xlink:href="#Inter-Regular-32"/>
      <use transform="translate(813.17926 0.859375)" xlink:href="#Inter-Regular-109"/>
     </g>
    </g>
   </g>
   <g id="matplotlib.axis_2">
    <g id="ytick_1">
     <g id="line2d_13">
      <path clip-path="url(#pebdd0b5b9c)" d="M 28.78 302.304008 
L 565.2 302.304008 
" style="fill:none;stroke:#b0b0b0;stroke-dasharray:2.96,1.28;stroke-dashoffset:0;stroke-width:0.8;"/>
     </g>
     <g id="line2d_14">
      <defs>
       <path d="M 0 0 
L -3.5 0 
" id="mff886cc271" style="stroke:#000000;stroke-width:0.8;"/>
      </defs>
      <g>
       <use style="stroke:#000000;stroke-width:0.8;" x="28.78" xlink:href="#mff886cc271" y="302.304008"/>
      </g>
     </g>
     <g id="text_8">
      <!-- 0 -->
      <g transform="translate(15.53 305.940726)scale(0.1 -0.1)">
       <use xlink:href="#Inter-Regular-48"/>
      </g>
     </g>
    </g>
    <g id="ytick_2">
     <g id="line2d_15">
      <path clip-path="url(#pebdd0b5b9c)" d="M 28.78 269.536002 
L 565.2 269.536002 
" style="fill:none;stroke:#b0b0b0;stroke-dasharray:2.96,1.28;stroke-dashoffset:0;stroke-width:0.8;"/>
     </g>
     <g id="line2d_16">
      <g>
       <use style="stroke:#000000;stroke-width:0.8;" x="28.78" xlink:href="#mff886cc271" y="269.536002"/>
      </g>
     </g>
     <g id="text_9">
      <!-- 2 -->
      <g transform="translate(15.728438 273.172721)scale(0.1 -0.1)">
       <defs>
        <path d="M 7.53125 0 
L 53.40625 0 
L 53.40625 7.8125 
L 19.609375 7.8125 
L 19.609375 8.375 
L 35.9375 25.859375 
C 48.4375 39.234375 52.125 45.484375 52.125 53.546875 
C 52.125 64.765625 43.046875 73.71875 30.25 73.71875 
C 17.515625 73.71875 7.8125 65.0625 7.8125 52.265625 
L 16.1875 52.265625 
C 16.1875 60.546875 21.5625 66.046875 29.96875 66.046875 
C 37.859375 66.046875 43.890625 61.21875 43.890625 53.546875 
C 43.890625 46.84375 39.953125 41.875 31.53125 32.671875 
L 7.53125 6.390625 
z
" id="Inter-Regular-50"/>
       </defs>
       <use xlink:href="#Inter-Regular-50"/>
      </g>
     </g>
    </g>
    <g id="ytick_3">
     <g id="line2d_17">
      <path clip-path="url(#pebdd0b5b9c)" d="M 28.78 236.767997 
L 565.2 236.767997 
" style="fill:none;stroke:#b0b0b0;stroke-dasharray:2.96,1.28;stroke-dashoffset:0;stroke-width:0.8;"/>
     </g>
     <g id="line2d_18">
      <g>
       <use style="stroke:#000000;stroke-width:0.8;" x="28.78" xlink:href="#mff886cc271" y="236.767997"/>
      </g>
     </g>
     <g id="text_10">
      <!-- 4 -->
      <g transform="translate(15.359688 240.404716)scale(0.1 -0.1)">
       <defs>
        <path d="M 5.828125 14.921875 
L 40.0625 14.921875 
L 40.0625 0 
L 48.4375 0 
L 48.4375 14.921875 
L 58.375 14.921875 
L 58.375 22.734375 
L 48.4375 22.734375 
L 48.4375 72.734375 
L 37.78125 72.734375 
L 5.828125 22.15625 
z
M 15.34375 22.734375 
L 15.34375 23.296875 
L 39.484375 61.5 
L 40.0625 61.5 
L 40.0625 22.734375 
z
" id="Inter-Regular-52"/>
       </defs>
       <use xlink:href="#Inter-Regular-52"/>
      </g>
     </g>
    </g>
    <g id="ytick_4">
     <g id="line2d_19">
      <path clip-path="url(#pebdd0b5b9c)" d="M 28.78 203.999992 
L 565.2 203.999992 
" style="fill:none;stroke:#b0b0b0;stroke-dasharray:2.96,1.28;stroke-dashoffset:0;stroke-width:0.8;"/>
     </g>
     <g id="line2d_20">
      <g>
       <use style="stroke:#000000;stroke-width:0.8;" x="28.78" xlink:href="#mff886cc271" y="203.999992"/>
      </g>
     </g>
     <g id="text_11">
      <!-- 6 -->
      <g transform="translate(15.544063 207.636711)scale(0.1 -0.1)">
       <use xlink:href="#Inter-Regular-54"/>
      </g>
     </g>
    </g>
    <g id="ytick_5">
     <g id="line2d_21">
      <path clip-path="url(#pebdd0b5b9c)" d="M 28.78 171.231986 
L 565.2 171.231986 
" style="fill:none;stroke:#b0b0b0;stroke-dasharray:2.96,1.28;stroke-dashoffset:0;stroke-width:0.8;"/>
     </g>
     <g id="line2d_22">
      <g>
       <use style="stroke:#000000;stroke-width:0.8;" x="28.78" xlink:href="#mff886cc271" y="171.231986"/>
      </g>
     </g>
     <g id="text_12">
      <!-- 8 -->
      <g transform="translate(15.614375 174.868705)scale(0.1 -0.1)">
       <use xlink:href="#Inter-Regular-56"/>
      </g>
     </g>
    </g>
    <g id="ytick_6">
     <g id="line2d_23">
      <path clip-path="url(#pebdd0b5b9c)" d="M 28.78 138.463981 
L 565.2 138.463981 
" style="fill:none;stroke:#b0b0b0;stroke-dasharray:2.96,1.28;stroke-dashoffset:0;stroke-width:0.8;"/>
     </g>
     <g id="line2d_24">
      <g>
       <use style="stroke:#000000;stroke-width:0.8;" x="28.78" xlink:href="#mff886cc271" y="138.463981"/>
      </g>
     </g>
     <g id="text_13">
      <!-- 10 -->
      <g transform="translate(10.884688 142.1007)scale(0.1 -0.1)">
       <use xlink:href="#Inter-Regular-49"/>
       <use x="46.448868" xlink:href="#Inter-Regular-48"/>
      </g>
     </g>
    </g>
    <g id="ytick_7">
     <g id="line2d_25">
      <path clip-path="url(#pebdd0b5b9c)" d="M 28.78 105.695976 
L 565.2 105.695976 
" style="fill:none;stroke:#b0b0b0;stroke-dasharray:2.96,1.28;stroke-dashoffset:0;stroke-width:0.8;"/>
     </g>
     <g id="line2d_26">
      <g>
       <use style="stroke:#000000;stroke-width:0.8;" x="28.78" xlink:href="#mff886cc271" y="105.695976"/>
      </g>
     </g>
     <g id="text_14">
      <!-- 12 -->
      <g transform="translate(11.083125 109.332695)scale(0.1 -0.1)">
       <use xlink:href="#Inter-Regular-49"/>
       <use x="46.448868" xlink:href="#Inter-Regular-50"/>
      </g>
     </g>
    </g>
    <g id="ytick_8">
     <g id="line2d_27">
      <path clip-path="url(#pebdd0b5b9c)" d="M 28.78 72.927971 
L 565.2 72.927971 
" style="fill:none;stroke:#b0b0b0;stroke-dasharray:2.96,1.28;stroke-dashoffset:0;stroke-width:0.8;"/>
     </g>
     <g id="line2d_28">
      <g>
       <use style="stroke:#000000;stroke-width:0.8;" x="28.78" xlink:href="#mff886cc271" y="72.927971"/>
      </g>
     </g>
     <g id="text_15">
      <!-- 14 -->
      <g transform="translate(10.714375 76.564689)scale(0.1 -0.1)">
       <use xlink:href="#Inter-Regular-49"/>
       <use x="46.448868" xlink:href="#Inter-Regular-52"/>
      </g>
     </g>
    </g>
    <g id="ytick_9">
     <g id="line2d_29">
      <path clip-path="url(#pebdd0b5b9c)" d="M 28.78 40.159965 
L 565.2 40.159965 
" style="fill:none;stroke:#b0b0b0;stroke-dasharray:2.96,1.28;stroke-dashoffset:0;stroke-width:0.8;"/>
     </g>
     <g id="line2d_30">
      <g>
       <use style="stroke:#000000;stroke-width:0.8;" x="28.78" xlink:href="#mff886cc271" y="40.159965"/>
      </g>
     </g>
     <g id="text_16">
      <!-- 16 -->
      <g transform="translate(10.89875 43.796684)scale(0.1 -0.1)">
       <use xlink:href="#Inter-Regular-49"/>
       <use x="46.448868" xlink:href="#Inter-Regular-54"/>
      </g>
     </g>
    </g>
   </g>
   <g id="patch_3">
    <path d="M 28.78 315.88 
L 28.78 25.488 
" style="fill:none;stroke:#000000;stroke-linecap:square;stroke-linejoin:miter;stroke-width:0.8;"/>
   </g>
   <g id="patch_4">
    <path d="M 565.2 315.88 
L 565.2 25.488 
" style="fill:none;stroke:#000000;stroke-linecap:square;stroke-linejoin:miter;stroke-width:0.8;"/>
   </g>
   <g id="patch_5">
    <path d="M 28.78 315.88 
L 565.2 315.88 
" style="fill:none;stroke:#000000;stroke-linecap:square;stroke-linejoin:miter;stroke-width:0.8;"/>
   </g>
   <g id="patch_6">
    <path d="M 28.78 25.488 
L 565.2 25.488 
" style="fill:none;stroke:#000000;stroke-linecap:square;stroke-linejoin:miter;stroke-width:0.8;"/>
   </g>
   <g id="line2d_31">
    <path clip-path="url(#pebdd0b5b9c)" d="M 53.162727 302.478824 
L 153.669361 302.488024 
L 162.475079 302.27466 
L 163.386015 301.939704 
L 164.296951 301.331178 
L 165.207887 300.449101 
L 166.118824 299.293499 
L 167.333405 297.327278 
L 168.547987 294.874965 
L 172.495378 285.696331 
L 174.013605 281.741515 
L 175.531832 277.2042 
L 183.426613 251.143292 
L 185.248485 245.415722 
L 186.159421 243.294573 
L 187.070358 241.793426 
L 187.677649 241.145169 
L 188.284939 240.782644 
L 188.89223 240.707545 
L 190.106812 241.097021 
L 198.912529 244.275183 
L 202.556274 246.28099 
L 203.163565 246.864819 
L 203.770856 247.699931 
L 204.681792 249.415164 
L 205.592728 251.669519 
L 209.236473 262.390893 
L 215.916673 281.776159 
L 217.738545 286.057233 
L 221.38229 294.052231 
L 222.596872 296.083938 
L 223.811454 297.640548 
L 224.72239 298.496172 
L 225.633326 299.084482 
L 226.544262 299.405461 
L 227.455199 299.458884 
L 228.366135 299.244536 
L 229.277071 298.762851 
L 230.188007 298.013844 
L 231.098944 296.997537 
L 232.313525 295.226715 
L 233.528107 292.980841 
L 235.653625 288.274756 
L 238.690079 281.206398 
L 240.208306 276.969889 
L 249.25694 250.704293 
L 250.107147 248.879913 
L 250.957354 247.51811 
L 251.807561 246.630677 
L 252.374366 246.30656 
L 253.568705 246.050833 
L 256.908804 245.504868 
L 262.981713 245.50841 
L 268.143685 245.61009 
L 271.767187 246.336388 
L 272.333992 246.662135 
L 272.900797 247.202093 
L 273.751004 248.408904 
L 274.601211 250.082372 
L 275.451418 252.208005 
L 279.682211 264.572073 
L 285.755119 282.035041 
L 287.576992 286.289307 
L 291.220737 294.235054 
L 292.435319 296.250331 
L 293.6499 297.790502 
L 294.560837 298.633793 
L 295.471773 299.209765 
L 296.382709 299.518401 
L 297.293645 299.559487 
L 298.204582 299.332814 
L 299.115518 298.838802 
L 300.026454 298.077466 
L 300.93739 297.048828 
L 302.151972 295.261562 
L 303.366554 292.999242 
L 305.492072 288.26438 
L 308.528526 281.154387 
L 310.046753 276.895391 
L 319.095387 250.493272 
L 319.945594 248.658688 
L 320.795801 247.288598 
L 321.646008 246.394865 
L 322.212813 246.067679 
L 323.407152 245.807308 
L 326.747251 245.248678 
L 332.82016 245.229192 
L 337.982132 245.311298 
L 341.605634 246.024007 
L 342.172439 246.348808 
L 342.739243 246.889026 
L 343.589451 248.098485 
L 344.439658 249.777288 
L 345.289865 251.9109 
L 349.520658 264.325238 
L 355.593566 281.857974 
L 357.415439 286.124732 
L 361.059184 294.092431 
L 362.273765 296.115036 
L 363.488347 297.662541 
L 364.399283 298.511337 
L 365.31022 299.092818 
L 366.221156 299.406967 
L 367.132092 299.45356 
L 368.043028 299.232382 
L 368.953965 298.743867 
L 369.864901 297.988031 
L 370.775837 296.964896 
L 371.990419 295.184971 
L 373.205001 292.929996 
L 375.330519 288.207968 
L 378.366973 281.115683 
L 379.8852 276.864174 
L 388.994562 250.365382 
L 389.905499 248.476181 
L 390.816435 247.135673 
L 391.423726 246.553813 
L 392.941953 245.69906 
L 395.978407 244.146643 
L 402.354961 241.91498 
L 405.08777 240.996833 
L 405.695061 241.071313 
L 406.302351 241.43187 
L 406.909642 242.07682 
L 407.516933 243.00315 
L 408.427869 244.910409 
L 409.338806 247.420693 
L 412.982551 259.365916 
L 419.66275 280.979277 
L 421.484622 285.767496 
L 425.128367 294.214789 
L 426.342949 296.77455 
L 427.557531 298.848249 
L 428.772113 300.435773 
L 429.683049 301.307309 
L 430.593985 301.905294 
L 431.504921 302.229711 
L 432.415858 302.295747 
L 468.549663 302.393094 
L 540.817273 302.478824 
L 540.817273 302.478824 
" style="fill:none;stroke:#3cb371;stroke-linecap:square;stroke-width:1.3;"/>
   </g>
   <g id="line2d_32">
    <path clip-path="url(#pebdd0b5b9c)" d="M 53.162727 277.295953 
L 56.199181 277.151142 
L 59.235636 276.791625 
L 62.27209 276.2174 
L 65.308544 275.428467 
L 68.344998 274.424828 
L 71.685098 273.072837 
L 75.025198 271.461051 
L 78.365297 269.589469 
L 81.705397 267.458091 
L 85.045496 265.066917 
L 88.385596 262.415947 
L 92.029341 259.227684 
L 95.673086 255.730242 
L 99.316831 251.923622 
L 102.960576 247.807823 
L 106.907967 243.000142 
L 110.855357 237.829605 
L 114.802748 232.296213 
L 119.053784 225.931379 
L 123.304819 219.145718 
L 127.555855 211.939231 
L 129.377728 208.825187 
L 129.681373 208.59242 
L 129.985019 208.566228 
L 130.288664 208.746726 
L 130.59231 209.133116 
L 131.1996 210.515834 
L 131.806891 212.689947 
L 134.843345 224.994279 
L 137.8798 236.325888 
L 140.308963 244.690815 
L 140.916254 246.421678 
L 141.523545 247.607263 
L 142.130836 248.269739 
L 142.434481 248.409058 
L 142.738126 248.421496 
L 143.041772 248.307112 
L 143.649063 247.695144 
L 144.256353 246.561712 
L 144.863644 244.88562 
L 145.470935 242.635527 
L 146.381871 238.088967 
L 147.292808 231.961868 
L 148.811035 218.998065 
L 152.45478 186.779926 
L 153.365716 181.76198 
L 156.705816 166.308227 
L 160.349561 148.329034 
L 164.296951 127.638596 
L 167.940696 107.398213 
L 172.495378 81.674091 
L 172.799023 81.08519 
L 173.102668 80.995757 
L 173.406314 81.406197 
L 173.709959 82.314654 
L 174.31725 85.606963 
L 174.924541 90.813225 
L 175.531832 97.839413 
L 179.782868 154.676624 
L 182.212031 183.08143 
L 184.337549 205.42707 
L 185.248485 213.327705 
L 186.159421 219.085618 
L 186.766712 221.857239 
L 187.374003 223.838101 
L 187.981294 225.065293 
L 188.284939 225.403982 
L 188.588585 225.561794 
L 188.89223 225.539469 
L 189.499521 225.043339 
L 194.357848 220.175669 
L 199.216175 214.98783 
L 202.252629 211.586147 
L 202.556274 211.135949 
L 203.163565 209.605432 
L 203.770856 207.20999 
L 204.378147 203.90611 
L 204.985438 199.63378 
L 205.896374 191.234527 
L 208.021892 167.476802 
L 210.14741 141.396803 
L 212.576573 108.747492 
L 215.309382 70.674228 
L 215.916673 65.377452 
L 216.523964 62.14239 
L 216.827609 61.317394 
L 217.131254 61.026422 
L 226.847908 60.165327 
L 228.06249 60.151582 
L 235.34998 60.361145 
L 237.171852 60.576712 
L 237.475498 60.880096 
L 237.779143 61.718447 
L 238.082788 63.088043 
L 238.690079 67.394318 
L 239.29737 73.722542 
L 240.208306 86.510004 
L 242.63747 121.188883 
L 245.066633 152.814602 
L 247.495796 181.387161 
L 248.973537 196.862639 
L 249.823745 203.450729 
L 250.673952 208.156595 
L 251.240757 210.331442 
L 251.807561 211.777214 
L 252.374366 212.516209 
L 252.961414 212.647699 
L 259.034322 212.986248 
L 264.803585 213.089919 
L 270.876494 212.969153 
L 271.767187 212.845769 
L 272.050589 212.574243 
L 272.617394 211.507267 
L 273.184199 209.726885 
L 273.751004 207.205639 
L 274.601211 201.946311 
L 275.451418 194.74691 
L 276.949402 178.652869 
L 279.07492 153.69824 
L 281.504084 122.348216 
L 283.933247 87.979048 
L 284.844183 75.309555 
L 285.451474 69.045561 
L 286.058765 64.789743 
L 286.36241 63.439921 
L 286.666056 62.617586 
L 286.969701 62.326387 
L 296.382709 61.443186 
L 297.900936 61.389914 
L 305.188426 61.552625 
L 307.010299 61.755483 
L 307.313944 62.055439 
L 307.61759 62.887761 
L 307.921235 64.248752 
L 308.528526 68.530256 
L 309.135817 74.824011 
L 310.046753 87.544126 
L 312.475916 122.042296 
L 314.90508 153.504429 
L 317.334243 181.930525 
L 318.811984 197.327103 
L 319.662191 203.880545 
L 320.512399 208.560241 
L 321.079203 210.721891 
L 321.646008 212.157621 
L 322.212813 212.889574 
L 322.799861 213.016409 
L 328.872769 213.310072 
L 334.642032 213.370365 
L 340.714941 213.20317 
L 341.605634 213.07313 
L 341.889036 212.800066 
L 342.455841 211.73129 
L 343.022646 209.950788 
L 343.589451 207.4311 
L 344.439658 202.177315 
L 345.289865 194.987486 
L 346.787849 178.916639 
L 348.913367 153.99659 
L 351.34253 122.688012 
L 353.771694 88.362343 
L 354.68263 75.707933 
L 355.289921 69.449952 
L 355.897212 65.196551 
L 356.200857 63.846574 
L 356.504502 63.023173 
L 356.808148 62.730003 
L 366.221156 61.77144 
L 367.739383 61.705808 
L 375.026873 61.808473 
L 376.848746 61.996109 
L 377.152391 62.293264 
L 377.456036 63.122262 
L 377.759682 64.479423 
L 378.366973 68.751817 
L 378.974264 75.034666 
L 379.8852 87.735702 
L 382.314363 122.184701 
L 384.743527 153.603707 
L 387.17269 181.99272 
L 388.690917 197.714956 
L 389.601853 204.492112 
L 390.209144 207.790487 
L 390.816435 210.185512 
L 391.423726 211.72069 
L 392.031017 212.525848 
L 396.889343 217.964912 
L 401.74767 223.080897 
L 404.784124 226.111702 
L 405.08777 226.3189 
L 405.391415 226.347661 
L 405.695061 226.19812 
L 405.998706 225.869578 
L 406.605997 224.6685 
L 407.213288 222.721939 
L 407.820579 219.993446 
L 408.427869 216.431932 
L 409.338806 209.377304 
L 410.857033 194.212956 
L 412.982551 170.853218 
L 415.108069 145.187964 
L 417.537232 113.033165 
L 418.751814 96.745572 
L 419.359104 90.705722 
L 419.966395 86.51348 
L 420.573686 84.244561 
L 420.877332 83.845534 
L 421.180977 83.939941 
L 421.484622 84.527356 
L 421.788268 85.605122 
L 422.699204 90.760372 
L 426.95024 115.120851 
L 430.89763 136.466516 
L 434.845021 156.577501 
L 438.488766 173.978128 
L 441.221575 186.695847 
L 442.132511 192.826189 
L 443.043447 200.540984 
L 445.776256 225.607153 
L 446.990838 235.310285 
L 447.901774 240.808647 
L 448.81271 244.820973 
L 449.420001 246.756157 
L 450.027292 248.14338 
L 450.634583 249.008583 
L 451.241874 249.367944 
L 451.545519 249.360399 
L 451.849164 249.228184 
L 452.456455 248.58669 
L 453.063746 247.431465 
L 453.671037 245.740907 
L 456.403846 236.500304 
L 459.136655 226.489602 
L 463.084045 211.566696 
L 463.691336 210.616223 
L 463.994981 210.442805 
L 464.298627 210.471919 
L 464.602272 210.703436 
L 465.209563 211.668283 
L 469.460599 218.890127 
L 473.711635 225.691145 
L 477.962671 232.071337 
L 482.213707 238.030703 
L 486.161097 243.187588 
L 490.108487 247.981618 
L 494.055878 252.412792 
L 497.699623 256.181046 
L 501.343368 259.640121 
L 504.987113 262.790018 
L 508.630858 265.630736 
L 511.970958 267.963123 
L 515.311057 270.035715 
L 518.651157 271.84851 
L 521.991257 273.401509 
L 525.331356 274.694713 
L 528.36781 275.64491 
L 531.404265 276.3804 
L 534.440719 276.901182 
L 537.477173 277.207257 
L 540.513627 277.298625 
L 540.817273 277.295953 
L 540.817273 277.295953 
" style="fill:none;stroke:#1e90ff;stroke-linecap:square;stroke-width:1.3;"/>
   </g>
   <g id="patch_7">
    <path d="M 129.074082 31.29584 
L 131.806891 31.29584 
L 131.806891 19.68016 
L 129.074082 19.68016 
z
" style="fill:#dc143c;"/>
   </g>
   <g id="patch_8">
    <path d="M 134.843345 31.29584 
L 137.272509 31.29584 
L 137.272509 19.68016 
L 134.843345 19.68016 
z
" style="fill:#3cb371;"/>
   </g>
   <g id="patch_9">
    <path d="M 140.308963 31.29584 
L 147.596453 31.29584 
L 147.596453 19.68016 
L 140.308963 19.68016 
z
" style="fill:#dc143c;"/>
   </g>
   <g id="patch_10">
    <path d="M 150.632907 31.29584 
L 153.365716 31.29584 
L 153.365716 19.68016 
L 150.632907 19.68016 
z
" style="fill:#dc143c;"/>
   </g>
   <g id="patch_11">
    <path d="M 156.40217 31.29584 
L 158.831334 31.29584 
L 158.831334 19.68016 
L 156.40217 19.68016 
z
" style="fill:#3cb371;"/>
   </g>
   <g id="patch_12">
    <path d="M 161.867788 31.29584 
L 168.851633 31.29584 
L 168.851633 19.68016 
L 161.867788 19.68016 
z
" style="fill:#ffd700;"/>
   </g>
   <g id="patch_13">
    <path d="M 171.888087 31.29584 
L 175.835477 31.29584 
L 175.835477 19.68016 
L 171.888087 19.68016 
z
" style="fill:#dc143c;"/>
   </g>
   <g id="patch_14">
    <path d="M 178.871931 31.29584 
L 181.301095 31.29584 
L 181.301095 19.68016 
L 178.871931 19.68016 
z
" style="fill:#3cb371;"/>
   </g>
   <g id="patch_15">
    <path d="M 184.337549 31.29584 
L 189.195876 31.29584 
L 189.195876 19.68016 
L 184.337549 19.68016 
z
" style="fill:#dc143c;"/>
   </g>
   <g id="patch_16">
    <path d="M 192.23233 31.29584 
L 194.661493 31.29584 
L 194.661493 19.68016 
L 192.23233 19.68016 
z
" style="fill:#3cb371;"/>
   </g>
   <g id="patch_17">
    <path d="M 197.697947 31.29584 
L 199.216175 31.29584 
L 199.216175 19.68016 
L 197.697947 19.68016 
z
" style="fill:#ffd700;"/>
   </g>
   <g id="patch_18">
    <path d="M 202.252629 31.29584 
L 205.896374 31.29584 
L 205.896374 19.68016 
L 202.252629 19.68016 
z
" style="fill:#dc143c;"/>
   </g>
   <g id="patch_19">
    <path d="M 208.932828 31.29584 
L 211.361991 31.29584 
L 211.361991 19.68016 
L 208.932828 19.68016 
z
" style="fill:#3cb371;"/>
   </g>
   <g id="patch_20">
    <path d="M 214.398446 31.29584 
L 217.131254 31.29584 
L 217.131254 19.68016 
L 214.398446 19.68016 
z
" style="fill:#dc143c;"/>
   </g>
   <g id="patch_21">
    <path d="M 220.167709 31.29584 
L 234.135398 31.29584 
L 234.135398 19.68016 
L 220.167709 19.68016 
z
" style="fill:#ffd700;"/>
   </g>
   <g id="patch_22">
    <path d="M 237.171852 31.29584 
L 239.904661 31.29584 
L 239.904661 19.68016 
L 237.171852 19.68016 
z
" style="fill:#dc143c;"/>
   </g>
   <g id="patch_23">
    <path d="M 242.941115 31.29584 
L 245.370279 31.29584 
L 245.370279 19.68016 
L 242.941115 19.68016 
z
" style="fill:#3cb371;"/>
   </g>
   <g id="patch_24">
    <path d="M 248.406733 31.29584 
L 252.657769 31.29584 
L 252.657769 19.68016 
L 248.406733 19.68016 
z
" style="fill:#dc143c;"/>
   </g>
   <g id="patch_25">
    <path d="M 255.694223 31.29584 
L 257.21245 31.29584 
L 257.21245 19.68016 
L 255.694223 19.68016 
z
" style="fill:#ffd700;"/>
   </g>
   <g id="patch_26">
    <path d="M 260.248904 31.29584 
L 263.892649 31.29584 
L 263.892649 19.68016 
L 260.248904 19.68016 
z
" style="fill:#3cb371;"/>
   </g>
   <g id="patch_27">
    <path d="M 266.929103 31.29584 
L 268.44733 31.29584 
L 268.44733 19.68016 
L 266.929103 19.68016 
z
" style="fill:#ffd700;"/>
   </g>
   <g id="patch_28">
    <path d="M 271.483785 31.29584 
L 275.734821 31.29584 
L 275.734821 19.68016 
L 271.483785 19.68016 
z
" style="fill:#dc143c;"/>
   </g>
   <g id="patch_29">
    <path d="M 278.771275 31.29584 
L 281.200438 31.29584 
L 281.200438 19.68016 
L 278.771275 19.68016 
z
" style="fill:#3cb371;"/>
   </g>
   <g id="patch_30">
    <path d="M 284.236892 31.29584 
L 286.969701 31.29584 
L 286.969701 19.68016 
L 284.236892 19.68016 
z
" style="fill:#dc143c;"/>
   </g>
   <g id="patch_31">
    <path d="M 290.006155 31.29584 
L 303.973845 31.29584 
L 303.973845 19.68016 
L 290.006155 19.68016 
z
" style="fill:#ffd700;"/>
   </g>
   <g id="patch_32">
    <path d="M 307.010299 31.29584 
L 309.743108 31.29584 
L 309.743108 19.68016 
L 307.010299 19.68016 
z
" style="fill:#dc143c;"/>
   </g>
   <g id="patch_33">
    <path d="M 312.779562 31.29584 
L 315.208725 31.29584 
L 315.208725 19.68016 
L 312.779562 19.68016 
z
" style="fill:#3cb371;"/>
   </g>
   <g id="patch_34">
    <path d="M 318.245179 31.29584 
L 322.496215 31.29584 
L 322.496215 19.68016 
L 318.245179 19.68016 
z
" style="fill:#dc143c;"/>
   </g>
   <g id="patch_35">
    <path d="M 325.53267 31.29584 
L 327.050897 31.29584 
L 327.050897 19.68016 
L 325.53267 19.68016 
z
" style="fill:#ffd700;"/>
   </g>
   <g id="patch_36">
    <path d="M 330.087351 31.29584 
L 333.731096 31.29584 
L 333.731096 19.68016 
L 330.087351 19.68016 
z
" style="fill:#3cb371;"/>
   </g>
   <g id="patch_37">
    <path d="M 336.76755 31.29584 
L 338.285777 31.29584 
L 338.285777 19.68016 
L 336.76755 19.68016 
z
" style="fill:#ffd700;"/>
   </g>
   <g id="patch_38">
    <path d="M 341.322231 31.29584 
L 345.573267 31.29584 
L 345.573267 19.68016 
L 341.322231 19.68016 
z
" style="fill:#dc143c;"/>
   </g>
   <g id="patch_39">
    <path d="M 348.609721 31.29584 
L 351.038885 31.29584 
L 351.038885 19.68016 
L 348.609721 19.68016 
z
" style="fill:#3cb371;"/>
   </g>
   <g id="patch_40">
    <path d="M 354.075339 31.29584 
L 356.808148 31.29584 
L 356.808148 19.68016 
L 354.075339 19.68016 
z
" style="fill:#dc143c;"/>
   </g>
   <g id="patch_41">
    <path d="M 359.844602 31.29584 
L 373.812291 31.29584 
L 373.812291 19.68016 
L 359.844602 19.68016 
z
" style="fill:#ffd700;"/>
   </g>
   <g id="patch_42">
    <path d="M 376.848746 31.29584 
L 379.581554 31.29584 
L 379.581554 19.68016 
L 376.848746 19.68016 
z
" style="fill:#dc143c;"/>
   </g>
   <g id="patch_43">
    <path d="M 382.618009 31.29584 
L 385.047172 31.29584 
L 385.047172 19.68016 
L 382.618009 19.68016 
z
" style="fill:#3cb371;"/>
   </g>
   <g id="patch_44">
    <path d="M 388.083626 31.29584 
L 391.727371 31.29584 
L 391.727371 19.68016 
L 388.083626 19.68016 
z
" style="fill:#dc143c;"/>
   </g>
   <g id="patch_45">
    <path d="M 394.763825 31.29584 
L 396.282053 31.29584 
L 396.282053 19.68016 
L 394.763825 19.68016 
z
" style="fill:#ffd700;"/>
   </g>
   <g id="patch_46">
    <path d="M 399.318507 31.29584 
L 401.74767 31.29584 
L 401.74767 19.68016 
L 399.318507 19.68016 
z
" style="fill:#3cb371;"/>
   </g>
   <g id="patch_47">
    <path d="M 404.784124 31.29584 
L 409.642451 31.29584 
L 409.642451 19.68016 
L 404.784124 19.68016 
z
" style="fill:#dc143c;"/>
   </g>
   <g id="patch_48">
    <path d="M 412.678905 31.29584 
L 415.108069 31.29584 
L 415.108069 19.68016 
L 412.678905 19.68016 
z
" style="fill:#3cb371;"/>
   </g>
   <g id="patch_49">
    <path d="M 418.144523 31.29584 
L 422.091913 31.29584 
L 422.091913 19.68016 
L 418.144523 19.68016 
z
" style="fill:#dc143c;"/>
   </g>
   <g id="patch_50">
    <path d="M 425.128367 31.29584 
L 432.112212 31.29584 
L 432.112212 19.68016 
L 425.128367 19.68016 
z
" style="fill:#ffd700;"/>
   </g>
   <g id="patch_51">
    <path d="M 435.148666 31.29584 
L 437.57783 31.29584 
L 437.57783 19.68016 
L 435.148666 19.68016 
z
" style="fill:#3cb371;"/>
   </g>
   <g id="patch_52">
    <path d="M 440.614284 31.29584 
L 443.347093 31.29584 
L 443.347093 19.68016 
L 440.614284 19.68016 
z
" style="fill:#dc143c;"/>
   </g>
   <g id="patch_53">
    <path d="M 446.383547 31.29584 
L 453.671037 31.29584 
L 453.671037 19.68016 
L 446.383547 19.68016 
z
" style="fill:#dc143c;"/>
   </g>
   <g id="patch_54">
    <path d="M 456.707491 31.29584 
L 459.136655 31.29584 
L 459.136655 19.68016 
L 456.707491 19.68016 
z
" style="fill:#3cb371;"/>
   </g>
   <g id="patch_55">
    <path d="M 462.173109 31.29584 
L 464.905918 31.29584 
L 464.905918 19.68016 
L 462.173109 19.68016 
z
" style="fill:#dc143c;"/>
   </g>
   <g id="line2d_33">
    <path clip-path="url(#pebdd0b5b9c)" d="M 53.162727 273.941011 
L 56.502827 273.845195 
L 59.842927 273.520337 
L 63.183026 272.966438 
L 66.523126 272.183496 
L 69.863225 271.171513 
L 73.203325 269.930487 
L 76.543425 268.46042 
L 79.883524 266.761311 
L 83.527269 264.646516 
L 87.171014 262.259142 
L 90.814759 259.599189 
L 94.458504 256.666658 
L 98.10225 253.461547 
L 102.04964 249.681747 
L 105.99703 245.582045 
L 109.944421 241.162442 
L 113.891811 236.422937 
L 118.142847 230.961095 
L 122.393883 225.128243 
L 126.644919 218.924381 
L 129.377728 214.64355 
L 129.985019 212.910323 
L 130.59231 210.356897 
L 131.1996 206.938016 
L 132.110537 200.162077 
L 134.5397 179.640853 
L 136.968863 157.211741 
L 139.701672 129.698471 
L 140.916254 117.550011 
L 141.523545 113.499718 
L 142.130836 111.181117 
L 142.434481 110.685996 
L 142.738126 110.637431 
L 143.041772 111.035651 
L 143.345417 111.878796 
L 143.952708 114.88207 
L 144.559999 119.591267 
L 145.16729 125.918601 
L 146.078226 138.177869 
L 147.292808 158.859285 
L 149.418326 197.71369 
L 150.936553 221.716963 
L 152.151134 237.151112 
L 153.365716 249.213398 
L 154.883943 261.655574 
L 156.40217 272.410042 
L 157.920397 281.476801 
L 159.134979 287.515058 
L 160.349561 292.473181 
L 161.564142 296.351171 
L 162.475079 298.550189 
L 163.386015 300.141872 
L 163.993306 300.86574 
L 164.600597 301.319756 
L 165.207887 301.503895 
L 165.815178 301.418148 
L 166.422469 301.062517 
L 167.02976 300.437024 
L 167.637051 299.541703 
L 168.547987 297.692905 
L 169.458923 295.236274 
L 170.36986 292.171691 
L 171.584441 287.140464 
L 172.495378 282.574058 
L 173.406314 276.948745 
L 174.31725 270.017141 
L 175.228186 261.496196 
L 176.139123 251.094459 
L 177.65735 230.685249 
L 179.175577 206.838934 
L 180.693804 179.555515 
L 182.515676 142.278435 
L 184.337549 100.051925 
L 185.552131 73.285738 
L 186.463067 57.924254 
L 187.070358 50.302463 
L 187.677649 44.947841 
L 188.284939 41.960339 
L 188.588585 41.373444 
L 188.89223 41.395721 
L 189.195876 42.027065 
L 195.268784 60.352451 
L 201.038047 77.062739 
L 202.556274 81.597715 
L 203.163565 85.285417 
L 203.770856 90.887275 
L 204.378147 98.301841 
L 205.289083 112.5204 
L 209.843764 192.948749 
L 211.665637 219.151698 
L 213.183864 238.234795 
L 214.702091 254.761564 
L 215.613027 262.804162 
L 216.523964 269.373537 
L 217.738545 276.409156 
L 219.256772 283.843474 
L 220.471354 288.843212 
L 221.685936 293.001296 
L 222.900517 296.317358 
L 223.811454 298.2514 
L 224.72239 299.711179 
L 225.633326 300.696522 
L 226.240617 301.089782 
L 226.847908 301.272108 
L 227.455199 301.243334 
L 228.06249 301.003457 
L 228.66978 300.552641 
L 229.277071 299.890911 
L 230.188007 298.50293 
L 231.098944 296.640636 
L 232.00988 294.304251 
L 233.224462 290.45208 
L 234.439043 285.755928 
L 235.653625 280.208655 
L 237.171852 272.085729 
L 238.082788 266.239015 
L 238.993725 259.074833 
L 239.904661 250.305894 
L 241.422888 232.903403 
L 242.941115 212.970976 
L 244.762988 185.712545 
L 246.58486 154.811004 
L 250.107147 91.771647 
L 250.957354 82.311963 
L 251.524159 78.027191 
L 252.090964 75.440352 
L 252.374366 74.797134 
L 252.657769 74.591244 
L 262.070777 74.915433 
L 271.767187 75.230795 
L 272.050589 75.885428 
L 272.617394 78.492349 
L 273.184199 82.793288 
L 273.751004 88.722078 
L 274.601211 100.461449 
L 275.451418 115.247007 
L 278.163984 165.986251 
L 279.985856 195.643162 
L 281.807729 221.650667 
L 283.325956 240.535849 
L 284.844183 256.675775 
L 285.755119 264.321555 
L 286.666056 270.564487 
L 288.184283 278.964642 
L 289.70251 286.002073 
L 290.917092 290.676104 
L 292.131673 294.500925 
L 293.346255 297.475783 
L 294.257191 299.148755 
L 295.168127 300.343069 
L 295.775418 300.873286 
L 296.382709 301.190673 
L 296.99 301.295215 
L 297.597291 301.1866 
L 298.204582 300.86514 
L 298.811873 300.33085 
L 299.722809 299.130426 
L 300.633745 297.451344 
L 301.544681 295.293804 
L 302.759263 291.673266 
L 303.973845 287.203358 
L 305.188426 281.873419 
L 306.706653 274.011464 
L 307.61759 268.510427 
L 308.528526 261.80689 
L 309.439462 253.599982 
L 310.654044 240.325558 
L 312.172271 221.374705 
L 313.690498 199.8807 
L 315.512371 170.730935 
L 317.334243 137.919031 
L 319.378789 99.763594 
L 320.228996 87.983183 
L 321.079203 79.6666 
L 321.646008 76.19375 
L 322.212813 74.444227 
L 322.496215 74.225174 
L 331.909223 74.124011 
L 341.605634 74.003211 
L 341.889036 74.648638 
L 342.455841 77.244438 
L 343.022646 81.544103 
L 343.589451 87.481486 
L 344.439658 99.251917 
L 345.289865 114.089331 
L 348.002431 165.038685 
L 349.824303 194.82958 
L 351.646176 220.964739 
L 353.164403 239.951462 
L 354.68263 256.18631 
L 355.593566 263.877545 
L 356.504502 270.157078 
L 358.02273 278.609013 
L 359.540957 285.700521 
L 360.755538 290.419797 
L 361.97012 294.291643 
L 363.184702 297.315297 
L 364.095638 299.026022 
L 365.006574 300.259074 
L 365.613865 300.815661 
L 366.221156 301.159854 
L 366.828447 301.291635 
L 367.435738 301.210693 
L 368.043028 300.917345 
L 368.650319 300.411604 
L 369.561256 299.25482 
L 370.472192 297.620354 
L 371.383128 295.508399 
L 372.294064 292.919205 
L 373.508646 288.725114 
L 374.723228 283.675996 
L 375.937809 277.773545 
L 377.152391 270.985776 
L 378.063327 264.783233 
L 378.974264 257.187464 
L 380.188845 244.603057 
L 381.707072 226.336286 
L 383.225299 205.541193 
L 385.047172 177.249698 
L 386.869044 145.31742 
L 389.601853 96.232245 
L 390.51279 85.674601 
L 391.12008 80.970425 
L 391.727371 78.238053 
L 397.496634 61.488535 
L 403.265897 44.051894 
L 405.08777 38.7107 
L 405.391415 38.687636 
L 405.695061 39.280019 
L 405.998706 40.48508 
L 406.605997 44.707884 
L 407.213288 51.277223 
L 407.820579 60.070475 
L 408.731515 77.060531 
L 409.946096 105.421082 
L 411.767969 147.24773 
L 413.589842 184.074698 
L 415.108069 210.944639 
L 416.626296 234.342581 
L 418.144523 254.268523 
L 419.055459 264.139202 
L 419.966395 272.178023 
L 420.877332 278.71325 
L 421.788268 284.011749 
L 423.00285 289.6625 
L 424.217431 294.202395 
L 425.128367 296.891494 
L 426.039304 298.966152 
L 426.95024 300.427899 
L 427.557531 301.061799 
L 428.164822 301.423177 
L 428.772113 301.512013 
L 429.379403 301.328303 
L 429.986694 300.872056 
L 430.593985 300.143299 
L 431.201276 299.14207 
L 432.112212 297.129468 
L 433.023148 294.502467 
L 433.934085 291.261906 
L 435.148666 285.986729 
L 436.363248 279.620777 
L 437.57783 272.164049 
L 439.096057 261.309238 
L 440.614284 248.750091 
L 441.52522 239.906097 
L 442.436156 229.262773 
L 443.347093 216.466325 
L 444.86532 191.524025 
L 446.687192 157.548227 
L 447.901774 136.67083 
L 448.81271 124.293997 
L 449.723647 115.316807 
L 450.330937 111.412661 
L 450.938228 109.26254 
L 451.241874 108.859066 
L 451.545519 108.906525 
L 451.849164 109.404696 
L 452.15281 110.351253 
L 452.760101 113.569792 
L 453.367392 118.502144 
L 458.833009 172.994554 
L 461.262173 194.182388 
L 462.7804 206.016185 
L 463.691336 210.85948 
L 464.298627 213.016385 
L 464.905918 214.362507 
L 469.460599 221.273468 
L 473.711635 227.339438 
L 477.962671 233.034399 
L 482.213707 238.358349 
L 486.464742 243.311288 
L 490.412133 247.578242 
L 494.359523 251.525293 
L 498.306914 255.152443 
L 502.254304 258.459692 
L 505.898049 261.2286 
L 509.541794 263.72493 
L 513.185539 265.948681 
L 516.829285 267.899853 
L 520.169384 269.448975 
L 523.509484 270.769054 
L 526.849583 271.860092 
L 530.189683 272.722088 
L 533.529783 273.355042 
L 536.869882 273.758954 
L 540.209982 273.933824 
L 540.817273 273.941011 
L 540.817273 273.941011 
" style="fill:none;stroke:#dc143c;stroke-linecap:square;stroke-width:1.3;"/>
   </g>
   <g id="text_17">
    <!-- UQ3 -->
    <g transform="translate(121.882987 15.96357)scale(0.08 -0.08)">
     <defs>
      <path d="M 56.53125 72.734375 
L 56.53125 25.28125 
C 56.53125 14.625 49.21875 6.953125 37.078125 6.953125 
C 24.9375 6.953125 17.609375 14.625 17.609375 25.28125 
L 17.609375 72.734375 
L 8.8125 72.734375 
L 8.8125 24.578125 
C 8.8125 9.65625 19.953125 -1.28125 37.078125 -1.28125 
C 54.1875 -1.28125 65.34375 9.65625 65.34375 24.578125 
L 65.34375 72.734375 
z
" id="Inter-Regular-85"/>
      <path d="M 70.171875 36.359375 
C 70.171875 59.375 56.671875 73.71875 38.0625 73.71875 
C 19.46875 73.71875 5.96875 59.375 5.96875 36.359375 
C 5.96875 13.359375 19.46875 -1 38.0625 -1 
C 42.828125 -1 47.234375 -0.078125 51.171875 1.703125 
L 57.53125 -6.8125 
L 67.1875 -6.8125 
L 57.703125 5.78125 
C 65.453125 12.140625 70.171875 22.734375 70.171875 36.359375 
z
M 35.234375 22.734375 
L 45.984375 8.59375 
C 43.53125 7.703125 40.875 7.25 38.0625 7.25 
C 24.859375 7.25 14.484375 17.46875 14.484375 36.359375 
C 14.484375 55.25 24.859375 65.484375 38.0625 65.484375 
C 51.28125 65.484375 61.65625 55.25 61.65625 36.359375 
C 61.65625 25.390625 58.171875 17.359375 52.625 12.53125 
L 44.890625 22.734375 
z
" id="Inter-Regular-81"/>
     </defs>
     <use xlink:href="#Inter-Regular-85"/>
     <use x="74.147751" xlink:href="#Inter-Regular-81"/>
     <use x="150.284134" xlink:href="#Inter-Regular-51"/>
    </g>
   </g>
   <g id="text_18">
    <!-- S5 -->
    <g transform="translate(131.074802 39.19493)scale(0.08 -0.08)">
     <defs>
      <path d="M 48.578125 54.546875 
L 57.109375 54.546875 
C 56.71875 65.515625 46.59375 73.71875 32.53125 73.71875 
C 18.609375 73.71875 7.671875 65.625 7.671875 53.40625 
C 7.671875 43.609375 14.78125 37.78125 26.140625 34.515625 
L 35.09375 31.953125 
C 42.75 29.828125 49.578125 27.125 49.578125 19.890625 
C 49.578125 11.9375 41.90625 6.671875 31.8125 6.671875 
C 23.15625 6.671875 15.484375 10.515625 14.78125 18.75 
L 5.6875 18.75 
C 6.53125 6.8125 16.1875 -1.28125 31.8125 -1.28125 
C 48.578125 -1.28125 58.09375 7.953125 58.09375 19.75 
C 58.09375 33.375 45.171875 37.78125 37.640625 39.765625 
L 30.25 41.765625 
C 24.859375 43.1875 16.1875 46.015625 16.1875 53.828125 
C 16.1875 60.796875 22.59375 65.90625 32.25 65.90625 
C 41.046875 65.90625 47.734375 61.71875 48.578125 54.546875 
z
" id="Inter-Regular-83"/>
     </defs>
     <use xlink:href="#Inter-Regular-83"/>
     <use x="63.778427" xlink:href="#Inter-Regular-53"/>
    </g>
   </g>
   <g id="text_19">
    <!-- UQ2 -->
    <g transform="translate(135.520208 15.96357)scale(0.08 -0.08)">
     <use xlink:href="#Inter-Regular-85"/>
     <use x="74.147751" xlink:href="#Inter-Regular-81"/>
     <use x="150.284134" xlink:href="#Inter-Regular-50"/>
    </g>
   </g>
   <g id="text_20">
    <!-- UQ1 -->
    <g transform="translate(144.129312 15.96357)scale(0.08 -0.08)">
     <use xlink:href="#Inter-Regular-85"/>
     <use x="74.147751" xlink:href="#Inter-Regular-81"/>
     <use x="150.284134" xlink:href="#Inter-Regular-49"/>
    </g>
   </g>
   <g id="text_21">
    <!-- S3 -->
    <g transform="translate(152.519877 39.19493)scale(0.08 -0.08)">
     <use xlink:href="#Inter-Regular-83"/>
     <use x="63.778427" xlink:href="#Inter-Regular-51"/>
    </g>
   </g>
   <g id="text_22">
    <!-- MB0 -->
    <g transform="translate(156.700335 39.19493)scale(0.08 -0.08)">
     <defs>
      <path d="M 8.8125 72.734375 
L 8.8125 0 
L 17.046875 0 
L 17.046875 55.25 
L 17.75 55.25 
L 40.484375 0 
L 48.4375 0 
L 71.171875 55.25 
L 71.875 55.25 
L 71.875 0 
L 80.109375 0 
L 80.109375 72.734375 
L 69.609375 72.734375 
L 44.890625 12.359375 
L 44.03125 12.359375 
L 19.3125 72.734375 
z
" id="Inter-Regular-77"/>
      <path d="M 8.8125 0 
L 35.09375 0 
C 52.28125 0 59.375 8.375 59.375 19.3125 
C 59.375 30.828125 51.421875 37.078125 44.75 37.5 
L 44.75 38.203125 
C 51 39.921875 56.53125 44.03125 56.53125 53.40625 
C 56.53125 64.0625 49.4375 72.734375 34.234375 72.734375 
L 8.8125 72.734375 
z
M 17.609375 40.765625 
L 17.609375 64.921875 
L 34.234375 64.921875 
C 43.890625 64.921875 48.15625 59.796875 48.15625 53.40625 
C 48.15625 45.734375 41.90625 40.765625 33.953125 40.765625 
z
M 17.609375 7.8125 
L 17.609375 33.09375 
L 35.515625 33.09375 
C 45.03125 33.09375 51 26.703125 51 19.3125 
C 51 12.921875 46.59375 7.8125 35.09375 7.8125 
z
" id="Inter-Regular-66"/>
     </defs>
     <use xlink:href="#Inter-Regular-77"/>
     <use x="88.920471" xlink:href="#Inter-Regular-66"/>
     <use x="153.97731" xlink:href="#Inter-Regular-48"/>
    </g>
   </g>
   <g id="text_23">
    <!-- MQ1 -->
    <g transform="translate(165.401157 15.96357)scale(0.08 -0.08)">
     <use xlink:href="#Inter-Regular-77"/>
     <use x="88.920471" xlink:href="#Inter-Regular-81"/>
     <use x="165.056854" xlink:href="#Inter-Regular-49"/>
    </g>
   </g>
   <g id="text_24">
    <!-- S1A -->
    <g transform="translate(172.972763 39.19493)scale(0.08 -0.08)">
     <defs>
      <path d="M 11.796875 0 
L 19.109375 20.59375 
L 48.515625 20.59375 
L 55.828125 0 
L 65.0625 0 
L 38.359375 72.734375 
L 29.265625 72.734375 
L 2.5625 0 
z
M 33.53125 61.21875 
L 34.09375 61.21875 
L 45.734375 28.40625 
L 21.875 28.40625 
z
" id="Inter-Regular-65"/>
     </defs>
     <use xlink:href="#Inter-Regular-83"/>
     <use x="63.778427" xlink:href="#Inter-Regular-49"/>
     <use x="110.227295" xlink:href="#Inter-Regular-65"/>
    </g>
   </g>
   <g id="text_25">
    <!-- MQ2 -->
    <g transform="translate(177.743587 15.96357)scale(0.08 -0.08)">
     <use xlink:href="#Inter-Regular-77"/>
     <use x="88.920471" xlink:href="#Inter-Regular-81"/>
     <use x="165.056854" xlink:href="#Inter-Regular-50"/>
    </g>
   </g>
   <g id="text_26">
    <!-- S0A -->
    <g transform="translate(185.691287 39.19493)scale(0.08 -0.08)">
     <use xlink:href="#Inter-Regular-83"/>
     <use x="63.778427" xlink:href="#Inter-Regular-48"/>
     <use x="126.278442" xlink:href="#Inter-Regular-65"/>
    </g>
   </g>
   <g id="text_27">
    <!-- B1 -->
    <g transform="translate(193.996436 39.19493)scale(0.08 -0.08)">
     <use xlink:href="#Inter-Regular-66"/>
     <use x="65.056839" xlink:href="#Inter-Regular-49"/>
    </g>
   </g>
   <g id="text_28">
    <!-- Q1A -->
    <g transform="translate(196.466376 15.96357)scale(0.08 -0.08)">
     <use xlink:href="#Inter-Regular-81"/>
     <use x="76.136383" xlink:href="#Inter-Regular-49"/>
     <use x="122.585251" xlink:href="#Inter-Regular-65"/>
    </g>
   </g>
   <g id="text_29">
    <!-- S1 -->
    <g transform="translate(205.738035 39.19493)scale(0.08 -0.08)">
     <use xlink:href="#Inter-Regular-83"/>
     <use x="63.778427" xlink:href="#Inter-Regular-49"/>
    </g>
   </g>
   <g id="text_30">
    <!-- Q0 -->
    <g transform="translate(210.219225 15.96357)scale(0.08 -0.08)">
     <use xlink:href="#Inter-Regular-81"/>
     <use x="76.136383" xlink:href="#Inter-Regular-48"/>
    </g>
   </g>
   <g id="text_31">
    <!-- B0 -->
    <g transform="translate(222.049053 39.19493)scale(0.08 -0.08)">
     <use xlink:href="#Inter-Regular-66"/>
     <use x="65.056839" xlink:href="#Inter-Regular-48"/>
    </g>
   </g>
   <g id="text_32">
    <!-- Q0 -->
    <g transform="translate(232.992632 15.96357)scale(0.08 -0.08)">
     <use xlink:href="#Inter-Regular-81"/>
     <use x="76.136383" xlink:href="#Inter-Regular-48"/>
    </g>
   </g>
   <g id="text_33">
    <!-- S1 -->
    <g transform="translate(239.746322 39.19493)scale(0.08 -0.08)">
     <use xlink:href="#Inter-Regular-83"/>
     <use x="63.778427" xlink:href="#Inter-Regular-49"/>
    </g>
   </g>
   <g id="text_34">
    <!-- Q1 -->
    <g transform="translate(245.628501 15.96357)scale(0.08 -0.08)">
     <use xlink:href="#Inter-Regular-81"/>
     <use x="76.136383" xlink:href="#Inter-Regular-49"/>
    </g>
   </g>
   <g id="text_35">
    <!-- B1 -->
    <g transform="translate(251.992711 39.19493)scale(0.08 -0.08)">
     <use xlink:href="#Inter-Regular-66"/>
     <use x="65.056839" xlink:href="#Inter-Regular-49"/>
    </g>
   </g>
   <g id="text_36">
    <!-- S0 -->
    <g transform="translate(257.019527 39.19493)scale(0.08 -0.08)">
     <use xlink:href="#Inter-Regular-83"/>
     <use x="63.778427" xlink:href="#Inter-Regular-48"/>
    </g>
   </g>
   <g id="text_37">
    <!-- B1 -->
    <g transform="translate(263.227592 39.19493)scale(0.08 -0.08)">
     <use xlink:href="#Inter-Regular-66"/>
     <use x="65.056839" xlink:href="#Inter-Regular-49"/>
    </g>
   </g>
   <g id="text_38">
    <!-- Q1 -->
    <g transform="translate(268.705553 15.96357)scale(0.08 -0.08)">
     <use xlink:href="#Inter-Regular-81"/>
     <use x="76.136383" xlink:href="#Inter-Regular-49"/>
    </g>
   </g>
   <g id="text_39">
    <!-- S1 -->
    <g transform="translate(275.576481 39.19493)scale(0.08 -0.08)">
     <use xlink:href="#Inter-Regular-83"/>
     <use x="63.778427" xlink:href="#Inter-Regular-49"/>
    </g>
   </g>
   <g id="text_40">
    <!-- Q0 -->
    <g transform="translate(280.057672 15.96357)scale(0.08 -0.08)">
     <use xlink:href="#Inter-Regular-81"/>
     <use x="76.136383" xlink:href="#Inter-Regular-48"/>
    </g>
   </g>
   <g id="text_41">
    <!-- B0 -->
    <g transform="translate(291.8875 39.19493)scale(0.08 -0.08)">
     <use xlink:href="#Inter-Regular-66"/>
     <use x="65.056839" xlink:href="#Inter-Regular-48"/>
    </g>
   </g>
   <g id="text_42">
    <!-- Q0 -->
    <g transform="translate(302.831078 15.96357)scale(0.08 -0.08)">
     <use xlink:href="#Inter-Regular-81"/>
     <use x="76.136383" xlink:href="#Inter-Regular-48"/>
    </g>
   </g>
   <g id="text_43">
    <!-- S1 -->
    <g transform="translate(309.584769 39.19493)scale(0.08 -0.08)">
     <use xlink:href="#Inter-Regular-83"/>
     <use x="63.778427" xlink:href="#Inter-Regular-49"/>
    </g>
   </g>
   <g id="text_44">
    <!-- Q1 -->
    <g transform="translate(315.466947 15.96357)scale(0.08 -0.08)">
     <use xlink:href="#Inter-Regular-81"/>
     <use x="76.136383" xlink:href="#Inter-Regular-49"/>
    </g>
   </g>
   <g id="text_45">
    <!-- B1 -->
    <g transform="translate(321.831158 39.19493)scale(0.08 -0.08)">
     <use xlink:href="#Inter-Regular-66"/>
     <use x="65.056839" xlink:href="#Inter-Regular-49"/>
    </g>
   </g>
   <g id="text_46">
    <!-- S0 -->
    <g transform="translate(326.857973 39.19493)scale(0.08 -0.08)">
     <use xlink:href="#Inter-Regular-83"/>
     <use x="63.778427" xlink:href="#Inter-Regular-48"/>
    </g>
   </g>
   <g id="text_47">
    <!-- B1 -->
    <g transform="translate(333.066039 39.19493)scale(0.08 -0.08)">
     <use xlink:href="#Inter-Regular-66"/>
     <use x="65.056839" xlink:href="#Inter-Regular-49"/>
    </g>
   </g>
   <g id="text_48">
    <!-- Q1 -->
    <g transform="translate(338.543999 15.96357)scale(0.08 -0.08)">
     <use xlink:href="#Inter-Regular-81"/>
     <use x="76.136383" xlink:href="#Inter-Regular-49"/>
    </g>
   </g>
   <g id="text_49">
    <!-- S1 -->
    <g transform="translate(345.414928 39.19493)scale(0.08 -0.08)">
     <use xlink:href="#Inter-Regular-83"/>
     <use x="63.778427" xlink:href="#Inter-Regular-49"/>
    </g>
   </g>
   <g id="text_50">
    <!-- Q0 -->
    <g transform="translate(349.896118 15.96357)scale(0.08 -0.08)">
     <use xlink:href="#Inter-Regular-81"/>
     <use x="76.136383" xlink:href="#Inter-Regular-48"/>
    </g>
   </g>
   <g id="text_51">
    <!-- B0 -->
    <g transform="translate(361.725947 39.19493)scale(0.08 -0.08)">
     <use xlink:href="#Inter-Regular-66"/>
     <use x="65.056839" xlink:href="#Inter-Regular-48"/>
    </g>
   </g>
   <g id="text_52">
    <!-- Q0 -->
    <g transform="translate(372.669525 15.96357)scale(0.08 -0.08)">
     <use xlink:href="#Inter-Regular-81"/>
     <use x="76.136383" xlink:href="#Inter-Regular-48"/>
    </g>
   </g>
   <g id="text_53">
    <!-- S1 -->
    <g transform="translate(379.423215 39.19493)scale(0.08 -0.08)">
     <use xlink:href="#Inter-Regular-83"/>
     <use x="63.778427" xlink:href="#Inter-Regular-49"/>
    </g>
   </g>
   <g id="text_54">
    <!-- Q1A -->
    <g transform="translate(382.297374 15.96357)scale(0.08 -0.08)">
     <use xlink:href="#Inter-Regular-81"/>
     <use x="76.136383" xlink:href="#Inter-Regular-49"/>
     <use x="122.585251" xlink:href="#Inter-Regular-65"/>
    </g>
   </g>
   <g id="text_55">
    <!-- B1 -->
    <g transform="translate(391.062314 39.19493)scale(0.08 -0.08)">
     <use xlink:href="#Inter-Regular-66"/>
     <use x="65.056839" xlink:href="#Inter-Regular-49"/>
    </g>
   </g>
   <g id="text_56">
    <!-- S0A -->
    <g transform="translate(392.777463 39.19493)scale(0.08 -0.08)">
     <use xlink:href="#Inter-Regular-83"/>
     <use x="63.778427" xlink:href="#Inter-Regular-48"/>
     <use x="126.278442" xlink:href="#Inter-Regular-65"/>
    </g>
   </g>
   <g id="text_57">
    <!-- MQ2 -->
    <g transform="translate(398.190163 15.96357)scale(0.08 -0.08)">
     <use xlink:href="#Inter-Regular-77"/>
     <use x="88.920471" xlink:href="#Inter-Regular-81"/>
     <use x="165.056854" xlink:href="#Inter-Regular-50"/>
    </g>
   </g>
   <g id="text_58">
    <!-- S1A -->
    <g transform="translate(406.779737 39.19493)scale(0.08 -0.08)">
     <use xlink:href="#Inter-Regular-83"/>
     <use x="63.778427" xlink:href="#Inter-Regular-49"/>
     <use x="110.227295" xlink:href="#Inter-Regular-65"/>
    </g>
   </g>
   <g id="text_59">
    <!-- MQ1 -->
    <g transform="translate(411.657593 15.96357)scale(0.08 -0.08)">
     <use xlink:href="#Inter-Regular-77"/>
     <use x="88.920471" xlink:href="#Inter-Regular-81"/>
     <use x="165.056854" xlink:href="#Inter-Regular-49"/>
    </g>
   </g>
   <g id="text_60">
    <!-- MB0 -->
    <g transform="translate(419.960915 39.19493)scale(0.08 -0.08)">
     <use xlink:href="#Inter-Regular-77"/>
     <use x="88.920471" xlink:href="#Inter-Regular-66"/>
     <use x="153.97731" xlink:href="#Inter-Regular-48"/>
    </g>
   </g>
   <g id="text_61">
    <!-- S3 -->
    <g transform="translate(431.266373 39.19493)scale(0.08 -0.08)">
     <use xlink:href="#Inter-Regular-83"/>
     <use x="63.778427" xlink:href="#Inter-Regular-51"/>
    </g>
   </g>
   <g id="text_62">
    <!-- UQ1 -->
    <g transform="translate(434.110688 15.96357)scale(0.08 -0.08)">
     <use xlink:href="#Inter-Regular-85"/>
     <use x="74.147751" xlink:href="#Inter-Regular-81"/>
     <use x="150.284134" xlink:href="#Inter-Regular-49"/>
    </g>
   </g>
   <g id="text_63">
    <!-- UQ2 -->
    <g transform="translate(441.594792 15.96357)scale(0.08 -0.08)">
     <use xlink:href="#Inter-Regular-85"/>
     <use x="74.147751" xlink:href="#Inter-Regular-81"/>
     <use x="150.284134" xlink:href="#Inter-Regular-50"/>
    </g>
   </g>
   <g id="text_64">
    <!-- S5 -->
    <g transform="translate(452.938948 39.19493)scale(0.08 -0.08)">
     <use xlink:href="#Inter-Regular-83"/>
     <use x="63.778427" xlink:href="#Inter-Regular-53"/>
    </g>
   </g>
   <g id="text_65">
    <!-- UQ3 -->
    <g transform="translate(454.982013 15.96357)scale(0.08 -0.08)">
     <use xlink:href="#Inter-Regular-85"/>
     <use x="74.147751" xlink:href="#Inter-Regular-81"/>
     <use x="150.284134" xlink:href="#Inter-Regular-51"/>
    </g>
   </g>
   <g id="text_66">
    <g clip-path="url(#pebdd0b5b9c)">
     <!-- MATCH_REVERSED -->
     <g style="opacity:0.5;" transform="translate(103.231515 62.42629)scale(0.08 -0.08)">
      <defs>
       <path d="M 16.34375 72.734375 
L 4.265625 0 
L 12.5 0 
L 21.734375 55.25 
L 22.4375 55.25 
L 35.9375 0 
L 43.890625 0 
L 75.859375 55.25 
L 76.5625 55.25 
L 67.328125 0 
L 75.5625 0 
L 87.640625 72.734375 
L 77.125 72.734375 
L 42.46875 12.359375 
L 41.625 12.359375 
L 26.84375 72.734375 
z
" id="Inter-Italic-77"/>
       <path d="M 7.25 0 
L 18 20.59375 
L 47.40625 20.59375 
L 51.28125 0 
L 60.515625 0 
L 45.875 72.734375 
L 36.796875 72.734375 
L -1.984375 0 
z
M 39.203125 61.21875 
L 39.78125 61.21875 
L 45.953125 28.40625 
L 22.09375 28.40625 
z
" id="Inter-Italic-65"/>
       <path d="M 11.078125 64.921875 
L 33.953125 64.921875 
L 23.15625 0 
L 31.96875 0 
L 42.75 64.921875 
L 65.625 64.921875 
L 66.90625 72.734375 
L 12.359375 72.734375 
z
" id="Inter-Italic-84"/>
       <path d="M 71.03125 50 
C 70.734375 64.921875 60.09375 73.71875 45.3125 73.71875 
C 26.84375 73.71875 11.359375 59.65625 7.53125 36.9375 
C 3.6875 13.640625 15.0625 -1 33.953125 -1 
C 48.296875 -1 61.359375 7.8125 66.625 22.734375 
L 57.8125 22.734375 
C 53.984375 12.640625 44.171875 7.25 34.234375 7.25 
C 21.3125 7.25 12.78125 17.1875 15.90625 35.796875 
C 19.03125 54.96875 31.390625 65.484375 44.890625 65.484375 
C 54.265625 65.484375 61.9375 60.078125 62.359375 50 
z
" id="Inter-Italic-67"/>
       <path d="M 4.265625 0 
L 13.0625 0 
L 18.46875 32.53125 
L 57.25 32.53125 
L 51.84375 0 
L 60.65625 0 
L 72.734375 72.734375 
L 63.921875 72.734375 
L 58.53125 40.34375 
L 19.75 40.34375 
L 25.140625 72.734375 
L 16.34375 72.734375 
z
" id="Inter-Italic-72"/>
       <path d="M 40.765625 0 
L -4.6875 0 
L -5.96875 -7.8125 
L 39.484375 -7.8125 
z
" id="Inter-Italic-95"/>
       <path d="M 4.265625 0 
L 13.0625 0 
L 17.796875 28.40625 
L 33.671875 28.40625 
C 34.3125 28.40625 34.90625 28.40625 35.515625 28.4375 
L 46.171875 0 
L 56.390625 0 
L 44.890625 30.046875 
C 54.71875 33.234375 60.328125 40.84375 61.9375 50.421875 
C 64.0625 63.359375 57.953125 72.734375 40.90625 72.734375 
L 16.34375 72.734375 
z
M 39.34375 64.921875 
C 51.140625 64.921875 54.6875 59.234375 53.265625 50.421875 
C 51.84375 41.765625 46.453125 36.359375 34.796875 36.359375 
L 19.109375 36.359375 
L 23.859375 64.921875 
z
" id="Inter-Italic-82"/>
       <path d="M 4.265625 0 
L 48.71875 0 
L 50 7.8125 
L 14.34375 7.8125 
L 18.46875 32.53125 
L 51.28125 32.53125 
L 52.5625 40.34375 
L 19.75 40.34375 
L 23.859375 64.921875 
L 58.953125 64.921875 
L 60.234375 72.734375 
L 16.34375 72.734375 
z
" id="Inter-Italic-69"/>
       <path d="M 19.3125 72.734375 
L 10.09375 72.734375 
L 24.71875 0 
L 33.8125 0 
L 72.59375 72.734375 
L 63.359375 72.734375 
L 31.671875 11.5 
L 30.828125 11.5 
z
" id="Inter-Italic-86"/>
       <path d="M 52.984375 53.984375 
L 61.5 53.984375 
C 62.78125 65.484375 54.265625 73.71875 40.203125 73.71875 
C 26.28125 73.71875 14.0625 65.625 11.9375 53.40625 
C 10.375 43.609375 16.484375 37.78125 27.28125 34.515625 
L 35.796875 31.953125 
C 43.1875 29.828125 49.578125 27.125 48.296875 19.890625 
C 47.015625 11.9375 38.5 6.671875 28.40625 6.671875 
C 19.75 6.671875 12.640625 10.515625 13.359375 18.75 
L 4.265625 18.75 
C 3.125 6.8125 11.5 -1.28125 27.125 -1.28125 
C 43.890625 -1.28125 54.828125 7.953125 56.8125 19.75 
C 59.09375 33.375 46.875 37.78125 39.78125 39.765625 
L 32.671875 41.765625 
C 27.5625 43.1875 19.3125 46.015625 20.59375 53.828125 
C 21.734375 60.796875 28.984375 65.90625 38.640625 65.90625 
C 47.4375 65.90625 52.984375 61.796875 52.984375 53.984375 
z
" id="Inter-Italic-83"/>
       <path d="M 26.984375 0 
C 49.15625 0 63.640625 13.5 67.328125 35.9375 
C 71.171875 58.8125 60.65625 72.734375 39.484375 72.734375 
L 16.34375 72.734375 
L 4.265625 0 
z
M 38.21875 64.921875 
C 55.25 64.921875 61.9375 54.40625 58.953125 37.078125 
C 55.96875 19.03125 45.3125 7.8125 27.28125 7.8125 
L 14.390625 7.8125 
L 23.828125 64.921875 
z
" id="Inter-Italic-68"/>
      </defs>
      <use xlink:href="#Inter-Italic-77"/>
      <use x="88.920471" xlink:href="#Inter-Italic-65"/>
      <use x="156.534119" xlink:href="#Inter-Italic-84"/>
      <use x="220.738678" xlink:href="#Inter-Italic-67"/>
      <use x="293.465973" xlink:href="#Inter-Italic-72"/>
      <use x="367.471664" xlink:href="#Inter-Italic-95"/>
      <use x="412.64212" xlink:href="#Inter-Italic-82"/>
      <use x="476.562592" xlink:href="#Inter-Italic-69"/>
      <use x="536.363739" xlink:href="#Inter-Italic-86"/>
      <use x="603.977386" xlink:href="#Inter-Italic-69"/>
      <use x="663.778534" xlink:href="#Inter-Italic-82"/>
      <use x="727.699005" xlink:href="#Inter-Italic-83"/>
      <use x="791.477432" xlink:href="#Inter-Italic-69"/>
      <use x="851.27858" xlink:href="#Inter-Italic-68"/>
     </g>
    </g>
   </g>
   <g id="text_67">
    <g clip-path="url(#pebdd0b5b9c)">
     <!-- CELL -->
     <g style="opacity:0.5;" transform="translate(234.809915 62.42629)scale(0.08 -0.08)">
      <defs>
       <path d="M 4.265625 0 
L 46.875 0 
L 48.15625 7.8125 
L 14.34375 7.8125 
L 25.140625 72.734375 
L 16.34375 72.734375 
z
" id="Inter-Italic-76"/>
      </defs>
      <use xlink:href="#Inter-Italic-67"/>
      <use x="72.727295" xlink:href="#Inter-Italic-69"/>
      <use x="132.528442" xlink:href="#Inter-Italic-76"/>
      <use x="188.778458" xlink:href="#Inter-Italic-76"/>
     </g>
    </g>
   </g>
   <g id="text_68">
    <g clip-path="url(#pebdd0b5b9c)">
     <!-- MBACELL -->
     <g style="opacity:0.5;" transform="translate(278.325 62.42629)scale(0.08 -0.08)">
      <defs>
       <path d="M 4.265625 0 
L 30.546875 0 
C 47.734375 0 56.25 8.375 58.09375 19.3125 
C 59.9375 30.828125 52.984375 37.078125 46.453125 37.5 
L 46.59375 38.203125 
C 52.984375 39.921875 59.234375 44.03125 60.796875 53.40625 
C 62.640625 64.0625 56.96875 72.734375 41.765625 72.734375 
L 16.34375 72.734375 
z
M 19.890625 40.765625 
L 23.859375 64.921875 
L 40.484375 64.921875 
C 50.140625 64.921875 53.546875 59.796875 52.421875 53.40625 
C 51.28125 45.734375 44.171875 40.765625 36.21875 40.765625 
z
M 14.34375 7.8125 
L 18.609375 33.09375 
L 36.5 33.09375 
C 46.03125 33.09375 50.859375 26.703125 49.71875 19.3125 
C 48.578125 12.921875 43.328125 7.8125 31.8125 7.8125 
z
" id="Inter-Italic-66"/>
      </defs>
      <use xlink:href="#Inter-Italic-77"/>
      <use x="88.920471" xlink:href="#Inter-Italic-66"/>
      <use x="153.97731" xlink:href="#Inter-Italic-65"/>
      <use x="221.590958" xlink:href="#Inter-Italic-67"/>
      <use x="294.318253" xlink:href="#Inter-Italic-69"/>
      <use x="354.1194" xlink:href="#Inter-Italic-76"/>
      <use x="410.369415" xlink:href="#Inter-Italic-76"/>
     </g>
    </g>
   </g>
   <g id="text_69">
    <g clip-path="url(#pebdd0b5b9c)">
     <!-- CELL_REVERSED -->
     <g style="opacity:0.5;" transform="translate(317.34071 62.42629)scale(0.08 -0.08)">
      <use xlink:href="#Inter-Italic-67"/>
      <use x="72.727295" xlink:href="#Inter-Italic-69"/>
      <use x="132.528442" xlink:href="#Inter-Italic-76"/>
      <use x="188.778458" xlink:href="#Inter-Italic-76"/>
      <use x="245.028473" xlink:href="#Inter-Italic-95"/>
      <use x="290.198929" xlink:href="#Inter-Italic-82"/>
      <use x="354.1194" xlink:href="#Inter-Italic-69"/>
      <use x="413.920547" xlink:href="#Inter-Italic-86"/>
      <use x="481.534195" xlink:href="#Inter-Italic-69"/>
      <use x="541.335342" xlink:href="#Inter-Italic-82"/>
      <use x="605.255814" xlink:href="#Inter-Italic-83"/>
      <use x="669.034241" xlink:href="#Inter-Italic-69"/>
      <use x="728.835388" xlink:href="#Inter-Italic-68"/>
     </g>
    </g>
   </g>
   <g id="text_70">
    <g clip-path="url(#pebdd0b5b9c)">
     <!-- MATCH -->
     <g style="opacity:0.5;" transform="translate(439.12411 62.42629)scale(0.08 -0.08)">
      <use xlink:href="#Inter-Italic-77"/>
      <use x="88.920471" xlink:href="#Inter-Italic-65"/>
      <use x="156.534119" xlink:href="#Inter-Italic-84"/>
      <use x="220.738678" xlink:href="#Inter-Italic-67"/>
      <use x="293.465973" xlink:href="#Inter-Italic-72"/>
     </g>
    </g>
   </g>
  </g>
 </g>
 <defs>
  <clipPath id="pebdd0b5b9c">
   <rect height="290.392" width="536.42" x="28.78" y="25.488"/>
  </clipPath>
 </defs>
</svg>
