<?xml version="1.0" encoding="utf-8" standalone="no"?>
<!DOCTYPE svg PUBLIC "-//W3C//DTD SVG 1.1//EN"
  "http://www.w3.org/Graphics/SVG/1.1/DTD/svg11.dtd">
<!-- Created with matplotlib (https://matplotlib.org/) -->
<svg height="345.6pt" version="1.1" viewBox="0 0 576 345.6" width="576pt" xmlns="http://www.w3.org/2000/svg" xmlns:xlink="http://www.w3.org/1999/xlink">
 <metadata>
  <rdf:RDF xmlns:cc="http://creativecommons.org/ns#" xmlns:dc="http://purl.org/dc/elements/1.1/" xmlns:rdf="http://www.w3.org/1999/02/22-rdf-syntax-ns#">
   <cc:Work>
    <dc:type rdf:resource="http://purl.org/dc/dcmitype/StillImage"/>
    <dc:date>2020-12-16T19:49:16.476512</dc:date>
    <dc:format>image/svg+xml</dc:format>
    <dc:creator>
     <cc:Agent>
      <dc:title>Matplotlib v3.3.3, https://matplotlib.org/</dc:title>
     </cc:Agent>
    </dc:creator>
   </cc:Work>
  </rdf:RDF>
 </metadata>
 <defs>
  <style type="text/css">*{stroke-linecap:butt;stroke-linejoin:round;}</style>
 </defs>
 <g id="figure_1">
  <g id="patch_1">
   <path d="M 0 345.6 
L 576 345.6 
L 576 0 
L 0 0 
z
" style="fill:#ffffff;"/>
  </g>
  <g id="axes_1">
   <g id="patch_2">
    <path d="M 37.78 317.72 
L 554.535 317.72 
L 554.535 10.8 
L 37.78 10.8 
z
" style="fill:#ffffff;"/>
   </g>
   <g id="matplotlib.axis_1">
    <g id="xtick_1">
     <g id="line2d_1">
      <path clip-path="url(#p40efd088ec)" d="M 37.78 317.72 
L 37.78 10.8 
" style="fill:none;stroke:#e5e7eb;stroke-dasharray:3.7,1.6;stroke-dashoffset:0;"/>
     </g>
     <g id="line2d_2">
      <defs>
       <path d="M 0 0 
L 0 3.5 
" id="m707fdcbfbf" style="stroke:#000000;stroke-width:0.8;"/>
      </defs>
      <g>
       <use style="stroke:#000000;stroke-width:0.8;" x="37.78" xlink:href="#m707fdcbfbf" y="317.72"/>
      </g>
     </g>
     <g id="text_1">
      <!-- 0.0 -->
      <g transform="translate(30.151875 331.993437)scale(0.1 -0.1)">
       <defs>
        <path d="M 31.25 -1 
C 47.296875 -1 56.53125 12.609375 56.53125 36.359375 
C 56.53125 59.9375 47.15625 73.71875 31.25 73.71875 
C 15.34375 73.71875 5.96875 59.9375 5.96875 36.359375 
C 5.96875 12.609375 15.203125 -1 31.25 -1 
z
M 31.25 6.8125 
C 20.671875 6.8125 14.484375 17.4375 14.484375 36.359375 
C 14.484375 55.25 20.734375 66.046875 31.25 66.046875 
C 41.765625 66.046875 48.015625 55.25 48.015625 36.359375 
C 48.015625 17.4375 41.828125 6.8125 31.25 6.8125 
z
" id="Inter-Regular-48"/>
        <path d="M 13.78125 -0.5625 
C 17.296875 -0.5625 20.171875 2.3125 20.171875 5.828125 
C 20.171875 9.34375 17.296875 12.21875 13.78125 12.21875 
C 10.265625 12.21875 7.390625 9.34375 7.390625 5.828125 
C 7.390625 2.3125 10.265625 -0.5625 13.78125 -0.5625 
z
" id="Inter-Regular-46"/>
       </defs>
       <use xlink:href="#Inter-Regular-48"/>
       <use x="62.500015" xlink:href="#Inter-Regular-46"/>
       <use x="90.056839" xlink:href="#Inter-Regular-48"/>
      </g>
     </g>
    </g>
    <g id="xtick_2">
     <g id="line2d_3">
      <path clip-path="url(#p40efd088ec)" d="M 102.374375 317.72 
L 102.374375 10.8 
" style="fill:none;stroke:#e5e7eb;stroke-dasharray:3.7,1.6;stroke-dashoffset:0;"/>
     </g>
     <g id="line2d_4">
      <g>
       <use style="stroke:#000000;stroke-width:0.8;" x="102.374375" xlink:href="#m707fdcbfbf" y="317.72"/>
      </g>
     </g>
     <g id="text_2">
      <!-- 2.5 -->
      <g transform="translate(94.930625 331.993437)scale(0.1 -0.1)">
       <defs>
        <path d="M 7.53125 0 
L 53.40625 0 
L 53.40625 7.8125 
L 19.609375 7.8125 
L 19.609375 8.375 
L 35.9375 25.859375 
C 48.4375 39.234375 52.125 45.484375 52.125 53.546875 
C 52.125 64.765625 43.046875 73.71875 30.25 73.71875 
C 17.515625 73.71875 7.8125 65.0625 7.8125 52.265625 
L 16.1875 52.265625 
C 16.1875 60.546875 21.5625 66.046875 29.96875 66.046875 
C 37.859375 66.046875 43.890625 61.21875 43.890625 53.546875 
C 43.890625 46.84375 39.953125 41.875 31.53125 32.671875 
L 7.53125 6.390625 
z
" id="Inter-Regular-50"/>
        <path d="M 30.25 -1 
C 44.109375 -1 54.265625 9.234375 54.265625 23.15625 
C 54.265625 37.25 44.46875 47.578125 31.109375 47.578125 
C 26.203125 47.578125 21.453125 45.84375 18.46875 43.46875 
L 18.046875 43.46875 
L 20.59375 64.921875 
L 51 64.921875 
L 51 72.734375 
L 13.21875 72.734375 
L 8.8125 36.9375 
L 17.046875 35.9375 
C 20.0625 38.109375 25.21875 39.671875 29.6875 39.625 
C 38.953125 39.5625 45.734375 32.53125 45.734375 23.015625 
C 45.734375 13.671875 39.203125 6.8125 30.25 6.8125 
C 22.796875 6.8125 16.875 11.609375 16.1875 18.1875 
L 7.671875 18.1875 
C 8.203125 7.109375 17.75 -1 30.25 -1 
z
" id="Inter-Regular-53"/>
       </defs>
       <use xlink:href="#Inter-Regular-50"/>
       <use x="60.511383" xlink:href="#Inter-Regular-46"/>
       <use x="88.068207" xlink:href="#Inter-Regular-53"/>
      </g>
     </g>
    </g>
    <g id="xtick_3">
     <g id="line2d_5">
      <path clip-path="url(#p40efd088ec)" d="M 166.96875 317.72 
L 166.96875 10.8 
" style="fill:none;stroke:#e5e7eb;stroke-dasharray:3.7,1.6;stroke-dashoffset:0;"/>
     </g>
     <g id="line2d_6">
      <g>
       <use style="stroke:#000000;stroke-width:0.8;" x="166.96875" xlink:href="#m707fdcbfbf" y="317.72"/>
      </g>
     </g>
     <g id="text_3">
      <!-- 5.0 -->
      <g transform="translate(159.425781 331.993437)scale(0.1 -0.1)">
       <use xlink:href="#Inter-Regular-53"/>
       <use x="60.795471" xlink:href="#Inter-Regular-46"/>
       <use x="88.352295" xlink:href="#Inter-Regular-48"/>
      </g>
     </g>
    </g>
    <g id="xtick_4">
     <g id="line2d_7">
      <path clip-path="url(#p40efd088ec)" d="M 231.563125 317.72 
L 231.563125 10.8 
" style="fill:none;stroke:#e5e7eb;stroke-dasharray:3.7,1.6;stroke-dashoffset:0;"/>
     </g>
     <g id="line2d_8">
      <g>
       <use style="stroke:#000000;stroke-width:0.8;" x="231.563125" xlink:href="#m707fdcbfbf" y="317.72"/>
      </g>
     </g>
     <g id="text_4">
      <!-- 7.5 -->
      <g transform="translate(224.289687 331.993437)scale(0.1 -0.1)">
       <defs>
        <path d="M 9.796875 0 
L 19.03125 0 
L 51.421875 64.484375 
L 51.421875 72.734375 
L 4.828125 72.734375 
L 4.828125 64.921875 
L 42.328125 64.921875 
L 42.328125 64.34375 
z
" id="Inter-Regular-55"/>
       </defs>
       <use xlink:href="#Inter-Regular-55"/>
       <use x="57.10228" xlink:href="#Inter-Regular-46"/>
       <use x="84.659103" xlink:href="#Inter-Regular-53"/>
      </g>
     </g>
    </g>
    <g id="xtick_5">
     <g id="line2d_9">
      <path clip-path="url(#p40efd088ec)" d="M 296.1575 317.72 
L 296.1575 10.8 
" style="fill:none;stroke:#e5e7eb;stroke-dasharray:3.7,1.6;stroke-dashoffset:0;"/>
     </g>
     <g id="line2d_10">
      <g>
       <use style="stroke:#000000;stroke-width:0.8;" x="296.1575" xlink:href="#m707fdcbfbf" y="317.72"/>
      </g>
     </g>
     <g id="text_5">
      <!-- 10.0 -->
      <g transform="translate(286.206719 331.993437)scale(0.1 -0.1)">
       <defs>
        <path d="M 33.09375 72.734375 
L 24.296875 72.734375 
L 6.109375 60.65625 
L 6.109375 51.703125 
L 23.859375 63.5 
L 24.296875 63.5 
L 24.296875 0 
L 33.09375 0 
z
" id="Inter-Regular-49"/>
       </defs>
       <use xlink:href="#Inter-Regular-49"/>
       <use x="46.448868" xlink:href="#Inter-Regular-48"/>
       <use x="108.948883" xlink:href="#Inter-Regular-46"/>
       <use x="136.505707" xlink:href="#Inter-Regular-48"/>
      </g>
     </g>
    </g>
    <g id="xtick_6">
     <g id="line2d_11">
      <path clip-path="url(#p40efd088ec)" d="M 360.751875 317.72 
L 360.751875 10.8 
" style="fill:none;stroke:#e5e7eb;stroke-dasharray:3.7,1.6;stroke-dashoffset:0;"/>
     </g>
     <g id="line2d_12">
      <g>
       <use style="stroke:#000000;stroke-width:0.8;" x="360.751875" xlink:href="#m707fdcbfbf" y="317.72"/>
      </g>
     </g>
     <g id="text_6">
      <!-- 12.5 -->
      <g transform="translate(350.985469 331.993437)scale(0.1 -0.1)">
       <use xlink:href="#Inter-Regular-49"/>
       <use x="46.448868" xlink:href="#Inter-Regular-50"/>
       <use x="106.960251" xlink:href="#Inter-Regular-46"/>
       <use x="134.517075" xlink:href="#Inter-Regular-53"/>
      </g>
     </g>
    </g>
    <g id="xtick_7">
     <g id="line2d_13">
      <path clip-path="url(#p40efd088ec)" d="M 425.34625 317.72 
L 425.34625 10.8 
" style="fill:none;stroke:#e5e7eb;stroke-dasharray:3.7,1.6;stroke-dashoffset:0;"/>
     </g>
     <g id="line2d_14">
      <g>
       <use style="stroke:#000000;stroke-width:0.8;" x="425.34625" xlink:href="#m707fdcbfbf" y="317.72"/>
      </g>
     </g>
     <g id="text_7">
      <!-- 15.0 -->
      <g transform="translate(415.480625 331.993437)scale(0.1 -0.1)">
       <use xlink:href="#Inter-Regular-49"/>
       <use x="46.448868" xlink:href="#Inter-Regular-53"/>
       <use x="107.244339" xlink:href="#Inter-Regular-46"/>
       <use x="134.801163" xlink:href="#Inter-Regular-48"/>
      </g>
     </g>
    </g>
    <g id="xtick_8">
     <g id="line2d_15">
      <path clip-path="url(#p40efd088ec)" d="M 489.940625 317.72 
L 489.940625 10.8 
" style="fill:none;stroke:#e5e7eb;stroke-dasharray:3.7,1.6;stroke-dashoffset:0;"/>
     </g>
     <g id="line2d_16">
      <g>
       <use style="stroke:#000000;stroke-width:0.8;" x="489.940625" xlink:href="#m707fdcbfbf" y="317.72"/>
      </g>
     </g>
     <g id="text_8">
      <!-- 17.5 -->
      <g transform="translate(480.344531 331.993437)scale(0.1 -0.1)">
       <use xlink:href="#Inter-Regular-49"/>
       <use x="46.448868" xlink:href="#Inter-Regular-55"/>
       <use x="103.551147" xlink:href="#Inter-Regular-46"/>
       <use x="131.107971" xlink:href="#Inter-Regular-53"/>
      </g>
     </g>
    </g>
    <g id="xtick_9">
     <g id="line2d_17">
      <path clip-path="url(#p40efd088ec)" d="M 554.535 317.72 
L 554.535 10.8 
" style="fill:none;stroke:#e5e7eb;stroke-dasharray:3.7,1.6;stroke-dashoffset:0;"/>
     </g>
     <g id="line2d_18">
      <g>
       <use style="stroke:#000000;stroke-width:0.8;" x="554.535" xlink:href="#m707fdcbfbf" y="317.72"/>
      </g>
     </g>
     <g id="text_9">
      <!-- 20.0 -->
      <g transform="translate(543.881094 331.993437)scale(0.1 -0.1)">
       <use xlink:href="#Inter-Regular-50"/>
       <use x="60.511383" xlink:href="#Inter-Regular-48"/>
       <use x="123.011398" xlink:href="#Inter-Regular-46"/>
       <use x="150.568222" xlink:href="#Inter-Regular-48"/>
      </g>
     </g>
    </g>
   </g>
   <g id="matplotlib.axis_2">
    <g id="ytick_1">
     <g id="line2d_19">
      <path clip-path="url(#p40efd088ec)" d="M 37.78 303.726911 
L 554.535 303.726911 
" style="fill:none;stroke:#e5e7eb;stroke-dasharray:3.7,1.6;stroke-dashoffset:0;"/>
     </g>
     <g id="line2d_20">
      <defs>
       <path d="M 0 0 
L -3.5 0 
" id="mbaa947cf8d" style="stroke:#000000;stroke-width:0.8;"/>
      </defs>
      <g>
       <use style="stroke:#000000;stroke-width:0.8;" x="37.78" xlink:href="#mbaa947cf8d" y="303.726911"/>
      </g>
     </g>
     <g id="text_10">
      <!-- 0.0 -->
      <g transform="translate(15.52375 307.363629)scale(0.1 -0.1)">
       <use xlink:href="#Inter-Regular-48"/>
       <use x="62.500015" xlink:href="#Inter-Regular-46"/>
       <use x="90.056839" xlink:href="#Inter-Regular-48"/>
      </g>
     </g>
    </g>
    <g id="ytick_2">
     <g id="line2d_21">
      <path clip-path="url(#p40efd088ec)" d="M 37.78 266.20346 
L 554.535 266.20346 
" style="fill:none;stroke:#e5e7eb;stroke-dasharray:3.7,1.6;stroke-dashoffset:0;"/>
     </g>
     <g id="line2d_22">
      <g>
       <use style="stroke:#000000;stroke-width:0.8;" x="37.78" xlink:href="#mbaa947cf8d" y="266.20346"/>
      </g>
     </g>
     <g id="text_11">
      <!-- 2.5 -->
      <g transform="translate(15.8925 269.840179)scale(0.1 -0.1)">
       <use xlink:href="#Inter-Regular-50"/>
       <use x="60.511383" xlink:href="#Inter-Regular-46"/>
       <use x="88.068207" xlink:href="#Inter-Regular-53"/>
      </g>
     </g>
    </g>
    <g id="ytick_3">
     <g id="line2d_23">
      <path clip-path="url(#p40efd088ec)" d="M 37.78 228.68001 
L 554.535 228.68001 
" style="fill:none;stroke:#e5e7eb;stroke-dasharray:3.7,1.6;stroke-dashoffset:0;"/>
     </g>
     <g id="line2d_24">
      <g>
       <use style="stroke:#000000;stroke-width:0.8;" x="37.78" xlink:href="#mbaa947cf8d" y="228.68001"/>
      </g>
     </g>
     <g id="text_12">
      <!-- 5.0 -->
      <g transform="translate(15.694063 232.316729)scale(0.1 -0.1)">
       <use xlink:href="#Inter-Regular-53"/>
       <use x="60.795471" xlink:href="#Inter-Regular-46"/>
       <use x="88.352295" xlink:href="#Inter-Regular-48"/>
      </g>
     </g>
    </g>
    <g id="ytick_4">
     <g id="line2d_25">
      <path clip-path="url(#p40efd088ec)" d="M 37.78 191.15656 
L 554.535 191.15656 
" style="fill:none;stroke:#e5e7eb;stroke-dasharray:3.7,1.6;stroke-dashoffset:0;"/>
     </g>
     <g id="line2d_26">
      <g>
       <use style="stroke:#000000;stroke-width:0.8;" x="37.78" xlink:href="#mbaa947cf8d" y="191.15656"/>
      </g>
     </g>
     <g id="text_13">
      <!-- 7.5 -->
      <g transform="translate(16.233125 194.793278)scale(0.1 -0.1)">
       <use xlink:href="#Inter-Regular-55"/>
       <use x="57.10228" xlink:href="#Inter-Regular-46"/>
       <use x="84.659103" xlink:href="#Inter-Regular-53"/>
      </g>
     </g>
    </g>
    <g id="ytick_5">
     <g id="line2d_27">
      <path clip-path="url(#p40efd088ec)" d="M 37.78 153.633109 
L 554.535 153.633109 
" style="fill:none;stroke:#e5e7eb;stroke-dasharray:3.7,1.6;stroke-dashoffset:0;"/>
     </g>
     <g id="line2d_28">
      <g>
       <use style="stroke:#000000;stroke-width:0.8;" x="37.78" xlink:href="#mbaa947cf8d" y="153.633109"/>
      </g>
     </g>
     <g id="text_14">
      <!-- 10.0 -->
      <g transform="translate(10.878438 157.269828)scale(0.1 -0.1)">
       <use xlink:href="#Inter-Regular-49"/>
       <use x="46.448868" xlink:href="#Inter-Regular-48"/>
       <use x="108.948883" xlink:href="#Inter-Regular-46"/>
       <use x="136.505707" xlink:href="#Inter-Regular-48"/>
      </g>
     </g>
    </g>
    <g id="ytick_6">
     <g id="line2d_29">
      <path clip-path="url(#p40efd088ec)" d="M 37.78 116.109659 
L 554.535 116.109659 
" style="fill:none;stroke:#e5e7eb;stroke-dasharray:3.7,1.6;stroke-dashoffset:0;"/>
     </g>
     <g id="line2d_30">
      <g>
       <use style="stroke:#000000;stroke-width:0.8;" x="37.78" xlink:href="#mbaa947cf8d" y="116.109659"/>
      </g>
     </g>
     <g id="text_15">
      <!-- 12.5 -->
      <g transform="translate(11.247188 119.746378)scale(0.1 -0.1)">
       <use xlink:href="#Inter-Regular-49"/>
       <use x="46.448868" xlink:href="#Inter-Regular-50"/>
       <use x="106.960251" xlink:href="#Inter-Regular-46"/>
       <use x="134.517075" xlink:href="#Inter-Regular-53"/>
      </g>
     </g>
    </g>
    <g id="ytick_7">
     <g id="line2d_31">
      <path clip-path="url(#p40efd088ec)" d="M 37.78 78.586209 
L 554.535 78.586209 
" style="fill:none;stroke:#e5e7eb;stroke-dasharray:3.7,1.6;stroke-dashoffset:0;"/>
     </g>
     <g id="line2d_32">
      <g>
       <use style="stroke:#000000;stroke-width:0.8;" x="37.78" xlink:href="#mbaa947cf8d" y="78.586209"/>
      </g>
     </g>
     <g id="text_16">
      <!-- 15.0 -->
      <g transform="translate(11.04875 82.222927)scale(0.1 -0.1)">
       <use xlink:href="#Inter-Regular-49"/>
       <use x="46.448868" xlink:href="#Inter-Regular-53"/>
       <use x="107.244339" xlink:href="#Inter-Regular-46"/>
       <use x="134.801163" xlink:href="#Inter-Regular-48"/>
      </g>
     </g>
    </g>
    <g id="ytick_8">
     <g id="line2d_33">
      <path clip-path="url(#p40efd088ec)" d="M 37.78 41.062758 
L 554.535 41.062758 
" style="fill:none;stroke:#e5e7eb;stroke-dasharray:3.7,1.6;stroke-dashoffset:0;"/>
     </g>
     <g id="line2d_34">
      <g>
       <use style="stroke:#000000;stroke-width:0.8;" x="37.78" xlink:href="#mbaa947cf8d" y="41.062758"/>
      </g>
     </g>
     <g id="text_17">
      <!-- 17.5 -->
      <g transform="translate(11.587813 44.699477)scale(0.1 -0.1)">
       <use xlink:href="#Inter-Regular-49"/>
       <use x="46.448868" xlink:href="#Inter-Regular-55"/>
       <use x="103.551147" xlink:href="#Inter-Regular-46"/>
       <use x="131.107971" xlink:href="#Inter-Regular-53"/>
      </g>
     </g>
    </g>
   </g>
   <g id="line2d_35">
    <path clip-path="url(#p40efd088ec)" d="M 37.78 265.983682 
L 102.374375 228.67873 
L 104.95815 225.634646 
L 107.541925 222.471186 
L 112.709475 232.433851 
L 115.29325 244.340387 
L 117.877025 258.118176 
L 121.752688 278.493892 
L 132.087788 297.7767 
L 135.96345 297.901403 
L 138.547225 296.98941 
L 141.131 295.281316 
L 146.29855 292.10476 
L 148.882325 291.083759 
L 156.63365 285.524107 
L 159.217425 282.838673 
L 166.96875 272.285724 
L 169.552525 267.935858 
L 174.720075 269.844558 
L 178.595737 278.440869 
L 182.4714 285.434739 
L 186.347062 290.826169 
L 204.433488 282.030116 
L 208.30915 270.568356 
L 218.64425 274.65628 
L 222.519913 287.328999 
L 240.606338 292.344752 
L 244.482 283.277255 
L 254.8171 279.613813 
L 258.692763 287.644574 
L 276.779188 283.356676 
L 280.65485 272.127652 
L 290.98995 275.494952 
L 294.865613 287.703371 
L 303.908825 297.723149 
L 312.952038 287.703371 
L 316.8277 275.494952 
L 327.1628 272.127652 
L 331.038463 283.356676 
L 349.124888 287.644574 
L 353.00055 279.613813 
L 363.33565 283.277255 
L 367.211313 292.344752 
L 385.297738 287.328999 
L 389.1734 274.65628 
L 399.5085 270.568356 
L 403.384163 282.030116 
L 421.470588 290.826169 
L 425.34625 285.434739 
L 429.221913 278.440869 
L 433.097575 269.844558 
L 438.265125 267.935858 
L 440.8489 272.285724 
L 448.600225 282.838673 
L 451.184 285.524107 
L 458.935325 291.083759 
L 461.5191 292.10476 
L 466.68665 295.281316 
L 469.270425 296.98941 
L 471.8542 297.901403 
L 475.729863 297.7767 
L 486.064963 278.493892 
L 489.940625 258.118176 
L 492.5244 244.340387 
L 495.108175 232.433851 
L 500.275725 222.471186 
L 502.8595 225.634646 
L 505.443275 228.67873 
L 570.03765 265.983682 
" style="fill:none;stroke:#ef4444;stroke-linecap:square;stroke-width:1.5;"/>
   </g>
   <g id="line2d_36">
    <path clip-path="url(#p40efd088ec)" d="M 37.78 232.941425 
L 102.374375 213.05021 
L 104.95815 211.427087 
L 107.541925 209.740312 
L 112.709475 184.708194 
L 115.29325 158.346752 
L 117.877025 119.367353 
L 121.752688 33.451286 
L 132.087788 24.750909 
L 135.96345 107.070164 
L 138.547225 153.950303 
L 141.131 194.430952 
L 146.29855 239.312712 
L 148.882325 249.921786 
L 156.63365 275.565795 
L 159.217425 282.052727 
L 166.96875 295.330309 
L 169.552525 297.695099 
L 174.720075 297.851804 
L 178.595737 294.204395 
L 182.4714 288.292975 
L 186.347062 280.117546 
L 204.433488 274.792657 
L 208.30915 282.310985 
L 218.64425 275.300748 
L 222.519913 259.632288 
L 240.606338 260.893463 
L 244.482 276.667592 
L 254.8171 284.263566 
L 258.692763 277.403412 
L 276.779188 288.510178 
L 280.65485 295.869243 
L 290.98995 295.515923 
L 294.865613 287.74452 
L 303.908825 273.708192 
L 312.952038 287.74452 
L 316.8277 295.515923 
L 327.1628 295.869243 
L 331.038463 288.510178 
L 349.124888 277.403412 
L 353.00055 284.263566 
L 363.33565 276.667592 
L 367.211313 260.893463 
L 385.297738 259.632288 
L 389.1734 275.300748 
L 399.5085 282.310985 
L 403.384163 274.792657 
L 421.470588 280.117546 
L 425.34625 288.292975 
L 429.221913 294.204395 
L 433.097575 297.851804 
L 438.265125 297.695099 
L 440.8489 295.330309 
L 448.600225 282.052727 
L 451.184 275.565795 
L 458.935325 249.921786 
L 461.5191 239.312712 
L 466.68665 194.430952 
L 469.270425 153.950303 
L 471.8542 107.070164 
L 475.729863 24.750909 
L 486.064963 33.451286 
L 489.940625 119.367353 
L 492.5244 158.346752 
L 495.108175 184.708194 
L 500.275725 209.740312 
L 502.8595 211.427087 
L 505.443275 213.05021 
L 570.03765 232.941425 
" style="fill:none;stroke:#1d4ed8;stroke-linecap:square;stroke-width:1.5;"/>
   </g>
   <g id="line2d_37">
    <path clip-path="url(#p40efd088ec)" d="M 37.78 303.769091 
L 102.374375 303.769091 
L 104.95815 303.769091 
L 107.541925 303.769091 
L 112.709475 303.764776 
L 115.29325 303.760537 
L 117.877025 303.755345 
L 121.752688 303.746205 
L 132.087788 293.863191 
L 135.96345 285.95505 
L 138.547225 280.682956 
L 141.131 275.410862 
L 146.29855 268.602415 
L 148.882325 267.202348 
L 156.63365 263.002149 
L 159.217425 261.602083 
L 166.96875 257.401883 
L 169.552525 256.001817 
L 174.720075 260.558178 
L 178.595737 269.315198 
L 182.4714 278.072217 
L 186.347062 286.829237 
L 204.433488 287.99725 
L 208.30915 279.801184 
L 218.64425 278.256531 
L 222.519913 285.402656 
L 240.606338 274.419001 
L 244.482 261.932832 
L 254.8171 260.587222 
L 258.692763 272.161405 
L 276.779188 273.278052 
L 280.65485 262.253058 
L 290.98995 263.562891 
L 294.865613 275.47716 
L 303.908825 288.717125 
L 312.952038 275.47716 
L 316.8277 263.562891 
L 327.1628 262.253058 
L 331.038463 273.278052 
L 349.124888 272.161405 
L 353.00055 260.587222 
L 363.33565 261.932832 
L 367.211313 274.419001 
L 385.297738 285.402656 
L 389.1734 278.256531 
L 399.5085 279.801184 
L 403.384163 287.99725 
L 421.470588 286.829237 
L 425.34625 278.072217 
L 429.221913 269.315198 
L 433.097575 260.558178 
L 438.265125 256.001817 
L 440.8489 257.401883 
L 448.600225 261.602083 
L 451.184 263.002149 
L 458.935325 267.202348 
L 461.5191 268.602415 
L 466.68665 275.410862 
L 469.270425 280.682956 
L 471.8542 285.95505 
L 475.729863 293.863191 
L 486.064963 303.746205 
L 489.940625 303.755345 
L 492.5244 303.760537 
L 495.108175 303.764776 
L 500.275725 303.769091 
L 502.8595 303.769091 
L 505.443275 303.769091 
L 570.03765 303.769091 
" style="fill:none;stroke:#10b981;stroke-linecap:square;stroke-width:1.5;"/>
   </g>
   <g id="patch_3">
    <path d="M 37.78 317.72 
L 37.78 10.8 
" style="fill:none;stroke:#000000;stroke-linecap:square;stroke-linejoin:miter;stroke-width:0.8;"/>
   </g>
   <g id="patch_4">
    <path d="M 554.535 317.72 
L 554.535 10.8 
" style="fill:none;stroke:#000000;stroke-linecap:square;stroke-linejoin:miter;stroke-width:0.8;"/>
   </g>
   <g id="patch_5">
    <path d="M 37.78 317.72 
L 554.535 317.72 
" style="fill:none;stroke:#000000;stroke-linecap:square;stroke-linejoin:miter;stroke-width:0.8;"/>
   </g>
   <g id="patch_6">
    <path d="M 37.78 10.8 
L 554.535 10.8 
" style="fill:none;stroke:#000000;stroke-linecap:square;stroke-linejoin:miter;stroke-width:0.8;"/>
   </g>
  </g>
 </g>
 <defs>
  <clipPath id="p40efd088ec">
   <rect height="306.92" width="516.755" x="37.78" y="10.8"/>
  </clipPath>
 </defs>
</svg>
