<?xml version="1.0" encoding="utf-8" standalone="no"?>
<!DOCTYPE svg PUBLIC "-//W3C//DTD SVG 1.1//EN"
  "http://www.w3.org/Graphics/SVG/1.1/DTD/svg11.dtd">
<!-- Created with matplotlib (https://matplotlib.org/) -->
<svg height="345.6pt" version="1.1" viewBox="0 0 576 345.6" width="576pt" xmlns="http://www.w3.org/2000/svg" xmlns:xlink="http://www.w3.org/1999/xlink">
 <metadata>
  <rdf:RDF xmlns:cc="http://creativecommons.org/ns#" xmlns:dc="http://purl.org/dc/elements/1.1/" xmlns:rdf="http://www.w3.org/1999/02/22-rdf-syntax-ns#">
   <cc:Work>
    <dc:type rdf:resource="http://purl.org/dc/dcmitype/StillImage"/>
    <dc:date>2020-12-15T10:10:55.505174</dc:date>
    <dc:format>image/svg+xml</dc:format>
    <dc:creator>
     <cc:Agent>
      <dc:title>Matplotlib v3.3.3, https://matplotlib.org/</dc:title>
     </cc:Agent>
    </dc:creator>
   </cc:Work>
  </rdf:RDF>
 </metadata>
 <defs>
  <style type="text/css">*{stroke-linecap:butt;stroke-linejoin:round;}</style>
 </defs>
 <g id="figure_1">
  <g id="patch_1">
   <path d="M 0 345.6 
L 576 345.6 
L 576 0 
L 0 0 
z
" style="fill:#ffffff;"/>
  </g>
  <g id="axes_1">
   <g id="patch_2">
    <path d="M 43.27 317.72 
L 565.2 317.72 
L 565.2 10.8 
L 43.27 10.8 
z
" style="fill:#ffffff;"/>
   </g>
   <g id="matplotlib.axis_1">
    <g id="xtick_1">
     <g id="line2d_1">
      <path clip-path="url(#p2d56d0db93)" d="M 66.994091 317.72 
L 66.994091 10.8 
" style="fill:none;stroke:#e5e7eb;stroke-dasharray:3.7,1.6;stroke-dashoffset:0;"/>
     </g>
     <g id="line2d_2">
      <defs>
       <path d="M 0 0 
L 0 3.5 
" id="ma70bb8af16" style="stroke:#000000;stroke-width:0.8;"/>
      </defs>
      <g>
       <use style="stroke:#000000;stroke-width:0.8;" x="66.994091" xlink:href="#ma70bb8af16" y="317.72"/>
      </g>
     </g>
     <g id="text_1">
      <!-- −0.020 -->
      <g transform="translate(49.919872 331.993437)scale(0.1 -0.1)">
       <defs>
        <path d="M 55.6875 32.390625 
L 10.234375 32.390625 
L 10.234375 24.4375 
L 55.6875 24.4375 
z
" id="Inter-Regular-8722"/>
        <path d="M 31.25 -1 
C 47.296875 -1 56.53125 12.609375 56.53125 36.359375 
C 56.53125 59.9375 47.15625 73.71875 31.25 73.71875 
C 15.34375 73.71875 5.96875 59.9375 5.96875 36.359375 
C 5.96875 12.609375 15.203125 -1 31.25 -1 
z
M 31.25 6.8125 
C 20.671875 6.8125 14.484375 17.4375 14.484375 36.359375 
C 14.484375 55.25 20.734375 66.046875 31.25 66.046875 
C 41.765625 66.046875 48.015625 55.25 48.015625 36.359375 
C 48.015625 17.4375 41.828125 6.8125 31.25 6.8125 
z
" id="Inter-Regular-48"/>
        <path d="M 13.78125 -0.5625 
C 17.296875 -0.5625 20.171875 2.3125 20.171875 5.828125 
C 20.171875 9.34375 17.296875 12.21875 13.78125 12.21875 
C 10.265625 12.21875 7.390625 9.34375 7.390625 5.828125 
C 7.390625 2.3125 10.265625 -0.5625 13.78125 -0.5625 
z
" id="Inter-Regular-46"/>
        <path d="M 7.53125 0 
L 53.40625 0 
L 53.40625 7.8125 
L 19.609375 7.8125 
L 19.609375 8.375 
L 35.9375 25.859375 
C 48.4375 39.234375 52.125 45.484375 52.125 53.546875 
C 52.125 64.765625 43.046875 73.71875 30.25 73.71875 
C 17.515625 73.71875 7.8125 65.0625 7.8125 52.265625 
L 16.1875 52.265625 
C 16.1875 60.546875 21.5625 66.046875 29.96875 66.046875 
C 37.859375 66.046875 43.890625 61.21875 43.890625 53.546875 
C 43.890625 46.84375 39.953125 41.875 31.53125 32.671875 
L 7.53125 6.390625 
z
" id="Inter-Regular-50"/>
       </defs>
       <use xlink:href="#Inter-Regular-8722"/>
       <use x="65.909103" xlink:href="#Inter-Regular-48"/>
       <use x="128.409119" xlink:href="#Inter-Regular-46"/>
       <use x="155.965942" xlink:href="#Inter-Regular-48"/>
       <use x="218.465958" xlink:href="#Inter-Regular-50"/>
       <use x="278.977341" xlink:href="#Inter-Regular-48"/>
      </g>
     </g>
    </g>
    <g id="xtick_2">
     <g id="line2d_3">
      <path clip-path="url(#p2d56d0db93)" d="M 126.304318 317.72 
L 126.304318 10.8 
" style="fill:none;stroke:#e5e7eb;stroke-dasharray:3.7,1.6;stroke-dashoffset:0;"/>
     </g>
     <g id="line2d_4">
      <g>
       <use style="stroke:#000000;stroke-width:0.8;" x="126.304318" xlink:href="#ma70bb8af16" y="317.72"/>
      </g>
     </g>
     <g id="text_2">
      <!-- −0.015 -->
      <g transform="translate(110.018381 331.993437)scale(0.1 -0.1)">
       <defs>
        <path d="M 33.09375 72.734375 
L 24.296875 72.734375 
L 6.109375 60.65625 
L 6.109375 51.703125 
L 23.859375 63.5 
L 24.296875 63.5 
L 24.296875 0 
L 33.09375 0 
z
" id="Inter-Regular-49"/>
        <path d="M 30.25 -1 
C 44.109375 -1 54.265625 9.234375 54.265625 23.15625 
C 54.265625 37.25 44.46875 47.578125 31.109375 47.578125 
C 26.203125 47.578125 21.453125 45.84375 18.46875 43.46875 
L 18.046875 43.46875 
L 20.59375 64.921875 
L 51 64.921875 
L 51 72.734375 
L 13.21875 72.734375 
L 8.8125 36.9375 
L 17.046875 35.9375 
C 20.0625 38.109375 25.21875 39.671875 29.6875 39.625 
C 38.953125 39.5625 45.734375 32.53125 45.734375 23.015625 
C 45.734375 13.671875 39.203125 6.8125 30.25 6.8125 
C 22.796875 6.8125 16.875 11.609375 16.1875 18.1875 
L 7.671875 18.1875 
C 8.203125 7.109375 17.75 -1 30.25 -1 
z
" id="Inter-Regular-53"/>
       </defs>
       <use xlink:href="#Inter-Regular-8722"/>
       <use x="65.909103" xlink:href="#Inter-Regular-48"/>
       <use x="128.409119" xlink:href="#Inter-Regular-46"/>
       <use x="155.965942" xlink:href="#Inter-Regular-48"/>
       <use x="218.465958" xlink:href="#Inter-Regular-49"/>
       <use x="264.914825" xlink:href="#Inter-Regular-53"/>
      </g>
     </g>
    </g>
    <g id="xtick_3">
     <g id="line2d_5">
      <path clip-path="url(#p2d56d0db93)" d="M 185.614545 317.72 
L 185.614545 10.8 
" style="fill:none;stroke:#e5e7eb;stroke-dasharray:3.7,1.6;stroke-dashoffset:0;"/>
     </g>
     <g id="line2d_6">
      <g>
       <use style="stroke:#000000;stroke-width:0.8;" x="185.614545" xlink:href="#ma70bb8af16" y="317.72"/>
      </g>
     </g>
     <g id="text_3">
      <!-- −0.010 -->
      <g transform="translate(169.243452 331.993437)scale(0.1 -0.1)">
       <use xlink:href="#Inter-Regular-8722"/>
       <use x="65.909103" xlink:href="#Inter-Regular-48"/>
       <use x="128.409119" xlink:href="#Inter-Regular-46"/>
       <use x="155.965942" xlink:href="#Inter-Regular-48"/>
       <use x="218.465958" xlink:href="#Inter-Regular-49"/>
       <use x="264.914825" xlink:href="#Inter-Regular-48"/>
      </g>
     </g>
    </g>
    <g id="xtick_4">
     <g id="line2d_7">
      <path clip-path="url(#p2d56d0db93)" d="M 244.924773 317.72 
L 244.924773 10.8 
" style="fill:none;stroke:#e5e7eb;stroke-dasharray:3.7,1.6;stroke-dashoffset:0;"/>
     </g>
     <g id="line2d_8">
      <g>
       <use style="stroke:#000000;stroke-width:0.8;" x="244.924773" xlink:href="#ma70bb8af16" y="317.72"/>
      </g>
     </g>
     <g id="text_4">
      <!-- −0.005 -->
      <g transform="translate(227.836491 331.993437)scale(0.1 -0.1)">
       <use xlink:href="#Inter-Regular-8722"/>
       <use x="65.909103" xlink:href="#Inter-Regular-48"/>
       <use x="128.409119" xlink:href="#Inter-Regular-46"/>
       <use x="155.965942" xlink:href="#Inter-Regular-48"/>
       <use x="218.465958" xlink:href="#Inter-Regular-48"/>
       <use x="280.965973" xlink:href="#Inter-Regular-53"/>
      </g>
     </g>
    </g>
    <g id="xtick_5">
     <g id="line2d_9">
      <path clip-path="url(#p2d56d0db93)" d="M 304.235 317.72 
L 304.235 10.8 
" style="fill:none;stroke:#e5e7eb;stroke-dasharray:3.7,1.6;stroke-dashoffset:0;"/>
     </g>
     <g id="line2d_10">
      <g>
       <use style="stroke:#000000;stroke-width:0.8;" x="304.235" xlink:href="#ma70bb8af16" y="317.72"/>
      </g>
     </g>
     <g id="text_5">
      <!-- 0.000 -->
      <g transform="translate(290.356875 331.993437)scale(0.1 -0.1)">
       <use xlink:href="#Inter-Regular-48"/>
       <use x="62.500015" xlink:href="#Inter-Regular-46"/>
       <use x="90.056839" xlink:href="#Inter-Regular-48"/>
       <use x="152.556854" xlink:href="#Inter-Regular-48"/>
       <use x="215.05687" xlink:href="#Inter-Regular-48"/>
      </g>
     </g>
    </g>
    <g id="xtick_6">
     <g id="line2d_11">
      <path clip-path="url(#p2d56d0db93)" d="M 363.545227 317.72 
L 363.545227 10.8 
" style="fill:none;stroke:#e5e7eb;stroke-dasharray:3.7,1.6;stroke-dashoffset:0;"/>
     </g>
     <g id="line2d_12">
      <g>
       <use style="stroke:#000000;stroke-width:0.8;" x="363.545227" xlink:href="#ma70bb8af16" y="317.72"/>
      </g>
     </g>
     <g id="text_6">
      <!-- 0.005 -->
      <g transform="translate(349.752259 331.993437)scale(0.1 -0.1)">
       <use xlink:href="#Inter-Regular-48"/>
       <use x="62.500015" xlink:href="#Inter-Regular-46"/>
       <use x="90.056839" xlink:href="#Inter-Regular-48"/>
       <use x="152.556854" xlink:href="#Inter-Regular-48"/>
       <use x="215.05687" xlink:href="#Inter-Regular-53"/>
      </g>
     </g>
    </g>
    <g id="xtick_7">
     <g id="line2d_13">
      <path clip-path="url(#p2d56d0db93)" d="M 422.855455 317.72 
L 422.855455 10.8 
" style="fill:none;stroke:#e5e7eb;stroke-dasharray:3.7,1.6;stroke-dashoffset:0;"/>
     </g>
     <g id="line2d_14">
      <g>
       <use style="stroke:#000000;stroke-width:0.8;" x="422.855455" xlink:href="#ma70bb8af16" y="317.72"/>
      </g>
     </g>
     <g id="text_7">
      <!-- 0.010 -->
      <g transform="translate(409.779673 331.993437)scale(0.1 -0.1)">
       <use xlink:href="#Inter-Regular-48"/>
       <use x="62.500015" xlink:href="#Inter-Regular-46"/>
       <use x="90.056839" xlink:href="#Inter-Regular-48"/>
       <use x="152.556854" xlink:href="#Inter-Regular-49"/>
       <use x="199.005722" xlink:href="#Inter-Regular-48"/>
      </g>
     </g>
    </g>
    <g id="xtick_8">
     <g id="line2d_15">
      <path clip-path="url(#p2d56d0db93)" d="M 482.165682 317.72 
L 482.165682 10.8 
" style="fill:none;stroke:#e5e7eb;stroke-dasharray:3.7,1.6;stroke-dashoffset:0;"/>
     </g>
     <g id="line2d_16">
      <g>
       <use style="stroke:#000000;stroke-width:0.8;" x="482.165682" xlink:href="#ma70bb8af16" y="317.72"/>
      </g>
     </g>
     <g id="text_8">
      <!-- 0.015 -->
      <g transform="translate(469.175057 331.993437)scale(0.1 -0.1)">
       <use xlink:href="#Inter-Regular-48"/>
       <use x="62.500015" xlink:href="#Inter-Regular-46"/>
       <use x="90.056839" xlink:href="#Inter-Regular-48"/>
       <use x="152.556854" xlink:href="#Inter-Regular-49"/>
       <use x="199.005722" xlink:href="#Inter-Regular-53"/>
      </g>
     </g>
    </g>
    <g id="xtick_9">
     <g id="line2d_17">
      <path clip-path="url(#p2d56d0db93)" d="M 541.475909 317.72 
L 541.475909 10.8 
" style="fill:none;stroke:#e5e7eb;stroke-dasharray:3.7,1.6;stroke-dashoffset:0;"/>
     </g>
     <g id="line2d_18">
      <g>
       <use style="stroke:#000000;stroke-width:0.8;" x="541.475909" xlink:href="#ma70bb8af16" y="317.72"/>
      </g>
     </g>
     <g id="text_9">
      <!-- 0.020 -->
      <g transform="translate(527.697003 331.993437)scale(0.1 -0.1)">
       <use xlink:href="#Inter-Regular-48"/>
       <use x="62.500015" xlink:href="#Inter-Regular-46"/>
       <use x="90.056839" xlink:href="#Inter-Regular-48"/>
       <use x="152.556854" xlink:href="#Inter-Regular-50"/>
       <use x="213.068237" xlink:href="#Inter-Regular-48"/>
      </g>
     </g>
    </g>
   </g>
   <g id="matplotlib.axis_2">
    <g id="ytick_1">
     <g id="line2d_19">
      <path clip-path="url(#p2d56d0db93)" d="M 43.27 308.532209 
L 565.2 308.532209 
" style="fill:none;stroke:#e5e7eb;stroke-dasharray:3.7,1.6;stroke-dashoffset:0;"/>
     </g>
     <g id="line2d_20">
      <defs>
       <path d="M 0 0 
L -3.5 0 
" id="m4c70b5836e" style="stroke:#000000;stroke-width:0.8;"/>
      </defs>
      <g>
       <use style="stroke:#000000;stroke-width:0.8;" x="43.27" xlink:href="#m4c70b5836e" y="308.532209"/>
      </g>
     </g>
     <g id="text_10">
      <!-- −400 -->
      <g transform="translate(10.759063 312.168928)scale(0.1 -0.1)">
       <defs>
        <path d="M 5.828125 14.921875 
L 40.0625 14.921875 
L 40.0625 0 
L 48.4375 0 
L 48.4375 14.921875 
L 58.375 14.921875 
L 58.375 22.734375 
L 48.4375 22.734375 
L 48.4375 72.734375 
L 37.78125 72.734375 
L 5.828125 22.15625 
z
M 15.34375 22.734375 
L 15.34375 23.296875 
L 39.484375 61.5 
L 40.0625 61.5 
L 40.0625 22.734375 
z
" id="Inter-Regular-52"/>
       </defs>
       <use xlink:href="#Inter-Regular-8722"/>
       <use x="65.909103" xlink:href="#Inter-Regular-52"/>
       <use x="130.113663" xlink:href="#Inter-Regular-48"/>
       <use x="192.613678" xlink:href="#Inter-Regular-48"/>
      </g>
     </g>
    </g>
    <g id="ytick_2">
     <g id="line2d_21">
      <path clip-path="url(#p2d56d0db93)" d="M 43.27 271.229197 
L 565.2 271.229197 
" style="fill:none;stroke:#e5e7eb;stroke-dasharray:3.7,1.6;stroke-dashoffset:0;"/>
     </g>
     <g id="line2d_22">
      <g>
       <use style="stroke:#000000;stroke-width:0.8;" x="43.27" xlink:href="#m4c70b5836e" y="271.229197"/>
      </g>
     </g>
     <g id="text_11">
      <!-- −300 -->
      <g transform="translate(10.815313 274.865916)scale(0.1 -0.1)">
       <defs>
        <path d="M 32.109375 -1 
C 46.203125 -1 56.671875 7.84375 56.671875 19.75 
C 56.671875 28.984375 51.203125 35.6875 42.046875 37.21875 
L 42.046875 37.78125 
C 49.390625 40.015625 53.984375 46.0625 53.984375 54.265625 
C 53.984375 64.5625 45.84375 73.71875 32.390625 73.71875 
C 19.8125 73.71875 9.375 65.984375 8.953125 54.546875 
L 17.46875 54.546875 
C 17.796875 61.796875 24.6875 66.046875 32.25 66.046875 
C 40.265625 66.046875 45.453125 61.1875 45.453125 53.828125 
C 45.453125 46.171875 39.453125 41.1875 30.828125 41.1875 
L 25 41.1875 
L 25 33.375 
L 30.828125 33.375 
C 41.875 33.375 48.015625 27.765625 48.015625 19.75 
C 48.015625 12.03125 41.296875 6.8125 31.96875 6.8125 
C 23.546875 6.8125 16.875 11.15625 16.34375 18.1875 
L 7.390625 18.1875 
C 7.921875 6.75 18 -1 32.109375 -1 
z
" id="Inter-Regular-51"/>
       </defs>
       <use xlink:href="#Inter-Regular-8722"/>
       <use x="65.909103" xlink:href="#Inter-Regular-51"/>
       <use x="129.545486" xlink:href="#Inter-Regular-48"/>
       <use x="192.045502" xlink:href="#Inter-Regular-48"/>
      </g>
     </g>
    </g>
    <g id="ytick_3">
     <g id="line2d_23">
      <path clip-path="url(#p2d56d0db93)" d="M 43.27 233.926185 
L 565.2 233.926185 
" style="fill:none;stroke:#e5e7eb;stroke-dasharray:3.7,1.6;stroke-dashoffset:0;"/>
     </g>
     <g id="line2d_24">
      <g>
       <use style="stroke:#000000;stroke-width:0.8;" x="43.27" xlink:href="#m4c70b5836e" y="233.926185"/>
      </g>
     </g>
     <g id="text_12">
      <!-- −200 -->
      <g transform="translate(11.127813 237.562904)scale(0.1 -0.1)">
       <use xlink:href="#Inter-Regular-8722"/>
       <use x="65.909103" xlink:href="#Inter-Regular-50"/>
       <use x="126.420486" xlink:href="#Inter-Regular-48"/>
       <use x="188.920502" xlink:href="#Inter-Regular-48"/>
      </g>
     </g>
    </g>
    <g id="ytick_4">
     <g id="line2d_25">
      <path clip-path="url(#p2d56d0db93)" d="M 43.27 196.623173 
L 565.2 196.623173 
" style="fill:none;stroke:#e5e7eb;stroke-dasharray:3.7,1.6;stroke-dashoffset:0;"/>
     </g>
     <g id="line2d_26">
      <g>
       <use style="stroke:#000000;stroke-width:0.8;" x="43.27" xlink:href="#m4c70b5836e" y="196.623173"/>
      </g>
     </g>
     <g id="text_13">
      <!-- −100 -->
      <g transform="translate(12.534063 200.259892)scale(0.1 -0.1)">
       <use xlink:href="#Inter-Regular-8722"/>
       <use x="65.909103" xlink:href="#Inter-Regular-49"/>
       <use x="112.357971" xlink:href="#Inter-Regular-48"/>
       <use x="174.857986" xlink:href="#Inter-Regular-48"/>
      </g>
     </g>
    </g>
    <g id="ytick_5">
     <g id="line2d_27">
      <path clip-path="url(#p2d56d0db93)" d="M 43.27 159.320161 
L 565.2 159.320161 
" style="fill:none;stroke:#e5e7eb;stroke-dasharray:3.7,1.6;stroke-dashoffset:0;"/>
     </g>
     <g id="line2d_28">
      <g>
       <use style="stroke:#000000;stroke-width:0.8;" x="43.27" xlink:href="#m4c70b5836e" y="159.320161"/>
      </g>
     </g>
     <g id="text_14">
      <!-- 0 -->
      <g transform="translate(30.02 162.95688)scale(0.1 -0.1)">
       <use xlink:href="#Inter-Regular-48"/>
      </g>
     </g>
    </g>
    <g id="ytick_6">
     <g id="line2d_29">
      <path clip-path="url(#p2d56d0db93)" d="M 43.27 122.017149 
L 565.2 122.017149 
" style="fill:none;stroke:#e5e7eb;stroke-dasharray:3.7,1.6;stroke-dashoffset:0;"/>
     </g>
     <g id="line2d_30">
      <g>
       <use style="stroke:#000000;stroke-width:0.8;" x="43.27" xlink:href="#m4c70b5836e" y="122.017149"/>
      </g>
     </g>
     <g id="text_15">
      <!-- 100 -->
      <g transform="translate(19.124688 125.653868)scale(0.1 -0.1)">
       <use xlink:href="#Inter-Regular-49"/>
       <use x="46.448868" xlink:href="#Inter-Regular-48"/>
       <use x="108.948883" xlink:href="#Inter-Regular-48"/>
      </g>
     </g>
    </g>
    <g id="ytick_7">
     <g id="line2d_31">
      <path clip-path="url(#p2d56d0db93)" d="M 43.27 84.714137 
L 565.2 84.714137 
" style="fill:none;stroke:#e5e7eb;stroke-dasharray:3.7,1.6;stroke-dashoffset:0;"/>
     </g>
     <g id="line2d_32">
      <g>
       <use style="stroke:#000000;stroke-width:0.8;" x="43.27" xlink:href="#m4c70b5836e" y="84.714137"/>
      </g>
     </g>
     <g id="text_16">
      <!-- 200 -->
      <g transform="translate(17.718438 88.350856)scale(0.1 -0.1)">
       <use xlink:href="#Inter-Regular-50"/>
       <use x="60.511383" xlink:href="#Inter-Regular-48"/>
       <use x="123.011398" xlink:href="#Inter-Regular-48"/>
      </g>
     </g>
    </g>
    <g id="ytick_8">
     <g id="line2d_33">
      <path clip-path="url(#p2d56d0db93)" d="M 43.27 47.411125 
L 565.2 47.411125 
" style="fill:none;stroke:#e5e7eb;stroke-dasharray:3.7,1.6;stroke-dashoffset:0;"/>
     </g>
     <g id="line2d_34">
      <g>
       <use style="stroke:#000000;stroke-width:0.8;" x="43.27" xlink:href="#m4c70b5836e" y="47.411125"/>
      </g>
     </g>
     <g id="text_17">
      <!-- 300 -->
      <g transform="translate(17.405938 51.047844)scale(0.1 -0.1)">
       <use xlink:href="#Inter-Regular-51"/>
       <use x="63.636383" xlink:href="#Inter-Regular-48"/>
       <use x="126.136398" xlink:href="#Inter-Regular-48"/>
      </g>
     </g>
    </g>
   </g>
   <g id="line2d_35">
    <path clip-path="url(#p2d56d0db93)" d="M 66.994091 157.661753 
L 71.786837 157.729953 
L 76.579582 157.796206 
L 81.372328 157.860543 
L 86.165073 157.922998 
L 90.957819 157.983603 
L 95.750565 158.042391 
L 100.54331 158.099394 
L 105.336056 158.154645 
L 110.128802 158.208177 
L 114.921547 158.260022 
L 119.714293 158.310214 
L 124.507039 158.358784 
L 129.299784 158.405765 
L 134.09253 158.45119 
L 138.885275 158.495092 
L 143.678021 158.537504 
L 148.470767 158.578457 
L 153.263512 158.617985 
L 158.056258 158.65612 
L 162.849004 158.692895 
L 167.641749 158.728343 
L 172.434495 158.762496 
L 177.227241 158.795387 
L 182.019986 158.827049 
L 186.812732 158.857513 
L 191.605478 158.886814 
L 196.398223 158.914983 
L 201.190969 158.942053 
L 205.983714 158.968057 
L 210.77646 158.993028 
L 215.569206 159.016998 
L 220.361951 159.039999 
L 225.154697 159.062065 
L 229.947443 159.083228 
L 234.740188 159.103521 
L 239.532934 159.122977 
L 244.32568 159.141627 
L 249.118425 159.159505 
L 253.911171 159.176644 
L 258.703916 159.193076 
L 263.496662 159.208833 
L 268.289408 159.223949 
L 273.082153 159.238456 
L 277.874899 159.252386 
L 282.667645 159.265773 
L 287.46039 159.278649 
L 292.253136 159.291046 
L 297.045882 159.302998 
L 301.838627 159.314536 
L 306.631373 159.325695 
L 311.424118 159.336505 
L 316.216864 159.347001 
L 321.00961 159.357214 
L 325.802355 159.367177 
L 330.595101 159.376923 
L 335.387847 159.386485 
L 340.180592 159.395895 
L 344.973338 159.405186 
L 349.766084 159.41439 
L 354.558829 159.423541 
L 359.351575 159.43267 
L 364.14432 159.441811 
L 368.937066 159.450996 
L 373.729812 159.460257 
L 378.522557 159.469629 
L 383.315303 159.479142 
L 388.108049 159.48883 
L 392.900794 159.498726 
L 397.69354 159.508861 
L 402.486286 159.519269 
L 407.279031 159.529983 
L 412.071777 159.541035 
L 416.864522 159.552457 
L 421.657268 159.564283 
L 426.450014 159.576545 
L 431.242759 159.589275 
L 436.035505 159.602507 
L 440.828251 159.616273 
L 445.620996 159.630605 
L 450.413742 159.645537 
L 455.206488 159.661101 
L 459.999233 159.677329 
L 464.791979 159.694254 
L 469.584725 159.71191 
L 474.37747 159.730328 
L 479.170216 159.749541 
L 483.962961 159.769582 
L 488.755707 159.790484 
L 493.548453 159.812279 
L 498.341198 159.834999 
L 503.133944 159.858678 
L 507.92669 159.883349 
L 512.719435 159.909043 
L 517.512181 159.935793 
L 522.304927 159.963633 
L 527.097672 159.992595 
L 531.890418 160.022711 
L 536.683163 160.054014 
L 541.475909 160.086537 
" style="fill:none;stroke:#1f77b4;stroke-linecap:square;stroke-width:1.5;"/>
   </g>
   <g id="line2d_36">
    <path clip-path="url(#p2d56d0db93)" d="M 66.994091 303.769091 
L 71.786837 295.251984 
L 76.579582 287.075716 
L 81.372328 279.233341 
L 86.165073 271.717916 
L 90.957819 264.522495 
L 95.750565 257.640135 
L 100.54331 251.063892 
L 105.336056 244.786819 
L 110.128802 238.801974 
L 114.921547 233.102412 
L 119.714293 227.681187 
L 124.507039 222.531357 
L 129.299784 217.645975 
L 134.09253 213.018099 
L 138.885275 208.640783 
L 143.678021 204.507083 
L 148.470767 200.610054 
L 153.263512 196.942752 
L 158.056258 193.498233 
L 162.849004 190.269552 
L 167.641749 187.249764 
L 172.434495 184.431926 
L 177.227241 181.809092 
L 182.019986 179.374318 
L 186.812732 177.120661 
L 191.605478 175.041174 
L 196.398223 173.128915 
L 201.190969 171.376938 
L 205.983714 169.778299 
L 210.77646 168.326053 
L 215.569206 167.013256 
L 220.361951 165.832964 
L 225.154697 164.778232 
L 229.947443 163.842116 
L 234.740188 163.017671 
L 239.532934 162.297953 
L 244.32568 161.676017 
L 249.118425 161.144919 
L 253.911171 160.697714 
L 258.703916 160.327458 
L 263.496662 160.027207 
L 268.289408 159.790015 
L 273.082153 159.608939 
L 277.874899 159.477035 
L 282.667645 159.387356 
L 287.46039 159.33296 
L 292.253136 159.306902 
L 297.045882 159.302237 
L 301.838627 159.312021 
L 306.631373 159.329309 
L 311.424118 159.347157 
L 316.216864 159.358621 
L 321.00961 159.356755 
L 325.802355 159.334616 
L 330.595101 159.285259 
L 335.387847 159.201739 
L 340.180592 159.077113 
L 344.973338 158.904435 
L 349.766084 158.676762 
L 354.558829 158.387148 
L 359.351575 158.02865 
L 364.14432 157.594322 
L 368.937066 157.077221 
L 373.729812 156.470402 
L 378.522557 155.76692 
L 383.315303 154.959832 
L 388.108049 154.042191 
L 392.900794 153.007055 
L 397.69354 151.847479 
L 402.486286 150.556518 
L 407.279031 149.127227 
L 412.071777 147.552663 
L 416.864522 145.82588 
L 421.657268 143.939935 
L 426.450014 141.887883 
L 431.242759 139.662779 
L 436.035505 137.25768 
L 440.828251 134.665639 
L 445.620996 131.879714 
L 450.413742 128.89296 
L 455.206488 125.698431 
L 459.999233 122.289185 
L 464.791979 118.658275 
L 469.584725 114.798758 
L 474.37747 110.70369 
L 479.170216 106.366125 
L 483.962961 101.77912 
L 488.755707 96.93573 
L 493.548453 91.82901 
L 498.341198 86.452017 
L 503.133944 80.797804 
L 507.92669 74.859429 
L 512.719435 68.629947 
L 517.512181 62.102413 
L 522.304927 55.269883 
L 527.097672 48.125411 
L 531.890418 40.662055 
L 536.683163 32.872869 
L 541.475909 24.750909 
" style="fill:none;stroke:#ff7f0e;stroke-linecap:square;stroke-width:1.5;"/>
   </g>
   <g id="patch_3">
    <path d="M 43.27 317.72 
L 43.27 10.8 
" style="fill:none;stroke:#000000;stroke-linecap:square;stroke-linejoin:miter;stroke-width:0.8;"/>
   </g>
   <g id="patch_4">
    <path d="M 565.2 317.72 
L 565.2 10.8 
" style="fill:none;stroke:#000000;stroke-linecap:square;stroke-linejoin:miter;stroke-width:0.8;"/>
   </g>
   <g id="patch_5">
    <path d="M 43.27 317.72 
L 565.2 317.72 
" style="fill:none;stroke:#000000;stroke-linecap:square;stroke-linejoin:miter;stroke-width:0.8;"/>
   </g>
   <g id="patch_6">
    <path d="M 43.27 10.8 
L 565.2 10.8 
" style="fill:none;stroke:#000000;stroke-linecap:square;stroke-linejoin:miter;stroke-width:0.8;"/>
   </g>
   <g id="legend_1">
    <g id="patch_7">
     <path d="M 50.27 47.4375 
L 99.5075 47.4375 
Q 101.5075 47.4375 101.5075 45.4375 
L 101.5075 17.8 
Q 101.5075 15.8 99.5075 15.8 
L 50.27 15.8 
Q 48.27 15.8 48.27 17.8 
L 48.27 45.4375 
Q 48.27 47.4375 50.27 47.4375 
z
" style="fill:#ffffff;opacity:0.8;stroke:#cccccc;stroke-linejoin:miter;"/>
    </g>
    <g id="line2d_37">
     <path d="M 52.27 23.573438 
L 72.27 23.573438 
" style="fill:none;stroke:#1f77b4;stroke-linecap:square;stroke-width:1.5;"/>
    </g>
    <g id="line2d_38"/>
    <g id="text_18">
     <!-- nux -->
     <g transform="translate(80.27 27.073438)scale(0.1 -0.1)">
      <defs>
       <path d="M 16.046875 32.8125 
C 16.046875 42.328125 21.953125 47.734375 29.96875 47.734375 
C 37.75 47.734375 42.46875 42.65625 42.46875 34.09375 
L 42.46875 0 
L 50.859375 0 
L 50.859375 34.65625 
C 50.859375 48.578125 43.4375 55.25 32.390625 55.25 
C 24.15625 55.25 19.03125 51.5625 16.484375 46.015625 
L 15.765625 46.015625 
L 15.765625 54.546875 
L 7.671875 54.546875 
L 7.671875 0 
L 16.046875 0 
z
" id="Inter-Regular-110"/>
       <path d="M 42.046875 22.296875 
C 42.046875 12.078125 34.234375 7.390625 27.984375 7.390625 
C 21.03125 7.390625 16.046875 12.5 16.046875 20.453125 
L 16.046875 54.546875 
L 7.671875 54.546875 
L 7.671875 19.890625 
C 7.671875 5.96875 15.0625 -0.703125 25.28125 -0.703125 
C 33.53125 -0.703125 38.921875 3.6875 41.484375 9.234375 
L 42.046875 9.234375 
L 42.046875 0 
L 50.421875 0 
L 50.421875 54.546875 
L 42.046875 54.546875 
z
" id="Inter-Regular-117"/>
       <path d="M 13.921875 54.546875 
L 4.265625 54.546875 
L 21.59375 27.265625 
L 4.265625 0 
L 13.921875 0 
L 26.984375 21.171875 
L 40.0625 0 
L 49.71875 0 
L 32.109375 27.265625 
L 49.71875 54.546875 
L 40.0625 54.546875 
L 26.984375 32.25 
z
" id="Inter-Regular-120"/>
      </defs>
      <use xlink:href="#Inter-Regular-110"/>
      <use x="58.522736" xlink:href="#Inter-Regular-117"/>
      <use x="116.619339" xlink:href="#Inter-Regular-120"/>
     </g>
    </g>
    <g id="line2d_39">
     <path d="M 52.27 37.892188 
L 72.27 37.892188 
" style="fill:none;stroke:#ff7f0e;stroke-linecap:square;stroke-width:1.5;"/>
    </g>
    <g id="line2d_40"/>
    <g id="text_19">
     <!-- nuy -->
     <g transform="translate(80.27 41.392188)scale(0.1 -0.1)">
      <defs>
       <path d="M 13.0625 -20.3125 
C 20.640625 -20.3125 26 -16.296875 29.125 -7.953125 
L 52.34375 54.40625 
L 43.1875 54.546875 
L 28.125 11.078125 
L 27.5625 11.078125 
L 12.5 54.546875 
L 3.40625 54.546875 
L 23.578125 -0.28125 
L 22.015625 -4.546875 
C 19.03125 -12.71875 15.203125 -13.5 9.09375 -11.9375 
L 6.96875 -19.3125 
C 7.8125 -19.75 10.234375 -20.3125 13.0625 -20.3125 
z
" id="Inter-Regular-121"/>
      </defs>
      <use xlink:href="#Inter-Regular-110"/>
      <use x="58.522736" xlink:href="#Inter-Regular-117"/>
      <use x="116.619339" xlink:href="#Inter-Regular-121"/>
     </g>
    </g>
   </g>
  </g>
 </g>
 <defs>
  <clipPath id="p2d56d0db93">
   <rect height="306.92" width="521.93" x="43.27" y="10.8"/>
  </clipPath>
 </defs>
</svg>
