<?xml version="1.0" encoding="utf-8" standalone="no"?>
<!DOCTYPE svg PUBLIC "-//W3C//DTD SVG 1.1//EN"
  "http://www.w3.org/Graphics/SVG/1.1/DTD/svg11.dtd">
<!-- Created with matplotlib (https://matplotlib.org/) -->
<svg height="345.6pt" version="1.1" viewBox="0 0 576 345.6" width="576pt" xmlns="http://www.w3.org/2000/svg" xmlns:xlink="http://www.w3.org/1999/xlink">
 <metadata>
  <rdf:RDF xmlns:cc="http://creativecommons.org/ns#" xmlns:dc="http://purl.org/dc/elements/1.1/" xmlns:rdf="http://www.w3.org/1999/02/22-rdf-syntax-ns#">
   <cc:Work>
    <dc:type rdf:resource="http://purl.org/dc/dcmitype/StillImage"/>
    <dc:date>2020-12-15T10:10:55.300313</dc:date>
    <dc:format>image/svg+xml</dc:format>
    <dc:creator>
     <cc:Agent>
      <dc:title>Matplotlib v3.3.3, https://matplotlib.org/</dc:title>
     </cc:Agent>
    </dc:creator>
   </cc:Work>
  </rdf:RDF>
 </metadata>
 <defs>
  <style type="text/css">*{stroke-linecap:butt;stroke-linejoin:round;}</style>
 </defs>
 <g id="figure_1">
  <g id="patch_1">
   <path d="M 0 345.6 
L 576 345.6 
L 576 0 
L 0 0 
z
" style="fill:#ffffff;"/>
  </g>
  <g id="axes_1">
   <g id="patch_2">
    <path d="M 30.13 317.72 
L 559.818 317.72 
L 559.818 51.0736 
L 30.13 51.0736 
z
" style="fill:#ffffff;"/>
   </g>
   <g id="matplotlib.axis_1">
    <g id="xtick_1">
     <g id="line2d_1">
      <path clip-path="url(#p080bee9368)" d="M 30.13 317.72 
L 30.13 51.0736 
" style="fill:none;stroke:#e5e7eb;stroke-dasharray:3.7,1.6;stroke-dashoffset:0;"/>
     </g>
     <g id="line2d_2">
      <defs>
       <path d="M 0 0 
L 0 3.5 
" id="mb8b79ebb4c" style="stroke:#000000;stroke-width:0.8;"/>
      </defs>
      <g>
       <use style="stroke:#000000;stroke-width:0.8;" x="30.13" xlink:href="#mb8b79ebb4c" y="317.72"/>
      </g>
     </g>
     <g id="text_1">
      <!-- 0 -->
      <g transform="translate(27.005 331.993437)scale(0.1 -0.1)">
       <defs>
        <path d="M 31.25 -1 
C 47.296875 -1 56.53125 12.609375 56.53125 36.359375 
C 56.53125 59.9375 47.15625 73.71875 31.25 73.71875 
C 15.34375 73.71875 5.96875 59.9375 5.96875 36.359375 
C 5.96875 12.609375 15.203125 -1 31.25 -1 
z
M 31.25 6.8125 
C 20.671875 6.8125 14.484375 17.4375 14.484375 36.359375 
C 14.484375 55.25 20.734375 66.046875 31.25 66.046875 
C 41.765625 66.046875 48.015625 55.25 48.015625 36.359375 
C 48.015625 17.4375 41.828125 6.8125 31.25 6.8125 
z
" id="Inter-Regular-48"/>
       </defs>
       <use xlink:href="#Inter-Regular-48"/>
      </g>
     </g>
    </g>
    <g id="xtick_2">
     <g id="line2d_3">
      <path clip-path="url(#p080bee9368)" d="M 100.755067 317.72 
L 100.755067 51.0736 
" style="fill:none;stroke:#e5e7eb;stroke-dasharray:3.7,1.6;stroke-dashoffset:0;"/>
     </g>
     <g id="line2d_4">
      <g>
       <use style="stroke:#000000;stroke-width:0.8;" x="100.755067" xlink:href="#mb8b79ebb4c" y="317.72"/>
      </g>
     </g>
     <g id="text_2">
      <!-- 2 -->
      <g transform="translate(97.729285 331.993437)scale(0.1 -0.1)">
       <defs>
        <path d="M 7.53125 0 
L 53.40625 0 
L 53.40625 7.8125 
L 19.609375 7.8125 
L 19.609375 8.375 
L 35.9375 25.859375 
C 48.4375 39.234375 52.125 45.484375 52.125 53.546875 
C 52.125 64.765625 43.046875 73.71875 30.25 73.71875 
C 17.515625 73.71875 7.8125 65.0625 7.8125 52.265625 
L 16.1875 52.265625 
C 16.1875 60.546875 21.5625 66.046875 29.96875 66.046875 
C 37.859375 66.046875 43.890625 61.21875 43.890625 53.546875 
C 43.890625 46.84375 39.953125 41.875 31.53125 32.671875 
L 7.53125 6.390625 
z
" id="Inter-Regular-50"/>
       </defs>
       <use xlink:href="#Inter-Regular-50"/>
      </g>
     </g>
    </g>
    <g id="xtick_3">
     <g id="line2d_5">
      <path clip-path="url(#p080bee9368)" d="M 171.380133 317.72 
L 171.380133 51.0736 
" style="fill:none;stroke:#e5e7eb;stroke-dasharray:3.7,1.6;stroke-dashoffset:0;"/>
     </g>
     <g id="line2d_6">
      <g>
       <use style="stroke:#000000;stroke-width:0.8;" x="171.380133" xlink:href="#mb8b79ebb4c" y="317.72"/>
      </g>
     </g>
     <g id="text_3">
      <!-- 4 -->
      <g transform="translate(168.169977 331.993437)scale(0.1 -0.1)">
       <defs>
        <path d="M 5.828125 14.921875 
L 40.0625 14.921875 
L 40.0625 0 
L 48.4375 0 
L 48.4375 14.921875 
L 58.375 14.921875 
L 58.375 22.734375 
L 48.4375 22.734375 
L 48.4375 72.734375 
L 37.78125 72.734375 
L 5.828125 22.15625 
z
M 15.34375 22.734375 
L 15.34375 23.296875 
L 39.484375 61.5 
L 40.0625 61.5 
L 40.0625 22.734375 
z
" id="Inter-Regular-52"/>
       </defs>
       <use xlink:href="#Inter-Regular-52"/>
      </g>
     </g>
    </g>
    <g id="xtick_4">
     <g id="line2d_7">
      <path clip-path="url(#p080bee9368)" d="M 242.0052 317.72 
L 242.0052 51.0736 
" style="fill:none;stroke:#e5e7eb;stroke-dasharray:3.7,1.6;stroke-dashoffset:0;"/>
     </g>
     <g id="line2d_8">
      <g>
       <use style="stroke:#000000;stroke-width:0.8;" x="242.0052" xlink:href="#mb8b79ebb4c" y="317.72"/>
      </g>
     </g>
     <g id="text_4">
      <!-- 6 -->
      <g transform="translate(238.887231 331.993437)scale(0.1 -0.1)">
       <defs>
        <path d="M 31.671875 -1 
C 46.375 -1.171875 55.96875 9.90625 55.96875 23.4375 
C 55.96875 37.5 45.5625 47.578125 33.09375 47.578125 
C 25.609375 47.578125 19.171875 43.921875 15.203125 37.921875 
L 14.625 37.921875 
C 14.671875 55.78125 21.5625 66.046875 32.8125 66.046875 
C 40.484375 66.046875 45.09375 61.21875 46.734375 54.546875 
L 55.40625 54.546875 
C 53.625 65.984375 45.03125 73.859375 32.8125 73.859375 
C 16.4375 73.859375 6.390625 59.375 6.390625 33.515625 
C 6.390625 6.640625 19.75 -0.859375 31.671875 -1 
z
M 31.671875 6.8125 
C 22.546875 6.8125 15.875 14.59375 15.90625 23.296875 
C 15.953125 32 22.9375 39.765625 31.96875 39.765625 
C 40.875 39.765625 47.4375 32.453125 47.4375 23.4375 
C 47.4375 14.203125 40.59375 6.8125 31.671875 6.8125 
z
" id="Inter-Regular-54"/>
       </defs>
       <use xlink:href="#Inter-Regular-54"/>
      </g>
     </g>
    </g>
    <g id="xtick_5">
     <g id="line2d_9">
      <path clip-path="url(#p080bee9368)" d="M 312.630267 317.72 
L 312.630267 51.0736 
" style="fill:none;stroke:#e5e7eb;stroke-dasharray:3.7,1.6;stroke-dashoffset:0;"/>
     </g>
     <g id="line2d_10">
      <g>
       <use style="stroke:#000000;stroke-width:0.8;" x="312.630267" xlink:href="#mb8b79ebb4c" y="317.72"/>
      </g>
     </g>
     <g id="text_5">
      <!-- 8 -->
      <g transform="translate(309.547454 331.993437)scale(0.1 -0.1)">
       <defs>
        <path d="M 30.828125 -1 
C 45.34375 -1 55.46875 7.5 55.546875 19.3125 
C 55.46875 28.515625 49.328125 36.328125 41.484375 37.78125 
L 41.484375 38.203125 
C 48.296875 39.984375 52.765625 46.65625 52.84375 54.40625 
C 52.765625 65.484375 43.46875 73.71875 30.828125 73.71875 
C 18.046875 73.71875 8.734375 65.484375 8.8125 54.40625 
C 8.734375 46.65625 13.21875 39.984375 20.171875 38.203125 
L 20.171875 37.78125 
C 12.1875 36.328125 6.03125 28.515625 6.109375 19.3125 
C 6.03125 7.5 16.15625 -1 30.828125 -1 
z
M 30.828125 41.328125 
C 22.875 41.328125 17.265625 46.3125 17.328125 53.828125 
C 17.265625 61.21875 22.65625 66.046875 30.828125 66.046875 
C 38.84375 66.046875 44.25 61.21875 44.3125 53.828125 
C 44.25 46.3125 38.640625 41.328125 30.828125 41.328125 
z
M 30.828125 6.8125 
C 20.84375 6.8125 14.703125 11.9375 14.78125 19.75 
C 14.703125 27.953125 21.484375 33.8125 30.828125 33.8125 
C 40.015625 33.8125 46.8125 27.953125 46.875 19.75 
C 46.8125 11.9375 40.65625 6.8125 30.828125 6.8125 
z
" id="Inter-Regular-56"/>
       </defs>
       <use xlink:href="#Inter-Regular-56"/>
      </g>
     </g>
    </g>
    <g id="xtick_6">
     <g id="line2d_11">
      <path clip-path="url(#p080bee9368)" d="M 383.255333 317.72 
L 383.255333 51.0736 
" style="fill:none;stroke:#e5e7eb;stroke-dasharray:3.7,1.6;stroke-dashoffset:0;"/>
     </g>
     <g id="line2d_12">
      <g>
       <use style="stroke:#000000;stroke-width:0.8;" x="383.255333" xlink:href="#mb8b79ebb4c" y="317.72"/>
      </g>
     </g>
     <g id="text_6">
      <!-- 10 -->
      <g transform="translate(377.807677 331.993437)scale(0.1 -0.1)">
       <defs>
        <path d="M 33.09375 72.734375 
L 24.296875 72.734375 
L 6.109375 60.65625 
L 6.109375 51.703125 
L 23.859375 63.5 
L 24.296875 63.5 
L 24.296875 0 
L 33.09375 0 
z
" id="Inter-Regular-49"/>
       </defs>
       <use xlink:href="#Inter-Regular-49"/>
       <use x="46.448868" xlink:href="#Inter-Regular-48"/>
      </g>
     </g>
    </g>
    <g id="xtick_7">
     <g id="line2d_13">
      <path clip-path="url(#p080bee9368)" d="M 453.8804 317.72 
L 453.8804 51.0736 
" style="fill:none;stroke:#e5e7eb;stroke-dasharray:3.7,1.6;stroke-dashoffset:0;"/>
     </g>
     <g id="line2d_14">
      <g>
       <use style="stroke:#000000;stroke-width:0.8;" x="453.8804" xlink:href="#mb8b79ebb4c" y="317.72"/>
      </g>
     </g>
     <g id="text_7">
      <!-- 12 -->
      <g transform="translate(448.531963 331.993437)scale(0.1 -0.1)">
       <use xlink:href="#Inter-Regular-49"/>
       <use x="46.448868" xlink:href="#Inter-Regular-50"/>
      </g>
     </g>
    </g>
    <g id="xtick_8">
     <g id="line2d_15">
      <path clip-path="url(#p080bee9368)" d="M 524.505467 317.72 
L 524.505467 51.0736 
" style="fill:none;stroke:#e5e7eb;stroke-dasharray:3.7,1.6;stroke-dashoffset:0;"/>
     </g>
     <g id="line2d_16">
      <g>
       <use style="stroke:#000000;stroke-width:0.8;" x="524.505467" xlink:href="#mb8b79ebb4c" y="317.72"/>
      </g>
     </g>
     <g id="text_8">
      <!-- 14 -->
      <g transform="translate(518.972654 331.993437)scale(0.1 -0.1)">
       <use xlink:href="#Inter-Regular-49"/>
       <use x="46.448868" xlink:href="#Inter-Regular-52"/>
      </g>
     </g>
    </g>
   </g>
   <g id="matplotlib.axis_2">
    <g id="ytick_1">
     <g id="line2d_17">
      <path clip-path="url(#p080bee9368)" d="M 30.13 306.148264 
L 559.818 306.148264 
" style="fill:none;stroke:#e5e7eb;stroke-dasharray:3.7,1.6;stroke-dashoffset:0;"/>
     </g>
     <g id="line2d_18">
      <defs>
       <path d="M 0 0 
L -3.5 0 
" id="mdc1783bfd5" style="stroke:#000000;stroke-width:0.8;"/>
      </defs>
      <g>
       <use style="stroke:#000000;stroke-width:0.8;" x="30.13" xlink:href="#mdc1783bfd5" y="306.148264"/>
      </g>
     </g>
     <g id="text_9">
      <!-- 0 -->
      <g transform="translate(16.88 309.784983)scale(0.1 -0.1)">
       <use xlink:href="#Inter-Regular-48"/>
      </g>
     </g>
    </g>
    <g id="ytick_2">
     <g id="line2d_19">
      <path clip-path="url(#p080bee9368)" d="M 30.13 255.261001 
L 559.818 255.261001 
" style="fill:none;stroke:#e5e7eb;stroke-dasharray:3.7,1.6;stroke-dashoffset:0;"/>
     </g>
     <g id="line2d_20">
      <g>
       <use style="stroke:#000000;stroke-width:0.8;" x="30.13" xlink:href="#mdc1783bfd5" y="255.261001"/>
      </g>
     </g>
     <g id="text_10">
      <!-- 5 -->
      <g transform="translate(17.050313 258.89772)scale(0.1 -0.1)">
       <defs>
        <path d="M 30.25 -1 
C 44.109375 -1 54.265625 9.234375 54.265625 23.15625 
C 54.265625 37.25 44.46875 47.578125 31.109375 47.578125 
C 26.203125 47.578125 21.453125 45.84375 18.46875 43.46875 
L 18.046875 43.46875 
L 20.59375 64.921875 
L 51 64.921875 
L 51 72.734375 
L 13.21875 72.734375 
L 8.8125 36.9375 
L 17.046875 35.9375 
C 20.0625 38.109375 25.21875 39.671875 29.6875 39.625 
C 38.953125 39.5625 45.734375 32.53125 45.734375 23.015625 
C 45.734375 13.671875 39.203125 6.8125 30.25 6.8125 
C 22.796875 6.8125 16.875 11.609375 16.1875 18.1875 
L 7.671875 18.1875 
C 8.203125 7.109375 17.75 -1 30.25 -1 
z
" id="Inter-Regular-53"/>
       </defs>
       <use xlink:href="#Inter-Regular-53"/>
      </g>
     </g>
    </g>
    <g id="ytick_3">
     <g id="line2d_21">
      <path clip-path="url(#p080bee9368)" d="M 30.13 204.373737 
L 559.818 204.373737 
" style="fill:none;stroke:#e5e7eb;stroke-dasharray:3.7,1.6;stroke-dashoffset:0;"/>
     </g>
     <g id="line2d_22">
      <g>
       <use style="stroke:#000000;stroke-width:0.8;" x="30.13" xlink:href="#mdc1783bfd5" y="204.373737"/>
      </g>
     </g>
     <g id="text_11">
      <!-- 10 -->
      <g transform="translate(12.234688 208.010456)scale(0.1 -0.1)">
       <use xlink:href="#Inter-Regular-49"/>
       <use x="46.448868" xlink:href="#Inter-Regular-48"/>
      </g>
     </g>
    </g>
    <g id="ytick_4">
     <g id="line2d_23">
      <path clip-path="url(#p080bee9368)" d="M 30.13 153.486474 
L 559.818 153.486474 
" style="fill:none;stroke:#e5e7eb;stroke-dasharray:3.7,1.6;stroke-dashoffset:0;"/>
     </g>
     <g id="line2d_24">
      <g>
       <use style="stroke:#000000;stroke-width:0.8;" x="30.13" xlink:href="#mdc1783bfd5" y="153.486474"/>
      </g>
     </g>
     <g id="text_12">
      <!-- 15 -->
      <g transform="translate(12.405 157.123192)scale(0.1 -0.1)">
       <use xlink:href="#Inter-Regular-49"/>
       <use x="46.448868" xlink:href="#Inter-Regular-53"/>
      </g>
     </g>
    </g>
    <g id="ytick_5">
     <g id="line2d_25">
      <path clip-path="url(#p080bee9368)" d="M 30.13 102.59921 
L 559.818 102.59921 
" style="fill:none;stroke:#e5e7eb;stroke-dasharray:3.7,1.6;stroke-dashoffset:0;"/>
     </g>
     <g id="line2d_26">
      <g>
       <use style="stroke:#000000;stroke-width:0.8;" x="30.13" xlink:href="#mdc1783bfd5" y="102.59921"/>
      </g>
     </g>
     <g id="text_13">
      <!-- 20 -->
      <g transform="translate(10.828438 106.235929)scale(0.1 -0.1)">
       <use xlink:href="#Inter-Regular-50"/>
       <use x="60.511383" xlink:href="#Inter-Regular-48"/>
      </g>
     </g>
    </g>
    <g id="ytick_6">
     <g id="line2d_27">
      <path clip-path="url(#p080bee9368)" d="M 30.13 51.711947 
L 559.818 51.711947 
" style="fill:none;stroke:#e5e7eb;stroke-dasharray:3.7,1.6;stroke-dashoffset:0;"/>
     </g>
     <g id="line2d_28">
      <g>
       <use style="stroke:#000000;stroke-width:0.8;" x="30.13" xlink:href="#mdc1783bfd5" y="51.711947"/>
      </g>
     </g>
     <g id="text_14">
      <!-- 25 -->
      <g transform="translate(10.99875 55.348665)scale(0.1 -0.1)">
       <use xlink:href="#Inter-Regular-50"/>
       <use x="60.511383" xlink:href="#Inter-Regular-53"/>
      </g>
     </g>
    </g>
   </g>
   <g id="line2d_29">
    <path clip-path="url(#p080bee9368)" d="M 30.13 280.555607 
L 36.511783 280.42342 
L 42.893566 280.026858 
L 49.275349 279.365923 
L 55.657133 278.440613 
L 62.038916 277.250929 
L 68.420699 275.796871 
L 74.802482 274.078438 
L 81.184265 272.095631 
L 87.566048 269.84845 
L 93.947831 267.336895 
L 100.329614 264.560966 
L 106.711398 261.520662 
L 113.093181 258.215984 
L 119.588418 254.58109 
L 126.48277 250.658741 
L 127.491699 250.734063 
L 128.500629 251.275651 
L 129.509558 252.274317 
L 130.518488 253.713113 
L 131.527417 255.567624 
L 136.0676 265.879877 
L 137.244684 268.650942 
L 139.598853 275.222221 
L 141.717605 281.260207 
L 143.836357 286.616196 
L 145.982273 291.26933 
L 147.068812 293.196308 
L 148.155352 294.85724 
L 149.241891 296.28476 
L 150.328431 297.506919 
L 151.41497 298.54773 
L 152.50151 299.427646 
L 154.674589 300.771128 
L 156.847668 301.643475 
L 159.020747 302.113589 
L 161.139499 302.293162 
L 163.258251 302.278401 
L 165.494711 302.051993 
L 167.84888 301.579749 
L 170.203049 300.867587 
L 175.415851 298.965492 
L 177.43371 298.451502 
L 181.973893 297.575287 
L 185.152021 296.710965 
L 188.330149 295.618101 
L 191.508277 294.296694 
L 194.921822 292.622842 
L 198.217659 290.756534 
L 201.395787 288.724105 
L 204.573915 286.463133 
L 207.869751 283.877025 
L 211.23285 281.141864 
L 212.241779 280.706735 
L 213.250709 280.584933 
L 214.259638 280.779536 
L 215.268568 281.285628 
L 216.277497 282.090416 
L 218.345803 284.426273 
L 221.523931 287.923628 
L 224.702059 291.029817 
L 227.880187 293.74484 
L 231.058315 296.068698 
L 233.177067 297.400622 
L 235.326525 298.484882 
L 237.475984 299.241464 
L 239.625442 299.704425 
L 241.774901 299.894607 
L 243.924359 299.820569 
L 246.073818 299.47898 
L 248.223277 298.854463 
L 250.372735 297.918904 
L 252.522194 296.630188 
L 254.671652 294.930305 
L 256.821111 292.742731 
L 258.955216 290.033777 
L 261.073968 287.000964 
L 265.365799 280.572137 
L 266.452338 279.448358 
L 267.538878 278.647736 
L 268.625417 278.191137 
L 269.711957 278.090461 
L 270.798496 278.348333 
L 271.885036 278.958032 
L 272.971575 279.903666 
L 274.058115 281.16059 
L 275.144654 282.696046 
L 277.317733 286.43626 
L 279.436485 290.204562 
L 281.555237 293.531409 
L 283.689343 296.404231 
L 285.838801 298.670706 
L 287.98826 300.384402 
L 290.137718 301.631567 
L 292.287177 302.474972 
L 294.436635 302.957064 
L 296.586094 303.102108 
L 298.735552 302.917404 
L 300.885011 302.393655 
L 303.03447 301.504501 
L 305.183928 300.205191 
L 307.333387 298.430332 
L 309.452139 296.239944 
L 311.570891 293.690914 
L 314.803346 289.534656 
L 315.889885 288.391209 
L 316.976425 287.443517 
L 318.062964 286.716959 
L 319.149504 286.230992 
L 320.236043 285.998631 
L 321.322583 286.026098 
L 322.409122 286.312657 
L 323.495662 286.850634 
L 324.582201 287.625623 
L 325.668741 288.61687 
L 330.992784 294.270122 
L 333.126889 296.135807 
L 335.276348 297.563421 
L 337.425806 298.577675 
L 339.575265 299.234784 
L 341.724723 299.571168 
L 343.874182 299.605471 
L 346.023641 299.339594 
L 348.173099 298.7588 
L 350.322558 297.830901 
L 352.472016 296.504467 
L 354.621475 294.705981 
L 356.770933 292.335762 
L 358.889685 289.522482 
L 361.008437 286.399391 
L 363.154353 283.069466 
L 364.240892 281.661853 
L 365.327432 280.535925 
L 366.413971 279.721354 
L 367.500511 279.239608 
L 368.58705 279.103382 
L 369.67359 279.316268 
L 370.760129 279.872655 
L 371.846669 280.757879 
L 372.933208 281.948611 
L 374.019748 283.41347 
L 376.192827 287.004941 
L 378.311579 290.634571 
L 380.430331 293.839733 
L 382.519656 296.542774 
L 384.579553 298.568616 
L 386.639451 300.046044 
L 388.699349 301.0748 
L 390.759247 301.724334 
L 392.819144 302.038497 
L 394.879042 302.038497 
L 396.93894 301.724334 
L 398.998838 301.0748 
L 401.058736 300.046044 
L 403.118633 298.568616 
L 404.148582 297.631832 
L 405.178531 296.542774 
L 407.267856 293.839733 
L 409.386608 290.634571 
L 413.678439 283.41347 
L 414.764978 281.948611 
L 415.851518 280.757879 
L 416.938057 279.872655 
L 418.024597 279.316268 
L 419.111136 279.103382 
L 420.197676 279.239608 
L 421.284215 279.721354 
L 422.370755 280.535925 
L 423.457294 281.661853 
L 424.543834 283.069466 
L 429.867877 290.967848 
L 432.001983 293.59973 
L 434.151441 295.66979 
L 436.3009 297.221537 
L 438.450358 298.340975 
L 440.599817 299.090148 
L 442.749275 299.510581 
L 444.898734 299.625574 
L 447.048192 299.441501 
L 449.197651 298.948161 
L 451.34711 298.11821 
L 453.496568 296.905648 
L 455.646027 295.243269 
L 457.764779 293.239004 
L 459.883531 291.002857 
L 462.029446 288.61687 
L 463.115986 287.625623 
L 464.202525 286.850634 
L 465.289065 286.312657 
L 466.375604 286.026098 
L 467.462144 285.998631 
L 468.548683 286.230992 
L 469.635223 286.716959 
L 470.721762 287.443517 
L 471.808302 288.391209 
L 472.894841 289.534656 
L 475.06792 292.281909 
L 477.186672 295.01026 
L 479.305424 297.379969 
L 481.439529 299.382181 
L 483.588988 300.909686 
L 485.738446 301.997098 
L 487.887905 302.699146 
L 490.037363 303.051165 
L 492.186822 303.070872 
L 494.336281 302.759258 
L 496.485739 302.10064 
L 498.635198 301.061869 
L 500.784656 299.590666 
L 502.934115 297.612984 
L 505.083573 295.029287 
L 507.202325 291.923167 
L 509.321077 288.375593 
L 511.466993 284.470014 
L 512.553532 282.696046 
L 513.640072 281.16059 
L 514.726611 279.903666 
L 515.813151 278.958032 
L 516.89969 278.348333 
L 517.98623 278.090461 
L 519.072769 278.191137 
L 520.159309 278.647736 
L 521.245848 279.448358 
L 522.332388 280.572137 
L 523.418927 281.989783 
L 528.742971 290.033777 
L 530.877076 292.742731 
L 533.026534 294.930305 
L 535.175993 296.630188 
L 537.325452 297.918904 
L 539.47491 298.854463 
L 541.624369 299.47898 
L 543.773827 299.820569 
L 545.923286 299.894607 
L 548.072744 299.704425 
L 550.222203 299.241464 
L 552.371661 298.484882 
L 554.52112 297.400622 
L 556.639872 296.068698 
L 559.818 293.74484 
L 560.877376 292.883295 
L 560.877376 292.883295 
" style="fill:none;stroke:#ef4444;stroke-linecap:square;stroke-width:1.5;"/>
   </g>
   <g id="line2d_30">
    <path clip-path="url(#p080bee9368)" d="M 30.13 258.150551 
L 38.639044 258.025248 
L 47.148088 257.649339 
L 55.657133 257.022824 
L 64.166177 256.145703 
L 72.675221 255.017976 
L 81.184265 253.639643 
L 89.693309 252.010704 
L 98.202353 250.131159 
L 106.711398 248.001008 
L 115.220442 245.620251 
L 123.119671 243.185806 
L 125.47384 242.418506 
L 126.48277 241.811712 
L 127.491699 240.648796 
L 128.500629 238.909969 
L 129.509558 236.56564 
L 130.518488 233.575914 
L 131.527417 229.889912 
L 132.536347 225.444908 
L 134.890516 213.729353 
L 136.0676 207.56993 
L 137.244684 200.529264 
L 138.421769 191.796029 
L 139.598853 181.139059 
L 141.717605 159.172949 
L 143.836357 135.424399 
L 145.982273 110.496055 
L 147.068812 99.681942 
L 148.155352 90.651407 
L 149.241891 83.581513 
L 150.328431 78.610882 
L 151.41497 75.836976 
L 152.50151 75.314182 
L 153.588049 77.052751 
L 154.674589 81.018595 
L 155.761128 87.133954 
L 156.847668 95.278922 
L 157.934207 105.293799 
L 164.317627 172.800669 
L 166.671796 194.474915 
L 169.025964 214.220574 
L 171.380133 232.037645 
L 172.389063 238.74395 
L 173.397992 244.501751 
L 174.406922 249.423683 
L 175.415851 253.606031 
L 176.424781 257.130611 
L 177.43371 260.066373 
L 178.44264 262.470747 
L 181.973893 269.664472 
L 185.152021 275.541369 
L 188.330149 280.852255 
L 191.508277 285.597132 
L 193.744738 288.596823 
L 196.098907 291.451589 
L 198.217659 293.755343 
L 200.336411 295.807537 
L 202.455163 297.608171 
L 204.573915 299.157244 
L 206.692667 300.454757 
L 209.046836 301.601399 
L 211.23285 302.363556 
L 213.250709 302.675378 
L 215.268568 302.611216 
L 217.286427 302.164515 
L 219.405179 301.35945 
L 221.523931 300.30876 
L 223.642683 299.012444 
L 225.761435 297.470501 
L 227.880187 295.682932 
L 229.998939 293.649737 
L 232.117691 291.370916 
L 236.401254 286.481759 
L 238.550713 284.3594 
L 240.700172 282.60264 
L 242.84963 281.290172 
L 243.924359 280.819775 
L 244.999089 280.480785 
L 246.073818 280.277009 
L 247.148547 280.210734 
L 248.223277 280.282706 
L 249.298006 280.492116 
L 250.372735 280.836613 
L 251.447464 281.312327 
L 253.596923 282.634627 
L 255.746381 284.399785 
L 257.89584 286.528734 
L 261.073968 289.712587 
L 263.19272 291.626708 
L 264.279259 292.452658 
L 265.365799 293.066257 
L 266.452338 293.483563 
L 267.538878 293.715497 
L 268.625417 293.768129 
L 269.711957 293.642836 
L 270.798496 293.336339 
L 271.885036 292.840617 
L 272.971575 292.142697 
L 274.058115 291.224314 
L 275.144654 290.061434 
L 276.231194 288.623624 
L 277.317733 286.873256 
L 279.436485 282.925581 
L 281.555237 278.575149 
L 284.764072 271.634623 
L 286.91353 267.586232 
L 287.98826 265.838924 
L 289.062989 264.306242 
L 290.137718 263.007413 
L 291.212448 261.958732 
L 292.287177 261.173354 
L 293.361906 260.661132 
L 294.436635 260.428494 
L 295.511365 260.478356 
L 296.586094 260.810094 
L 297.660823 261.419545 
L 298.735552 262.299065 
L 299.810282 263.437618 
L 300.885011 264.820922 
L 301.95974 266.431623 
L 304.109199 270.251787 
L 306.258657 274.707011 
L 309.452139 281.700192 
L 311.570891 285.872688 
L 313.716806 289.551992 
L 314.803346 290.992643 
L 315.889885 292.160772 
L 316.976425 293.087795 
L 318.062964 293.798643 
L 319.149504 294.312433 
L 320.236043 294.642982 
L 321.322583 294.79918 
L 322.409122 294.785229 
L 323.495662 294.600752 
L 324.582201 294.240788 
L 325.668741 293.695658 
L 327.814656 292.100791 
L 330.992784 289.309781 
L 334.201619 286.389775 
L 336.351077 284.911934 
L 337.425806 284.361261 
L 338.500536 283.946816 
L 339.575265 283.674319 
L 340.649994 283.547532 
L 341.724723 283.568207 
L 342.799453 283.736056 
L 343.874182 284.048764 
L 344.948911 284.502013 
L 347.09837 285.803252 
L 349.247828 287.568165 
L 351.397287 289.699629 
L 354.621475 293.323582 
L 357.830309 297.009773 
L 359.949061 299.096549 
L 362.067813 300.820194 
L 363.154353 301.531384 
L 364.240892 302.095185 
L 365.327432 302.526519 
L 367.500511 303.034238 
L 369.67359 303.108641 
L 371.846669 302.757658 
L 372.933208 302.412804 
L 374.019748 301.943887 
L 375.106287 301.338499 
L 377.252203 299.714281 
L 379.370955 297.700239 
L 381.489707 295.311039 
L 384.579553 291.658083 
L 386.639451 289.506927 
L 388.699349 287.753524 
L 389.729298 287.063883 
L 390.759247 286.515108 
L 391.789196 286.11641 
L 392.819144 285.874483 
L 393.849093 285.793387 
L 394.879042 285.874483 
L 395.908991 286.11641 
L 396.93894 286.515108 
L 397.968889 287.063883 
L 400.028787 288.572454 
L 402.088684 290.541258 
L 404.148582 292.838656 
L 408.327232 297.700239 
L 410.445984 299.714281 
L 412.591899 301.338499 
L 413.678439 301.943887 
L 414.764978 302.412804 
L 416.938057 302.987575 
L 419.111136 303.124059 
L 421.284215 302.836799 
L 422.370755 302.526519 
L 423.457294 302.095185 
L 424.543834 301.531384 
L 426.689749 300.003762 
L 428.808501 298.098552 
L 430.927253 295.830212 
L 436.3009 289.699629 
L 438.450358 287.568165 
L 440.599817 285.803252 
L 442.749275 284.502013 
L 443.824005 284.048764 
L 444.898734 283.736056 
L 445.973463 283.568207 
L 447.048192 283.547532 
L 448.122922 283.674319 
L 449.197651 283.946816 
L 450.27238 284.361261 
L 451.34711 284.911934 
L 453.496568 286.389775 
L 455.646027 288.299015 
L 458.824155 291.210668 
L 460.942907 292.950699 
L 462.029446 293.695658 
L 463.115986 294.240788 
L 464.202525 294.600752 
L 465.289065 294.785229 
L 466.375604 294.79918 
L 467.462144 294.642982 
L 468.548683 294.312433 
L 469.635223 293.798643 
L 470.721762 293.087795 
L 471.808302 292.160772 
L 472.894841 290.992643 
L 473.981381 289.551992 
L 475.06792 287.800076 
L 477.186672 283.839393 
L 479.305424 279.455083 
L 482.514259 272.413325 
L 484.663717 268.249513 
L 486.813176 264.820922 
L 487.887905 263.437618 
L 488.962634 262.299065 
L 490.037363 261.419545 
L 491.112093 260.810094 
L 492.186822 260.478356 
L 493.261551 260.428494 
L 494.336281 260.661132 
L 495.41101 261.173354 
L 496.485739 261.958732 
L 497.560468 263.007413 
L 498.635198 264.306242 
L 499.709927 265.838924 
L 501.859386 269.526244 
L 504.008844 273.884918 
L 507.202325 280.80071 
L 509.321077 284.949763 
L 511.466993 288.623624 
L 512.553532 290.061434 
L 513.640072 291.224314 
L 514.726611 292.142697 
L 515.813151 292.840617 
L 516.89969 293.336339 
L 517.98623 293.642836 
L 519.072769 293.768129 
L 520.159309 293.715497 
L 521.245848 293.483563 
L 522.332388 293.066257 
L 523.418927 292.452658 
L 525.564843 290.690492 
L 528.742971 287.631708 
L 531.951805 284.399785 
L 534.101264 282.634627 
L 536.250722 281.312327 
L 537.325452 280.836613 
L 538.400181 280.492116 
L 539.47491 280.282706 
L 540.549639 280.210734 
L 541.624369 280.277009 
L 542.699098 280.480785 
L 543.773827 280.819775 
L 544.848557 281.290172 
L 546.998015 282.60264 
L 549.147474 284.3594 
L 551.296932 286.481759 
L 554.52112 290.139396 
L 556.639872 292.54103 
L 558.758624 294.697038 
L 560.877376 296.60742 
L 560.877376 296.60742 
" style="fill:none;stroke:#1d4ed8;stroke-linecap:square;stroke-width:1.5;"/>
   </g>
   <g id="line2d_31">
    <path clip-path="url(#p080bee9368)" d="M 30.13 306.176866 
L 145.982273 306.123141 
L 148.155352 305.824003 
L 150.328431 305.222395 
L 152.50151 304.306494 
L 154.674589 303.058305 
L 156.847668 301.453301 
L 159.020747 299.459945 
L 172.389063 285.974218 
L 174.406922 284.32647 
L 176.424781 283.104219 
L 178.44264 282.331299 
L 211.23285 273.618615 
L 212.241779 273.655912 
L 213.250709 273.898831 
L 214.259638 274.345835 
L 215.268568 274.994093 
L 216.277497 275.839505 
L 218.345803 278.0643 
L 234.251796 295.838376 
L 236.401254 297.802536 
L 238.550713 299.342191 
L 240.700172 300.474619 
L 242.84963 301.21253 
L 244.999089 301.564204 
L 247.148547 301.533589 
L 249.298006 301.12034 
L 251.447464 300.319819 
L 253.596923 299.123044 
L 255.746381 297.516584 
L 257.89584 295.482409 
L 264.279259 288.85875 
L 265.365799 287.94485 
L 266.452338 287.189145 
L 267.538878 286.596566 
L 268.625417 286.170981 
L 269.711957 285.915168 
L 270.798496 285.830795 
L 271.885036 285.918414 
L 272.971575 286.177452 
L 274.058115 286.60622 
L 275.144654 287.201918 
L 276.231194 287.960659 
L 278.377109 289.846611 
L 283.689343 294.645969 
L 285.838801 296.138167 
L 287.98826 297.173926 
L 290.137718 297.766236 
L 292.287177 297.922527 
L 294.436635 297.64476 
L 296.586094 296.929451 
L 298.735552 295.767627 
L 300.885011 294.144715 
L 303.03447 292.04036 
L 305.183928 289.428166 
L 307.333387 286.275367 
L 313.716806 276.188774 
L 314.803346 274.809018 
L 315.889885 273.678822 
L 316.976425 272.805764 
L 318.062964 272.195699 
L 319.149504 271.85272 
L 320.236043 271.779125 
L 321.322583 271.975408 
L 322.409122 272.440253 
L 323.495662 273.170543 
L 324.582201 274.16138 
L 325.668741 275.40612 
L 327.814656 278.466042 
L 333.126889 286.259603 
L 335.276348 288.840636 
L 337.425806 290.851759 
L 339.575265 292.320744 
L 340.649994 292.858558 
L 341.724723 293.267875 
L 342.799453 293.550108 
L 343.874182 293.70623 
L 344.948911 293.73678 
L 346.023641 293.641863 
L 347.09837 293.421151 
L 348.173099 293.073883 
L 349.247828 292.598863 
L 350.322558 291.99445 
L 352.472016 290.388656 
L 354.621475 288.23433 
L 356.770933 285.501721 
L 363.154353 276.606664 
L 364.240892 275.421707 
L 365.327432 274.478921 
L 366.413971 273.784528 
L 367.500511 273.34311 
L 368.58705 273.157581 
L 369.67359 273.229165 
L 370.760129 273.557389 
L 371.846669 274.140088 
L 372.933208 274.973415 
L 374.019748 276.051872 
L 375.106287 277.368341 
L 377.252203 280.529883 
L 382.519656 288.486681 
L 384.579553 291.029781 
L 386.639451 293.014791 
L 388.699349 294.475073 
L 390.759247 295.43517 
L 391.789196 295.733011 
L 392.819144 295.911218 
L 393.849093 295.970537 
L 394.879042 295.911218 
L 395.908991 295.733011 
L 396.93894 295.43517 
L 397.968889 295.016443 
L 400.028787 293.808788 
L 402.088684 292.089749 
L 404.148582 289.830436 
L 406.20848 286.992876 
L 412.591899 277.368341 
L 413.678439 276.051872 
L 414.764978 274.973415 
L 415.851518 274.140088 
L 416.938057 273.557389 
L 418.024597 273.229165 
L 419.111136 273.157581 
L 420.197676 273.34311 
L 421.284215 273.784528 
L 422.370755 274.478921 
L 423.457294 275.421707 
L 424.543834 276.606664 
L 426.689749 279.521122 
L 432.001983 286.942476 
L 434.151441 289.381737 
L 436.3009 291.258561 
L 438.450358 292.598863 
L 439.525088 293.073883 
L 440.599817 293.421151 
L 441.674546 293.641863 
L 442.749275 293.73678 
L 443.824005 293.70623 
L 444.898734 293.550108 
L 445.973463 293.267875 
L 447.048192 292.858558 
L 448.122922 292.320744 
L 449.197651 291.65258 
L 451.34711 289.915521 
L 453.496568 287.623396 
L 455.646027 284.744553 
L 462.029446 275.40612 
L 463.115986 274.16138 
L 464.202525 273.170543 
L 465.289065 272.440253 
L 466.375604 271.975408 
L 467.462144 271.779125 
L 468.548683 271.85272 
L 469.635223 272.195699 
L 470.721762 272.805764 
L 471.808302 273.678822 
L 472.894841 274.809018 
L 473.981381 276.188774 
L 476.127296 279.502142 
L 481.439529 287.921649 
L 483.588988 290.799637 
L 485.738446 293.154223 
L 487.887905 295.014941 
L 490.037363 296.405131 
L 492.186822 297.342229 
L 494.336281 297.837991 
L 496.485739 297.898634 
L 498.635198 297.524918 
L 500.784656 296.712157 
L 502.934115 295.450156 
L 505.083573 293.723086 
L 511.466993 287.960659 
L 512.553532 287.201918 
L 513.640072 286.60622 
L 514.726611 286.177452 
L 515.813151 285.918414 
L 516.89969 285.830795 
L 517.98623 285.915168 
L 519.072769 286.170981 
L 520.159309 286.596566 
L 521.245848 287.189145 
L 522.332388 287.94485 
L 523.418927 288.85875 
L 526.624219 292.147891 
L 530.877076 296.554272 
L 533.026534 298.372042 
L 535.175993 299.771697 
L 537.325452 300.768947 
L 539.47491 301.374982 
L 541.624369 301.596604 
L 543.773827 301.436299 
L 545.923286 300.892269 
L 548.072744 299.958409 
L 550.222203 298.624237 
L 552.371661 296.874783 
L 554.52112 294.690411 
L 560.877376 287.564935 
L 560.877376 287.564935 
" style="fill:none;stroke:#10b981;stroke-linecap:square;stroke-width:1.5;"/>
   </g>
   <g id="patch_3">
    <path d="M 30.13 317.72 
L 30.13 51.0736 
" style="fill:none;stroke:#000000;stroke-linecap:square;stroke-linejoin:miter;stroke-width:0.8;"/>
   </g>
   <g id="patch_4">
    <path d="M 559.818 317.72 
L 559.818 51.0736 
" style="fill:none;stroke:#000000;stroke-linecap:square;stroke-linejoin:miter;stroke-width:0.8;"/>
   </g>
   <g id="patch_5">
    <path d="M 30.13 317.72 
L 559.818 317.72 
" style="fill:none;stroke:#000000;stroke-linecap:square;stroke-linejoin:miter;stroke-width:0.8;"/>
   </g>
   <g id="patch_6">
    <path d="M 30.13 51.0736 
L 559.818 51.0736 
" style="fill:none;stroke:#000000;stroke-linecap:square;stroke-linejoin:miter;stroke-width:0.8;"/>
   </g>
   <g id="legend_1">
    <g id="line2d_32">
     <path d="M 39.13 22.14128 
L 59.13 22.14128 
" style="fill:none;stroke:#ef4444;stroke-linecap:square;stroke-width:1.5;"/>
    </g>
    <g id="line2d_33"/>
    <g id="text_15">
     <!-- $\beta_x$ / m -->
     <g transform="translate(67.13 25.64128)scale(0.1 -0.1)">
      <defs>
       <path d="M 13.625 3.375 
L 8.9375 -20.796875 
L -0.09375 -20.796875 
L 14.5 54.34375 
Q 18.84375 76.609375 39.65625 76.609375 
Q 60.75 76.609375 57.171875 57.8125 
Q 54.734375 44.4375 45.21875 39.546875 
Q 58.015625 35.15625 55.515625 22.125 
Q 51.125 -1.078125 27.484375 -1.03125 
Q 17.140625 -0.984375 13.625 3.375 
z
M 15.921875 15.09375 
Q 19.671875 6.59375 29.296875 6.640625 
Q 43.359375 6.640625 46.34375 21.96875 
Q 49.03125 35.75 26.171875 34.671875 
L 27.78125 42.96875 
Q 45.453125 42.671875 48.53125 58.59375 
Q 50.640625 69.34375 39.203125 69.28125 
Q 26.421875 69.28125 23.484375 54.046875 
z
" id="DejaVuSans-Oblique-946"/>
       <path d="M 60.015625 54.6875 
L 34.90625 27.875 
L 50.296875 0 
L 39.984375 0 
L 28.421875 21.6875 
L 8.296875 0 
L -2.59375 0 
L 24.3125 28.8125 
L 10.015625 54.6875 
L 20.3125 54.6875 
L 30.8125 34.90625 
L 49.125 54.6875 
z
" id="DejaVuSans-Oblique-120"/>
       <path id="Inter-Regular-32"/>
       <path d="M 33.375 76.140625 
L 25.71875 76.140625 
L 2.28125 -10.9375 
L 9.9375 -10.9375 
z
" id="Inter-Regular-47"/>
       <path d="M 7.671875 0 
L 16.046875 0 
L 16.046875 34.09375 
C 16.046875 42.078125 21.875 47.734375 28.40625 47.734375 
C 34.765625 47.734375 39.203125 43.578125 39.203125 37.359375 
L 39.203125 0 
L 47.734375 0 
L 47.734375 35.515625 
C 47.734375 42.546875 52.125 47.734375 59.796875 47.734375 
C 65.765625 47.734375 70.875 44.5625 70.875 36.5 
L 70.875 0 
L 79.265625 0 
L 79.265625 36.5 
C 79.265625 49.328125 72.375 55.25 62.640625 55.25 
C 54.828125 55.25 49.109375 51.671875 46.3125 46.015625 
L 45.734375 46.015625 
C 43.046875 51.84375 38.28125 55.25 31.109375 55.25 
C 24 55.25 18.75 51.84375 16.484375 46.015625 
L 15.765625 46.015625 
L 15.765625 54.546875 
L 7.671875 54.546875 
z
" id="Inter-Regular-109"/>
      </defs>
      <use transform="translate(0 0.390625)" xlink:href="#DejaVuSans-Oblique-946"/>
      <use transform="translate(63.818359 -16.015625)scale(0.7)" xlink:href="#DejaVuSans-Oblique-120"/>
      <use transform="translate(107.978516 0.390625)" xlink:href="#Inter-Regular-32"/>
      <use transform="translate(136.103516 0.390625)" xlink:href="#Inter-Regular-47"/>
      <use transform="translate(171.756927 0.390625)" xlink:href="#Inter-Regular-32"/>
      <use transform="translate(199.881927 0.390625)" xlink:href="#Inter-Regular-109"/>
     </g>
    </g>
    <g id="line2d_34">
     <path d="M 256.674 22.14128 
L 276.674 22.14128 
" style="fill:none;stroke:#1d4ed8;stroke-linecap:square;stroke-width:1.5;"/>
    </g>
    <g id="line2d_35"/>
    <g id="text_16">
     <!-- $\beta_y$ / m -->
     <g transform="translate(284.674 25.64128)scale(0.1 -0.1)">
      <defs>
       <path d="M 24.8125 -5.078125 
Q 18.5625 -15.578125 14.625 -18.1875 
Q 10.6875 -20.796875 4.59375 -20.796875 
L -2.484375 -20.796875 
L -0.984375 -13.28125 
L 4.203125 -13.28125 
Q 7.953125 -13.28125 10.59375 -11.234375 
Q 13.234375 -9.1875 16.5 -3.21875 
L 19.28125 2 
L 7.171875 54.6875 
L 16.703125 54.6875 
L 25.78125 12.796875 
L 50.875 54.6875 
L 60.296875 54.6875 
z
" id="DejaVuSans-Oblique-121"/>
      </defs>
      <use transform="translate(0 0.390625)" xlink:href="#DejaVuSans-Oblique-946"/>
      <use transform="translate(63.818359 -16.015625)scale(0.7)" xlink:href="#DejaVuSans-Oblique-121"/>
      <use transform="translate(107.978516 0.390625)" xlink:href="#Inter-Regular-32"/>
      <use transform="translate(136.103516 0.390625)" xlink:href="#Inter-Regular-47"/>
      <use transform="translate(171.756927 0.390625)" xlink:href="#Inter-Regular-32"/>
      <use transform="translate(199.881927 0.390625)" xlink:href="#Inter-Regular-109"/>
     </g>
    </g>
    <g id="line2d_36">
     <path d="M 474.218 22.14128 
L 494.218 22.14128 
" style="fill:none;stroke:#10b981;stroke-linecap:square;stroke-width:1.5;"/>
    </g>
    <g id="line2d_37"/>
    <g id="text_17">
     <!-- 100 $\eta_x$ / m -->
     <g transform="translate(502.218 25.64128)scale(0.1 -0.1)">
      <defs>
       <path d="M 57.859375 33.015625 
L 47.40625 -20.796875 
L 38.421875 -20.796875 
L 48.828125 32.71875 
Q 50.34375 40.484375 48.046875 44.34375 
Q 45.796875 48.1875 39.75 48.1875 
Q 32.46875 48.1875 27.34375 43.5625 
Q 22.265625 38.921875 20.703125 30.90625 
L 14.703125 0 
L 5.671875 0 
L 16.3125 54.6875 
L 25.34375 54.6875 
L 23.6875 46.1875 
Q 27.828125 51.125 32.71875 53.5625 
Q 37.546875 56 43.265625 56 
Q 52.6875 56 56.390625 50.203125 
Q 60.0625 44.34375 57.859375 33.015625 
z
" id="DejaVuSans-Oblique-951"/>
      </defs>
      <use transform="translate(0 0.859375)" xlink:href="#Inter-Regular-49"/>
      <use transform="translate(46.448868 0.859375)" xlink:href="#Inter-Regular-48"/>
      <use transform="translate(108.948883 0.859375)" xlink:href="#Inter-Regular-48"/>
      <use transform="translate(171.448898 0.859375)" xlink:href="#Inter-Regular-32"/>
      <use transform="translate(199.573898 0.859375)" xlink:href="#DejaVuSans-Oblique-951"/>
      <use transform="translate(262.952805 -15.546875)scale(0.7)" xlink:href="#DejaVuSans-Oblique-120"/>
      <use transform="translate(307.112961 0.859375)" xlink:href="#Inter-Regular-32"/>
      <use transform="translate(335.237961 0.859375)" xlink:href="#Inter-Regular-47"/>
      <use transform="translate(370.891373 0.859375)" xlink:href="#Inter-Regular-32"/>
      <use transform="translate(399.016373 0.859375)" xlink:href="#Inter-Regular-109"/>
     </g>
    </g>
   </g>
   <g id="patch_7">
    <path d="M 118.411333 57.422324 
L 121.942587 57.422324 
L 121.942587 44.724876 
L 118.411333 44.724876 
z
" style="fill:#10b981;"/>
   </g>
   <g id="patch_8">
    <path d="M 125.47384 57.422324 
L 132.536347 57.422324 
L 132.536347 44.724876 
L 125.47384 44.724876 
z
" style="fill:#ef4444;"/>
   </g>
   <g id="patch_9">
    <path d="M 136.0676 57.422324 
L 139.598853 57.422324 
L 139.598853 44.724876 
L 136.0676 44.724876 
z
" style="fill:#ef4444;"/>
   </g>
   <g id="patch_10">
    <path d="M 144.895733 57.422324 
L 159.020747 57.422324 
L 159.020747 44.724876 
L 144.895733 44.724876 
z
" style="fill:#fbbf24;"/>
   </g>
   <g id="patch_11">
    <path d="M 164.317627 57.422324 
L 167.84888 57.422324 
L 167.84888 44.724876 
L 164.317627 44.724876 
z
" style="fill:#10b981;"/>
   </g>
   <g id="patch_12">
    <path d="M 171.380133 57.422324 
L 178.44264 57.422324 
L 178.44264 44.724876 
L 171.380133 44.724876 
z
" style="fill:#ef4444;"/>
   </g>
   <g id="patch_13">
    <path d="M 181.973893 57.422324 
L 192.567653 57.422324 
L 192.567653 44.724876 
L 181.973893 44.724876 
z
" style="fill:#10b981;"/>
   </g>
   <g id="patch_14">
    <path d="M 196.098907 57.422324 
L 206.692667 57.422324 
L 206.692667 44.724876 
L 196.098907 44.724876 
z
" style="fill:#10b981;"/>
   </g>
   <g id="patch_15">
    <path d="M 210.22392 57.422324 
L 217.286427 57.422324 
L 217.286427 44.724876 
L 210.22392 44.724876 
z
" style="fill:#ef4444;"/>
   </g>
   <g id="patch_16">
    <path d="M 222.583307 57.422324 
L 227.880187 57.422324 
L 227.880187 44.724876 
L 222.583307 44.724876 
z
" style="fill:#10b981;"/>
   </g>
   <g id="patch_17">
    <path d="M 233.177067 57.422324 
L 257.89584 57.422324 
L 257.89584 44.724876 
L 233.177067 44.724876 
z
" style="fill:#fbbf24;"/>
   </g>
   <g id="patch_18">
    <path d="M 263.19272 57.422324 
L 277.317733 57.422324 
L 277.317733 44.724876 
L 263.19272 44.724876 
z
" style="fill:#fbbf24;"/>
   </g>
   <g id="patch_19">
    <path d="M 282.614613 57.422324 
L 307.333387 57.422324 
L 307.333387 44.724876 
L 282.614613 44.724876 
z
" style="fill:#fbbf24;"/>
   </g>
   <g id="patch_20">
    <path d="M 312.630267 57.422324 
L 326.75528 57.422324 
L 326.75528 44.724876 
L 312.630267 44.724876 
z
" style="fill:#fbbf24;"/>
   </g>
   <g id="patch_21">
    <path d="M 332.05216 57.422324 
L 356.770933 57.422324 
L 356.770933 44.724876 
L 332.05216 44.724876 
z
" style="fill:#fbbf24;"/>
   </g>
   <g id="patch_22">
    <path d="M 362.067813 57.422324 
L 376.192827 57.422324 
L 376.192827 44.724876 
L 362.067813 44.724876 
z
" style="fill:#fbbf24;"/>
   </g>
   <g id="patch_23">
    <path d="M 381.489707 57.422324 
L 406.20848 57.422324 
L 406.20848 44.724876 
L 381.489707 44.724876 
z
" style="fill:#fbbf24;"/>
   </g>
   <g id="patch_24">
    <path d="M 411.50536 57.422324 
L 425.630373 57.422324 
L 425.630373 44.724876 
L 411.50536 44.724876 
z
" style="fill:#fbbf24;"/>
   </g>
   <g id="patch_25">
    <path d="M 430.927253 57.422324 
L 455.646027 57.422324 
L 455.646027 44.724876 
L 430.927253 44.724876 
z
" style="fill:#fbbf24;"/>
   </g>
   <g id="patch_26">
    <path d="M 460.942907 57.422324 
L 475.06792 57.422324 
L 475.06792 44.724876 
L 460.942907 44.724876 
z
" style="fill:#fbbf24;"/>
   </g>
   <g id="patch_27">
    <path d="M 480.3648 57.422324 
L 505.083573 57.422324 
L 505.083573 44.724876 
L 480.3648 44.724876 
z
" style="fill:#fbbf24;"/>
   </g>
   <g id="patch_28">
    <path d="M 510.380453 57.422324 
L 524.505467 57.422324 
L 524.505467 44.724876 
L 510.380453 44.724876 
z
" style="fill:#fbbf24;"/>
   </g>
   <g id="patch_29">
    <path d="M 529.802347 57.422324 
L 554.52112 57.422324 
L 554.52112 44.724876 
L 529.802347 44.724876 
z
" style="fill:#fbbf24;"/>
   </g>
   <g id="patch_30">
    <path d="M 559.818 57.422324 
L 559.818 57.422324 
L 559.818 44.724876 
L 559.818 44.724876 
z
" style="fill:#10b981;"/>
   </g>
   <g id="text_18">
    <!-- S4 -->
    <g transform="translate(116.977351 39.683184)scale(0.05 -0.05)">
     <defs>
      <path d="M 48.578125 54.546875 
L 57.109375 54.546875 
C 56.71875 65.515625 46.59375 73.71875 32.53125 73.71875 
C 18.609375 73.71875 7.671875 65.625 7.671875 53.40625 
C 7.671875 43.609375 14.78125 37.78125 26.140625 34.515625 
L 35.09375 31.953125 
C 42.75 29.828125 49.578125 27.125 49.578125 19.890625 
C 49.578125 11.9375 41.90625 6.671875 31.8125 6.671875 
C 23.15625 6.671875 15.484375 10.515625 14.78125 18.75 
L 5.6875 18.75 
C 6.53125 6.8125 16.1875 -1.28125 31.8125 -1.28125 
C 48.578125 -1.28125 58.09375 7.953125 58.09375 19.75 
C 58.09375 33.375 45.171875 37.78125 37.640625 39.765625 
L 30.25 41.765625 
C 24.859375 43.1875 16.1875 46.015625 16.1875 53.828125 
C 16.1875 60.796875 22.59375 65.90625 32.25 65.90625 
C 41.046875 65.90625 47.734375 61.71875 48.578125 54.546875 
z
" id="Inter-Regular-83"/>
     </defs>
     <use xlink:href="#Inter-Regular-83"/>
     <use x="63.778427" xlink:href="#Inter-Regular-52"/>
    </g>
   </g>
   <g id="text_19">
    <!-- Q11 -->
    <g transform="translate(124.778921 65.078079)scale(0.05 -0.05)">
     <defs>
      <path d="M 70.171875 36.359375 
C 70.171875 59.375 56.671875 73.71875 38.0625 73.71875 
C 19.46875 73.71875 5.96875 59.375 5.96875 36.359375 
C 5.96875 13.359375 19.46875 -1 38.0625 -1 
C 42.828125 -1 47.234375 -0.078125 51.171875 1.703125 
L 57.53125 -6.8125 
L 67.1875 -6.8125 
L 57.703125 5.78125 
C 65.453125 12.140625 70.171875 22.734375 70.171875 36.359375 
z
M 35.234375 22.734375 
L 45.984375 8.59375 
C 43.53125 7.703125 40.875 7.25 38.0625 7.25 
C 24.859375 7.25 14.484375 17.46875 14.484375 36.359375 
C 14.484375 55.25 24.859375 65.484375 38.0625 65.484375 
C 51.28125 65.484375 61.65625 55.25 61.65625 36.359375 
C 61.65625 25.390625 58.171875 17.359375 52.625 12.53125 
L 44.890625 22.734375 
z
" id="Inter-Regular-81"/>
     </defs>
     <use xlink:href="#Inter-Regular-81"/>
     <use x="76.136383" xlink:href="#Inter-Regular-49"/>
     <use x="122.585251" xlink:href="#Inter-Regular-49"/>
    </g>
   </g>
   <g id="text_20">
    <!-- Q12 -->
    <g transform="translate(133.255492 39.683184)scale(0.05 -0.05)">
     <use xlink:href="#Inter-Regular-81"/>
     <use x="76.136383" xlink:href="#Inter-Regular-49"/>
     <use x="122.585251" xlink:href="#Inter-Regular-50"/>
    </g>
   </g>
   <g id="text_21">
    <!-- B1 -->
    <g transform="translate(149.170349 65.078079)scale(0.05 -0.05)">
     <defs>
      <path d="M 8.8125 0 
L 35.09375 0 
C 52.28125 0 59.375 8.375 59.375 19.3125 
C 59.375 30.828125 51.421875 37.078125 44.75 37.5 
L 44.75 38.203125 
C 51 39.921875 56.53125 44.03125 56.53125 53.40625 
C 56.53125 64.0625 49.4375 72.734375 34.234375 72.734375 
L 8.8125 72.734375 
z
M 17.609375 40.765625 
L 17.609375 64.921875 
L 34.234375 64.921875 
C 43.890625 64.921875 48.15625 59.796875 48.15625 53.40625 
C 48.15625 45.734375 41.90625 40.765625 33.953125 40.765625 
z
M 17.609375 7.8125 
L 17.609375 33.09375 
L 35.515625 33.09375 
C 45.03125 33.09375 51 26.703125 51 19.3125 
C 51 12.921875 46.59375 7.8125 35.09375 7.8125 
z
" id="Inter-Regular-66"/>
     </defs>
     <use xlink:href="#Inter-Regular-66"/>
     <use x="65.056839" xlink:href="#Inter-Regular-49"/>
    </g>
   </g>
   <g id="text_22">
    <!-- S5 -->
    <g transform="translate(162.9688 39.683184)scale(0.05 -0.05)">
     <use xlink:href="#Inter-Regular-83"/>
     <use x="63.778427" xlink:href="#Inter-Regular-53"/>
    </g>
   </g>
   <g id="text_23">
    <!-- Q2 -->
    <g transform="translate(171.49498 65.078079)scale(0.05 -0.05)">
     <use xlink:href="#Inter-Regular-81"/>
     <use x="76.136383" xlink:href="#Inter-Regular-50"/>
    </g>
   </g>
   <g id="text_24">
    <!-- S1 -->
    <g transform="translate(184.514914 39.683184)scale(0.05 -0.05)">
     <use xlink:href="#Inter-Regular-83"/>
     <use x="63.778427" xlink:href="#Inter-Regular-49"/>
    </g>
   </g>
   <g id="text_25">
    <!-- S2 -->
    <g transform="translate(198.288365 65.078079)scale(0.05 -0.05)">
     <use xlink:href="#Inter-Regular-83"/>
     <use x="63.778427" xlink:href="#Inter-Regular-50"/>
    </g>
   </g>
   <g id="text_26">
    <!-- Q3 -->
    <g transform="translate(210.260642 39.683184)scale(0.05 -0.05)">
     <defs>
      <path d="M 32.109375 -1 
C 46.203125 -1 56.671875 7.84375 56.671875 19.75 
C 56.671875 28.984375 51.203125 35.6875 42.046875 37.21875 
L 42.046875 37.78125 
C 49.390625 40.015625 53.984375 46.0625 53.984375 54.265625 
C 53.984375 64.5625 45.84375 73.71875 32.390625 73.71875 
C 19.8125 73.71875 9.375 65.984375 8.953125 54.546875 
L 17.46875 54.546875 
C 17.796875 61.796875 24.6875 66.046875 32.25 66.046875 
C 40.265625 66.046875 45.453125 61.1875 45.453125 53.828125 
C 45.453125 46.171875 39.453125 41.1875 30.828125 41.1875 
L 25 41.1875 
L 25 33.375 
L 30.828125 33.375 
C 41.875 33.375 48.015625 27.765625 48.015625 19.75 
C 48.015625 12.03125 41.296875 6.8125 31.96875 6.8125 
C 23.546875 6.8125 16.875 11.15625 16.34375 18.1875 
L 7.390625 18.1875 
C 7.921875 6.75 18 -1 32.109375 -1 
z
" id="Inter-Regular-51"/>
     </defs>
     <use xlink:href="#Inter-Regular-81"/>
     <use x="76.136383" xlink:href="#Inter-Regular-51"/>
    </g>
   </g>
   <g id="text_27">
    <!-- S3 -->
    <g transform="translate(222.0462 65.078079)scale(0.05 -0.05)">
     <use xlink:href="#Inter-Regular-83"/>
     <use x="63.778427" xlink:href="#Inter-Regular-51"/>
    </g>
   </g>
   <g id="text_28">
    <!-- B2 -->
    <g transform="translate(242.397 39.683184)scale(0.05 -0.05)">
     <use xlink:href="#Inter-Regular-66"/>
     <use x="65.056839" xlink:href="#Inter-Regular-50"/>
    </g>
   </g>
   <g id="text_29">
    <!-- Q4 -->
    <g transform="translate(266.746633 65.078079)scale(0.05 -0.05)">
     <use xlink:href="#Inter-Regular-81"/>
     <use x="76.136383" xlink:href="#Inter-Regular-52"/>
    </g>
   </g>
   <g id="text_30">
    <!-- B3 -->
    <g transform="translate(291.756422 39.683184)scale(0.05 -0.05)">
     <use xlink:href="#Inter-Regular-66"/>
     <use x="65.056839" xlink:href="#Inter-Regular-51"/>
    </g>
   </g>
   <g id="text_31">
    <!-- Q5 -->
    <g transform="translate(316.269336 65.078079)scale(0.05 -0.05)">
     <use xlink:href="#Inter-Regular-81"/>
     <use x="76.136383" xlink:href="#Inter-Regular-53"/>
    </g>
   </g>
   <g id="text_32">
    <!-- B4 -->
    <g transform="translate(341.179906 39.683184)scale(0.05 -0.05)">
     <use xlink:href="#Inter-Regular-66"/>
     <use x="65.056839" xlink:href="#Inter-Regular-52"/>
    </g>
   </g>
   <g id="text_33">
    <!-- Q6 -->
    <g transform="translate(365.66782 65.078079)scale(0.05 -0.05)">
     <use xlink:href="#Inter-Regular-81"/>
     <use x="76.136383" xlink:href="#Inter-Regular-54"/>
    </g>
   </g>
   <g id="text_34">
    <!-- B5 -->
    <g transform="translate(390.702609 39.683184)scale(0.05 -0.05)">
     <use xlink:href="#Inter-Regular-66"/>
     <use x="65.056839" xlink:href="#Inter-Regular-53"/>
    </g>
   </g>
   <g id="text_35">
    <!-- Q6 -->
    <g transform="translate(415.105367 65.078079)scale(0.05 -0.05)">
     <use xlink:href="#Inter-Regular-81"/>
     <use x="76.136383" xlink:href="#Inter-Regular-54"/>
    </g>
   </g>
   <g id="text_36">
    <!-- B4 -->
    <g transform="translate(440.054999 39.683184)scale(0.05 -0.05)">
     <use xlink:href="#Inter-Regular-66"/>
     <use x="65.056839" xlink:href="#Inter-Regular-52"/>
    </g>
   </g>
   <g id="text_37">
    <!-- Q5 -->
    <g transform="translate(464.581976 65.078079)scale(0.05 -0.05)">
     <use xlink:href="#Inter-Regular-81"/>
     <use x="76.136383" xlink:href="#Inter-Regular-53"/>
    </g>
   </g>
   <g id="text_38">
    <!-- B3 -->
    <g transform="translate(489.506609 39.683184)scale(0.05 -0.05)">
     <use xlink:href="#Inter-Regular-66"/>
     <use x="65.056839" xlink:href="#Inter-Regular-51"/>
    </g>
   </g>
   <g id="text_39">
    <!-- Q4 -->
    <g transform="translate(513.934366 65.078079)scale(0.05 -0.05)">
     <use xlink:href="#Inter-Regular-81"/>
     <use x="76.136383" xlink:href="#Inter-Regular-52"/>
    </g>
   </g>
   <g id="text_40">
    <!-- B2 -->
    <g transform="translate(539.02228 39.683184)scale(0.05 -0.05)">
     <use xlink:href="#Inter-Regular-66"/>
     <use x="65.056839" xlink:href="#Inter-Regular-50"/>
    </g>
   </g>
   <g id="text_41">
    <!-- S3 -->
    <g transform="translate(559.280893 65.078079)scale(0.05 -0.05)">
     <use xlink:href="#Inter-Regular-83"/>
     <use x="63.778427" xlink:href="#Inter-Regular-51"/>
    </g>
   </g>
  </g>
 </g>
 <defs>
  <clipPath id="p080bee9368">
   <rect height="266.6464" width="529.688" x="30.13" y="51.0736"/>
  </clipPath>
 </defs>
</svg>
