<?xml version="1.0" encoding="utf-8" standalone="no"?>
<!DOCTYPE svg PUBLIC "-//W3C//DTD SVG 1.1//EN"
  "http://www.w3.org/Graphics/SVG/1.1/DTD/svg11.dtd">
<!-- Created with matplotlib (https://matplotlib.org/) -->
<svg height="345.6pt" version="1.1" viewBox="0 0 576 345.6" width="576pt" xmlns="http://www.w3.org/2000/svg" xmlns:xlink="http://www.w3.org/1999/xlink">
 <metadata>
  <rdf:RDF xmlns:cc="http://creativecommons.org/ns#" xmlns:dc="http://purl.org/dc/elements/1.1/" xmlns:rdf="http://www.w3.org/1999/02/22-rdf-syntax-ns#">
   <cc:Work>
    <dc:type rdf:resource="http://purl.org/dc/dcmitype/StillImage"/>
    <dc:date>2020-12-15T09:43:29.376155</dc:date>
    <dc:format>image/svg+xml</dc:format>
    <dc:creator>
     <cc:Agent>
      <dc:title>Matplotlib v3.3.3, https://matplotlib.org/</dc:title>
     </cc:Agent>
    </dc:creator>
   </cc:Work>
  </rdf:RDF>
 </metadata>
 <defs>
  <style type="text/css">*{stroke-linecap:butt;stroke-linejoin:round;}</style>
 </defs>
 <g id="figure_1">
  <g id="patch_1">
   <path d="M 0 345.6 
L 576 345.6 
L 576 0 
L 0 0 
z
" style="fill:#ffffff;"/>
  </g>
  <g id="axes_1">
   <g id="patch_2">
    <path d="M 28.78 317.72 
L 554.535 317.72 
L 554.535 10.8 
L 28.78 10.8 
z
" style="fill:#ffffff;"/>
   </g>
   <g id="matplotlib.axis_1">
    <g id="xtick_1">
     <g id="line2d_1">
      <path clip-path="url(#p4a6a9bcdeb)" d="M 28.78 317.72 
L 28.78 10.8 
" style="fill:none;stroke:#e5e7eb;stroke-dasharray:3.7,1.6;stroke-dashoffset:0;"/>
     </g>
     <g id="line2d_2">
      <defs>
       <path d="M 0 0 
L 0 3.5 
" id="m29b49eee43" style="stroke:#000000;stroke-width:0.8;"/>
      </defs>
      <g>
       <use style="stroke:#000000;stroke-width:0.8;" x="28.78" xlink:href="#m29b49eee43" y="317.72"/>
      </g>
     </g>
     <g id="text_1">
      <!-- 0.0 -->
      <g transform="translate(21.151875 331.993437)scale(0.1 -0.1)">
       <defs>
        <path d="M 31.25 -1 
C 47.296875 -1 56.53125 12.609375 56.53125 36.359375 
C 56.53125 59.9375 47.15625 73.71875 31.25 73.71875 
C 15.34375 73.71875 5.96875 59.9375 5.96875 36.359375 
C 5.96875 12.609375 15.203125 -1 31.25 -1 
z
M 31.25 6.8125 
C 20.671875 6.8125 14.484375 17.4375 14.484375 36.359375 
C 14.484375 55.25 20.734375 66.046875 31.25 66.046875 
C 41.765625 66.046875 48.015625 55.25 48.015625 36.359375 
C 48.015625 17.4375 41.828125 6.8125 31.25 6.8125 
z
" id="Inter-Regular-48"/>
        <path d="M 13.78125 -0.5625 
C 17.296875 -0.5625 20.171875 2.3125 20.171875 5.828125 
C 20.171875 9.34375 17.296875 12.21875 13.78125 12.21875 
C 10.265625 12.21875 7.390625 9.34375 7.390625 5.828125 
C 7.390625 2.3125 10.265625 -0.5625 13.78125 -0.5625 
z
" id="Inter-Regular-46"/>
       </defs>
       <use xlink:href="#Inter-Regular-48"/>
       <use x="62.500015" xlink:href="#Inter-Regular-46"/>
       <use x="90.056839" xlink:href="#Inter-Regular-48"/>
      </g>
     </g>
    </g>
    <g id="xtick_2">
     <g id="line2d_3">
      <path clip-path="url(#p4a6a9bcdeb)" d="M 94.499375 317.72 
L 94.499375 10.8 
" style="fill:none;stroke:#e5e7eb;stroke-dasharray:3.7,1.6;stroke-dashoffset:0;"/>
     </g>
     <g id="line2d_4">
      <g>
       <use style="stroke:#000000;stroke-width:0.8;" x="94.499375" xlink:href="#m29b49eee43" y="317.72"/>
      </g>
     </g>
     <g id="text_2">
      <!-- 2.5 -->
      <g transform="translate(87.055625 331.993437)scale(0.1 -0.1)">
       <defs>
        <path d="M 7.53125 0 
L 53.40625 0 
L 53.40625 7.8125 
L 19.609375 7.8125 
L 19.609375 8.375 
L 35.9375 25.859375 
C 48.4375 39.234375 52.125 45.484375 52.125 53.546875 
C 52.125 64.765625 43.046875 73.71875 30.25 73.71875 
C 17.515625 73.71875 7.8125 65.0625 7.8125 52.265625 
L 16.1875 52.265625 
C 16.1875 60.546875 21.5625 66.046875 29.96875 66.046875 
C 37.859375 66.046875 43.890625 61.21875 43.890625 53.546875 
C 43.890625 46.84375 39.953125 41.875 31.53125 32.671875 
L 7.53125 6.390625 
z
" id="Inter-Regular-50"/>
        <path d="M 30.25 -1 
C 44.109375 -1 54.265625 9.234375 54.265625 23.15625 
C 54.265625 37.25 44.46875 47.578125 31.109375 47.578125 
C 26.203125 47.578125 21.453125 45.84375 18.46875 43.46875 
L 18.046875 43.46875 
L 20.59375 64.921875 
L 51 64.921875 
L 51 72.734375 
L 13.21875 72.734375 
L 8.8125 36.9375 
L 17.046875 35.9375 
C 20.0625 38.109375 25.21875 39.671875 29.6875 39.625 
C 38.953125 39.5625 45.734375 32.53125 45.734375 23.015625 
C 45.734375 13.671875 39.203125 6.8125 30.25 6.8125 
C 22.796875 6.8125 16.875 11.609375 16.1875 18.1875 
L 7.671875 18.1875 
C 8.203125 7.109375 17.75 -1 30.25 -1 
z
" id="Inter-Regular-53"/>
       </defs>
       <use xlink:href="#Inter-Regular-50"/>
       <use x="60.511383" xlink:href="#Inter-Regular-46"/>
       <use x="88.068207" xlink:href="#Inter-Regular-53"/>
      </g>
     </g>
    </g>
    <g id="xtick_3">
     <g id="line2d_5">
      <path clip-path="url(#p4a6a9bcdeb)" d="M 160.21875 317.72 
L 160.21875 10.8 
" style="fill:none;stroke:#e5e7eb;stroke-dasharray:3.7,1.6;stroke-dashoffset:0;"/>
     </g>
     <g id="line2d_6">
      <g>
       <use style="stroke:#000000;stroke-width:0.8;" x="160.21875" xlink:href="#m29b49eee43" y="317.72"/>
      </g>
     </g>
     <g id="text_3">
      <!-- 5.0 -->
      <g transform="translate(152.675781 331.993437)scale(0.1 -0.1)">
       <use xlink:href="#Inter-Regular-53"/>
       <use x="60.795471" xlink:href="#Inter-Regular-46"/>
       <use x="88.352295" xlink:href="#Inter-Regular-48"/>
      </g>
     </g>
    </g>
    <g id="xtick_4">
     <g id="line2d_7">
      <path clip-path="url(#p4a6a9bcdeb)" d="M 225.938125 317.72 
L 225.938125 10.8 
" style="fill:none;stroke:#e5e7eb;stroke-dasharray:3.7,1.6;stroke-dashoffset:0;"/>
     </g>
     <g id="line2d_8">
      <g>
       <use style="stroke:#000000;stroke-width:0.8;" x="225.938125" xlink:href="#m29b49eee43" y="317.72"/>
      </g>
     </g>
     <g id="text_4">
      <!-- 7.5 -->
      <g transform="translate(218.664688 331.993437)scale(0.1 -0.1)">
       <defs>
        <path d="M 9.796875 0 
L 19.03125 0 
L 51.421875 64.484375 
L 51.421875 72.734375 
L 4.828125 72.734375 
L 4.828125 64.921875 
L 42.328125 64.921875 
L 42.328125 64.34375 
z
" id="Inter-Regular-55"/>
       </defs>
       <use xlink:href="#Inter-Regular-55"/>
       <use x="57.10228" xlink:href="#Inter-Regular-46"/>
       <use x="84.659103" xlink:href="#Inter-Regular-53"/>
      </g>
     </g>
    </g>
    <g id="xtick_5">
     <g id="line2d_9">
      <path clip-path="url(#p4a6a9bcdeb)" d="M 291.6575 317.72 
L 291.6575 10.8 
" style="fill:none;stroke:#e5e7eb;stroke-dasharray:3.7,1.6;stroke-dashoffset:0;"/>
     </g>
     <g id="line2d_10">
      <g>
       <use style="stroke:#000000;stroke-width:0.8;" x="291.6575" xlink:href="#m29b49eee43" y="317.72"/>
      </g>
     </g>
     <g id="text_5">
      <!-- 10.0 -->
      <g transform="translate(281.706719 331.993437)scale(0.1 -0.1)">
       <defs>
        <path d="M 33.09375 72.734375 
L 24.296875 72.734375 
L 6.109375 60.65625 
L 6.109375 51.703125 
L 23.859375 63.5 
L 24.296875 63.5 
L 24.296875 0 
L 33.09375 0 
z
" id="Inter-Regular-49"/>
       </defs>
       <use xlink:href="#Inter-Regular-49"/>
       <use x="46.448868" xlink:href="#Inter-Regular-48"/>
       <use x="108.948883" xlink:href="#Inter-Regular-46"/>
       <use x="136.505707" xlink:href="#Inter-Regular-48"/>
      </g>
     </g>
    </g>
    <g id="xtick_6">
     <g id="line2d_11">
      <path clip-path="url(#p4a6a9bcdeb)" d="M 357.376875 317.72 
L 357.376875 10.8 
" style="fill:none;stroke:#e5e7eb;stroke-dasharray:3.7,1.6;stroke-dashoffset:0;"/>
     </g>
     <g id="line2d_12">
      <g>
       <use style="stroke:#000000;stroke-width:0.8;" x="357.376875" xlink:href="#m29b49eee43" y="317.72"/>
      </g>
     </g>
     <g id="text_6">
      <!-- 12.5 -->
      <g transform="translate(347.610469 331.993437)scale(0.1 -0.1)">
       <use xlink:href="#Inter-Regular-49"/>
       <use x="46.448868" xlink:href="#Inter-Regular-50"/>
       <use x="106.960251" xlink:href="#Inter-Regular-46"/>
       <use x="134.517075" xlink:href="#Inter-Regular-53"/>
      </g>
     </g>
    </g>
    <g id="xtick_7">
     <g id="line2d_13">
      <path clip-path="url(#p4a6a9bcdeb)" d="M 423.09625 317.72 
L 423.09625 10.8 
" style="fill:none;stroke:#e5e7eb;stroke-dasharray:3.7,1.6;stroke-dashoffset:0;"/>
     </g>
     <g id="line2d_14">
      <g>
       <use style="stroke:#000000;stroke-width:0.8;" x="423.09625" xlink:href="#m29b49eee43" y="317.72"/>
      </g>
     </g>
     <g id="text_7">
      <!-- 15.0 -->
      <g transform="translate(413.230625 331.993437)scale(0.1 -0.1)">
       <use xlink:href="#Inter-Regular-49"/>
       <use x="46.448868" xlink:href="#Inter-Regular-53"/>
       <use x="107.244339" xlink:href="#Inter-Regular-46"/>
       <use x="134.801163" xlink:href="#Inter-Regular-48"/>
      </g>
     </g>
    </g>
    <g id="xtick_8">
     <g id="line2d_15">
      <path clip-path="url(#p4a6a9bcdeb)" d="M 488.815625 317.72 
L 488.815625 10.8 
" style="fill:none;stroke:#e5e7eb;stroke-dasharray:3.7,1.6;stroke-dashoffset:0;"/>
     </g>
     <g id="line2d_16">
      <g>
       <use style="stroke:#000000;stroke-width:0.8;" x="488.815625" xlink:href="#m29b49eee43" y="317.72"/>
      </g>
     </g>
     <g id="text_8">
      <!-- 17.5 -->
      <g transform="translate(479.219531 331.993437)scale(0.1 -0.1)">
       <use xlink:href="#Inter-Regular-49"/>
       <use x="46.448868" xlink:href="#Inter-Regular-55"/>
       <use x="103.551147" xlink:href="#Inter-Regular-46"/>
       <use x="131.107971" xlink:href="#Inter-Regular-53"/>
      </g>
     </g>
    </g>
    <g id="xtick_9">
     <g id="line2d_17">
      <path clip-path="url(#p4a6a9bcdeb)" d="M 554.535 317.72 
L 554.535 10.8 
" style="fill:none;stroke:#e5e7eb;stroke-dasharray:3.7,1.6;stroke-dashoffset:0;"/>
     </g>
     <g id="line2d_18">
      <g>
       <use style="stroke:#000000;stroke-width:0.8;" x="554.535" xlink:href="#m29b49eee43" y="317.72"/>
      </g>
     </g>
     <g id="text_9">
      <!-- 20.0 -->
      <g transform="translate(543.881094 331.993437)scale(0.1 -0.1)">
       <use xlink:href="#Inter-Regular-50"/>
       <use x="60.511383" xlink:href="#Inter-Regular-48"/>
       <use x="123.011398" xlink:href="#Inter-Regular-46"/>
       <use x="150.568222" xlink:href="#Inter-Regular-48"/>
      </g>
     </g>
    </g>
   </g>
   <g id="matplotlib.axis_2">
    <g id="ytick_1">
     <g id="line2d_19">
      <path clip-path="url(#p4a6a9bcdeb)" d="M 28.78 303.381705 
L 554.535 303.381705 
" style="fill:none;stroke:#e5e7eb;stroke-dasharray:3.7,1.6;stroke-dashoffset:0;"/>
     </g>
     <g id="line2d_20">
      <defs>
       <path d="M 0 0 
L -3.5 0 
" id="m892b1835fb" style="stroke:#000000;stroke-width:0.8;"/>
      </defs>
      <g>
       <use style="stroke:#000000;stroke-width:0.8;" x="28.78" xlink:href="#m892b1835fb" y="303.381705"/>
      </g>
     </g>
     <g id="text_10">
      <!-- 0 -->
      <g transform="translate(15.53 307.018423)scale(0.1 -0.1)">
       <use xlink:href="#Inter-Regular-48"/>
      </g>
     </g>
    </g>
    <g id="ytick_2">
     <g id="line2d_21">
      <path clip-path="url(#p4a6a9bcdeb)" d="M 28.78 268.660255 
L 554.535 268.660255 
" style="fill:none;stroke:#e5e7eb;stroke-dasharray:3.7,1.6;stroke-dashoffset:0;"/>
     </g>
     <g id="line2d_22">
      <g>
       <use style="stroke:#000000;stroke-width:0.8;" x="28.78" xlink:href="#m892b1835fb" y="268.660255"/>
      </g>
     </g>
     <g id="text_11">
      <!-- 2 -->
      <g transform="translate(15.728438 272.296974)scale(0.1 -0.1)">
       <use xlink:href="#Inter-Regular-50"/>
      </g>
     </g>
    </g>
    <g id="ytick_3">
     <g id="line2d_23">
      <path clip-path="url(#p4a6a9bcdeb)" d="M 28.78 233.938806 
L 554.535 233.938806 
" style="fill:none;stroke:#e5e7eb;stroke-dasharray:3.7,1.6;stroke-dashoffset:0;"/>
     </g>
     <g id="line2d_24">
      <g>
       <use style="stroke:#000000;stroke-width:0.8;" x="28.78" xlink:href="#m892b1835fb" y="233.938806"/>
      </g>
     </g>
     <g id="text_12">
      <!-- 4 -->
      <g transform="translate(15.359688 237.575525)scale(0.1 -0.1)">
       <defs>
        <path d="M 5.828125 14.921875 
L 40.0625 14.921875 
L 40.0625 0 
L 48.4375 0 
L 48.4375 14.921875 
L 58.375 14.921875 
L 58.375 22.734375 
L 48.4375 22.734375 
L 48.4375 72.734375 
L 37.78125 72.734375 
L 5.828125 22.15625 
z
M 15.34375 22.734375 
L 15.34375 23.296875 
L 39.484375 61.5 
L 40.0625 61.5 
L 40.0625 22.734375 
z
" id="Inter-Regular-52"/>
       </defs>
       <use xlink:href="#Inter-Regular-52"/>
      </g>
     </g>
    </g>
    <g id="ytick_4">
     <g id="line2d_25">
      <path clip-path="url(#p4a6a9bcdeb)" d="M 28.78 199.217357 
L 554.535 199.217357 
" style="fill:none;stroke:#e5e7eb;stroke-dasharray:3.7,1.6;stroke-dashoffset:0;"/>
     </g>
     <g id="line2d_26">
      <g>
       <use style="stroke:#000000;stroke-width:0.8;" x="28.78" xlink:href="#m892b1835fb" y="199.217357"/>
      </g>
     </g>
     <g id="text_13">
      <!-- 6 -->
      <g transform="translate(15.544063 202.854076)scale(0.1 -0.1)">
       <defs>
        <path d="M 31.671875 -1 
C 46.375 -1.171875 55.96875 9.90625 55.96875 23.4375 
C 55.96875 37.5 45.5625 47.578125 33.09375 47.578125 
C 25.609375 47.578125 19.171875 43.921875 15.203125 37.921875 
L 14.625 37.921875 
C 14.671875 55.78125 21.5625 66.046875 32.8125 66.046875 
C 40.484375 66.046875 45.09375 61.21875 46.734375 54.546875 
L 55.40625 54.546875 
C 53.625 65.984375 45.03125 73.859375 32.8125 73.859375 
C 16.4375 73.859375 6.390625 59.375 6.390625 33.515625 
C 6.390625 6.640625 19.75 -0.859375 31.671875 -1 
z
M 31.671875 6.8125 
C 22.546875 6.8125 15.875 14.59375 15.90625 23.296875 
C 15.953125 32 22.9375 39.765625 31.96875 39.765625 
C 40.875 39.765625 47.4375 32.453125 47.4375 23.4375 
C 47.4375 14.203125 40.59375 6.8125 31.671875 6.8125 
z
" id="Inter-Regular-54"/>
       </defs>
       <use xlink:href="#Inter-Regular-54"/>
      </g>
     </g>
    </g>
    <g id="ytick_5">
     <g id="line2d_27">
      <path clip-path="url(#p4a6a9bcdeb)" d="M 28.78 164.495908 
L 554.535 164.495908 
" style="fill:none;stroke:#e5e7eb;stroke-dasharray:3.7,1.6;stroke-dashoffset:0;"/>
     </g>
     <g id="line2d_28">
      <g>
       <use style="stroke:#000000;stroke-width:0.8;" x="28.78" xlink:href="#m892b1835fb" y="164.495908"/>
      </g>
     </g>
     <g id="text_14">
      <!-- 8 -->
      <g transform="translate(15.614375 168.132626)scale(0.1 -0.1)">
       <defs>
        <path d="M 30.828125 -1 
C 45.34375 -1 55.46875 7.5 55.546875 19.3125 
C 55.46875 28.515625 49.328125 36.328125 41.484375 37.78125 
L 41.484375 38.203125 
C 48.296875 39.984375 52.765625 46.65625 52.84375 54.40625 
C 52.765625 65.484375 43.46875 73.71875 30.828125 73.71875 
C 18.046875 73.71875 8.734375 65.484375 8.8125 54.40625 
C 8.734375 46.65625 13.21875 39.984375 20.171875 38.203125 
L 20.171875 37.78125 
C 12.1875 36.328125 6.03125 28.515625 6.109375 19.3125 
C 6.03125 7.5 16.15625 -1 30.828125 -1 
z
M 30.828125 41.328125 
C 22.875 41.328125 17.265625 46.3125 17.328125 53.828125 
C 17.265625 61.21875 22.65625 66.046875 30.828125 66.046875 
C 38.84375 66.046875 44.25 61.21875 44.3125 53.828125 
C 44.25 46.3125 38.640625 41.328125 30.828125 41.328125 
z
M 30.828125 6.8125 
C 20.84375 6.8125 14.703125 11.9375 14.78125 19.75 
C 14.703125 27.953125 21.484375 33.8125 30.828125 33.8125 
C 40.015625 33.8125 46.8125 27.953125 46.875 19.75 
C 46.8125 11.9375 40.65625 6.8125 30.828125 6.8125 
z
" id="Inter-Regular-56"/>
       </defs>
       <use xlink:href="#Inter-Regular-56"/>
      </g>
     </g>
    </g>
    <g id="ytick_6">
     <g id="line2d_29">
      <path clip-path="url(#p4a6a9bcdeb)" d="M 28.78 129.774459 
L 554.535 129.774459 
" style="fill:none;stroke:#e5e7eb;stroke-dasharray:3.7,1.6;stroke-dashoffset:0;"/>
     </g>
     <g id="line2d_30">
      <g>
       <use style="stroke:#000000;stroke-width:0.8;" x="28.78" xlink:href="#m892b1835fb" y="129.774459"/>
      </g>
     </g>
     <g id="text_15">
      <!-- 10 -->
      <g transform="translate(10.884688 133.411177)scale(0.1 -0.1)">
       <use xlink:href="#Inter-Regular-49"/>
       <use x="46.448868" xlink:href="#Inter-Regular-48"/>
      </g>
     </g>
    </g>
    <g id="ytick_7">
     <g id="line2d_31">
      <path clip-path="url(#p4a6a9bcdeb)" d="M 28.78 95.053009 
L 554.535 95.053009 
" style="fill:none;stroke:#e5e7eb;stroke-dasharray:3.7,1.6;stroke-dashoffset:0;"/>
     </g>
     <g id="line2d_32">
      <g>
       <use style="stroke:#000000;stroke-width:0.8;" x="28.78" xlink:href="#m892b1835fb" y="95.053009"/>
      </g>
     </g>
     <g id="text_16">
      <!-- 12 -->
      <g transform="translate(11.083125 98.689728)scale(0.1 -0.1)">
       <use xlink:href="#Inter-Regular-49"/>
       <use x="46.448868" xlink:href="#Inter-Regular-50"/>
      </g>
     </g>
    </g>
    <g id="ytick_8">
     <g id="line2d_33">
      <path clip-path="url(#p4a6a9bcdeb)" d="M 28.78 60.33156 
L 554.535 60.33156 
" style="fill:none;stroke:#e5e7eb;stroke-dasharray:3.7,1.6;stroke-dashoffset:0;"/>
     </g>
     <g id="line2d_34">
      <g>
       <use style="stroke:#000000;stroke-width:0.8;" x="28.78" xlink:href="#m892b1835fb" y="60.33156"/>
      </g>
     </g>
     <g id="text_17">
      <!-- 14 -->
      <g transform="translate(10.714375 63.968279)scale(0.1 -0.1)">
       <use xlink:href="#Inter-Regular-49"/>
       <use x="46.448868" xlink:href="#Inter-Regular-52"/>
      </g>
     </g>
    </g>
    <g id="ytick_9">
     <g id="line2d_35">
      <path clip-path="url(#p4a6a9bcdeb)" d="M 28.78 25.610111 
L 554.535 25.610111 
" style="fill:none;stroke:#e5e7eb;stroke-dasharray:3.7,1.6;stroke-dashoffset:0;"/>
     </g>
     <g id="line2d_36">
      <g>
       <use style="stroke:#000000;stroke-width:0.8;" x="28.78" xlink:href="#m892b1835fb" y="25.610111"/>
      </g>
     </g>
     <g id="text_18">
      <!-- 16 -->
      <g transform="translate(10.89875 29.24683)scale(0.1 -0.1)">
       <use xlink:href="#Inter-Regular-49"/>
       <use x="46.448868" xlink:href="#Inter-Regular-54"/>
      </g>
     </g>
    </g>
   </g>
   <g id="line2d_37">
    <path clip-path="url(#p4a6a9bcdeb)" d="M 28.78 273.327866 
L 94.499375 211.098547 
L 96.865273 197.726575 
L 99.494048 170.545845 
L 101.597068 146.526933 
L 104.225843 113.660385 
L 110.534903 157.518961 
L 113.163678 213.235599 
L 115.529575 247.126131 
L 118.15835 271.705629 
L 120.26137 286.218864 
L 122.890145 297.922455 
L 128.936328 297.699819 
L 131.565103 285.802573 
L 134.98251 253.00747 
L 137.611285 207.570481 
L 139.714305 160.731916 
L 142.34308 89.072492 
L 146.54912 27.588516 
L 147.863508 32.517924 
L 149.177895 37.397367 
L 150.229405 41.264947 
L 151.280915 45.100549 
L 153.90969 54.549653 
L 155.224078 59.199248 
L 157.852852 68.348563 
L 161.007383 114.250692 
L 163.636157 172.192909 
L 165.739177 210.909982 
L 168.367952 249.760449 
L 170.73385 272.401597 
L 173.362625 287.877656 
L 179.408807 302.301067 
L 185.45499 287.176647 
L 188.083765 271.361982 
L 190.449662 248.283756 
L 193.078437 208.72314 
L 195.181457 169.354065 
L 197.810232 110.491991 
L 201.490517 62.093988 
L 204.119292 62.23108 
L 205.43368 62.29024 
L 208.062455 62.389789 
L 209.63972 62.437504 
L 211.216985 62.47621 
L 213.84576 62.520696 
L 215.160147 62.533553 
L 217.788922 62.540496 
L 221.469207 111.022325 
L 224.097982 169.842076 
L 226.201002 209.163953 
L 228.829777 248.648894 
L 231.195675 271.672109 
L 233.82445 287.43045 
L 239.870632 302.312774 
L 245.916815 287.380839 
L 248.54559 271.566919 
L 250.911487 248.463321 
L 253.540262 208.841081 
L 255.643282 169.382381 
L 258.272057 110.357869 
L 261.952342 61.706095 
L 264.581117 61.697706 
L 265.895505 61.684158 
L 268.52428 61.638355 
L 270.101545 61.598901 
L 271.67881 61.550468 
L 274.307585 61.449793 
L 275.621972 61.390102 
L 278.250747 61.252014 
L 281.931032 109.818539 
L 284.559807 168.886091 
L 286.662827 208.392792 
L 289.291602 248.09199 
L 291.6575 271.251532 
L 294.286275 287.12273 
L 300.332457 302.30898 
L 306.37864 287.742012 
L 309.007415 272.106206 
L 311.373312 249.233108 
L 314.002087 209.985833 
L 316.105107 170.872361 
L 318.733882 112.335957 
L 321.888412 65.958199 
L 324.517187 56.707883 
L 325.831575 52.007104 
L 328.46035 42.454264 
L 329.51186 38.576656 
L 330.56337 34.666779 
L 331.877757 29.734055 
L 333.192145 24.750909 
L 337.398185 86.859985 
L 340.02696 159.255254 
L 342.12998 206.576005 
L 344.758755 252.482614 
L 348.176162 285.620184 
L 350.804937 297.646528 
L 356.85112 297.898688 
L 359.479895 286.091681 
L 361.582915 271.444972 
L 364.21169 246.635205 
L 366.577587 212.426863 
L 369.206362 156.187513 
L 375.515422 111.887627 
L 378.144197 145.046966 
L 380.247217 169.281384 
L 382.875992 196.708091 
L 385.24189 210.197627 
L 450.961265 273.327866 
L 516.68064 211.098547 
L 519.046537 197.726575 
L 521.675312 170.545845 
L 523.778332 146.526933 
L 526.407107 113.660385 
L 532.716167 157.518961 
L 535.344942 213.235599 
L 537.71084 247.126131 
L 540.339615 271.705629 
L 542.442635 286.218864 
L 545.07141 297.922455 
L 551.117592 297.699819 
L 553.746367 285.802573 
L 557.163775 253.00747 
" style="fill:none;stroke:#ef4444;stroke-linecap:square;stroke-width:1.5;"/>
   </g>
   <g id="line2d_38">
    <path clip-path="url(#p4a6a9bcdeb)" d="M 28.78 276.88281 
L 94.499375 204.794645 
L 96.865273 208.425359 
L 99.494048 221.463205 
L 101.597068 231.151371 
L 104.225843 242.333938 
L 110.534903 226.264806 
L 113.163678 196.942326 
L 115.529575 175.65364 
L 118.15835 160.81028 
L 120.26137 148.316102 
L 122.890145 131.924018 
L 128.936328 91.304368 
L 131.565103 72.421162 
L 134.98251 91.133045 
L 137.611285 134.8314 
L 139.714305 166.144675 
L 142.34308 200.72951 
L 146.54912 221.826252 
L 147.863508 220.257642 
L 149.177895 218.655786 
L 150.229405 217.350365 
L 151.280915 216.023667 
L 153.90969 212.613838 
L 155.224078 210.860228 
L 157.852852 207.255756 
L 161.007383 185.690887 
L 163.636157 148.974711 
L 165.739177 115.986028 
L 168.367952 70.230497 
L 170.73385 47.720508 
L 173.362625 47.461441 
L 179.408807 46.775656 
L 185.45499 46.858532 
L 188.083765 47.243989 
L 190.449662 69.902525 
L 193.078437 115.835323 
L 195.181457 148.941993 
L 197.810232 185.77587 
L 201.490517 208.356167 
L 204.119292 208.571725 
L 205.43368 208.656809 
L 208.062455 208.781579 
L 209.63972 208.825834 
L 211.216985 208.847133 
L 213.84576 208.83162 
L 215.160147 208.801161 
L 217.788922 208.694844 
L 221.469207 186.369357 
L 224.097982 149.844326 
L 226.201002 117.025282 
L 228.829777 71.502701 
L 231.195675 49.09797 
L 233.82445 48.821118 
L 239.870632 48.093872 
L 245.916815 48.130001 
L 248.54559 48.493031 
L 250.911487 71.023506 
L 253.540262 116.716952 
L 255.643282 149.652551 
L 258.272057 186.298105 
L 261.952342 208.749213 
L 264.581117 208.941122 
L 265.895505 209.014299 
L 268.52428 209.115093 
L 270.101545 209.144864 
L 271.67881 209.151605 
L 274.307585 209.111664 
L 275.621972 209.068912 
L 278.250747 208.937847 
L 281.931032 186.628661 
L 284.559807 150.155126 
L 286.662827 117.379725 
L 289.291602 71.91476 
L 291.6575 49.525647 
L 294.286275 49.223107 
L 300.332457 48.436519 
L 306.37864 48.411857 
L 309.007415 48.748003 
L 311.373312 71.233466 
L 314.002087 116.861784 
L 316.105107 149.752486 
L 318.733882 186.350924 
L 321.888412 207.879867 
L 324.517187 211.534907 
L 325.831575 213.31271 
L 328.46035 216.768749 
L 329.51186 218.113123 
L 330.56337 219.435758 
L 331.877757 221.058484 
L 333.192145 222.647243 
L 337.398185 201.894214 
L 340.02696 167.780173 
L 342.12998 136.899288 
L 344.758755 93.811115 
L 348.176162 75.420891 
L 350.804937 94.120488 
L 356.85112 134.33098 
L 359.479895 150.551348 
L 361.582915 162.91175 
L 364.21169 177.592387 
L 366.577587 198.604864 
L 369.206362 227.517042 
L 375.515422 243.446631 
L 378.144197 232.516842 
L 380.247217 223.047672 
L 382.875992 210.304536 
L 385.24189 206.779127 
L 450.961265 276.88281 
L 516.68064 204.794645 
L 519.046537 208.425359 
L 521.675312 221.463205 
L 523.778332 231.151371 
L 526.407107 242.333938 
L 532.716167 226.264806 
L 535.344942 196.942326 
L 537.71084 175.65364 
L 540.339615 160.81028 
L 542.442635 148.316102 
L 545.07141 131.924018 
L 551.117592 91.304368 
L 553.746367 72.421162 
L 557.163775 91.133045 
" style="fill:none;stroke:#1d4ed8;stroke-linecap:square;stroke-width:1.5;"/>
   </g>
   <g id="line2d_39">
    <path clip-path="url(#p4a6a9bcdeb)" d="M 28.78 303.566942 
L 94.499375 303.662363 
L 96.865273 303.678516 
L 99.494048 303.710864 
L 101.597068 303.736743 
L 104.225843 303.769091 
L 110.534903 303.715258 
L 113.163678 303.64059 
L 115.529575 303.582266 
L 118.15835 303.526519 
L 120.26137 303.481921 
L 122.890145 303.426174 
L 128.936328 294.779694 
L 131.565103 287.314481 
L 134.98251 275.738324 
L 137.611285 265.111425 
L 139.714305 256.609905 
L 142.34308 245.983006 
L 146.54912 238.187802 
L 147.863508 238.751302 
L 149.177895 239.314803 
L 150.229405 239.765604 
L 151.280915 240.216404 
L 153.90969 241.343406 
L 155.224078 242.062197 
L 157.852852 243.810365 
L 161.007383 250.647823 
L 163.636157 260.139979 
L 165.739177 267.733704 
L 168.367952 277.22586 
L 170.73385 284.712519 
L 173.362625 291.981872 
L 179.408807 300.379729 
L 185.45499 292.124136 
L 188.083765 284.90808 
L 190.449662 277.47897 
L 193.078437 268.06236 
L 195.181457 260.529071 
L 197.810232 251.112461 
L 201.490517 243.959898 
L 204.119292 243.343681 
L 205.43368 243.190866 
L 208.062455 243.195817 
L 209.63972 243.198787 
L 211.216985 243.201758 
L 213.84576 243.206709 
L 215.160147 243.364477 
L 217.788922 243.990595 
L 221.469207 251.153262 
L 224.097982 260.574141 
L 226.201002 268.110844 
L 228.829777 277.531724 
L 231.195675 284.967123 
L 233.82445 292.192993 
L 239.870632 300.490681 
L 245.916815 292.134921 
L 248.54559 284.875305 
L 250.911487 277.404916 
L 253.540262 267.939449 
L 255.643282 260.367075 
L 258.272057 250.901607 
L 261.952342 243.705515 
L 264.581117 243.077099 
L 265.895505 242.918183 
L 268.52428 242.910934 
L 270.101545 242.906584 
L 271.67881 242.902235 
L 274.307585 242.894986 
L 275.621972 243.046653 
L 278.250747 243.660571 
L 281.931032 250.841872 
L 284.559807 260.30109 
L 286.662827 267.868464 
L 289.291602 277.327681 
L 291.6575 284.788861 
L 294.286275 292.034111 
L 300.332457 300.3765 
L 306.37864 292.06544 
L 309.007415 284.825238 
L 311.373312 277.370317 
L 314.002087 267.920065 
L 316.105107 260.359863 
L 318.733882 250.909611 
L 321.888412 244.100004 
L 324.517187 242.355716 
L 325.831575 241.638865 
L 328.46035 240.515744 
L 329.51186 240.066496 
L 330.56337 239.617248 
L 331.877757 239.055687 
L 333.192145 238.494127 
L 337.398185 246.250551 
L 340.02696 256.82631 
L 342.12998 265.286917 
L 344.758755 275.862675 
L 348.176162 287.38228 
L 350.804937 294.810252 
L 356.85112 303.371101 
L 359.479895 303.389606 
L 361.582915 303.40441 
L 364.21169 303.422914 
L 366.577587 303.441323 
L 369.206362 303.46398 
L 375.515422 303.486331 
L 378.144197 303.481245 
L 380.247217 303.477175 
L 382.875992 303.472089 
L 385.24189 303.471522 
L 450.961265 303.566942 
L 516.68064 303.662363 
L 519.046537 303.678516 
L 521.675312 303.710864 
L 523.778332 303.736743 
L 526.407107 303.769091 
L 532.716167 303.715258 
L 535.344942 303.64059 
L 537.71084 303.582266 
L 540.339615 303.526519 
L 542.442635 303.481921 
L 545.07141 303.426174 
L 551.117592 294.779694 
L 553.746367 287.314481 
L 557.163775 275.738324 
" style="fill:none;stroke:#10b981;stroke-linecap:square;stroke-width:1.5;"/>
   </g>
   <g id="patch_3">
    <path d="M 28.78 317.72 
L 28.78 10.8 
" style="fill:none;stroke:#000000;stroke-linecap:square;stroke-linejoin:miter;stroke-width:0.8;"/>
   </g>
   <g id="patch_4">
    <path d="M 554.535 317.72 
L 554.535 10.8 
" style="fill:none;stroke:#000000;stroke-linecap:square;stroke-linejoin:miter;stroke-width:0.8;"/>
   </g>
   <g id="patch_5">
    <path d="M 28.78 317.72 
L 554.535 317.72 
" style="fill:none;stroke:#000000;stroke-linecap:square;stroke-linejoin:miter;stroke-width:0.8;"/>
   </g>
   <g id="patch_6">
    <path d="M 28.78 10.8 
L 554.535 10.8 
" style="fill:none;stroke:#000000;stroke-linecap:square;stroke-linejoin:miter;stroke-width:0.8;"/>
   </g>
  </g>
 </g>
 <defs>
  <clipPath id="p4a6a9bcdeb">
   <rect height="306.92" width="525.755" x="28.78" y="10.8"/>
  </clipPath>
 </defs>
</svg>
