<?xml version="1.0" encoding="utf-8" standalone="no"?>
<!DOCTYPE svg PUBLIC "-//W3C//DTD SVG 1.1//EN"
  "http://www.w3.org/Graphics/SVG/1.1/DTD/svg11.dtd">
<!-- Created with matplotlib (https://matplotlib.org/) -->
<svg height="288pt" version="1.1" viewBox="0 0 720 288" width="720pt" xmlns="http://www.w3.org/2000/svg" xmlns:xlink="http://www.w3.org/1999/xlink">
 <metadata>
  <rdf:RDF xmlns:cc="http://creativecommons.org/ns#" xmlns:dc="http://purl.org/dc/elements/1.1/" xmlns:rdf="http://www.w3.org/1999/02/22-rdf-syntax-ns#">
   <cc:Work>
    <dc:type rdf:resource="http://purl.org/dc/dcmitype/StillImage"/>
    <dc:date>2020-12-08T15:37:26.655384</dc:date>
    <dc:format>image/svg+xml</dc:format>
    <dc:creator>
     <cc:Agent>
      <dc:title>Matplotlib v3.3.3, https://matplotlib.org/</dc:title>
     </cc:Agent>
    </dc:creator>
   </cc:Work>
  </rdf:RDF>
 </metadata>
 <defs>
  <style type="text/css">*{stroke-linecap:butt;stroke-linejoin:round;}</style>
 </defs>
 <g id="figure_1">
  <g id="patch_1">
   <path d="M 0 288 
L 720 288 
L 720 0 
L 0 0 
z
" style="fill:#ffffff;"/>
  </g>
  <g id="axes_1">
   <g id="patch_2">
    <path d="M 28.78 260.12 
L 698.535 260.12 
L 698.535 10.8 
L 28.78 10.8 
z
" style="fill:#ffffff;"/>
   </g>
   <g id="matplotlib.axis_1">
    <g id="xtick_1">
     <g id="line2d_1">
      <path clip-path="url(#pc04b6cfe28)" d="M 28.78 260.12 
L 28.78 10.8 
" style="fill:none;stroke:#e5e7eb;stroke-dasharray:3.7,1.6;stroke-dashoffset:0;"/>
     </g>
     <g id="line2d_2">
      <defs>
       <path d="M 0 0 
L 0 3.5 
" id="m438178cf13" style="stroke:#000000;stroke-width:0.8;"/>
      </defs>
      <g>
       <use style="stroke:#000000;stroke-width:0.8;" x="28.78" xlink:href="#m438178cf13" y="260.12"/>
      </g>
     </g>
     <g id="text_1">
      <!-- 0.0 -->
      <g transform="translate(21.151875 274.393438)scale(0.1 -0.1)">
       <defs>
        <path d="M 31.25 -1 
C 47.296875 -1 56.53125 12.609375 56.53125 36.359375 
C 56.53125 59.9375 47.15625 73.71875 31.25 73.71875 
C 15.34375 73.71875 5.96875 59.9375 5.96875 36.359375 
C 5.96875 12.609375 15.203125 -1 31.25 -1 
z
M 31.25 6.8125 
C 20.671875 6.8125 14.484375 17.4375 14.484375 36.359375 
C 14.484375 55.25 20.734375 66.046875 31.25 66.046875 
C 41.765625 66.046875 48.015625 55.25 48.015625 36.359375 
C 48.015625 17.4375 41.828125 6.8125 31.25 6.8125 
z
" id="Inter-Regular-48"/>
        <path d="M 13.78125 -0.5625 
C 17.296875 -0.5625 20.171875 2.3125 20.171875 5.828125 
C 20.171875 9.34375 17.296875 12.21875 13.78125 12.21875 
C 10.265625 12.21875 7.390625 9.34375 7.390625 5.828125 
C 7.390625 2.3125 10.265625 -0.5625 13.78125 -0.5625 
z
" id="Inter-Regular-46"/>
       </defs>
       <use xlink:href="#Inter-Regular-48"/>
       <use x="62.500015" xlink:href="#Inter-Regular-46"/>
       <use x="90.056839" xlink:href="#Inter-Regular-48"/>
      </g>
     </g>
    </g>
    <g id="xtick_2">
     <g id="line2d_3">
      <path clip-path="url(#pc04b6cfe28)" d="M 112.499375 260.12 
L 112.499375 10.8 
" style="fill:none;stroke:#e5e7eb;stroke-dasharray:3.7,1.6;stroke-dashoffset:0;"/>
     </g>
     <g id="line2d_4">
      <g>
       <use style="stroke:#000000;stroke-width:0.8;" x="112.499375" xlink:href="#m438178cf13" y="260.12"/>
      </g>
     </g>
     <g id="text_2">
      <!-- 2.5 -->
      <g transform="translate(105.055625 274.393438)scale(0.1 -0.1)">
       <defs>
        <path d="M 7.53125 0 
L 53.40625 0 
L 53.40625 7.8125 
L 19.609375 7.8125 
L 19.609375 8.375 
L 35.9375 25.859375 
C 48.4375 39.234375 52.125 45.484375 52.125 53.546875 
C 52.125 64.765625 43.046875 73.71875 30.25 73.71875 
C 17.515625 73.71875 7.8125 65.0625 7.8125 52.265625 
L 16.1875 52.265625 
C 16.1875 60.546875 21.5625 66.046875 29.96875 66.046875 
C 37.859375 66.046875 43.890625 61.21875 43.890625 53.546875 
C 43.890625 46.84375 39.953125 41.875 31.53125 32.671875 
L 7.53125 6.390625 
z
" id="Inter-Regular-50"/>
        <path d="M 30.25 -1 
C 44.109375 -1 54.265625 9.234375 54.265625 23.15625 
C 54.265625 37.25 44.46875 47.578125 31.109375 47.578125 
C 26.203125 47.578125 21.453125 45.84375 18.46875 43.46875 
L 18.046875 43.46875 
L 20.59375 64.921875 
L 51 64.921875 
L 51 72.734375 
L 13.21875 72.734375 
L 8.8125 36.9375 
L 17.046875 35.9375 
C 20.0625 38.109375 25.21875 39.671875 29.6875 39.625 
C 38.953125 39.5625 45.734375 32.53125 45.734375 23.015625 
C 45.734375 13.671875 39.203125 6.8125 30.25 6.8125 
C 22.796875 6.8125 16.875 11.609375 16.1875 18.1875 
L 7.671875 18.1875 
C 8.203125 7.109375 17.75 -1 30.25 -1 
z
" id="Inter-Regular-53"/>
       </defs>
       <use xlink:href="#Inter-Regular-50"/>
       <use x="60.511383" xlink:href="#Inter-Regular-46"/>
       <use x="88.068207" xlink:href="#Inter-Regular-53"/>
      </g>
     </g>
    </g>
    <g id="xtick_3">
     <g id="line2d_5">
      <path clip-path="url(#pc04b6cfe28)" d="M 196.21875 260.12 
L 196.21875 10.8 
" style="fill:none;stroke:#e5e7eb;stroke-dasharray:3.7,1.6;stroke-dashoffset:0;"/>
     </g>
     <g id="line2d_6">
      <g>
       <use style="stroke:#000000;stroke-width:0.8;" x="196.21875" xlink:href="#m438178cf13" y="260.12"/>
      </g>
     </g>
     <g id="text_3">
      <!-- 5.0 -->
      <g transform="translate(188.675781 274.393438)scale(0.1 -0.1)">
       <use xlink:href="#Inter-Regular-53"/>
       <use x="60.795471" xlink:href="#Inter-Regular-46"/>
       <use x="88.352295" xlink:href="#Inter-Regular-48"/>
      </g>
     </g>
    </g>
    <g id="xtick_4">
     <g id="line2d_7">
      <path clip-path="url(#pc04b6cfe28)" d="M 279.938125 260.12 
L 279.938125 10.8 
" style="fill:none;stroke:#e5e7eb;stroke-dasharray:3.7,1.6;stroke-dashoffset:0;"/>
     </g>
     <g id="line2d_8">
      <g>
       <use style="stroke:#000000;stroke-width:0.8;" x="279.938125" xlink:href="#m438178cf13" y="260.12"/>
      </g>
     </g>
     <g id="text_4">
      <!-- 7.5 -->
      <g transform="translate(272.664688 274.393438)scale(0.1 -0.1)">
       <defs>
        <path d="M 9.796875 0 
L 19.03125 0 
L 51.421875 64.484375 
L 51.421875 72.734375 
L 4.828125 72.734375 
L 4.828125 64.921875 
L 42.328125 64.921875 
L 42.328125 64.34375 
z
" id="Inter-Regular-55"/>
       </defs>
       <use xlink:href="#Inter-Regular-55"/>
       <use x="57.10228" xlink:href="#Inter-Regular-46"/>
       <use x="84.659103" xlink:href="#Inter-Regular-53"/>
      </g>
     </g>
    </g>
    <g id="xtick_5">
     <g id="line2d_9">
      <path clip-path="url(#pc04b6cfe28)" d="M 363.6575 260.12 
L 363.6575 10.8 
" style="fill:none;stroke:#e5e7eb;stroke-dasharray:3.7,1.6;stroke-dashoffset:0;"/>
     </g>
     <g id="line2d_10">
      <g>
       <use style="stroke:#000000;stroke-width:0.8;" x="363.6575" xlink:href="#m438178cf13" y="260.12"/>
      </g>
     </g>
     <g id="text_5">
      <!-- 10.0 -->
      <g transform="translate(353.706719 274.393438)scale(0.1 -0.1)">
       <defs>
        <path d="M 33.09375 72.734375 
L 24.296875 72.734375 
L 6.109375 60.65625 
L 6.109375 51.703125 
L 23.859375 63.5 
L 24.296875 63.5 
L 24.296875 0 
L 33.09375 0 
z
" id="Inter-Regular-49"/>
       </defs>
       <use xlink:href="#Inter-Regular-49"/>
       <use x="46.448868" xlink:href="#Inter-Regular-48"/>
       <use x="108.948883" xlink:href="#Inter-Regular-46"/>
       <use x="136.505707" xlink:href="#Inter-Regular-48"/>
      </g>
     </g>
    </g>
    <g id="xtick_6">
     <g id="line2d_11">
      <path clip-path="url(#pc04b6cfe28)" d="M 447.376875 260.12 
L 447.376875 10.8 
" style="fill:none;stroke:#e5e7eb;stroke-dasharray:3.7,1.6;stroke-dashoffset:0;"/>
     </g>
     <g id="line2d_12">
      <g>
       <use style="stroke:#000000;stroke-width:0.8;" x="447.376875" xlink:href="#m438178cf13" y="260.12"/>
      </g>
     </g>
     <g id="text_6">
      <!-- 12.5 -->
      <g transform="translate(437.610469 274.393438)scale(0.1 -0.1)">
       <use xlink:href="#Inter-Regular-49"/>
       <use x="46.448868" xlink:href="#Inter-Regular-50"/>
       <use x="106.960251" xlink:href="#Inter-Regular-46"/>
       <use x="134.517075" xlink:href="#Inter-Regular-53"/>
      </g>
     </g>
    </g>
    <g id="xtick_7">
     <g id="line2d_13">
      <path clip-path="url(#pc04b6cfe28)" d="M 531.09625 260.12 
L 531.09625 10.8 
" style="fill:none;stroke:#e5e7eb;stroke-dasharray:3.7,1.6;stroke-dashoffset:0;"/>
     </g>
     <g id="line2d_14">
      <g>
       <use style="stroke:#000000;stroke-width:0.8;" x="531.09625" xlink:href="#m438178cf13" y="260.12"/>
      </g>
     </g>
     <g id="text_7">
      <!-- 15.0 -->
      <g transform="translate(521.230625 274.393438)scale(0.1 -0.1)">
       <use xlink:href="#Inter-Regular-49"/>
       <use x="46.448868" xlink:href="#Inter-Regular-53"/>
       <use x="107.244339" xlink:href="#Inter-Regular-46"/>
       <use x="134.801163" xlink:href="#Inter-Regular-48"/>
      </g>
     </g>
    </g>
    <g id="xtick_8">
     <g id="line2d_15">
      <path clip-path="url(#pc04b6cfe28)" d="M 614.815625 260.12 
L 614.815625 10.8 
" style="fill:none;stroke:#e5e7eb;stroke-dasharray:3.7,1.6;stroke-dashoffset:0;"/>
     </g>
     <g id="line2d_16">
      <g>
       <use style="stroke:#000000;stroke-width:0.8;" x="614.815625" xlink:href="#m438178cf13" y="260.12"/>
      </g>
     </g>
     <g id="text_8">
      <!-- 17.5 -->
      <g transform="translate(605.219531 274.393438)scale(0.1 -0.1)">
       <use xlink:href="#Inter-Regular-49"/>
       <use x="46.448868" xlink:href="#Inter-Regular-55"/>
       <use x="103.551147" xlink:href="#Inter-Regular-46"/>
       <use x="131.107971" xlink:href="#Inter-Regular-53"/>
      </g>
     </g>
    </g>
    <g id="xtick_9">
     <g id="line2d_17">
      <path clip-path="url(#pc04b6cfe28)" d="M 698.535 260.12 
L 698.535 10.8 
" style="fill:none;stroke:#e5e7eb;stroke-dasharray:3.7,1.6;stroke-dashoffset:0;"/>
     </g>
     <g id="line2d_18">
      <g>
       <use style="stroke:#000000;stroke-width:0.8;" x="698.535" xlink:href="#m438178cf13" y="260.12"/>
      </g>
     </g>
     <g id="text_9">
      <!-- 20.0 -->
      <g transform="translate(687.881094 274.393438)scale(0.1 -0.1)">
       <use xlink:href="#Inter-Regular-50"/>
       <use x="60.511383" xlink:href="#Inter-Regular-48"/>
       <use x="123.011398" xlink:href="#Inter-Regular-46"/>
       <use x="150.568222" xlink:href="#Inter-Regular-48"/>
      </g>
     </g>
    </g>
   </g>
   <g id="matplotlib.axis_2">
    <g id="ytick_1">
     <g id="line2d_19">
      <path clip-path="url(#pc04b6cfe28)" d="M 28.78 248.472588 
L 698.535 248.472588 
" style="fill:none;stroke:#e5e7eb;stroke-dasharray:3.7,1.6;stroke-dashoffset:0;"/>
     </g>
     <g id="line2d_20">
      <defs>
       <path d="M 0 0 
L -3.5 0 
" id="m4b66a99dbb" style="stroke:#000000;stroke-width:0.8;"/>
      </defs>
      <g>
       <use style="stroke:#000000;stroke-width:0.8;" x="28.78" xlink:href="#m4b66a99dbb" y="248.472588"/>
      </g>
     </g>
     <g id="text_10">
      <!-- 0 -->
      <g transform="translate(15.53 252.109306)scale(0.1 -0.1)">
       <use xlink:href="#Inter-Regular-48"/>
      </g>
     </g>
    </g>
    <g id="ytick_2">
     <g id="line2d_21">
      <path clip-path="url(#pc04b6cfe28)" d="M 28.78 220.267349 
L 698.535 220.267349 
" style="fill:none;stroke:#e5e7eb;stroke-dasharray:3.7,1.6;stroke-dashoffset:0;"/>
     </g>
     <g id="line2d_22">
      <g>
       <use style="stroke:#000000;stroke-width:0.8;" x="28.78" xlink:href="#m4b66a99dbb" y="220.267349"/>
      </g>
     </g>
     <g id="text_11">
      <!-- 2 -->
      <g transform="translate(15.728438 223.904068)scale(0.1 -0.1)">
       <use xlink:href="#Inter-Regular-50"/>
      </g>
     </g>
    </g>
    <g id="ytick_3">
     <g id="line2d_23">
      <path clip-path="url(#pc04b6cfe28)" d="M 28.78 192.062111 
L 698.535 192.062111 
" style="fill:none;stroke:#e5e7eb;stroke-dasharray:3.7,1.6;stroke-dashoffset:0;"/>
     </g>
     <g id="line2d_24">
      <g>
       <use style="stroke:#000000;stroke-width:0.8;" x="28.78" xlink:href="#m4b66a99dbb" y="192.062111"/>
      </g>
     </g>
     <g id="text_12">
      <!-- 4 -->
      <g transform="translate(15.359688 195.69883)scale(0.1 -0.1)">
       <defs>
        <path d="M 5.828125 14.921875 
L 40.0625 14.921875 
L 40.0625 0 
L 48.4375 0 
L 48.4375 14.921875 
L 58.375 14.921875 
L 58.375 22.734375 
L 48.4375 22.734375 
L 48.4375 72.734375 
L 37.78125 72.734375 
L 5.828125 22.15625 
z
M 15.34375 22.734375 
L 15.34375 23.296875 
L 39.484375 61.5 
L 40.0625 61.5 
L 40.0625 22.734375 
z
" id="Inter-Regular-52"/>
       </defs>
       <use xlink:href="#Inter-Regular-52"/>
      </g>
     </g>
    </g>
    <g id="ytick_4">
     <g id="line2d_25">
      <path clip-path="url(#pc04b6cfe28)" d="M 28.78 163.856873 
L 698.535 163.856873 
" style="fill:none;stroke:#e5e7eb;stroke-dasharray:3.7,1.6;stroke-dashoffset:0;"/>
     </g>
     <g id="line2d_26">
      <g>
       <use style="stroke:#000000;stroke-width:0.8;" x="28.78" xlink:href="#m4b66a99dbb" y="163.856873"/>
      </g>
     </g>
     <g id="text_13">
      <!-- 6 -->
      <g transform="translate(15.544063 167.493592)scale(0.1 -0.1)">
       <defs>
        <path d="M 31.671875 -1 
C 46.375 -1.171875 55.96875 9.90625 55.96875 23.4375 
C 55.96875 37.5 45.5625 47.578125 33.09375 47.578125 
C 25.609375 47.578125 19.171875 43.921875 15.203125 37.921875 
L 14.625 37.921875 
C 14.671875 55.78125 21.5625 66.046875 32.8125 66.046875 
C 40.484375 66.046875 45.09375 61.21875 46.734375 54.546875 
L 55.40625 54.546875 
C 53.625 65.984375 45.03125 73.859375 32.8125 73.859375 
C 16.4375 73.859375 6.390625 59.375 6.390625 33.515625 
C 6.390625 6.640625 19.75 -0.859375 31.671875 -1 
z
M 31.671875 6.8125 
C 22.546875 6.8125 15.875 14.59375 15.90625 23.296875 
C 15.953125 32 22.9375 39.765625 31.96875 39.765625 
C 40.875 39.765625 47.4375 32.453125 47.4375 23.4375 
C 47.4375 14.203125 40.59375 6.8125 31.671875 6.8125 
z
" id="Inter-Regular-54"/>
       </defs>
       <use xlink:href="#Inter-Regular-54"/>
      </g>
     </g>
    </g>
    <g id="ytick_5">
     <g id="line2d_27">
      <path clip-path="url(#pc04b6cfe28)" d="M 28.78 135.651635 
L 698.535 135.651635 
" style="fill:none;stroke:#e5e7eb;stroke-dasharray:3.7,1.6;stroke-dashoffset:0;"/>
     </g>
     <g id="line2d_28">
      <g>
       <use style="stroke:#000000;stroke-width:0.8;" x="28.78" xlink:href="#m4b66a99dbb" y="135.651635"/>
      </g>
     </g>
     <g id="text_14">
      <!-- 8 -->
      <g transform="translate(15.614375 139.288353)scale(0.1 -0.1)">
       <defs>
        <path d="M 30.828125 -1 
C 45.34375 -1 55.46875 7.5 55.546875 19.3125 
C 55.46875 28.515625 49.328125 36.328125 41.484375 37.78125 
L 41.484375 38.203125 
C 48.296875 39.984375 52.765625 46.65625 52.84375 54.40625 
C 52.765625 65.484375 43.46875 73.71875 30.828125 73.71875 
C 18.046875 73.71875 8.734375 65.484375 8.8125 54.40625 
C 8.734375 46.65625 13.21875 39.984375 20.171875 38.203125 
L 20.171875 37.78125 
C 12.1875 36.328125 6.03125 28.515625 6.109375 19.3125 
C 6.03125 7.5 16.15625 -1 30.828125 -1 
z
M 30.828125 41.328125 
C 22.875 41.328125 17.265625 46.3125 17.328125 53.828125 
C 17.265625 61.21875 22.65625 66.046875 30.828125 66.046875 
C 38.84375 66.046875 44.25 61.21875 44.3125 53.828125 
C 44.25 46.3125 38.640625 41.328125 30.828125 41.328125 
z
M 30.828125 6.8125 
C 20.84375 6.8125 14.703125 11.9375 14.78125 19.75 
C 14.703125 27.953125 21.484375 33.8125 30.828125 33.8125 
C 40.015625 33.8125 46.8125 27.953125 46.875 19.75 
C 46.8125 11.9375 40.65625 6.8125 30.828125 6.8125 
z
" id="Inter-Regular-56"/>
       </defs>
       <use xlink:href="#Inter-Regular-56"/>
      </g>
     </g>
    </g>
    <g id="ytick_6">
     <g id="line2d_29">
      <path clip-path="url(#pc04b6cfe28)" d="M 28.78 107.446396 
L 698.535 107.446396 
" style="fill:none;stroke:#e5e7eb;stroke-dasharray:3.7,1.6;stroke-dashoffset:0;"/>
     </g>
     <g id="line2d_30">
      <g>
       <use style="stroke:#000000;stroke-width:0.8;" x="28.78" xlink:href="#m4b66a99dbb" y="107.446396"/>
      </g>
     </g>
     <g id="text_15">
      <!-- 10 -->
      <g transform="translate(10.884688 111.083115)scale(0.1 -0.1)">
       <use xlink:href="#Inter-Regular-49"/>
       <use x="46.448868" xlink:href="#Inter-Regular-48"/>
      </g>
     </g>
    </g>
    <g id="ytick_7">
     <g id="line2d_31">
      <path clip-path="url(#pc04b6cfe28)" d="M 28.78 79.241158 
L 698.535 79.241158 
" style="fill:none;stroke:#e5e7eb;stroke-dasharray:3.7,1.6;stroke-dashoffset:0;"/>
     </g>
     <g id="line2d_32">
      <g>
       <use style="stroke:#000000;stroke-width:0.8;" x="28.78" xlink:href="#m4b66a99dbb" y="79.241158"/>
      </g>
     </g>
     <g id="text_16">
      <!-- 12 -->
      <g transform="translate(11.083125 82.877877)scale(0.1 -0.1)">
       <use xlink:href="#Inter-Regular-49"/>
       <use x="46.448868" xlink:href="#Inter-Regular-50"/>
      </g>
     </g>
    </g>
    <g id="ytick_8">
     <g id="line2d_33">
      <path clip-path="url(#pc04b6cfe28)" d="M 28.78 51.03592 
L 698.535 51.03592 
" style="fill:none;stroke:#e5e7eb;stroke-dasharray:3.7,1.6;stroke-dashoffset:0;"/>
     </g>
     <g id="line2d_34">
      <g>
       <use style="stroke:#000000;stroke-width:0.8;" x="28.78" xlink:href="#m4b66a99dbb" y="51.03592"/>
      </g>
     </g>
     <g id="text_17">
      <!-- 14 -->
      <g transform="translate(10.714375 54.672639)scale(0.1 -0.1)">
       <use xlink:href="#Inter-Regular-49"/>
       <use x="46.448868" xlink:href="#Inter-Regular-52"/>
      </g>
     </g>
    </g>
    <g id="ytick_9">
     <g id="line2d_35">
      <path clip-path="url(#pc04b6cfe28)" d="M 28.78 22.830682 
L 698.535 22.830682 
" style="fill:none;stroke:#e5e7eb;stroke-dasharray:3.7,1.6;stroke-dashoffset:0;"/>
     </g>
     <g id="line2d_36">
      <g>
       <use style="stroke:#000000;stroke-width:0.8;" x="28.78" xlink:href="#m4b66a99dbb" y="22.830682"/>
      </g>
     </g>
     <g id="text_18">
      <!-- 16 -->
      <g transform="translate(10.89875 26.467401)scale(0.1 -0.1)">
       <use xlink:href="#Inter-Regular-49"/>
       <use x="46.448868" xlink:href="#Inter-Regular-54"/>
      </g>
     </g>
    </g>
   </g>
   <g id="line2d_37">
    <path clip-path="url(#pc04b6cfe28)" d="M 28.78 224.058984 
L 112.499375 173.508307 
L 115.513272 162.645868 
L 118.862047 140.566173 
L 121.541067 121.054916 
L 124.889843 94.356468 
L 132.926903 129.984059 
L 136.275678 175.244297 
L 139.289575 202.774557 
L 142.63835 222.741194 
L 145.31737 234.530715 
L 148.666145 244.037881 
L 156.368328 243.857027 
L 159.717103 234.19255 
L 164.07051 207.552138 
L 167.419285 170.642357 
L 170.098305 132.594035 
L 173.44708 74.383011 
L 178.80512 24.437798 
L 180.479508 28.442098 
L 182.153895 32.405811 
L 183.493405 35.547558 
L 184.832915 38.663329 
L 188.18169 46.33911 
L 189.856077 50.11611 
L 193.204852 57.548364 
L 197.223382 94.835992 
L 200.572157 141.904132 
L 203.251177 173.355131 
L 206.599952 204.91449 
L 209.61385 223.306549 
L 212.962625 235.8782 
L 220.664807 247.594754 
L 228.36699 235.30875 
L 231.715765 222.46204 
L 234.729662 203.714929 
L 238.078437 171.578696 
L 240.757457 139.598056 
L 244.106232 91.78269 
L 248.794517 52.467591 
L 252.143292 52.578955 
L 253.81768 52.627012 
L 257.166455 52.707879 
L 259.17572 52.746639 
L 261.184985 52.778081 
L 264.53376 52.814218 
L 266.208147 52.824662 
L 269.556922 52.830303 
L 274.245207 92.213495 
L 277.593982 139.994482 
L 280.273002 171.936781 
L 283.621777 204.011541 
L 286.635675 222.713965 
L 289.98445 235.514922 
L 297.686632 247.604264 
L 305.388815 235.474621 
L 308.73759 222.628517 
L 311.751487 203.860795 
L 315.100262 171.674503 
L 317.779282 139.621058 
L 321.128057 91.673738 
L 325.816342 52.152495 
L 329.165117 52.14568 
L 330.839505 52.134674 
L 334.18828 52.097467 
L 336.197545 52.065418 
L 338.20681 52.026074 
L 341.555585 51.944293 
L 343.229972 51.895804 
L 346.578747 51.783631 
L 351.267032 91.235626 
L 354.615807 139.217908 
L 357.294827 171.310344 
L 360.643602 203.559152 
L 363.6575 222.372319 
L 367.006275 235.264952 
L 374.708457 247.601182 
L 382.41064 235.768013 
L 385.759415 223.066594 
L 388.773312 204.486115 
L 392.122087 172.604418 
L 394.801107 140.831413 
L 398.149882 93.280597 
L 402.168412 55.606602 
L 405.517187 48.092302 
L 407.191575 44.273724 
L 410.54035 36.513675 
L 411.87986 33.363782 
L 413.21937 30.187676 
L 414.893757 26.180681 
L 416.568145 22.132727 
L 421.926185 72.585727 
L 425.27496 131.3945 
L 427.95398 169.834516 
L 431.302755 207.125783 
L 435.656162 234.04439 
L 439.004937 243.813738 
L 446.70712 244.018575 
L 450.055895 234.427401 
L 452.734915 222.529455 
L 456.08369 202.375763 
L 459.097587 174.587337 
L 462.446362 128.902485 
L 470.483422 92.916405 
L 473.832197 119.852696 
L 476.511217 139.539016 
L 479.859992 161.818524 
L 482.87389 172.776464 
L 566.593265 224.058984 
L 650.31264 173.508307 
L 653.326537 162.645868 
L 656.675312 140.566173 
L 659.354332 121.054916 
L 662.703107 94.356468 
L 670.740167 129.984059 
L 674.088942 175.244297 
L 677.10284 202.774557 
L 680.451615 222.741194 
L 683.130635 234.530715 
L 686.47941 244.037881 
L 694.181592 243.857027 
L 697.530367 234.19255 
L 701.883775 207.552138 
" style="fill:none;stroke:#ef4444;stroke-linecap:square;stroke-width:1.5;"/>
   </g>
   <g id="line2d_38">
    <path clip-path="url(#pc04b6cfe28)" d="M 28.78 226.946769 
L 112.499375 168.387466 
L 115.513272 171.336799 
L 118.862047 181.92782 
L 121.541067 189.797797 
L 124.889843 198.88172 
L 132.926903 185.828299 
L 136.275678 162.008799 
L 139.289575 144.715384 
L 142.63835 132.657692 
L 145.31737 122.50831 
L 148.666145 109.192546 
L 156.368328 76.196029 
L 159.717103 60.856654 
L 164.07051 76.056858 
L 167.419285 111.554296 
L 170.098305 136.990976 
L 173.44708 165.085238 
L 178.80512 182.222733 
L 180.479508 180.948505 
L 182.153895 179.647271 
L 183.493405 178.58684 
L 184.832915 177.509125 
L 188.18169 174.739222 
L 189.856077 173.314714 
L 193.204852 170.386697 
L 197.223382 152.86893 
L 200.572157 123.043317 
L 203.251177 96.245656 
L 206.599952 59.077113 
L 209.61385 40.791597 
L 212.962625 40.58115 
L 220.664807 40.024067 
L 228.36699 40.091389 
L 231.715765 40.404507 
L 234.729662 58.810692 
L 238.078437 96.123233 
L 240.757457 123.01674 
L 244.106232 152.937964 
L 248.794517 171.280592 
L 252.143292 171.455697 
L 253.81768 171.524813 
L 257.166455 171.626168 
L 259.17572 171.662117 
L 261.184985 171.679419 
L 264.53376 171.666817 
L 266.208147 171.642075 
L 269.556922 171.55571 
L 274.245207 153.42007 
L 277.593982 123.749731 
L 280.273002 97.089871 
L 283.621777 60.110561 
L 286.635675 41.910549 
L 289.98445 41.685654 
L 297.686632 41.094892 
L 305.388815 41.12424 
L 308.73759 41.41914 
L 311.751487 59.721298 
L 315.100262 96.839406 
L 317.779282 123.593947 
L 321.128057 153.362191 
L 325.816342 171.599875 
L 329.165117 171.755769 
L 330.839505 171.815213 
L 334.18828 171.89709 
L 336.197545 171.921274 
L 338.20681 171.92675 
L 341.555585 171.894305 
L 343.229972 171.859576 
L 346.578747 171.753108 
L 351.267032 153.630711 
L 354.615807 124.002202 
L 357.294827 97.377796 
L 360.643602 60.445289 
L 363.6575 42.257964 
L 367.006275 42.012202 
L 374.708457 41.373234 
L 382.41064 41.3532 
L 385.759415 41.626261 
L 388.773312 59.891854 
L 392.122087 96.957057 
L 394.801107 123.675127 
L 398.149882 153.405097 
L 402.168412 170.89368 
L 405.517187 173.862775 
L 407.191575 175.306936 
L 410.54035 178.114377 
L 411.87986 179.20645 
L 413.21937 180.280866 
L 414.893757 181.599052 
L 416.568145 182.889648 
L 421.926185 166.031362 
L 425.27496 138.319538 
L 427.95398 113.234101 
L 431.302755 78.232332 
L 435.656162 63.29342 
L 439.004937 78.483644 
L 446.70712 111.14779 
L 450.055895 124.324065 
L 452.734915 134.364778 
L 456.08369 146.290284 
L 459.097587 163.359327 
L 462.446362 186.845526 
L 470.483422 199.785592 
L 473.832197 190.907008 
L 476.511217 183.214927 
L 479.859992 172.863309 
L 482.87389 169.999518 
L 566.593265 226.946769 
L 650.31264 168.387466 
L 653.326537 171.336799 
L 656.675312 181.92782 
L 659.354332 189.797797 
L 662.703107 198.88172 
L 670.740167 185.828299 
L 674.088942 162.008799 
L 677.10284 144.715384 
L 680.451615 132.657692 
L 683.130635 122.50831 
L 686.47941 109.192546 
L 694.181592 76.196029 
L 697.530367 60.856654 
L 701.883775 76.056858 
" style="fill:none;stroke:#1d4ed8;stroke-linecap:square;stroke-width:1.5;"/>
   </g>
   <g id="line2d_39">
    <path clip-path="url(#pc04b6cfe28)" d="M 28.78 248.623062 
L 112.499375 248.700574 
L 115.513272 248.713696 
L 118.862047 248.739974 
L 121.541067 248.760995 
L 124.889843 248.787273 
L 132.926903 248.743543 
L 136.275678 248.682888 
L 139.289575 248.635509 
L 142.63835 248.590224 
L 145.31737 248.553997 
L 148.666145 248.508712 
L 156.368328 241.484926 
L 159.717103 235.420717 
L 164.07051 226.017069 
L 167.419285 217.384531 
L 170.098305 210.478501 
L 173.44708 201.845963 
L 178.80512 195.513693 
L 180.479508 195.971441 
L 182.153895 196.429189 
L 183.493405 196.795387 
L 184.832915 197.161586 
L 188.18169 198.077082 
L 189.856077 198.660976 
L 193.204852 200.081064 
L 197.223382 205.635329 
L 200.572157 213.346082 
L 203.251177 219.514685 
L 206.599952 227.225438 
L 209.61385 233.307067 
L 212.962625 239.212173 
L 220.664807 246.033996 
L 228.36699 239.327739 
L 231.715765 233.465928 
L 234.729662 227.431046 
L 238.078437 219.781661 
L 240.757457 213.662153 
L 244.106232 206.012768 
L 248.794517 200.202534 
L 252.143292 199.701964 
L 253.81768 199.577827 
L 257.166455 199.581849 
L 259.17572 199.584262 
L 261.184985 199.586675 
L 264.53376 199.590697 
L 266.208147 199.718856 
L 269.556922 200.22747 
L 274.245207 206.045912 
L 277.593982 213.698765 
L 280.273002 219.821047 
L 283.621777 227.4739 
L 286.635675 233.51389 
L 289.98445 239.383673 
L 297.686632 246.124126 
L 305.388815 239.3365 
L 308.73759 233.439304 
L 311.751487 227.370891 
L 315.100262 219.681817 
L 317.779282 213.530559 
L 321.128057 205.841486 
L 325.816342 199.995891 
L 329.165117 199.485411 
L 330.839505 199.356319 
L 334.18828 199.35043 
L 336.197545 199.346897 
L 338.20681 199.343364 
L 341.555585 199.337475 
L 343.229972 199.460679 
L 346.578747 199.959383 
L 351.267032 205.792961 
L 354.615807 213.476957 
L 357.294827 219.624154 
L 360.643602 227.30815 
L 363.6575 233.369083 
L 367.006275 239.254609 
L 374.708457 246.031373 
L 382.41064 239.280058 
L 385.759415 233.398632 
L 388.773312 227.342784 
L 392.122087 219.666071 
L 394.801107 213.524701 
L 398.149882 205.847987 
L 402.168412 200.316346 
L 405.517187 198.899411 
L 407.191575 198.317092 
L 410.54035 197.404748 
L 411.87986 197.039811 
L 413.21937 196.674874 
L 414.893757 196.218702 
L 416.568145 195.76253 
L 421.926185 202.063298 
L 425.27496 210.654293 
L 427.95398 217.527089 
L 431.302755 226.118083 
L 435.656162 235.475792 
L 439.004937 241.509748 
L 446.70712 248.463974 
L 450.055895 248.479006 
L 452.734915 248.491031 
L 456.08369 248.506064 
L 459.097587 248.521017 
L 462.446362 248.539422 
L 470.483422 248.557579 
L 473.832197 248.553447 
L 476.511217 248.550141 
L 479.859992 248.546009 
L 482.87389 248.545549 
L 566.593265 248.623062 
L 650.31264 248.700574 
L 653.326537 248.713696 
L 656.675312 248.739974 
L 659.354332 248.760995 
L 662.703107 248.787273 
L 670.740167 248.743543 
L 674.088942 248.682888 
L 677.10284 248.635509 
L 680.451615 248.590224 
L 683.130635 248.553997 
L 686.47941 248.508712 
L 694.181592 241.484926 
L 697.530367 235.420717 
L 701.883775 226.017069 
" style="fill:none;stroke:#10b981;stroke-linecap:square;stroke-width:1.5;"/>
   </g>
   <g id="patch_3">
    <path d="M 28.78 260.12 
L 28.78 10.8 
" style="fill:none;stroke:#000000;stroke-linecap:square;stroke-linejoin:miter;stroke-width:0.8;"/>
   </g>
   <g id="patch_4">
    <path d="M 698.535 260.12 
L 698.535 10.8 
" style="fill:none;stroke:#000000;stroke-linecap:square;stroke-linejoin:miter;stroke-width:0.8;"/>
   </g>
   <g id="patch_5">
    <path d="M 28.78 260.12 
L 698.535 260.12 
" style="fill:none;stroke:#000000;stroke-linecap:square;stroke-linejoin:miter;stroke-width:0.8;"/>
   </g>
   <g id="patch_6">
    <path d="M 28.78 10.8 
L 698.535 10.8 
" style="fill:none;stroke:#000000;stroke-linecap:square;stroke-linejoin:miter;stroke-width:0.8;"/>
   </g>
  </g>
 </g>
 <defs>
  <clipPath id="pc04b6cfe28">
   <rect height="249.32" width="669.755" x="28.78" y="10.8"/>
  </clipPath>
 </defs>
</svg>
