<?xml version="1.0" encoding="utf-8" standalone="no"?>
<!DOCTYPE svg PUBLIC "-//W3C//DTD SVG 1.1//EN"
  "http://www.w3.org/Graphics/SVG/1.1/DTD/svg11.dtd">
<!-- Created with matplotlib (https://matplotlib.org/) -->
<svg height="345.6pt" version="1.1" viewBox="0 0 576 345.6" width="576pt" xmlns="http://www.w3.org/2000/svg" xmlns:xlink="http://www.w3.org/1999/xlink">
 <metadata>
  <rdf:RDF xmlns:cc="http://creativecommons.org/ns#" xmlns:dc="http://purl.org/dc/elements/1.1/" xmlns:rdf="http://www.w3.org/1999/02/22-rdf-syntax-ns#">
   <cc:Work>
    <dc:type rdf:resource="http://purl.org/dc/dcmitype/StillImage"/>
    <dc:date>2020-12-16T19:49:15.018404</dc:date>
    <dc:format>image/svg+xml</dc:format>
    <dc:creator>
     <cc:Agent>
      <dc:title>Matplotlib v3.3.3, https://matplotlib.org/</dc:title>
     </cc:Agent>
    </dc:creator>
   </cc:Work>
  </rdf:RDF>
 </metadata>
 <defs>
  <style type="text/css">*{stroke-linecap:butt;stroke-linejoin:round;}</style>
 </defs>
 <g id="figure_1">
  <g id="patch_1">
   <path d="M 0 345.6 
L 576 345.6 
L 576 0 
L 0 0 
z
" style="fill:#ffffff;"/>
  </g>
  <g id="axes_1">
   <g id="patch_2">
    <path d="M 28.78 317.72 
L 554.535 317.72 
L 554.535 10.8 
L 28.78 10.8 
z
" style="fill:#ffffff;"/>
   </g>
   <g id="matplotlib.axis_1">
    <g id="xtick_1">
     <g id="line2d_1">
      <path clip-path="url(#pd6339ef00e)" d="M 28.78 317.72 
L 28.78 10.8 
" style="fill:none;stroke:#e5e7eb;stroke-dasharray:3.7,1.6;stroke-dashoffset:0;"/>
     </g>
     <g id="line2d_2">
      <defs>
       <path d="M 0 0 
L 0 3.5 
" id="m34b0315db6" style="stroke:#000000;stroke-width:0.8;"/>
      </defs>
      <g>
       <use style="stroke:#000000;stroke-width:0.8;" x="28.78" xlink:href="#m34b0315db6" y="317.72"/>
      </g>
     </g>
     <g id="text_1">
      <!-- 0.0 -->
      <g transform="translate(21.151875 331.993437)scale(0.1 -0.1)">
       <defs>
        <path d="M 31.25 -1 
C 47.296875 -1 56.53125 12.609375 56.53125 36.359375 
C 56.53125 59.9375 47.15625 73.71875 31.25 73.71875 
C 15.34375 73.71875 5.96875 59.9375 5.96875 36.359375 
C 5.96875 12.609375 15.203125 -1 31.25 -1 
z
M 31.25 6.8125 
C 20.671875 6.8125 14.484375 17.4375 14.484375 36.359375 
C 14.484375 55.25 20.734375 66.046875 31.25 66.046875 
C 41.765625 66.046875 48.015625 55.25 48.015625 36.359375 
C 48.015625 17.4375 41.828125 6.8125 31.25 6.8125 
z
" id="Inter-Regular-48"/>
        <path d="M 13.78125 -0.5625 
C 17.296875 -0.5625 20.171875 2.3125 20.171875 5.828125 
C 20.171875 9.34375 17.296875 12.21875 13.78125 12.21875 
C 10.265625 12.21875 7.390625 9.34375 7.390625 5.828125 
C 7.390625 2.3125 10.265625 -0.5625 13.78125 -0.5625 
z
" id="Inter-Regular-46"/>
       </defs>
       <use xlink:href="#Inter-Regular-48"/>
       <use x="62.500015" xlink:href="#Inter-Regular-46"/>
       <use x="90.056839" xlink:href="#Inter-Regular-48"/>
      </g>
     </g>
    </g>
    <g id="xtick_2">
     <g id="line2d_3">
      <path clip-path="url(#pd6339ef00e)" d="M 94.499375 317.72 
L 94.499375 10.8 
" style="fill:none;stroke:#e5e7eb;stroke-dasharray:3.7,1.6;stroke-dashoffset:0;"/>
     </g>
     <g id="line2d_4">
      <g>
       <use style="stroke:#000000;stroke-width:0.8;" x="94.499375" xlink:href="#m34b0315db6" y="317.72"/>
      </g>
     </g>
     <g id="text_2">
      <!-- 2.5 -->
      <g transform="translate(87.055625 331.993437)scale(0.1 -0.1)">
       <defs>
        <path d="M 7.53125 0 
L 53.40625 0 
L 53.40625 7.8125 
L 19.609375 7.8125 
L 19.609375 8.375 
L 35.9375 25.859375 
C 48.4375 39.234375 52.125 45.484375 52.125 53.546875 
C 52.125 64.765625 43.046875 73.71875 30.25 73.71875 
C 17.515625 73.71875 7.8125 65.0625 7.8125 52.265625 
L 16.1875 52.265625 
C 16.1875 60.546875 21.5625 66.046875 29.96875 66.046875 
C 37.859375 66.046875 43.890625 61.21875 43.890625 53.546875 
C 43.890625 46.84375 39.953125 41.875 31.53125 32.671875 
L 7.53125 6.390625 
z
" id="Inter-Regular-50"/>
        <path d="M 30.25 -1 
C 44.109375 -1 54.265625 9.234375 54.265625 23.15625 
C 54.265625 37.25 44.46875 47.578125 31.109375 47.578125 
C 26.203125 47.578125 21.453125 45.84375 18.46875 43.46875 
L 18.046875 43.46875 
L 20.59375 64.921875 
L 51 64.921875 
L 51 72.734375 
L 13.21875 72.734375 
L 8.8125 36.9375 
L 17.046875 35.9375 
C 20.0625 38.109375 25.21875 39.671875 29.6875 39.625 
C 38.953125 39.5625 45.734375 32.53125 45.734375 23.015625 
C 45.734375 13.671875 39.203125 6.8125 30.25 6.8125 
C 22.796875 6.8125 16.875 11.609375 16.1875 18.1875 
L 7.671875 18.1875 
C 8.203125 7.109375 17.75 -1 30.25 -1 
z
" id="Inter-Regular-53"/>
       </defs>
       <use xlink:href="#Inter-Regular-50"/>
       <use x="60.511383" xlink:href="#Inter-Regular-46"/>
       <use x="88.068207" xlink:href="#Inter-Regular-53"/>
      </g>
     </g>
    </g>
    <g id="xtick_3">
     <g id="line2d_5">
      <path clip-path="url(#pd6339ef00e)" d="M 160.21875 317.72 
L 160.21875 10.8 
" style="fill:none;stroke:#e5e7eb;stroke-dasharray:3.7,1.6;stroke-dashoffset:0;"/>
     </g>
     <g id="line2d_6">
      <g>
       <use style="stroke:#000000;stroke-width:0.8;" x="160.21875" xlink:href="#m34b0315db6" y="317.72"/>
      </g>
     </g>
     <g id="text_3">
      <!-- 5.0 -->
      <g transform="translate(152.675781 331.993437)scale(0.1 -0.1)">
       <use xlink:href="#Inter-Regular-53"/>
       <use x="60.795471" xlink:href="#Inter-Regular-46"/>
       <use x="88.352295" xlink:href="#Inter-Regular-48"/>
      </g>
     </g>
    </g>
    <g id="xtick_4">
     <g id="line2d_7">
      <path clip-path="url(#pd6339ef00e)" d="M 225.938125 317.72 
L 225.938125 10.8 
" style="fill:none;stroke:#e5e7eb;stroke-dasharray:3.7,1.6;stroke-dashoffset:0;"/>
     </g>
     <g id="line2d_8">
      <g>
       <use style="stroke:#000000;stroke-width:0.8;" x="225.938125" xlink:href="#m34b0315db6" y="317.72"/>
      </g>
     </g>
     <g id="text_4">
      <!-- 7.5 -->
      <g transform="translate(218.664688 331.993437)scale(0.1 -0.1)">
       <defs>
        <path d="M 9.796875 0 
L 19.03125 0 
L 51.421875 64.484375 
L 51.421875 72.734375 
L 4.828125 72.734375 
L 4.828125 64.921875 
L 42.328125 64.921875 
L 42.328125 64.34375 
z
" id="Inter-Regular-55"/>
       </defs>
       <use xlink:href="#Inter-Regular-55"/>
       <use x="57.10228" xlink:href="#Inter-Regular-46"/>
       <use x="84.659103" xlink:href="#Inter-Regular-53"/>
      </g>
     </g>
    </g>
    <g id="xtick_5">
     <g id="line2d_9">
      <path clip-path="url(#pd6339ef00e)" d="M 291.6575 317.72 
L 291.6575 10.8 
" style="fill:none;stroke:#e5e7eb;stroke-dasharray:3.7,1.6;stroke-dashoffset:0;"/>
     </g>
     <g id="line2d_10">
      <g>
       <use style="stroke:#000000;stroke-width:0.8;" x="291.6575" xlink:href="#m34b0315db6" y="317.72"/>
      </g>
     </g>
     <g id="text_5">
      <!-- 10.0 -->
      <g transform="translate(281.706719 331.993437)scale(0.1 -0.1)">
       <defs>
        <path d="M 33.09375 72.734375 
L 24.296875 72.734375 
L 6.109375 60.65625 
L 6.109375 51.703125 
L 23.859375 63.5 
L 24.296875 63.5 
L 24.296875 0 
L 33.09375 0 
z
" id="Inter-Regular-49"/>
       </defs>
       <use xlink:href="#Inter-Regular-49"/>
       <use x="46.448868" xlink:href="#Inter-Regular-48"/>
       <use x="108.948883" xlink:href="#Inter-Regular-46"/>
       <use x="136.505707" xlink:href="#Inter-Regular-48"/>
      </g>
     </g>
    </g>
    <g id="xtick_6">
     <g id="line2d_11">
      <path clip-path="url(#pd6339ef00e)" d="M 357.376875 317.72 
L 357.376875 10.8 
" style="fill:none;stroke:#e5e7eb;stroke-dasharray:3.7,1.6;stroke-dashoffset:0;"/>
     </g>
     <g id="line2d_12">
      <g>
       <use style="stroke:#000000;stroke-width:0.8;" x="357.376875" xlink:href="#m34b0315db6" y="317.72"/>
      </g>
     </g>
     <g id="text_6">
      <!-- 12.5 -->
      <g transform="translate(347.610469 331.993437)scale(0.1 -0.1)">
       <use xlink:href="#Inter-Regular-49"/>
       <use x="46.448868" xlink:href="#Inter-Regular-50"/>
       <use x="106.960251" xlink:href="#Inter-Regular-46"/>
       <use x="134.517075" xlink:href="#Inter-Regular-53"/>
      </g>
     </g>
    </g>
    <g id="xtick_7">
     <g id="line2d_13">
      <path clip-path="url(#pd6339ef00e)" d="M 423.09625 317.72 
L 423.09625 10.8 
" style="fill:none;stroke:#e5e7eb;stroke-dasharray:3.7,1.6;stroke-dashoffset:0;"/>
     </g>
     <g id="line2d_14">
      <g>
       <use style="stroke:#000000;stroke-width:0.8;" x="423.09625" xlink:href="#m34b0315db6" y="317.72"/>
      </g>
     </g>
     <g id="text_7">
      <!-- 15.0 -->
      <g transform="translate(413.230625 331.993437)scale(0.1 -0.1)">
       <use xlink:href="#Inter-Regular-49"/>
       <use x="46.448868" xlink:href="#Inter-Regular-53"/>
       <use x="107.244339" xlink:href="#Inter-Regular-46"/>
       <use x="134.801163" xlink:href="#Inter-Regular-48"/>
      </g>
     </g>
    </g>
    <g id="xtick_8">
     <g id="line2d_15">
      <path clip-path="url(#pd6339ef00e)" d="M 488.815625 317.72 
L 488.815625 10.8 
" style="fill:none;stroke:#e5e7eb;stroke-dasharray:3.7,1.6;stroke-dashoffset:0;"/>
     </g>
     <g id="line2d_16">
      <g>
       <use style="stroke:#000000;stroke-width:0.8;" x="488.815625" xlink:href="#m34b0315db6" y="317.72"/>
      </g>
     </g>
     <g id="text_8">
      <!-- 17.5 -->
      <g transform="translate(479.219531 331.993437)scale(0.1 -0.1)">
       <use xlink:href="#Inter-Regular-49"/>
       <use x="46.448868" xlink:href="#Inter-Regular-55"/>
       <use x="103.551147" xlink:href="#Inter-Regular-46"/>
       <use x="131.107971" xlink:href="#Inter-Regular-53"/>
      </g>
     </g>
    </g>
    <g id="xtick_9">
     <g id="line2d_17">
      <path clip-path="url(#pd6339ef00e)" d="M 554.535 317.72 
L 554.535 10.8 
" style="fill:none;stroke:#e5e7eb;stroke-dasharray:3.7,1.6;stroke-dashoffset:0;"/>
     </g>
     <g id="line2d_18">
      <g>
       <use style="stroke:#000000;stroke-width:0.8;" x="554.535" xlink:href="#m34b0315db6" y="317.72"/>
      </g>
     </g>
     <g id="text_9">
      <!-- 20.0 -->
      <g transform="translate(543.881094 331.993437)scale(0.1 -0.1)">
       <use xlink:href="#Inter-Regular-50"/>
       <use x="60.511383" xlink:href="#Inter-Regular-48"/>
       <use x="123.011398" xlink:href="#Inter-Regular-46"/>
       <use x="150.568222" xlink:href="#Inter-Regular-48"/>
      </g>
     </g>
    </g>
   </g>
   <g id="matplotlib.axis_2">
    <g id="ytick_1">
     <g id="line2d_19">
      <path clip-path="url(#pd6339ef00e)" d="M 28.78 303.503817 
L 554.535 303.503817 
" style="fill:none;stroke:#e5e7eb;stroke-dasharray:3.7,1.6;stroke-dashoffset:0;"/>
     </g>
     <g id="line2d_20">
      <defs>
       <path d="M 0 0 
L -3.5 0 
" id="md47f1df30a" style="stroke:#000000;stroke-width:0.8;"/>
      </defs>
      <g>
       <use style="stroke:#000000;stroke-width:0.8;" x="28.78" xlink:href="#md47f1df30a" y="303.503817"/>
      </g>
     </g>
     <g id="text_10">
      <!-- 0 -->
      <g transform="translate(15.53 307.140536)scale(0.1 -0.1)">
       <use xlink:href="#Inter-Regular-48"/>
      </g>
     </g>
    </g>
    <g id="ytick_2">
     <g id="line2d_21">
      <path clip-path="url(#pd6339ef00e)" d="M 28.78 268.534422 
L 554.535 268.534422 
" style="fill:none;stroke:#e5e7eb;stroke-dasharray:3.7,1.6;stroke-dashoffset:0;"/>
     </g>
     <g id="line2d_22">
      <g>
       <use style="stroke:#000000;stroke-width:0.8;" x="28.78" xlink:href="#md47f1df30a" y="268.534422"/>
      </g>
     </g>
     <g id="text_11">
      <!-- 2 -->
      <g transform="translate(15.728438 272.171141)scale(0.1 -0.1)">
       <use xlink:href="#Inter-Regular-50"/>
      </g>
     </g>
    </g>
    <g id="ytick_3">
     <g id="line2d_23">
      <path clip-path="url(#pd6339ef00e)" d="M 28.78 233.565027 
L 554.535 233.565027 
" style="fill:none;stroke:#e5e7eb;stroke-dasharray:3.7,1.6;stroke-dashoffset:0;"/>
     </g>
     <g id="line2d_24">
      <g>
       <use style="stroke:#000000;stroke-width:0.8;" x="28.78" xlink:href="#md47f1df30a" y="233.565027"/>
      </g>
     </g>
     <g id="text_12">
      <!-- 4 -->
      <g transform="translate(15.359688 237.201745)scale(0.1 -0.1)">
       <defs>
        <path d="M 5.828125 14.921875 
L 40.0625 14.921875 
L 40.0625 0 
L 48.4375 0 
L 48.4375 14.921875 
L 58.375 14.921875 
L 58.375 22.734375 
L 48.4375 22.734375 
L 48.4375 72.734375 
L 37.78125 72.734375 
L 5.828125 22.15625 
z
M 15.34375 22.734375 
L 15.34375 23.296875 
L 39.484375 61.5 
L 40.0625 61.5 
L 40.0625 22.734375 
z
" id="Inter-Regular-52"/>
       </defs>
       <use xlink:href="#Inter-Regular-52"/>
      </g>
     </g>
    </g>
    <g id="ytick_4">
     <g id="line2d_25">
      <path clip-path="url(#pd6339ef00e)" d="M 28.78 198.595631 
L 554.535 198.595631 
" style="fill:none;stroke:#e5e7eb;stroke-dasharray:3.7,1.6;stroke-dashoffset:0;"/>
     </g>
     <g id="line2d_26">
      <g>
       <use style="stroke:#000000;stroke-width:0.8;" x="28.78" xlink:href="#md47f1df30a" y="198.595631"/>
      </g>
     </g>
     <g id="text_13">
      <!-- 6 -->
      <g transform="translate(15.544063 202.23235)scale(0.1 -0.1)">
       <defs>
        <path d="M 31.671875 -1 
C 46.375 -1.171875 55.96875 9.90625 55.96875 23.4375 
C 55.96875 37.5 45.5625 47.578125 33.09375 47.578125 
C 25.609375 47.578125 19.171875 43.921875 15.203125 37.921875 
L 14.625 37.921875 
C 14.671875 55.78125 21.5625 66.046875 32.8125 66.046875 
C 40.484375 66.046875 45.09375 61.21875 46.734375 54.546875 
L 55.40625 54.546875 
C 53.625 65.984375 45.03125 73.859375 32.8125 73.859375 
C 16.4375 73.859375 6.390625 59.375 6.390625 33.515625 
C 6.390625 6.640625 19.75 -0.859375 31.671875 -1 
z
M 31.671875 6.8125 
C 22.546875 6.8125 15.875 14.59375 15.90625 23.296875 
C 15.953125 32 22.9375 39.765625 31.96875 39.765625 
C 40.875 39.765625 47.4375 32.453125 47.4375 23.4375 
C 47.4375 14.203125 40.59375 6.8125 31.671875 6.8125 
z
" id="Inter-Regular-54"/>
       </defs>
       <use xlink:href="#Inter-Regular-54"/>
      </g>
     </g>
    </g>
    <g id="ytick_5">
     <g id="line2d_27">
      <path clip-path="url(#pd6339ef00e)" d="M 28.78 163.626236 
L 554.535 163.626236 
" style="fill:none;stroke:#e5e7eb;stroke-dasharray:3.7,1.6;stroke-dashoffset:0;"/>
     </g>
     <g id="line2d_28">
      <g>
       <use style="stroke:#000000;stroke-width:0.8;" x="28.78" xlink:href="#md47f1df30a" y="163.626236"/>
      </g>
     </g>
     <g id="text_14">
      <!-- 8 -->
      <g transform="translate(15.614375 167.262954)scale(0.1 -0.1)">
       <defs>
        <path d="M 30.828125 -1 
C 45.34375 -1 55.46875 7.5 55.546875 19.3125 
C 55.46875 28.515625 49.328125 36.328125 41.484375 37.78125 
L 41.484375 38.203125 
C 48.296875 39.984375 52.765625 46.65625 52.84375 54.40625 
C 52.765625 65.484375 43.46875 73.71875 30.828125 73.71875 
C 18.046875 73.71875 8.734375 65.484375 8.8125 54.40625 
C 8.734375 46.65625 13.21875 39.984375 20.171875 38.203125 
L 20.171875 37.78125 
C 12.1875 36.328125 6.03125 28.515625 6.109375 19.3125 
C 6.03125 7.5 16.15625 -1 30.828125 -1 
z
M 30.828125 41.328125 
C 22.875 41.328125 17.265625 46.3125 17.328125 53.828125 
C 17.265625 61.21875 22.65625 66.046875 30.828125 66.046875 
C 38.84375 66.046875 44.25 61.21875 44.3125 53.828125 
C 44.25 46.3125 38.640625 41.328125 30.828125 41.328125 
z
M 30.828125 6.8125 
C 20.84375 6.8125 14.703125 11.9375 14.78125 19.75 
C 14.703125 27.953125 21.484375 33.8125 30.828125 33.8125 
C 40.015625 33.8125 46.8125 27.953125 46.875 19.75 
C 46.8125 11.9375 40.65625 6.8125 30.828125 6.8125 
z
" id="Inter-Regular-56"/>
       </defs>
       <use xlink:href="#Inter-Regular-56"/>
      </g>
     </g>
    </g>
    <g id="ytick_6">
     <g id="line2d_29">
      <path clip-path="url(#pd6339ef00e)" d="M 28.78 128.65684 
L 554.535 128.65684 
" style="fill:none;stroke:#e5e7eb;stroke-dasharray:3.7,1.6;stroke-dashoffset:0;"/>
     </g>
     <g id="line2d_30">
      <g>
       <use style="stroke:#000000;stroke-width:0.8;" x="28.78" xlink:href="#md47f1df30a" y="128.65684"/>
      </g>
     </g>
     <g id="text_15">
      <!-- 10 -->
      <g transform="translate(10.884688 132.293559)scale(0.1 -0.1)">
       <use xlink:href="#Inter-Regular-49"/>
       <use x="46.448868" xlink:href="#Inter-Regular-48"/>
      </g>
     </g>
    </g>
    <g id="ytick_7">
     <g id="line2d_31">
      <path clip-path="url(#pd6339ef00e)" d="M 28.78 93.687445 
L 554.535 93.687445 
" style="fill:none;stroke:#e5e7eb;stroke-dasharray:3.7,1.6;stroke-dashoffset:0;"/>
     </g>
     <g id="line2d_32">
      <g>
       <use style="stroke:#000000;stroke-width:0.8;" x="28.78" xlink:href="#md47f1df30a" y="93.687445"/>
      </g>
     </g>
     <g id="text_16">
      <!-- 12 -->
      <g transform="translate(11.083125 97.324164)scale(0.1 -0.1)">
       <use xlink:href="#Inter-Regular-49"/>
       <use x="46.448868" xlink:href="#Inter-Regular-50"/>
      </g>
     </g>
    </g>
    <g id="ytick_8">
     <g id="line2d_33">
      <path clip-path="url(#pd6339ef00e)" d="M 28.78 58.718049 
L 554.535 58.718049 
" style="fill:none;stroke:#e5e7eb;stroke-dasharray:3.7,1.6;stroke-dashoffset:0;"/>
     </g>
     <g id="line2d_34">
      <g>
       <use style="stroke:#000000;stroke-width:0.8;" x="28.78" xlink:href="#md47f1df30a" y="58.718049"/>
      </g>
     </g>
     <g id="text_17">
      <!-- 14 -->
      <g transform="translate(10.714375 62.354768)scale(0.1 -0.1)">
       <use xlink:href="#Inter-Regular-49"/>
       <use x="46.448868" xlink:href="#Inter-Regular-52"/>
      </g>
     </g>
    </g>
    <g id="ytick_9">
     <g id="line2d_35">
      <path clip-path="url(#pd6339ef00e)" d="M 28.78 23.748654 
L 554.535 23.748654 
" style="fill:none;stroke:#e5e7eb;stroke-dasharray:3.7,1.6;stroke-dashoffset:0;"/>
     </g>
     <g id="line2d_36">
      <g>
       <use style="stroke:#000000;stroke-width:0.8;" x="28.78" xlink:href="#md47f1df30a" y="23.748654"/>
      </g>
     </g>
     <g id="text_18">
      <!-- 16 -->
      <g transform="translate(10.89875 27.385373)scale(0.1 -0.1)">
       <use xlink:href="#Inter-Regular-49"/>
       <use x="46.448868" xlink:href="#Inter-Regular-54"/>
      </g>
     </g>
    </g>
   </g>
   <g id="line2d_37">
    <path clip-path="url(#pd6339ef00e)" d="M 28.78 272.940124 
L 94.499375 210.424231 
L 96.865273 196.974279 
L 99.494048 169.611659 
L 101.597068 145.435192 
L 104.225843 112.356646 
L 110.534903 156.617145 
L 113.163678 212.755181 
L 115.529575 246.899907 
L 118.15835 271.660264 
L 120.26137 286.272311 
L 122.890145 298.042073 
L 128.936328 297.729907 
L 131.565103 285.688615 
L 134.98251 252.529172 
L 137.611285 206.599272 
L 139.714305 159.261194 
L 142.34308 86.845897 
L 146.54912 24.750909 
L 147.863508 29.751339 
L 149.177895 34.700978 
L 150.229405 38.624121 
L 151.280915 42.514757 
L 153.90969 52.099134 
L 155.224078 56.815126 
L 157.852852 66.09476 
L 161.007383 112.499957 
L 163.636157 171.047152 
L 165.739177 210.163711 
L 168.367952 249.407916 
L 170.73385 272.276073 
L 173.362625 287.903097 
L 179.408807 302.416543 
L 185.45499 287.134664 
L 188.083765 271.17315 
L 190.449662 247.883385 
L 193.078437 207.962041 
L 195.181457 168.236366 
L 197.810232 108.843525 
L 201.490517 60.018779 
L 204.119292 60.168838 
L 205.43368 60.23443 
L 208.062455 60.34674 
L 209.63972 60.402046 
L 211.216985 60.448293 
L 213.84576 60.505238 
L 215.160147 60.524273 
L 217.788922 60.543469 
L 221.469207 109.466719 
L 224.097982 168.809827 
L 226.201002 208.480038 
L 228.829777 248.312458 
L 231.195675 271.537579 
L 233.82445 287.432908 
L 239.870632 302.425922 
L 245.916815 287.432908 
L 248.54559 271.537579 
L 250.911487 248.312458 
L 253.540262 208.480038 
L 255.643282 168.809827 
L 258.272057 109.466719 
L 261.952342 60.543469 
L 264.581117 60.524273 
L 265.895505 60.505238 
L 268.52428 60.448293 
L 270.101545 60.402046 
L 271.67881 60.34674 
L 274.307585 60.23443 
L 275.621972 60.168838 
L 278.250747 60.018779 
L 281.931032 108.843525 
L 284.559807 168.236366 
L 286.662827 207.962041 
L 289.291602 247.883385 
L 291.6575 271.17315 
L 294.286275 287.134664 
L 300.332457 302.416543 
L 306.37864 287.903097 
L 309.007415 272.276073 
L 311.373312 249.407916 
L 314.002087 210.163711 
L 316.105107 171.047152 
L 318.733882 112.499957 
L 321.888412 66.09476 
L 324.517187 56.815126 
L 325.831575 52.099134 
L 328.46035 42.514757 
L 329.51186 38.624121 
L 330.56337 34.700978 
L 331.877757 29.751339 
L 333.192145 24.750909 
L 337.398185 86.845897 
L 340.02696 159.261194 
L 342.12998 206.599272 
L 344.758755 252.529172 
L 348.176162 285.688615 
L 350.804937 297.729907 
L 356.85112 298.042073 
L 359.479895 286.272311 
L 361.582915 271.660264 
L 364.21169 246.899907 
L 366.577587 212.755181 
L 369.206362 156.617145 
L 375.515422 112.356646 
L 378.144197 145.435192 
L 380.247217 169.611659 
L 382.875992 196.974279 
L 385.24189 210.424231 
L 450.961265 272.940124 
L 516.68064 210.424231 
L 519.046537 196.974279 
L 521.675312 169.611659 
L 523.778332 145.435192 
L 526.407107 112.356646 
L 532.716167 156.617145 
L 535.344942 212.755181 
L 537.71084 246.899907 
L 540.339615 271.660264 
L 542.442635 286.272311 
L 545.07141 298.042073 
L 551.117592 297.729907 
L 553.746367 285.688615 
L 557.163775 252.529172 
" style="fill:none;stroke:#ef4444;stroke-linecap:square;stroke-width:1.5;"/>
   </g>
   <g id="line2d_38">
    <path clip-path="url(#pd6339ef00e)" d="M 28.78 276.836779 
L 94.499375 205.185906 
L 96.865273 208.788532 
L 99.494048 221.772761 
L 101.597068 231.421228 
L 104.225843 242.558166 
L 110.534903 226.432847 
L 113.163678 197.092568 
L 115.529575 175.779462 
L 118.15835 160.903238 
L 120.26137 148.379761 
L 122.890145 131.947293 
L 128.936328 91.219174 
L 131.565103 72.282153 
L 134.98251 90.973851 
L 137.611285 134.699252 
L 139.714305 166.034496 
L 142.34308 200.647204 
L 146.54912 221.731592 
L 147.863508 220.140149 
L 149.177895 218.514855 
L 150.229405 217.190246 
L 151.280915 215.843972 
L 153.90969 212.383502 
L 155.224078 210.603668 
L 157.852852 206.944937 
L 161.007383 185.229577 
L 163.636157 148.286282 
L 165.739177 115.089593 
L 168.367952 69.041166 
L 170.73385 46.367696 
L 173.362625 46.06734 
L 179.408807 46.182525 
L 185.45499 46.172007 
L 188.083765 46.517678 
L 190.449662 69.216385 
L 193.078437 115.271088 
L 195.181457 148.468714 
L 197.810232 185.408075 
L 201.490517 208.027354 
L 204.119292 208.20139 
L 205.43368 208.26553 
L 208.062455 208.348046 
L 209.63972 208.366707 
L 211.216985 208.36223 
L 213.84576 208.303355 
L 215.160147 208.251036 
L 217.788922 208.100637 
L 221.469207 185.536493 
L 224.097982 148.663961 
L 226.201002 115.528572 
L 228.829777 69.562632 
L 231.195675 46.918842 
L 233.82445 46.596672 
L 239.870632 46.659637 
L 245.916815 46.596672 
L 248.54559 46.918842 
L 250.911487 69.562632 
L 253.540262 115.528572 
L 255.643282 148.663961 
L 258.272057 185.536493 
L 261.952342 208.100637 
L 264.581117 208.251036 
L 265.895505 208.303355 
L 268.52428 208.36223 
L 270.101545 208.366707 
L 271.67881 208.348046 
L 274.307585 208.26553 
L 275.621972 208.20139 
L 278.250747 208.027354 
L 281.931032 185.408075 
L 284.559807 148.468714 
L 286.662827 115.271088 
L 289.291602 69.216385 
L 291.6575 46.517678 
L 294.286275 46.172007 
L 300.332457 46.182525 
L 306.37864 46.06734 
L 309.007415 46.367696 
L 311.373312 69.041166 
L 314.002087 115.089593 
L 316.105107 148.286282 
L 318.733882 185.229577 
L 321.888412 206.944937 
L 324.517187 210.603668 
L 325.831575 212.383502 
L 328.46035 215.843972 
L 329.51186 217.190246 
L 330.56337 218.514855 
L 331.877757 220.140149 
L 333.192145 221.731592 
L 337.398185 200.647204 
L 340.02696 166.034496 
L 342.12998 134.699252 
L 344.758755 90.973851 
L 348.176162 72.282153 
L 350.804937 91.219174 
L 356.85112 131.947293 
L 359.479895 148.379761 
L 361.582915 160.903238 
L 364.21169 175.779462 
L 366.577587 197.092568 
L 369.206362 226.432847 
L 375.515422 242.558166 
L 378.144197 231.421228 
L 380.247217 221.772761 
L 382.875992 208.788532 
L 385.24189 205.185906 
L 450.961265 276.836779 
L 516.68064 205.185906 
L 519.046537 208.788532 
L 521.675312 221.772761 
L 523.778332 231.421228 
L 526.407107 242.558166 
L 532.716167 226.432847 
L 535.344942 197.092568 
L 537.71084 175.779462 
L 540.339615 160.903238 
L 542.442635 148.379761 
L 545.07141 131.947293 
L 551.117592 91.219174 
L 553.746367 72.282153 
L 557.163775 90.973851 
" style="fill:none;stroke:#1d4ed8;stroke-linecap:square;stroke-width:1.5;"/>
   </g>
   <g id="line2d_39">
    <path clip-path="url(#pd6339ef00e)" d="M 28.78 303.703563 
L 94.499375 303.703563 
L 96.865273 303.712578 
L 99.494048 303.732761 
L 101.597068 303.748908 
L 104.225843 303.769091 
L 110.534903 303.728016 
L 113.163678 303.675542 
L 115.529575 303.634171 
L 118.15835 303.594137 
L 120.26137 303.56211 
L 122.890145 303.522077 
L 128.936328 294.850897 
L 131.565103 287.348486 
L 134.98251 275.713866 
L 137.611285 265.032795 
L 139.714305 256.487937 
L 142.34308 245.806865 
L 146.54912 237.972749 
L 147.863508 238.539624 
L 149.177895 239.1065 
L 150.229405 239.560001 
L 151.280915 240.013501 
L 153.90969 241.147253 
L 155.224078 241.870528 
L 157.852852 243.629882 
L 161.007383 250.504764 
L 163.636157 260.047256 
L 165.739177 267.68125 
L 168.367952 277.223742 
L 170.73385 284.750758 
L 173.362625 292.060127 
L 179.408807 300.470655 
L 185.45499 292.114091 
L 188.083765 284.82821 
L 190.449662 277.326162 
L 193.078437 267.816079 
L 195.181457 260.208013 
L 197.810232 250.69793 
L 201.490517 243.47626 
L 204.119292 242.856583 
L 205.43368 242.703146 
L 208.062455 242.709072 
L 209.63972 242.712627 
L 211.216985 242.716183 
L 213.84576 242.722109 
L 215.160147 242.881473 
L 217.788922 243.513002 
L 221.469207 250.746763 
L 224.097982 260.261956 
L 226.201002 267.87411 
L 228.829777 277.389302 
L 231.195675 284.898878 
L 233.82445 292.196503 
L 239.870632 300.580145 
L 245.916815 292.196503 
L 248.54559 284.898878 
L 250.911487 277.389302 
L 253.540262 267.87411 
L 255.643282 260.261956 
L 258.272057 250.746763 
L 261.952342 243.513002 
L 264.581117 242.881473 
L 265.895505 242.722109 
L 268.52428 242.716183 
L 270.101545 242.712627 
L 271.67881 242.709072 
L 274.307585 242.703146 
L 275.621972 242.856583 
L 278.250747 243.47626 
L 281.931032 250.69793 
L 284.559807 260.208013 
L 286.662827 267.816079 
L 289.291602 277.326162 
L 291.6575 284.82821 
L 294.286275 292.114091 
L 300.332457 300.470655 
L 306.37864 292.060127 
L 309.007415 284.750758 
L 311.373312 277.223742 
L 314.002087 267.68125 
L 316.105107 260.047256 
L 318.733882 250.504764 
L 321.888412 243.629882 
L 324.517187 241.870528 
L 325.831575 241.147253 
L 328.46035 240.013501 
L 329.51186 239.560001 
L 330.56337 239.1065 
L 331.877757 238.539624 
L 333.192145 237.972749 
L 337.398185 245.806865 
L 340.02696 256.487937 
L 342.12998 265.032795 
L 344.758755 275.713866 
L 348.176162 287.348486 
L 350.804937 294.850897 
L 356.85112 303.522077 
L 359.479895 303.56211 
L 361.582915 303.594137 
L 364.21169 303.634171 
L 366.577587 303.675542 
L 369.206362 303.728016 
L 375.515422 303.769091 
L 378.144197 303.748908 
L 380.247217 303.732761 
L 382.875992 303.712578 
L 385.24189 303.703563 
L 450.961265 303.703563 
L 516.68064 303.703563 
L 519.046537 303.712578 
L 521.675312 303.732761 
L 523.778332 303.748908 
L 526.407107 303.769091 
L 532.716167 303.728016 
L 535.344942 303.675542 
L 537.71084 303.634171 
L 540.339615 303.594137 
L 542.442635 303.56211 
L 545.07141 303.522077 
L 551.117592 294.850897 
L 553.746367 287.348486 
L 557.163775 275.713866 
" style="fill:none;stroke:#10b981;stroke-linecap:square;stroke-width:1.5;"/>
   </g>
   <g id="patch_3">
    <path d="M 28.78 317.72 
L 28.78 10.8 
" style="fill:none;stroke:#000000;stroke-linecap:square;stroke-linejoin:miter;stroke-width:0.8;"/>
   </g>
   <g id="patch_4">
    <path d="M 554.535 317.72 
L 554.535 10.8 
" style="fill:none;stroke:#000000;stroke-linecap:square;stroke-linejoin:miter;stroke-width:0.8;"/>
   </g>
   <g id="patch_5">
    <path d="M 28.78 317.72 
L 554.535 317.72 
" style="fill:none;stroke:#000000;stroke-linecap:square;stroke-linejoin:miter;stroke-width:0.8;"/>
   </g>
   <g id="patch_6">
    <path d="M 28.78 10.8 
L 554.535 10.8 
" style="fill:none;stroke:#000000;stroke-linecap:square;stroke-linejoin:miter;stroke-width:0.8;"/>
   </g>
  </g>
 </g>
 <defs>
  <clipPath id="pd6339ef00e">
   <rect height="306.92" width="525.755" x="28.78" y="10.8"/>
  </clipPath>
 </defs>
</svg>
