<?xml version="1.0" encoding="utf-8" standalone="no"?>
<!DOCTYPE svg PUBLIC "-//W3C//DTD SVG 1.1//EN"
  "http://www.w3.org/Graphics/SVG/1.1/DTD/svg11.dtd">
<!-- Created with matplotlib (https://matplotlib.org/) -->
<svg height="345.6pt" version="1.1" viewBox="0 0 576 345.6" width="576pt" xmlns="http://www.w3.org/2000/svg" xmlns:xlink="http://www.w3.org/1999/xlink">
 <metadata>
  <rdf:RDF xmlns:cc="http://creativecommons.org/ns#" xmlns:dc="http://purl.org/dc/elements/1.1/" xmlns:rdf="http://www.w3.org/1999/02/22-rdf-syntax-ns#">
   <cc:Work>
    <dc:type rdf:resource="http://purl.org/dc/dcmitype/StillImage"/>
    <dc:date>2020-12-16T21:05:53.310717</dc:date>
    <dc:format>image/svg+xml</dc:format>
    <dc:creator>
     <cc:Agent>
      <dc:title>Matplotlib v3.3.3, https://matplotlib.org/</dc:title>
     </cc:Agent>
    </dc:creator>
   </cc:Work>
  </rdf:RDF>
 </metadata>
 <defs>
  <style type="text/css">*{stroke-linecap:butt;stroke-linejoin:round;}</style>
 </defs>
 <g id="figure_1">
  <g id="patch_1">
   <path d="M 0 345.6 
L 576 345.6 
L 576 0 
L 0 0 
z
" style="fill:#ffffff;"/>
  </g>
  <g id="axes_1">
   <g id="patch_2">
    <path d="M 30.4 301.48 
L 551.655 301.48 
L 551.655 51.0736 
L 30.4 51.0736 
z
" style="fill:#ffffff;"/>
   </g>
   <g id="matplotlib.axis_1">
    <g id="xtick_1">
     <g id="line2d_1">
      <path clip-path="url(#p69587385ce)" d="M 30.4 301.48 
L 30.4 51.0736 
" style="fill:none;stroke:#e5e7eb;stroke-dasharray:3.7,1.6;stroke-dashoffset:0;"/>
     </g>
     <g id="line2d_2">
      <defs>
       <path d="M 0 0 
L 0 3.5 
" id="m47300745ea" style="stroke:#000000;stroke-width:0.8;"/>
      </defs>
      <g>
       <use style="stroke:#000000;stroke-width:0.8;" x="30.4" xlink:href="#m47300745ea" y="301.48"/>
      </g>
     </g>
     <g id="text_1">
      <!-- 0.000 -->
      <g transform="translate(16.521875 315.753437)scale(0.1 -0.1)">
       <defs>
        <path d="M 31.25 -1 
C 47.296875 -1 56.53125 12.609375 56.53125 36.359375 
C 56.53125 59.9375 47.15625 73.71875 31.25 73.71875 
C 15.34375 73.71875 5.96875 59.9375 5.96875 36.359375 
C 5.96875 12.609375 15.203125 -1 31.25 -1 
z
M 31.25 6.8125 
C 20.671875 6.8125 14.484375 17.4375 14.484375 36.359375 
C 14.484375 55.25 20.734375 66.046875 31.25 66.046875 
C 41.765625 66.046875 48.015625 55.25 48.015625 36.359375 
C 48.015625 17.4375 41.828125 6.8125 31.25 6.8125 
z
" id="Inter-Regular-48"/>
        <path d="M 13.78125 -0.5625 
C 17.296875 -0.5625 20.171875 2.3125 20.171875 5.828125 
C 20.171875 9.34375 17.296875 12.21875 13.78125 12.21875 
C 10.265625 12.21875 7.390625 9.34375 7.390625 5.828125 
C 7.390625 2.3125 10.265625 -0.5625 13.78125 -0.5625 
z
" id="Inter-Regular-46"/>
       </defs>
       <use xlink:href="#Inter-Regular-48"/>
       <use x="62.500015" xlink:href="#Inter-Regular-46"/>
       <use x="90.056839" xlink:href="#Inter-Regular-48"/>
       <use x="152.556854" xlink:href="#Inter-Regular-48"/>
       <use x="215.05687" xlink:href="#Inter-Regular-48"/>
      </g>
     </g>
    </g>
    <g id="xtick_2">
     <g id="line2d_3">
      <path clip-path="url(#p69587385ce)" d="M 360.87567 301.48 
L 360.87567 51.0736 
" style="fill:none;stroke:#e5e7eb;stroke-dasharray:3.7,1.6;stroke-dashoffset:0;"/>
     </g>
     <g id="line2d_4">
      <g>
       <use style="stroke:#000000;stroke-width:0.8;" x="360.87567" xlink:href="#m47300745ea" y="301.48"/>
      </g>
     </g>
     <g id="text_2">
      <!-- 4.755 -->
      <g transform="translate(347.352233 315.753437)scale(0.1 -0.1)">
       <defs>
        <path d="M 5.828125 14.921875 
L 40.0625 14.921875 
L 40.0625 0 
L 48.4375 0 
L 48.4375 14.921875 
L 58.375 14.921875 
L 58.375 22.734375 
L 48.4375 22.734375 
L 48.4375 72.734375 
L 37.78125 72.734375 
L 5.828125 22.15625 
z
M 15.34375 22.734375 
L 15.34375 23.296875 
L 39.484375 61.5 
L 40.0625 61.5 
L 40.0625 22.734375 
z
" id="Inter-Regular-52"/>
        <path d="M 9.796875 0 
L 19.03125 0 
L 51.421875 64.484375 
L 51.421875 72.734375 
L 4.828125 72.734375 
L 4.828125 64.921875 
L 42.328125 64.921875 
L 42.328125 64.34375 
z
" id="Inter-Regular-55"/>
        <path d="M 30.25 -1 
C 44.109375 -1 54.265625 9.234375 54.265625 23.15625 
C 54.265625 37.25 44.46875 47.578125 31.109375 47.578125 
C 26.203125 47.578125 21.453125 45.84375 18.46875 43.46875 
L 18.046875 43.46875 
L 20.59375 64.921875 
L 51 64.921875 
L 51 72.734375 
L 13.21875 72.734375 
L 8.8125 36.9375 
L 17.046875 35.9375 
C 20.0625 38.109375 25.21875 39.671875 29.6875 39.625 
C 38.953125 39.5625 45.734375 32.53125 45.734375 23.015625 
C 45.734375 13.671875 39.203125 6.8125 30.25 6.8125 
C 22.796875 6.8125 16.875 11.609375 16.1875 18.1875 
L 7.671875 18.1875 
C 8.203125 7.109375 17.75 -1 30.25 -1 
z
" id="Inter-Regular-53"/>
       </defs>
       <use xlink:href="#Inter-Regular-52"/>
       <use x="64.204559" xlink:href="#Inter-Regular-46"/>
       <use x="91.761383" xlink:href="#Inter-Regular-55"/>
       <use x="148.863663" xlink:href="#Inter-Regular-53"/>
       <use x="209.659134" xlink:href="#Inter-Regular-53"/>
      </g>
     </g>
    </g>
    <g id="xtick_3">
     <g id="line2d_5">
      <path clip-path="url(#p69587385ce)" d="M 420.29874 301.48 
L 420.29874 51.0736 
" style="fill:none;stroke:#e5e7eb;stroke-dasharray:3.7,1.6;stroke-dashoffset:0;"/>
     </g>
     <g id="line2d_6">
      <g>
       <use style="stroke:#000000;stroke-width:0.8;" x="420.29874" xlink:href="#m47300745ea" y="301.48"/>
      </g>
     </g>
     <g id="text_3">
      <!-- 5.610 -->
      <g transform="translate(407.315146 315.753437)scale(0.1 -0.1)">
       <defs>
        <path d="M 31.671875 -1 
C 46.375 -1.171875 55.96875 9.90625 55.96875 23.4375 
C 55.96875 37.5 45.5625 47.578125 33.09375 47.578125 
C 25.609375 47.578125 19.171875 43.921875 15.203125 37.921875 
L 14.625 37.921875 
C 14.671875 55.78125 21.5625 66.046875 32.8125 66.046875 
C 40.484375 66.046875 45.09375 61.21875 46.734375 54.546875 
L 55.40625 54.546875 
C 53.625 65.984375 45.03125 73.859375 32.8125 73.859375 
C 16.4375 73.859375 6.390625 59.375 6.390625 33.515625 
C 6.390625 6.640625 19.75 -0.859375 31.671875 -1 
z
M 31.671875 6.8125 
C 22.546875 6.8125 15.875 14.59375 15.90625 23.296875 
C 15.953125 32 22.9375 39.765625 31.96875 39.765625 
C 40.875 39.765625 47.4375 32.453125 47.4375 23.4375 
C 47.4375 14.203125 40.59375 6.8125 31.671875 6.8125 
z
" id="Inter-Regular-54"/>
        <path d="M 33.09375 72.734375 
L 24.296875 72.734375 
L 6.109375 60.65625 
L 6.109375 51.703125 
L 23.859375 63.5 
L 24.296875 63.5 
L 24.296875 0 
L 33.09375 0 
z
" id="Inter-Regular-49"/>
       </defs>
       <use xlink:href="#Inter-Regular-53"/>
       <use x="60.795471" xlink:href="#Inter-Regular-46"/>
       <use x="88.352295" xlink:href="#Inter-Regular-54"/>
       <use x="150.710266" xlink:href="#Inter-Regular-49"/>
       <use x="197.159134" xlink:href="#Inter-Regular-48"/>
      </g>
     </g>
    </g>
    <g id="xtick_4">
     <g id="line2d_7">
      <path clip-path="url(#p69587385ce)" d="M 551.655 301.48 
L 551.655 51.0736 
" style="fill:none;stroke:#e5e7eb;stroke-dasharray:3.7,1.6;stroke-dashoffset:0;"/>
     </g>
     <g id="line2d_8">
      <g>
       <use style="stroke:#000000;stroke-width:0.8;" x="551.655" xlink:href="#m47300745ea" y="301.48"/>
      </g>
     </g>
     <g id="text_4">
      <!-- 7.500 -->
      <g transform="translate(538.131562 315.753437)scale(0.1 -0.1)">
       <use xlink:href="#Inter-Regular-55"/>
       <use x="57.10228" xlink:href="#Inter-Regular-46"/>
       <use x="84.659103" xlink:href="#Inter-Regular-53"/>
       <use x="145.454575" xlink:href="#Inter-Regular-48"/>
       <use x="207.95459" xlink:href="#Inter-Regular-48"/>
      </g>
     </g>
    </g>
    <g id="text_5">
     <!-- Orbit Position $s$ / m -->
     <g transform="translate(245.9775 329.072187)scale(0.1 -0.1)">
      <defs>
       <path d="M 70.171875 36.359375 
C 70.171875 59.375 56.671875 73.71875 38.0625 73.71875 
C 19.46875 73.71875 5.96875 59.375 5.96875 36.359375 
C 5.96875 13.359375 19.46875 -1 38.0625 -1 
C 56.671875 -1 70.171875 13.359375 70.171875 36.359375 
z
M 61.65625 36.359375 
C 61.65625 17.46875 51.28125 7.25 38.0625 7.25 
C 24.859375 7.25 14.484375 17.46875 14.484375 36.359375 
C 14.484375 55.25 24.859375 65.484375 38.0625 65.484375 
C 51.28125 65.484375 61.65625 55.25 61.65625 36.359375 
z
" id="Inter-Regular-79"/>
       <path d="M 7.671875 0 
L 16.046875 0 
L 16.046875 34.515625 
C 16.046875 41.90625 21.875 47.296875 29.828125 47.296875 
C 32.0625 47.296875 34.375 46.875 34.9375 46.734375 
L 34.9375 55.25 
C 33.984375 55.328125 31.78125 55.390625 30.546875 55.390625 
C 24 55.390625 18.328125 51.703125 16.34375 46.3125 
L 15.765625 46.3125 
L 15.765625 54.546875 
L 7.671875 54.546875 
z
" id="Inter-Regular-114"/>
       <path d="M 8.8125 0 
L 16.90625 0 
L 16.90625 8.375 
L 17.90625 8.375 
C 19.75 5.390625 23.296875 -1.140625 33.8125 -1.140625 
C 47.4375 -1.140625 56.96875 9.796875 56.96875 27.125 
C 56.96875 44.3125 47.4375 55.25 33.671875 55.25 
C 23.015625 55.25 19.75 48.71875 17.90625 45.875 
L 17.1875 45.875 
L 17.1875 72.734375 
L 8.8125 72.734375 
z
M 17.046875 27.265625 
C 17.046875 39.484375 22.4375 47.734375 32.671875 47.734375 
C 43.328125 47.734375 48.578125 38.78125 48.578125 27.265625 
C 48.578125 15.625 43.1875 6.390625 32.671875 6.390625 
C 22.59375 6.390625 17.046875 14.921875 17.046875 27.265625 
z
" id="Inter-Regular-98"/>
       <path d="M 11.9375 63.640625 
C 15.203125 63.640625 17.90625 66.1875 17.90625 69.3125 
C 17.90625 72.4375 15.203125 75 11.9375 75 
C 8.671875 75 5.96875 72.4375 5.96875 69.3125 
C 5.96875 66.1875 8.671875 63.640625 11.9375 63.640625 
z
M 7.671875 0 
L 16.046875 0 
L 16.046875 54.546875 
L 7.671875 54.546875 
z
" id="Inter-Regular-105"/>
       <path d="M 31.390625 54.546875 
L 19.75 54.546875 
L 19.75 67.609375 
L 11.359375 67.609375 
L 11.359375 54.546875 
L 3.125 54.546875 
L 3.125 47.4375 
L 11.359375 47.4375 
L 11.359375 13.359375 
C 11.359375 3.828125 19.03125 -0.703125 26.140625 -0.703125 
C 29.265625 -0.703125 31.25 -0.140625 32.390625 0.28125 
L 30.6875 7.8125 
C 29.96875 7.671875 28.84375 7.390625 26.984375 7.390625 
C 23.296875 7.390625 19.75 8.515625 19.75 15.625 
L 19.75 47.4375 
L 31.390625 47.4375 
z
" id="Inter-Regular-116"/>
       <path id="Inter-Regular-32"/>
       <path d="M 8.8125 0 
L 17.609375 0 
L 17.609375 26.5625 
L 33.53125 26.5625 
C 50.46875 26.5625 58.09375 36.859375 58.09375 49.71875 
C 58.09375 62.578125 50.46875 72.734375 33.375 72.734375 
L 8.8125 72.734375 
z
M 33.09375 64.921875 
C 44.921875 64.921875 49.4375 58.453125 49.4375 49.71875 
C 49.4375 40.984375 44.921875 34.375 33.234375 34.375 
L 17.609375 34.375 
L 17.609375 64.921875 
z
" id="Inter-Regular-80"/>
       <path d="M 29.828125 -1.140625 
C 44.609375 -1.140625 54.546875 10.078125 54.546875 26.984375 
C 54.546875 44.03125 44.609375 55.25 29.828125 55.25 
C 15.0625 55.25 5.109375 44.03125 5.109375 26.984375 
C 5.109375 10.078125 15.0625 -1.140625 29.828125 -1.140625 
z
M 29.828125 6.390625 
C 18.609375 6.390625 13.5 16.046875 13.5 26.984375 
C 13.5 37.921875 18.609375 47.734375 29.828125 47.734375 
C 41.046875 47.734375 46.171875 37.921875 46.171875 26.984375 
C 46.171875 16.046875 41.046875 6.390625 29.828125 6.390625 
z
" id="Inter-Regular-111"/>
       <path d="M 46.3125 42.328125 
C 43.6875 50.078125 37.78125 55.25 26.984375 55.25 
C 15.484375 55.25 6.96875 48.71875 6.96875 39.484375 
C 6.96875 31.953125 11.4375 26.921875 21.453125 24.578125 
L 30.546875 22.4375 
C 36.046875 21.171875 38.640625 18.53125 38.640625 14.765625 
C 38.640625 10.078125 33.671875 6.25 25.859375 6.25 
C 19 6.25 14.703125 9.203125 13.21875 15.0625 
L 5.25 13.0625 
C 7.203125 3.796875 14.84375 -1.140625 26 -1.140625 
C 38.671875 -1.140625 47.296875 5.78125 47.296875 15.203125 
C 47.296875 22.796875 42.546875 27.59375 32.8125 29.96875 
L 24.71875 31.953125 
C 18.25 33.5625 15.34375 35.71875 15.34375 39.921875 
C 15.34375 44.609375 20.3125 48.015625 26.984375 48.015625 
C 34.3125 48.015625 37.328125 43.96875 38.78125 40.203125 
z
" id="Inter-Regular-115"/>
       <path d="M 16.046875 32.8125 
C 16.046875 42.328125 21.953125 47.734375 29.96875 47.734375 
C 37.75 47.734375 42.46875 42.65625 42.46875 34.09375 
L 42.46875 0 
L 50.859375 0 
L 50.859375 34.65625 
C 50.859375 48.578125 43.4375 55.25 32.390625 55.25 
C 24.15625 55.25 19.03125 51.5625 16.484375 46.015625 
L 15.765625 46.015625 
L 15.765625 54.546875 
L 7.671875 54.546875 
L 7.671875 0 
L 16.046875 0 
z
" id="Inter-Regular-110"/>
       <path d="M 50 53.078125 
L 48.296875 44.578125 
Q 44.734375 46.53125 40.765625 47.5 
Q 36.8125 48.484375 32.625 48.484375 
Q 25.53125 48.484375 21.453125 46.0625 
Q 17.390625 43.65625 17.390625 39.5 
Q 17.390625 34.671875 26.859375 32.078125 
Q 27.59375 31.890625 27.9375 31.78125 
L 30.8125 30.90625 
Q 39.796875 28.421875 42.796875 25.6875 
Q 45.796875 22.953125 45.796875 18.21875 
Q 45.796875 9.515625 38.890625 4.046875 
Q 31.984375 -1.421875 20.796875 -1.421875 
Q 16.453125 -1.421875 11.671875 -0.578125 
Q 6.890625 0.25 1.125 2 
L 2.875 11.28125 
Q 7.8125 8.734375 12.59375 7.421875 
Q 17.390625 6.109375 21.78125 6.109375 
Q 28.375 6.109375 32.5 8.9375 
Q 36.625 11.765625 36.625 16.109375 
Q 36.625 20.796875 25.78125 23.6875 
L 24.859375 23.921875 
L 21.78125 24.703125 
Q 14.9375 26.515625 11.765625 29.46875 
Q 8.59375 32.421875 8.59375 37.015625 
Q 8.59375 45.75 15.15625 50.875 
Q 21.734375 56 33.015625 56 
Q 37.453125 56 41.671875 55.265625 
Q 45.90625 54.546875 50 53.078125 
z
" id="DejaVuSans-Oblique-115"/>
       <path d="M 33.375 76.140625 
L 25.71875 76.140625 
L 2.28125 -10.9375 
L 9.9375 -10.9375 
z
" id="Inter-Regular-47"/>
       <path d="M 7.671875 0 
L 16.046875 0 
L 16.046875 34.09375 
C 16.046875 42.078125 21.875 47.734375 28.40625 47.734375 
C 34.765625 47.734375 39.203125 43.578125 39.203125 37.359375 
L 39.203125 0 
L 47.734375 0 
L 47.734375 35.515625 
C 47.734375 42.546875 52.125 47.734375 59.796875 47.734375 
C 65.765625 47.734375 70.875 44.5625 70.875 36.5 
L 70.875 0 
L 79.265625 0 
L 79.265625 36.5 
C 79.265625 49.328125 72.375 55.25 62.640625 55.25 
C 54.828125 55.25 49.109375 51.671875 46.3125 46.015625 
L 45.734375 46.015625 
C 43.046875 51.84375 38.28125 55.25 31.109375 55.25 
C 24 55.25 18.75 51.84375 16.484375 46.015625 
L 15.765625 46.015625 
L 15.765625 54.546875 
L 7.671875 54.546875 
z
" id="Inter-Regular-109"/>
      </defs>
      <use transform="translate(0 0.859375)" xlink:href="#Inter-Regular-79"/>
      <use transform="translate(76.136383 0.859375)" xlink:href="#Inter-Regular-114"/>
      <use transform="translate(113.352295 0.859375)" xlink:href="#Inter-Regular-98"/>
      <use transform="translate(175.426178 0.859375)" xlink:href="#Inter-Regular-105"/>
      <use transform="translate(199.147766 0.859375)" xlink:href="#Inter-Regular-116"/>
      <use transform="translate(235.511414 0.859375)" xlink:href="#Inter-Regular-32"/>
      <use transform="translate(263.636414 0.859375)" xlink:href="#Inter-Regular-80"/>
      <use transform="translate(327.130737 0.859375)" xlink:href="#Inter-Regular-111"/>
      <use transform="translate(386.789841 0.859375)" xlink:href="#Inter-Regular-115"/>
      <use transform="translate(439.062576 0.859375)" xlink:href="#Inter-Regular-105"/>
      <use transform="translate(462.784164 0.859375)" xlink:href="#Inter-Regular-116"/>
      <use transform="translate(499.147812 0.859375)" xlink:href="#Inter-Regular-105"/>
      <use transform="translate(522.8694 0.859375)" xlink:href="#Inter-Regular-111"/>
      <use transform="translate(582.528503 0.859375)" xlink:href="#Inter-Regular-110"/>
      <use transform="translate(641.051239 0.859375)" xlink:href="#Inter-Regular-32"/>
      <use transform="translate(669.176239 0.859375)" xlink:href="#DejaVuSans-Oblique-115"/>
      <use transform="translate(721.275848 0.859375)" xlink:href="#Inter-Regular-32"/>
      <use transform="translate(749.400848 0.859375)" xlink:href="#Inter-Regular-47"/>
      <use transform="translate(785.05426 0.859375)" xlink:href="#Inter-Regular-32"/>
      <use transform="translate(813.17926 0.859375)" xlink:href="#Inter-Regular-109"/>
     </g>
    </g>
   </g>
   <g id="matplotlib.axis_2">
    <g id="ytick_1">
     <g id="line2d_9">
      <path clip-path="url(#p69587385ce)" d="M 30.4 272.083661 
L 551.655 272.083661 
" style="fill:none;stroke:#e5e7eb;stroke-dasharray:3.7,1.6;stroke-dashoffset:0;"/>
     </g>
     <g id="line2d_10">
      <defs>
       <path d="M 0 0 
L -3.5 0 
" id="m5c5d961dd8" style="stroke:#000000;stroke-width:0.8;"/>
      </defs>
      <g>
       <use style="stroke:#000000;stroke-width:0.8;" x="30.4" xlink:href="#m5c5d961dd8" y="272.083661"/>
      </g>
     </g>
     <g id="text_6">
      <!-- 0 -->
      <g transform="translate(17.15 275.72038)scale(0.1 -0.1)">
       <use xlink:href="#Inter-Regular-48"/>
      </g>
     </g>
    </g>
    <g id="ytick_2">
     <g id="line2d_11">
      <path clip-path="url(#p69587385ce)" d="M 30.4 228.511326 
L 551.655 228.511326 
" style="fill:none;stroke:#e5e7eb;stroke-dasharray:3.7,1.6;stroke-dashoffset:0;"/>
     </g>
     <g id="line2d_12">
      <g>
       <use style="stroke:#000000;stroke-width:0.8;" x="30.4" xlink:href="#m5c5d961dd8" y="228.511326"/>
      </g>
     </g>
     <g id="text_7">
      <!-- 10 -->
      <g transform="translate(12.504688 232.148045)scale(0.1 -0.1)">
       <use xlink:href="#Inter-Regular-49"/>
       <use x="46.448868" xlink:href="#Inter-Regular-48"/>
      </g>
     </g>
    </g>
    <g id="ytick_3">
     <g id="line2d_13">
      <path clip-path="url(#p69587385ce)" d="M 30.4 184.938991 
L 551.655 184.938991 
" style="fill:none;stroke:#e5e7eb;stroke-dasharray:3.7,1.6;stroke-dashoffset:0;"/>
     </g>
     <g id="line2d_14">
      <g>
       <use style="stroke:#000000;stroke-width:0.8;" x="30.4" xlink:href="#m5c5d961dd8" y="184.938991"/>
      </g>
     </g>
     <g id="text_8">
      <!-- 20 -->
      <g transform="translate(11.098438 188.57571)scale(0.1 -0.1)">
       <defs>
        <path d="M 7.53125 0 
L 53.40625 0 
L 53.40625 7.8125 
L 19.609375 7.8125 
L 19.609375 8.375 
L 35.9375 25.859375 
C 48.4375 39.234375 52.125 45.484375 52.125 53.546875 
C 52.125 64.765625 43.046875 73.71875 30.25 73.71875 
C 17.515625 73.71875 7.8125 65.0625 7.8125 52.265625 
L 16.1875 52.265625 
C 16.1875 60.546875 21.5625 66.046875 29.96875 66.046875 
C 37.859375 66.046875 43.890625 61.21875 43.890625 53.546875 
C 43.890625 46.84375 39.953125 41.875 31.53125 32.671875 
L 7.53125 6.390625 
z
" id="Inter-Regular-50"/>
       </defs>
       <use xlink:href="#Inter-Regular-50"/>
       <use x="60.511383" xlink:href="#Inter-Regular-48"/>
      </g>
     </g>
    </g>
    <g id="ytick_4">
     <g id="line2d_15">
      <path clip-path="url(#p69587385ce)" d="M 30.4 141.366657 
L 551.655 141.366657 
" style="fill:none;stroke:#e5e7eb;stroke-dasharray:3.7,1.6;stroke-dashoffset:0;"/>
     </g>
     <g id="line2d_16">
      <g>
       <use style="stroke:#000000;stroke-width:0.8;" x="30.4" xlink:href="#m5c5d961dd8" y="141.366657"/>
      </g>
     </g>
     <g id="text_9">
      <!-- 30 -->
      <g transform="translate(10.785938 145.003375)scale(0.1 -0.1)">
       <defs>
        <path d="M 32.109375 -1 
C 46.203125 -1 56.671875 7.84375 56.671875 19.75 
C 56.671875 28.984375 51.203125 35.6875 42.046875 37.21875 
L 42.046875 37.78125 
C 49.390625 40.015625 53.984375 46.0625 53.984375 54.265625 
C 53.984375 64.5625 45.84375 73.71875 32.390625 73.71875 
C 19.8125 73.71875 9.375 65.984375 8.953125 54.546875 
L 17.46875 54.546875 
C 17.796875 61.796875 24.6875 66.046875 32.25 66.046875 
C 40.265625 66.046875 45.453125 61.1875 45.453125 53.828125 
C 45.453125 46.171875 39.453125 41.1875 30.828125 41.1875 
L 25 41.1875 
L 25 33.375 
L 30.828125 33.375 
C 41.875 33.375 48.015625 27.765625 48.015625 19.75 
C 48.015625 12.03125 41.296875 6.8125 31.96875 6.8125 
C 23.546875 6.8125 16.875 11.15625 16.34375 18.1875 
L 7.390625 18.1875 
C 7.921875 6.75 18 -1 32.109375 -1 
z
" id="Inter-Regular-51"/>
       </defs>
       <use xlink:href="#Inter-Regular-51"/>
       <use x="63.636383" xlink:href="#Inter-Regular-48"/>
      </g>
     </g>
    </g>
    <g id="ytick_5">
     <g id="line2d_17">
      <path clip-path="url(#p69587385ce)" d="M 30.4 97.794322 
L 551.655 97.794322 
" style="fill:none;stroke:#e5e7eb;stroke-dasharray:3.7,1.6;stroke-dashoffset:0;"/>
     </g>
     <g id="line2d_18">
      <g>
       <use style="stroke:#000000;stroke-width:0.8;" x="30.4" xlink:href="#m5c5d961dd8" y="97.794322"/>
      </g>
     </g>
     <g id="text_10">
      <!-- 40 -->
      <g transform="translate(10.729688 101.43104)scale(0.1 -0.1)">
       <use xlink:href="#Inter-Regular-52"/>
       <use x="64.204559" xlink:href="#Inter-Regular-48"/>
      </g>
     </g>
    </g>
    <g id="ytick_6">
     <g id="line2d_19">
      <path clip-path="url(#p69587385ce)" d="M 30.4 54.221987 
L 551.655 54.221987 
" style="fill:none;stroke:#e5e7eb;stroke-dasharray:3.7,1.6;stroke-dashoffset:0;"/>
     </g>
     <g id="line2d_20">
      <g>
       <use style="stroke:#000000;stroke-width:0.8;" x="30.4" xlink:href="#m5c5d961dd8" y="54.221987"/>
      </g>
     </g>
     <g id="text_11">
      <!-- 50 -->
      <g transform="translate(11.070313 57.858706)scale(0.1 -0.1)">
       <use xlink:href="#Inter-Regular-53"/>
       <use x="60.795471" xlink:href="#Inter-Regular-48"/>
      </g>
     </g>
    </g>
   </g>
   <g id="patch_3">
    <path d="M 30.4 301.48 
L 30.4 51.0736 
" style="fill:none;stroke:#000000;stroke-linecap:square;stroke-linejoin:miter;stroke-width:0.8;"/>
   </g>
   <g id="patch_4">
    <path d="M 551.655 301.48 
L 551.655 51.0736 
" style="fill:none;stroke:#000000;stroke-linecap:square;stroke-linejoin:miter;stroke-width:0.8;"/>
   </g>
   <g id="patch_5">
    <path d="M 30.4 301.48 
L 551.655 301.48 
" style="fill:none;stroke:#000000;stroke-linecap:square;stroke-linejoin:miter;stroke-width:0.8;"/>
   </g>
   <g id="patch_6">
    <path d="M 30.4 51.0736 
L 551.655 51.0736 
" style="fill:none;stroke:#000000;stroke-linecap:square;stroke-linejoin:miter;stroke-width:0.8;"/>
   </g>
   <g id="legend_1">
    <g id="line2d_21">
     <path d="M 39.4 22.95328 
L 59.4 22.95328 
" style="fill:none;stroke:#ef4444;stroke-linecap:square;stroke-width:1.3;"/>
    </g>
    <g id="line2d_22"/>
    <g id="text_12">
     <!-- $\beta_x$ / m -->
     <g transform="translate(67.4 26.45328)scale(0.1 -0.1)">
      <defs>
       <path d="M 13.625 3.375 
L 8.9375 -20.796875 
L -0.09375 -20.796875 
L 14.5 54.34375 
Q 18.84375 76.609375 39.65625 76.609375 
Q 60.75 76.609375 57.171875 57.8125 
Q 54.734375 44.4375 45.21875 39.546875 
Q 58.015625 35.15625 55.515625 22.125 
Q 51.125 -1.078125 27.484375 -1.03125 
Q 17.140625 -0.984375 13.625 3.375 
z
M 15.921875 15.09375 
Q 19.671875 6.59375 29.296875 6.640625 
Q 43.359375 6.640625 46.34375 21.96875 
Q 49.03125 35.75 26.171875 34.671875 
L 27.78125 42.96875 
Q 45.453125 42.671875 48.53125 58.59375 
Q 50.640625 69.34375 39.203125 69.28125 
Q 26.421875 69.28125 23.484375 54.046875 
z
" id="DejaVuSans-Oblique-946"/>
       <path d="M 60.015625 54.6875 
L 34.90625 27.875 
L 50.296875 0 
L 39.984375 0 
L 28.421875 21.6875 
L 8.296875 0 
L -2.59375 0 
L 24.3125 28.8125 
L 10.015625 54.6875 
L 20.3125 54.6875 
L 30.8125 34.90625 
L 49.125 54.6875 
z
" id="DejaVuSans-Oblique-120"/>
      </defs>
      <use transform="translate(0 0.390625)" xlink:href="#DejaVuSans-Oblique-946"/>
      <use transform="translate(63.818359 -16.015625)scale(0.7)" xlink:href="#DejaVuSans-Oblique-120"/>
      <use transform="translate(107.978516 0.390625)" xlink:href="#Inter-Regular-32"/>
      <use transform="translate(136.103516 0.390625)" xlink:href="#Inter-Regular-47"/>
      <use transform="translate(171.756927 0.390625)" xlink:href="#Inter-Regular-32"/>
      <use transform="translate(199.881927 0.390625)" xlink:href="#Inter-Regular-109"/>
     </g>
    </g>
    <g id="line2d_23">
     <path d="M 255.8275 22.95328 
L 275.8275 22.95328 
" style="fill:none;stroke:#3b82f6;stroke-linecap:square;stroke-width:1.3;"/>
    </g>
    <g id="line2d_24"/>
    <g id="text_13">
     <!-- $\beta_y$ / m -->
     <g transform="translate(283.8275 26.45328)scale(0.1 -0.1)">
      <defs>
       <path d="M 24.8125 -5.078125 
Q 18.5625 -15.578125 14.625 -18.1875 
Q 10.6875 -20.796875 4.59375 -20.796875 
L -2.484375 -20.796875 
L -0.984375 -13.28125 
L 4.203125 -13.28125 
Q 7.953125 -13.28125 10.59375 -11.234375 
Q 13.234375 -9.1875 16.5 -3.21875 
L 19.28125 2 
L 7.171875 54.6875 
L 16.703125 54.6875 
L 25.78125 12.796875 
L 50.875 54.6875 
L 60.296875 54.6875 
z
" id="DejaVuSans-Oblique-121"/>
      </defs>
      <use transform="translate(0 0.390625)" xlink:href="#DejaVuSans-Oblique-946"/>
      <use transform="translate(63.818359 -16.015625)scale(0.7)" xlink:href="#DejaVuSans-Oblique-121"/>
      <use transform="translate(107.978516 0.390625)" xlink:href="#Inter-Regular-32"/>
      <use transform="translate(136.103516 0.390625)" xlink:href="#Inter-Regular-47"/>
      <use transform="translate(171.756927 0.390625)" xlink:href="#Inter-Regular-32"/>
      <use transform="translate(199.881927 0.390625)" xlink:href="#Inter-Regular-109"/>
     </g>
    </g>
    <g id="line2d_25">
     <path d="M 472.255 22.95328 
L 492.255 22.95328 
" style="fill:none;stroke:#10b981;stroke-linecap:square;stroke-width:1.3;"/>
    </g>
    <g id="line2d_26"/>
    <g id="text_14">
     <!-- 10 $\eta_x$ / m -->
     <g transform="translate(500.255 26.45328)scale(0.1 -0.1)">
      <defs>
       <path d="M 57.859375 33.015625 
L 47.40625 -20.796875 
L 38.421875 -20.796875 
L 48.828125 32.71875 
Q 50.34375 40.484375 48.046875 44.34375 
Q 45.796875 48.1875 39.75 48.1875 
Q 32.46875 48.1875 27.34375 43.5625 
Q 22.265625 38.921875 20.703125 30.90625 
L 14.703125 0 
L 5.671875 0 
L 16.3125 54.6875 
L 25.34375 54.6875 
L 23.6875 46.1875 
Q 27.828125 51.125 32.71875 53.5625 
Q 37.546875 56 43.265625 56 
Q 52.6875 56 56.390625 50.203125 
Q 60.0625 44.34375 57.859375 33.015625 
z
" id="DejaVuSans-Oblique-951"/>
      </defs>
      <use transform="translate(0 0.859375)" xlink:href="#Inter-Regular-49"/>
      <use transform="translate(46.448868 0.859375)" xlink:href="#Inter-Regular-48"/>
      <use transform="translate(108.948883 0.859375)" xlink:href="#Inter-Regular-32"/>
      <use transform="translate(137.073883 0.859375)" xlink:href="#DejaVuSans-Oblique-951"/>
      <use transform="translate(200.452789 -15.546875)scale(0.7)" xlink:href="#DejaVuSans-Oblique-120"/>
      <use transform="translate(244.612946 0.859375)" xlink:href="#Inter-Regular-32"/>
      <use transform="translate(272.737946 0.859375)" xlink:href="#Inter-Regular-47"/>
      <use transform="translate(308.391357 0.859375)" xlink:href="#Inter-Regular-32"/>
      <use transform="translate(336.516357 0.859375)" xlink:href="#Inter-Regular-109"/>
     </g>
    </g>
   </g>
   <g id="line2d_27">
    <path clip-path="url(#p69587385ce)" d="M 30.4 272.10419 
L 370.549193 271.976502 
L 380.913682 271.656365 
L 391.278171 271.114219 
L 401.64266 270.3507 
L 412.007149 269.366703 
L 422.38376 268.163775 
L 457.8291 263.680109 
L 466.830557 262.225565 
L 520.727203 253.306983 
L 525.59225 252.826031 
L 530.457297 252.57521 
L 536.01735 252.535907 
L 552.318415 252.532565 
L 552.318415 252.532565 
" style="fill:none;stroke:#10b981;stroke-linecap:square;stroke-width:1.3;"/>
   </g>
   <g id="line2d_28">
    <path clip-path="url(#p69587385ce)" d="M 30.4 254.414731 
L 48.444451 252.651165 
L 66.488901 250.665463 
L 84.533352 248.457625 
L 102.577803 246.027651 
L 120.622253 243.375541 
L 138.666704 240.501294 
L 156.711155 237.404911 
L 174.755605 234.086392 
L 192.800056 230.545737 
L 210.844507 226.782946 
L 228.893904 222.796895 
L 247.172579 218.5337 
L 249.952606 217.744168 
L 252.732633 216.701935 
L 255.512659 215.397644 
L 258.292686 213.819588 
L 261.072713 211.953602 
L 263.852739 209.782937 
L 266.632766 207.288108 
L 269.412793 204.44672 
L 272.192819 201.233271 
L 274.972846 197.618913 
L 277.752873 193.571205 
L 280.532899 189.053812 
L 283.916713 182.963904 
L 288.568914 174.167584 
L 293.251521 164.893944 
L 298.116568 154.812865 
L 303.676621 142.734911 
L 308.993422 130.629935 
L 317.785257 110.227746 
L 319.870277 106.276552 
L 321.955297 102.887259 
L 323.34531 100.952242 
L 324.735323 99.284255 
L 326.125337 97.888691 
L 327.51535 96.770061 
L 328.905363 95.93198 
L 330.295377 95.37716 
L 331.68539 95.107392 
L 361.566636 92.430447 
L 421.688753 93.93197 
L 450.879033 98.017213 
L 452.269047 98.590416 
L 453.65906 99.4194 
L 455.049073 100.501705 
L 456.439087 101.834121 
L 457.8291 103.412697 
L 459.91412 106.231673 
L 461.99914 109.574999 
L 464.765715 114.666908 
L 470.960242 126.027386 
L 477.154769 136.960448 
L 483.349296 147.466092 
L 489.590905 157.619283 
L 495.845965 167.359013 
L 502.057886 176.600259 
L 508.269808 185.411686 
L 513.791516 192.883228 
L 517.25217 197.31925 
L 519.33719 199.595874 
L 521.42221 201.52286 
L 523.50723 203.117154 
L 525.59225 204.392779 
L 527.67727 205.360953 
L 529.76229 206.030192 
L 531.84731 206.406381 
L 533.93233 206.50884 
L 552.318415 206.824199 
L 552.318415 206.824199 
" style="fill:none;stroke:#3b82f6;stroke-linecap:square;stroke-width:1.3;"/>
   </g>
   <g id="patch_7">
    <path d="M 225.418871 56.594023 
L 236.538977 56.594023 
L 236.538977 45.553177 
L 225.418871 45.553177 
z
" style="fill:#10b981;"/>
   </g>
   <g id="patch_8">
    <path d="M 247.172579 56.594023 
L 281.922913 56.594023 
L 281.922913 45.553177 
L 247.172579 45.553177 
z
" style="fill:#ef4444;"/>
   </g>
   <g id="patch_9">
    <path d="M 292.556515 56.594023 
L 303.676621 56.594023 
L 303.676621 45.553177 
L 292.556515 45.553177 
z
" style="fill:#10b981;"/>
   </g>
   <g id="patch_10">
    <path d="M 314.310223 56.594023 
L 331.68539 56.594023 
L 331.68539 45.553177 
L 314.310223 45.553177 
z
" style="fill:#ef4444;"/>
   </g>
   <g id="patch_11">
    <path d="M 360.87567 56.594023 
L 420.29874 56.594023 
L 420.29874 45.553177 
L 360.87567 45.553177 
z
" style="fill:#fbbf24;"/>
   </g>
   <g id="patch_12">
    <path d="M 449.48902 56.594023 
L 463.389153 56.594023 
L 463.389153 45.553177 
L 449.48902 45.553177 
z
" style="fill:#ef4444;"/>
   </g>
   <g id="patch_13">
    <path d="M 484.725858 56.594023 
L 495.845965 56.594023 
L 495.845965 45.553177 
L 484.725858 45.553177 
z
" style="fill:#10b981;"/>
   </g>
   <g id="patch_14">
    <path d="M 515.862157 56.594023 
L 533.237323 56.594023 
L 533.237323 45.553177 
L 515.862157 45.553177 
z
" style="fill:#ef4444;"/>
   </g>
   <g id="patch_15">
    <path d="M 544.35743 56.594023 
L 551.655 56.594023 
L 551.655 45.553177 
L 544.35743 45.553177 
z
" style="fill:#10b981;"/>
   </g>
   <g id="line2d_29">
    <path clip-path="url(#p69587385ce)" d="M 30.4 198.575494 
L 75.511127 199.287641 
L 120.622253 199.777555 
L 165.73338 200.045236 
L 210.844507 200.090683 
L 249.952606 200.111859 
L 252.037626 200.432309 
L 254.122646 200.931786 
L 256.207666 201.60777 
L 258.987693 202.777631 
L 261.767719 204.244635 
L 264.547746 205.995636 
L 267.327773 208.014938 
L 270.107799 210.284443 
L 273.582833 213.441985 
L 277.057866 216.914334 
L 281.227906 221.427989 
L 287.239714 228.048958 
L 292.556515 233.518696 
L 297.421561 238.201262 
L 302.286608 242.575711 
L 306.999622 246.519634 
L 311.651823 250.129079 
L 315.700237 253.025144 
L 319.17527 255.193439 
L 322.650303 257.064969 
L 326.125337 258.677621 
L 329.60037 260.064041 
L 333.77041 261.488044 
L 340.02547 263.405801 
L 346.28053 265.100173 
L 352.53559 266.571161 
L 358.79065 267.818764 
L 365.021466 268.830514 
L 371.240159 269.620051 
L 377.458852 270.193931 
L 383.677546 270.551186 
L 389.896239 270.691213 
L 396.114932 270.613774 
L 402.333626 270.319001 
L 408.552319 269.807392 
L 414.771013 269.07981 
L 420.993747 268.135023 
L 427.248807 266.951417 
L 433.503867 265.544427 
L 439.758927 263.914052 
L 446.013987 262.060292 
L 451.57404 260.205575 
L 455.74408 258.542815 
L 459.219113 256.920467 
L 462.694147 255.051009 
L 467.518838 252.105133 
L 472.336804 248.915401 
L 477.154769 245.481054 
L 481.972735 241.802094 
L 487.505885 237.275251 
L 493.065938 232.401414 
L 498.606819 227.220297 
L 504.128527 221.735257 
L 509.650235 215.928924 
L 515.171943 209.8013 
L 517.947177 206.742196 
L 520.032197 204.722745 
L 522.117217 202.972138 
L 524.202237 201.505749 
L 526.287257 200.336455 
L 528.372277 199.474525 
L 530.457297 198.92753 
L 532.542317 198.700272 
L 537.407363 198.776743 
L 552.318415 199.049857 
L 552.318415 199.049857 
" style="fill:none;stroke:#ef4444;stroke-linecap:square;stroke-width:1.3;"/>
   </g>
   <g id="text_15">
    <!-- Q4D1 -->
    <g transform="translate(254.200871 42.124003)scale(0.08 -0.08)">
     <defs>
      <path d="M 70.171875 36.359375 
C 70.171875 59.375 56.671875 73.71875 38.0625 73.71875 
C 19.46875 73.71875 5.96875 59.375 5.96875 36.359375 
C 5.96875 13.359375 19.46875 -1 38.0625 -1 
C 42.828125 -1 47.234375 -0.078125 51.171875 1.703125 
L 57.53125 -6.8125 
L 67.1875 -6.8125 
L 57.703125 5.78125 
C 65.453125 12.140625 70.171875 22.734375 70.171875 36.359375 
z
M 35.234375 22.734375 
L 45.984375 8.59375 
C 43.53125 7.703125 40.875 7.25 38.0625 7.25 
C 24.859375 7.25 14.484375 17.46875 14.484375 36.359375 
C 14.484375 55.25 24.859375 65.484375 38.0625 65.484375 
C 51.28125 65.484375 61.65625 55.25 61.65625 36.359375 
C 61.65625 25.390625 58.171875 17.359375 52.625 12.53125 
L 44.890625 22.734375 
z
" id="Inter-Regular-81"/>
      <path d="M 31.25 0 
C 53.40625 0 65.90625 13.78125 65.90625 36.5 
C 65.90625 59.09375 53.40625 72.734375 32.25 72.734375 
L 8.8125 72.734375 
L 8.8125 0 
z
M 31.671875 64.921875 
C 48.71875 64.921875 57.390625 54.125 57.390625 36.5 
C 57.390625 18.75 48.71875 7.8125 30.6875 7.8125 
L 17.609375 7.8125 
L 17.609375 64.921875 
z
" id="Inter-Regular-68"/>
     </defs>
     <use xlink:href="#Inter-Regular-81"/>
     <use x="76.136383" xlink:href="#Inter-Regular-52"/>
     <use x="140.340942" xlink:href="#Inter-Regular-68"/>
     <use x="212.215958" xlink:href="#Inter-Regular-49"/>
    </g>
   </g>
   <g id="text_16">
    <!-- Q3D1 -->
    <g transform="translate(312.673432 64.205697)scale(0.08 -0.08)">
     <use xlink:href="#Inter-Regular-81"/>
     <use x="76.136383" xlink:href="#Inter-Regular-51"/>
     <use x="139.772766" xlink:href="#Inter-Regular-68"/>
     <use x="211.647781" xlink:href="#Inter-Regular-49"/>
    </g>
   </g>
   <g id="text_17">
    <!-- B -->
    <g transform="translate(387.984705 42.124003)scale(0.08 -0.08)">
     <defs>
      <path d="M 8.8125 0 
L 35.09375 0 
C 52.28125 0 59.375 8.375 59.375 19.3125 
C 59.375 30.828125 51.421875 37.078125 44.75 37.5 
L 44.75 38.203125 
C 51 39.921875 56.53125 44.03125 56.53125 53.40625 
C 56.53125 64.0625 49.4375 72.734375 34.234375 72.734375 
L 8.8125 72.734375 
z
M 17.609375 40.765625 
L 17.609375 64.921875 
L 34.234375 64.921875 
C 43.890625 64.921875 48.15625 59.796875 48.15625 53.40625 
C 48.15625 45.734375 41.90625 40.765625 33.953125 40.765625 
z
M 17.609375 7.8125 
L 17.609375 33.09375 
L 35.515625 33.09375 
C 45.03125 33.09375 51 26.703125 51 19.3125 
C 51 12.921875 46.59375 7.8125 35.09375 7.8125 
z
" id="Inter-Regular-66"/>
     </defs>
     <use xlink:href="#Inter-Regular-66"/>
    </g>
   </g>
   <g id="text_18">
    <!-- Q2D -->
    <g transform="translate(448.097837 64.205697)scale(0.08 -0.08)">
     <use xlink:href="#Inter-Regular-81"/>
     <use x="76.136383" xlink:href="#Inter-Regular-50"/>
     <use x="136.647766" xlink:href="#Inter-Regular-68"/>
    </g>
   </g>
   <g id="text_19">
    <!-- Q1D -->
    <g transform="translate(516.77099 42.124003)scale(0.08 -0.08)">
     <use xlink:href="#Inter-Regular-81"/>
     <use x="76.136383" xlink:href="#Inter-Regular-49"/>
     <use x="122.585251" xlink:href="#Inter-Regular-68"/>
    </g>
   </g>
   <g id="text_20">
    <g clip-path="url(#p69587385ce)">
     <!-- D1RH -->
     <g style="opacity:0.5;" transform="translate(182.825335 291.728314)scale(0.1 -0.1)">
      <defs>
       <path d="M 26.984375 0 
C 49.15625 0 63.640625 13.5 67.328125 35.9375 
C 71.171875 58.8125 60.65625 72.734375 39.484375 72.734375 
L 16.34375 72.734375 
L 4.265625 0 
z
M 38.21875 64.921875 
C 55.25 64.921875 61.9375 54.40625 58.953125 37.078125 
C 55.96875 19.03125 45.3125 7.8125 27.28125 7.8125 
L 14.390625 7.8125 
L 23.828125 64.921875 
z
" id="Inter-Italic-68"/>
       <path d="M 40.625 72.734375 
L 31.8125 72.734375 
L 11.65625 60.65625 
L 10.09375 51.703125 
L 29.828125 63.5 
L 30.25 63.5 
L 19.75 0 
L 28.546875 0 
z
" id="Inter-Italic-49"/>
       <path d="M 4.265625 0 
L 13.0625 0 
L 17.796875 28.40625 
L 33.671875 28.40625 
C 34.3125 28.40625 34.90625 28.40625 35.515625 28.4375 
L 46.171875 0 
L 56.390625 0 
L 44.890625 30.046875 
C 54.71875 33.234375 60.328125 40.84375 61.9375 50.421875 
C 64.0625 63.359375 57.953125 72.734375 40.90625 72.734375 
L 16.34375 72.734375 
z
M 39.34375 64.921875 
C 51.140625 64.921875 54.6875 59.234375 53.265625 50.421875 
C 51.84375 41.765625 46.453125 36.359375 34.796875 36.359375 
L 19.109375 36.359375 
L 23.859375 64.921875 
z
" id="Inter-Italic-82"/>
       <path d="M 4.265625 0 
L 13.0625 0 
L 18.46875 32.53125 
L 57.25 32.53125 
L 51.84375 0 
L 60.65625 0 
L 72.734375 72.734375 
L 63.921875 72.734375 
L 58.53125 40.34375 
L 19.75 40.34375 
L 25.140625 72.734375 
L 16.34375 72.734375 
z
" id="Inter-Italic-72"/>
      </defs>
      <use xlink:href="#Inter-Italic-68"/>
      <use x="71.875015" xlink:href="#Inter-Italic-49"/>
      <use x="118.323883" xlink:href="#Inter-Italic-82"/>
      <use x="182.244354" xlink:href="#Inter-Italic-72"/>
     </g>
    </g>
   </g>
   <g id="text_21">
    <g clip-path="url(#p69587385ce)">
     <!-- ACHLH -->
     <g style="opacity:0.5;" transform="translate(468.747182 291.728314)scale(0.1 -0.1)">
      <defs>
       <path d="M 7.25 0 
L 18 20.59375 
L 47.40625 20.59375 
L 51.28125 0 
L 60.515625 0 
L 45.875 72.734375 
L 36.796875 72.734375 
L -1.984375 0 
z
M 39.203125 61.21875 
L 39.78125 61.21875 
L 45.953125 28.40625 
L 22.09375 28.40625 
z
" id="Inter-Italic-65"/>
       <path d="M 71.03125 50 
C 70.734375 64.921875 60.09375 73.71875 45.3125 73.71875 
C 26.84375 73.71875 11.359375 59.65625 7.53125 36.9375 
C 3.6875 13.640625 15.0625 -1 33.953125 -1 
C 48.296875 -1 61.359375 7.8125 66.625 22.734375 
L 57.8125 22.734375 
C 53.984375 12.640625 44.171875 7.25 34.234375 7.25 
C 21.3125 7.25 12.78125 17.1875 15.90625 35.796875 
C 19.03125 54.96875 31.390625 65.484375 44.890625 65.484375 
C 54.265625 65.484375 61.9375 60.078125 62.359375 50 
z
" id="Inter-Italic-67"/>
       <path d="M 4.265625 0 
L 46.875 0 
L 48.15625 7.8125 
L 14.34375 7.8125 
L 25.140625 72.734375 
L 16.34375 72.734375 
z
" id="Inter-Italic-76"/>
      </defs>
      <use xlink:href="#Inter-Italic-65"/>
      <use x="67.613647" xlink:href="#Inter-Italic-67"/>
      <use x="140.340942" xlink:href="#Inter-Italic-72"/>
      <use x="214.346634" xlink:href="#Inter-Italic-76"/>
      <use x="270.596649" xlink:href="#Inter-Italic-72"/>
     </g>
    </g>
   </g>
  </g>
 </g>
 <defs>
  <clipPath id="p69587385ce">
   <rect height="250.4064" width="521.255" x="30.4" y="51.0736"/>
  </clipPath>
 </defs>
</svg>
