<?xml version="1.0" encoding="utf-8" standalone="no"?>
<!DOCTYPE svg PUBLIC "-//W3C//DTD SVG 1.1//EN"
  "http://www.w3.org/Graphics/SVG/1.1/DTD/svg11.dtd">
<!-- Created with matplotlib (https://matplotlib.org/) -->
<svg height="345.6pt" version="1.1" viewBox="0 0 576 345.6" width="576pt" xmlns="http://www.w3.org/2000/svg" xmlns:xlink="http://www.w3.org/1999/xlink">
 <metadata>
  <rdf:RDF xmlns:cc="http://creativecommons.org/ns#" xmlns:dc="http://purl.org/dc/elements/1.1/" xmlns:rdf="http://www.w3.org/1999/02/22-rdf-syntax-ns#">
   <cc:Work>
    <dc:type rdf:resource="http://purl.org/dc/dcmitype/StillImage"/>
    <dc:date>2020-12-15T10:10:56.114289</dc:date>
    <dc:format>image/svg+xml</dc:format>
    <dc:creator>
     <cc:Agent>
      <dc:title>Matplotlib v3.3.3, https://matplotlib.org/</dc:title>
     </cc:Agent>
    </dc:creator>
   </cc:Work>
  </rdf:RDF>
 </metadata>
 <defs>
  <style type="text/css">*{stroke-linecap:butt;stroke-linejoin:round;}</style>
 </defs>
 <g id="figure_1">
  <g id="patch_1">
   <path d="M 0 345.6 
L 576 345.6 
L 576 0 
L 0 0 
z
" style="fill:#ffffff;"/>
  </g>
  <g id="axes_1">
   <g id="patch_2">
    <path d="M 30.13 317.72 
L 562.5 317.72 
L 562.5 51.0736 
L 30.13 51.0736 
z
" style="fill:#ffffff;"/>
   </g>
   <g id="matplotlib.axis_1">
    <g id="xtick_1">
     <g id="line2d_1">
      <path clip-path="url(#p1c8f7368e1)" d="M 30.13 317.72 
L 30.13 51.0736 
" style="fill:none;stroke:#e5e7eb;stroke-dasharray:3.7,1.6;stroke-dashoffset:0;"/>
     </g>
     <g id="line2d_2">
      <defs>
       <path d="M 0 0 
L 0 3.5 
" id="m1c298fb70e" style="stroke:#000000;stroke-width:0.8;"/>
      </defs>
      <g>
       <use style="stroke:#000000;stroke-width:0.8;" x="30.13" xlink:href="#m1c298fb70e" y="317.72"/>
      </g>
     </g>
     <g id="text_1">
      <!-- 0 -->
      <g transform="translate(27.005 331.993437)scale(0.1 -0.1)">
       <defs>
        <path d="M 31.25 -1 
C 47.296875 -1 56.53125 12.609375 56.53125 36.359375 
C 56.53125 59.9375 47.15625 73.71875 31.25 73.71875 
C 15.34375 73.71875 5.96875 59.9375 5.96875 36.359375 
C 5.96875 12.609375 15.203125 -1 31.25 -1 
z
M 31.25 6.8125 
C 20.671875 6.8125 14.484375 17.4375 14.484375 36.359375 
C 14.484375 55.25 20.734375 66.046875 31.25 66.046875 
C 41.765625 66.046875 48.015625 55.25 48.015625 36.359375 
C 48.015625 17.4375 41.828125 6.8125 31.25 6.8125 
z
" id="Inter-Regular-48"/>
       </defs>
       <use xlink:href="#Inter-Regular-48"/>
      </g>
     </g>
    </g>
    <g id="xtick_2">
     <g id="line2d_3">
      <path clip-path="url(#p1c8f7368e1)" d="M 101.112667 317.72 
L 101.112667 51.0736 
" style="fill:none;stroke:#e5e7eb;stroke-dasharray:3.7,1.6;stroke-dashoffset:0;"/>
     </g>
     <g id="line2d_4">
      <g>
       <use style="stroke:#000000;stroke-width:0.8;" x="101.112667" xlink:href="#m1c298fb70e" y="317.72"/>
      </g>
     </g>
     <g id="text_2">
      <!-- 2 -->
      <g transform="translate(98.086885 331.993437)scale(0.1 -0.1)">
       <defs>
        <path d="M 7.53125 0 
L 53.40625 0 
L 53.40625 7.8125 
L 19.609375 7.8125 
L 19.609375 8.375 
L 35.9375 25.859375 
C 48.4375 39.234375 52.125 45.484375 52.125 53.546875 
C 52.125 64.765625 43.046875 73.71875 30.25 73.71875 
C 17.515625 73.71875 7.8125 65.0625 7.8125 52.265625 
L 16.1875 52.265625 
C 16.1875 60.546875 21.5625 66.046875 29.96875 66.046875 
C 37.859375 66.046875 43.890625 61.21875 43.890625 53.546875 
C 43.890625 46.84375 39.953125 41.875 31.53125 32.671875 
L 7.53125 6.390625 
z
" id="Inter-Regular-50"/>
       </defs>
       <use xlink:href="#Inter-Regular-50"/>
      </g>
     </g>
    </g>
    <g id="xtick_3">
     <g id="line2d_5">
      <path clip-path="url(#p1c8f7368e1)" d="M 172.095333 317.72 
L 172.095333 51.0736 
" style="fill:none;stroke:#e5e7eb;stroke-dasharray:3.7,1.6;stroke-dashoffset:0;"/>
     </g>
     <g id="line2d_6">
      <g>
       <use style="stroke:#000000;stroke-width:0.8;" x="172.095333" xlink:href="#m1c298fb70e" y="317.72"/>
      </g>
     </g>
     <g id="text_3">
      <!-- 4 -->
      <g transform="translate(168.885177 331.993437)scale(0.1 -0.1)">
       <defs>
        <path d="M 5.828125 14.921875 
L 40.0625 14.921875 
L 40.0625 0 
L 48.4375 0 
L 48.4375 14.921875 
L 58.375 14.921875 
L 58.375 22.734375 
L 48.4375 22.734375 
L 48.4375 72.734375 
L 37.78125 72.734375 
L 5.828125 22.15625 
z
M 15.34375 22.734375 
L 15.34375 23.296875 
L 39.484375 61.5 
L 40.0625 61.5 
L 40.0625 22.734375 
z
" id="Inter-Regular-52"/>
       </defs>
       <use xlink:href="#Inter-Regular-52"/>
      </g>
     </g>
    </g>
    <g id="xtick_4">
     <g id="line2d_7">
      <path clip-path="url(#p1c8f7368e1)" d="M 243.078 317.72 
L 243.078 51.0736 
" style="fill:none;stroke:#e5e7eb;stroke-dasharray:3.7,1.6;stroke-dashoffset:0;"/>
     </g>
     <g id="line2d_8">
      <g>
       <use style="stroke:#000000;stroke-width:0.8;" x="243.078" xlink:href="#m1c298fb70e" y="317.72"/>
      </g>
     </g>
     <g id="text_4">
      <!-- 6 -->
      <g transform="translate(239.960031 331.993437)scale(0.1 -0.1)">
       <defs>
        <path d="M 31.671875 -1 
C 46.375 -1.171875 55.96875 9.90625 55.96875 23.4375 
C 55.96875 37.5 45.5625 47.578125 33.09375 47.578125 
C 25.609375 47.578125 19.171875 43.921875 15.203125 37.921875 
L 14.625 37.921875 
C 14.671875 55.78125 21.5625 66.046875 32.8125 66.046875 
C 40.484375 66.046875 45.09375 61.21875 46.734375 54.546875 
L 55.40625 54.546875 
C 53.625 65.984375 45.03125 73.859375 32.8125 73.859375 
C 16.4375 73.859375 6.390625 59.375 6.390625 33.515625 
C 6.390625 6.640625 19.75 -0.859375 31.671875 -1 
z
M 31.671875 6.8125 
C 22.546875 6.8125 15.875 14.59375 15.90625 23.296875 
C 15.953125 32 22.9375 39.765625 31.96875 39.765625 
C 40.875 39.765625 47.4375 32.453125 47.4375 23.4375 
C 47.4375 14.203125 40.59375 6.8125 31.671875 6.8125 
z
" id="Inter-Regular-54"/>
       </defs>
       <use xlink:href="#Inter-Regular-54"/>
      </g>
     </g>
    </g>
    <g id="xtick_5">
     <g id="line2d_9">
      <path clip-path="url(#p1c8f7368e1)" d="M 314.060667 317.72 
L 314.060667 51.0736 
" style="fill:none;stroke:#e5e7eb;stroke-dasharray:3.7,1.6;stroke-dashoffset:0;"/>
     </g>
     <g id="line2d_10">
      <g>
       <use style="stroke:#000000;stroke-width:0.8;" x="314.060667" xlink:href="#m1c298fb70e" y="317.72"/>
      </g>
     </g>
     <g id="text_5">
      <!-- 8 -->
      <g transform="translate(310.977854 331.993437)scale(0.1 -0.1)">
       <defs>
        <path d="M 30.828125 -1 
C 45.34375 -1 55.46875 7.5 55.546875 19.3125 
C 55.46875 28.515625 49.328125 36.328125 41.484375 37.78125 
L 41.484375 38.203125 
C 48.296875 39.984375 52.765625 46.65625 52.84375 54.40625 
C 52.765625 65.484375 43.46875 73.71875 30.828125 73.71875 
C 18.046875 73.71875 8.734375 65.484375 8.8125 54.40625 
C 8.734375 46.65625 13.21875 39.984375 20.171875 38.203125 
L 20.171875 37.78125 
C 12.1875 36.328125 6.03125 28.515625 6.109375 19.3125 
C 6.03125 7.5 16.15625 -1 30.828125 -1 
z
M 30.828125 41.328125 
C 22.875 41.328125 17.265625 46.3125 17.328125 53.828125 
C 17.265625 61.21875 22.65625 66.046875 30.828125 66.046875 
C 38.84375 66.046875 44.25 61.21875 44.3125 53.828125 
C 44.25 46.3125 38.640625 41.328125 30.828125 41.328125 
z
M 30.828125 6.8125 
C 20.84375 6.8125 14.703125 11.9375 14.78125 19.75 
C 14.703125 27.953125 21.484375 33.8125 30.828125 33.8125 
C 40.015625 33.8125 46.8125 27.953125 46.875 19.75 
C 46.8125 11.9375 40.65625 6.8125 30.828125 6.8125 
z
" id="Inter-Regular-56"/>
       </defs>
       <use xlink:href="#Inter-Regular-56"/>
      </g>
     </g>
    </g>
    <g id="xtick_6">
     <g id="line2d_11">
      <path clip-path="url(#p1c8f7368e1)" d="M 385.043333 317.72 
L 385.043333 51.0736 
" style="fill:none;stroke:#e5e7eb;stroke-dasharray:3.7,1.6;stroke-dashoffset:0;"/>
     </g>
     <g id="line2d_12">
      <g>
       <use style="stroke:#000000;stroke-width:0.8;" x="385.043333" xlink:href="#m1c298fb70e" y="317.72"/>
      </g>
     </g>
     <g id="text_6">
      <!-- 10 -->
      <g transform="translate(379.595677 331.993437)scale(0.1 -0.1)">
       <defs>
        <path d="M 33.09375 72.734375 
L 24.296875 72.734375 
L 6.109375 60.65625 
L 6.109375 51.703125 
L 23.859375 63.5 
L 24.296875 63.5 
L 24.296875 0 
L 33.09375 0 
z
" id="Inter-Regular-49"/>
       </defs>
       <use xlink:href="#Inter-Regular-49"/>
       <use x="46.448868" xlink:href="#Inter-Regular-48"/>
      </g>
     </g>
    </g>
    <g id="xtick_7">
     <g id="line2d_13">
      <path clip-path="url(#p1c8f7368e1)" d="M 456.026 317.72 
L 456.026 51.0736 
" style="fill:none;stroke:#e5e7eb;stroke-dasharray:3.7,1.6;stroke-dashoffset:0;"/>
     </g>
     <g id="line2d_14">
      <g>
       <use style="stroke:#000000;stroke-width:0.8;" x="456.026" xlink:href="#m1c298fb70e" y="317.72"/>
      </g>
     </g>
     <g id="text_7">
      <!-- 12 -->
      <g transform="translate(450.677563 331.993437)scale(0.1 -0.1)">
       <use xlink:href="#Inter-Regular-49"/>
       <use x="46.448868" xlink:href="#Inter-Regular-50"/>
      </g>
     </g>
    </g>
    <g id="xtick_8">
     <g id="line2d_15">
      <path clip-path="url(#p1c8f7368e1)" d="M 527.008667 317.72 
L 527.008667 51.0736 
" style="fill:none;stroke:#e5e7eb;stroke-dasharray:3.7,1.6;stroke-dashoffset:0;"/>
     </g>
     <g id="line2d_16">
      <g>
       <use style="stroke:#000000;stroke-width:0.8;" x="527.008667" xlink:href="#m1c298fb70e" y="317.72"/>
      </g>
     </g>
     <g id="text_8">
      <!-- 14 -->
      <g transform="translate(521.475854 331.993437)scale(0.1 -0.1)">
       <use xlink:href="#Inter-Regular-49"/>
       <use x="46.448868" xlink:href="#Inter-Regular-52"/>
      </g>
     </g>
    </g>
   </g>
   <g id="matplotlib.axis_2">
    <g id="ytick_1">
     <g id="line2d_17">
      <path clip-path="url(#p1c8f7368e1)" d="M 30.13 306.142179 
L 562.5 306.142179 
" style="fill:none;stroke:#e5e7eb;stroke-dasharray:3.7,1.6;stroke-dashoffset:0;"/>
     </g>
     <g id="line2d_18">
      <defs>
       <path d="M 0 0 
L -3.5 0 
" id="mc9fd2bda5c" style="stroke:#000000;stroke-width:0.8;"/>
      </defs>
      <g>
       <use style="stroke:#000000;stroke-width:0.8;" x="30.13" xlink:href="#mc9fd2bda5c" y="306.142179"/>
      </g>
     </g>
     <g id="text_9">
      <!-- 0 -->
      <g transform="translate(16.88 309.778898)scale(0.1 -0.1)">
       <use xlink:href="#Inter-Regular-48"/>
      </g>
     </g>
    </g>
    <g id="ytick_2">
     <g id="line2d_19">
      <path clip-path="url(#p1c8f7368e1)" d="M 30.13 251.430457 
L 562.5 251.430457 
" style="fill:none;stroke:#e5e7eb;stroke-dasharray:3.7,1.6;stroke-dashoffset:0;"/>
     </g>
     <g id="line2d_20">
      <g>
       <use style="stroke:#000000;stroke-width:0.8;" x="30.13" xlink:href="#mc9fd2bda5c" y="251.430457"/>
      </g>
     </g>
     <g id="text_10">
      <!-- 5 -->
      <g transform="translate(17.050313 255.067175)scale(0.1 -0.1)">
       <defs>
        <path d="M 30.25 -1 
C 44.109375 -1 54.265625 9.234375 54.265625 23.15625 
C 54.265625 37.25 44.46875 47.578125 31.109375 47.578125 
C 26.203125 47.578125 21.453125 45.84375 18.46875 43.46875 
L 18.046875 43.46875 
L 20.59375 64.921875 
L 51 64.921875 
L 51 72.734375 
L 13.21875 72.734375 
L 8.8125 36.9375 
L 17.046875 35.9375 
C 20.0625 38.109375 25.21875 39.671875 29.6875 39.625 
C 38.953125 39.5625 45.734375 32.53125 45.734375 23.015625 
C 45.734375 13.671875 39.203125 6.8125 30.25 6.8125 
C 22.796875 6.8125 16.875 11.609375 16.1875 18.1875 
L 7.671875 18.1875 
C 8.203125 7.109375 17.75 -1 30.25 -1 
z
" id="Inter-Regular-53"/>
       </defs>
       <use xlink:href="#Inter-Regular-53"/>
      </g>
     </g>
    </g>
    <g id="ytick_3">
     <g id="line2d_21">
      <path clip-path="url(#p1c8f7368e1)" d="M 30.13 196.718734 
L 562.5 196.718734 
" style="fill:none;stroke:#e5e7eb;stroke-dasharray:3.7,1.6;stroke-dashoffset:0;"/>
     </g>
     <g id="line2d_22">
      <g>
       <use style="stroke:#000000;stroke-width:0.8;" x="30.13" xlink:href="#mc9fd2bda5c" y="196.718734"/>
      </g>
     </g>
     <g id="text_11">
      <!-- 10 -->
      <g transform="translate(12.234688 200.355453)scale(0.1 -0.1)">
       <use xlink:href="#Inter-Regular-49"/>
       <use x="46.448868" xlink:href="#Inter-Regular-48"/>
      </g>
     </g>
    </g>
    <g id="ytick_4">
     <g id="line2d_23">
      <path clip-path="url(#p1c8f7368e1)" d="M 30.13 142.007011 
L 562.5 142.007011 
" style="fill:none;stroke:#e5e7eb;stroke-dasharray:3.7,1.6;stroke-dashoffset:0;"/>
     </g>
     <g id="line2d_24">
      <g>
       <use style="stroke:#000000;stroke-width:0.8;" x="30.13" xlink:href="#mc9fd2bda5c" y="142.007011"/>
      </g>
     </g>
     <g id="text_12">
      <!-- 15 -->
      <g transform="translate(12.405 145.64373)scale(0.1 -0.1)">
       <use xlink:href="#Inter-Regular-49"/>
       <use x="46.448868" xlink:href="#Inter-Regular-53"/>
      </g>
     </g>
    </g>
    <g id="ytick_5">
     <g id="line2d_25">
      <path clip-path="url(#p1c8f7368e1)" d="M 30.13 87.295289 
L 562.5 87.295289 
" style="fill:none;stroke:#e5e7eb;stroke-dasharray:3.7,1.6;stroke-dashoffset:0;"/>
     </g>
     <g id="line2d_26">
      <g>
       <use style="stroke:#000000;stroke-width:0.8;" x="30.13" xlink:href="#mc9fd2bda5c" y="87.295289"/>
      </g>
     </g>
     <g id="text_13">
      <!-- 20 -->
      <g transform="translate(10.828438 90.932007)scale(0.1 -0.1)">
       <use xlink:href="#Inter-Regular-50"/>
       <use x="60.511383" xlink:href="#Inter-Regular-48"/>
      </g>
     </g>
    </g>
   </g>
   <g id="line2d_27">
    <path clip-path="url(#p1c8f7368e1)" d="M 30.13 123.785162 
L 39.535203 123.410156 
L 40.644308 123.797106 
L 41.753412 125.053448 
L 42.862516 127.167159 
L 43.97162 130.118012 
L 45.080724 133.877765 
L 46.189828 138.410438 
L 47.298933 143.672652 
L 55.563089 187.376977 
L 58.629541 201.94597 
L 62.036709 216.997174 
L 65.397738 230.672367 
L 68.66649 242.85541 
L 71.935242 253.9373 
L 75.203993 263.918037 
L 77.23207 269.318568 
L 79.260146 273.904124 
L 81.288222 277.788592 
L 83.367 281.187016 
L 86.56122 285.870329 
L 88.6907 288.674454 
L 90.82018 291.224111 
L 92.94966 293.519301 
L 95.07914 295.560024 
L 97.20862 297.34628 
L 99.301385 298.833934 
L 101.39415 300.082287 
L 103.486914 301.090424 
L 105.579679 301.857604 
L 107.672444 302.383265 
L 109.765209 302.667022 
L 111.857974 302.708667 
L 113.950739 302.508169 
L 116.043503 302.065674 
L 118.136268 301.381508 
L 120.229033 300.456173 
L 122.321798 299.290346 
L 124.414563 297.884884 
L 126.507328 296.240816 
L 128.61845 294.325926 
L 130.74793 292.127578 
L 132.87741 289.674763 
L 135.00689 286.96748 
L 137.13637 284.00573 
L 140.33059 279.085979 
L 142.46007 275.488061 
L 144.678278 271.206279 
L 146.896487 266.027046 
L 149.114695 259.786439 
L 151.332903 252.286947 
L 153.504973 243.945287 
L 156.763077 230.278059 
L 160.170245 214.5033 
L 163.527725 197.476196 
L 166.78583 179.546246 
L 169.95959 161.434674 
L 172.047316 150.562606 
L 174.135041 140.857015 
L 176.222767 132.506758 
L 178.310492 125.674317 
L 179.354355 122.870053 
L 180.398218 120.492641 
L 181.44208 118.553662 
L 182.485943 117.062558 
L 183.529806 116.026593 
L 184.573669 115.450812 
L 185.617531 115.338019 
L 199.904681 116.862577 
L 214.737038 118.22278 
L 229.569394 119.356282 
L 244.401751 120.263084 
L 259.234108 120.943185 
L 274.066465 121.396586 
L 288.898822 121.623286 
L 303.731178 121.623286 
L 318.563535 121.396586 
L 333.395892 120.943185 
L 348.228249 120.263084 
L 363.060606 119.356282 
L 377.892962 118.22278 
L 392.725319 116.862577 
L 407.012469 115.338019 
L 408.056331 115.450812 
L 409.100194 116.026593 
L 410.144057 117.062558 
L 411.18792 118.553662 
L 412.231782 120.492641 
L 413.275645 122.870053 
L 414.319508 125.674317 
L 415.363371 128.891776 
L 417.451096 136.501657 
L 419.538822 145.55162 
L 421.626547 155.865566 
L 423.714273 167.242803 
L 428.01624 191.653511 
L 431.324032 208.908296 
L 434.7312 225.188182 
L 438.038992 239.54351 
L 441.297097 252.286947 
L 443.515305 259.786439 
L 445.733513 266.027046 
L 447.951722 271.206279 
L 450.16993 275.488061 
L 453.36415 280.789513 
L 456.55837 285.518413 
L 458.68785 288.35293 
L 460.81733 290.932979 
L 462.94681 293.258561 
L 465.07629 295.329675 
L 467.169055 297.092604 
L 469.26182 298.617509 
L 471.354584 299.903271 
L 473.447349 300.948948 
L 475.540114 301.753773 
L 477.632879 302.317155 
L 479.725644 302.638681 
L 481.818409 302.718115 
L 483.911173 302.555399 
L 486.003938 302.150653 
L 488.096703 301.504173 
L 490.189468 300.616433 
L 492.282233 299.488085 
L 494.374998 298.119955 
L 496.48612 296.48496 
L 498.6156 294.571471 
L 500.74508 292.403515 
L 502.87456 289.981091 
L 505.00404 287.3042 
L 507.13352 284.372842 
L 510.32774 279.498678 
L 512.355816 275.927587 
L 514.383892 271.705661 
L 516.411969 266.728046 
L 518.515591 260.713475 
L 520.694758 253.9373 
L 523.96351 242.85541 
L 527.232262 230.672367 
L 530.593291 216.997174 
L 534.000459 201.94597 
L 537.066911 187.376977 
L 540.133362 171.838913 
L 543.199813 155.331776 
L 545.331067 143.672652 
L 546.440172 138.410438 
L 547.549276 133.877765 
L 548.65838 130.118012 
L 549.767484 127.167159 
L 550.876588 125.053448 
L 551.985692 123.797106 
L 553.094797 123.410156 
L 563.431647 123.817273 
L 563.431647 123.817273 
" style="fill:none;stroke:#ef4444;stroke-linecap:square;stroke-width:1.5;"/>
   </g>
   <g id="line2d_28">
    <path clip-path="url(#p1c8f7368e1)" d="M 30.13 221.04358 
L 39.535203 220.94012 
L 40.644308 220.710681 
L 41.753412 220.067946 
L 42.862516 219.005752 
L 43.97162 217.51392 
L 45.080724 215.578149 
L 46.189828 213.179884 
L 47.298933 210.296137 
L 49.430187 203.492929 
L 53.518789 189.27314 
L 57.60739 174.102249 
L 62.036709 156.593823 
L 66.487322 137.876934 
L 70.845658 118.455938 
L 77.23207 89.37356 
L 78.246108 86.029875 
L 79.260146 83.346211 
L 80.274184 81.339189 
L 81.288222 80.021237 
L 82.30226 79.400519 
L 97.20862 75.314182 
L 113.950739 75.410638 
L 127.55371 75.318954 
L 142.46007 79.409844 
L 143.569174 80.15202 
L 144.678278 81.781171 
L 145.787383 84.28445 
L 146.896487 87.642114 
L 148.005591 91.827684 
L 149.114695 96.80815 
L 150.223799 102.544234 
L 159.034523 153.263228 
L 162.441691 171.034697 
L 165.699795 186.987575 
L 168.915727 201.606722 
L 171.003453 209.681251 
L 173.091178 216.518868 
L 175.178904 222.253056 
L 177.266629 226.995755 
L 179.354355 230.839552 
L 181.44208 233.859484 
L 182.485943 235.079519 
L 183.529806 236.114506 
L 184.573669 236.96949 
L 186.703566 238.261955 
L 193.319151 241.867364 
L 199.904681 245.233546 
L 207.320859 248.758136 
L 214.737038 252.000758 
L 221.093762 254.555726 
L 227.450486 256.903535 
L 233.807211 259.044183 
L 240.163935 260.977673 
L 246.520659 262.704002 
L 252.877384 264.223172 
L 259.234108 265.535183 
L 265.590832 266.640034 
L 271.947557 267.537725 
L 278.304281 268.228257 
L 284.661005 268.71163 
L 291.01773 268.987842 
L 297.374454 269.056895 
L 303.731178 268.918789 
L 310.087903 268.573523 
L 316.444627 268.021098 
L 322.801351 267.261513 
L 329.158076 266.294768 
L 335.5148 265.120864 
L 341.871524 263.7398 
L 348.228249 262.151577 
L 354.584973 260.356194 
L 360.941697 258.353652 
L 367.298422 256.14395 
L 373.655146 253.727088 
L 380.01187 251.103067 
L 387.428049 247.779882 
L 394.844227 244.174731 
L 401.582295 240.654749 
L 407.012469 237.648639 
L 408.056331 236.96949 
L 409.100194 236.114506 
L 410.144057 235.079519 
L 411.18792 233.859484 
L 412.231782 232.448454 
L 413.275645 230.839552 
L 415.363371 226.995755 
L 417.451096 222.253056 
L 419.538822 216.518868 
L 421.626547 209.681251 
L 423.714273 201.606722 
L 425.84417 192.079022 
L 429.102275 176.465413 
L 432.459755 159.310725 
L 435.866923 140.79721 
L 439.125027 122.052573 
L 442.406201 102.544234 
L 443.515305 96.80815 
L 444.624409 91.827684 
L 445.733513 87.642114 
L 446.842618 84.28445 
L 447.951722 81.781171 
L 449.060826 80.15202 
L 450.16993 79.409844 
L 465.07629 75.318954 
L 481.818409 75.410144 
L 495.42138 75.314182 
L 510.32774 79.400519 
L 511.341778 80.021237 
L 512.355816 81.339189 
L 513.369854 83.346211 
L 514.383892 86.029875 
L 515.39793 89.37356 
L 516.411969 93.356559 
L 519.605175 108.340164 
L 523.96351 128.301528 
L 528.321846 147.182156 
L 532.864737 165.711939 
L 537.066911 181.806582 
L 541.155512 196.501922 
L 544.221963 206.899266 
L 545.331067 210.296137 
L 546.440172 213.179884 
L 547.549276 215.578149 
L 548.65838 217.51392 
L 549.767484 219.005752 
L 550.876588 220.067946 
L 551.985692 220.710681 
L 553.094797 220.94012 
L 563.431647 221.043072 
L 563.431647 221.043072 
" style="fill:none;stroke:#1d4ed8;stroke-linecap:square;stroke-width:1.5;"/>
   </g>
   <g id="line2d_29">
    <path clip-path="url(#p1c8f7368e1)" d="M 30.13 256.939909 
L 40.644308 256.999187 
L 41.753412 257.175767 
L 42.862516 257.469571 
L 45.080724 258.405757 
L 47.298933 259.798784 
L 50.452337 262.355844 
L 77.23207 284.4662 
L 80.274184 286.631156 
L 84.43174 289.215646 
L 100.347767 298.773691 
L 103.486914 300.373098 
L 106.626062 301.778306 
L 109.765209 302.988735 
L 112.904356 304.003886 
L 116.043503 304.823339 
L 119.182651 305.446757 
L 122.321798 305.873883 
L 125.460945 306.10454 
L 129.68319 306.150023 
L 429.102275 306.16812 
L 468.215437 306.049492 
L 471.354584 305.753331 
L 474.493732 305.260751 
L 477.632879 304.571955 
L 480.772026 303.687228 
L 483.911173 302.606934 
L 487.050321 301.331519 
L 490.189468 299.861509 
L 493.328615 298.197512 
L 497.55086 295.686561 
L 512.355816 286.631156 
L 515.39793 284.4662 
L 518.515591 281.954384 
L 545.331067 259.798784 
L 547.549276 258.405757 
L 549.767484 257.469571 
L 550.876588 257.175767 
L 551.985692 256.999187 
L 554.230519 256.940211 
L 563.431647 256.939874 
L 563.431647 256.939874 
" style="fill:none;stroke:#10b981;stroke-linecap:square;stroke-width:1.5;"/>
   </g>
   <g id="patch_3">
    <path d="M 30.13 317.72 
L 30.13 51.0736 
" style="fill:none;stroke:#000000;stroke-linecap:square;stroke-linejoin:miter;stroke-width:0.8;"/>
   </g>
   <g id="patch_4">
    <path d="M 562.5 317.72 
L 562.5 51.0736 
" style="fill:none;stroke:#000000;stroke-linecap:square;stroke-linejoin:miter;stroke-width:0.8;"/>
   </g>
   <g id="patch_5">
    <path d="M 30.13 317.72 
L 562.5 317.72 
" style="fill:none;stroke:#000000;stroke-linecap:square;stroke-linejoin:miter;stroke-width:0.8;"/>
   </g>
   <g id="patch_6">
    <path d="M 30.13 51.0736 
L 562.5 51.0736 
" style="fill:none;stroke:#000000;stroke-linecap:square;stroke-linejoin:miter;stroke-width:0.8;"/>
   </g>
   <g id="legend_1">
    <g id="line2d_30">
     <path d="M 39.13 22.14128 
L 59.13 22.14128 
" style="fill:none;stroke:#ef4444;stroke-linecap:square;stroke-width:1.5;"/>
    </g>
    <g id="line2d_31"/>
    <g id="text_14">
     <!-- $\beta_x$ / m -->
     <g transform="translate(67.13 25.64128)scale(0.1 -0.1)">
      <defs>
       <path d="M 13.625 3.375 
L 8.9375 -20.796875 
L -0.09375 -20.796875 
L 14.5 54.34375 
Q 18.84375 76.609375 39.65625 76.609375 
Q 60.75 76.609375 57.171875 57.8125 
Q 54.734375 44.4375 45.21875 39.546875 
Q 58.015625 35.15625 55.515625 22.125 
Q 51.125 -1.078125 27.484375 -1.03125 
Q 17.140625 -0.984375 13.625 3.375 
z
M 15.921875 15.09375 
Q 19.671875 6.59375 29.296875 6.640625 
Q 43.359375 6.640625 46.34375 21.96875 
Q 49.03125 35.75 26.171875 34.671875 
L 27.78125 42.96875 
Q 45.453125 42.671875 48.53125 58.59375 
Q 50.640625 69.34375 39.203125 69.28125 
Q 26.421875 69.28125 23.484375 54.046875 
z
" id="DejaVuSans-Oblique-946"/>
       <path d="M 60.015625 54.6875 
L 34.90625 27.875 
L 50.296875 0 
L 39.984375 0 
L 28.421875 21.6875 
L 8.296875 0 
L -2.59375 0 
L 24.3125 28.8125 
L 10.015625 54.6875 
L 20.3125 54.6875 
L 30.8125 34.90625 
L 49.125 54.6875 
z
" id="DejaVuSans-Oblique-120"/>
       <path id="Inter-Regular-32"/>
       <path d="M 33.375 76.140625 
L 25.71875 76.140625 
L 2.28125 -10.9375 
L 9.9375 -10.9375 
z
" id="Inter-Regular-47"/>
       <path d="M 7.671875 0 
L 16.046875 0 
L 16.046875 34.09375 
C 16.046875 42.078125 21.875 47.734375 28.40625 47.734375 
C 34.765625 47.734375 39.203125 43.578125 39.203125 37.359375 
L 39.203125 0 
L 47.734375 0 
L 47.734375 35.515625 
C 47.734375 42.546875 52.125 47.734375 59.796875 47.734375 
C 65.765625 47.734375 70.875 44.5625 70.875 36.5 
L 70.875 0 
L 79.265625 0 
L 79.265625 36.5 
C 79.265625 49.328125 72.375 55.25 62.640625 55.25 
C 54.828125 55.25 49.109375 51.671875 46.3125 46.015625 
L 45.734375 46.015625 
C 43.046875 51.84375 38.28125 55.25 31.109375 55.25 
C 24 55.25 18.75 51.84375 16.484375 46.015625 
L 15.765625 46.015625 
L 15.765625 54.546875 
L 7.671875 54.546875 
z
" id="Inter-Regular-109"/>
      </defs>
      <use transform="translate(0 0.390625)" xlink:href="#DejaVuSans-Oblique-946"/>
      <use transform="translate(63.818359 -16.015625)scale(0.7)" xlink:href="#DejaVuSans-Oblique-120"/>
      <use transform="translate(107.978516 0.390625)" xlink:href="#Inter-Regular-32"/>
      <use transform="translate(136.103516 0.390625)" xlink:href="#Inter-Regular-47"/>
      <use transform="translate(171.756927 0.390625)" xlink:href="#Inter-Regular-32"/>
      <use transform="translate(199.881927 0.390625)" xlink:href="#Inter-Regular-109"/>
     </g>
    </g>
    <g id="line2d_32">
     <path d="M 261.115 22.14128 
L 281.115 22.14128 
" style="fill:none;stroke:#1d4ed8;stroke-linecap:square;stroke-width:1.5;"/>
    </g>
    <g id="line2d_33"/>
    <g id="text_15">
     <!-- $\beta_y$ / m -->
     <g transform="translate(289.115 25.64128)scale(0.1 -0.1)">
      <defs>
       <path d="M 24.8125 -5.078125 
Q 18.5625 -15.578125 14.625 -18.1875 
Q 10.6875 -20.796875 4.59375 -20.796875 
L -2.484375 -20.796875 
L -0.984375 -13.28125 
L 4.203125 -13.28125 
Q 7.953125 -13.28125 10.59375 -11.234375 
Q 13.234375 -9.1875 16.5 -3.21875 
L 19.28125 2 
L 7.171875 54.6875 
L 16.703125 54.6875 
L 25.78125 12.796875 
L 50.875 54.6875 
L 60.296875 54.6875 
z
" id="DejaVuSans-Oblique-121"/>
      </defs>
      <use transform="translate(0 0.390625)" xlink:href="#DejaVuSans-Oblique-946"/>
      <use transform="translate(63.818359 -16.015625)scale(0.7)" xlink:href="#DejaVuSans-Oblique-121"/>
      <use transform="translate(107.978516 0.390625)" xlink:href="#Inter-Regular-32"/>
      <use transform="translate(136.103516 0.390625)" xlink:href="#Inter-Regular-47"/>
      <use transform="translate(171.756927 0.390625)" xlink:href="#Inter-Regular-32"/>
      <use transform="translate(199.881927 0.390625)" xlink:href="#Inter-Regular-109"/>
     </g>
    </g>
    <g id="line2d_34">
     <path d="M 483.1 22.14128 
L 503.1 22.14128 
" style="fill:none;stroke:#10b981;stroke-linecap:square;stroke-width:1.5;"/>
    </g>
    <g id="line2d_35"/>
    <g id="text_16">
     <!-- 10 $\eta_x$ / m -->
     <g transform="translate(511.1 25.64128)scale(0.1 -0.1)">
      <defs>
       <path d="M 57.859375 33.015625 
L 47.40625 -20.796875 
L 38.421875 -20.796875 
L 48.828125 32.71875 
Q 50.34375 40.484375 48.046875 44.34375 
Q 45.796875 48.1875 39.75 48.1875 
Q 32.46875 48.1875 27.34375 43.5625 
Q 22.265625 38.921875 20.703125 30.90625 
L 14.703125 0 
L 5.671875 0 
L 16.3125 54.6875 
L 25.34375 54.6875 
L 23.6875 46.1875 
Q 27.828125 51.125 32.71875 53.5625 
Q 37.546875 56 43.265625 56 
Q 52.6875 56 56.390625 50.203125 
Q 60.0625 44.34375 57.859375 33.015625 
z
" id="DejaVuSans-Oblique-951"/>
      </defs>
      <use transform="translate(0 0.859375)" xlink:href="#Inter-Regular-49"/>
      <use transform="translate(46.448868 0.859375)" xlink:href="#Inter-Regular-48"/>
      <use transform="translate(108.948883 0.859375)" xlink:href="#Inter-Regular-32"/>
      <use transform="translate(137.073883 0.859375)" xlink:href="#DejaVuSans-Oblique-951"/>
      <use transform="translate(200.452789 -15.546875)scale(0.7)" xlink:href="#DejaVuSans-Oblique-120"/>
      <use transform="translate(244.612946 0.859375)" xlink:href="#Inter-Regular-32"/>
      <use transform="translate(272.737946 0.859375)" xlink:href="#Inter-Regular-47"/>
      <use transform="translate(308.391357 0.859375)" xlink:href="#Inter-Regular-32"/>
      <use transform="translate(336.516357 0.859375)" xlink:href="#Inter-Regular-109"/>
     </g>
    </g>
   </g>
   <g id="patch_7">
    <path d="M 30.13 57.422324 
L 33.85659 57.422324 
L 33.85659 44.724876 
L 30.13 44.724876 
z
" style="fill:#10b981;"/>
   </g>
   <g id="patch_8">
    <path d="M 39.535203 57.422324 
L 48.408037 57.422324 
L 48.408037 44.724876 
L 39.535203 44.724876 
z
" style="fill:#ef4444;"/>
   </g>
   <g id="patch_9">
    <path d="M 58.629541 57.422324 
L 64.308154 57.422324 
L 64.308154 44.724876 
L 58.629541 44.724876 
z
" style="fill:#10b981;"/>
   </g>
   <g id="patch_10">
    <path d="M 75.203993 57.422324 
L 82.30226 57.422324 
L 82.30226 44.724876 
L 75.203993 44.724876 
z
" style="fill:#ef4444;"/>
   </g>
   <g id="patch_11">
    <path d="M 97.20862 57.422324 
L 127.55371 57.422324 
L 127.55371 44.724876 
L 97.20862 44.724876 
z
" style="fill:#fbbf24;"/>
   </g>
   <g id="patch_12">
    <path d="M 142.46007 57.422324 
L 151.332903 57.422324 
L 151.332903 44.724876 
L 142.46007 44.724876 
z
" style="fill:#ef4444;"/>
   </g>
   <g id="patch_13">
    <path d="M 156.763077 57.422324 
L 162.441691 57.422324 
L 162.441691 44.724876 
L 156.763077 44.724876 
z
" style="fill:#10b981;"/>
   </g>
   <g id="patch_14">
    <path d="M 167.871865 57.422324 
L 185.617531 57.422324 
L 185.617531 44.724876 
L 167.871865 44.724876 
z
" style="fill:#ef4444;"/>
   </g>
   <g id="patch_15">
    <path d="M 191.047705 57.422324 
L 196.726319 57.422324 
L 196.726319 44.724876 
L 191.047705 44.724876 
z
" style="fill:#10b981;"/>
   </g>
   <g id="patch_16">
    <path d="M 395.903681 57.422324 
L 401.582295 57.422324 
L 401.582295 44.724876 
L 395.903681 44.724876 
z
" style="fill:#10b981;"/>
   </g>
   <g id="patch_17">
    <path d="M 407.012469 57.422324 
L 424.758135 57.422324 
L 424.758135 44.724876 
L 407.012469 44.724876 
z
" style="fill:#ef4444;"/>
   </g>
   <g id="patch_18">
    <path d="M 430.188309 57.422324 
L 435.866923 57.422324 
L 435.866923 44.724876 
L 430.188309 44.724876 
z
" style="fill:#10b981;"/>
   </g>
   <g id="patch_19">
    <path d="M 441.297097 57.422324 
L 450.16993 57.422324 
L 450.16993 44.724876 
L 441.297097 44.724876 
z
" style="fill:#ef4444;"/>
   </g>
   <g id="patch_20">
    <path d="M 465.07629 57.422324 
L 495.42138 57.422324 
L 495.42138 44.724876 
L 465.07629 44.724876 
z
" style="fill:#fbbf24;"/>
   </g>
   <g id="patch_21">
    <path d="M 510.32774 57.422324 
L 517.426007 57.422324 
L 517.426007 44.724876 
L 510.32774 44.724876 
z
" style="fill:#ef4444;"/>
   </g>
   <g id="patch_22">
    <path d="M 528.321846 57.422324 
L 534.000459 57.422324 
L 534.000459 44.724876 
L 528.321846 44.724876 
z
" style="fill:#10b981;"/>
   </g>
   <g id="patch_23">
    <path d="M 544.221963 57.422324 
L 553.094797 57.422324 
L 553.094797 44.724876 
L 544.221963 44.724876 
z
" style="fill:#ef4444;"/>
   </g>
   <g id="patch_24">
    <path d="M 558.77341 57.422324 
L 562.5 57.422324 
L 562.5 44.724876 
L 558.77341 44.724876 
z
" style="fill:#10b981;"/>
   </g>
   <g id="text_17">
    <!-- S1 -->
    <g transform="translate(29.237436 39.683184)scale(0.05 -0.05)">
     <defs>
      <path d="M 48.578125 54.546875 
L 57.109375 54.546875 
C 56.71875 65.515625 46.59375 73.71875 32.53125 73.71875 
C 18.609375 73.71875 7.671875 65.625 7.671875 53.40625 
C 7.671875 43.609375 14.78125 37.78125 26.140625 34.515625 
L 35.09375 31.953125 
C 42.75 29.828125 49.578125 27.125 49.578125 19.890625 
C 49.578125 11.9375 41.90625 6.671875 31.8125 6.671875 
C 23.15625 6.671875 15.484375 10.515625 14.78125 18.75 
L 5.6875 18.75 
C 6.53125 6.8125 16.1875 -1.28125 31.8125 -1.28125 
C 48.578125 -1.28125 58.09375 7.953125 58.09375 19.75 
C 58.09375 33.375 45.171875 37.78125 37.640625 39.765625 
L 30.25 41.765625 
C 24.859375 43.1875 16.1875 46.015625 16.1875 53.828125 
C 16.1875 60.796875 22.59375 65.90625 32.25 65.90625 
C 41.046875 65.90625 47.734375 61.71875 48.578125 54.546875 
z
" id="Inter-Regular-83"/>
     </defs>
     <use xlink:href="#Inter-Regular-83"/>
     <use x="63.778427" xlink:href="#Inter-Regular-49"/>
    </g>
   </g>
   <g id="text_18">
    <!-- Q1 -->
    <g transform="translate(40.906776 65.078079)scale(0.05 -0.05)">
     <defs>
      <path d="M 70.171875 36.359375 
C 70.171875 59.375 56.671875 73.71875 38.0625 73.71875 
C 19.46875 73.71875 5.96875 59.375 5.96875 36.359375 
C 5.96875 13.359375 19.46875 -1 38.0625 -1 
C 42.828125 -1 47.234375 -0.078125 51.171875 1.703125 
L 57.53125 -6.8125 
L 67.1875 -6.8125 
L 57.703125 5.78125 
C 65.453125 12.140625 70.171875 22.734375 70.171875 36.359375 
z
M 35.234375 22.734375 
L 45.984375 8.59375 
C 43.53125 7.703125 40.875 7.25 38.0625 7.25 
C 24.859375 7.25 14.484375 17.46875 14.484375 36.359375 
C 14.484375 55.25 24.859375 65.484375 38.0625 65.484375 
C 51.28125 65.484375 61.65625 55.25 61.65625 36.359375 
C 61.65625 25.390625 58.171875 17.359375 52.625 12.53125 
L 44.890625 22.734375 
z
" id="Inter-Regular-81"/>
     </defs>
     <use xlink:href="#Inter-Regular-81"/>
     <use x="76.136383" xlink:href="#Inter-Regular-49"/>
    </g>
   </g>
   <g id="text_19">
    <!-- S2 -->
    <g transform="translate(58.361425 39.683184)scale(0.05 -0.05)">
     <use xlink:href="#Inter-Regular-83"/>
     <use x="63.778427" xlink:href="#Inter-Regular-50"/>
    </g>
   </g>
   <g id="text_20">
    <!-- Q2 -->
    <g transform="translate(75.33672 65.078079)scale(0.05 -0.05)">
     <use xlink:href="#Inter-Regular-81"/>
     <use x="76.136383" xlink:href="#Inter-Regular-50"/>
    </g>
   </g>
   <g id="text_21">
    <!-- B -->
    <g transform="translate(110.754603 39.683184)scale(0.05 -0.05)">
     <defs>
      <path d="M 8.8125 0 
L 35.09375 0 
C 52.28125 0 59.375 8.375 59.375 19.3125 
C 59.375 30.828125 51.421875 37.078125 44.75 37.5 
L 44.75 38.203125 
C 51 39.921875 56.53125 44.03125 56.53125 53.40625 
C 56.53125 64.0625 49.4375 72.734375 34.234375 72.734375 
L 8.8125 72.734375 
z
M 17.609375 40.765625 
L 17.609375 64.921875 
L 34.234375 64.921875 
C 43.890625 64.921875 48.15625 59.796875 48.15625 53.40625 
C 48.15625 45.734375 41.90625 40.765625 33.953125 40.765625 
z
M 17.609375 7.8125 
L 17.609375 33.09375 
L 35.515625 33.09375 
C 45.03125 33.09375 51 26.703125 51 19.3125 
C 51 12.921875 46.59375 7.8125 35.09375 7.8125 
z
" id="Inter-Regular-66"/>
     </defs>
     <use xlink:href="#Inter-Regular-66"/>
    </g>
   </g>
   <g id="text_22">
    <!-- Q3D -->
    <g transform="translate(141.60508 65.078079)scale(0.05 -0.05)">
     <defs>
      <path d="M 32.109375 -1 
C 46.203125 -1 56.671875 7.84375 56.671875 19.75 
C 56.671875 28.984375 51.203125 35.6875 42.046875 37.21875 
L 42.046875 37.78125 
C 49.390625 40.015625 53.984375 46.0625 53.984375 54.265625 
C 53.984375 64.5625 45.84375 73.71875 32.390625 73.71875 
C 19.8125 73.71875 9.375 65.984375 8.953125 54.546875 
L 17.46875 54.546875 
C 17.796875 61.796875 24.6875 66.046875 32.25 66.046875 
C 40.265625 66.046875 45.453125 61.1875 45.453125 53.828125 
C 45.453125 46.171875 39.453125 41.1875 30.828125 41.1875 
L 25 41.1875 
L 25 33.375 
L 30.828125 33.375 
C 41.875 33.375 48.015625 27.765625 48.015625 19.75 
C 48.015625 12.03125 41.296875 6.8125 31.96875 6.8125 
C 23.546875 6.8125 16.875 11.15625 16.34375 18.1875 
L 7.390625 18.1875 
C 7.921875 6.75 18 -1 32.109375 -1 
z
" id="Inter-Regular-51"/>
      <path d="M 31.25 0 
C 53.40625 0 65.90625 13.78125 65.90625 36.5 
C 65.90625 59.09375 53.40625 72.734375 32.25 72.734375 
L 8.8125 72.734375 
L 8.8125 0 
z
M 31.671875 64.921875 
C 48.71875 64.921875 57.390625 54.125 57.390625 36.5 
C 57.390625 18.75 48.71875 7.8125 30.6875 7.8125 
L 17.609375 7.8125 
L 17.609375 64.921875 
z
" id="Inter-Regular-68"/>
     </defs>
     <use xlink:href="#Inter-Regular-81"/>
     <use x="76.136383" xlink:href="#Inter-Regular-51"/>
     <use x="139.772766" xlink:href="#Inter-Regular-68"/>
    </g>
   </g>
   <g id="text_23">
    <!-- S3D -->
    <g transform="translate(154.619962 39.683184)scale(0.05 -0.05)">
     <use xlink:href="#Inter-Regular-83"/>
     <use x="63.778427" xlink:href="#Inter-Regular-51"/>
     <use x="127.41481" xlink:href="#Inter-Regular-68"/>
    </g>
   </g>
   <g id="text_24">
    <!-- Q4D -->
    <g transform="translate(171.439229 65.078079)scale(0.05 -0.05)">
     <use xlink:href="#Inter-Regular-81"/>
     <use x="76.136383" xlink:href="#Inter-Regular-52"/>
     <use x="140.340942" xlink:href="#Inter-Regular-68"/>
    </g>
   </g>
   <g id="text_25">
    <!-- S4D -->
    <g transform="translate(188.890528 39.683184)scale(0.05 -0.05)">
     <use xlink:href="#Inter-Regular-83"/>
     <use x="63.778427" xlink:href="#Inter-Regular-52"/>
     <use x="127.982986" xlink:href="#Inter-Regular-68"/>
    </g>
   </g>
   <g id="text_26">
    <!-- S4D -->
    <g transform="translate(393.746504 65.078079)scale(0.05 -0.05)">
     <use xlink:href="#Inter-Regular-83"/>
     <use x="63.778427" xlink:href="#Inter-Regular-52"/>
     <use x="127.982986" xlink:href="#Inter-Regular-68"/>
    </g>
   </g>
   <g id="text_27">
    <!-- Q4D -->
    <g transform="translate(410.579833 39.683184)scale(0.05 -0.05)">
     <use xlink:href="#Inter-Regular-81"/>
     <use x="76.136383" xlink:href="#Inter-Regular-52"/>
     <use x="140.340942" xlink:href="#Inter-Regular-68"/>
    </g>
   </g>
   <g id="text_28">
    <!-- S3D -->
    <g transform="translate(428.045194 65.078079)scale(0.05 -0.05)">
     <use xlink:href="#Inter-Regular-83"/>
     <use x="63.778427" xlink:href="#Inter-Regular-51"/>
     <use x="127.41481" xlink:href="#Inter-Regular-68"/>
    </g>
   </g>
   <g id="text_29">
    <!-- Q3D -->
    <g transform="translate(440.442107 39.683184)scale(0.05 -0.05)">
     <use xlink:href="#Inter-Regular-81"/>
     <use x="76.136383" xlink:href="#Inter-Regular-51"/>
     <use x="139.772766" xlink:href="#Inter-Regular-68"/>
    </g>
   </g>
   <g id="text_30">
    <!-- B -->
    <g transform="translate(478.622272 65.078079)scale(0.05 -0.05)">
     <use xlink:href="#Inter-Regular-66"/>
    </g>
   </g>
   <g id="text_31">
    <!-- Q2 -->
    <g transform="translate(510.460467 39.683184)scale(0.05 -0.05)">
     <use xlink:href="#Inter-Regular-81"/>
     <use x="76.136383" xlink:href="#Inter-Regular-50"/>
    </g>
   </g>
   <g id="text_32">
    <!-- S2 -->
    <g transform="translate(528.053731 65.078079)scale(0.05 -0.05)">
     <use xlink:href="#Inter-Regular-83"/>
     <use x="63.778427" xlink:href="#Inter-Regular-50"/>
    </g>
   </g>
   <g id="text_33">
    <!-- Q1 -->
    <g transform="translate(545.593536 39.683184)scale(0.05 -0.05)">
     <use xlink:href="#Inter-Regular-81"/>
     <use x="76.136383" xlink:href="#Inter-Regular-49"/>
    </g>
   </g>
   <g id="text_34">
    <!-- S1 -->
    <g transform="translate(559.744141 65.078079)scale(0.05 -0.05)">
     <use xlink:href="#Inter-Regular-83"/>
     <use x="63.778427" xlink:href="#Inter-Regular-49"/>
    </g>
   </g>
  </g>
 </g>
 <defs>
  <clipPath id="p1c8f7368e1">
   <rect height="266.6464" width="532.37" x="30.13" y="51.0736"/>
  </clipPath>
 </defs>
</svg>
