<?xml version="1.0" encoding="utf-8" standalone="no"?>
<!DOCTYPE svg PUBLIC "-//W3C//DTD SVG 1.1//EN"
  "http://www.w3.org/Graphics/SVG/1.1/DTD/svg11.dtd">
<!-- Created with matplotlib (https://matplotlib.org/) -->
<svg height="345.6pt" version="1.1" viewBox="0 0 576 345.6" width="576pt" xmlns="http://www.w3.org/2000/svg" xmlns:xlink="http://www.w3.org/1999/xlink">
 <metadata>
  <rdf:RDF xmlns:cc="http://creativecommons.org/ns#" xmlns:dc="http://purl.org/dc/elements/1.1/" xmlns:rdf="http://www.w3.org/1999/02/22-rdf-syntax-ns#">
   <cc:Work>
    <dc:type rdf:resource="http://purl.org/dc/dcmitype/StillImage"/>
    <dc:date>2020-12-16T19:46:33.008324</dc:date>
    <dc:format>image/svg+xml</dc:format>
    <dc:creator>
     <cc:Agent>
      <dc:title>Matplotlib v3.3.3, https://matplotlib.org/</dc:title>
     </cc:Agent>
    </dc:creator>
   </cc:Work>
  </rdf:RDF>
 </metadata>
 <defs>
  <style type="text/css">*{stroke-linecap:butt;stroke-linejoin:round;}</style>
 </defs>
 <g id="figure_1">
  <g id="patch_1">
   <path d="M 0 345.6 
L 576 345.6 
L 576 0 
L 0 0 
z
" style="fill:#ffffff;"/>
  </g>
  <g id="axes_1">
   <g id="patch_2">
    <path clip-path="url(#pdda222a55b)" d="M 76.376471 265.167674 
L 78.076396 265.167674 
" style="fill:#10b981;stroke:#10b981;stroke-linejoin:miter;stroke-width:6;"/>
   </g>
   <g id="patch_3">
    <path clip-path="url(#pdda222a55b)" d="M 78.076396 265.167674 
L 80.666759 265.167674 
" style="stroke:#000000;stroke-linejoin:miter;"/>
   </g>
   <g id="patch_4">
    <path clip-path="url(#pdda222a55b)" d="M 80.666759 265.167674 
L 84.714202 265.167674 
" style="fill:#ef4444;stroke:#ef4444;stroke-linejoin:miter;stroke-width:6;"/>
   </g>
   <g id="patch_5">
    <path clip-path="url(#pdda222a55b)" d="M 84.714202 265.167674 
L 89.376855 265.167674 
" style="stroke:#000000;stroke-linejoin:miter;"/>
   </g>
   <g id="patch_6">
    <path clip-path="url(#pdda222a55b)" d="M 89.376855 265.167674 
L 91.967218 265.167674 
" style="fill:#10b981;stroke:#10b981;stroke-linejoin:miter;stroke-width:6;"/>
   </g>
   <g id="patch_7">
    <path clip-path="url(#pdda222a55b)" d="M 91.967218 265.167674 
L 96.937477 265.167674 
" style="stroke:#000000;stroke-linejoin:miter;"/>
   </g>
   <g id="patch_8">
    <path clip-path="url(#pdda222a55b)" d="M 96.937477 265.167674 
L 100.175431 265.167674 
" style="fill:#ef4444;stroke:#ef4444;stroke-linejoin:miter;stroke-width:6;"/>
   </g>
   <g id="patch_9">
    <path clip-path="url(#pdda222a55b)" d="M 100.175431 265.167674 
L 106.975134 265.167674 
" style="stroke:#000000;stroke-linejoin:miter;"/>
   </g>
   <g id="patch_10">
    <path clip-path="url(#pdda222a55b)" d="M 106.975134 265.167674 
C 109.28264 265.167674 111.588754 265.054382 113.885148 264.828206 
C 116.181542 264.602031 118.465447 264.263246 120.728615 263.813074 
" style="fill:none;stroke:#fbbf24;stroke-linejoin:miter;stroke-width:6;"/>
   </g>
   <g id="patch_11">
    <path clip-path="url(#pdda222a55b)" d="M 120.728615 263.813074 
L 127.397663 262.486518 
" style="stroke:#000000;stroke-linejoin:miter;"/>
   </g>
   <g id="patch_12">
    <path clip-path="url(#pdda222a55b)" d="M 127.397663 262.486518 
L 131.367335 261.696901 
" style="fill:#ef4444;stroke:#ef4444;stroke-linejoin:miter;stroke-width:6;"/>
   </g>
   <g id="patch_13">
    <path clip-path="url(#pdda222a55b)" d="M 131.367335 261.696901 
L 133.796774 261.213656 
" style="stroke:#000000;stroke-linejoin:miter;"/>
   </g>
   <g id="patch_14">
    <path clip-path="url(#pdda222a55b)" d="M 133.796774 261.213656 
L 136.337364 260.708301 
" style="fill:#10b981;stroke:#10b981;stroke-linejoin:miter;stroke-width:6;"/>
   </g>
   <g id="patch_15">
    <path clip-path="url(#pdda222a55b)" d="M 136.337364 260.708301 
L 138.766803 260.225055 
" style="stroke:#000000;stroke-linejoin:miter;"/>
   </g>
   <g id="patch_16">
    <path clip-path="url(#pdda222a55b)" d="M 138.766803 260.225055 
L 146.706147 258.645822 
" style="fill:#ef4444;stroke:#ef4444;stroke-linejoin:miter;stroke-width:6;"/>
   </g>
   <g id="patch_17">
    <path clip-path="url(#pdda222a55b)" d="M 146.706147 258.645822 
L 149.135586 258.162576 
" style="stroke:#000000;stroke-linejoin:miter;"/>
   </g>
   <g id="patch_18">
    <path clip-path="url(#pdda222a55b)" d="M 149.135586 258.162576 
L 151.676176 257.657221 
" style="fill:#10b981;stroke:#10b981;stroke-linejoin:miter;stroke-width:6;"/>
   </g>
   <g id="patch_19">
    <path clip-path="url(#pdda222a55b)" d="M 151.676176 257.657221 
L 240.78737 239.931903 
" style="stroke:#000000;stroke-linejoin:miter;"/>
   </g>
   <g id="patch_20">
    <path clip-path="url(#pdda222a55b)" d="M 240.78737 239.931903 
L 243.32796 239.426548 
" style="fill:#10b981;stroke:#10b981;stroke-linejoin:miter;stroke-width:6;"/>
   </g>
   <g id="patch_21">
    <path clip-path="url(#pdda222a55b)" d="M 243.32796 239.426548 
L 245.757399 238.943303 
" style="stroke:#000000;stroke-linejoin:miter;"/>
   </g>
   <g id="patch_22">
    <path clip-path="url(#pdda222a55b)" d="M 245.757399 238.943303 
L 253.696742 237.364069 
" style="fill:#ef4444;stroke:#ef4444;stroke-linejoin:miter;stroke-width:6;"/>
   </g>
   <g id="patch_23">
    <path clip-path="url(#pdda222a55b)" d="M 253.696742 237.364069 
L 256.126181 236.880824 
" style="stroke:#000000;stroke-linejoin:miter;"/>
   </g>
   <g id="patch_24">
    <path clip-path="url(#pdda222a55b)" d="M 256.126181 236.880824 
L 258.666771 236.375469 
" style="fill:#10b981;stroke:#10b981;stroke-linejoin:miter;stroke-width:6;"/>
   </g>
   <g id="patch_25">
    <path clip-path="url(#pdda222a55b)" d="M 258.666771 236.375469 
L 261.096211 235.892223 
" style="stroke:#000000;stroke-linejoin:miter;"/>
   </g>
   <g id="patch_26">
    <path clip-path="url(#pdda222a55b)" d="M 261.096211 235.892223 
L 265.065882 235.102606 
" style="fill:#ef4444;stroke:#ef4444;stroke-linejoin:miter;stroke-width:6;"/>
   </g>
   <g id="patch_27">
    <path clip-path="url(#pdda222a55b)" d="M 265.065882 235.102606 
L 271.734931 233.77605 
" style="stroke:#000000;stroke-linejoin:miter;"/>
   </g>
   <g id="patch_28">
    <path clip-path="url(#pdda222a55b)" d="M 271.734931 233.77605 
C 273.998098 233.325878 276.237799 232.764862 278.445944 232.095029 
C 280.654089 231.425196 282.828016 230.647352 284.959873 229.764308 
" style="fill:none;stroke:#fbbf24;stroke-linejoin:miter;stroke-width:6;"/>
   </g>
   <g id="patch_29">
    <path clip-path="url(#pdda222a55b)" d="M 284.959873 229.764308 
L 291.241979 227.162174 
" style="stroke:#000000;stroke-linejoin:miter;"/>
   </g>
   <g id="patch_30">
    <path clip-path="url(#pdda222a55b)" d="M 291.241979 227.162174 
L 294.233459 225.923063 
" style="fill:#ef4444;stroke:#ef4444;stroke-linejoin:miter;stroke-width:6;"/>
   </g>
   <g id="patch_31">
    <path clip-path="url(#pdda222a55b)" d="M 294.233459 225.923063 
L 298.825379 224.021027 
" style="stroke:#000000;stroke-linejoin:miter;"/>
   </g>
   <g id="patch_32">
    <path clip-path="url(#pdda222a55b)" d="M 298.825379 224.021027 
L 301.218563 223.029738 
" style="fill:#10b981;stroke:#10b981;stroke-linejoin:miter;stroke-width:6;"/>
   </g>
   <g id="patch_33">
    <path clip-path="url(#pdda222a55b)" d="M 301.218563 223.029738 
L 305.526293 221.245418 
" style="stroke:#000000;stroke-linejoin:miter;"/>
   </g>
   <g id="patch_34">
    <path clip-path="url(#pdda222a55b)" d="M 305.526293 221.245418 
L 309.265642 219.696529 
" style="fill:#ef4444;stroke:#ef4444;stroke-linejoin:miter;stroke-width:6;"/>
   </g>
   <g id="patch_35">
    <path clip-path="url(#pdda222a55b)" d="M 309.265642 219.696529 
L 311.658825 218.70524 
" style="stroke:#000000;stroke-linejoin:miter;"/>
   </g>
   <g id="patch_36">
    <path clip-path="url(#pdda222a55b)" d="M 311.658825 218.70524 
L 314.799879 217.404173 
" style="fill:#10b981;stroke:#10b981;stroke-linejoin:miter;stroke-width:6;"/>
   </g>
   <g id="patch_37">
    <path clip-path="url(#pdda222a55b)" d="M 314.799879 217.404173 
L 317.193062 216.412884 
" style="stroke:#000000;stroke-linejoin:miter;"/>
   </g>
   <g id="patch_38">
    <path clip-path="url(#pdda222a55b)" d="M 317.193062 216.412884 
L 320.932411 214.863995 
" style="fill:#ef4444;stroke:#ef4444;stroke-linejoin:miter;stroke-width:6;"/>
   </g>
   <g id="patch_39">
    <path clip-path="url(#pdda222a55b)" d="M 320.932411 214.863995 
L 325.240141 213.079674 
" style="stroke:#000000;stroke-linejoin:miter;"/>
   </g>
   <g id="patch_40">
    <path clip-path="url(#pdda222a55b)" d="M 325.240141 213.079674 
L 327.633325 212.088385 
" style="fill:#10b981;stroke:#10b981;stroke-linejoin:miter;stroke-width:6;"/>
   </g>
   <g id="patch_41">
    <path clip-path="url(#pdda222a55b)" d="M 327.633325 212.088385 
L 332.225245 210.18635 
" style="stroke:#000000;stroke-linejoin:miter;"/>
   </g>
   <g id="patch_42">
    <path clip-path="url(#pdda222a55b)" d="M 332.225245 210.18635 
L 335.216725 208.947238 
" style="fill:#ef4444;stroke:#ef4444;stroke-linejoin:miter;stroke-width:6;"/>
   </g>
   <g id="patch_43">
    <path clip-path="url(#pdda222a55b)" d="M 335.216725 208.947238 
L 341.498831 206.345105 
" style="stroke:#000000;stroke-linejoin:miter;"/>
   </g>
   <g id="patch_44">
    <path clip-path="url(#pdda222a55b)" d="M 341.498831 206.345105 
C 343.630688 205.462061 345.717905 204.47488 347.752943 203.38713 
C 349.787981 202.29938 351.768387 201.11237 353.687007 199.830389 
" style="fill:none;stroke:#fbbf24;stroke-linejoin:miter;stroke-width:6;"/>
   </g>
   <g id="patch_45">
    <path clip-path="url(#pdda222a55b)" d="M 353.687007 199.830389 
L 359.340754 196.052676 
" style="stroke:#000000;stroke-linejoin:miter;"/>
   </g>
   <g id="patch_46">
    <path clip-path="url(#pdda222a55b)" d="M 359.340754 196.052676 
L 362.706079 193.804038 
" style="fill:#ef4444;stroke:#ef4444;stroke-linejoin:miter;stroke-width:6;"/>
   </g>
   <g id="patch_47">
    <path clip-path="url(#pdda222a55b)" d="M 362.706079 193.804038 
L 364.765658 192.427871 
" style="stroke:#000000;stroke-linejoin:miter;"/>
   </g>
   <g id="patch_48">
    <path clip-path="url(#pdda222a55b)" d="M 364.765658 192.427871 
L 366.919466 190.988742 
" style="fill:#10b981;stroke:#10b981;stroke-linejoin:miter;stroke-width:6;"/>
   </g>
   <g id="patch_49">
    <path clip-path="url(#pdda222a55b)" d="M 366.919466 190.988742 
L 368.979045 189.612576 
" style="stroke:#000000;stroke-linejoin:miter;"/>
   </g>
   <g id="patch_50">
    <path clip-path="url(#pdda222a55b)" d="M 368.979045 189.612576 
L 375.709696 185.115299 
" style="fill:#ef4444;stroke:#ef4444;stroke-linejoin:miter;stroke-width:6;"/>
   </g>
   <g id="patch_51">
    <path clip-path="url(#pdda222a55b)" d="M 375.709696 185.115299 
L 377.769275 183.739132 
" style="stroke:#000000;stroke-linejoin:miter;"/>
   </g>
   <g id="patch_52">
    <path clip-path="url(#pdda222a55b)" d="M 377.769275 183.739132 
L 379.923083 182.300003 
" style="fill:#10b981;stroke:#10b981;stroke-linejoin:miter;stroke-width:6;"/>
   </g>
   <g id="patch_53">
    <path clip-path="url(#pdda222a55b)" d="M 379.923083 182.300003 
L 381.982662 180.923837 
" style="stroke:#000000;stroke-linejoin:miter;"/>
   </g>
   <g id="patch_54">
    <path clip-path="url(#pdda222a55b)" d="M 381.982662 180.923837 
L 384.674923 179.124926 
" style="fill:#ef4444;stroke:#ef4444;stroke-linejoin:miter;stroke-width:6;"/>
   </g>
   <g id="patch_55">
    <path clip-path="url(#pdda222a55b)" d="M 384.674923 179.124926 
L 450.716066 134.997645 
" style="stroke:#000000;stroke-linejoin:miter;"/>
   </g>
   <g id="patch_56">
    <path clip-path="url(#pdda222a55b)" d="M 450.716066 134.997645 
L 453.408326 133.198734 
" style="fill:#ef4444;stroke:#ef4444;stroke-linejoin:miter;stroke-width:6;"/>
   </g>
   <g id="patch_57">
    <path clip-path="url(#pdda222a55b)" d="M 453.408326 133.198734 
L 455.467905 131.822567 
" style="stroke:#000000;stroke-linejoin:miter;"/>
   </g>
   <g id="patch_58">
    <path clip-path="url(#pdda222a55b)" d="M 455.467905 131.822567 
L 457.621713 130.383438 
" style="fill:#10b981;stroke:#10b981;stroke-linejoin:miter;stroke-width:6;"/>
   </g>
   <g id="patch_59">
    <path clip-path="url(#pdda222a55b)" d="M 457.621713 130.383438 
L 459.681292 129.007272 
" style="stroke:#000000;stroke-linejoin:miter;"/>
   </g>
   <g id="patch_60">
    <path clip-path="url(#pdda222a55b)" d="M 459.681292 129.007272 
L 466.411943 124.509995 
" style="fill:#ef4444;stroke:#ef4444;stroke-linejoin:miter;stroke-width:6;"/>
   </g>
   <g id="patch_61">
    <path clip-path="url(#pdda222a55b)" d="M 466.411943 124.509995 
L 468.471522 123.133828 
" style="stroke:#000000;stroke-linejoin:miter;"/>
   </g>
   <g id="patch_62">
    <path clip-path="url(#pdda222a55b)" d="M 468.471522 123.133828 
L 470.62533 121.694699 
" style="fill:#10b981;stroke:#10b981;stroke-linejoin:miter;stroke-width:6;"/>
   </g>
   <g id="patch_63">
    <path clip-path="url(#pdda222a55b)" d="M 470.62533 121.694699 
L 472.684909 120.318533 
" style="stroke:#000000;stroke-linejoin:miter;"/>
   </g>
   <g id="patch_64">
    <path clip-path="url(#pdda222a55b)" d="M 472.684909 120.318533 
L 476.050235 118.069894 
" style="fill:#ef4444;stroke:#ef4444;stroke-linejoin:miter;stroke-width:6;"/>
   </g>
   <g id="patch_65">
    <path clip-path="url(#pdda222a55b)" d="M 476.050235 118.069894 
L 481.703981 114.292182 
" style="stroke:#000000;stroke-linejoin:miter;"/>
   </g>
   <g id="patch_66">
    <path clip-path="url(#pdda222a55b)" d="M 481.703981 114.292182 
C 483.622602 113.0102 485.477124 111.634793 487.26085 110.170927 
C 489.044575 108.707061 490.755354 107.156502 492.387007 105.524849 
" style="fill:none;stroke:#fbbf24;stroke-linejoin:miter;stroke-width:6;"/>
   </g>
   <g id="patch_67">
    <path clip-path="url(#pdda222a55b)" d="M 492.387007 105.524849 
L 497.195123 100.716733 
" style="stroke:#000000;stroke-linejoin:miter;"/>
   </g>
   <g id="patch_68">
    <path clip-path="url(#pdda222a55b)" d="M 497.195123 100.716733 
L 499.484702 98.427154 
" style="fill:#ef4444;stroke:#ef4444;stroke-linejoin:miter;stroke-width:6;"/>
   </g>
   <g id="patch_69">
    <path clip-path="url(#pdda222a55b)" d="M 499.484702 98.427154 
L 502.999206 94.91265 
" style="stroke:#000000;stroke-linejoin:miter;"/>
   </g>
   <g id="patch_70">
    <path clip-path="url(#pdda222a55b)" d="M 502.999206 94.91265 
L 504.830869 93.080987 
" style="fill:#10b981;stroke:#10b981;stroke-linejoin:miter;stroke-width:6;"/>
   </g>
   <g id="patch_71">
    <path clip-path="url(#pdda222a55b)" d="M 504.830869 93.080987 
L 508.127863 89.783993 
" style="stroke:#000000;stroke-linejoin:miter;"/>
   </g>
   <g id="patch_72">
    <path clip-path="url(#pdda222a55b)" d="M 508.127863 89.783993 
L 510.989837 86.922019 
" style="fill:#ef4444;stroke:#ef4444;stroke-linejoin:miter;stroke-width:6;"/>
   </g>
   <g id="patch_73">
    <path clip-path="url(#pdda222a55b)" d="M 510.989837 86.922019 
L 512.8215 85.090355 
" style="stroke:#000000;stroke-linejoin:miter;"/>
   </g>
   <g id="patch_74">
    <path clip-path="url(#pdda222a55b)" d="M 512.8215 85.090355 
L 514.023529 83.888326 
" style="fill:#10b981;stroke:#10b981;stroke-linejoin:miter;stroke-width:6;"/>
   </g>
   <g id="text_1">
    <!-- q1 -->
    <g transform="translate(79.468762 274.830996)scale(0.06 -0.06)">
     <defs>
      <path d="M 53.265625 -20.453125 
L 53.265625 54.546875 
L 45.171875 54.546875 
L 45.171875 45.875 
L 44.171875 45.875 
C 42.328125 48.71875 39.0625 55.25 28.40625 55.25 
C 14.625 55.25 5.109375 44.3125 5.109375 27.125 
C 5.109375 9.796875 14.625 -1.140625 28.265625 -1.140625 
C 38.78125 -1.140625 42.328125 5.390625 44.171875 8.375 
L 44.890625 8.375 
L 44.890625 -20.453125 
z
M 45.03125 27.265625 
C 45.03125 14.921875 39.484375 6.390625 29.40625 6.390625 
C 18.890625 6.390625 13.5 15.625 13.5 27.265625 
C 13.5 38.78125 18.75 47.734375 29.40625 47.734375 
C 39.625 47.734375 45.03125 39.484375 45.03125 27.265625 
z
" id="Inter-Regular-113"/>
      <path d="M 33.09375 72.734375 
L 24.296875 72.734375 
L 6.109375 60.65625 
L 6.109375 51.703125 
L 23.859375 63.5 
L 24.296875 63.5 
L 24.296875 0 
L 33.09375 0 
z
" id="Inter-Regular-49"/>
     </defs>
     <use xlink:href="#Inter-Regular-113"/>
     <use x="60.937515" xlink:href="#Inter-Regular-49"/>
    </g>
   </g>
   <g id="text_2">
    <!-- q2 -->
    <g transform="translate(94.912861 258.670758)scale(0.06 -0.06)">
     <defs>
      <path d="M 7.53125 0 
L 53.40625 0 
L 53.40625 7.8125 
L 19.609375 7.8125 
L 19.609375 8.375 
L 35.9375 25.859375 
C 48.4375 39.234375 52.125 45.484375 52.125 53.546875 
C 52.125 64.765625 43.046875 73.71875 30.25 73.71875 
C 17.515625 73.71875 7.8125 65.0625 7.8125 52.265625 
L 16.1875 52.265625 
C 16.1875 60.546875 21.5625 66.046875 29.96875 66.046875 
C 37.859375 66.046875 43.890625 61.21875 43.890625 53.546875 
C 43.890625 46.84375 39.953125 41.875 31.53125 32.671875 
L 7.53125 6.390625 
z
" id="Inter-Regular-50"/>
     </defs>
     <use xlink:href="#Inter-Regular-113"/>
     <use x="60.937515" xlink:href="#Inter-Regular-50"/>
    </g>
   </g>
   <g id="text_3">
    <!-- b -->
    <g transform="translate(112.782968 274.114717)scale(0.06 -0.06)">
     <defs>
      <path d="M 8.8125 0 
L 16.90625 0 
L 16.90625 8.375 
L 17.90625 8.375 
C 19.75 5.390625 23.296875 -1.140625 33.8125 -1.140625 
C 47.4375 -1.140625 56.96875 9.796875 56.96875 27.125 
C 56.96875 44.3125 47.4375 55.25 33.671875 55.25 
C 23.015625 55.25 19.75 48.71875 17.90625 45.875 
L 17.1875 45.875 
L 17.1875 72.734375 
L 8.8125 72.734375 
z
M 17.046875 27.265625 
C 17.046875 39.484375 22.4375 47.734375 32.671875 47.734375 
C 43.328125 47.734375 48.578125 38.78125 48.578125 27.265625 
C 48.578125 15.625 43.1875 6.390625 32.671875 6.390625 
C 22.59375 6.390625 17.046875 14.921875 17.046875 27.265625 
z
" id="Inter-Regular-98"/>
     </defs>
     <use xlink:href="#Inter-Regular-98"/>
    </g>
   </g>
   <g id="text_4">
    <!-- q3d -->
    <g transform="translate(122.203578 255.750334)scale(0.06 -0.06)">
     <defs>
      <path d="M 32.109375 -1 
C 46.203125 -1 56.671875 7.84375 56.671875 19.75 
C 56.671875 28.984375 51.203125 35.6875 42.046875 37.21875 
L 42.046875 37.78125 
C 49.390625 40.015625 53.984375 46.0625 53.984375 54.265625 
C 53.984375 64.5625 45.84375 73.71875 32.390625 73.71875 
C 19.8125 73.71875 9.375 65.984375 8.953125 54.546875 
L 17.46875 54.546875 
C 17.796875 61.796875 24.6875 66.046875 32.25 66.046875 
C 40.265625 66.046875 45.453125 61.1875 45.453125 53.828125 
C 45.453125 46.171875 39.453125 41.1875 30.828125 41.1875 
L 25 41.1875 
L 25 33.375 
L 30.828125 33.375 
C 41.875 33.375 48.015625 27.765625 48.015625 19.75 
C 48.015625 12.03125 41.296875 6.8125 31.96875 6.8125 
C 23.546875 6.8125 16.875 11.15625 16.34375 18.1875 
L 7.390625 18.1875 
C 7.921875 6.75 18 -1 32.109375 -1 
z
" id="Inter-Regular-51"/>
      <path d="M 28.265625 -1.140625 
C 38.78125 -1.140625 42.328125 5.390625 44.171875 8.375 
L 45.171875 8.375 
L 45.171875 0 
L 53.265625 0 
L 53.265625 72.734375 
L 44.890625 72.734375 
L 44.890625 45.875 
L 44.171875 45.875 
C 42.328125 48.71875 39.0625 55.25 28.40625 55.25 
C 14.625 55.25 5.109375 44.3125 5.109375 27.125 
C 5.109375 9.796875 14.625 -1.140625 28.265625 -1.140625 
z
M 29.40625 6.390625 
C 18.890625 6.390625 13.5 15.625 13.5 27.265625 
C 13.5 38.78125 18.75 47.734375 29.40625 47.734375 
C 39.625 47.734375 45.03125 39.484375 45.03125 27.265625 
C 45.03125 14.921875 39.484375 6.390625 29.40625 6.390625 
z
" id="Inter-Regular-100"/>
     </defs>
     <use xlink:href="#Inter-Regular-113"/>
     <use x="60.937515" xlink:href="#Inter-Regular-51"/>
     <use x="124.573898" xlink:href="#Inter-Regular-100"/>
    </g>
   </g>
   <g id="text_5">
    <!-- q4d -->
    <g transform="translate(138.699146 268.94322)scale(0.06 -0.06)">
     <defs>
      <path d="M 5.828125 14.921875 
L 40.0625 14.921875 
L 40.0625 0 
L 48.4375 0 
L 48.4375 14.921875 
L 58.375 14.921875 
L 58.375 22.734375 
L 48.4375 22.734375 
L 48.4375 72.734375 
L 37.78125 72.734375 
L 5.828125 22.15625 
z
M 15.34375 22.734375 
L 15.34375 23.296875 
L 39.484375 61.5 
L 40.0625 61.5 
L 40.0625 22.734375 
z
" id="Inter-Regular-52"/>
     </defs>
     <use xlink:href="#Inter-Regular-113"/>
     <use x="60.937515" xlink:href="#Inter-Regular-52"/>
     <use x="125.142075" xlink:href="#Inter-Regular-100"/>
    </g>
   </g>
   <g id="text_6">
    <!-- q4d -->
    <g transform="translate(242.531274 231.78278)scale(0.06 -0.06)">
     <use xlink:href="#Inter-Regular-113"/>
     <use x="60.937515" xlink:href="#Inter-Regular-52"/>
     <use x="125.142075" xlink:href="#Inter-Regular-100"/>
    </g>
   </g>
   <g id="text_7">
    <!-- q3d -->
    <g transform="translate(259.060593 245.034727)scale(0.06 -0.06)">
     <use xlink:href="#Inter-Regular-113"/>
     <use x="60.937515" xlink:href="#Inter-Regular-51"/>
     <use x="124.573898" xlink:href="#Inter-Regular-100"/>
    </g>
   </g>
   <g id="text_8">
    <!-- b -->
    <g transform="translate(274.135237 225.592295)scale(0.06 -0.06)">
     <use xlink:href="#Inter-Regular-98"/>
    </g>
   </g>
   <g id="text_9">
    <!-- q2 -->
    <g transform="translate(292.191903 235.619286)scale(0.06 -0.06)">
     <use xlink:href="#Inter-Regular-113"/>
     <use x="60.937515" xlink:href="#Inter-Regular-50"/>
    </g>
   </g>
   <g id="text_10">
    <!-- q1 -->
    <g transform="translate(301.07647 214.560713)scale(0.06 -0.06)">
     <use xlink:href="#Inter-Regular-113"/>
     <use x="60.937515" xlink:href="#Inter-Regular-49"/>
    </g>
   </g>
   <g id="text_11">
    <!-- q1 -->
    <g transform="translate(318.938796 224.685575)scale(0.06 -0.06)">
     <use xlink:href="#Inter-Regular-113"/>
     <use x="60.937515" xlink:href="#Inter-Regular-49"/>
    </g>
   </g>
   <g id="text_12">
    <!-- q2 -->
    <g transform="translate(326.979613 203.686064)scale(0.06 -0.06)">
     <use xlink:href="#Inter-Regular-113"/>
     <use x="60.937515" xlink:href="#Inter-Regular-50"/>
    </g>
   </g>
   <g id="text_13">
    <!-- b -->
    <g transform="translate(349.546478 211.795235)scale(0.06 -0.06)">
     <use xlink:href="#Inter-Regular-98"/>
    </g>
   </g>
   <g id="text_14">
    <!-- q3t -->
    <g transform="translate(351.698015 189.795675)scale(0.06 -0.06)">
     <defs>
      <path d="M 31.390625 54.546875 
L 19.75 54.546875 
L 19.75 67.609375 
L 11.359375 67.609375 
L 11.359375 54.546875 
L 3.125 54.546875 
L 3.125 47.4375 
L 11.359375 47.4375 
L 11.359375 13.359375 
C 11.359375 3.828125 19.03125 -0.703125 26.140625 -0.703125 
C 29.265625 -0.703125 31.25 -0.140625 32.390625 0.28125 
L 30.6875 7.8125 
C 29.96875 7.671875 28.84375 7.390625 26.984375 7.390625 
C 23.296875 7.390625 19.75 8.515625 19.75 15.625 
L 19.75 47.4375 
L 31.390625 47.4375 
z
" id="Inter-Regular-116"/>
     </defs>
     <use xlink:href="#Inter-Regular-113"/>
     <use x="60.937515" xlink:href="#Inter-Regular-51"/>
     <use x="124.573898" xlink:href="#Inter-Regular-116"/>
    </g>
   </g>
   <g id="text_15">
    <!-- q4t -->
    <g transform="translate(371.996648 195.663025)scale(0.06 -0.06)">
     <use xlink:href="#Inter-Regular-113"/>
     <use x="60.937515" xlink:href="#Inter-Regular-52"/>
     <use x="125.142075" xlink:href="#Inter-Regular-116"/>
    </g>
   </g>
   <g id="text_16">
    <!-- q5t -->
    <g transform="translate(374.088703 174.862168)scale(0.06 -0.06)">
     <defs>
      <path d="M 30.25 -1 
C 44.109375 -1 54.265625 9.234375 54.265625 23.15625 
C 54.265625 37.25 44.46875 47.578125 31.109375 47.578125 
C 26.203125 47.578125 21.453125 45.84375 18.46875 43.46875 
L 18.046875 43.46875 
L 20.59375 64.921875 
L 51 64.921875 
L 51 72.734375 
L 13.21875 72.734375 
L 8.8125 36.9375 
L 17.046875 35.9375 
C 20.0625 38.109375 25.21875 39.671875 29.6875 39.625 
C 38.953125 39.5625 45.734375 32.53125 45.734375 23.015625 
C 45.734375 13.671875 39.203125 6.8125 30.25 6.8125 
C 22.796875 6.8125 16.875 11.609375 16.1875 18.1875 
L 7.671875 18.1875 
C 8.203125 7.109375 17.75 -1 30.25 -1 
z
" id="Inter-Regular-53"/>
     </defs>
     <use xlink:href="#Inter-Regular-113"/>
     <use x="60.937515" xlink:href="#Inter-Regular-53"/>
     <use x="121.732986" xlink:href="#Inter-Regular-116"/>
    </g>
   </g>
   <g id="text_17">
    <!-- q5t -->
    <g transform="translate(451.81666 142.397277)scale(0.06 -0.06)">
     <use xlink:href="#Inter-Regular-113"/>
     <use x="60.937515" xlink:href="#Inter-Regular-53"/>
     <use x="121.732986" xlink:href="#Inter-Regular-116"/>
    </g>
   </g>
   <g id="text_18">
    <!-- q4t -->
    <g transform="translate(453.704341 121.59642)scale(0.06 -0.06)">
     <use xlink:href="#Inter-Regular-113"/>
     <use x="60.937515" xlink:href="#Inter-Regular-52"/>
     <use x="125.142075" xlink:href="#Inter-Regular-116"/>
    </g>
   </g>
   <g id="text_19">
    <!-- q3t -->
    <g transform="translate(474.036724 127.522833)scale(0.06 -0.06)">
     <use xlink:href="#Inter-Regular-113"/>
     <use x="60.937515" xlink:href="#Inter-Regular-51"/>
     <use x="124.573898" xlink:href="#Inter-Regular-116"/>
    </g>
   </g>
   <g id="text_20">
    <!-- b -->
    <g transform="translate(480.04781 105.219522)scale(0.06 -0.06)">
     <use xlink:href="#Inter-Regular-98"/>
    </g>
   </g>
   <g id="text_21">
    <!-- q2 -->
    <g transform="translate(500.420266 106.89386)scale(0.06 -0.06)">
     <use xlink:href="#Inter-Regular-113"/>
     <use x="60.937515" xlink:href="#Inter-Regular-50"/>
    </g>
   </g>
   <g id="text_22">
    <!-- q1 -->
    <g transform="translate(500.613184 84.197495)scale(0.06 -0.06)">
     <use xlink:href="#Inter-Regular-113"/>
     <use x="60.937515" xlink:href="#Inter-Regular-49"/>
    </g>
   </g>
  </g>
 </g>
 <defs>
  <clipPath id="pdda222a55b">
   <rect height="190.032288" width="446.4" x="72" y="79.511856"/>
  </clipPath>
 </defs>
</svg>
