<?xml version="1.0" encoding="utf-8" standalone="no"?>
<!DOCTYPE svg PUBLIC "-//W3C//DTD SVG 1.1//EN"
  "http://www.w3.org/Graphics/SVG/1.1/DTD/svg11.dtd">
<!-- Created with matplotlib (https://matplotlib.org/) -->
<svg height="345.6pt" version="1.1" viewBox="0 0 460.8 345.6" width="460.8pt" xmlns="http://www.w3.org/2000/svg" xmlns:xlink="http://www.w3.org/1999/xlink">
 <metadata>
  <rdf:RDF xmlns:cc="http://creativecommons.org/ns#" xmlns:dc="http://purl.org/dc/elements/1.1/" xmlns:rdf="http://www.w3.org/1999/02/22-rdf-syntax-ns#">
   <cc:Work>
    <dc:type rdf:resource="http://purl.org/dc/dcmitype/StillImage"/>
    <dc:date>2020-12-08T15:37:30.877695</dc:date>
    <dc:format>image/svg+xml</dc:format>
    <dc:creator>
     <cc:Agent>
      <dc:title>Matplotlib v3.3.3, https://matplotlib.org/</dc:title>
     </cc:Agent>
    </dc:creator>
   </cc:Work>
  </rdf:RDF>
 </metadata>
 <defs>
  <style type="text/css">*{stroke-linecap:butt;stroke-linejoin:round;}</style>
 </defs>
 <g id="figure_1">
  <g id="patch_1">
   <path d="M 0 345.6 
L 460.8 345.6 
L 460.8 0 
L 0 0 
z
" style="fill:#ffffff;"/>
  </g>
  <g id="axes_1">
   <g id="patch_2">
    <path clip-path="url(#pefd4925373)" d="M 73.832727 241.766158 
L 75.093763 241.766158 
" style="fill:#10b981;stroke:#10b981;stroke-linejoin:miter;stroke-width:3;"/>
   </g>
   <g id="patch_3">
    <path clip-path="url(#pefd4925373)" d="M 75.093763 241.766158 
L 77.015342 241.766158 
" style="stroke:#000000;stroke-linejoin:miter;stroke-width:0.5;"/>
   </g>
   <g id="patch_4">
    <path clip-path="url(#pefd4925373)" d="M 77.015342 241.766158 
L 80.017808 241.766158 
" style="fill:#ef4444;stroke:#ef4444;stroke-linejoin:miter;stroke-width:3;"/>
   </g>
   <g id="patch_5">
    <path clip-path="url(#pefd4925373)" d="M 80.017808 241.766158 
L 83.476649 241.766158 
" style="stroke:#000000;stroke-linejoin:miter;stroke-width:0.5;"/>
   </g>
   <g id="patch_6">
    <path clip-path="url(#pefd4925373)" d="M 83.476649 241.766158 
L 85.398227 241.766158 
" style="fill:#10b981;stroke:#10b981;stroke-linejoin:miter;stroke-width:3;"/>
   </g>
   <g id="patch_7">
    <path clip-path="url(#pefd4925373)" d="M 85.398227 241.766158 
L 89.085256 241.766158 
" style="stroke:#000000;stroke-linejoin:miter;stroke-width:0.5;"/>
   </g>
   <g id="patch_8">
    <path clip-path="url(#pefd4925373)" d="M 89.085256 241.766158 
L 91.487229 241.766158 
" style="fill:#ef4444;stroke:#ef4444;stroke-linejoin:miter;stroke-width:3;"/>
   </g>
   <g id="patch_9">
    <path clip-path="url(#pefd4925373)" d="M 91.487229 241.766158 
L 96.531372 241.766158 
" style="stroke:#000000;stroke-linejoin:miter;stroke-width:0.5;"/>
   </g>
   <g id="patch_10">
    <path clip-path="url(#pefd4925373)" d="M 96.531372 241.766158 
C 98.243122 241.766158 99.953839 241.682116 101.657346 241.514335 
C 103.360853 241.346554 105.055096 241.095237 106.733954 240.761291 
" style="fill:none;stroke:#fbbf24;stroke-linejoin:miter;stroke-width:3;"/>
   </g>
   <g id="patch_11">
    <path clip-path="url(#pefd4925373)" d="M 106.733954 240.761291 
L 111.681176 239.777228 
" style="stroke:#000000;stroke-linejoin:miter;stroke-width:0.5;"/>
   </g>
   <g id="patch_12">
    <path clip-path="url(#pefd4925373)" d="M 111.681176 239.777228 
L 114.62595 239.191476 
" style="fill:#ef4444;stroke:#ef4444;stroke-linejoin:miter;stroke-width:3;"/>
   </g>
   <g id="patch_13">
    <path clip-path="url(#pefd4925373)" d="M 114.62595 239.191476 
L 116.428153 238.832995 
" style="stroke:#000000;stroke-linejoin:miter;stroke-width:0.5;"/>
   </g>
   <g id="patch_14">
    <path clip-path="url(#pefd4925373)" d="M 116.428153 238.832995 
L 118.312808 238.458114 
" style="fill:#10b981;stroke:#10b981;stroke-linejoin:miter;stroke-width:3;"/>
   </g>
   <g id="patch_15">
    <path clip-path="url(#pefd4925373)" d="M 118.312808 238.458114 
L 120.115011 238.099634 
" style="stroke:#000000;stroke-linejoin:miter;stroke-width:0.5;"/>
   </g>
   <g id="patch_16">
    <path clip-path="url(#pefd4925373)" d="M 120.115011 238.099634 
L 126.00456 236.928129 
" style="fill:#ef4444;stroke:#ef4444;stroke-linejoin:miter;stroke-width:3;"/>
   </g>
   <g id="patch_17">
    <path clip-path="url(#pefd4925373)" d="M 126.00456 236.928129 
L 127.806762 236.569649 
" style="stroke:#000000;stroke-linejoin:miter;stroke-width:0.5;"/>
   </g>
   <g id="patch_18">
    <path clip-path="url(#pefd4925373)" d="M 127.806762 236.569649 
L 129.691418 236.194768 
" style="fill:#10b981;stroke:#10b981;stroke-linejoin:miter;stroke-width:3;"/>
   </g>
   <g id="patch_19">
    <path clip-path="url(#pefd4925373)" d="M 129.691418 236.194768 
L 162.74357 229.620286 
" style="stroke:#000000;stroke-linejoin:miter;stroke-width:0.5;"/>
   </g>
   <g id="patch_20">
    <path clip-path="url(#pefd4925373)" d="M 129.691418 236.194768 
L 195.795721 223.045804 
" style="stroke:#000000;stroke-linejoin:miter;stroke-width:0.5;"/>
   </g>
   <g id="patch_21">
    <path clip-path="url(#pefd4925373)" d="M 195.795721 223.045804 
L 197.680377 222.670923 
" style="fill:#10b981;stroke:#10b981;stroke-linejoin:miter;stroke-width:3;"/>
   </g>
   <g id="patch_22">
    <path clip-path="url(#pefd4925373)" d="M 197.680377 222.670923 
L 199.482579 222.312443 
" style="stroke:#000000;stroke-linejoin:miter;stroke-width:0.5;"/>
   </g>
   <g id="patch_23">
    <path clip-path="url(#pefd4925373)" d="M 199.482579 222.312443 
L 205.372129 221.140938 
" style="fill:#ef4444;stroke:#ef4444;stroke-linejoin:miter;stroke-width:3;"/>
   </g>
   <g id="patch_24">
    <path clip-path="url(#pefd4925373)" d="M 205.372129 221.140938 
L 207.174331 220.782458 
" style="stroke:#000000;stroke-linejoin:miter;stroke-width:0.5;"/>
   </g>
   <g id="patch_25">
    <path clip-path="url(#pefd4925373)" d="M 207.174331 220.782458 
L 209.058987 220.407577 
" style="fill:#10b981;stroke:#10b981;stroke-linejoin:miter;stroke-width:3;"/>
   </g>
   <g id="patch_26">
    <path clip-path="url(#pefd4925373)" d="M 209.058987 220.407577 
L 210.861189 220.049097 
" style="stroke:#000000;stroke-linejoin:miter;stroke-width:0.5;"/>
   </g>
   <g id="patch_27">
    <path clip-path="url(#pefd4925373)" d="M 210.861189 220.049097 
L 213.805964 219.463344 
" style="fill:#ef4444;stroke:#ef4444;stroke-linejoin:miter;stroke-width:3;"/>
   </g>
   <g id="patch_28">
    <path clip-path="url(#pefd4925373)" d="M 213.805964 219.463344 
L 218.753185 218.479281 
" style="stroke:#000000;stroke-linejoin:miter;stroke-width:0.5;"/>
   </g>
   <g id="patch_29">
    <path clip-path="url(#pefd4925373)" d="M 218.753185 218.479281 
C 220.432044 218.145335 222.093495 217.729163 223.731537 217.232269 
C 225.369579 216.735374 226.982237 216.158356 228.563688 215.503298 
" style="fill:none;stroke:#fbbf24;stroke-linejoin:miter;stroke-width:3;"/>
   </g>
   <g id="patch_30">
    <path clip-path="url(#pefd4925373)" d="M 228.563688 215.503298 
L 233.223868 213.572987 
" style="stroke:#000000;stroke-linejoin:miter;stroke-width:0.5;"/>
   </g>
   <g id="patch_31">
    <path clip-path="url(#pefd4925373)" d="M 233.223868 213.572987 
L 235.443002 212.653792 
" style="fill:#ef4444;stroke:#ef4444;stroke-linejoin:miter;stroke-width:3;"/>
   </g>
   <g id="patch_32">
    <path clip-path="url(#pefd4925373)" d="M 235.443002 212.653792 
L 238.849372 211.242827 
" style="stroke:#000000;stroke-linejoin:miter;stroke-width:0.5;"/>
   </g>
   <g id="patch_33">
    <path clip-path="url(#pefd4925373)" d="M 238.849372 211.242827 
L 240.624679 210.507471 
" style="fill:#10b981;stroke:#10b981;stroke-linejoin:miter;stroke-width:3;"/>
   </g>
   <g id="patch_34">
    <path clip-path="url(#pefd4925373)" d="M 240.624679 210.507471 
L 243.820232 209.18383 
" style="stroke:#000000;stroke-linejoin:miter;stroke-width:0.5;"/>
   </g>
   <g id="patch_35">
    <path clip-path="url(#pefd4925373)" d="M 243.820232 209.18383 
L 246.594149 208.034836 
" style="fill:#ef4444;stroke:#ef4444;stroke-linejoin:miter;stroke-width:3;"/>
   </g>
   <g id="patch_36">
    <path clip-path="url(#pefd4925373)" d="M 246.594149 208.034836 
L 248.369456 207.29948 
" style="stroke:#000000;stroke-linejoin:miter;stroke-width:0.5;"/>
   </g>
   <g id="patch_37">
    <path clip-path="url(#pefd4925373)" d="M 248.369456 207.29948 
L 249.534501 206.816902 
" style="fill:#10b981;stroke:#10b981;stroke-linejoin:miter;stroke-width:3;"/>
   </g>
   <g id="patch_38">
    <path clip-path="url(#pefd4925373)" d="M 248.369456 207.29948 
L 250.699546 206.334325 
" style="fill:#10b981;stroke:#10b981;stroke-linejoin:miter;stroke-width:3;"/>
   </g>
   <g id="patch_39">
    <path clip-path="url(#pefd4925373)" d="M 250.699546 206.334325 
L 252.474853 205.598968 
" style="stroke:#000000;stroke-linejoin:miter;stroke-width:0.5;"/>
   </g>
   <g id="patch_40">
    <path clip-path="url(#pefd4925373)" d="M 252.474853 205.598968 
L 255.24877 204.449974 
" style="fill:#ef4444;stroke:#ef4444;stroke-linejoin:miter;stroke-width:3;"/>
   </g>
   <g id="patch_41">
    <path clip-path="url(#pefd4925373)" d="M 255.24877 204.449974 
L 258.444323 203.126333 
" style="stroke:#000000;stroke-linejoin:miter;stroke-width:0.5;"/>
   </g>
   <g id="patch_42">
    <path clip-path="url(#pefd4925373)" d="M 258.444323 203.126333 
L 260.21963 202.390977 
" style="fill:#10b981;stroke:#10b981;stroke-linejoin:miter;stroke-width:3;"/>
   </g>
   <g id="patch_43">
    <path clip-path="url(#pefd4925373)" d="M 260.21963 202.390977 
L 263.626 200.980012 
" style="stroke:#000000;stroke-linejoin:miter;stroke-width:0.5;"/>
   </g>
   <g id="patch_44">
    <path clip-path="url(#pefd4925373)" d="M 263.626 200.980012 
L 265.845134 200.060817 
" style="fill:#ef4444;stroke:#ef4444;stroke-linejoin:miter;stroke-width:3;"/>
   </g>
   <g id="patch_45">
    <path clip-path="url(#pefd4925373)" d="M 265.845134 200.060817 
L 270.505315 198.130507 
" style="stroke:#000000;stroke-linejoin:miter;stroke-width:0.5;"/>
   </g>
   <g id="patch_46">
    <path clip-path="url(#pefd4925373)" d="M 270.505315 198.130507 
C 272.086765 197.475449 273.635101 196.74314 275.144729 195.936227 
C 276.654357 195.129314 278.123458 194.248769 279.546725 193.297772 
" style="fill:none;stroke:#fbbf24;stroke-linejoin:miter;stroke-width:3;"/>
   </g>
   <g id="patch_47">
    <path clip-path="url(#pefd4925373)" d="M 279.546725 193.297772 
L 283.740777 190.495396 
" style="stroke:#000000;stroke-linejoin:miter;stroke-width:0.5;"/>
   </g>
   <g id="patch_48">
    <path clip-path="url(#pefd4925373)" d="M 283.740777 190.495396 
L 286.237237 188.827315 
" style="fill:#ef4444;stroke:#ef4444;stroke-linejoin:miter;stroke-width:3;"/>
   </g>
   <g id="patch_49">
    <path clip-path="url(#pefd4925373)" d="M 286.237237 188.827315 
L 287.76507 187.80645 
" style="stroke:#000000;stroke-linejoin:miter;stroke-width:0.5;"/>
   </g>
   <g id="patch_50">
    <path clip-path="url(#pefd4925373)" d="M 287.76507 187.80645 
L 289.362804 186.738878 
" style="fill:#10b981;stroke:#10b981;stroke-linejoin:miter;stroke-width:3;"/>
   </g>
   <g id="patch_51">
    <path clip-path="url(#pefd4925373)" d="M 289.362804 186.738878 
L 290.890637 185.718012 
" style="stroke:#000000;stroke-linejoin:miter;stroke-width:0.5;"/>
   </g>
   <g id="patch_52">
    <path clip-path="url(#pefd4925373)" d="M 290.890637 185.718012 
L 295.883556 182.381851 
" style="fill:#ef4444;stroke:#ef4444;stroke-linejoin:miter;stroke-width:3;"/>
   </g>
   <g id="patch_53">
    <path clip-path="url(#pefd4925373)" d="M 295.883556 182.381851 
L 297.41139 181.360985 
" style="stroke:#000000;stroke-linejoin:miter;stroke-width:0.5;"/>
   </g>
   <g id="patch_54">
    <path clip-path="url(#pefd4925373)" d="M 297.41139 181.360985 
L 299.009124 180.293413 
" style="fill:#10b981;stroke:#10b981;stroke-linejoin:miter;stroke-width:3;"/>
   </g>
   <g id="patch_55">
    <path clip-path="url(#pefd4925373)" d="M 299.009124 180.293413 
L 300.536957 179.272548 
" style="stroke:#000000;stroke-linejoin:miter;stroke-width:0.5;"/>
   </g>
   <g id="patch_56">
    <path clip-path="url(#pefd4925373)" d="M 300.536957 179.272548 
L 302.534124 177.938083 
" style="fill:#ef4444;stroke:#ef4444;stroke-linejoin:miter;stroke-width:3;"/>
   </g>
   <g id="patch_57">
    <path clip-path="url(#pefd4925373)" d="M 302.534124 177.938083 
L 327.029385 161.570873 
" style="stroke:#000000;stroke-linejoin:miter;stroke-width:0.5;"/>
   </g>
   <g id="patch_58">
    <path clip-path="url(#pefd4925373)" d="M 302.534124 177.938083 
L 351.524645 145.203664 
" style="stroke:#000000;stroke-linejoin:miter;stroke-width:0.5;"/>
   </g>
   <g id="patch_59">
    <path clip-path="url(#pefd4925373)" d="M 351.524645 145.203664 
L 353.521813 143.869199 
" style="fill:#ef4444;stroke:#ef4444;stroke-linejoin:miter;stroke-width:3;"/>
   </g>
   <g id="patch_60">
    <path clip-path="url(#pefd4925373)" d="M 353.521813 143.869199 
L 355.049646 142.848333 
" style="stroke:#000000;stroke-linejoin:miter;stroke-width:0.5;"/>
   </g>
   <g id="patch_61">
    <path clip-path="url(#pefd4925373)" d="M 355.049646 142.848333 
L 356.64738 141.780762 
" style="fill:#10b981;stroke:#10b981;stroke-linejoin:miter;stroke-width:3;"/>
   </g>
   <g id="patch_62">
    <path clip-path="url(#pefd4925373)" d="M 356.64738 141.780762 
L 358.175213 140.759896 
" style="stroke:#000000;stroke-linejoin:miter;stroke-width:0.5;"/>
   </g>
   <g id="patch_63">
    <path clip-path="url(#pefd4925373)" d="M 358.175213 140.759896 
L 363.168132 137.423734 
" style="fill:#ef4444;stroke:#ef4444;stroke-linejoin:miter;stroke-width:3;"/>
   </g>
   <g id="patch_64">
    <path clip-path="url(#pefd4925373)" d="M 363.168132 137.423734 
L 364.695965 136.402869 
" style="stroke:#000000;stroke-linejoin:miter;stroke-width:0.5;"/>
   </g>
   <g id="patch_65">
    <path clip-path="url(#pefd4925373)" d="M 364.695965 136.402869 
L 366.2937 135.335297 
" style="fill:#10b981;stroke:#10b981;stroke-linejoin:miter;stroke-width:3;"/>
   </g>
   <g id="patch_66">
    <path clip-path="url(#pefd4925373)" d="M 366.2937 135.335297 
L 367.821533 134.314432 
" style="stroke:#000000;stroke-linejoin:miter;stroke-width:0.5;"/>
   </g>
   <g id="patch_67">
    <path clip-path="url(#pefd4925373)" d="M 367.821533 134.314432 
L 370.317992 132.646351 
" style="fill:#ef4444;stroke:#ef4444;stroke-linejoin:miter;stroke-width:3;"/>
   </g>
   <g id="patch_68">
    <path clip-path="url(#pefd4925373)" d="M 370.317992 132.646351 
L 374.512044 129.843975 
" style="stroke:#000000;stroke-linejoin:miter;stroke-width:0.5;"/>
   </g>
   <g id="patch_69">
    <path clip-path="url(#pefd4925373)" d="M 374.512044 129.843975 
C 375.935312 128.892978 377.31103 127.872675 378.63423 126.786753 
C 379.95743 125.700831 381.226517 124.550598 382.436907 123.340208 
" style="fill:none;stroke:#fbbf24;stroke-linejoin:miter;stroke-width:3;"/>
   </g>
   <g id="patch_70">
    <path clip-path="url(#pefd4925373)" d="M 382.436907 123.340208 
L 386.003655 119.77346 
" style="stroke:#000000;stroke-linejoin:miter;stroke-width:0.5;"/>
   </g>
   <g id="patch_71">
    <path clip-path="url(#pefd4925373)" d="M 386.003655 119.77346 
L 387.702106 118.075009 
" style="fill:#ef4444;stroke:#ef4444;stroke-linejoin:miter;stroke-width:3;"/>
   </g>
   <g id="patch_72">
    <path clip-path="url(#pefd4925373)" d="M 387.702106 118.075009 
L 390.309229 115.467886 
" style="stroke:#000000;stroke-linejoin:miter;stroke-width:0.5;"/>
   </g>
   <g id="patch_73">
    <path clip-path="url(#pefd4925373)" d="M 390.309229 115.467886 
L 391.66799 114.109125 
" style="fill:#10b981;stroke:#10b981;stroke-linejoin:miter;stroke-width:3;"/>
   </g>
   <g id="patch_74">
    <path clip-path="url(#pefd4925373)" d="M 391.66799 114.109125 
L 394.11376 111.663354 
" style="stroke:#000000;stroke-linejoin:miter;stroke-width:0.5;"/>
   </g>
   <g id="patch_75">
    <path clip-path="url(#pefd4925373)" d="M 394.11376 111.663354 
L 396.236825 109.54029 
" style="fill:#ef4444;stroke:#ef4444;stroke-linejoin:miter;stroke-width:3;"/>
   </g>
   <g id="patch_76">
    <path clip-path="url(#pefd4925373)" d="M 396.236825 109.54029 
L 397.595586 108.181529 
" style="stroke:#000000;stroke-linejoin:miter;stroke-width:0.5;"/>
   </g>
   <g id="patch_77">
    <path clip-path="url(#pefd4925373)" d="M 397.595586 108.181529 
L 398.487273 107.289842 
" style="fill:#10b981;stroke:#10b981;stroke-linejoin:miter;stroke-width:3;"/>
   </g>
   <g id="text_1">
    <!-- s1 -->
    <g transform="translate(71.501214 237.329663)scale(0.06 -0.06)">
     <defs>
      <path d="M 46.3125 42.328125 
C 43.6875 50.078125 37.78125 55.25 26.984375 55.25 
C 15.484375 55.25 6.96875 48.71875 6.96875 39.484375 
C 6.96875 31.953125 11.4375 26.921875 21.453125 24.578125 
L 30.546875 22.4375 
C 36.046875 21.171875 38.640625 18.53125 38.640625 14.765625 
C 38.640625 10.078125 33.671875 6.25 25.859375 6.25 
C 19 6.25 14.703125 9.203125 13.21875 15.0625 
L 5.25 13.0625 
C 7.203125 3.796875 14.84375 -1.140625 26 -1.140625 
C 38.671875 -1.140625 47.296875 5.78125 47.296875 15.203125 
C 47.296875 22.796875 42.546875 27.59375 32.8125 29.96875 
L 24.71875 31.953125 
C 18.25 33.5625 15.34375 35.71875 15.34375 39.921875 
C 15.34375 44.609375 20.3125 48.015625 26.984375 48.015625 
C 34.3125 48.015625 37.328125 43.96875 38.78125 40.203125 
z
" id="Inter-Regular-115"/>
      <path d="M 33.09375 72.734375 
L 24.296875 72.734375 
L 6.109375 60.65625 
L 6.109375 51.703125 
L 23.859375 63.5 
L 24.296875 63.5 
L 24.296875 0 
L 33.09375 0 
z
" id="Inter-Regular-49"/>
     </defs>
     <use xlink:href="#Inter-Regular-115"/>
     <use x="52.272736" xlink:href="#Inter-Regular-49"/>
    </g>
   </g>
   <g id="text_2">
    <!-- q1 -->
    <g transform="translate(75.294856 249.339528)scale(0.06 -0.06)">
     <defs>
      <path d="M 53.265625 -20.453125 
L 53.265625 54.546875 
L 45.171875 54.546875 
L 45.171875 45.875 
L 44.171875 45.875 
C 42.328125 48.71875 39.0625 55.25 28.40625 55.25 
C 14.625 55.25 5.109375 44.3125 5.109375 27.125 
C 5.109375 9.796875 14.625 -1.140625 28.265625 -1.140625 
C 38.78125 -1.140625 42.328125 5.390625 44.171875 8.375 
L 44.890625 8.375 
L 44.890625 -20.453125 
z
M 45.03125 27.265625 
C 45.03125 14.921875 39.484375 6.390625 29.40625 6.390625 
C 18.890625 6.390625 13.5 15.625 13.5 27.265625 
C 13.5 38.78125 18.75 47.734375 29.40625 47.734375 
C 39.625 47.734375 45.03125 39.484375 45.03125 27.265625 
z
" id="Inter-Regular-113"/>
     </defs>
     <use xlink:href="#Inter-Regular-113"/>
     <use x="60.937515" xlink:href="#Inter-Regular-49"/>
    </g>
   </g>
   <g id="text_3">
    <!-- s2 -->
    <g transform="translate(81.053532 237.329663)scale(0.06 -0.06)">
     <defs>
      <path d="M 7.53125 0 
L 53.40625 0 
L 53.40625 7.8125 
L 19.609375 7.8125 
L 19.609375 8.375 
L 35.9375 25.859375 
C 48.4375 39.234375 52.125 45.484375 52.125 53.546875 
C 52.125 64.765625 43.046875 73.71875 30.25 73.71875 
C 17.515625 73.71875 7.8125 65.0625 7.8125 52.265625 
L 16.1875 52.265625 
C 16.1875 60.546875 21.5625 66.046875 29.96875 66.046875 
C 37.859375 66.046875 43.890625 61.21875 43.890625 53.546875 
C 43.890625 46.84375 39.953125 41.875 31.53125 32.671875 
L 7.53125 6.390625 
z
" id="Inter-Regular-50"/>
     </defs>
     <use xlink:href="#Inter-Regular-115"/>
     <use x="52.272736" xlink:href="#Inter-Regular-50"/>
    </g>
   </g>
   <g id="text_4">
    <!-- q2 -->
    <g transform="translate(86.642649 249.369059)scale(0.06 -0.06)">
     <use xlink:href="#Inter-Regular-113"/>
     <use x="60.937515" xlink:href="#Inter-Regular-50"/>
    </g>
   </g>
   <g id="text_5">
    <!-- b -->
    <g transform="translate(99.181733 236.856145)scale(0.06 -0.06)">
     <defs>
      <path d="M 8.8125 0 
L 16.90625 0 
L 16.90625 8.375 
L 17.90625 8.375 
C 19.75 5.390625 23.296875 -1.140625 33.8125 -1.140625 
C 47.4375 -1.140625 56.96875 9.796875 56.96875 27.125 
C 56.96875 44.3125 47.4375 55.25 33.671875 55.25 
C 23.015625 55.25 19.75 48.71875 17.90625 45.875 
L 17.1875 45.875 
L 17.1875 72.734375 
L 8.8125 72.734375 
z
M 17.046875 27.265625 
C 17.046875 39.484375 22.4375 47.734375 32.671875 47.734375 
C 43.328125 47.734375 48.578125 38.78125 48.578125 27.265625 
C 48.578125 15.625 43.1875 6.390625 32.671875 6.390625 
C 22.59375 6.390625 17.046875 14.921875 17.046875 27.265625 
z
" id="Inter-Regular-98"/>
     </defs>
     <use xlink:href="#Inter-Regular-98"/>
    </g>
   </g>
   <g id="text_6">
    <!-- q3d -->
    <g transform="translate(108.72538 246.97187)scale(0.06 -0.06)">
     <defs>
      <path d="M 32.109375 -1 
C 46.203125 -1 56.671875 7.84375 56.671875 19.75 
C 56.671875 28.984375 51.203125 35.6875 42.046875 37.21875 
L 42.046875 37.78125 
C 49.390625 40.015625 53.984375 46.0625 53.984375 54.265625 
C 53.984375 64.5625 45.84375 73.71875 32.390625 73.71875 
C 19.8125 73.71875 9.375 65.984375 8.953125 54.546875 
L 17.46875 54.546875 
C 17.796875 61.796875 24.6875 66.046875 32.25 66.046875 
C 40.265625 66.046875 45.453125 61.1875 45.453125 53.828125 
C 45.453125 46.171875 39.453125 41.1875 30.828125 41.1875 
L 25 41.1875 
L 25 33.375 
L 30.828125 33.375 
C 41.875 33.375 48.015625 27.765625 48.015625 19.75 
C 48.015625 12.03125 41.296875 6.8125 31.96875 6.8125 
C 23.546875 6.8125 16.875 11.15625 16.34375 18.1875 
L 7.390625 18.1875 
C 7.921875 6.75 18 -1 32.109375 -1 
z
" id="Inter-Regular-51"/>
      <path d="M 28.265625 -1.140625 
C 38.78125 -1.140625 42.328125 5.390625 44.171875 8.375 
L 45.171875 8.375 
L 45.171875 0 
L 53.265625 0 
L 53.265625 72.734375 
L 44.890625 72.734375 
L 44.890625 45.875 
L 44.171875 45.875 
C 42.328125 48.71875 39.0625 55.25 28.40625 55.25 
C 14.625 55.25 5.109375 44.3125 5.109375 27.125 
C 5.109375 9.796875 14.625 -1.140625 28.265625 -1.140625 
z
M 29.40625 6.390625 
C 18.890625 6.390625 13.5 15.625 13.5 27.265625 
C 13.5 38.78125 18.75 47.734375 29.40625 47.734375 
C 39.625 47.734375 45.03125 39.484375 45.03125 27.265625 
C 45.03125 14.921875 39.484375 6.390625 29.40625 6.390625 
z
" id="Inter-Regular-100"/>
     </defs>
     <use xlink:href="#Inter-Regular-113"/>
     <use x="60.937515" xlink:href="#Inter-Regular-51"/>
     <use x="124.573898" xlink:href="#Inter-Regular-100"/>
    </g>
   </g>
   <g id="text_7">
    <!-- s3d -->
    <g transform="translate(110.858976 234.324443)scale(0.06 -0.06)">
     <use xlink:href="#Inter-Regular-115"/>
     <use x="52.272736" xlink:href="#Inter-Regular-51"/>
     <use x="115.909119" xlink:href="#Inter-Regular-100"/>
    </g>
   </g>
   <g id="text_8">
    <!-- q4d -->
    <g transform="translate(118.614727 244.971869)scale(0.06 -0.06)">
     <defs>
      <path d="M 5.828125 14.921875 
L 40.0625 14.921875 
L 40.0625 0 
L 48.4375 0 
L 48.4375 14.921875 
L 58.375 14.921875 
L 58.375 22.734375 
L 48.4375 22.734375 
L 48.4375 72.734375 
L 37.78125 72.734375 
L 5.828125 22.15625 
z
M 15.34375 22.734375 
L 15.34375 23.296875 
L 39.484375 61.5 
L 40.0625 61.5 
L 40.0625 22.734375 
z
" id="Inter-Regular-52"/>
     </defs>
     <use xlink:href="#Inter-Regular-113"/>
     <use x="60.937515" xlink:href="#Inter-Regular-52"/>
     <use x="125.142075" xlink:href="#Inter-Regular-100"/>
    </g>
   </g>
   <g id="text_9">
    <!-- s4d -->
    <g transform="translate(122.220711 232.061097)scale(0.06 -0.06)">
     <use xlink:href="#Inter-Regular-115"/>
     <use x="52.272736" xlink:href="#Inter-Regular-52"/>
     <use x="116.477295" xlink:href="#Inter-Regular-100"/>
    </g>
   </g>
   <g id="text_10">
    <!-- s4d -->
    <g transform="translate(190.20967 218.537252)scale(0.06 -0.06)">
     <use xlink:href="#Inter-Regular-115"/>
     <use x="52.272736" xlink:href="#Inter-Regular-52"/>
     <use x="116.477295" xlink:href="#Inter-Regular-100"/>
    </g>
   </g>
   <g id="text_11">
    <!-- q4d -->
    <g transform="translate(197.982296 229.184678)scale(0.06 -0.06)">
     <use xlink:href="#Inter-Regular-113"/>
     <use x="60.937515" xlink:href="#Inter-Regular-52"/>
     <use x="125.142075" xlink:href="#Inter-Regular-100"/>
    </g>
   </g>
   <g id="text_12">
    <!-- s3d -->
    <g transform="translate(201.605155 216.273906)scale(0.06 -0.06)">
     <use xlink:href="#Inter-Regular-115"/>
     <use x="52.272736" xlink:href="#Inter-Regular-51"/>
     <use x="115.909119" xlink:href="#Inter-Regular-100"/>
    </g>
   </g>
   <g id="text_13">
    <!-- q3d -->
    <g transform="translate(207.905393 227.243739)scale(0.06 -0.06)">
     <use xlink:href="#Inter-Regular-113"/>
     <use x="60.937515" xlink:href="#Inter-Regular-51"/>
     <use x="124.573898" xlink:href="#Inter-Regular-100"/>
    </g>
   </g>
   <g id="text_14">
    <!-- b -->
    <g transform="translate(220.052953 212.813365)scale(0.06 -0.06)">
     <use xlink:href="#Inter-Regular-98"/>
    </g>
   </g>
   <g id="text_15">
    <!-- q2 -->
    <g transform="translate(232.98783 220.259193)scale(0.06 -0.06)">
     <use xlink:href="#Inter-Regular-113"/>
     <use x="60.937515" xlink:href="#Inter-Regular-50"/>
    </g>
   </g>
   <g id="text_16">
    <!-- s2 -->
    <g transform="translate(234.055131 206.895752)scale(0.06 -0.06)">
     <use xlink:href="#Inter-Regular-115"/>
     <use x="52.272736" xlink:href="#Inter-Regular-50"/>
    </g>
   </g>
   <g id="text_17">
    <!-- q1 -->
    <g transform="translate(244.28346 215.725605)scale(0.06 -0.06)">
     <use xlink:href="#Inter-Regular-113"/>
     <use x="60.937515" xlink:href="#Inter-Regular-49"/>
    </g>
   </g>
   <g id="text_18">
    <!-- s1 -->
    <g transform="translate(244.274482 202.837505)scale(0.06 -0.06)">
     <use xlink:href="#Inter-Regular-115"/>
     <use x="52.272736" xlink:href="#Inter-Regular-49"/>
    </g>
   </g>
   <g id="text_19">
    <!-- q1 -->
    <g transform="translate(252.938081 212.140743)scale(0.06 -0.06)">
     <use xlink:href="#Inter-Regular-113"/>
     <use x="60.937515" xlink:href="#Inter-Regular-49"/>
    </g>
   </g>
   <g id="text_20">
    <!-- s2 -->
    <g transform="translate(253.650082 198.779258)scale(0.06 -0.06)">
     <use xlink:href="#Inter-Regular-115"/>
     <use x="52.272736" xlink:href="#Inter-Regular-50"/>
    </g>
   </g>
   <g id="text_21">
    <!-- q2 -->
    <g transform="translate(263.389962 207.666217)scale(0.06 -0.06)">
     <use xlink:href="#Inter-Regular-113"/>
     <use x="60.937515" xlink:href="#Inter-Regular-50"/>
    </g>
   </g>
   <g id="text_22">
    <!-- b -->
    <g transform="translate(270.332971 191.986699)scale(0.06 -0.06)">
     <use xlink:href="#Inter-Regular-98"/>
    </g>
   </g>
   <g id="text_23">
    <!-- q3t -->
    <g transform="translate(283.497044 196.252243)scale(0.06 -0.06)">
     <defs>
      <path d="M 31.390625 54.546875 
L 19.75 54.546875 
L 19.75 67.609375 
L 11.359375 67.609375 
L 11.359375 54.546875 
L 3.125 54.546875 
L 3.125 47.4375 
L 11.359375 47.4375 
L 11.359375 13.359375 
C 11.359375 3.828125 19.03125 -0.703125 26.140625 -0.703125 
C 29.265625 -0.703125 31.25 -0.140625 32.390625 0.28125 
L 30.6875 7.8125 
C 29.96875 7.671875 28.84375 7.390625 26.984375 7.390625 
C 23.296875 7.390625 19.75 8.515625 19.75 15.625 
L 19.75 47.4375 
L 31.390625 47.4375 
z
" id="Inter-Regular-116"/>
     </defs>
     <use xlink:href="#Inter-Regular-113"/>
     <use x="60.937515" xlink:href="#Inter-Regular-51"/>
     <use x="124.573898" xlink:href="#Inter-Regular-116"/>
    </g>
   </g>
   <g id="text_24">
    <!-- s3t -->
    <g transform="translate(280.659338 183.848182)scale(0.06 -0.06)">
     <use xlink:href="#Inter-Regular-115"/>
     <use x="52.272736" xlink:href="#Inter-Regular-51"/>
     <use x="115.909119" xlink:href="#Inter-Regular-116"/>
    </g>
   </g>
   <g id="text_25">
    <!-- q4t -->
    <g transform="translate(291.878259 190.611288)scale(0.06 -0.06)">
     <use xlink:href="#Inter-Regular-113"/>
     <use x="60.937515" xlink:href="#Inter-Regular-52"/>
     <use x="125.142075" xlink:href="#Inter-Regular-116"/>
    </g>
   </g>
   <g id="text_26">
    <!-- s4t -->
    <g transform="translate(290.288782 177.402718)scale(0.06 -0.06)">
     <use xlink:href="#Inter-Regular-115"/>
     <use x="52.272736" xlink:href="#Inter-Regular-52"/>
     <use x="116.477295" xlink:href="#Inter-Regular-116"/>
    </g>
   </g>
   <g id="text_27">
    <!-- q5t -->
    <g transform="translate(300.12889 185.166672)scale(0.06 -0.06)">
     <defs>
      <path d="M 30.25 -1 
C 44.109375 -1 54.265625 9.234375 54.265625 23.15625 
C 54.265625 37.25 44.46875 47.578125 31.109375 47.578125 
C 26.203125 47.578125 21.453125 45.84375 18.46875 43.46875 
L 18.046875 43.46875 
L 20.59375 64.921875 
L 51 64.921875 
L 51 72.734375 
L 13.21875 72.734375 
L 8.8125 36.9375 
L 17.046875 35.9375 
C 20.0625 38.109375 25.21875 39.671875 29.6875 39.625 
C 38.953125 39.5625 45.734375 32.53125 45.734375 23.015625 
C 45.734375 13.671875 39.203125 6.8125 30.25 6.8125 
C 22.796875 6.8125 16.875 11.609375 16.1875 18.1875 
L 7.671875 18.1875 
C 8.203125 7.109375 17.75 -1 30.25 -1 
z
" id="Inter-Regular-53"/>
     </defs>
     <use xlink:href="#Inter-Regular-113"/>
     <use x="60.937515" xlink:href="#Inter-Regular-53"/>
     <use x="121.732986" xlink:href="#Inter-Regular-116"/>
    </g>
   </g>
   <g id="text_28">
    <!-- q5t -->
    <g transform="translate(351.116578 151.097788)scale(0.06 -0.06)">
     <use xlink:href="#Inter-Regular-113"/>
     <use x="60.937515" xlink:href="#Inter-Regular-53"/>
     <use x="121.732986" xlink:href="#Inter-Regular-116"/>
    </g>
   </g>
   <g id="text_29">
    <!-- s4t -->
    <g transform="translate(347.927039 138.890066)scale(0.06 -0.06)">
     <use xlink:href="#Inter-Regular-115"/>
     <use x="52.272736" xlink:href="#Inter-Regular-52"/>
     <use x="116.477295" xlink:href="#Inter-Regular-116"/>
    </g>
   </g>
   <g id="text_30">
    <!-- q4t -->
    <g transform="translate(359.162835 145.653172)scale(0.06 -0.06)">
     <use xlink:href="#Inter-Regular-113"/>
     <use x="60.937515" xlink:href="#Inter-Regular-52"/>
     <use x="125.142075" xlink:href="#Inter-Regular-116"/>
    </g>
   </g>
   <g id="text_31">
    <!-- s3t -->
    <g transform="translate(357.590233 132.444601)scale(0.06 -0.06)">
     <use xlink:href="#Inter-Regular-115"/>
     <use x="52.272736" xlink:href="#Inter-Regular-51"/>
     <use x="115.909119" xlink:href="#Inter-Regular-116"/>
    </g>
   </g>
   <g id="text_32">
    <!-- q3t -->
    <g transform="translate(367.577799 140.071279)scale(0.06 -0.06)">
     <use xlink:href="#Inter-Regular-113"/>
     <use x="60.937515" xlink:href="#Inter-Regular-51"/>
     <use x="124.573898" xlink:href="#Inter-Regular-116"/>
    </g>
   </g>
   <g id="text_33">
    <!-- b -->
    <g transform="translate(372.802643 123.518653)scale(0.06 -0.06)">
     <use xlink:href="#Inter-Regular-98"/>
    </g>
   </g>
   <g id="text_34">
    <!-- q2 -->
    <g transform="translate(387.455415 124.768332)scale(0.06 -0.06)">
     <use xlink:href="#Inter-Regular-113"/>
     <use x="60.937515" xlink:href="#Inter-Regular-50"/>
    </g>
   </g>
   <g id="text_35">
    <!-- s2 -->
    <g transform="translate(383.358575 112.110814)scale(0.06 -0.06)">
     <use xlink:href="#Inter-Regular-115"/>
     <use x="52.272736" xlink:href="#Inter-Regular-50"/>
    </g>
   </g>
   <g id="text_36">
    <!-- q1 -->
    <g transform="translate(396.199702 116.416388)scale(0.06 -0.06)">
     <use xlink:href="#Inter-Regular-113"/>
     <use x="60.937515" xlink:href="#Inter-Regular-49"/>
    </g>
   </g>
  </g>
 </g>
 <defs>
  <clipPath id="pefd4925373">
   <rect height="166.94177" width="357.12" x="57.6" y="91.057115"/>
  </clipPath>
 </defs>
</svg>
