<?xml version="1.0" encoding="utf-8" standalone="no"?>
<!DOCTYPE svg PUBLIC "-//W3C//DTD SVG 1.1//EN"
  "http://www.w3.org/Graphics/SVG/1.1/DTD/svg11.dtd">
<!-- Created with matplotlib (https://matplotlib.org/) -->
<svg height="360pt" version="1.1" viewBox="0 0 576 360" width="576pt" xmlns="http://www.w3.org/2000/svg" xmlns:xlink="http://www.w3.org/1999/xlink">
 <metadata>
  <rdf:RDF xmlns:cc="http://creativecommons.org/ns#" xmlns:dc="http://purl.org/dc/elements/1.1/" xmlns:rdf="http://www.w3.org/1999/02/22-rdf-syntax-ns#">
   <cc:Work>
    <dc:type rdf:resource="http://purl.org/dc/dcmitype/StillImage"/>
    <dc:date>2020-12-08T15:37:30.352397</dc:date>
    <dc:format>image/svg+xml</dc:format>
    <dc:creator>
     <cc:Agent>
      <dc:title>Matplotlib v3.3.3, https://matplotlib.org/</dc:title>
     </cc:Agent>
    </dc:creator>
   </cc:Work>
  </rdf:RDF>
 </metadata>
 <defs>
  <style type="text/css">*{stroke-linecap:butt;stroke-linejoin:round;}</style>
 </defs>
 <g id="figure_1">
  <g id="patch_1">
   <path d="M 0 360 
L 576 360 
L 576 0 
L 0 0 
z
" style="fill:#ffffff;"/>
  </g>
  <g id="axes_1">
   <g id="patch_2">
    <path d="M 30.13 315.88 
L 558.9 315.88 
L 558.9 17.73 
L 30.13 17.73 
z
" style="fill:#ffffff;"/>
   </g>
   <g id="matplotlib.axis_1">
    <g id="xtick_1">
     <g id="line2d_1">
      <defs>
       <path d="M 0 0 
L 0 3.5 
" id="m753bac5905" style="stroke:#000000;stroke-width:0.8;"/>
      </defs>
      <g>
       <use style="stroke:#000000;stroke-width:0.8;" x="30.13" xlink:href="#m753bac5905" y="315.88"/>
      </g>
     </g>
     <g id="text_1">
      <!-- 0 -->
      <g transform="translate(27.005 330.153437)scale(0.1 -0.1)">
       <defs>
        <path d="M 31.25 -1 
C 47.296875 -1 56.53125 12.609375 56.53125 36.359375 
C 56.53125 59.9375 47.15625 73.71875 31.25 73.71875 
C 15.34375 73.71875 5.96875 59.9375 5.96875 36.359375 
C 5.96875 12.609375 15.203125 -1 31.25 -1 
z
M 31.25 6.8125 
C 20.671875 6.8125 14.484375 17.4375 14.484375 36.359375 
C 14.484375 55.25 20.734375 66.046875 31.25 66.046875 
C 41.765625 66.046875 48.015625 55.25 48.015625 36.359375 
C 48.015625 17.4375 41.828125 6.8125 31.25 6.8125 
z
" id="Inter-Regular-48"/>
       </defs>
       <use xlink:href="#Inter-Regular-48"/>
      </g>
     </g>
    </g>
    <g id="xtick_2">
     <g id="line2d_2">
      <g>
       <use style="stroke:#000000;stroke-width:0.8;" x="118.258333" xlink:href="#m753bac5905" y="315.88"/>
      </g>
     </g>
     <g id="text_2">
      <!-- 5 -->
      <g transform="translate(115.21849 330.153437)scale(0.1 -0.1)">
       <defs>
        <path d="M 30.25 -1 
C 44.109375 -1 54.265625 9.234375 54.265625 23.15625 
C 54.265625 37.25 44.46875 47.578125 31.109375 47.578125 
C 26.203125 47.578125 21.453125 45.84375 18.46875 43.46875 
L 18.046875 43.46875 
L 20.59375 64.921875 
L 51 64.921875 
L 51 72.734375 
L 13.21875 72.734375 
L 8.8125 36.9375 
L 17.046875 35.9375 
C 20.0625 38.109375 25.21875 39.671875 29.6875 39.625 
C 38.953125 39.5625 45.734375 32.53125 45.734375 23.015625 
C 45.734375 13.671875 39.203125 6.8125 30.25 6.8125 
C 22.796875 6.8125 16.875 11.609375 16.1875 18.1875 
L 7.671875 18.1875 
C 8.203125 7.109375 17.75 -1 30.25 -1 
z
" id="Inter-Regular-53"/>
       </defs>
       <use xlink:href="#Inter-Regular-53"/>
      </g>
     </g>
    </g>
    <g id="xtick_3">
     <g id="line2d_3">
      <g>
       <use style="stroke:#000000;stroke-width:0.8;" x="206.386667" xlink:href="#m753bac5905" y="315.88"/>
      </g>
     </g>
     <g id="text_3">
      <!-- 10 -->
      <g transform="translate(200.93901 330.153437)scale(0.1 -0.1)">
       <defs>
        <path d="M 33.09375 72.734375 
L 24.296875 72.734375 
L 6.109375 60.65625 
L 6.109375 51.703125 
L 23.859375 63.5 
L 24.296875 63.5 
L 24.296875 0 
L 33.09375 0 
z
" id="Inter-Regular-49"/>
       </defs>
       <use xlink:href="#Inter-Regular-49"/>
       <use x="46.448868" xlink:href="#Inter-Regular-48"/>
      </g>
     </g>
    </g>
    <g id="xtick_4">
     <g id="line2d_4">
      <g>
       <use style="stroke:#000000;stroke-width:0.8;" x="294.515" xlink:href="#m753bac5905" y="315.88"/>
      </g>
     </g>
     <g id="text_4">
      <!-- 15 -->
      <g transform="translate(289.1525 330.153437)scale(0.1 -0.1)">
       <use xlink:href="#Inter-Regular-49"/>
       <use x="46.448868" xlink:href="#Inter-Regular-53"/>
      </g>
     </g>
    </g>
    <g id="xtick_5">
     <g id="line2d_5">
      <g>
       <use style="stroke:#000000;stroke-width:0.8;" x="382.643333" xlink:href="#m753bac5905" y="315.88"/>
      </g>
     </g>
     <g id="text_5">
      <!-- 20 -->
      <g transform="translate(376.492552 330.153437)scale(0.1 -0.1)">
       <defs>
        <path d="M 7.53125 0 
L 53.40625 0 
L 53.40625 7.8125 
L 19.609375 7.8125 
L 19.609375 8.375 
L 35.9375 25.859375 
C 48.4375 39.234375 52.125 45.484375 52.125 53.546875 
C 52.125 64.765625 43.046875 73.71875 30.25 73.71875 
C 17.515625 73.71875 7.8125 65.0625 7.8125 52.265625 
L 16.1875 52.265625 
C 16.1875 60.546875 21.5625 66.046875 29.96875 66.046875 
C 37.859375 66.046875 43.890625 61.21875 43.890625 53.546875 
C 43.890625 46.84375 39.953125 41.875 31.53125 32.671875 
L 7.53125 6.390625 
z
" id="Inter-Regular-50"/>
       </defs>
       <use xlink:href="#Inter-Regular-50"/>
       <use x="60.511383" xlink:href="#Inter-Regular-48"/>
      </g>
     </g>
    </g>
    <g id="xtick_6">
     <g id="line2d_6">
      <g>
       <use style="stroke:#000000;stroke-width:0.8;" x="470.771667" xlink:href="#m753bac5905" y="315.88"/>
      </g>
     </g>
     <g id="text_6">
      <!-- 25 -->
      <g transform="translate(464.706042 330.153437)scale(0.1 -0.1)">
       <use xlink:href="#Inter-Regular-50"/>
       <use x="60.511383" xlink:href="#Inter-Regular-53"/>
      </g>
     </g>
    </g>
    <g id="xtick_7">
     <g id="line2d_7">
      <g>
       <use style="stroke:#000000;stroke-width:0.8;" x="558.9" xlink:href="#m753bac5905" y="315.88"/>
      </g>
     </g>
     <g id="text_7">
      <!-- 30 -->
      <g transform="translate(552.592969 330.153437)scale(0.1 -0.1)">
       <defs>
        <path d="M 32.109375 -1 
C 46.203125 -1 56.671875 7.84375 56.671875 19.75 
C 56.671875 28.984375 51.203125 35.6875 42.046875 37.21875 
L 42.046875 37.78125 
C 49.390625 40.015625 53.984375 46.0625 53.984375 54.265625 
C 53.984375 64.5625 45.84375 73.71875 32.390625 73.71875 
C 19.8125 73.71875 9.375 65.984375 8.953125 54.546875 
L 17.46875 54.546875 
C 17.796875 61.796875 24.6875 66.046875 32.25 66.046875 
C 40.265625 66.046875 45.453125 61.1875 45.453125 53.828125 
C 45.453125 46.171875 39.453125 41.1875 30.828125 41.1875 
L 25 41.1875 
L 25 33.375 
L 30.828125 33.375 
C 41.875 33.375 48.015625 27.765625 48.015625 19.75 
C 48.015625 12.03125 41.296875 6.8125 31.96875 6.8125 
C 23.546875 6.8125 16.875 11.15625 16.34375 18.1875 
L 7.390625 18.1875 
C 7.921875 6.75 18 -1 32.109375 -1 
z
" id="Inter-Regular-51"/>
       </defs>
       <use xlink:href="#Inter-Regular-51"/>
       <use x="63.636383" xlink:href="#Inter-Regular-48"/>
      </g>
     </g>
    </g>
    <g id="text_8">
     <!-- Orbit Position $s$ / m -->
     <g transform="translate(249.465 343.472188)scale(0.1 -0.1)">
      <defs>
       <path d="M 70.171875 36.359375 
C 70.171875 59.375 56.671875 73.71875 38.0625 73.71875 
C 19.46875 73.71875 5.96875 59.375 5.96875 36.359375 
C 5.96875 13.359375 19.46875 -1 38.0625 -1 
C 56.671875 -1 70.171875 13.359375 70.171875 36.359375 
z
M 61.65625 36.359375 
C 61.65625 17.46875 51.28125 7.25 38.0625 7.25 
C 24.859375 7.25 14.484375 17.46875 14.484375 36.359375 
C 14.484375 55.25 24.859375 65.484375 38.0625 65.484375 
C 51.28125 65.484375 61.65625 55.25 61.65625 36.359375 
z
" id="Inter-Regular-79"/>
       <path d="M 7.671875 0 
L 16.046875 0 
L 16.046875 34.515625 
C 16.046875 41.90625 21.875 47.296875 29.828125 47.296875 
C 32.0625 47.296875 34.375 46.875 34.9375 46.734375 
L 34.9375 55.25 
C 33.984375 55.328125 31.78125 55.390625 30.546875 55.390625 
C 24 55.390625 18.328125 51.703125 16.34375 46.3125 
L 15.765625 46.3125 
L 15.765625 54.546875 
L 7.671875 54.546875 
z
" id="Inter-Regular-114"/>
       <path d="M 8.8125 0 
L 16.90625 0 
L 16.90625 8.375 
L 17.90625 8.375 
C 19.75 5.390625 23.296875 -1.140625 33.8125 -1.140625 
C 47.4375 -1.140625 56.96875 9.796875 56.96875 27.125 
C 56.96875 44.3125 47.4375 55.25 33.671875 55.25 
C 23.015625 55.25 19.75 48.71875 17.90625 45.875 
L 17.1875 45.875 
L 17.1875 72.734375 
L 8.8125 72.734375 
z
M 17.046875 27.265625 
C 17.046875 39.484375 22.4375 47.734375 32.671875 47.734375 
C 43.328125 47.734375 48.578125 38.78125 48.578125 27.265625 
C 48.578125 15.625 43.1875 6.390625 32.671875 6.390625 
C 22.59375 6.390625 17.046875 14.921875 17.046875 27.265625 
z
" id="Inter-Regular-98"/>
       <path d="M 11.9375 63.640625 
C 15.203125 63.640625 17.90625 66.1875 17.90625 69.3125 
C 17.90625 72.4375 15.203125 75 11.9375 75 
C 8.671875 75 5.96875 72.4375 5.96875 69.3125 
C 5.96875 66.1875 8.671875 63.640625 11.9375 63.640625 
z
M 7.671875 0 
L 16.046875 0 
L 16.046875 54.546875 
L 7.671875 54.546875 
z
" id="Inter-Regular-105"/>
       <path d="M 31.390625 54.546875 
L 19.75 54.546875 
L 19.75 67.609375 
L 11.359375 67.609375 
L 11.359375 54.546875 
L 3.125 54.546875 
L 3.125 47.4375 
L 11.359375 47.4375 
L 11.359375 13.359375 
C 11.359375 3.828125 19.03125 -0.703125 26.140625 -0.703125 
C 29.265625 -0.703125 31.25 -0.140625 32.390625 0.28125 
L 30.6875 7.8125 
C 29.96875 7.671875 28.84375 7.390625 26.984375 7.390625 
C 23.296875 7.390625 19.75 8.515625 19.75 15.625 
L 19.75 47.4375 
L 31.390625 47.4375 
z
" id="Inter-Regular-116"/>
       <path id="Inter-Regular-32"/>
       <path d="M 8.8125 0 
L 17.609375 0 
L 17.609375 26.5625 
L 33.53125 26.5625 
C 50.46875 26.5625 58.09375 36.859375 58.09375 49.71875 
C 58.09375 62.578125 50.46875 72.734375 33.375 72.734375 
L 8.8125 72.734375 
z
M 33.09375 64.921875 
C 44.921875 64.921875 49.4375 58.453125 49.4375 49.71875 
C 49.4375 40.984375 44.921875 34.375 33.234375 34.375 
L 17.609375 34.375 
L 17.609375 64.921875 
z
" id="Inter-Regular-80"/>
       <path d="M 29.828125 -1.140625 
C 44.609375 -1.140625 54.546875 10.078125 54.546875 26.984375 
C 54.546875 44.03125 44.609375 55.25 29.828125 55.25 
C 15.0625 55.25 5.109375 44.03125 5.109375 26.984375 
C 5.109375 10.078125 15.0625 -1.140625 29.828125 -1.140625 
z
M 29.828125 6.390625 
C 18.609375 6.390625 13.5 16.046875 13.5 26.984375 
C 13.5 37.921875 18.609375 47.734375 29.828125 47.734375 
C 41.046875 47.734375 46.171875 37.921875 46.171875 26.984375 
C 46.171875 16.046875 41.046875 6.390625 29.828125 6.390625 
z
" id="Inter-Regular-111"/>
       <path d="M 46.3125 42.328125 
C 43.6875 50.078125 37.78125 55.25 26.984375 55.25 
C 15.484375 55.25 6.96875 48.71875 6.96875 39.484375 
C 6.96875 31.953125 11.4375 26.921875 21.453125 24.578125 
L 30.546875 22.4375 
C 36.046875 21.171875 38.640625 18.53125 38.640625 14.765625 
C 38.640625 10.078125 33.671875 6.25 25.859375 6.25 
C 19 6.25 14.703125 9.203125 13.21875 15.0625 
L 5.25 13.0625 
C 7.203125 3.796875 14.84375 -1.140625 26 -1.140625 
C 38.671875 -1.140625 47.296875 5.78125 47.296875 15.203125 
C 47.296875 22.796875 42.546875 27.59375 32.8125 29.96875 
L 24.71875 31.953125 
C 18.25 33.5625 15.34375 35.71875 15.34375 39.921875 
C 15.34375 44.609375 20.3125 48.015625 26.984375 48.015625 
C 34.3125 48.015625 37.328125 43.96875 38.78125 40.203125 
z
" id="Inter-Regular-115"/>
       <path d="M 16.046875 32.8125 
C 16.046875 42.328125 21.953125 47.734375 29.96875 47.734375 
C 37.75 47.734375 42.46875 42.65625 42.46875 34.09375 
L 42.46875 0 
L 50.859375 0 
L 50.859375 34.65625 
C 50.859375 48.578125 43.4375 55.25 32.390625 55.25 
C 24.15625 55.25 19.03125 51.5625 16.484375 46.015625 
L 15.765625 46.015625 
L 15.765625 54.546875 
L 7.671875 54.546875 
L 7.671875 0 
L 16.046875 0 
z
" id="Inter-Regular-110"/>
       <path d="M 50 53.078125 
L 48.296875 44.578125 
Q 44.734375 46.53125 40.765625 47.5 
Q 36.8125 48.484375 32.625 48.484375 
Q 25.53125 48.484375 21.453125 46.0625 
Q 17.390625 43.65625 17.390625 39.5 
Q 17.390625 34.671875 26.859375 32.078125 
Q 27.59375 31.890625 27.9375 31.78125 
L 30.8125 30.90625 
Q 39.796875 28.421875 42.796875 25.6875 
Q 45.796875 22.953125 45.796875 18.21875 
Q 45.796875 9.515625 38.890625 4.046875 
Q 31.984375 -1.421875 20.796875 -1.421875 
Q 16.453125 -1.421875 11.671875 -0.578125 
Q 6.890625 0.25 1.125 2 
L 2.875 11.28125 
Q 7.8125 8.734375 12.59375 7.421875 
Q 17.390625 6.109375 21.78125 6.109375 
Q 28.375 6.109375 32.5 8.9375 
Q 36.625 11.765625 36.625 16.109375 
Q 36.625 20.796875 25.78125 23.6875 
L 24.859375 23.921875 
L 21.78125 24.703125 
Q 14.9375 26.515625 11.765625 29.46875 
Q 8.59375 32.421875 8.59375 37.015625 
Q 8.59375 45.75 15.15625 50.875 
Q 21.734375 56 33.015625 56 
Q 37.453125 56 41.671875 55.265625 
Q 45.90625 54.546875 50 53.078125 
z
" id="DejaVuSans-Oblique-115"/>
       <path d="M 33.375 76.140625 
L 25.71875 76.140625 
L 2.28125 -10.9375 
L 9.9375 -10.9375 
z
" id="Inter-Regular-47"/>
       <path d="M 7.671875 0 
L 16.046875 0 
L 16.046875 34.09375 
C 16.046875 42.078125 21.875 47.734375 28.40625 47.734375 
C 34.765625 47.734375 39.203125 43.578125 39.203125 37.359375 
L 39.203125 0 
L 47.734375 0 
L 47.734375 35.515625 
C 47.734375 42.546875 52.125 47.734375 59.796875 47.734375 
C 65.765625 47.734375 70.875 44.5625 70.875 36.5 
L 70.875 0 
L 79.265625 0 
L 79.265625 36.5 
C 79.265625 49.328125 72.375 55.25 62.640625 55.25 
C 54.828125 55.25 49.109375 51.671875 46.3125 46.015625 
L 45.734375 46.015625 
C 43.046875 51.84375 38.28125 55.25 31.109375 55.25 
C 24 55.25 18.75 51.84375 16.484375 46.015625 
L 15.765625 46.015625 
L 15.765625 54.546875 
L 7.671875 54.546875 
z
" id="Inter-Regular-109"/>
      </defs>
      <use transform="translate(0 0.859375)" xlink:href="#Inter-Regular-79"/>
      <use transform="translate(76.136383 0.859375)" xlink:href="#Inter-Regular-114"/>
      <use transform="translate(113.352295 0.859375)" xlink:href="#Inter-Regular-98"/>
      <use transform="translate(175.426178 0.859375)" xlink:href="#Inter-Regular-105"/>
      <use transform="translate(199.147766 0.859375)" xlink:href="#Inter-Regular-116"/>
      <use transform="translate(235.511414 0.859375)" xlink:href="#Inter-Regular-32"/>
      <use transform="translate(263.636414 0.859375)" xlink:href="#Inter-Regular-80"/>
      <use transform="translate(327.130737 0.859375)" xlink:href="#Inter-Regular-111"/>
      <use transform="translate(386.789841 0.859375)" xlink:href="#Inter-Regular-115"/>
      <use transform="translate(439.062576 0.859375)" xlink:href="#Inter-Regular-105"/>
      <use transform="translate(462.784164 0.859375)" xlink:href="#Inter-Regular-116"/>
      <use transform="translate(499.147812 0.859375)" xlink:href="#Inter-Regular-105"/>
      <use transform="translate(522.8694 0.859375)" xlink:href="#Inter-Regular-111"/>
      <use transform="translate(582.528503 0.859375)" xlink:href="#Inter-Regular-110"/>
      <use transform="translate(641.051239 0.859375)" xlink:href="#Inter-Regular-32"/>
      <use transform="translate(669.176239 0.859375)" xlink:href="#DejaVuSans-Oblique-115"/>
      <use transform="translate(721.275848 0.859375)" xlink:href="#Inter-Regular-32"/>
      <use transform="translate(749.400848 0.859375)" xlink:href="#Inter-Regular-47"/>
      <use transform="translate(785.05426 0.859375)" xlink:href="#Inter-Regular-32"/>
      <use transform="translate(813.17926 0.859375)" xlink:href="#Inter-Regular-109"/>
     </g>
    </g>
   </g>
   <g id="matplotlib.axis_2">
    <g id="ytick_1">
     <g id="line2d_8">
      <defs>
       <path d="M 0 0 
L -3.5 0 
" id="m1bac16a7e5" style="stroke:#000000;stroke-width:0.8;"/>
      </defs>
      <g>
       <use style="stroke:#000000;stroke-width:0.8;" x="30.13" xlink:href="#m1bac16a7e5" y="302.287004"/>
      </g>
     </g>
     <g id="text_9">
      <!-- 0 -->
      <g transform="translate(16.88 305.923722)scale(0.1 -0.1)">
       <use xlink:href="#Inter-Regular-48"/>
      </g>
     </g>
    </g>
    <g id="ytick_2">
     <g id="line2d_9">
      <g>
       <use style="stroke:#000000;stroke-width:0.8;" x="30.13" xlink:href="#m1bac16a7e5" y="238.052424"/>
      </g>
     </g>
     <g id="text_10">
      <!-- 5 -->
      <g transform="translate(17.050313 241.689143)scale(0.1 -0.1)">
       <use xlink:href="#Inter-Regular-53"/>
      </g>
     </g>
    </g>
    <g id="ytick_3">
     <g id="line2d_10">
      <g>
       <use style="stroke:#000000;stroke-width:0.8;" x="30.13" xlink:href="#m1bac16a7e5" y="173.817845"/>
      </g>
     </g>
     <g id="text_11">
      <!-- 10 -->
      <g transform="translate(12.234688 177.454563)scale(0.1 -0.1)">
       <use xlink:href="#Inter-Regular-49"/>
       <use x="46.448868" xlink:href="#Inter-Regular-48"/>
      </g>
     </g>
    </g>
    <g id="ytick_4">
     <g id="line2d_11">
      <g>
       <use style="stroke:#000000;stroke-width:0.8;" x="30.13" xlink:href="#m1bac16a7e5" y="109.583265"/>
      </g>
     </g>
     <g id="text_12">
      <!-- 15 -->
      <g transform="translate(12.405 113.219984)scale(0.1 -0.1)">
       <use xlink:href="#Inter-Regular-49"/>
       <use x="46.448868" xlink:href="#Inter-Regular-53"/>
      </g>
     </g>
    </g>
    <g id="ytick_5">
     <g id="line2d_12">
      <g>
       <use style="stroke:#000000;stroke-width:0.8;" x="30.13" xlink:href="#m1bac16a7e5" y="45.348686"/>
      </g>
     </g>
     <g id="text_13">
      <!-- 20 -->
      <g transform="translate(10.828438 48.985404)scale(0.1 -0.1)">
       <use xlink:href="#Inter-Regular-50"/>
       <use x="60.511383" xlink:href="#Inter-Regular-48"/>
      </g>
     </g>
    </g>
   </g>
   <g id="patch_3">
    <path d="M 30.13 315.88 
L 30.13 17.73 
" style="fill:none;stroke:#000000;stroke-linecap:square;stroke-linejoin:miter;stroke-width:0.8;"/>
   </g>
   <g id="patch_4">
    <path d="M 558.9 315.88 
L 558.9 17.73 
" style="fill:none;stroke:#000000;stroke-linecap:square;stroke-linejoin:miter;stroke-width:0.8;"/>
   </g>
   <g id="patch_5">
    <path d="M 30.13 315.88 
L 558.9 315.88 
" style="fill:none;stroke:#000000;stroke-linecap:square;stroke-linejoin:miter;stroke-width:0.8;"/>
   </g>
   <g id="patch_6">
    <path d="M 30.13 17.73 
L 558.9 17.73 
" style="fill:none;stroke:#000000;stroke-linecap:square;stroke-linejoin:miter;stroke-width:0.8;"/>
   </g>
   <g id="line2d_13">
    <path clip-path="url(#p96c5daf230)" d="M 30.13 244.520824 
L 35.329572 244.584999 
L 36.034598 244.867996 
L 36.739625 245.376176 
L 37.620908 246.324947 
L 38.502192 247.616575 
L 39.732342 249.919734 
L 54.100907 277.852502 
L 55.863473 280.639599 
L 64.669133 293.206276 
L 66.596685 295.554744 
L 68.524236 297.554631 
L 70.276555 299.069159 
L 72.028874 300.293769 
L 73.605961 301.147508 
L 75.183049 301.765536 
L 76.760136 302.14759 
L 78.337223 302.293509 
L 92.007106 302.310759 
L 175.522933 302.327727 
L 247.359168 302.222472 
L 248.936256 301.919116 
L 250.513343 301.379723 
L 252.09043 300.604519 
L 253.667517 299.593832 
L 255.419837 298.195185 
L 257.172156 296.507077 
L 259.099707 294.316884 
L 261.027258 291.778893 
L 268.957783 280.380213 
L 270.72035 277.549198 
L 272.479505 274.265166 
L 286.495322 247.059241 
L 287.376605 245.903922 
L 288.257888 245.094042 
L 288.962915 244.698259 
L 289.667942 244.528326 
L 292.488048 244.521 
L 299.714572 244.5841 
L 300.419598 244.866979 
L 301.124625 245.375046 
L 302.005908 246.32368 
L 302.887192 247.615181 
L 304.117342 249.918174 
L 318.485907 277.849011 
L 320.248473 280.635782 
L 329.054133 293.200615 
L 330.981685 295.548671 
L 332.909236 297.548151 
L 334.661555 299.062311 
L 336.413874 300.286558 
L 337.990961 301.139973 
L 339.568049 301.75768 
L 341.145136 302.139416 
L 342.722223 302.285022 
L 356.223561 302.298238 
L 465.197872 302.303214 
L 511.9194 302.192183 
L 513.496488 301.86291 
L 515.073575 301.297622 
L 516.650662 300.496559 
L 518.227749 299.460058 
L 519.980069 298.032796 
L 521.732388 296.316157 
L 523.659939 294.094696 
L 525.58749 291.525576 
L 534.57658 278.441707 
L 536.339147 275.288011 
L 551.232835 246.554774 
L 552.114118 245.537034 
L 552.995402 244.866979 
L 553.700428 244.5841 
L 554.581712 244.520451 
L 558.9 244.520824 
L 558.9 244.520824 
" style="fill:none;stroke:#10b981;stroke-linecap:square;stroke-width:1.3;"/>
   </g>
   <g id="line2d_14">
    <path clip-path="url(#p96c5daf230)" d="M 30.13 202.376595 
L 34.624545 202.26392 
L 35.153315 202.13839 
L 35.505828 201.823596 
L 36.034598 200.97713 
L 36.563368 199.674591 
L 37.268395 197.207948 
L 37.973422 193.870823 
L 38.854705 188.394052 
L 40.257465 177.418951 
L 42.883082 155.23334 
L 45.517207 131.09958 
L 48.325374 103.301621 
L 51.29274 71.606868 
L 53.572137 47.361979 
L 54.277163 42.18951 
L 54.98219 38.5554 
L 55.51096 36.866605 
L 55.863473 36.241423 
L 56.5685 35.745788 
L 63.792974 31.29252 
L 71.327946 31.396301 
L 78.688712 31.405233 
L 86.267748 36.527945 
L 86.620262 37.393221 
L 87.149032 39.487346 
L 87.677802 42.522882 
L 88.382828 47.995578 
L 89.264112 57.024112 
L 90.321652 70.820323 
L 93.018379 108.162912 
L 95.485972 139.424339 
L 97.861031 166.888613 
L 99.416496 183.050726 
L 100.650292 193.541288 
L 101.884089 202.098611 
L 102.941629 208.075508 
L 103.999169 212.928148 
L 105.056709 216.755099 
L 105.937992 219.217378 
L 106.819276 221.056407 
L 107.685137 222.322677 
L 111.631083 227.394312 
L 115.504966 232.003674 
L 119.201087 236.060102 
L 122.897208 239.783126 
L 126.417323 243.018894 
L 129.937439 245.952253 
L 133.281548 248.458839 
L 136.625658 250.692502 
L 139.969768 252.653241 
L 143.137871 254.259029 
L 146.305975 255.619866 
L 149.474079 256.735752 
L 152.642183 257.606688 
L 155.634281 258.204322 
L 158.626379 258.583467 
L 161.618477 258.744121 
L 164.610575 258.686286 
L 167.602673 258.40996 
L 170.594771 257.915145 
L 173.586869 257.201839 
L 176.578967 256.270044 
L 179.747071 255.045291 
L 182.915175 253.575587 
L 186.083279 251.860932 
L 189.251382 249.901327 
L 192.595492 247.567113 
L 195.939602 244.959976 
L 199.459717 241.920774 
L 202.979832 238.579163 
L 206.499948 234.935144 
L 210.196069 230.783457 
L 213.895201 226.294575 
L 217.473211 221.623603 
L 218.178238 220.393735 
L 219.059521 218.308999 
L 219.940804 215.588206 
L 220.822088 212.192998 
L 221.879628 207.160415 
L 222.937168 200.98499 
L 223.994708 193.541288 
L 225.228504 183.050726 
L 226.446879 170.577959 
L 228.806515 143.663381 
L 231.274108 112.798987 
L 233.817712 78.074898 
L 235.380888 57.024112 
L 236.262172 47.995578 
L 236.967198 42.522882 
L 237.672225 38.683809 
L 238.200995 36.907212 
L 238.553508 36.255727 
L 239.082278 35.867958 
L 246.483009 31.297846 
L 254.017981 31.396041 
L 261.378747 31.399519 
L 268.957783 36.503737 
L 269.310297 37.329752 
L 269.839067 39.31697 
L 270.367837 42.18951 
L 271.072863 47.361979 
L 271.954147 55.893563 
L 276.145075 101.503241 
L 279.127793 131.09958 
L 281.93696 156.77047 
L 284.562576 178.831604 
L 286.142808 190.765718 
L 287.024092 195.651144 
L 287.729118 198.547345 
L 288.434145 200.594109 
L 288.962915 201.591572 
L 289.491685 202.13839 
L 289.844198 202.255124 
L 294.346755 202.376247 
L 298.833288 202.282491 
L 299.538315 202.150155 
L 299.890828 201.836223 
L 300.419598 200.991101 
L 300.948368 199.689983 
L 301.653395 197.225373 
L 302.358422 193.890468 
L 303.239705 188.416789 
L 304.642465 177.447287 
L 307.268082 155.273297 
L 309.902207 131.152634 
L 312.710374 103.370225 
L 315.67774 71.693682 
L 317.957137 47.463346 
L 318.662163 42.294547 
L 319.36719 38.663509 
L 319.89596 36.976606 
L 320.248473 36.35248 
L 320.777243 35.969705 
L 328.177974 31.423603 
L 335.712946 31.544027 
L 343.073712 31.569026 
L 350.652748 36.751839 
L 351.005262 37.758079 
L 351.534032 40.236085 
L 352.062802 43.856188 
L 352.767828 50.402722 
L 353.649112 61.199499 
L 354.706652 77.629579 
L 357.066288 116.299004 
L 359.342202 150.11141 
L 361.571849 179.91803 
L 363.448982 202.225274 
L 364.506522 212.13731 
L 365.564062 219.90053 
L 366.445346 224.942637 
L 367.326629 228.83028 
L 368.207912 231.665568 
L 368.912939 233.227023 
L 369.441709 234.003885 
L 369.970479 234.451279 
L 370.499249 234.57343 
L 371.028019 234.371492 
L 371.556789 233.843557 
L 373.081409 231.517498 
L 376.721109 225.618551 
L 380.651633 219.113619 
L 381.180403 218.871066 
L 381.532916 218.924101 
L 381.88543 219.148771 
L 382.4142 219.805355 
L 382.94297 220.839709 
L 383.647495 222.767061 
L 386.811087 231.849643 
L 389.798924 239.791557 
L 392.786761 247.115565 
L 395.598843 253.444295 
L 398.410925 259.225675 
L 401.047252 264.148614 
L 403.683579 268.590484 
L 406.144151 272.302199 
L 408.428967 275.373557 
L 410.713784 278.083579 
L 412.822845 280.264425 
L 414.931907 282.137387 
L 417.040968 283.702464 
L 418.974275 284.866651 
L 420.907581 285.77213 
L 422.840887 286.4189 
L 424.598439 286.782375 
L 426.35599 286.932041 
L 428.113541 286.867898 
L 429.871092 286.589947 
L 431.628643 286.098188 
L 433.56195 285.310304 
L 435.495256 284.263711 
L 437.428563 282.958411 
L 439.361869 281.394402 
L 441.47093 279.393155 
L 443.579992 277.084024 
L 445.864808 274.235027 
L 448.149625 271.024693 
L 450.610197 267.163313 
L 453.070768 262.882868 
L 455.707095 257.831644 
L 458.343422 252.299351 
L 461.155504 245.867993 
L 463.967586 238.889286 
L 466.955423 230.874676 
L 471.0008 219.805355 
L 471.52957 219.148771 
L 472.05834 218.876098 
L 472.410854 218.909009 
L 472.763367 219.113619 
L 473.292137 219.740411 
L 476.693891 225.618551 
L 480.333591 231.517498 
L 482.034468 234.056001 
L 482.563238 234.474869 
L 483.092008 234.568717 
L 483.620778 234.338431 
L 484.149548 233.781836 
L 484.678318 232.893677 
L 485.383344 231.178744 
L 486.088371 228.83028 
L 486.969654 224.942637 
L 487.850938 219.90053 
L 488.732221 213.571527 
L 489.613504 205.789392 
L 490.663333 194.36145 
L 492.685878 169.038273 
L 494.777825 140.002936 
L 497.022894 105.625949 
L 500.294658 54.38454 
L 501.175942 45.311431 
L 501.880968 40.236085 
L 502.409738 37.758079 
L 502.762252 36.751839 
L 503.114765 36.267134 
L 510.868009 31.460562 
L 518.402981 31.542225 
L 525.763747 31.529375 
L 533.342783 36.614287 
L 533.695297 37.439163 
L 534.224067 39.42437 
L 534.752837 42.294547 
L 535.457863 47.463346 
L 536.339147 55.989574 
L 540.530075 101.572865 
L 543.512793 131.152634 
L 546.32196 156.809608 
L 548.947576 178.859216 
L 550.527808 190.787172 
L 551.409092 195.669653 
L 552.114118 198.563732 
L 552.819145 200.608546 
L 553.347915 201.604639 
L 553.876685 202.150155 
L 554.229198 202.266054 
L 558.731755 202.376641 
L 558.9 202.376595 
L 558.9 202.376595 
" style="fill:none;stroke:#3b82f6;stroke-linecap:square;stroke-width:1.3;"/>
   </g>
   <g id="patch_7">
    <path d="M 30.13 25.18375 
L 31.980695 25.18375 
L 31.980695 10.27625 
L 30.13 10.27625 
z
" style="fill:#10b981;"/>
   </g>
   <g id="patch_8">
    <path d="M 34.800802 25.18375 
L 39.207218 25.18375 
L 39.207218 10.27625 
L 34.800802 10.27625 
z
" style="fill:#ef4444;"/>
   </g>
   <g id="patch_9">
    <path d="M 44.28341 25.18375 
L 47.103517 25.18375 
L 47.103517 10.27625 
L 44.28341 10.27625 
z
" style="fill:#10b981;"/>
   </g>
   <g id="patch_10">
    <path d="M 52.514597 25.18375 
L 56.03973 25.18375 
L 56.03973 10.27625 
L 52.514597 10.27625 
z
" style="fill:#ef4444;"/>
   </g>
   <g id="patch_11">
    <path d="M 63.44251 25.18375 
L 78.512455 25.18375 
L 78.512455 10.27625 
L 63.44251 10.27625 
z
" style="fill:#fbbf24;"/>
   </g>
   <g id="patch_12">
    <path d="M 85.915235 25.18375 
L 90.321652 25.18375 
L 90.321652 10.27625 
L 85.915235 10.27625 
z
" style="fill:#ef4444;"/>
   </g>
   <g id="patch_13">
    <path d="M 93.018379 25.18375 
L 95.838485 25.18375 
L 95.838485 10.27625 
L 93.018379 10.27625 
z
" style="fill:#10b981;"/>
   </g>
   <g id="patch_14">
    <path d="M 98.535212 25.18375 
L 107.348046 25.18375 
L 107.348046 10.27625 
L 98.535212 10.27625 
z
" style="fill:#ef4444;"/>
   </g>
   <g id="patch_15">
    <path d="M 110.044773 25.18375 
L 112.864879 25.18375 
L 112.864879 10.27625 
L 110.044773 10.27625 
z
" style="fill:#10b981;"/>
   </g>
   <g id="patch_16">
    <path d="M 211.780121 25.18375 
L 214.600227 25.18375 
L 214.600227 10.27625 
L 211.780121 10.27625 
z
" style="fill:#10b981;"/>
   </g>
   <g id="patch_17">
    <path d="M 217.296954 25.18375 
L 226.109788 25.18375 
L 226.109788 10.27625 
L 217.296954 10.27625 
z
" style="fill:#ef4444;"/>
   </g>
   <g id="patch_18">
    <path d="M 228.806515 25.18375 
L 231.626621 25.18375 
L 231.626621 10.27625 
L 228.806515 10.27625 
z
" style="fill:#10b981;"/>
   </g>
   <g id="patch_19">
    <path d="M 234.323348 25.18375 
L 238.729765 25.18375 
L 238.729765 10.27625 
L 234.323348 10.27625 
z
" style="fill:#ef4444;"/>
   </g>
   <g id="patch_20">
    <path d="M 246.132545 25.18375 
L 261.20249 25.18375 
L 261.20249 10.27625 
L 246.132545 10.27625 
z
" style="fill:#fbbf24;"/>
   </g>
   <g id="patch_21">
    <path d="M 268.60527 25.18375 
L 272.130403 25.18375 
L 272.130403 10.27625 
L 268.60527 10.27625 
z
" style="fill:#ef4444;"/>
   </g>
   <g id="patch_22">
    <path d="M 277.541483 25.18375 
L 280.36159 25.18375 
L 280.36159 10.27625 
L 277.541483 10.27625 
z
" style="fill:#10b981;"/>
   </g>
   <g id="patch_23">
    <path d="M 285.437782 25.18375 
L 289.844198 25.18375 
L 289.844198 10.27625 
L 285.437782 10.27625 
z
" style="fill:#ef4444;"/>
   </g>
   <g id="patch_24">
    <path d="M 292.664305 25.18375 
L 296.365695 25.18375 
L 296.365695 10.27625 
L 292.664305 10.27625 
z
" style="fill:#10b981;"/>
   </g>
   <g id="patch_25">
    <path d="M 299.185802 25.18375 
L 303.592218 25.18375 
L 303.592218 10.27625 
L 299.185802 10.27625 
z
" style="fill:#ef4444;"/>
   </g>
   <g id="patch_26">
    <path d="M 308.66841 25.18375 
L 311.488517 25.18375 
L 311.488517 10.27625 
L 308.66841 10.27625 
z
" style="fill:#10b981;"/>
   </g>
   <g id="patch_27">
    <path d="M 316.899597 25.18375 
L 320.42473 25.18375 
L 320.42473 10.27625 
L 316.899597 10.27625 
z
" style="fill:#ef4444;"/>
   </g>
   <g id="patch_28">
    <path d="M 327.82751 25.18375 
L 342.897455 25.18375 
L 342.897455 10.27625 
L 327.82751 10.27625 
z
" style="fill:#fbbf24;"/>
   </g>
   <g id="patch_29">
    <path d="M 350.300235 25.18375 
L 354.706652 25.18375 
L 354.706652 10.27625 
L 350.300235 10.27625 
z
" style="fill:#ef4444;"/>
   </g>
   <g id="patch_30">
    <path d="M 357.403379 25.18375 
L 360.223485 25.18375 
L 360.223485 10.27625 
L 357.403379 10.27625 
z
" style="fill:#10b981;"/>
   </g>
   <g id="patch_31">
    <path d="M 362.920212 25.18375 
L 371.733046 25.18375 
L 371.733046 10.27625 
L 362.920212 10.27625 
z
" style="fill:#ef4444;"/>
   </g>
   <g id="patch_32">
    <path d="M 374.429773 25.18375 
L 377.249879 25.18375 
L 377.249879 10.27625 
L 374.429773 10.27625 
z
" style="fill:#10b981;"/>
   </g>
   <g id="patch_33">
    <path d="M 379.946606 25.18375 
L 383.47174 25.18375 
L 383.47174 10.27625 
L 379.946606 10.27625 
z
" style="fill:#ef4444;"/>
   </g>
   <g id="patch_34">
    <path d="M 469.94326 25.18375 
L 473.468394 25.18375 
L 473.468394 10.27625 
L 469.94326 10.27625 
z
" style="fill:#ef4444;"/>
   </g>
   <g id="patch_35">
    <path d="M 476.165121 25.18375 
L 478.985227 25.18375 
L 478.985227 10.27625 
L 476.165121 10.27625 
z
" style="fill:#10b981;"/>
   </g>
   <g id="patch_36">
    <path d="M 481.681954 25.18375 
L 490.494788 25.18375 
L 490.494788 10.27625 
L 481.681954 10.27625 
z
" style="fill:#ef4444;"/>
   </g>
   <g id="patch_37">
    <path d="M 493.191515 25.18375 
L 496.011621 25.18375 
L 496.011621 10.27625 
L 493.191515 10.27625 
z
" style="fill:#10b981;"/>
   </g>
   <g id="patch_38">
    <path d="M 498.708348 25.18375 
L 503.114765 25.18375 
L 503.114765 10.27625 
L 498.708348 10.27625 
z
" style="fill:#ef4444;"/>
   </g>
   <g id="patch_39">
    <path d="M 510.517545 25.18375 
L 525.58749 25.18375 
L 525.58749 10.27625 
L 510.517545 10.27625 
z
" style="fill:#fbbf24;"/>
   </g>
   <g id="patch_40">
    <path d="M 532.99027 25.18375 
L 536.515403 25.18375 
L 536.515403 10.27625 
L 532.99027 10.27625 
z
" style="fill:#ef4444;"/>
   </g>
   <g id="patch_41">
    <path d="M 541.926483 25.18375 
L 544.74659 25.18375 
L 544.74659 10.27625 
L 541.926483 10.27625 
z
" style="fill:#10b981;"/>
   </g>
   <g id="patch_42">
    <path d="M 549.822782 25.18375 
L 554.229198 25.18375 
L 554.229198 10.27625 
L 549.822782 10.27625 
z
" style="fill:#ef4444;"/>
   </g>
   <g id="patch_43">
    <path d="M 557.049305 25.18375 
L 558.9 25.18375 
L 558.9 10.27625 
L 557.049305 10.27625 
z
" style="fill:#10b981;"/>
   </g>
   <g id="line2d_15">
    <path clip-path="url(#p96c5daf230)" d="M 30.13 88.189809 
L 34.977058 87.783391 
L 35.329572 88.166001 
L 35.682085 88.967041 
L 36.210855 90.945839 
L 36.739625 93.841202 
L 37.444652 99.082174 
L 38.325935 107.732292 
L 39.382259 120.843429 
L 41.832835 151.872267 
L 44.108369 178.04671 
L 46.39849 201.824115 
L 48.499925 221.378703 
L 50.419985 237.351465 
L 52.340046 251.515571 
L 53.572137 259.34476 
L 54.805933 265.768816 
L 56.03973 271.006064 
L 57.802297 277.322944 
L 59.564863 282.809939 
L 61.151173 287.038682 
L 62.561227 290.233244 
L 63.968206 292.87862 
L 65.194829 294.742541 
L 66.421453 296.214059 
L 67.472844 297.16189 
L 68.524236 297.819604 
L 69.575627 298.186707 
L 70.451787 298.270426 
L 71.327946 298.152092 
L 72.204106 297.831769 
L 73.255497 297.180995 
L 74.306889 296.24009 
L 75.35828 295.009758 
L 76.584904 293.209814 
L 77.811527 291.019034 
L 79.041225 288.414071 
L 80.451278 284.906371 
L 82.037588 280.325346 
L 83.623898 275.072115 
L 85.386465 268.4468 
L 86.796518 262.354496 
L 87.854058 256.754779 
L 88.911598 250.052528 
L 89.969138 242.052289 
L 91.50147 228.309205 
L 93.370892 209.506636 
L 95.309715 187.711946 
L 97.355394 162.183518 
L 101.179062 113.176486 
L 102.412859 100.814093 
L 103.470399 92.161505 
L 104.351682 86.457842 
L 105.232966 82.210637 
L 105.937992 79.902376 
L 106.466762 78.821091 
L 106.819276 78.413022 
L 107.171789 78.256338 
L 107.853682 78.408126 
L 114.624937 80.104889 
L 121.489162 81.595384 
L 128.353387 82.854748 
L 135.217612 83.882982 
L 141.905831 84.662534 
L 148.59405 85.222657 
L 155.282269 85.56335 
L 161.970488 85.684614 
L 168.658708 85.586448 
L 175.346927 85.268852 
L 182.035146 84.731828 
L 188.723365 83.975373 
L 195.411584 82.999489 
L 202.099803 81.804176 
L 208.964028 80.34924 
L 215.780045 78.675821 
L 217.473211 78.256338 
L 217.825724 78.413022 
L 218.178238 78.821091 
L 218.707008 79.902376 
L 219.235778 81.541598 
L 219.940804 84.580371 
L 220.822088 89.709952 
L 221.703371 96.25025 
L 222.760911 105.829908 
L 223.994708 119.144345 
L 225.581018 139.072557 
L 228.982771 183.498311 
L 231.097851 207.621825 
L 233.14353 228.309205 
L 234.852118 243.485188 
L 236.085915 252.420461 
L 237.319712 259.681555 
L 238.553508 265.556937 
L 240.316075 272.521575 
L 242.078642 278.648959 
L 243.841208 283.946457 
L 245.427518 288.004654 
L 246.833473 291.019034 
L 248.235328 293.490925 
L 249.461951 295.234876 
L 250.688575 296.585922 
L 251.739966 297.430185 
L 252.791358 297.984129 
L 253.667517 298.22367 
L 254.543677 298.261184 
L 255.419837 298.096651 
L 256.295996 297.730156 
L 257.347388 297.024049 
L 258.398779 296.027928 
L 259.450171 294.742541 
L 260.676794 292.87862 
L 261.907517 290.595219 
L 263.31757 287.467048 
L 264.727623 283.807751 
L 266.313933 279.05618 
L 268.0765 272.988266 
L 269.486553 267.376969 
L 270.544093 262.257512 
L 271.77789 255.050862 
L 273.177709 245.301554 
L 275.09777 230.315332 
L 277.01783 213.520455 
L 279.127793 192.978665 
L 281.236795 170.263605 
L 283.51233 143.307517 
L 287.024092 100.630686 
L 287.905375 93.841202 
L 288.610402 90.183369 
L 289.139172 88.514375 
L 289.491685 87.92226 
L 289.844198 87.749531 
L 296.541952 88.347077 
L 299.362058 88.584265 
L 299.714572 89.023497 
L 300.067085 89.87931 
L 300.595855 91.936334 
L 301.124625 94.90459 
L 301.829652 100.233355 
L 302.710935 108.976206 
L 303.767259 122.170991 
L 306.217835 153.338925 
L 308.493369 179.596379 
L 310.78349 203.412457 
L 312.884925 222.96293 
L 314.804985 238.898796 
L 316.725046 252.994367 
L 317.957137 260.772753 
L 319.190933 267.15838 
L 320.42473 272.368496 
L 322.187297 278.638764 
L 323.773607 283.546134 
L 325.359917 287.756363 
L 326.76997 290.913535 
L 328.177974 293.508527 
L 329.404597 295.307346 
L 330.631221 296.698422 
L 331.682612 297.565155 
L 332.734004 298.13062 
L 333.610163 298.371393 
L 334.486323 298.402528 
L 335.362482 298.224009 
L 336.238642 297.835929 
L 337.290034 297.093905 
L 338.341425 296.050967 
L 339.392817 294.707898 
L 340.61944 292.763009 
L 341.846063 290.412977 
L 343.249968 287.215653 
L 344.660022 283.421956 
L 346.246332 278.495636 
L 348.008898 272.204312 
L 349.771465 265.05232 
L 351.005262 259.369423 
L 352.062802 253.352931 
L 353.120342 245.988316 
L 354.177882 237.013583 
L 355.380833 224.709697 
L 357.234833 203.343951 
L 359.165945 178.285427 
L 361.234758 148.265505 
L 364.859036 94.126816 
L 365.740319 85.524857 
L 366.445346 80.584955 
L 366.974116 78.069401 
L 367.502886 76.600559 
L 367.855399 76.210085 
L 368.031656 76.192274 
L 368.384169 76.511597 
L 368.736682 77.302858 
L 369.265452 79.36684 
L 369.794222 82.465301 
L 370.499249 88.153913 
L 371.380532 97.628429 
L 376.544853 160.612416 
L 378.935334 185.874023 
L 380.651633 202.028423 
L 381.532916 208.412864 
L 382.4142 213.394574 
L 383.295483 217.103357 
L 385.229291 223.316536 
L 388.392883 232.836604 
L 391.38072 241.134627 
L 394.192802 248.329431 
L 397.004884 254.927774 
L 399.641211 260.572014 
L 402.277538 265.692022 
L 404.73811 269.99772 
L 407.198681 273.846754 
L 409.483498 277.011956 
L 411.592559 279.584191 
L 413.701621 281.820918 
L 415.810682 283.722136 
L 417.743989 285.170183 
L 419.677295 286.33631 
L 421.434846 287.151783 
L 423.192398 287.734264 
L 424.949949 288.083753 
L 426.7075 288.200249 
L 428.465051 288.083753 
L 430.222602 287.734264 
L 431.980154 287.151783 
L 433.737705 286.33631 
L 435.495256 285.287844 
L 437.428563 283.865426 
L 439.361869 282.161087 
L 441.47093 279.980278 
L 443.579992 277.463961 
L 445.689053 274.612134 
L 447.97387 271.144043 
L 450.258687 267.282194 
L 452.719258 262.682925 
L 455.355585 257.248378 
L 457.991912 251.289599 
L 460.803994 244.355746 
L 463.616076 236.825433 
L 466.603913 228.170931 
L 469.59175 218.843082 
L 470.47203 215.7657 
L 471.177057 212.503723 
L 472.05834 207.252967 
L 472.939624 200.569256 
L 474.142575 189.233056 
L 476.341377 166.417799 
L 478.632714 140.368575 
L 481.007773 110.918147 
L 482.739494 89.844606 
L 483.444521 83.723233 
L 484.149548 79.36684 
L 484.678318 77.302858 
L 485.030831 76.511597 
L 485.383344 76.192274 
L 485.559601 76.210085 
L 485.912114 76.600559 
L 486.264628 77.462598 
L 486.793398 79.631399 
L 487.322168 82.832184 
L 488.027194 88.651686 
L 488.908478 98.277847 
L 489.966018 112.937624 
L 494.425311 180.69123 
L 496.348712 205.395272 
L 498.202712 226.521262 
L 499.589632 240.202477 
L 500.647172 248.60807 
L 501.704712 255.496743 
L 502.762252 261.113559 
L 504.172305 267.288288 
L 505.934872 274.182079 
L 507.697438 280.215203 
L 509.283748 284.909143 
L 510.868009 288.889107 
L 512.269864 291.805331 
L 513.67172 294.19368 
L 514.898343 295.84794 
L 515.949734 296.94096 
L 517.001126 297.733181 
L 518.052518 298.224009 
L 518.928677 298.402528 
L 519.804837 298.371393 
L 520.680996 298.13062 
L 521.557156 297.680334 
L 522.608547 296.863774 
L 523.659939 295.746473 
L 524.886562 294.063982 
L 526.11626 291.955464 
L 527.350057 289.403803 
L 528.76011 285.971217 
L 530.34642 281.451148 
L 531.93273 276.233937 
L 533.51904 270.26615 
L 534.57658 265.463392 
L 535.810377 258.700272 
L 537.039056 250.568417 
L 538.784566 237.526126 
L 540.704626 221.42296 
L 542.63151 203.412457 
L 544.74659 181.509121 
L 547.022124 155.450497 
L 549.297658 126.807088 
L 550.880322 107.051134 
L 551.761605 98.757897 
L 552.466632 93.815376 
L 553.171658 90.46245 
L 553.700428 89.023497 
L 554.052942 88.584265 
L 554.581712 88.500227 
L 558.9 88.189809 
L 558.9 88.189809 
" style="fill:none;stroke:#ef4444;stroke-linecap:square;stroke-width:1.3;"/>
   </g>
  </g>
 </g>
 <defs>
  <clipPath id="p96c5daf230">
   <rect height="298.15" width="528.77" x="30.13" y="17.73"/>
  </clipPath>
 </defs>
</svg>
