<?xml version="1.0" encoding="utf-8" standalone="no"?>
<!DOCTYPE svg PUBLIC "-//W3C//DTD SVG 1.1//EN"
  "http://www.w3.org/Graphics/SVG/1.1/DTD/svg11.dtd">
<!-- Created with matplotlib (https://matplotlib.org/) -->
<svg height="345.6pt" version="1.1" viewBox="0 0 576 345.6" width="576pt" xmlns="http://www.w3.org/2000/svg" xmlns:xlink="http://www.w3.org/1999/xlink">
 <metadata>
  <rdf:RDF xmlns:cc="http://creativecommons.org/ns#" xmlns:dc="http://purl.org/dc/elements/1.1/" xmlns:rdf="http://www.w3.org/1999/02/22-rdf-syntax-ns#">
   <cc:Work>
    <dc:type rdf:resource="http://purl.org/dc/dcmitype/StillImage"/>
    <dc:date>2020-12-15T11:56:08.108606</dc:date>
    <dc:format>image/svg+xml</dc:format>
    <dc:creator>
     <cc:Agent>
      <dc:title>Matplotlib v3.3.3, https://matplotlib.org/</dc:title>
     </cc:Agent>
    </dc:creator>
   </cc:Work>
  </rdf:RDF>
 </metadata>
 <defs>
  <style type="text/css">*{stroke-linecap:butt;stroke-linejoin:round;}</style>
 </defs>
 <g id="figure_1">
  <g id="patch_1">
   <path d="M 0 345.6 
L 576 345.6 
L 576 0 
L 0 0 
z
" style="fill:#ffffff;"/>
  </g>
  <g id="axes_1">
   <g id="patch_2">
    <path d="M 30.13 301.48 
L 558.9 301.48 
L 558.9 51.0736 
L 30.13 51.0736 
z
" style="fill:#ffffff;"/>
   </g>
   <g id="matplotlib.axis_1">
    <g id="xtick_1">
     <g id="line2d_1">
      <path clip-path="url(#p6a937ff2ed)" d="M 30.13 301.48 
L 30.13 51.0736 
" style="fill:none;stroke:#e5e7eb;stroke-dasharray:3.7,1.6;stroke-dashoffset:0;"/>
     </g>
     <g id="line2d_2">
      <defs>
       <path d="M 0 0 
L 0 3.5 
" id="m886c1d6223" style="stroke:#000000;stroke-width:0.8;"/>
      </defs>
      <g>
       <use style="stroke:#000000;stroke-width:0.8;" x="30.13" xlink:href="#m886c1d6223" y="301.48"/>
      </g>
     </g>
     <g id="text_1">
      <!-- 0 -->
      <g transform="translate(27.005 315.753437)scale(0.1 -0.1)">
       <defs>
        <path d="M 31.25 -1 
C 47.296875 -1 56.53125 12.609375 56.53125 36.359375 
C 56.53125 59.9375 47.15625 73.71875 31.25 73.71875 
C 15.34375 73.71875 5.96875 59.9375 5.96875 36.359375 
C 5.96875 12.609375 15.203125 -1 31.25 -1 
z
M 31.25 6.8125 
C 20.671875 6.8125 14.484375 17.4375 14.484375 36.359375 
C 14.484375 55.25 20.734375 66.046875 31.25 66.046875 
C 41.765625 66.046875 48.015625 55.25 48.015625 36.359375 
C 48.015625 17.4375 41.828125 6.8125 31.25 6.8125 
z
" id="Inter-Regular-48"/>
       </defs>
       <use xlink:href="#Inter-Regular-48"/>
      </g>
     </g>
    </g>
    <g id="xtick_2">
     <g id="line2d_3">
      <path clip-path="url(#p6a937ff2ed)" d="M 294.515 301.48 
L 294.515 51.0736 
" style="fill:none;stroke:#e5e7eb;stroke-dasharray:3.7,1.6;stroke-dashoffset:0;"/>
     </g>
     <g id="line2d_4">
      <g>
       <use style="stroke:#000000;stroke-width:0.8;" x="294.515" xlink:href="#m886c1d6223" y="301.48"/>
      </g>
     </g>
     <g id="text_2">
      <!-- 15 -->
      <g transform="translate(289.1525 315.753437)scale(0.1 -0.1)">
       <defs>
        <path d="M 33.09375 72.734375 
L 24.296875 72.734375 
L 6.109375 60.65625 
L 6.109375 51.703125 
L 23.859375 63.5 
L 24.296875 63.5 
L 24.296875 0 
L 33.09375 0 
z
" id="Inter-Regular-49"/>
        <path d="M 30.25 -1 
C 44.109375 -1 54.265625 9.234375 54.265625 23.15625 
C 54.265625 37.25 44.46875 47.578125 31.109375 47.578125 
C 26.203125 47.578125 21.453125 45.84375 18.46875 43.46875 
L 18.046875 43.46875 
L 20.59375 64.921875 
L 51 64.921875 
L 51 72.734375 
L 13.21875 72.734375 
L 8.8125 36.9375 
L 17.046875 35.9375 
C 20.0625 38.109375 25.21875 39.671875 29.6875 39.625 
C 38.953125 39.5625 45.734375 32.53125 45.734375 23.015625 
C 45.734375 13.671875 39.203125 6.8125 30.25 6.8125 
C 22.796875 6.8125 16.875 11.609375 16.1875 18.1875 
L 7.671875 18.1875 
C 8.203125 7.109375 17.75 -1 30.25 -1 
z
" id="Inter-Regular-53"/>
       </defs>
       <use xlink:href="#Inter-Regular-49"/>
       <use x="46.448868" xlink:href="#Inter-Regular-53"/>
      </g>
     </g>
    </g>
    <g id="xtick_3">
     <g id="line2d_5">
      <path clip-path="url(#p6a937ff2ed)" d="M 558.9 301.48 
L 558.9 51.0736 
" style="fill:none;stroke:#e5e7eb;stroke-dasharray:3.7,1.6;stroke-dashoffset:0;"/>
     </g>
     <g id="line2d_6">
      <g>
       <use style="stroke:#000000;stroke-width:0.8;" x="558.9" xlink:href="#m886c1d6223" y="301.48"/>
      </g>
     </g>
     <g id="text_3">
      <!-- 30 -->
      <g transform="translate(552.592969 315.753437)scale(0.1 -0.1)">
       <defs>
        <path d="M 32.109375 -1 
C 46.203125 -1 56.671875 7.84375 56.671875 19.75 
C 56.671875 28.984375 51.203125 35.6875 42.046875 37.21875 
L 42.046875 37.78125 
C 49.390625 40.015625 53.984375 46.0625 53.984375 54.265625 
C 53.984375 64.5625 45.84375 73.71875 32.390625 73.71875 
C 19.8125 73.71875 9.375 65.984375 8.953125 54.546875 
L 17.46875 54.546875 
C 17.796875 61.796875 24.6875 66.046875 32.25 66.046875 
C 40.265625 66.046875 45.453125 61.1875 45.453125 53.828125 
C 45.453125 46.171875 39.453125 41.1875 30.828125 41.1875 
L 25 41.1875 
L 25 33.375 
L 30.828125 33.375 
C 41.875 33.375 48.015625 27.765625 48.015625 19.75 
C 48.015625 12.03125 41.296875 6.8125 31.96875 6.8125 
C 23.546875 6.8125 16.875 11.15625 16.34375 18.1875 
L 7.390625 18.1875 
C 7.921875 6.75 18 -1 32.109375 -1 
z
" id="Inter-Regular-51"/>
       </defs>
       <use xlink:href="#Inter-Regular-51"/>
       <use x="63.636383" xlink:href="#Inter-Regular-48"/>
      </g>
     </g>
    </g>
    <g id="text_4">
     <!-- Orbit Position $s$ / m -->
     <g transform="translate(249.465 329.072187)scale(0.1 -0.1)">
      <defs>
       <path d="M 70.171875 36.359375 
C 70.171875 59.375 56.671875 73.71875 38.0625 73.71875 
C 19.46875 73.71875 5.96875 59.375 5.96875 36.359375 
C 5.96875 13.359375 19.46875 -1 38.0625 -1 
C 56.671875 -1 70.171875 13.359375 70.171875 36.359375 
z
M 61.65625 36.359375 
C 61.65625 17.46875 51.28125 7.25 38.0625 7.25 
C 24.859375 7.25 14.484375 17.46875 14.484375 36.359375 
C 14.484375 55.25 24.859375 65.484375 38.0625 65.484375 
C 51.28125 65.484375 61.65625 55.25 61.65625 36.359375 
z
" id="Inter-Regular-79"/>
       <path d="M 7.671875 0 
L 16.046875 0 
L 16.046875 34.515625 
C 16.046875 41.90625 21.875 47.296875 29.828125 47.296875 
C 32.0625 47.296875 34.375 46.875 34.9375 46.734375 
L 34.9375 55.25 
C 33.984375 55.328125 31.78125 55.390625 30.546875 55.390625 
C 24 55.390625 18.328125 51.703125 16.34375 46.3125 
L 15.765625 46.3125 
L 15.765625 54.546875 
L 7.671875 54.546875 
z
" id="Inter-Regular-114"/>
       <path d="M 8.8125 0 
L 16.90625 0 
L 16.90625 8.375 
L 17.90625 8.375 
C 19.75 5.390625 23.296875 -1.140625 33.8125 -1.140625 
C 47.4375 -1.140625 56.96875 9.796875 56.96875 27.125 
C 56.96875 44.3125 47.4375 55.25 33.671875 55.25 
C 23.015625 55.25 19.75 48.71875 17.90625 45.875 
L 17.1875 45.875 
L 17.1875 72.734375 
L 8.8125 72.734375 
z
M 17.046875 27.265625 
C 17.046875 39.484375 22.4375 47.734375 32.671875 47.734375 
C 43.328125 47.734375 48.578125 38.78125 48.578125 27.265625 
C 48.578125 15.625 43.1875 6.390625 32.671875 6.390625 
C 22.59375 6.390625 17.046875 14.921875 17.046875 27.265625 
z
" id="Inter-Regular-98"/>
       <path d="M 11.9375 63.640625 
C 15.203125 63.640625 17.90625 66.1875 17.90625 69.3125 
C 17.90625 72.4375 15.203125 75 11.9375 75 
C 8.671875 75 5.96875 72.4375 5.96875 69.3125 
C 5.96875 66.1875 8.671875 63.640625 11.9375 63.640625 
z
M 7.671875 0 
L 16.046875 0 
L 16.046875 54.546875 
L 7.671875 54.546875 
z
" id="Inter-Regular-105"/>
       <path d="M 31.390625 54.546875 
L 19.75 54.546875 
L 19.75 67.609375 
L 11.359375 67.609375 
L 11.359375 54.546875 
L 3.125 54.546875 
L 3.125 47.4375 
L 11.359375 47.4375 
L 11.359375 13.359375 
C 11.359375 3.828125 19.03125 -0.703125 26.140625 -0.703125 
C 29.265625 -0.703125 31.25 -0.140625 32.390625 0.28125 
L 30.6875 7.8125 
C 29.96875 7.671875 28.84375 7.390625 26.984375 7.390625 
C 23.296875 7.390625 19.75 8.515625 19.75 15.625 
L 19.75 47.4375 
L 31.390625 47.4375 
z
" id="Inter-Regular-116"/>
       <path id="Inter-Regular-32"/>
       <path d="M 8.8125 0 
L 17.609375 0 
L 17.609375 26.5625 
L 33.53125 26.5625 
C 50.46875 26.5625 58.09375 36.859375 58.09375 49.71875 
C 58.09375 62.578125 50.46875 72.734375 33.375 72.734375 
L 8.8125 72.734375 
z
M 33.09375 64.921875 
C 44.921875 64.921875 49.4375 58.453125 49.4375 49.71875 
C 49.4375 40.984375 44.921875 34.375 33.234375 34.375 
L 17.609375 34.375 
L 17.609375 64.921875 
z
" id="Inter-Regular-80"/>
       <path d="M 29.828125 -1.140625 
C 44.609375 -1.140625 54.546875 10.078125 54.546875 26.984375 
C 54.546875 44.03125 44.609375 55.25 29.828125 55.25 
C 15.0625 55.25 5.109375 44.03125 5.109375 26.984375 
C 5.109375 10.078125 15.0625 -1.140625 29.828125 -1.140625 
z
M 29.828125 6.390625 
C 18.609375 6.390625 13.5 16.046875 13.5 26.984375 
C 13.5 37.921875 18.609375 47.734375 29.828125 47.734375 
C 41.046875 47.734375 46.171875 37.921875 46.171875 26.984375 
C 46.171875 16.046875 41.046875 6.390625 29.828125 6.390625 
z
" id="Inter-Regular-111"/>
       <path d="M 46.3125 42.328125 
C 43.6875 50.078125 37.78125 55.25 26.984375 55.25 
C 15.484375 55.25 6.96875 48.71875 6.96875 39.484375 
C 6.96875 31.953125 11.4375 26.921875 21.453125 24.578125 
L 30.546875 22.4375 
C 36.046875 21.171875 38.640625 18.53125 38.640625 14.765625 
C 38.640625 10.078125 33.671875 6.25 25.859375 6.25 
C 19 6.25 14.703125 9.203125 13.21875 15.0625 
L 5.25 13.0625 
C 7.203125 3.796875 14.84375 -1.140625 26 -1.140625 
C 38.671875 -1.140625 47.296875 5.78125 47.296875 15.203125 
C 47.296875 22.796875 42.546875 27.59375 32.8125 29.96875 
L 24.71875 31.953125 
C 18.25 33.5625 15.34375 35.71875 15.34375 39.921875 
C 15.34375 44.609375 20.3125 48.015625 26.984375 48.015625 
C 34.3125 48.015625 37.328125 43.96875 38.78125 40.203125 
z
" id="Inter-Regular-115"/>
       <path d="M 16.046875 32.8125 
C 16.046875 42.328125 21.953125 47.734375 29.96875 47.734375 
C 37.75 47.734375 42.46875 42.65625 42.46875 34.09375 
L 42.46875 0 
L 50.859375 0 
L 50.859375 34.65625 
C 50.859375 48.578125 43.4375 55.25 32.390625 55.25 
C 24.15625 55.25 19.03125 51.5625 16.484375 46.015625 
L 15.765625 46.015625 
L 15.765625 54.546875 
L 7.671875 54.546875 
L 7.671875 0 
L 16.046875 0 
z
" id="Inter-Regular-110"/>
       <path d="M 50 53.078125 
L 48.296875 44.578125 
Q 44.734375 46.53125 40.765625 47.5 
Q 36.8125 48.484375 32.625 48.484375 
Q 25.53125 48.484375 21.453125 46.0625 
Q 17.390625 43.65625 17.390625 39.5 
Q 17.390625 34.671875 26.859375 32.078125 
Q 27.59375 31.890625 27.9375 31.78125 
L 30.8125 30.90625 
Q 39.796875 28.421875 42.796875 25.6875 
Q 45.796875 22.953125 45.796875 18.21875 
Q 45.796875 9.515625 38.890625 4.046875 
Q 31.984375 -1.421875 20.796875 -1.421875 
Q 16.453125 -1.421875 11.671875 -0.578125 
Q 6.890625 0.25 1.125 2 
L 2.875 11.28125 
Q 7.8125 8.734375 12.59375 7.421875 
Q 17.390625 6.109375 21.78125 6.109375 
Q 28.375 6.109375 32.5 8.9375 
Q 36.625 11.765625 36.625 16.109375 
Q 36.625 20.796875 25.78125 23.6875 
L 24.859375 23.921875 
L 21.78125 24.703125 
Q 14.9375 26.515625 11.765625 29.46875 
Q 8.59375 32.421875 8.59375 37.015625 
Q 8.59375 45.75 15.15625 50.875 
Q 21.734375 56 33.015625 56 
Q 37.453125 56 41.671875 55.265625 
Q 45.90625 54.546875 50 53.078125 
z
" id="DejaVuSans-Oblique-115"/>
       <path d="M 33.375 76.140625 
L 25.71875 76.140625 
L 2.28125 -10.9375 
L 9.9375 -10.9375 
z
" id="Inter-Regular-47"/>
       <path d="M 7.671875 0 
L 16.046875 0 
L 16.046875 34.09375 
C 16.046875 42.078125 21.875 47.734375 28.40625 47.734375 
C 34.765625 47.734375 39.203125 43.578125 39.203125 37.359375 
L 39.203125 0 
L 47.734375 0 
L 47.734375 35.515625 
C 47.734375 42.546875 52.125 47.734375 59.796875 47.734375 
C 65.765625 47.734375 70.875 44.5625 70.875 36.5 
L 70.875 0 
L 79.265625 0 
L 79.265625 36.5 
C 79.265625 49.328125 72.375 55.25 62.640625 55.25 
C 54.828125 55.25 49.109375 51.671875 46.3125 46.015625 
L 45.734375 46.015625 
C 43.046875 51.84375 38.28125 55.25 31.109375 55.25 
C 24 55.25 18.75 51.84375 16.484375 46.015625 
L 15.765625 46.015625 
L 15.765625 54.546875 
L 7.671875 54.546875 
z
" id="Inter-Regular-109"/>
      </defs>
      <use transform="translate(0 0.859375)" xlink:href="#Inter-Regular-79"/>
      <use transform="translate(76.136383 0.859375)" xlink:href="#Inter-Regular-114"/>
      <use transform="translate(113.352295 0.859375)" xlink:href="#Inter-Regular-98"/>
      <use transform="translate(175.426178 0.859375)" xlink:href="#Inter-Regular-105"/>
      <use transform="translate(199.147766 0.859375)" xlink:href="#Inter-Regular-116"/>
      <use transform="translate(235.511414 0.859375)" xlink:href="#Inter-Regular-32"/>
      <use transform="translate(263.636414 0.859375)" xlink:href="#Inter-Regular-80"/>
      <use transform="translate(327.130737 0.859375)" xlink:href="#Inter-Regular-111"/>
      <use transform="translate(386.789841 0.859375)" xlink:href="#Inter-Regular-115"/>
      <use transform="translate(439.062576 0.859375)" xlink:href="#Inter-Regular-105"/>
      <use transform="translate(462.784164 0.859375)" xlink:href="#Inter-Regular-116"/>
      <use transform="translate(499.147812 0.859375)" xlink:href="#Inter-Regular-105"/>
      <use transform="translate(522.8694 0.859375)" xlink:href="#Inter-Regular-111"/>
      <use transform="translate(582.528503 0.859375)" xlink:href="#Inter-Regular-110"/>
      <use transform="translate(641.051239 0.859375)" xlink:href="#Inter-Regular-32"/>
      <use transform="translate(669.176239 0.859375)" xlink:href="#DejaVuSans-Oblique-115"/>
      <use transform="translate(721.275848 0.859375)" xlink:href="#Inter-Regular-32"/>
      <use transform="translate(749.400848 0.859375)" xlink:href="#Inter-Regular-47"/>
      <use transform="translate(785.05426 0.859375)" xlink:href="#Inter-Regular-32"/>
      <use transform="translate(813.17926 0.859375)" xlink:href="#Inter-Regular-109"/>
     </g>
    </g>
   </g>
   <g id="matplotlib.axis_2">
    <g id="ytick_1">
     <g id="line2d_7">
      <path clip-path="url(#p6a937ff2ed)" d="M 30.13 272.864084 
L 558.9 272.864084 
" style="fill:none;stroke:#e5e7eb;stroke-dasharray:3.7,1.6;stroke-dashoffset:0;"/>
     </g>
     <g id="line2d_8">
      <defs>
       <path d="M 0 0 
L -3.5 0 
" id="m194185d877" style="stroke:#000000;stroke-width:0.8;"/>
      </defs>
      <g>
       <use style="stroke:#000000;stroke-width:0.8;" x="30.13" xlink:href="#m194185d877" y="272.864084"/>
      </g>
     </g>
     <g id="text_5">
      <!-- 0 -->
      <g transform="translate(16.88 276.500802)scale(0.1 -0.1)">
       <use xlink:href="#Inter-Regular-48"/>
      </g>
     </g>
    </g>
    <g id="ytick_2">
     <g id="line2d_9">
      <path clip-path="url(#p6a937ff2ed)" d="M 30.13 225.290437 
L 558.9 225.290437 
" style="fill:none;stroke:#e5e7eb;stroke-dasharray:3.7,1.6;stroke-dashoffset:0;"/>
     </g>
     <g id="line2d_10">
      <g>
       <use style="stroke:#000000;stroke-width:0.8;" x="30.13" xlink:href="#m194185d877" y="225.290437"/>
      </g>
     </g>
     <g id="text_6">
      <!-- 5 -->
      <g transform="translate(17.050313 228.927156)scale(0.1 -0.1)">
       <use xlink:href="#Inter-Regular-53"/>
      </g>
     </g>
    </g>
    <g id="ytick_3">
     <g id="line2d_11">
      <path clip-path="url(#p6a937ff2ed)" d="M 30.13 177.71679 
L 558.9 177.71679 
" style="fill:none;stroke:#e5e7eb;stroke-dasharray:3.7,1.6;stroke-dashoffset:0;"/>
     </g>
     <g id="line2d_12">
      <g>
       <use style="stroke:#000000;stroke-width:0.8;" x="30.13" xlink:href="#m194185d877" y="177.71679"/>
      </g>
     </g>
     <g id="text_7">
      <!-- 10 -->
      <g transform="translate(12.234688 181.353509)scale(0.1 -0.1)">
       <use xlink:href="#Inter-Regular-49"/>
       <use x="46.448868" xlink:href="#Inter-Regular-48"/>
      </g>
     </g>
    </g>
    <g id="ytick_4">
     <g id="line2d_13">
      <path clip-path="url(#p6a937ff2ed)" d="M 30.13 130.143144 
L 558.9 130.143144 
" style="fill:none;stroke:#e5e7eb;stroke-dasharray:3.7,1.6;stroke-dashoffset:0;"/>
     </g>
     <g id="line2d_14">
      <g>
       <use style="stroke:#000000;stroke-width:0.8;" x="30.13" xlink:href="#m194185d877" y="130.143144"/>
      </g>
     </g>
     <g id="text_8">
      <!-- 15 -->
      <g transform="translate(12.405 133.779863)scale(0.1 -0.1)">
       <use xlink:href="#Inter-Regular-49"/>
       <use x="46.448868" xlink:href="#Inter-Regular-53"/>
      </g>
     </g>
    </g>
    <g id="ytick_5">
     <g id="line2d_15">
      <path clip-path="url(#p6a937ff2ed)" d="M 30.13 82.569497 
L 558.9 82.569497 
" style="fill:none;stroke:#e5e7eb;stroke-dasharray:3.7,1.6;stroke-dashoffset:0;"/>
     </g>
     <g id="line2d_16">
      <g>
       <use style="stroke:#000000;stroke-width:0.8;" x="30.13" xlink:href="#m194185d877" y="82.569497"/>
      </g>
     </g>
     <g id="text_9">
      <!-- 20 -->
      <g transform="translate(10.828438 86.206216)scale(0.1 -0.1)">
       <defs>
        <path d="M 7.53125 0 
L 53.40625 0 
L 53.40625 7.8125 
L 19.609375 7.8125 
L 19.609375 8.375 
L 35.9375 25.859375 
C 48.4375 39.234375 52.125 45.484375 52.125 53.546875 
C 52.125 64.765625 43.046875 73.71875 30.25 73.71875 
C 17.515625 73.71875 7.8125 65.0625 7.8125 52.265625 
L 16.1875 52.265625 
C 16.1875 60.546875 21.5625 66.046875 29.96875 66.046875 
C 37.859375 66.046875 43.890625 61.21875 43.890625 53.546875 
C 43.890625 46.84375 39.953125 41.875 31.53125 32.671875 
L 7.53125 6.390625 
z
" id="Inter-Regular-50"/>
       </defs>
       <use xlink:href="#Inter-Regular-50"/>
       <use x="60.511383" xlink:href="#Inter-Regular-48"/>
      </g>
     </g>
    </g>
   </g>
   <g id="patch_3">
    <path d="M 30.13 301.48 
L 30.13 51.0736 
" style="fill:none;stroke:#000000;stroke-linecap:square;stroke-linejoin:miter;stroke-width:0.8;"/>
   </g>
   <g id="patch_4">
    <path d="M 558.9 301.48 
L 558.9 51.0736 
" style="fill:none;stroke:#000000;stroke-linecap:square;stroke-linejoin:miter;stroke-width:0.8;"/>
   </g>
   <g id="patch_5">
    <path d="M 30.13 301.48 
L 558.9 301.48 
" style="fill:none;stroke:#000000;stroke-linecap:square;stroke-linejoin:miter;stroke-width:0.8;"/>
   </g>
   <g id="patch_6">
    <path d="M 30.13 51.0736 
L 558.9 51.0736 
" style="fill:none;stroke:#000000;stroke-linecap:square;stroke-linejoin:miter;stroke-width:0.8;"/>
   </g>
   <g id="legend_1">
    <g id="line2d_17">
     <path d="M 39.13 22.95328 
L 59.13 22.95328 
" style="fill:none;stroke:#ef4444;stroke-linecap:square;stroke-width:1.3;"/>
    </g>
    <g id="line2d_18"/>
    <g id="text_10">
     <!-- $\beta_x$ / m -->
     <g transform="translate(67.13 26.45328)scale(0.1 -0.1)">
      <defs>
       <path d="M 13.625 3.375 
L 8.9375 -20.796875 
L -0.09375 -20.796875 
L 14.5 54.34375 
Q 18.84375 76.609375 39.65625 76.609375 
Q 60.75 76.609375 57.171875 57.8125 
Q 54.734375 44.4375 45.21875 39.546875 
Q 58.015625 35.15625 55.515625 22.125 
Q 51.125 -1.078125 27.484375 -1.03125 
Q 17.140625 -0.984375 13.625 3.375 
z
M 15.921875 15.09375 
Q 19.671875 6.59375 29.296875 6.640625 
Q 43.359375 6.640625 46.34375 21.96875 
Q 49.03125 35.75 26.171875 34.671875 
L 27.78125 42.96875 
Q 45.453125 42.671875 48.53125 58.59375 
Q 50.640625 69.34375 39.203125 69.28125 
Q 26.421875 69.28125 23.484375 54.046875 
z
" id="DejaVuSans-Oblique-946"/>
       <path d="M 60.015625 54.6875 
L 34.90625 27.875 
L 50.296875 0 
L 39.984375 0 
L 28.421875 21.6875 
L 8.296875 0 
L -2.59375 0 
L 24.3125 28.8125 
L 10.015625 54.6875 
L 20.3125 54.6875 
L 30.8125 34.90625 
L 49.125 54.6875 
z
" id="DejaVuSans-Oblique-120"/>
      </defs>
      <use transform="translate(0 0.390625)" xlink:href="#DejaVuSans-Oblique-946"/>
      <use transform="translate(63.818359 -16.015625)scale(0.7)" xlink:href="#DejaVuSans-Oblique-120"/>
      <use transform="translate(107.978516 0.390625)" xlink:href="#Inter-Regular-32"/>
      <use transform="translate(136.103516 0.390625)" xlink:href="#Inter-Regular-47"/>
      <use transform="translate(171.756927 0.390625)" xlink:href="#Inter-Regular-32"/>
      <use transform="translate(199.881927 0.390625)" xlink:href="#Inter-Regular-109"/>
     </g>
    </g>
    <g id="line2d_19">
     <path d="M 259.315 22.95328 
L 279.315 22.95328 
" style="fill:none;stroke:#3b82f6;stroke-linecap:square;stroke-width:1.3;"/>
    </g>
    <g id="line2d_20"/>
    <g id="text_11">
     <!-- $\beta_y$ / m -->
     <g transform="translate(287.315 26.45328)scale(0.1 -0.1)">
      <defs>
       <path d="M 24.8125 -5.078125 
Q 18.5625 -15.578125 14.625 -18.1875 
Q 10.6875 -20.796875 4.59375 -20.796875 
L -2.484375 -20.796875 
L -0.984375 -13.28125 
L 4.203125 -13.28125 
Q 7.953125 -13.28125 10.59375 -11.234375 
Q 13.234375 -9.1875 16.5 -3.21875 
L 19.28125 2 
L 7.171875 54.6875 
L 16.703125 54.6875 
L 25.78125 12.796875 
L 50.875 54.6875 
L 60.296875 54.6875 
z
" id="DejaVuSans-Oblique-121"/>
      </defs>
      <use transform="translate(0 0.390625)" xlink:href="#DejaVuSans-Oblique-946"/>
      <use transform="translate(63.818359 -16.015625)scale(0.7)" xlink:href="#DejaVuSans-Oblique-121"/>
      <use transform="translate(107.978516 0.390625)" xlink:href="#Inter-Regular-32"/>
      <use transform="translate(136.103516 0.390625)" xlink:href="#Inter-Regular-47"/>
      <use transform="translate(171.756927 0.390625)" xlink:href="#Inter-Regular-32"/>
      <use transform="translate(199.881927 0.390625)" xlink:href="#Inter-Regular-109"/>
     </g>
    </g>
    <g id="line2d_21">
     <path d="M 479.5 22.95328 
L 499.5 22.95328 
" style="fill:none;stroke:#10b981;stroke-linecap:square;stroke-width:1.3;"/>
    </g>
    <g id="line2d_22"/>
    <g id="text_12">
     <!-- 10 $\eta_x$ / m -->
     <g transform="translate(507.5 26.45328)scale(0.1 -0.1)">
      <defs>
       <path d="M 57.859375 33.015625 
L 47.40625 -20.796875 
L 38.421875 -20.796875 
L 48.828125 32.71875 
Q 50.34375 40.484375 48.046875 44.34375 
Q 45.796875 48.1875 39.75 48.1875 
Q 32.46875 48.1875 27.34375 43.5625 
Q 22.265625 38.921875 20.703125 30.90625 
L 14.703125 0 
L 5.671875 0 
L 16.3125 54.6875 
L 25.34375 54.6875 
L 23.6875 46.1875 
Q 27.828125 51.125 32.71875 53.5625 
Q 37.546875 56 43.265625 56 
Q 52.6875 56 56.390625 50.203125 
Q 60.0625 44.34375 57.859375 33.015625 
z
" id="DejaVuSans-Oblique-951"/>
      </defs>
      <use transform="translate(0 0.859375)" xlink:href="#Inter-Regular-49"/>
      <use transform="translate(46.448868 0.859375)" xlink:href="#Inter-Regular-48"/>
      <use transform="translate(108.948883 0.859375)" xlink:href="#Inter-Regular-32"/>
      <use transform="translate(137.073883 0.859375)" xlink:href="#DejaVuSans-Oblique-951"/>
      <use transform="translate(200.452789 -15.546875)scale(0.7)" xlink:href="#DejaVuSans-Oblique-120"/>
      <use transform="translate(244.612946 0.859375)" xlink:href="#Inter-Regular-32"/>
      <use transform="translate(272.737946 0.859375)" xlink:href="#Inter-Regular-47"/>
      <use transform="translate(308.391357 0.859375)" xlink:href="#Inter-Regular-32"/>
      <use transform="translate(336.516357 0.859375)" xlink:href="#Inter-Regular-109"/>
     </g>
    </g>
   </g>
   <g id="line2d_23">
    <path clip-path="url(#p6a937ff2ed)" d="M 30.13 230.081087 
L 35.505828 230.165323 
L 36.387112 230.505626 
L 37.268395 231.105442 
L 38.149678 231.961098 
L 39.207218 233.318103 
L 54.277163 254.988515 
L 56.215987 257.208125 
L 65.370061 266.800971 
L 67.472844 268.583333 
L 69.400395 269.94683 
L 71.327946 271.050856 
L 73.255497 271.894714 
L 75.007817 272.435641 
L 76.760136 272.76083 
L 78.512455 272.870111 
L 236.614685 272.877416 
L 247.884864 272.76083 
L 249.637183 272.435641 
L 251.389503 271.894714 
L 253.317054 271.050856 
L 255.244605 269.94683 
L 257.172156 268.583333 
L 259.274939 266.800971 
L 261.378747 264.710358 
L 270.367837 254.988515 
L 272.130403 252.616723 
L 286.495322 231.961098 
L 287.552862 230.964871 
L 288.434145 230.416714 
L 289.315428 230.128616 
L 290.372968 230.081353 
L 299.890828 230.164635 
L 300.772112 230.50483 
L 301.653395 231.104544 
L 302.534678 231.960102 
L 303.592218 233.316999 
L 318.662163 254.985908 
L 320.600987 257.205244 
L 329.755061 266.796667 
L 331.857844 268.578698 
L 333.785395 269.941894 
L 335.712946 271.045623 
L 337.640497 271.889186 
L 339.392817 272.429849 
L 341.145136 272.754777 
L 342.897455 272.8638 
L 511.043241 272.853769 
L 512.79556 272.679963 
L 514.547879 272.290292 
L 516.300198 271.684958 
L 518.227749 270.770381 
L 520.155301 269.595813 
L 522.082852 268.161995 
L 524.185635 266.303223 
L 526.468773 263.956273 
L 534.752837 254.985908 
L 536.515403 252.614312 
L 550.880322 231.960102 
L 551.937862 230.963993 
L 552.819145 230.41594 
L 553.700428 230.12795 
L 554.757968 230.080822 
L 558.9 230.081087 
L 558.9 230.081087 
" style="fill:none;stroke:#10b981;stroke-linecap:square;stroke-width:1.3;"/>
   </g>
   <g id="line2d_24">
    <path clip-path="url(#p6a937ff2ed)" d="M 30.13 198.868075 
L 34.977058 198.753184 
L 35.505828 198.458511 
L 36.034598 197.831598 
L 36.563368 196.866908 
L 37.268395 195.040054 
L 37.973422 192.5685 
L 38.854705 188.512274 
L 40.257465 180.383855 
L 42.883082 163.952667 
L 45.517207 146.078635 
L 48.325374 125.49081 
L 51.29274 102.016927 
L 53.572137 84.06059 
L 54.277163 80.229738 
L 54.98219 77.53823 
L 55.51096 76.287468 
L 55.863473 75.824444 
L 56.5685 75.457364 
L 63.792974 72.159169 
L 72.55457 72.232934 
L 78.688712 72.242647 
L 86.267748 76.036649 
L 86.620262 76.677492 
L 87.149032 78.228451 
L 87.677802 80.47664 
L 88.382828 84.529848 
L 89.264112 91.216594 
L 90.321652 101.434393 
L 93.018379 129.091197 
L 95.485972 152.244148 
L 97.861031 172.584838 
L 99.416496 184.554881 
L 100.650292 192.324438 
L 101.884089 198.662194 
L 103.117886 203.743472 
L 104.175426 207.206208 
L 105.232966 209.919925 
L 106.114249 211.649384 
L 106.995532 212.921601 
L 108.190773 214.137654 
L 112.336109 218.038273 
L 116.384995 221.548293 
L 120.433127 224.761433 
L 124.305254 227.557706 
L 128.177381 230.082976 
L 132.049508 232.33724 
L 135.745629 234.236232 
L 139.44175 235.888295 
L 143.137871 237.293431 
L 146.657987 238.402086 
L 150.178102 239.28677 
L 153.698217 239.947484 
L 157.218333 240.384227 
L 160.738448 240.596999 
L 164.258563 240.5858 
L 167.778679 240.350631 
L 171.298794 239.891491 
L 174.818909 239.208381 
L 178.339025 238.3013 
L 181.85914 237.170248 
L 185.555261 235.741595 
L 189.251382 234.066014 
L 192.947504 232.143506 
L 196.643625 229.97407 
L 200.515752 227.436482 
L 204.387878 224.62789 
L 208.260005 221.548293 
L 212.308891 218.038273 
L 216.454227 214.137654 
L 218.001981 212.466295 
L 218.883264 211.013687 
L 219.764548 209.094875 
L 220.645831 206.682805 
L 221.703371 203.088825 
L 222.760911 198.662194 
L 223.818451 193.313 
L 225.052248 185.760162 
L 226.278333 176.669058 
L 228.637969 156.869929 
L 231.097851 134.225824 
L 233.649167 108.579067 
L 235.380888 91.216594 
L 236.262172 84.529848 
L 236.967198 80.47664 
L 237.672225 77.633333 
L 238.200995 76.317542 
L 238.553508 75.835038 
L 239.258535 75.46517 
L 246.483009 72.163114 
L 255.244605 72.232069 
L 261.378747 72.238415 
L 268.957783 76.01872 
L 269.310297 76.630486 
L 269.839067 78.102267 
L 270.367837 80.229738 
L 271.072863 84.06059 
L 271.954147 90.379283 
L 276.145075 124.158887 
L 279.127793 146.078635 
L 281.93696 165.091102 
L 284.562576 181.430099 
L 286.142808 190.268786 
L 287.024092 193.887048 
L 287.729118 196.032043 
L 288.434145 197.547924 
L 288.962915 198.286669 
L 289.491685 198.691655 
L 290.020455 198.784626 
L 295.356225 198.866017 
L 299.362058 198.761587 
L 299.890828 198.467863 
L 300.419598 197.841946 
L 300.948368 196.878307 
L 301.653395 195.052959 
L 302.358422 192.583049 
L 303.239705 188.529114 
L 304.642465 180.404842 
L 307.268082 163.98226 
L 309.902207 146.117928 
L 312.710374 125.54162 
L 315.67774 102.081224 
L 317.957137 84.135665 
L 318.662163 80.30753 
L 319.36719 77.618298 
L 319.89596 76.368938 
L 320.248473 75.906695 
L 320.9535 75.540949 
L 328.177974 72.256252 
L 336.93957 72.344342 
L 343.073712 72.363956 
L 350.652748 76.20247 
L 351.005262 76.947715 
L 351.534032 78.782984 
L 352.062802 81.464118 
L 352.767828 86.312636 
L 353.649112 94.308984 
L 354.706652 106.47749 
L 357.066288 135.116979 
L 359.342202 160.159245 
L 361.571849 182.234732 
L 363.448982 198.756003 
L 364.506522 206.097092 
L 365.564062 211.846716 
L 366.445346 215.581019 
L 367.326629 218.460299 
L 368.207912 220.560181 
L 368.912939 221.716631 
L 369.617966 222.429354 
L 370.146736 222.680176 
L 370.675506 222.690651 
L 371.204276 222.46088 
L 371.733046 221.988691 
L 375.487313 217.598053 
L 379.272425 212.830506 
L 380.475376 211.38719 
L 381.004146 211.112372 
L 381.532916 211.123549 
L 382.061686 211.420616 
L 382.590456 212.000796 
L 383.295483 213.20501 
L 388.568638 224.211916 
L 391.73223 230.140599 
L 394.720068 235.268815 
L 397.53215 239.677322 
L 400.344232 243.68045 
L 402.980558 247.065215 
L 405.616885 250.093689 
L 408.077457 252.598811 
L 410.538029 254.793564 
L 412.822845 256.553642 
L 415.107662 258.046105 
L 417.392478 259.270955 
L 419.50154 260.164058 
L 421.610601 260.829134 
L 423.719663 261.266184 
L 425.828724 261.475209 
L 427.937786 261.456206 
L 430.046847 261.209178 
L 432.155909 260.734123 
L 434.26497 260.031042 
L 436.374032 259.099935 
L 438.658848 257.833914 
L 440.943665 256.300279 
L 443.228482 254.49903 
L 445.689053 252.259939 
L 448.149625 249.710478 
L 450.610197 246.850649 
L 453.246524 243.442131 
L 455.88285 239.677322 
L 458.694932 235.268815 
L 461.507014 230.454927 
L 464.494852 224.895995 
L 467.658444 218.511259 
L 470.824544 212.000796 
L 471.353314 211.420616 
L 471.882084 211.123549 
L 472.410854 211.112372 
L 472.939624 211.38719 
L 473.468394 211.945432 
L 477.398917 216.952604 
L 481.176318 221.416965 
L 482.210724 222.46088 
L 482.739494 222.690651 
L 483.268264 222.680176 
L 483.797034 222.429354 
L 484.325804 221.935818 
L 485.030831 220.891825 
L 485.735858 219.39025 
L 486.440884 217.405873 
L 487.322168 214.194866 
L 488.203451 210.092427 
L 489.084734 204.990805 
L 490.142274 197.35922 
L 491.50606 185.360556 
L 493.544028 165.614569 
L 495.659108 142.972437 
L 497.865621 117.018623 
L 499.942145 92.545504 
L 500.823428 84.967359 
L 501.528455 80.477736 
L 502.233482 77.464326 
L 502.762252 76.20247 
L 503.114765 75.843486 
L 510.868009 72.283625 
L 519.629605 72.338333 
L 525.763747 72.33459 
L 533.342783 76.100595 
L 533.695297 76.711518 
L 534.224067 78.181809 
L 534.752837 80.30753 
L 535.457863 84.135665 
L 536.339147 90.45039 
L 540.530075 124.210452 
L 543.512793 146.117928 
L 546.32196 165.120089 
L 548.947576 181.450549 
L 550.527808 190.284675 
L 551.409092 193.900756 
L 552.114118 196.044179 
L 552.819145 197.558616 
L 553.347915 198.296347 
L 553.876685 198.700369 
L 554.405455 198.792415 
L 558.9 198.868075 
L 558.9 198.868075 
" style="fill:none;stroke:#3b82f6;stroke-linecap:square;stroke-width:1.3;"/>
   </g>
   <g id="patch_7">
    <path d="M 30.13 56.594023 
L 31.980695 56.594023 
L 31.980695 45.553177 
L 30.13 45.553177 
z
" style="fill:#10b981;"/>
   </g>
   <g id="patch_8">
    <path d="M 34.800802 56.594023 
L 39.207218 56.594023 
L 39.207218 45.553177 
L 34.800802 45.553177 
z
" style="fill:#ef4444;"/>
   </g>
   <g id="patch_9">
    <path d="M 44.28341 56.594023 
L 47.103517 56.594023 
L 47.103517 45.553177 
L 44.28341 45.553177 
z
" style="fill:#10b981;"/>
   </g>
   <g id="patch_10">
    <path d="M 52.514597 56.594023 
L 56.03973 56.594023 
L 56.03973 45.553177 
L 52.514597 45.553177 
z
" style="fill:#ef4444;"/>
   </g>
   <g id="patch_11">
    <path d="M 63.44251 56.594023 
L 78.512455 56.594023 
L 78.512455 45.553177 
L 63.44251 45.553177 
z
" style="fill:#fbbf24;"/>
   </g>
   <g id="patch_12">
    <path d="M 85.915235 56.594023 
L 90.321652 56.594023 
L 90.321652 45.553177 
L 85.915235 45.553177 
z
" style="fill:#ef4444;"/>
   </g>
   <g id="patch_13">
    <path d="M 93.018379 56.594023 
L 95.838485 56.594023 
L 95.838485 45.553177 
L 93.018379 45.553177 
z
" style="fill:#10b981;"/>
   </g>
   <g id="patch_14">
    <path d="M 98.535212 56.594023 
L 107.348046 56.594023 
L 107.348046 45.553177 
L 98.535212 45.553177 
z
" style="fill:#ef4444;"/>
   </g>
   <g id="patch_15">
    <path d="M 110.044773 56.594023 
L 112.864879 56.594023 
L 112.864879 45.553177 
L 110.044773 45.553177 
z
" style="fill:#10b981;"/>
   </g>
   <g id="patch_16">
    <path d="M 211.780121 56.594023 
L 214.600227 56.594023 
L 214.600227 45.553177 
L 211.780121 45.553177 
z
" style="fill:#10b981;"/>
   </g>
   <g id="patch_17">
    <path d="M 217.296954 56.594023 
L 226.109788 56.594023 
L 226.109788 45.553177 
L 217.296954 45.553177 
z
" style="fill:#ef4444;"/>
   </g>
   <g id="patch_18">
    <path d="M 228.806515 56.594023 
L 231.626621 56.594023 
L 231.626621 45.553177 
L 228.806515 45.553177 
z
" style="fill:#10b981;"/>
   </g>
   <g id="patch_19">
    <path d="M 234.323348 56.594023 
L 238.729765 56.594023 
L 238.729765 45.553177 
L 234.323348 45.553177 
z
" style="fill:#ef4444;"/>
   </g>
   <g id="patch_20">
    <path d="M 246.132545 56.594023 
L 261.20249 56.594023 
L 261.20249 45.553177 
L 246.132545 45.553177 
z
" style="fill:#fbbf24;"/>
   </g>
   <g id="patch_21">
    <path d="M 268.60527 56.594023 
L 272.130403 56.594023 
L 272.130403 45.553177 
L 268.60527 45.553177 
z
" style="fill:#ef4444;"/>
   </g>
   <g id="patch_22">
    <path d="M 277.541483 56.594023 
L 280.36159 56.594023 
L 280.36159 45.553177 
L 277.541483 45.553177 
z
" style="fill:#10b981;"/>
   </g>
   <g id="patch_23">
    <path d="M 285.437782 56.594023 
L 289.844198 56.594023 
L 289.844198 45.553177 
L 285.437782 45.553177 
z
" style="fill:#ef4444;"/>
   </g>
   <g id="patch_24">
    <path d="M 292.664305 56.594023 
L 296.365695 56.594023 
L 296.365695 45.553177 
L 292.664305 45.553177 
z
" style="fill:#10b981;"/>
   </g>
   <g id="patch_25">
    <path d="M 299.185802 56.594023 
L 303.592218 56.594023 
L 303.592218 45.553177 
L 299.185802 45.553177 
z
" style="fill:#ef4444;"/>
   </g>
   <g id="patch_26">
    <path d="M 308.66841 56.594023 
L 311.488517 56.594023 
L 311.488517 45.553177 
L 308.66841 45.553177 
z
" style="fill:#10b981;"/>
   </g>
   <g id="patch_27">
    <path d="M 316.899597 56.594023 
L 320.42473 56.594023 
L 320.42473 45.553177 
L 316.899597 45.553177 
z
" style="fill:#ef4444;"/>
   </g>
   <g id="patch_28">
    <path d="M 327.82751 56.594023 
L 342.897455 56.594023 
L 342.897455 45.553177 
L 327.82751 45.553177 
z
" style="fill:#fbbf24;"/>
   </g>
   <g id="patch_29">
    <path d="M 350.300235 56.594023 
L 354.706652 56.594023 
L 354.706652 45.553177 
L 350.300235 45.553177 
z
" style="fill:#ef4444;"/>
   </g>
   <g id="patch_30">
    <path d="M 357.403379 56.594023 
L 360.223485 56.594023 
L 360.223485 45.553177 
L 357.403379 45.553177 
z
" style="fill:#10b981;"/>
   </g>
   <g id="patch_31">
    <path d="M 362.920212 56.594023 
L 371.733046 56.594023 
L 371.733046 45.553177 
L 362.920212 45.553177 
z
" style="fill:#ef4444;"/>
   </g>
   <g id="patch_32">
    <path d="M 374.429773 56.594023 
L 377.249879 56.594023 
L 377.249879 45.553177 
L 374.429773 45.553177 
z
" style="fill:#10b981;"/>
   </g>
   <g id="patch_33">
    <path d="M 379.946606 56.594023 
L 383.47174 56.594023 
L 383.47174 45.553177 
L 379.946606 45.553177 
z
" style="fill:#ef4444;"/>
   </g>
   <g id="patch_34">
    <path d="M 469.94326 56.594023 
L 473.468394 56.594023 
L 473.468394 45.553177 
L 469.94326 45.553177 
z
" style="fill:#ef4444;"/>
   </g>
   <g id="patch_35">
    <path d="M 476.165121 56.594023 
L 478.985227 56.594023 
L 478.985227 45.553177 
L 476.165121 45.553177 
z
" style="fill:#10b981;"/>
   </g>
   <g id="patch_36">
    <path d="M 481.681954 56.594023 
L 490.494788 56.594023 
L 490.494788 45.553177 
L 481.681954 45.553177 
z
" style="fill:#ef4444;"/>
   </g>
   <g id="patch_37">
    <path d="M 493.191515 56.594023 
L 496.011621 56.594023 
L 496.011621 45.553177 
L 493.191515 45.553177 
z
" style="fill:#10b981;"/>
   </g>
   <g id="patch_38">
    <path d="M 498.708348 56.594023 
L 503.114765 56.594023 
L 503.114765 45.553177 
L 498.708348 45.553177 
z
" style="fill:#ef4444;"/>
   </g>
   <g id="patch_39">
    <path d="M 510.517545 56.594023 
L 525.58749 56.594023 
L 525.58749 45.553177 
L 510.517545 45.553177 
z
" style="fill:#fbbf24;"/>
   </g>
   <g id="patch_40">
    <path d="M 532.99027 56.594023 
L 536.515403 56.594023 
L 536.515403 45.553177 
L 532.99027 45.553177 
z
" style="fill:#ef4444;"/>
   </g>
   <g id="patch_41">
    <path d="M 541.926483 56.594023 
L 544.74659 56.594023 
L 544.74659 45.553177 
L 541.926483 45.553177 
z
" style="fill:#10b981;"/>
   </g>
   <g id="patch_42">
    <path d="M 549.822782 56.594023 
L 554.229198 56.594023 
L 554.229198 45.553177 
L 549.822782 45.553177 
z
" style="fill:#ef4444;"/>
   </g>
   <g id="patch_43">
    <path d="M 557.049305 56.594023 
L 558.9 56.594023 
L 558.9 45.553177 
L 557.049305 45.553177 
z
" style="fill:#10b981;"/>
   </g>
   <g id="line2d_25">
    <path clip-path="url(#p6a937ff2ed)" d="M 30.13 114.298645 
L 35.153315 114.100492 
L 35.505828 114.539026 
L 36.034598 115.775123 
L 36.563368 117.695029 
L 37.268395 121.288489 
L 38.149678 127.359056 
L 39.030962 135.043166 
L 42.007876 163.02136 
L 44.28341 182.262044 
L 46.574747 199.735262 
L 48.674476 214.072275 
L 50.594536 225.780303 
L 52.514597 236.1488 
L 53.748393 241.79988 
L 54.98219 246.422082 
L 56.215987 250.192183 
L 57.978553 254.80915 
L 59.74112 258.811484 
L 61.32743 261.888075 
L 62.91374 264.466813 
L 64.31867 266.32001 
L 65.720525 267.779209 
L 66.947148 268.74414 
L 68.173772 269.416949 
L 69.225163 269.76061 
L 70.276555 269.888882 
L 71.327946 269.801671 
L 72.379338 269.499041 
L 73.430729 268.98122 
L 74.657353 268.105646 
L 75.883976 266.938602 
L 77.1106 265.481282 
L 78.512455 263.462255 
L 79.922508 261.011881 
L 81.508818 257.785017 
L 83.095128 254.0603 
L 84.857695 249.337825 
L 86.444005 244.511613 
L 87.501545 240.608574 
L 88.559085 235.931744 
L 89.616625 230.344738 
L 90.827288 222.701854 
L 92.681288 209.472948 
L 94.604689 194.076953 
L 96.681213 175.543955 
L 98.887726 153.742515 
L 100.650292 137.224306 
L 102.060346 126.088976 
L 103.117886 119.219099 
L 104.175426 113.776156 
L 105.056709 110.410802 
L 105.761736 108.519807 
L 106.290506 107.580686 
L 106.819276 107.057726 
L 107.171789 106.941682 
L 108.190773 107.1206 
L 116.032983 108.551158 
L 123.953243 109.769174 
L 131.873502 110.759287 
L 139.793762 111.521496 
L 147.714021 112.055803 
L 155.458275 112.357873 
L 163.202529 112.442056 
L 170.946783 112.308353 
L 178.691036 111.956763 
L 186.43529 111.387287 
L 194.35555 110.579497 
L 202.275809 109.543803 
L 210.196069 108.280207 
L 217.825724 107.057726 
L 218.178238 107.359951 
L 218.707008 108.160777 
L 219.235778 109.374823 
L 219.940804 111.62541 
L 220.822088 115.424499 
L 221.703371 120.268398 
L 222.760911 127.363319 
L 223.994708 137.224306 
L 225.581018 151.98361 
L 228.982771 184.886372 
L 231.097851 202.752817 
L 233.14353 218.074379 
L 234.852118 229.31407 
L 236.085915 235.931744 
L 237.319712 241.309482 
L 238.553508 245.660929 
L 240.316075 250.819104 
L 242.078642 255.357189 
L 243.841208 259.280642 
L 245.427518 262.286239 
L 246.833473 264.518759 
L 248.235328 266.3495 
L 249.637183 267.8019 
L 250.863807 268.760856 
L 252.09043 269.427673 
L 253.141822 269.766188 
L 254.193213 269.889311 
L 255.244605 269.79695 
L 256.295996 269.489175 
L 257.347388 268.966215 
L 258.574011 268.08466 
L 259.800635 266.911657 
L 261.027258 265.448405 
L 262.26003 263.662551 
L 263.670083 261.247412 
L 265.256393 258.060188 
L 266.842703 254.375111 
L 268.60527 249.696681 
L 269.839067 245.817851 
L 271.072863 241.060044 
L 272.304954 235.261562 
L 274.050464 225.780303 
L 275.970524 214.072275 
L 277.893996 201.00034 
L 280.009076 185.074399 
L 282.287042 166.103926 
L 284.562576 145.271254 
L 286.671578 126.010511 
L 287.552862 120.281811 
L 288.257888 116.980004 
L 288.786658 115.286448 
L 289.315428 114.281012 
L 289.667942 113.997643 
L 290.196712 113.999981 
L 297.952005 114.487214 
L 299.362058 114.590788 
L 299.714572 114.916094 
L 300.067085 115.54993 
L 300.595855 117.07341 
L 301.124625 119.27177 
L 301.829652 123.21838 
L 302.710935 129.693542 
L 303.767259 139.465911 
L 306.217835 162.549619 
L 308.493369 181.996509 
L 310.78349 199.635259 
L 312.884925 214.114801 
L 314.804985 225.91728 
L 316.725046 236.356793 
L 317.957137 242.117649 
L 319.190933 246.846995 
L 320.42473 250.70573 
L 322.187297 255.349639 
L 323.949863 259.356117 
L 325.536173 262.416943 
L 326.946227 264.704224 
L 328.353206 266.571298 
L 329.579829 267.860481 
L 330.806453 268.847512 
L 332.033076 269.53138 
L 333.084468 269.875724 
L 334.135859 269.996559 
L 335.187251 269.893797 
L 336.238642 269.567512 
L 337.290034 269.017952 
L 338.516657 268.095161 
L 339.74328 266.869977 
L 340.969904 265.343652 
L 342.371759 263.23255 
L 343.778738 260.696055 
L 345.365048 257.33435 
L 346.951358 253.456325 
L 348.713925 248.54185 
L 350.476492 242.982632 
L 351.534032 238.96447 
L 352.591572 234.031177 
L 353.649112 228.007252 
L 354.706652 220.678394 
L 356.392106 207.019378 
L 358.284662 189.758024 
L 360.223485 169.964099 
L 362.246031 147.039017 
L 364.330266 123.413845 
L 365.211549 115.916222 
L 366.092832 110.330662 
L 366.797859 107.338841 
L 367.326629 105.991072 
L 367.679142 105.527009 
L 368.031656 105.412987 
L 368.384169 105.649486 
L 368.736682 106.235512 
L 369.265452 107.764146 
L 369.794222 110.05894 
L 370.499249 114.272059 
L 371.380532 121.28911 
L 376.544853 167.936538 
L 378.935334 186.645881 
L 380.651633 198.610211 
L 381.709173 204.156257 
L 382.590456 207.650404 
L 383.47174 210.218003 
L 386.635332 217.579397 
L 389.798924 224.381698 
L 392.786761 230.292729 
L 395.774598 235.705062 
L 398.58668 240.343466 
L 401.223007 244.290768 
L 403.859334 247.84981 
L 406.319906 250.821287 
L 408.780477 253.454548 
L 411.065294 255.596876 
L 413.350111 257.447578 
L 415.634927 259.006654 
L 417.743989 260.186962 
L 419.85305 261.118784 
L 421.962112 261.80212 
L 424.071173 262.236971 
L 426.00448 262.417296 
L 427.937786 262.388823 
L 429.871092 262.151554 
L 431.804399 261.705487 
L 433.91346 260.980737 
L 436.022522 260.0075 
L 438.131583 258.785778 
L 440.240644 257.31557 
L 442.525461 255.442435 
L 444.810278 253.277674 
L 447.270849 250.620255 
L 449.731421 247.62462 
L 452.367748 244.039693 
L 455.004075 240.066507 
L 457.816157 235.400495 
L 460.628239 230.292729 
L 463.616076 224.381698 
L 466.603913 217.97197 
L 469.767505 210.641636 
L 470.648287 208.235571 
L 471.52957 204.933215 
L 472.410854 200.633511 
L 473.292137 195.224423 
L 475.153848 181.558725 
L 477.398917 163.545404 
L 479.827955 142.197633 
L 483.092008 113.098258 
L 483.797034 109.210068 
L 484.325804 107.168611 
L 484.854574 105.898927 
L 485.207088 105.487449 
L 485.559601 105.426179 
L 485.912114 105.715373 
L 486.264628 106.353819 
L 486.793398 107.960084 
L 487.322168 110.330662 
L 488.027194 114.640722 
L 488.908478 121.770084 
L 489.966018 132.627461 
L 494.425311 182.807382 
L 496.348712 201.103779 
L 498.202712 216.750186 
L 499.589632 226.882817 
L 500.647172 233.108198 
L 501.704712 238.210112 
L 502.762252 242.370058 
L 504.348562 247.482463 
L 506.287385 252.993562 
L 508.049952 257.33435 
L 509.636262 260.696055 
L 511.043241 263.23255 
L 512.445096 265.343652 
L 513.846951 267.063473 
L 515.073575 268.245527 
L 516.300198 269.125035 
L 517.35159 269.637407 
L 518.402981 269.92645 
L 519.454373 269.991947 
L 520.505764 269.83385 
L 521.557156 269.452276 
L 522.608547 268.847512 
L 523.835171 267.860481 
L 525.061794 266.571298 
L 526.292517 264.96145 
L 527.70257 262.725163 
L 529.112623 260.08092 
L 530.698933 256.618512 
L 532.285243 252.639785 
L 533.695297 248.598271 
L 534.929093 244.261619 
L 536.16289 238.957901 
L 537.562709 231.780522 
L 539.308219 221.783168 
L 541.228279 209.485065 
L 543.336536 194.41165 
L 545.446754 177.678678 
L 547.722288 157.790015 
L 551.585348 123.21838 
L 552.290375 119.27177 
L 552.995402 116.489809 
L 553.524172 115.194573 
L 553.876685 114.714767 
L 554.229198 114.54428 
L 558.9 114.298645 
L 558.9 114.298645 
" style="fill:none;stroke:#ef4444;stroke-linecap:square;stroke-width:1.3;"/>
   </g>
   <g id="text_13">
    <!-- q1 -->
    <g transform="translate(32.708385 42.124003)scale(0.08 -0.08)">
     <defs>
      <path d="M 53.265625 -20.453125 
L 53.265625 54.546875 
L 45.171875 54.546875 
L 45.171875 45.875 
L 44.171875 45.875 
C 42.328125 48.71875 39.0625 55.25 28.40625 55.25 
C 14.625 55.25 5.109375 44.3125 5.109375 27.125 
C 5.109375 9.796875 14.625 -1.140625 28.265625 -1.140625 
C 38.78125 -1.140625 42.328125 5.390625 44.171875 8.375 
L 44.890625 8.375 
L 44.890625 -20.453125 
z
M 45.03125 27.265625 
C 45.03125 14.921875 39.484375 6.390625 29.40625 6.390625 
C 18.890625 6.390625 13.5 15.625 13.5 27.265625 
C 13.5 38.78125 18.75 47.734375 29.40625 47.734375 
C 39.625 47.734375 45.03125 39.484375 45.03125 27.265625 
z
" id="Inter-Regular-113"/>
     </defs>
     <use xlink:href="#Inter-Regular-113"/>
     <use x="60.937515" xlink:href="#Inter-Regular-49"/>
    </g>
   </g>
   <g id="text_14">
    <!-- q2 -->
    <g transform="translate(49.419038 64.245072)scale(0.08 -0.08)">
     <use xlink:href="#Inter-Regular-113"/>
     <use x="60.937515" xlink:href="#Inter-Regular-50"/>
    </g>
   </g>
   <g id="text_15">
    <!-- b -->
    <g transform="translate(68.494358 42.124003)scale(0.08 -0.08)">
     <use xlink:href="#Inter-Regular-98"/>
    </g>
   </g>
   <g id="text_16">
    <!-- q3d -->
    <g transform="translate(80.652193 64.245072)scale(0.08 -0.08)">
     <defs>
      <path d="M 28.265625 -1.140625 
C 38.78125 -1.140625 42.328125 5.390625 44.171875 8.375 
L 45.171875 8.375 
L 45.171875 0 
L 53.265625 0 
L 53.265625 72.734375 
L 44.890625 72.734375 
L 44.890625 45.875 
L 44.171875 45.875 
C 42.328125 48.71875 39.0625 55.25 28.40625 55.25 
C 14.625 55.25 5.109375 44.3125 5.109375 27.125 
C 5.109375 9.796875 14.625 -1.140625 28.265625 -1.140625 
z
M 29.40625 6.390625 
C 18.890625 6.390625 13.5 15.625 13.5 27.265625 
C 13.5 38.78125 18.75 47.734375 29.40625 47.734375 
C 39.625 47.734375 45.03125 39.484375 45.03125 27.265625 
C 45.03125 14.921875 39.484375 6.390625 29.40625 6.390625 
z
" id="Inter-Regular-100"/>
     </defs>
     <use xlink:href="#Inter-Regular-113"/>
     <use x="60.937515" xlink:href="#Inter-Regular-51"/>
     <use x="124.573898" xlink:href="#Inter-Regular-100"/>
    </g>
   </g>
   <g id="text_17">
    <!-- q4d -->
    <g transform="translate(95.452879 42.124003)scale(0.08 -0.08)">
     <defs>
      <path d="M 5.828125 14.921875 
L 40.0625 14.921875 
L 40.0625 0 
L 48.4375 0 
L 48.4375 14.921875 
L 58.375 14.921875 
L 58.375 22.734375 
L 48.4375 22.734375 
L 48.4375 72.734375 
L 37.78125 72.734375 
L 5.828125 22.15625 
z
M 15.34375 22.734375 
L 15.34375 23.296875 
L 39.484375 61.5 
L 40.0625 61.5 
L 40.0625 22.734375 
z
" id="Inter-Regular-52"/>
     </defs>
     <use xlink:href="#Inter-Regular-113"/>
     <use x="60.937515" xlink:href="#Inter-Regular-52"/>
     <use x="125.142075" xlink:href="#Inter-Regular-100"/>
    </g>
   </g>
   <g id="text_18">
    <!-- q4d -->
    <g transform="translate(214.214621 64.205697)scale(0.08 -0.08)">
     <use xlink:href="#Inter-Regular-113"/>
     <use x="60.937515" xlink:href="#Inter-Regular-52"/>
     <use x="125.142075" xlink:href="#Inter-Regular-100"/>
    </g>
   </g>
   <g id="text_19">
    <!-- q3d -->
    <g transform="translate(229.060307 42.163378)scale(0.08 -0.08)">
     <use xlink:href="#Inter-Regular-113"/>
     <use x="60.937515" xlink:href="#Inter-Regular-51"/>
     <use x="124.573898" xlink:href="#Inter-Regular-100"/>
    </g>
   </g>
   <g id="text_20">
    <!-- b -->
    <g transform="translate(251.184393 64.205697)scale(0.08 -0.08)">
     <use xlink:href="#Inter-Regular-98"/>
    </g>
   </g>
   <g id="text_21">
    <!-- q2 -->
    <g transform="translate(265.509712 42.163378)scale(0.08 -0.08)">
     <use xlink:href="#Inter-Regular-113"/>
     <use x="60.937515" xlink:href="#Inter-Regular-50"/>
    </g>
   </g>
   <g id="text_22">
    <!-- q1 -->
    <g transform="translate(283.345365 64.205697)scale(0.08 -0.08)">
     <use xlink:href="#Inter-Regular-113"/>
     <use x="60.937515" xlink:href="#Inter-Regular-49"/>
    </g>
   </g>
   <g id="text_23">
    <!-- q1 -->
    <g transform="translate(297.093385 42.124003)scale(0.08 -0.08)">
     <use xlink:href="#Inter-Regular-113"/>
     <use x="60.937515" xlink:href="#Inter-Regular-49"/>
    </g>
   </g>
   <g id="text_24">
    <!-- q2 -->
    <g transform="translate(313.804038 64.245072)scale(0.08 -0.08)">
     <use xlink:href="#Inter-Regular-113"/>
     <use x="60.937515" xlink:href="#Inter-Regular-50"/>
    </g>
   </g>
   <g id="text_25">
    <!-- b -->
    <g transform="translate(332.879358 42.124003)scale(0.08 -0.08)">
     <use xlink:href="#Inter-Regular-98"/>
    </g>
   </g>
   <g id="text_26">
    <!-- q3t -->
    <g transform="translate(346.065943 64.245072)scale(0.08 -0.08)">
     <use xlink:href="#Inter-Regular-113"/>
     <use x="60.937515" xlink:href="#Inter-Regular-51"/>
     <use x="124.573898" xlink:href="#Inter-Regular-116"/>
    </g>
   </g>
   <g id="text_27">
    <!-- q4t -->
    <g transform="translate(360.866629 42.124003)scale(0.08 -0.08)">
     <use xlink:href="#Inter-Regular-113"/>
     <use x="60.937515" xlink:href="#Inter-Regular-52"/>
     <use x="125.142075" xlink:href="#Inter-Regular-116"/>
    </g>
   </g>
   <g id="text_28">
    <!-- q5t -->
    <g transform="translate(375.385423 64.205697)scale(0.08 -0.08)">
     <use xlink:href="#Inter-Regular-113"/>
     <use x="60.937515" xlink:href="#Inter-Regular-53"/>
     <use x="121.732986" xlink:href="#Inter-Regular-116"/>
    </g>
   </g>
   <g id="text_29">
    <!-- q5t -->
    <g transform="translate(465.382077 42.124003)scale(0.08 -0.08)">
     <use xlink:href="#Inter-Regular-113"/>
     <use x="60.937515" xlink:href="#Inter-Regular-53"/>
     <use x="121.732986" xlink:href="#Inter-Regular-116"/>
    </g>
   </g>
   <g id="text_30">
    <!-- q4t -->
    <g transform="translate(479.628371 64.205697)scale(0.08 -0.08)">
     <use xlink:href="#Inter-Regular-113"/>
     <use x="60.937515" xlink:href="#Inter-Regular-52"/>
     <use x="125.142075" xlink:href="#Inter-Regular-116"/>
    </g>
   </g>
   <g id="text_31">
    <!-- q3t -->
    <g transform="translate(494.474057 42.163378)scale(0.08 -0.08)">
     <use xlink:href="#Inter-Regular-113"/>
     <use x="60.937515" xlink:href="#Inter-Regular-51"/>
     <use x="124.573898" xlink:href="#Inter-Regular-116"/>
    </g>
   </g>
   <g id="text_32">
    <!-- b -->
    <g transform="translate(515.569393 64.205697)scale(0.08 -0.08)">
     <use xlink:href="#Inter-Regular-98"/>
    </g>
   </g>
   <g id="text_33">
    <!-- q2 -->
    <g transform="translate(529.894712 42.163378)scale(0.08 -0.08)">
     <use xlink:href="#Inter-Regular-113"/>
     <use x="60.937515" xlink:href="#Inter-Regular-50"/>
    </g>
   </g>
   <g id="text_34">
    <!-- q1 -->
    <g transform="translate(547.730365 64.205697)scale(0.08 -0.08)">
     <use xlink:href="#Inter-Regular-113"/>
     <use x="60.937515" xlink:href="#Inter-Regular-49"/>
    </g>
   </g>
   <g id="text_35">
    <g clip-path="url(#p6a937ff2ed)">
     <!-- doublet -->
     <g style="opacity:0.5;" transform="translate(144.2975 291.728314)scale(0.1 -0.1)">
      <defs>
       <path d="M 23.71875 -1.140625 
C 34.203125 -1.140625 38.84375 5.390625 41.1875 8.375 
L 42.1875 8.375 
L 40.765625 0 
L 48.859375 0 
L 60.9375 72.734375 
L 52.5625 72.734375 
L 48.078125 45.875 
L 47.375 45.875 
C 46.03125 48.71875 43.828125 55.25 33.171875 55.25 
C 19.390625 55.25 8.0625 44.3125 5.1875 27.125 
C 2.34375 9.796875 10.046875 -1.140625 23.71875 -1.140625 
z
M 25.78125 6.390625 
C 15.265625 6.390625 11.6875 15.625 13.640625 27.265625 
C 15.515625 38.78125 21.984375 47.734375 32.59375 47.734375 
C 42.859375 47.734375 47.203125 39.484375 45.171875 27.265625 
C 43.109375 14.921875 35.875 6.390625 25.78125 6.390625 
z
" id="Inter-Italic-100"/>
       <path d="M 25.71875 -1.140625 
C 40.203125 -1.140625 51.703125 9.796875 54.40625 26.421875 
C 57.203125 43.75 49 55.25 33.953125 55.25 
C 19.46875 55.25 7.953125 44.3125 5.25 27.5625 
C 2.484375 10.375 10.65625 -1.140625 25.71875 -1.140625 
z
M 25.859375 6.390625 
C 14.921875 6.390625 11.65625 15.765625 13.359375 26.421875 
C 15.171875 37.640625 22.296875 47.734375 33.8125 47.734375 
C 44.75 47.734375 48.015625 38.203125 46.3125 27.5625 
C 44.5 16.296875 37.359375 6.390625 25.859375 6.390625 
z
" id="Inter-Italic-111"/>
       <path d="M 41.1875 22.296875 
C 39.484375 12.078125 30.96875 7.390625 24.71875 7.390625 
C 17.75 7.390625 13.640625 12.5 14.921875 20.453125 
L 20.59375 54.546875 
L 12.21875 54.546875 
L 6.390625 19.890625 
C 4.125 5.96875 10.375 -0.703125 20.59375 -0.703125 
C 28.84375 -0.703125 35.09375 3.6875 38.5 9.234375 
L 39.0625 9.234375 
L 37.5 0 
L 45.875 0 
L 54.96875 54.546875 
L 46.59375 54.546875 
z
" id="Inter-Italic-117"/>
       <path d="M 4.265625 0 
L 12.359375 0 
L 13.78125 8.375 
L 14.78125 8.375 
C 16.1875 5.390625 18.609375 -1.140625 29.125 -1.140625 
C 42.75 -1.140625 54.125 9.796875 56.96875 27.125 
C 59.796875 44.3125 52.125 55.25 38.359375 55.25 
C 27.703125 55.25 23.296875 48.71875 21.03125 45.875 
L 20.3125 45.875 
L 24.71875 72.734375 
L 16.34375 72.734375 
z
M 17.046875 27.265625 
C 19.03125 39.484375 25.859375 47.734375 36.078125 47.734375 
C 46.734375 47.734375 50.421875 38.78125 48.578125 27.265625 
C 46.59375 15.625 39.78125 6.390625 29.265625 6.390625 
C 19.171875 6.390625 15.0625 14.921875 17.046875 27.265625 
z
" id="Inter-Italic-98"/>
       <path d="M 23.578125 72.734375 
L 15.203125 72.734375 
L 3.125 0 
L 11.5 0 
z
" id="Inter-Italic-108"/>
       <path d="M 25.859375 -1.140625 
C 36.96875 -1.140625 45.921875 4.40625 49.859375 12.640625 
L 42.1875 14.921875 
C 39.09375 9.234375 33.84375 6.390625 27.125 6.390625 
C 16.625 6.390625 11.015625 11.078125 13.03125 24.4375 
L 52.703125 24.4375 
L 53.265625 27.984375 
C 56.71875 48.296875 45.78125 55.25 34.375 55.25 
C 19.640625 55.25 7.84375 43.609375 5.109375 26.84375 
C 2.3125 10.078125 10.125 -1.140625 25.859375 -1.140625 
z
M 33.09375 47.734375 
C 42.21875 47.734375 46.90625 40.90625 45.3125 31.671875 
L 14.203125 31.671875 
C 15.875 39.421875 23.9375 47.734375 33.09375 47.734375 
z
" id="Inter-Italic-101"/>
       <path d="M 35.9375 54.546875 
L 24.25 54.546875 
L 26.421875 67.609375 
L 18.046875 67.609375 
L 15.875 54.546875 
L 7.671875 54.546875 
L 6.53125 47.4375 
L 14.703125 47.4375 
L 9.09375 13.359375 
C 7.53125 3.828125 14.34375 -0.703125 21.453125 -0.703125 
C 24.578125 -0.703125 26.703125 -0.140625 27.984375 0.28125 
L 27.421875 7.8125 
C 26.703125 7.671875 25.5625 7.390625 23.71875 7.390625 
C 20.03125 7.390625 16.625 8.515625 17.75 15.625 
L 23.046875 47.4375 
L 34.796875 47.4375 
z
" id="Inter-Italic-116"/>
      </defs>
      <use xlink:href="#Inter-Italic-100"/>
      <use x="62.215927" xlink:href="#Inter-Italic-111"/>
      <use x="121.875031" xlink:href="#Inter-Italic-117"/>
      <use x="179.971634" xlink:href="#Inter-Italic-98"/>
      <use x="242.045517" xlink:href="#Inter-Italic-108"/>
      <use x="265.767105" xlink:href="#Inter-Italic-101"/>
      <use x="324.147797" xlink:href="#Inter-Italic-116"/>
     </g>
    </g>
   </g>
   <g id="text_36">
    <g clip-path="url(#p6a937ff2ed)">
     <!-- triplet -->
     <g style="opacity:0.5;" transform="translate(412.866094 291.848627)scale(0.1 -0.1)">
      <defs>
       <path d="M 3.125 0 
L 11.5 0 
L 17.1875 34.515625 
C 18.46875 41.90625 25.140625 47.296875 33.09375 47.296875 
C 35.375 47.296875 37.640625 46.875 38.21875 46.734375 
L 39.625 55.25 
C 38.640625 55.390625 36.5 55.390625 35.234375 55.390625 
C 28.6875 55.390625 22.296875 51.703125 19.46875 46.3125 
L 18.890625 46.3125 
L 20.3125 54.546875 
L 12.21875 54.546875 
z
" id="Inter-Italic-114"/>
       <path d="M 18.96875 63.78125 
C 22.234375 63.78125 24.9375 66.328125 24.9375 69.453125 
C 24.9375 72.578125 22.234375 75.140625 18.96875 75.140625 
C 15.703125 75.140625 13 72.578125 13 69.453125 
C 13 66.328125 15.703125 63.78125 18.96875 63.78125 
z
M 3.125 0 
L 11.5 0 
L 20.59375 54.546875 
L 12.21875 54.546875 
z
" id="Inter-Italic-105"/>
       <path d="M -0.28125 -20.453125 
L 8.09375 -20.453125 
L 12.921875 8.375 
L 13.640625 8.375 
C 15.0625 5.390625 17.46875 -1.140625 27.984375 -1.140625 
C 41.625 -1.140625 52.984375 9.796875 55.828125 27.125 
C 58.671875 44.3125 51 55.25 37.21875 55.25 
C 26.5625 55.25 22.15625 48.71875 19.890625 45.875 
L 18.890625 45.875 
L 20.3125 54.546875 
L 12.21875 54.546875 
z
M 15.90625 27.265625 
C 17.90625 39.484375 24.71875 47.734375 34.9375 47.734375 
C 45.59375 47.734375 49.296875 38.78125 47.4375 27.265625 
C 45.453125 15.625 38.640625 6.390625 28.125 6.390625 
C 18.046875 6.390625 13.921875 14.921875 15.90625 27.265625 
z
" id="Inter-Italic-112"/>
      </defs>
      <use xlink:href="#Inter-Italic-116"/>
      <use x="36.363647" xlink:href="#Inter-Italic-114"/>
      <use x="73.721603" xlink:href="#Inter-Italic-105"/>
      <use x="97.443192" xlink:href="#Inter-Italic-112"/>
      <use x="158.380707" xlink:href="#Inter-Italic-108"/>
      <use x="182.102295" xlink:href="#Inter-Italic-101"/>
      <use x="240.482986" xlink:href="#Inter-Italic-116"/>
     </g>
    </g>
   </g>
  </g>
 </g>
 <defs>
  <clipPath id="p6a937ff2ed">
   <rect height="250.4064" width="528.77" x="30.13" y="51.0736"/>
  </clipPath>
 </defs>
</svg>
