<?xml version="1.0" encoding="utf-8" standalone="no"?>
<!DOCTYPE svg PUBLIC "-//W3C//DTD SVG 1.1//EN"
  "http://www.w3.org/Graphics/SVG/1.1/DTD/svg11.dtd">
<!-- Created with matplotlib (https://matplotlib.org/) -->
<svg height="288pt" version="1.1" viewBox="0 0 720 288" width="720pt" xmlns="http://www.w3.org/2000/svg" xmlns:xlink="http://www.w3.org/1999/xlink">
 <metadata>
  <rdf:RDF xmlns:cc="http://creativecommons.org/ns#" xmlns:dc="http://purl.org/dc/elements/1.1/" xmlns:rdf="http://www.w3.org/1999/02/22-rdf-syntax-ns#">
   <cc:Work>
    <dc:type rdf:resource="http://purl.org/dc/dcmitype/StillImage"/>
    <dc:date>2020-12-03T08:58:33.501461</dc:date>
    <dc:format>image/svg+xml</dc:format>
    <dc:creator>
     <cc:Agent>
      <dc:title>Matplotlib v3.3.3, https://matplotlib.org/</dc:title>
     </cc:Agent>
    </dc:creator>
   </cc:Work>
  </rdf:RDF>
 </metadata>
 <defs>
  <style type="text/css">*{stroke-linecap:butt;stroke-linejoin:round;}</style>
 </defs>
 <g id="figure_1">
  <g id="patch_1">
   <path d="M 0 288 
L 720 288 
L 720 0 
L 0 0 
z
" style="fill:#ffffff;"/>
  </g>
  <g id="axes_1">
   <g id="patch_2">
    <path d="M 28.78 260.12 
L 709.2 260.12 
L 709.2 10.8 
L 28.78 10.8 
z
" style="fill:#ffffff;"/>
   </g>
   <g id="matplotlib.axis_1">
    <g id="xtick_1">
     <g id="line2d_1">
      <path clip-path="url(#p378e7e542c)" d="M 59.708182 260.12 
L 59.708182 10.8 
" style="fill:none;stroke:#e5e7eb;stroke-dasharray:3.7,1.6;stroke-dashoffset:0;"/>
     </g>
     <g id="line2d_2">
      <defs>
       <path d="M 0 0 
L 0 3.5 
" id="mcec4693a58" style="stroke:#000000;stroke-width:0.8;"/>
      </defs>
      <g>
       <use style="stroke:#000000;stroke-width:0.8;" x="59.708182" xlink:href="#mcec4693a58" y="260.12"/>
      </g>
     </g>
     <g id="text_1">
      <!-- 0 -->
      <g transform="translate(56.583182 274.393438)scale(0.1 -0.1)">
       <defs>
        <path d="M 31.25 -1 
C 47.296875 -1 56.53125 12.609375 56.53125 36.359375 
C 56.53125 59.9375 47.15625 73.71875 31.25 73.71875 
C 15.34375 73.71875 5.96875 59.9375 5.96875 36.359375 
C 5.96875 12.609375 15.203125 -1 31.25 -1 
z
M 31.25 6.8125 
C 20.671875 6.8125 14.484375 17.4375 14.484375 36.359375 
C 14.484375 55.25 20.734375 66.046875 31.25 66.046875 
C 41.765625 66.046875 48.015625 55.25 48.015625 36.359375 
C 48.015625 17.4375 41.828125 6.8125 31.25 6.8125 
z
" id="Inter-Regular-48"/>
       </defs>
       <use xlink:href="#Inter-Regular-48"/>
      </g>
     </g>
    </g>
    <g id="xtick_2">
     <g id="line2d_3">
      <path clip-path="url(#p378e7e542c)" d="M 136.739768 260.12 
L 136.739768 10.8 
" style="fill:none;stroke:#e5e7eb;stroke-dasharray:3.7,1.6;stroke-dashoffset:0;"/>
     </g>
     <g id="line2d_4">
      <g>
       <use style="stroke:#000000;stroke-width:0.8;" x="136.739768" xlink:href="#mcec4693a58" y="260.12"/>
      </g>
     </g>
     <g id="text_2">
      <!-- 2 -->
      <g transform="translate(133.713987 274.393438)scale(0.1 -0.1)">
       <defs>
        <path d="M 7.53125 0 
L 53.40625 0 
L 53.40625 7.8125 
L 19.609375 7.8125 
L 19.609375 8.375 
L 35.9375 25.859375 
C 48.4375 39.234375 52.125 45.484375 52.125 53.546875 
C 52.125 64.765625 43.046875 73.71875 30.25 73.71875 
C 17.515625 73.71875 7.8125 65.0625 7.8125 52.265625 
L 16.1875 52.265625 
C 16.1875 60.546875 21.5625 66.046875 29.96875 66.046875 
C 37.859375 66.046875 43.890625 61.21875 43.890625 53.546875 
C 43.890625 46.84375 39.953125 41.875 31.53125 32.671875 
L 7.53125 6.390625 
z
" id="Inter-Regular-50"/>
       </defs>
       <use xlink:href="#Inter-Regular-50"/>
      </g>
     </g>
    </g>
    <g id="xtick_3">
     <g id="line2d_5">
      <path clip-path="url(#p378e7e542c)" d="M 213.771354 260.12 
L 213.771354 10.8 
" style="fill:none;stroke:#e5e7eb;stroke-dasharray:3.7,1.6;stroke-dashoffset:0;"/>
     </g>
     <g id="line2d_6">
      <g>
       <use style="stroke:#000000;stroke-width:0.8;" x="213.771354" xlink:href="#mcec4693a58" y="260.12"/>
      </g>
     </g>
     <g id="text_3">
      <!-- 4 -->
      <g transform="translate(210.561198 274.393438)scale(0.1 -0.1)">
       <defs>
        <path d="M 5.828125 14.921875 
L 40.0625 14.921875 
L 40.0625 0 
L 48.4375 0 
L 48.4375 14.921875 
L 58.375 14.921875 
L 58.375 22.734375 
L 48.4375 22.734375 
L 48.4375 72.734375 
L 37.78125 72.734375 
L 5.828125 22.15625 
z
M 15.34375 22.734375 
L 15.34375 23.296875 
L 39.484375 61.5 
L 40.0625 61.5 
L 40.0625 22.734375 
z
" id="Inter-Regular-52"/>
       </defs>
       <use xlink:href="#Inter-Regular-52"/>
      </g>
     </g>
    </g>
    <g id="xtick_4">
     <g id="line2d_7">
      <path clip-path="url(#p378e7e542c)" d="M 290.80294 260.12 
L 290.80294 10.8 
" style="fill:none;stroke:#e5e7eb;stroke-dasharray:3.7,1.6;stroke-dashoffset:0;"/>
     </g>
     <g id="line2d_8">
      <g>
       <use style="stroke:#000000;stroke-width:0.8;" x="290.80294" xlink:href="#mcec4693a58" y="260.12"/>
      </g>
     </g>
     <g id="text_4">
      <!-- 6 -->
      <g transform="translate(287.684971 274.393438)scale(0.1 -0.1)">
       <defs>
        <path d="M 31.671875 -1 
C 46.375 -1.171875 55.96875 9.90625 55.96875 23.4375 
C 55.96875 37.5 45.5625 47.578125 33.09375 47.578125 
C 25.609375 47.578125 19.171875 43.921875 15.203125 37.921875 
L 14.625 37.921875 
C 14.671875 55.78125 21.5625 66.046875 32.8125 66.046875 
C 40.484375 66.046875 45.09375 61.21875 46.734375 54.546875 
L 55.40625 54.546875 
C 53.625 65.984375 45.03125 73.859375 32.8125 73.859375 
C 16.4375 73.859375 6.390625 59.375 6.390625 33.515625 
C 6.390625 6.640625 19.75 -0.859375 31.671875 -1 
z
M 31.671875 6.8125 
C 22.546875 6.8125 15.875 14.59375 15.90625 23.296875 
C 15.953125 32 22.9375 39.765625 31.96875 39.765625 
C 40.875 39.765625 47.4375 32.453125 47.4375 23.4375 
C 47.4375 14.203125 40.59375 6.8125 31.671875 6.8125 
z
" id="Inter-Regular-54"/>
       </defs>
       <use xlink:href="#Inter-Regular-54"/>
      </g>
     </g>
    </g>
    <g id="xtick_5">
     <g id="line2d_9">
      <path clip-path="url(#p378e7e542c)" d="M 367.834526 260.12 
L 367.834526 10.8 
" style="fill:none;stroke:#e5e7eb;stroke-dasharray:3.7,1.6;stroke-dashoffset:0;"/>
     </g>
     <g id="line2d_10">
      <g>
       <use style="stroke:#000000;stroke-width:0.8;" x="367.834526" xlink:href="#mcec4693a58" y="260.12"/>
      </g>
     </g>
     <g id="text_5">
      <!-- 8 -->
      <g transform="translate(364.751714 274.393438)scale(0.1 -0.1)">
       <defs>
        <path d="M 30.828125 -1 
C 45.34375 -1 55.46875 7.5 55.546875 19.3125 
C 55.46875 28.515625 49.328125 36.328125 41.484375 37.78125 
L 41.484375 38.203125 
C 48.296875 39.984375 52.765625 46.65625 52.84375 54.40625 
C 52.765625 65.484375 43.46875 73.71875 30.828125 73.71875 
C 18.046875 73.71875 8.734375 65.484375 8.8125 54.40625 
C 8.734375 46.65625 13.21875 39.984375 20.171875 38.203125 
L 20.171875 37.78125 
C 12.1875 36.328125 6.03125 28.515625 6.109375 19.3125 
C 6.03125 7.5 16.15625 -1 30.828125 -1 
z
M 30.828125 41.328125 
C 22.875 41.328125 17.265625 46.3125 17.328125 53.828125 
C 17.265625 61.21875 22.65625 66.046875 30.828125 66.046875 
C 38.84375 66.046875 44.25 61.21875 44.3125 53.828125 
C 44.25 46.3125 38.640625 41.328125 30.828125 41.328125 
z
M 30.828125 6.8125 
C 20.84375 6.8125 14.703125 11.9375 14.78125 19.75 
C 14.703125 27.953125 21.484375 33.8125 30.828125 33.8125 
C 40.015625 33.8125 46.8125 27.953125 46.875 19.75 
C 46.8125 11.9375 40.65625 6.8125 30.828125 6.8125 
z
" id="Inter-Regular-56"/>
       </defs>
       <use xlink:href="#Inter-Regular-56"/>
      </g>
     </g>
    </g>
    <g id="xtick_6">
     <g id="line2d_11">
      <path clip-path="url(#p378e7e542c)" d="M 444.866112 260.12 
L 444.866112 10.8 
" style="fill:none;stroke:#e5e7eb;stroke-dasharray:3.7,1.6;stroke-dashoffset:0;"/>
     </g>
     <g id="line2d_12">
      <g>
       <use style="stroke:#000000;stroke-width:0.8;" x="444.866112" xlink:href="#mcec4693a58" y="260.12"/>
      </g>
     </g>
     <g id="text_6">
      <!-- 10 -->
      <g transform="translate(439.418456 274.393438)scale(0.1 -0.1)">
       <defs>
        <path d="M 33.09375 72.734375 
L 24.296875 72.734375 
L 6.109375 60.65625 
L 6.109375 51.703125 
L 23.859375 63.5 
L 24.296875 63.5 
L 24.296875 0 
L 33.09375 0 
z
" id="Inter-Regular-49"/>
       </defs>
       <use xlink:href="#Inter-Regular-49"/>
       <use x="46.448868" xlink:href="#Inter-Regular-48"/>
      </g>
     </g>
    </g>
    <g id="xtick_7">
     <g id="line2d_13">
      <path clip-path="url(#p378e7e542c)" d="M 521.897698 260.12 
L 521.897698 10.8 
" style="fill:none;stroke:#e5e7eb;stroke-dasharray:3.7,1.6;stroke-dashoffset:0;"/>
     </g>
     <g id="line2d_14">
      <g>
       <use style="stroke:#000000;stroke-width:0.8;" x="521.897698" xlink:href="#mcec4693a58" y="260.12"/>
      </g>
     </g>
     <g id="text_7">
      <!-- 12 -->
      <g transform="translate(516.549261 274.393438)scale(0.1 -0.1)">
       <use xlink:href="#Inter-Regular-49"/>
       <use x="46.448868" xlink:href="#Inter-Regular-50"/>
      </g>
     </g>
    </g>
    <g id="xtick_8">
     <g id="line2d_15">
      <path clip-path="url(#p378e7e542c)" d="M 598.929285 260.12 
L 598.929285 10.8 
" style="fill:none;stroke:#e5e7eb;stroke-dasharray:3.7,1.6;stroke-dashoffset:0;"/>
     </g>
     <g id="line2d_16">
      <g>
       <use style="stroke:#000000;stroke-width:0.8;" x="598.929285" xlink:href="#mcec4693a58" y="260.12"/>
      </g>
     </g>
     <g id="text_8">
      <!-- 14 -->
      <g transform="translate(593.396472 274.393438)scale(0.1 -0.1)">
       <use xlink:href="#Inter-Regular-49"/>
       <use x="46.448868" xlink:href="#Inter-Regular-52"/>
      </g>
     </g>
    </g>
    <g id="xtick_9">
     <g id="line2d_17">
      <path clip-path="url(#p378e7e542c)" d="M 675.960871 260.12 
L 675.960871 10.8 
" style="fill:none;stroke:#e5e7eb;stroke-dasharray:3.7,1.6;stroke-dashoffset:0;"/>
     </g>
     <g id="line2d_18">
      <g>
       <use style="stroke:#000000;stroke-width:0.8;" x="675.960871" xlink:href="#mcec4693a58" y="260.12"/>
      </g>
     </g>
     <g id="text_9">
      <!-- 16 -->
      <g transform="translate(670.520246 274.393438)scale(0.1 -0.1)">
       <use xlink:href="#Inter-Regular-49"/>
       <use x="46.448868" xlink:href="#Inter-Regular-54"/>
      </g>
     </g>
    </g>
   </g>
   <g id="matplotlib.axis_2">
    <g id="ytick_1">
     <g id="line2d_19">
      <path clip-path="url(#p378e7e542c)" d="M 28.78 248.472588 
L 709.2 248.472588 
" style="fill:none;stroke:#e5e7eb;stroke-dasharray:3.7,1.6;stroke-dashoffset:0;"/>
     </g>
     <g id="line2d_20">
      <defs>
       <path d="M 0 0 
L -3.5 0 
" id="mffed440fbd" style="stroke:#000000;stroke-width:0.8;"/>
      </defs>
      <g>
       <use style="stroke:#000000;stroke-width:0.8;" x="28.78" xlink:href="#mffed440fbd" y="248.472588"/>
      </g>
     </g>
     <g id="text_10">
      <!-- 0 -->
      <g transform="translate(15.53 252.109306)scale(0.1 -0.1)">
       <use xlink:href="#Inter-Regular-48"/>
      </g>
     </g>
    </g>
    <g id="ytick_2">
     <g id="line2d_21">
      <path clip-path="url(#p378e7e542c)" d="M 28.78 220.267349 
L 709.2 220.267349 
" style="fill:none;stroke:#e5e7eb;stroke-dasharray:3.7,1.6;stroke-dashoffset:0;"/>
     </g>
     <g id="line2d_22">
      <g>
       <use style="stroke:#000000;stroke-width:0.8;" x="28.78" xlink:href="#mffed440fbd" y="220.267349"/>
      </g>
     </g>
     <g id="text_11">
      <!-- 2 -->
      <g transform="translate(15.728438 223.904068)scale(0.1 -0.1)">
       <use xlink:href="#Inter-Regular-50"/>
      </g>
     </g>
    </g>
    <g id="ytick_3">
     <g id="line2d_23">
      <path clip-path="url(#p378e7e542c)" d="M 28.78 192.062111 
L 709.2 192.062111 
" style="fill:none;stroke:#e5e7eb;stroke-dasharray:3.7,1.6;stroke-dashoffset:0;"/>
     </g>
     <g id="line2d_24">
      <g>
       <use style="stroke:#000000;stroke-width:0.8;" x="28.78" xlink:href="#mffed440fbd" y="192.062111"/>
      </g>
     </g>
     <g id="text_12">
      <!-- 4 -->
      <g transform="translate(15.359688 195.69883)scale(0.1 -0.1)">
       <use xlink:href="#Inter-Regular-52"/>
      </g>
     </g>
    </g>
    <g id="ytick_4">
     <g id="line2d_25">
      <path clip-path="url(#p378e7e542c)" d="M 28.78 163.856873 
L 709.2 163.856873 
" style="fill:none;stroke:#e5e7eb;stroke-dasharray:3.7,1.6;stroke-dashoffset:0;"/>
     </g>
     <g id="line2d_26">
      <g>
       <use style="stroke:#000000;stroke-width:0.8;" x="28.78" xlink:href="#mffed440fbd" y="163.856873"/>
      </g>
     </g>
     <g id="text_13">
      <!-- 6 -->
      <g transform="translate(15.544063 167.493592)scale(0.1 -0.1)">
       <use xlink:href="#Inter-Regular-54"/>
      </g>
     </g>
    </g>
    <g id="ytick_5">
     <g id="line2d_27">
      <path clip-path="url(#p378e7e542c)" d="M 28.78 135.651635 
L 709.2 135.651635 
" style="fill:none;stroke:#e5e7eb;stroke-dasharray:3.7,1.6;stroke-dashoffset:0;"/>
     </g>
     <g id="line2d_28">
      <g>
       <use style="stroke:#000000;stroke-width:0.8;" x="28.78" xlink:href="#mffed440fbd" y="135.651635"/>
      </g>
     </g>
     <g id="text_14">
      <!-- 8 -->
      <g transform="translate(15.614375 139.288353)scale(0.1 -0.1)">
       <use xlink:href="#Inter-Regular-56"/>
      </g>
     </g>
    </g>
    <g id="ytick_6">
     <g id="line2d_29">
      <path clip-path="url(#p378e7e542c)" d="M 28.78 107.446396 
L 709.2 107.446396 
" style="fill:none;stroke:#e5e7eb;stroke-dasharray:3.7,1.6;stroke-dashoffset:0;"/>
     </g>
     <g id="line2d_30">
      <g>
       <use style="stroke:#000000;stroke-width:0.8;" x="28.78" xlink:href="#mffed440fbd" y="107.446396"/>
      </g>
     </g>
     <g id="text_15">
      <!-- 10 -->
      <g transform="translate(10.884688 111.083115)scale(0.1 -0.1)">
       <use xlink:href="#Inter-Regular-49"/>
       <use x="46.448868" xlink:href="#Inter-Regular-48"/>
      </g>
     </g>
    </g>
    <g id="ytick_7">
     <g id="line2d_31">
      <path clip-path="url(#p378e7e542c)" d="M 28.78 79.241158 
L 709.2 79.241158 
" style="fill:none;stroke:#e5e7eb;stroke-dasharray:3.7,1.6;stroke-dashoffset:0;"/>
     </g>
     <g id="line2d_32">
      <g>
       <use style="stroke:#000000;stroke-width:0.8;" x="28.78" xlink:href="#mffed440fbd" y="79.241158"/>
      </g>
     </g>
     <g id="text_16">
      <!-- 12 -->
      <g transform="translate(11.083125 82.877877)scale(0.1 -0.1)">
       <use xlink:href="#Inter-Regular-49"/>
       <use x="46.448868" xlink:href="#Inter-Regular-50"/>
      </g>
     </g>
    </g>
    <g id="ytick_8">
     <g id="line2d_33">
      <path clip-path="url(#p378e7e542c)" d="M 28.78 51.03592 
L 709.2 51.03592 
" style="fill:none;stroke:#e5e7eb;stroke-dasharray:3.7,1.6;stroke-dashoffset:0;"/>
     </g>
     <g id="line2d_34">
      <g>
       <use style="stroke:#000000;stroke-width:0.8;" x="28.78" xlink:href="#mffed440fbd" y="51.03592"/>
      </g>
     </g>
     <g id="text_17">
      <!-- 14 -->
      <g transform="translate(10.714375 54.672639)scale(0.1 -0.1)">
       <use xlink:href="#Inter-Regular-49"/>
       <use x="46.448868" xlink:href="#Inter-Regular-52"/>
      </g>
     </g>
    </g>
    <g id="ytick_9">
     <g id="line2d_35">
      <path clip-path="url(#p378e7e542c)" d="M 28.78 22.830682 
L 709.2 22.830682 
" style="fill:none;stroke:#e5e7eb;stroke-dasharray:3.7,1.6;stroke-dashoffset:0;"/>
     </g>
     <g id="line2d_36">
      <g>
       <use style="stroke:#000000;stroke-width:0.8;" x="28.78" xlink:href="#mffed440fbd" y="22.830682"/>
      </g>
     </g>
     <g id="text_18">
      <!-- 16 -->
      <g transform="translate(10.89875 26.467401)scale(0.1 -0.1)">
       <use xlink:href="#Inter-Regular-49"/>
       <use x="46.448868" xlink:href="#Inter-Regular-54"/>
      </g>
     </g>
    </g>
   </g>
   <g id="line2d_37">
    <path clip-path="url(#p378e7e542c)" d="M 59.708182 224.058984 
L 155.997664 173.508307 
L 159.464086 162.645868 
L 163.315665 140.566173 
L 166.396929 121.054916 
L 170.248508 94.356468 
L 179.492298 129.984059 
L 183.343878 175.244297 
L 186.810299 202.774557 
L 190.661878 222.741194 
L 193.743142 234.530715 
L 197.594721 244.037881 
L 206.453353 243.857027 
L 210.304933 234.19255 
L 215.311986 207.552138 
L 219.163565 170.642357 
L 222.244828 132.594035 
L 226.096408 74.383011 
L 232.258935 24.437798 
L 234.184724 28.442098 
L 236.110514 32.405811 
L 237.651146 35.547558 
L 239.191777 38.663329 
L 243.043357 46.33911 
L 244.969146 50.11611 
L 248.820726 57.548364 
L 253.442621 94.835992 
L 257.2942 141.904132 
L 260.375464 173.355131 
L 264.227043 204.91449 
L 267.693464 223.306549 
L 271.545044 235.8782 
L 280.403676 247.594754 
L 289.262308 235.30875 
L 293.113888 222.46204 
L 296.580309 203.714929 
L 300.431888 171.578696 
L 303.513152 139.598056 
L 307.364731 91.78269 
L 312.756942 52.467591 
L 316.608521 52.578955 
L 318.534311 52.627012 
L 322.38589 52.707879 
L 324.696838 52.746639 
L 327.007786 52.778081 
L 330.859365 52.814218 
L 332.785155 52.824662 
L 336.636734 52.830303 
L 342.028945 92.213495 
L 345.880524 139.994482 
L 348.961788 171.936781 
L 352.813367 204.011541 
L 356.279788 222.713965 
L 360.131368 235.514922 
L 368.99 247.604264 
L 377.848632 235.474621 
L 381.700212 222.628517 
L 385.166633 203.860795 
L 389.018212 171.674503 
L 392.099476 139.621058 
L 395.951055 91.673738 
L 401.343266 52.152495 
L 405.194845 52.14568 
L 407.120635 52.134674 
L 410.972214 52.097467 
L 413.283162 52.065418 
L 415.59411 52.026074 
L 419.445689 51.944293 
L 421.371479 51.895804 
L 425.223058 51.783631 
L 430.615269 91.235626 
L 434.466848 139.217908 
L 437.548112 171.310344 
L 441.399691 203.559152 
L 444.866112 222.372319 
L 448.717692 235.264952 
L 457.576324 247.601182 
L 466.434956 235.768013 
L 470.286536 223.066594 
L 473.752957 204.486115 
L 477.604536 172.604418 
L 480.6858 140.831413 
L 484.537379 93.280597 
L 489.159274 55.606602 
L 493.010854 48.092302 
L 494.936643 44.273724 
L 498.788223 36.513675 
L 500.328854 33.363782 
L 501.869486 30.187676 
L 503.795276 26.180681 
L 505.721065 22.132727 
L 511.883592 72.585727 
L 515.735172 131.3945 
L 518.816435 169.834516 
L 522.668014 207.125783 
L 527.675067 234.04439 
L 531.526647 243.813738 
L 540.385279 244.018575 
L 544.236858 234.427401 
L 547.318122 222.529455 
L 551.169701 202.375763 
L 554.636122 174.587337 
L 558.487702 128.902485 
L 567.731492 92.916405 
L 571.583071 119.852696 
L 574.664335 139.539016 
L 578.515914 161.818524 
L 581.982336 172.776464 
L 678.271818 224.058984 
L 678.271818 224.058984 
" style="fill:none;stroke:#ef4444;stroke-linecap:square;stroke-width:1.5;"/>
   </g>
   <g id="line2d_38">
    <path clip-path="url(#p378e7e542c)" d="M 59.708182 226.946769 
L 155.997664 168.387466 
L 159.464086 171.336799 
L 163.315665 181.92782 
L 166.396929 189.797797 
L 170.248508 198.88172 
L 179.492298 185.828299 
L 183.343878 162.008799 
L 186.810299 144.715384 
L 190.661878 132.657692 
L 193.743142 122.50831 
L 197.594721 109.192546 
L 206.453353 76.196029 
L 210.304933 60.856654 
L 215.311986 76.056858 
L 219.163565 111.554296 
L 222.244828 136.990976 
L 226.096408 165.085238 
L 232.258935 182.222733 
L 234.184724 180.948505 
L 236.110514 179.647271 
L 237.651146 178.58684 
L 239.191777 177.509125 
L 243.043357 174.739222 
L 244.969146 173.314714 
L 248.820726 170.386697 
L 253.442621 152.86893 
L 257.2942 123.043317 
L 260.375464 96.245656 
L 264.227043 59.077113 
L 267.693464 40.791597 
L 271.545044 40.58115 
L 280.403676 40.024067 
L 289.262308 40.091389 
L 293.113888 40.404507 
L 296.580309 58.810692 
L 300.431888 96.123233 
L 303.513152 123.01674 
L 307.364731 152.937964 
L 312.756942 171.280592 
L 316.608521 171.455697 
L 318.534311 171.524813 
L 322.38589 171.626168 
L 324.696838 171.662117 
L 327.007786 171.679419 
L 330.859365 171.666817 
L 332.785155 171.642075 
L 336.636734 171.55571 
L 342.028945 153.42007 
L 345.880524 123.749731 
L 348.961788 97.089871 
L 352.813367 60.110561 
L 356.279788 41.910549 
L 360.131368 41.685654 
L 368.99 41.094892 
L 377.848632 41.12424 
L 381.700212 41.41914 
L 385.166633 59.721298 
L 389.018212 96.839406 
L 392.099476 123.593947 
L 395.951055 153.362191 
L 401.343266 171.599875 
L 405.194845 171.755769 
L 407.120635 171.815213 
L 410.972214 171.89709 
L 413.283162 171.921274 
L 415.59411 171.92675 
L 419.445689 171.894305 
L 421.371479 171.859576 
L 425.223058 171.753108 
L 430.615269 153.630711 
L 434.466848 124.002202 
L 437.548112 97.377796 
L 441.399691 60.445289 
L 444.866112 42.257964 
L 448.717692 42.012202 
L 457.576324 41.373234 
L 466.434956 41.3532 
L 470.286536 41.626261 
L 473.752957 59.891854 
L 477.604536 96.957057 
L 480.6858 123.675127 
L 484.537379 153.405097 
L 489.159274 170.89368 
L 493.010854 173.862775 
L 494.936643 175.306936 
L 498.788223 178.114377 
L 500.328854 179.20645 
L 501.869486 180.280866 
L 503.795276 181.599052 
L 505.721065 182.889648 
L 511.883592 166.031362 
L 515.735172 138.319538 
L 518.816435 113.234101 
L 522.668014 78.232332 
L 527.675067 63.29342 
L 531.526647 78.483644 
L 540.385279 111.14779 
L 544.236858 124.324065 
L 547.318122 134.364778 
L 551.169701 146.290284 
L 554.636122 163.359327 
L 558.487702 186.845526 
L 567.731492 199.785592 
L 571.583071 190.907008 
L 574.664335 183.214927 
L 578.515914 172.863309 
L 581.982336 169.999518 
L 678.271818 226.946769 
L 678.271818 226.946769 
" style="fill:none;stroke:#1d4ed8;stroke-linecap:square;stroke-width:1.5;"/>
   </g>
   <g id="line2d_39">
    <path clip-path="url(#p378e7e542c)" d="M 59.708182 248.623062 
L 155.997664 248.700574 
L 159.464086 248.713696 
L 163.315665 248.739974 
L 166.396929 248.760995 
L 170.248508 248.787273 
L 179.492298 248.743543 
L 183.343878 248.682888 
L 186.810299 248.635509 
L 190.661878 248.590224 
L 193.743142 248.553997 
L 197.594721 248.508712 
L 206.453353 241.484926 
L 210.304933 235.420717 
L 215.311986 226.017069 
L 219.163565 217.384531 
L 222.244828 210.478501 
L 226.096408 201.845963 
L 232.258935 195.513693 
L 234.184724 195.971441 
L 236.110514 196.429189 
L 237.651146 196.795387 
L 239.191777 197.161586 
L 243.043357 198.077082 
L 244.969146 198.660976 
L 248.820726 200.081064 
L 253.442621 205.635329 
L 257.2942 213.346082 
L 260.375464 219.514685 
L 264.227043 227.225438 
L 267.693464 233.307067 
L 271.545044 239.212173 
L 280.403676 246.033996 
L 289.262308 239.327739 
L 293.113888 233.465928 
L 296.580309 227.431046 
L 300.431888 219.781661 
L 303.513152 213.662153 
L 307.364731 206.012768 
L 312.756942 200.202534 
L 316.608521 199.701964 
L 318.534311 199.577827 
L 322.38589 199.581849 
L 324.696838 199.584262 
L 327.007786 199.586675 
L 330.859365 199.590697 
L 332.785155 199.718856 
L 336.636734 200.22747 
L 342.028945 206.045912 
L 345.880524 213.698765 
L 348.961788 219.821047 
L 352.813367 227.4739 
L 356.279788 233.51389 
L 360.131368 239.383673 
L 368.99 246.124126 
L 377.848632 239.3365 
L 381.700212 233.439304 
L 385.166633 227.370891 
L 389.018212 219.681817 
L 392.099476 213.530559 
L 395.951055 205.841486 
L 401.343266 199.995891 
L 405.194845 199.485411 
L 407.120635 199.356319 
L 410.972214 199.35043 
L 413.283162 199.346897 
L 415.59411 199.343364 
L 419.445689 199.337475 
L 421.371479 199.460679 
L 425.223058 199.959383 
L 430.615269 205.792961 
L 434.466848 213.476957 
L 437.548112 219.624154 
L 441.399691 227.30815 
L 444.866112 233.369083 
L 448.717692 239.254609 
L 457.576324 246.031373 
L 466.434956 239.280058 
L 470.286536 233.398632 
L 473.752957 227.342784 
L 477.604536 219.666071 
L 480.6858 213.524701 
L 484.537379 205.847987 
L 489.159274 200.316346 
L 493.010854 198.899411 
L 494.936643 198.317092 
L 498.788223 197.404748 
L 500.328854 197.039811 
L 501.869486 196.674874 
L 503.795276 196.218702 
L 505.721065 195.76253 
L 511.883592 202.063298 
L 515.735172 210.654293 
L 518.816435 217.527089 
L 522.668014 226.118083 
L 527.675067 235.475792 
L 531.526647 241.509748 
L 540.385279 248.463974 
L 544.236858 248.479006 
L 547.318122 248.491031 
L 551.169701 248.506064 
L 554.636122 248.521017 
L 558.487702 248.539422 
L 567.731492 248.557579 
L 571.583071 248.553447 
L 574.664335 248.550141 
L 578.515914 248.546009 
L 581.982336 248.545549 
L 678.271818 248.623062 
L 678.271818 248.623062 
" style="fill:none;stroke:#10b981;stroke-linecap:square;stroke-width:1.5;"/>
   </g>
   <g id="patch_3">
    <path d="M 28.78 260.12 
L 28.78 10.8 
" style="fill:none;stroke:#000000;stroke-linecap:square;stroke-linejoin:miter;stroke-width:0.8;"/>
   </g>
   <g id="patch_4">
    <path d="M 709.2 260.12 
L 709.2 10.8 
" style="fill:none;stroke:#000000;stroke-linecap:square;stroke-linejoin:miter;stroke-width:0.8;"/>
   </g>
   <g id="patch_5">
    <path d="M 28.78 260.12 
L 709.2 260.12 
" style="fill:none;stroke:#000000;stroke-linecap:square;stroke-linejoin:miter;stroke-width:0.8;"/>
   </g>
   <g id="patch_6">
    <path d="M 28.78 10.8 
L 709.2 10.8 
" style="fill:none;stroke:#000000;stroke-linecap:square;stroke-linejoin:miter;stroke-width:0.8;"/>
   </g>
  </g>
 </g>
 <defs>
  <clipPath id="p378e7e542c">
   <rect height="249.32" width="680.42" x="28.78" y="10.8"/>
  </clipPath>
 </defs>
</svg>
