<?xml version="1.0" encoding="utf-8" standalone="no"?>
<!DOCTYPE svg PUBLIC "-//W3C//DTD SVG 1.1//EN"
  "http://www.w3.org/Graphics/SVG/1.1/DTD/svg11.dtd">
<!-- Created with matplotlib (https://matplotlib.org/) -->
<svg height="345.6pt" version="1.1" viewBox="0 0 576 345.6" width="576pt" xmlns="http://www.w3.org/2000/svg" xmlns:xlink="http://www.w3.org/1999/xlink">
 <metadata>
  <rdf:RDF xmlns:cc="http://creativecommons.org/ns#" xmlns:dc="http://purl.org/dc/elements/1.1/" xmlns:rdf="http://www.w3.org/1999/02/22-rdf-syntax-ns#">
   <cc:Work>
    <dc:type rdf:resource="http://purl.org/dc/dcmitype/StillImage"/>
    <dc:date>2020-12-15T10:10:54.829340</dc:date>
    <dc:format>image/svg+xml</dc:format>
    <dc:creator>
     <cc:Agent>
      <dc:title>Matplotlib v3.3.3, https://matplotlib.org/</dc:title>
     </cc:Agent>
    </dc:creator>
   </cc:Work>
  </rdf:RDF>
 </metadata>
 <defs>
  <style type="text/css">*{stroke-linecap:butt;stroke-linejoin:round;}</style>
 </defs>
 <g id="figure_1">
  <g id="patch_1">
   <path d="M 0 345.6 
L 576 345.6 
L 576 0 
L 0 0 
z
" style="fill:#ffffff;"/>
  </g>
  <g id="axes_1">
   <g id="patch_2">
    <path d="M 37.78 317.72 
L 558.759 317.72 
L 558.759 51.0736 
L 37.78 51.0736 
z
" style="fill:#ffffff;"/>
   </g>
   <g id="matplotlib.axis_1">
    <g id="xtick_1">
     <g id="line2d_1">
      <path clip-path="url(#p4e0ea4a7c0)" d="M 37.78 317.72 
L 37.78 51.0736 
" style="fill:none;stroke:#e5e7eb;stroke-dasharray:3.7,1.6;stroke-dashoffset:0;"/>
     </g>
     <g id="line2d_2">
      <defs>
       <path d="M 0 0 
L 0 3.5 
" id="mda02b62979" style="stroke:#000000;stroke-width:0.8;"/>
      </defs>
      <g>
       <use style="stroke:#000000;stroke-width:0.8;" x="37.78" xlink:href="#mda02b62979" y="317.72"/>
      </g>
     </g>
     <g id="text_1">
      <!-- 0 -->
      <g transform="translate(34.655 331.993437)scale(0.1 -0.1)">
       <defs>
        <path d="M 31.25 -1 
C 47.296875 -1 56.53125 12.609375 56.53125 36.359375 
C 56.53125 59.9375 47.15625 73.71875 31.25 73.71875 
C 15.34375 73.71875 5.96875 59.9375 5.96875 36.359375 
C 5.96875 12.609375 15.203125 -1 31.25 -1 
z
M 31.25 6.8125 
C 20.671875 6.8125 14.484375 17.4375 14.484375 36.359375 
C 14.484375 55.25 20.734375 66.046875 31.25 66.046875 
C 41.765625 66.046875 48.015625 55.25 48.015625 36.359375 
C 48.015625 17.4375 41.828125 6.8125 31.25 6.8125 
z
" id="Inter-Regular-48"/>
       </defs>
       <use xlink:href="#Inter-Regular-48"/>
      </g>
     </g>
    </g>
    <g id="xtick_2">
     <g id="line2d_3">
      <path clip-path="url(#p4e0ea4a7c0)" d="M 107.243867 317.72 
L 107.243867 51.0736 
" style="fill:none;stroke:#e5e7eb;stroke-dasharray:3.7,1.6;stroke-dashoffset:0;"/>
     </g>
     <g id="line2d_4">
      <g>
       <use style="stroke:#000000;stroke-width:0.8;" x="107.243867" xlink:href="#mda02b62979" y="317.72"/>
      </g>
     </g>
     <g id="text_2">
      <!-- 2 -->
      <g transform="translate(104.218085 331.993437)scale(0.1 -0.1)">
       <defs>
        <path d="M 7.53125 0 
L 53.40625 0 
L 53.40625 7.8125 
L 19.609375 7.8125 
L 19.609375 8.375 
L 35.9375 25.859375 
C 48.4375 39.234375 52.125 45.484375 52.125 53.546875 
C 52.125 64.765625 43.046875 73.71875 30.25 73.71875 
C 17.515625 73.71875 7.8125 65.0625 7.8125 52.265625 
L 16.1875 52.265625 
C 16.1875 60.546875 21.5625 66.046875 29.96875 66.046875 
C 37.859375 66.046875 43.890625 61.21875 43.890625 53.546875 
C 43.890625 46.84375 39.953125 41.875 31.53125 32.671875 
L 7.53125 6.390625 
z
" id="Inter-Regular-50"/>
       </defs>
       <use xlink:href="#Inter-Regular-50"/>
      </g>
     </g>
    </g>
    <g id="xtick_3">
     <g id="line2d_5">
      <path clip-path="url(#p4e0ea4a7c0)" d="M 176.707733 317.72 
L 176.707733 51.0736 
" style="fill:none;stroke:#e5e7eb;stroke-dasharray:3.7,1.6;stroke-dashoffset:0;"/>
     </g>
     <g id="line2d_6">
      <g>
       <use style="stroke:#000000;stroke-width:0.8;" x="176.707733" xlink:href="#mda02b62979" y="317.72"/>
      </g>
     </g>
     <g id="text_3">
      <!-- 4 -->
      <g transform="translate(173.497577 331.993437)scale(0.1 -0.1)">
       <defs>
        <path d="M 5.828125 14.921875 
L 40.0625 14.921875 
L 40.0625 0 
L 48.4375 0 
L 48.4375 14.921875 
L 58.375 14.921875 
L 58.375 22.734375 
L 48.4375 22.734375 
L 48.4375 72.734375 
L 37.78125 72.734375 
L 5.828125 22.15625 
z
M 15.34375 22.734375 
L 15.34375 23.296875 
L 39.484375 61.5 
L 40.0625 61.5 
L 40.0625 22.734375 
z
" id="Inter-Regular-52"/>
       </defs>
       <use xlink:href="#Inter-Regular-52"/>
      </g>
     </g>
    </g>
    <g id="xtick_4">
     <g id="line2d_7">
      <path clip-path="url(#p4e0ea4a7c0)" d="M 246.1716 317.72 
L 246.1716 51.0736 
" style="fill:none;stroke:#e5e7eb;stroke-dasharray:3.7,1.6;stroke-dashoffset:0;"/>
     </g>
     <g id="line2d_8">
      <g>
       <use style="stroke:#000000;stroke-width:0.8;" x="246.1716" xlink:href="#mda02b62979" y="317.72"/>
      </g>
     </g>
     <g id="text_4">
      <!-- 6 -->
      <g transform="translate(243.053631 331.993437)scale(0.1 -0.1)">
       <defs>
        <path d="M 31.671875 -1 
C 46.375 -1.171875 55.96875 9.90625 55.96875 23.4375 
C 55.96875 37.5 45.5625 47.578125 33.09375 47.578125 
C 25.609375 47.578125 19.171875 43.921875 15.203125 37.921875 
L 14.625 37.921875 
C 14.671875 55.78125 21.5625 66.046875 32.8125 66.046875 
C 40.484375 66.046875 45.09375 61.21875 46.734375 54.546875 
L 55.40625 54.546875 
C 53.625 65.984375 45.03125 73.859375 32.8125 73.859375 
C 16.4375 73.859375 6.390625 59.375 6.390625 33.515625 
C 6.390625 6.640625 19.75 -0.859375 31.671875 -1 
z
M 31.671875 6.8125 
C 22.546875 6.8125 15.875 14.59375 15.90625 23.296875 
C 15.953125 32 22.9375 39.765625 31.96875 39.765625 
C 40.875 39.765625 47.4375 32.453125 47.4375 23.4375 
C 47.4375 14.203125 40.59375 6.8125 31.671875 6.8125 
z
" id="Inter-Regular-54"/>
       </defs>
       <use xlink:href="#Inter-Regular-54"/>
      </g>
     </g>
    </g>
    <g id="xtick_5">
     <g id="line2d_9">
      <path clip-path="url(#p4e0ea4a7c0)" d="M 315.635467 317.72 
L 315.635467 51.0736 
" style="fill:none;stroke:#e5e7eb;stroke-dasharray:3.7,1.6;stroke-dashoffset:0;"/>
     </g>
     <g id="line2d_10">
      <g>
       <use style="stroke:#000000;stroke-width:0.8;" x="315.635467" xlink:href="#mda02b62979" y="317.72"/>
      </g>
     </g>
     <g id="text_5">
      <!-- 8 -->
      <g transform="translate(312.552654 331.993437)scale(0.1 -0.1)">
       <defs>
        <path d="M 30.828125 -1 
C 45.34375 -1 55.46875 7.5 55.546875 19.3125 
C 55.46875 28.515625 49.328125 36.328125 41.484375 37.78125 
L 41.484375 38.203125 
C 48.296875 39.984375 52.765625 46.65625 52.84375 54.40625 
C 52.765625 65.484375 43.46875 73.71875 30.828125 73.71875 
C 18.046875 73.71875 8.734375 65.484375 8.8125 54.40625 
C 8.734375 46.65625 13.21875 39.984375 20.171875 38.203125 
L 20.171875 37.78125 
C 12.1875 36.328125 6.03125 28.515625 6.109375 19.3125 
C 6.03125 7.5 16.15625 -1 30.828125 -1 
z
M 30.828125 41.328125 
C 22.875 41.328125 17.265625 46.3125 17.328125 53.828125 
C 17.265625 61.21875 22.65625 66.046875 30.828125 66.046875 
C 38.84375 66.046875 44.25 61.21875 44.3125 53.828125 
C 44.25 46.3125 38.640625 41.328125 30.828125 41.328125 
z
M 30.828125 6.8125 
C 20.84375 6.8125 14.703125 11.9375 14.78125 19.75 
C 14.703125 27.953125 21.484375 33.8125 30.828125 33.8125 
C 40.015625 33.8125 46.8125 27.953125 46.875 19.75 
C 46.8125 11.9375 40.65625 6.8125 30.828125 6.8125 
z
" id="Inter-Regular-56"/>
       </defs>
       <use xlink:href="#Inter-Regular-56"/>
      </g>
     </g>
    </g>
    <g id="xtick_6">
     <g id="line2d_11">
      <path clip-path="url(#p4e0ea4a7c0)" d="M 385.099333 317.72 
L 385.099333 51.0736 
" style="fill:none;stroke:#e5e7eb;stroke-dasharray:3.7,1.6;stroke-dashoffset:0;"/>
     </g>
     <g id="line2d_12">
      <g>
       <use style="stroke:#000000;stroke-width:0.8;" x="385.099333" xlink:href="#mda02b62979" y="317.72"/>
      </g>
     </g>
     <g id="text_6">
      <!-- 10 -->
      <g transform="translate(379.651677 331.993437)scale(0.1 -0.1)">
       <defs>
        <path d="M 33.09375 72.734375 
L 24.296875 72.734375 
L 6.109375 60.65625 
L 6.109375 51.703125 
L 23.859375 63.5 
L 24.296875 63.5 
L 24.296875 0 
L 33.09375 0 
z
" id="Inter-Regular-49"/>
       </defs>
       <use xlink:href="#Inter-Regular-49"/>
       <use x="46.448868" xlink:href="#Inter-Regular-48"/>
      </g>
     </g>
    </g>
    <g id="xtick_7">
     <g id="line2d_13">
      <path clip-path="url(#p4e0ea4a7c0)" d="M 454.5632 317.72 
L 454.5632 51.0736 
" style="fill:none;stroke:#e5e7eb;stroke-dasharray:3.7,1.6;stroke-dashoffset:0;"/>
     </g>
     <g id="line2d_14">
      <g>
       <use style="stroke:#000000;stroke-width:0.8;" x="454.5632" xlink:href="#mda02b62979" y="317.72"/>
      </g>
     </g>
     <g id="text_7">
      <!-- 12 -->
      <g transform="translate(449.214763 331.993437)scale(0.1 -0.1)">
       <use xlink:href="#Inter-Regular-49"/>
       <use x="46.448868" xlink:href="#Inter-Regular-50"/>
      </g>
     </g>
    </g>
    <g id="xtick_8">
     <g id="line2d_15">
      <path clip-path="url(#p4e0ea4a7c0)" d="M 524.027067 317.72 
L 524.027067 51.0736 
" style="fill:none;stroke:#e5e7eb;stroke-dasharray:3.7,1.6;stroke-dashoffset:0;"/>
     </g>
     <g id="line2d_16">
      <g>
       <use style="stroke:#000000;stroke-width:0.8;" x="524.027067" xlink:href="#mda02b62979" y="317.72"/>
      </g>
     </g>
     <g id="text_8">
      <!-- 14 -->
      <g transform="translate(518.494254 331.993437)scale(0.1 -0.1)">
       <use xlink:href="#Inter-Regular-49"/>
       <use x="46.448868" xlink:href="#Inter-Regular-52"/>
      </g>
     </g>
    </g>
   </g>
   <g id="matplotlib.axis_2">
    <g id="ytick_1">
     <g id="line2d_17">
      <path clip-path="url(#p4e0ea4a7c0)" d="M 37.78 306.175469 
L 558.759 306.175469 
" style="fill:none;stroke:#e5e7eb;stroke-dasharray:3.7,1.6;stroke-dashoffset:0;"/>
     </g>
     <g id="line2d_18">
      <defs>
       <path d="M 0 0 
L -3.5 0 
" id="mc59410f188" style="stroke:#000000;stroke-width:0.8;"/>
      </defs>
      <g>
       <use style="stroke:#000000;stroke-width:0.8;" x="37.78" xlink:href="#mc59410f188" y="306.175469"/>
      </g>
     </g>
     <g id="text_9">
      <!-- 0.0 -->
      <g transform="translate(15.52375 309.812188)scale(0.1 -0.1)">
       <defs>
        <path d="M 13.78125 -0.5625 
C 17.296875 -0.5625 20.171875 2.3125 20.171875 5.828125 
C 20.171875 9.34375 17.296875 12.21875 13.78125 12.21875 
C 10.265625 12.21875 7.390625 9.34375 7.390625 5.828125 
C 7.390625 2.3125 10.265625 -0.5625 13.78125 -0.5625 
z
" id="Inter-Regular-46"/>
       </defs>
       <use xlink:href="#Inter-Regular-48"/>
       <use x="62.500015" xlink:href="#Inter-Regular-46"/>
       <use x="90.056839" xlink:href="#Inter-Regular-48"/>
      </g>
     </g>
    </g>
    <g id="ytick_2">
     <g id="line2d_19">
      <path clip-path="url(#p4e0ea4a7c0)" d="M 37.78 271.266572 
L 558.759 271.266572 
" style="fill:none;stroke:#e5e7eb;stroke-dasharray:3.7,1.6;stroke-dashoffset:0;"/>
     </g>
     <g id="line2d_20">
      <g>
       <use style="stroke:#000000;stroke-width:0.8;" x="37.78" xlink:href="#mc59410f188" y="271.266572"/>
      </g>
     </g>
     <g id="text_10">
      <!-- 2.5 -->
      <g transform="translate(15.8925 274.903291)scale(0.1 -0.1)">
       <defs>
        <path d="M 30.25 -1 
C 44.109375 -1 54.265625 9.234375 54.265625 23.15625 
C 54.265625 37.25 44.46875 47.578125 31.109375 47.578125 
C 26.203125 47.578125 21.453125 45.84375 18.46875 43.46875 
L 18.046875 43.46875 
L 20.59375 64.921875 
L 51 64.921875 
L 51 72.734375 
L 13.21875 72.734375 
L 8.8125 36.9375 
L 17.046875 35.9375 
C 20.0625 38.109375 25.21875 39.671875 29.6875 39.625 
C 38.953125 39.5625 45.734375 32.53125 45.734375 23.015625 
C 45.734375 13.671875 39.203125 6.8125 30.25 6.8125 
C 22.796875 6.8125 16.875 11.609375 16.1875 18.1875 
L 7.671875 18.1875 
C 8.203125 7.109375 17.75 -1 30.25 -1 
z
" id="Inter-Regular-53"/>
       </defs>
       <use xlink:href="#Inter-Regular-50"/>
       <use x="60.511383" xlink:href="#Inter-Regular-46"/>
       <use x="88.068207" xlink:href="#Inter-Regular-53"/>
      </g>
     </g>
    </g>
    <g id="ytick_3">
     <g id="line2d_21">
      <path clip-path="url(#p4e0ea4a7c0)" d="M 37.78 236.357675 
L 558.759 236.357675 
" style="fill:none;stroke:#e5e7eb;stroke-dasharray:3.7,1.6;stroke-dashoffset:0;"/>
     </g>
     <g id="line2d_22">
      <g>
       <use style="stroke:#000000;stroke-width:0.8;" x="37.78" xlink:href="#mc59410f188" y="236.357675"/>
      </g>
     </g>
     <g id="text_11">
      <!-- 5.0 -->
      <g transform="translate(15.694063 239.994394)scale(0.1 -0.1)">
       <use xlink:href="#Inter-Regular-53"/>
       <use x="60.795471" xlink:href="#Inter-Regular-46"/>
       <use x="88.352295" xlink:href="#Inter-Regular-48"/>
      </g>
     </g>
    </g>
    <g id="ytick_4">
     <g id="line2d_23">
      <path clip-path="url(#p4e0ea4a7c0)" d="M 37.78 201.448778 
L 558.759 201.448778 
" style="fill:none;stroke:#e5e7eb;stroke-dasharray:3.7,1.6;stroke-dashoffset:0;"/>
     </g>
     <g id="line2d_24">
      <g>
       <use style="stroke:#000000;stroke-width:0.8;" x="37.78" xlink:href="#mc59410f188" y="201.448778"/>
      </g>
     </g>
     <g id="text_12">
      <!-- 7.5 -->
      <g transform="translate(16.233125 205.085497)scale(0.1 -0.1)">
       <defs>
        <path d="M 9.796875 0 
L 19.03125 0 
L 51.421875 64.484375 
L 51.421875 72.734375 
L 4.828125 72.734375 
L 4.828125 64.921875 
L 42.328125 64.921875 
L 42.328125 64.34375 
z
" id="Inter-Regular-55"/>
       </defs>
       <use xlink:href="#Inter-Regular-55"/>
       <use x="57.10228" xlink:href="#Inter-Regular-46"/>
       <use x="84.659103" xlink:href="#Inter-Regular-53"/>
      </g>
     </g>
    </g>
    <g id="ytick_5">
     <g id="line2d_25">
      <path clip-path="url(#p4e0ea4a7c0)" d="M 37.78 166.539881 
L 558.759 166.539881 
" style="fill:none;stroke:#e5e7eb;stroke-dasharray:3.7,1.6;stroke-dashoffset:0;"/>
     </g>
     <g id="line2d_26">
      <g>
       <use style="stroke:#000000;stroke-width:0.8;" x="37.78" xlink:href="#mc59410f188" y="166.539881"/>
      </g>
     </g>
     <g id="text_13">
      <!-- 10.0 -->
      <g transform="translate(10.878438 170.1766)scale(0.1 -0.1)">
       <use xlink:href="#Inter-Regular-49"/>
       <use x="46.448868" xlink:href="#Inter-Regular-48"/>
       <use x="108.948883" xlink:href="#Inter-Regular-46"/>
       <use x="136.505707" xlink:href="#Inter-Regular-48"/>
      </g>
     </g>
    </g>
    <g id="ytick_6">
     <g id="line2d_27">
      <path clip-path="url(#p4e0ea4a7c0)" d="M 37.78 131.630984 
L 558.759 131.630984 
" style="fill:none;stroke:#e5e7eb;stroke-dasharray:3.7,1.6;stroke-dashoffset:0;"/>
     </g>
     <g id="line2d_28">
      <g>
       <use style="stroke:#000000;stroke-width:0.8;" x="37.78" xlink:href="#mc59410f188" y="131.630984"/>
      </g>
     </g>
     <g id="text_14">
      <!-- 12.5 -->
      <g transform="translate(11.247188 135.267703)scale(0.1 -0.1)">
       <use xlink:href="#Inter-Regular-49"/>
       <use x="46.448868" xlink:href="#Inter-Regular-50"/>
       <use x="106.960251" xlink:href="#Inter-Regular-46"/>
       <use x="134.517075" xlink:href="#Inter-Regular-53"/>
      </g>
     </g>
    </g>
    <g id="ytick_7">
     <g id="line2d_29">
      <path clip-path="url(#p4e0ea4a7c0)" d="M 37.78 96.722087 
L 558.759 96.722087 
" style="fill:none;stroke:#e5e7eb;stroke-dasharray:3.7,1.6;stroke-dashoffset:0;"/>
     </g>
     <g id="line2d_30">
      <g>
       <use style="stroke:#000000;stroke-width:0.8;" x="37.78" xlink:href="#mc59410f188" y="96.722087"/>
      </g>
     </g>
     <g id="text_15">
      <!-- 15.0 -->
      <g transform="translate(11.04875 100.358806)scale(0.1 -0.1)">
       <use xlink:href="#Inter-Regular-49"/>
       <use x="46.448868" xlink:href="#Inter-Regular-53"/>
       <use x="107.244339" xlink:href="#Inter-Regular-46"/>
       <use x="134.801163" xlink:href="#Inter-Regular-48"/>
      </g>
     </g>
    </g>
    <g id="ytick_8">
     <g id="line2d_31">
      <path clip-path="url(#p4e0ea4a7c0)" d="M 37.78 61.81319 
L 558.759 61.81319 
" style="fill:none;stroke:#e5e7eb;stroke-dasharray:3.7,1.6;stroke-dashoffset:0;"/>
     </g>
     <g id="line2d_32">
      <g>
       <use style="stroke:#000000;stroke-width:0.8;" x="37.78" xlink:href="#mc59410f188" y="61.81319"/>
      </g>
     </g>
     <g id="text_16">
      <!-- 17.5 -->
      <g transform="translate(11.587813 65.449909)scale(0.1 -0.1)">
       <use xlink:href="#Inter-Regular-49"/>
       <use x="46.448868" xlink:href="#Inter-Regular-55"/>
       <use x="103.551147" xlink:href="#Inter-Regular-46"/>
       <use x="131.107971" xlink:href="#Inter-Regular-53"/>
      </g>
     </g>
    </g>
   </g>
   <g id="line2d_33">
    <path clip-path="url(#p4e0ea4a7c0)" d="M 37.78 269.347734 
L 43.010713 269.227651 
L 48.241426 268.867403 
L 53.472139 268.266988 
L 58.702851 267.426408 
L 63.933564 266.345663 
L 69.164277 265.024751 
L 74.39499 263.463674 
L 79.625703 261.662431 
L 84.856416 259.621022 
L 90.087129 257.339447 
L 95.317841 254.817707 
L 100.548554 252.055801 
L 105.779267 249.053729 
L 111.00998 245.811491 
L 116.240693 242.329088 
L 121.471406 238.606519 
L 124.609833 236.257698 
L 125.602174 236.017517 
L 126.594515 236.809301 
L 127.586856 238.609643 
L 128.579197 241.36532 
L 129.571538 244.994865 
L 130.563879 249.390978 
L 133.871682 266.040554 
L 135.029413 271.281749 
L 136.187144 275.861666 
L 137.344876 279.601062 
L 138.502607 282.633982 
L 140.586523 287.242095 
L 142.670439 291.282271 
L 144.781072 294.752672 
L 145.849746 296.196587 
L 146.918421 297.441792 
L 147.987096 298.506108 
L 149.055771 299.404767 
L 150.124446 300.150631 
L 151.193121 300.754374 
L 152.261796 301.224637 
L 153.330471 301.568151 
L 154.399145 301.789832 
L 155.46782 301.892852 
L 156.536495 301.878686 
L 158.531355 301.548973 
L 160.383725 300.955539 
L 162.699187 299.84415 
L 165.072536 298.278784 
L 171.249858 293.494317 
L 173.23454 292.395232 
L 175.550002 291.234609 
L 178.791649 289.327774 
L 181.917523 287.177495 
L 185.043397 284.721337 
L 188.285044 281.851127 
L 191.642465 278.531619 
L 194.768339 275.123834 
L 197.894213 271.410169 
L 201.020087 267.390624 
L 205.485621 261.406016 
L 206.477962 260.809537 
L 207.470303 260.791708 
L 208.462644 261.352988 
L 209.454985 262.478861 
L 210.447326 264.140205 
L 212.481625 268.752066 
L 215.607499 275.60255 
L 217.691415 279.733235 
L 219.775331 283.514877 
L 221.859247 286.947476 
L 223.943163 290.031033 
L 226.027079 292.765545 
L 228.126096 295.130091 
L 230.240213 296.936282 
L 232.354331 298.217474 
L 234.468449 299.040405 
L 236.582566 299.447942 
L 238.696684 299.461313 
L 240.810802 299.081214 
L 242.924919 298.287847 
L 245.039037 297.039884 
L 247.153155 295.27232 
L 248.210213 294.166091 
L 249.267272 292.893079 
L 250.324331 291.43676 
L 252.423348 287.979951 
L 254.507264 284.041794 
L 258.72853 275.462383 
L 259.797205 273.866405 
L 260.865879 272.661918 
L 261.934554 271.88124 
L 263.003229 271.545315 
L 264.071904 271.663158 
L 265.140579 272.231606 
L 266.209254 273.235409 
L 267.277929 274.647632 
L 268.346604 276.430384 
L 269.415278 278.535834 
L 273.609827 287.588532 
L 275.693743 291.392744 
L 276.750802 293.072341 
L 277.807861 294.531791 
L 278.86492 295.793126 
L 279.921979 296.875386 
L 280.979038 297.794907 
L 283.093155 299.199009 
L 285.207273 300.090533 
L 287.321391 300.523514 
L 289.435508 300.524194 
L 291.549626 300.092614 
L 292.606685 299.707608 
L 293.663744 299.202617 
L 294.720802 298.570018 
L 295.777861 297.800261 
L 296.83492 296.881727 
L 297.891979 295.800551 
L 298.949038 294.540411 
L 301.048055 291.481647 
L 303.131971 287.927604 
L 307.353236 279.94047 
L 308.421911 278.338926 
L 309.490586 277.048497 
L 310.559261 276.102761 
L 311.627936 275.526326 
L 312.696611 275.33419 
L 313.765286 275.531353 
L 314.833961 276.112684 
L 315.902635 277.063057 
L 316.97131 278.357744 
L 318.039985 279.963058 
L 322.234534 287.252438 
L 324.31845 290.402669 
L 326.432568 293.039991 
L 328.546685 295.019823 
L 330.660803 296.446704 
L 332.774921 297.395975 
L 334.889038 297.917759 
L 337.003156 298.039606 
L 339.117274 297.767951 
L 341.231391 297.08845 
L 343.345509 295.965224 
L 345.459627 294.338964 
L 346.516686 293.311514 
L 347.573744 292.123803 
L 349.672761 289.278855 
L 351.756677 286.04706 
L 355.977943 279.057615 
L 357.046618 277.770653 
L 358.115293 276.804066 
L 359.183968 276.182072 
L 360.252643 275.920255 
L 361.321317 276.025174 
L 362.389992 276.4942 
L 363.458667 277.315583 
L 364.527342 278.468743 
L 365.596017 279.924787 
L 366.664692 281.647236 
L 370.859241 289.099589 
L 372.943157 292.254386 
L 374.969186 294.778536 
L 376.995216 296.694682 
L 379.021245 298.096122 
L 381.047274 299.051091 
L 383.073304 299.606085 
L 385.099333 299.788129 
L 387.125363 299.606085 
L 389.151392 299.051091 
L 391.177422 298.096122 
L 393.203451 296.694682 
L 395.229481 294.778536 
L 397.25551 292.254386 
L 399.339426 289.099589 
L 401.423342 285.531747 
L 403.533975 281.647236 
L 404.60265 279.924787 
L 405.671325 278.468743 
L 406.739999 277.315583 
L 407.808674 276.4942 
L 408.877349 276.025174 
L 409.946024 275.920255 
L 411.014699 276.182072 
L 412.083374 276.804066 
L 413.152049 277.770653 
L 414.220724 279.057615 
L 415.289398 280.632708 
L 419.483947 287.707807 
L 421.567863 290.760205 
L 423.681981 293.311514 
L 425.796099 295.219672 
L 427.910216 296.58543 
L 430.024334 297.480903 
L 432.138452 297.953373 
L 434.252569 298.027787 
L 436.366687 297.708075 
L 438.480805 296.977354 
L 440.594922 295.797043 
L 442.70904 294.104819 
L 443.766099 293.039991 
L 444.823158 291.81133 
L 446.922175 288.873544 
L 449.006091 285.539349 
L 453.227356 278.357744 
L 454.296031 277.063057 
L 455.364706 276.112684 
L 456.433381 275.531353 
L 457.502056 275.33419 
L 458.570731 275.526326 
L 459.639406 276.102761 
L 460.708081 277.048497 
L 461.776755 278.338926 
L 462.84543 279.94047 
L 464.98278 283.903207 
L 467.066696 287.927604 
L 469.150612 291.481647 
L 471.249629 294.540411 
L 472.306688 295.800551 
L 473.363747 296.881727 
L 474.420805 297.800261 
L 476.534923 299.202617 
L 478.649041 300.092614 
L 480.763158 300.524194 
L 482.877276 300.523514 
L 484.991394 300.090533 
L 486.048453 299.704785 
L 487.105511 299.199009 
L 488.16257 298.56557 
L 489.219629 297.794907 
L 490.276688 296.875386 
L 491.333747 295.793126 
L 492.390806 294.531791 
L 493.447864 293.072341 
L 495.546881 289.55562 
L 497.630797 285.491481 
L 501.852063 276.430384 
L 502.920738 274.647632 
L 503.989413 273.235409 
L 505.058088 272.231606 
L 506.126763 271.663158 
L 507.195437 271.545315 
L 508.264112 271.88124 
L 509.332787 272.661918 
L 510.401462 273.866405 
L 511.470137 275.462383 
L 512.538812 277.407029 
L 516.733361 286.067806 
L 518.817277 289.778228 
L 520.931394 292.893079 
L 523.045512 295.27232 
L 525.15963 297.039884 
L 527.273747 298.287847 
L 529.387865 299.081214 
L 531.501983 299.461313 
L 533.6161 299.447942 
L 535.730218 299.040405 
L 537.844336 298.217474 
L 539.958453 296.936282 
L 541.015512 296.104001 
L 542.072571 295.130091 
L 544.171588 292.765545 
L 546.255504 290.031033 
L 548.33942 286.947476 
L 550.423336 283.514877 
L 552.507252 279.733235 
L 554.591168 275.60255 
L 556.675084 271.122822 
L 559.751341 264.140205 
L 559.751341 264.140205 
" style="fill:none;stroke:#ef4444;stroke-linecap:square;stroke-width:1.5;"/>
   </g>
   <g id="line2d_34">
    <path clip-path="url(#p4e0ea4a7c0)" d="M 37.78 256.844471 
L 44.056855 256.715379 
L 50.333711 256.328104 
L 56.610566 255.682645 
L 62.887422 254.779002 
L 69.164277 253.617176 
L 75.441133 252.197166 
L 81.717988 250.518973 
L 87.994843 248.582596 
L 94.271699 246.388035 
L 100.548554 243.935291 
L 106.82541 241.224363 
L 113.102265 238.255252 
L 119.37912 235.027956 
L 124.609833 232.14132 
L 125.602174 231.020773 
L 126.594515 228.760714 
L 127.586856 225.293998 
L 128.579197 220.517632 
L 129.571538 214.289713 
L 130.563879 206.425214 
L 131.55622 196.690485 
L 133.871682 170.133396 
L 136.187144 142.109675 
L 137.344876 130.895071 
L 138.502607 122.524971 
L 142.670439 97.062649 
L 144.781072 84.31473 
L 145.849746 79.71473 
L 146.918421 76.700178 
L 147.987096 75.314182 
L 149.055771 75.576562 
L 150.124446 77.483567 
L 151.193121 81.007925 
L 152.261796 86.099239 
L 153.330471 92.684702 
L 154.399145 100.670143 
L 155.46782 109.94137 
L 157.60517 131.794375 
L 160.383725 161.300901 
L 162.699187 183.790026 
L 165.072536 204.860433 
L 167.280494 222.270811 
L 168.272835 228.619158 
L 169.265176 234.036399 
L 170.257517 238.621008 
L 171.249858 242.456321 
L 172.242199 245.612056 
L 173.23454 248.145575 
L 176.707733 255.682801 
L 179.833607 261.956579 
L 182.959481 267.74746 
L 186.085355 273.055443 
L 189.442776 278.218732 
L 192.684423 282.675373 
L 195.810297 286.481009 
L 198.936171 289.803747 
L 201.020087 291.750629 
L 203.335549 293.662116 
L 205.485621 295.127112 
L 206.477962 295.551358 
L 207.470303 295.802256 
L 208.462644 295.886323 
L 209.454985 295.805742 
L 210.447326 295.558421 
L 212.481625 294.579694 
L 214.565541 293.328801 
L 216.649457 291.89869 
L 219.775331 289.417494 
L 222.901205 286.53306 
L 226.027079 283.245389 
L 228.126096 280.892365 
L 230.240213 278.94768 
L 231.297272 278.195764 
L 232.354331 277.604465 
L 233.41139 277.18146 
L 234.468449 276.932239 
L 235.525507 276.860037 
L 236.582566 276.965792 
L 237.639625 277.248131 
L 238.696684 277.703388 
L 239.753743 278.325655 
L 240.810802 279.106853 
L 242.924919 281.10355 
L 245.039037 283.59014 
L 247.153155 286.437931 
L 253.465306 295.44014 
L 255.549222 297.817981 
L 256.59118 298.839728 
L 257.659855 299.726799 
L 258.72853 300.421441 
L 259.797205 300.94237 
L 260.865879 301.303623 
L 261.934554 301.514934 
L 263.003229 301.581997 
L 264.071904 301.506618 
L 265.140579 301.286767 
L 266.209254 300.91652 
L 267.277929 300.3859 
L 268.346604 299.68061 
L 269.415278 298.781646 
L 270.483953 297.664785 
L 272.567869 295.002996 
L 274.651785 291.835352 
L 280.979038 281.217933 
L 283.093155 278.373965 
L 284.150214 277.193619 
L 285.207273 276.198952 
L 286.264332 275.404968 
L 287.321391 274.823645 
L 288.378449 274.463753 
L 289.435508 274.330722 
L 290.492567 274.426558 
L 291.549626 274.749816 
L 292.606685 275.295618 
L 293.663744 276.055731 
L 294.720802 277.018689 
L 295.777861 278.169963 
L 297.891979 280.965413 
L 300.006097 284.274032 
L 302.090013 287.556936 
L 304.173929 290.503872 
L 306.284562 293.058301 
L 307.353236 294.021115 
L 308.421911 294.76495 
L 309.490586 295.309239 
L 310.559261 295.668203 
L 311.627936 295.851221 
L 312.696611 295.863074 
L 313.765286 295.704072 
L 314.833961 295.37006 
L 315.902635 294.852313 
L 316.97131 294.137303 
L 318.039985 293.206349 
L 319.10866 292.035128 
L 321.192576 289.33476 
L 323.276492 286.307533 
L 326.432568 281.41298 
L 328.546685 278.554585 
L 330.660803 276.246095 
L 331.717862 275.337217 
L 332.774921 274.608599 
L 333.83198 274.069827 
L 334.889038 273.727989 
L 335.946097 273.587584 
L 337.003156 273.650458 
L 338.060215 273.915784 
L 339.117274 274.380071 
L 340.174333 275.037211 
L 341.231391 275.878558 
L 342.28845 276.893042 
L 344.402568 279.385933 
L 346.516686 282.385121 
L 351.756677 290.458529 
L 353.840593 293.166141 
L 354.909268 294.340859 
L 355.977943 295.288209 
L 357.046618 296.03202 
L 358.115293 296.591003 
L 359.183968 296.979216 
L 360.252643 297.206426 
L 361.321317 297.278346 
L 362.389992 297.196787 
L 363.458667 296.959695 
L 364.527342 296.561109 
L 365.596017 295.991002 
L 366.664692 295.235034 
L 368.775325 293.192436 
L 370.859241 290.803059 
L 373.956171 286.75348 
L 375.982201 284.21628 
L 378.00823 282.021291 
L 380.03426 280.274756 
L 381.047274 279.597042 
L 382.060289 279.061207 
L 383.073304 278.673754 
L 384.086319 278.439385 
L 385.099333 278.360944 
L 386.112348 278.439385 
L 387.125363 278.673754 
L 388.138378 279.061207 
L 389.151392 279.597042 
L 391.177422 281.086121 
L 393.203451 283.068916 
L 395.229481 285.449457 
L 400.381384 292.035393 
L 402.4653 294.27419 
L 403.533975 295.235034 
L 404.60265 295.991002 
L 405.671325 296.561109 
L 406.739999 296.959695 
L 407.808674 297.196787 
L 408.877349 297.278346 
L 409.946024 297.206426 
L 411.014699 296.979216 
L 412.083374 296.591003 
L 413.152049 296.03202 
L 414.220724 295.288209 
L 415.289398 294.340859 
L 417.400031 291.85659 
L 419.483947 288.971959 
L 422.624922 284.026234 
L 424.73904 280.831541 
L 426.853158 278.067317 
L 428.967275 275.878558 
L 430.024334 275.037211 
L 431.081393 274.380071 
L 432.138452 273.915784 
L 433.195511 273.650458 
L 434.252569 273.587584 
L 435.309628 273.727989 
L 436.366687 274.069827 
L 437.423746 274.608599 
L 438.480805 275.337217 
L 439.537864 276.246095 
L 441.651981 278.554585 
L 443.766099 281.41298 
L 450.048049 290.725801 
L 452.158682 293.206349 
L 453.227356 294.137303 
L 454.296031 294.852313 
L 455.364706 295.37006 
L 456.433381 295.704072 
L 457.502056 295.863074 
L 458.570731 295.851221 
L 459.639406 295.668203 
L 460.708081 295.309239 
L 461.776755 294.76495 
L 462.84543 294.021115 
L 463.914105 293.058301 
L 464.98278 291.851352 
L 467.066696 289.0724 
L 469.150612 285.95748 
L 472.306688 280.965413 
L 474.420805 278.169963 
L 475.477864 277.018689 
L 476.534923 276.055731 
L 477.591982 275.295618 
L 478.649041 274.749816 
L 479.7061 274.426558 
L 480.763158 274.330722 
L 481.820217 274.463753 
L 482.877276 274.823645 
L 483.934335 275.404968 
L 484.991394 276.198952 
L 486.048453 277.193619 
L 487.105511 278.373965 
L 489.219629 281.217933 
L 491.333747 284.559889 
L 496.588839 293.482406 
L 498.672755 296.397122 
L 499.714713 297.664785 
L 500.783388 298.781646 
L 501.852063 299.68061 
L 502.920738 300.3859 
L 503.989413 300.91652 
L 505.058088 301.286767 
L 506.126763 301.506618 
L 507.195437 301.581997 
L 508.264112 301.514934 
L 509.332787 301.303623 
L 510.401462 300.94237 
L 511.470137 300.421441 
L 512.538812 299.726799 
L 513.607487 298.839728 
L 515.691403 296.684785 
L 517.775319 294.084045 
L 520.931394 289.499535 
L 524.102571 284.977745 
L 526.216689 282.29313 
L 528.330806 280.036842 
L 529.387865 279.106853 
L 530.444924 278.325655 
L 531.501983 277.703388 
L 532.559042 277.248131 
L 533.6161 276.965792 
L 534.673159 276.860037 
L 535.730218 276.932239 
L 536.787277 277.18146 
L 537.844336 277.604465 
L 538.901395 278.195764 
L 539.958453 278.94768 
L 542.072571 280.892365 
L 547.297462 286.53306 
L 550.423336 289.417494 
L 553.54921 291.89869 
L 556.675084 293.97665 
L 558.759 295.137935 
L 559.751341 295.558421 
L 559.751341 295.558421 
" style="fill:none;stroke:#1d4ed8;stroke-linecap:square;stroke-width:1.5;"/>
   </g>
   <g id="line2d_35">
    <path clip-path="url(#p4e0ea4a7c0)" d="M 37.78 306.176866 
L 144.781072 306.12515 
L 146.918421 305.718252 
L 149.055771 304.898739 
L 151.193121 303.654883 
L 153.330471 301.968881 
L 155.46782 299.816604 
L 157.60517 297.167249 
L 167.280494 284.04295 
L 169.265176 281.74403 
L 171.249858 279.887873 
L 173.23454 278.508117 
L 204.49328 260.671629 
L 205.485621 260.253362 
L 206.477962 260.132521 
L 207.470303 260.309889 
L 208.462644 260.784318 
L 209.454985 261.552735 
L 210.447326 262.610163 
L 212.481625 265.501577 
L 228.126096 288.714871 
L 230.240213 291.184567 
L 231.297272 292.174527 
L 232.354331 293.005684 
L 233.41139 293.680732 
L 234.468449 294.201861 
L 235.525507 294.57076 
L 236.582566 294.788626 
L 237.639625 294.856164 
L 238.696684 294.773595 
L 239.753743 294.540649 
L 240.810802 294.156572 
L 241.86786 293.620118 
L 242.924919 292.929549 
L 243.981978 292.082624 
L 245.039037 291.076598 
L 246.096096 289.908208 
L 248.210213 287.068646 
L 250.324331 283.527079 
L 253.465306 277.253068 
L 257.659855 268.894838 
L 258.72853 267.180113 
L 259.797205 265.781443 
L 260.865879 264.708226 
L 261.934554 263.967672 
L 263.003229 263.564759 
L 264.071904 263.502192 
L 265.140579 263.780392 
L 266.209254 264.397489 
L 267.277929 265.349339 
L 268.346604 266.629544 
L 269.415278 268.229504 
L 271.525911 272.146344 
L 276.750802 282.110389 
L 278.86492 285.369562 
L 279.921979 286.708481 
L 280.979038 287.860594 
L 282.036096 288.830245 
L 283.093155 289.62109 
L 284.150214 290.236109 
L 285.207273 290.677623 
L 286.264332 290.947295 
L 287.321391 291.046143 
L 288.378449 290.974538 
L 289.435508 290.732212 
L 290.492567 290.31825 
L 291.549626 289.731091 
L 292.606685 288.968523 
L 293.663744 288.02767 
L 294.720802 286.904984 
L 295.777861 285.596232 
L 296.83492 284.096482 
L 298.949038 280.500622 
L 302.090013 274.019598 
L 306.284562 265.376416 
L 307.353236 263.610147 
L 308.421911 262.175264 
L 309.490586 261.081115 
L 310.559261 260.334828 
L 311.627936 259.941268 
L 312.696611 259.902997 
L 313.765286 260.220266 
L 314.833961 260.891006 
L 315.902635 261.910848 
L 316.97131 263.273148 
L 318.039985 264.969027 
L 320.150618 269.108516 
L 325.375509 279.642149 
L 327.489627 283.145043 
L 329.603744 285.890929 
L 330.660803 286.991658 
L 331.717862 287.915932 
L 332.774921 288.666789 
L 333.83198 289.246697 
L 334.889038 289.657561 
L 335.946097 289.900732 
L 337.003156 289.977009 
L 338.060215 289.886643 
L 339.117274 289.629337 
L 340.174333 289.204244 
L 341.231391 288.609969 
L 342.28845 287.844557 
L 343.345509 286.905494 
L 344.402568 285.789693 
L 345.459627 284.493486 
L 347.573744 281.342211 
L 350.714719 275.603072 
L 354.909268 267.94921 
L 355.977943 266.399776 
L 357.046618 265.153922 
L 358.115293 264.219464 
L 359.183968 263.602264 
L 360.252643 263.306194 
L 361.321317 263.333111 
L 362.389992 263.682848 
L 363.458667 264.353208 
L 364.527342 265.339988 
L 365.596017 266.636997 
L 366.664692 268.236097 
L 368.775325 272.109807 
L 373.956171 281.876768 
L 375.982201 285.021871 
L 378.00823 287.493338 
L 379.021245 288.486141 
L 380.03426 289.321164 
L 381.047274 290.00094 
L 382.060289 290.527529 
L 383.073304 290.902528 
L 384.086319 291.127074 
L 385.099333 291.201847 
L 386.112348 291.127074 
L 387.125363 290.902528 
L 388.138378 290.527529 
L 389.151392 290.00094 
L 390.164407 289.321164 
L 391.177422 288.486141 
L 392.190436 287.493338 
L 394.216466 285.021871 
L 396.242495 281.876768 
L 399.339426 276.074907 
L 403.533975 268.236097 
L 404.60265 266.636997 
L 405.671325 265.339988 
L 406.739999 264.353208 
L 407.808674 263.682848 
L 408.877349 263.333111 
L 409.946024 263.306194 
L 411.014699 263.602264 
L 412.083374 264.219464 
L 413.152049 265.153922 
L 414.220724 266.399776 
L 415.289398 267.94921 
L 417.400031 271.72936 
L 422.624922 281.342211 
L 424.73904 284.493486 
L 425.796099 285.789693 
L 426.853158 286.905494 
L 427.910216 287.844557 
L 428.967275 288.609969 
L 430.024334 289.204244 
L 431.081393 289.629337 
L 432.138452 289.886643 
L 433.195511 289.977009 
L 434.252569 289.900732 
L 435.309628 289.657561 
L 436.366687 289.246697 
L 437.423746 288.666789 
L 438.480805 287.915932 
L 439.537864 286.991658 
L 440.594922 285.890929 
L 441.651981 284.610127 
L 443.766099 281.490863 
L 445.880217 277.592825 
L 452.158682 264.969027 
L 453.227356 263.273148 
L 454.296031 261.910848 
L 455.364706 260.891006 
L 456.433381 260.220266 
L 457.502056 259.902997 
L 458.570731 259.941268 
L 459.639406 260.334828 
L 460.708081 261.081115 
L 461.776755 262.175264 
L 462.84543 263.610147 
L 463.914105 265.376416 
L 466.024738 269.64824 
L 471.249629 280.500622 
L 473.363747 284.096482 
L 475.477864 286.904984 
L 476.534923 288.02767 
L 477.591982 288.968523 
L 478.649041 289.731091 
L 479.7061 290.31825 
L 480.763158 290.732212 
L 481.820217 290.974538 
L 482.877276 291.046143 
L 483.934335 290.947295 
L 484.991394 290.677623 
L 486.048453 290.236109 
L 487.105511 289.62109 
L 488.16257 288.830245 
L 489.219629 287.860594 
L 490.276688 286.708481 
L 491.333747 285.369562 
L 492.390806 283.838788 
L 494.504923 280.177848 
L 500.783388 268.229504 
L 501.852063 266.629544 
L 502.920738 265.349339 
L 503.989413 264.397489 
L 505.058088 263.780392 
L 506.126763 263.502192 
L 507.195437 263.564759 
L 508.264112 263.967672 
L 509.332787 264.708226 
L 510.401462 265.781443 
L 511.470137 267.180113 
L 512.538812 268.894838 
L 514.649445 273.027087 
L 519.874336 283.527079 
L 521.988453 287.068646 
L 524.102571 289.908208 
L 526.216689 292.082624 
L 527.273747 292.929549 
L 528.330806 293.620118 
L 529.387865 294.156572 
L 530.444924 294.540649 
L 531.501983 294.773595 
L 532.559042 294.856164 
L 533.6161 294.788626 
L 534.673159 294.57076 
L 535.730218 294.201861 
L 536.787277 293.680732 
L 537.844336 293.005684 
L 538.901395 292.174527 
L 539.958453 291.184567 
L 541.015512 290.032593 
L 543.12963 287.227128 
L 559.751341 262.610163 
L 559.751341 262.610163 
" style="fill:none;stroke:#10b981;stroke-linecap:square;stroke-width:1.5;"/>
   </g>
   <g id="patch_3">
    <path d="M 37.78 317.72 
L 37.78 51.0736 
" style="fill:none;stroke:#000000;stroke-linecap:square;stroke-linejoin:miter;stroke-width:0.8;"/>
   </g>
   <g id="patch_4">
    <path d="M 558.759 317.72 
L 558.759 51.0736 
" style="fill:none;stroke:#000000;stroke-linecap:square;stroke-linejoin:miter;stroke-width:0.8;"/>
   </g>
   <g id="patch_5">
    <path d="M 37.78 317.72 
L 558.759 317.72 
" style="fill:none;stroke:#000000;stroke-linecap:square;stroke-linejoin:miter;stroke-width:0.8;"/>
   </g>
   <g id="patch_6">
    <path d="M 37.78 51.0736 
L 558.759 51.0736 
" style="fill:none;stroke:#000000;stroke-linecap:square;stroke-linejoin:miter;stroke-width:0.8;"/>
   </g>
   <g id="legend_1">
    <g id="line2d_36">
     <path d="M 46.78 22.14128 
L 66.78 22.14128 
" style="fill:none;stroke:#ef4444;stroke-linecap:square;stroke-width:1.5;"/>
    </g>
    <g id="line2d_37"/>
    <g id="text_17">
     <!-- $\beta_x$ / m -->
     <g transform="translate(74.78 25.64128)scale(0.1 -0.1)">
      <defs>
       <path d="M 13.625 3.375 
L 8.9375 -20.796875 
L -0.09375 -20.796875 
L 14.5 54.34375 
Q 18.84375 76.609375 39.65625 76.609375 
Q 60.75 76.609375 57.171875 57.8125 
Q 54.734375 44.4375 45.21875 39.546875 
Q 58.015625 35.15625 55.515625 22.125 
Q 51.125 -1.078125 27.484375 -1.03125 
Q 17.140625 -0.984375 13.625 3.375 
z
M 15.921875 15.09375 
Q 19.671875 6.59375 29.296875 6.640625 
Q 43.359375 6.640625 46.34375 21.96875 
Q 49.03125 35.75 26.171875 34.671875 
L 27.78125 42.96875 
Q 45.453125 42.671875 48.53125 58.59375 
Q 50.640625 69.34375 39.203125 69.28125 
Q 26.421875 69.28125 23.484375 54.046875 
z
" id="DejaVuSans-Oblique-946"/>
       <path d="M 60.015625 54.6875 
L 34.90625 27.875 
L 50.296875 0 
L 39.984375 0 
L 28.421875 21.6875 
L 8.296875 0 
L -2.59375 0 
L 24.3125 28.8125 
L 10.015625 54.6875 
L 20.3125 54.6875 
L 30.8125 34.90625 
L 49.125 54.6875 
z
" id="DejaVuSans-Oblique-120"/>
       <path id="Inter-Regular-32"/>
       <path d="M 33.375 76.140625 
L 25.71875 76.140625 
L 2.28125 -10.9375 
L 9.9375 -10.9375 
z
" id="Inter-Regular-47"/>
       <path d="M 7.671875 0 
L 16.046875 0 
L 16.046875 34.09375 
C 16.046875 42.078125 21.875 47.734375 28.40625 47.734375 
C 34.765625 47.734375 39.203125 43.578125 39.203125 37.359375 
L 39.203125 0 
L 47.734375 0 
L 47.734375 35.515625 
C 47.734375 42.546875 52.125 47.734375 59.796875 47.734375 
C 65.765625 47.734375 70.875 44.5625 70.875 36.5 
L 70.875 0 
L 79.265625 0 
L 79.265625 36.5 
C 79.265625 49.328125 72.375 55.25 62.640625 55.25 
C 54.828125 55.25 49.109375 51.671875 46.3125 46.015625 
L 45.734375 46.015625 
C 43.046875 51.84375 38.28125 55.25 31.109375 55.25 
C 24 55.25 18.75 51.84375 16.484375 46.015625 
L 15.765625 46.015625 
L 15.765625 54.546875 
L 7.671875 54.546875 
z
" id="Inter-Regular-109"/>
      </defs>
      <use transform="translate(0 0.390625)" xlink:href="#DejaVuSans-Oblique-946"/>
      <use transform="translate(63.818359 -16.015625)scale(0.7)" xlink:href="#DejaVuSans-Oblique-120"/>
      <use transform="translate(107.978516 0.390625)" xlink:href="#Inter-Regular-32"/>
      <use transform="translate(136.103516 0.390625)" xlink:href="#Inter-Regular-47"/>
      <use transform="translate(171.756927 0.390625)" xlink:href="#Inter-Regular-32"/>
      <use transform="translate(199.881927 0.390625)" xlink:href="#Inter-Regular-109"/>
     </g>
    </g>
    <g id="line2d_38">
     <path d="M 259.9695 22.14128 
L 279.9695 22.14128 
" style="fill:none;stroke:#1d4ed8;stroke-linecap:square;stroke-width:1.5;"/>
    </g>
    <g id="line2d_39"/>
    <g id="text_18">
     <!-- $\beta_y$ / m -->
     <g transform="translate(287.9695 25.64128)scale(0.1 -0.1)">
      <defs>
       <path d="M 24.8125 -5.078125 
Q 18.5625 -15.578125 14.625 -18.1875 
Q 10.6875 -20.796875 4.59375 -20.796875 
L -2.484375 -20.796875 
L -0.984375 -13.28125 
L 4.203125 -13.28125 
Q 7.953125 -13.28125 10.59375 -11.234375 
Q 13.234375 -9.1875 16.5 -3.21875 
L 19.28125 2 
L 7.171875 54.6875 
L 16.703125 54.6875 
L 25.78125 12.796875 
L 50.875 54.6875 
L 60.296875 54.6875 
z
" id="DejaVuSans-Oblique-121"/>
      </defs>
      <use transform="translate(0 0.390625)" xlink:href="#DejaVuSans-Oblique-946"/>
      <use transform="translate(63.818359 -16.015625)scale(0.7)" xlink:href="#DejaVuSans-Oblique-121"/>
      <use transform="translate(107.978516 0.390625)" xlink:href="#Inter-Regular-32"/>
      <use transform="translate(136.103516 0.390625)" xlink:href="#Inter-Regular-47"/>
      <use transform="translate(171.756927 0.390625)" xlink:href="#Inter-Regular-32"/>
      <use transform="translate(199.881927 0.390625)" xlink:href="#Inter-Regular-109"/>
     </g>
    </g>
    <g id="line2d_40">
     <path d="M 473.159 22.14128 
L 493.159 22.14128 
" style="fill:none;stroke:#10b981;stroke-linecap:square;stroke-width:1.5;"/>
    </g>
    <g id="line2d_41"/>
    <g id="text_19">
     <!-- 100 $\eta_x$ / m -->
     <g transform="translate(501.159 25.64128)scale(0.1 -0.1)">
      <defs>
       <path d="M 57.859375 33.015625 
L 47.40625 -20.796875 
L 38.421875 -20.796875 
L 48.828125 32.71875 
Q 50.34375 40.484375 48.046875 44.34375 
Q 45.796875 48.1875 39.75 48.1875 
Q 32.46875 48.1875 27.34375 43.5625 
Q 22.265625 38.921875 20.703125 30.90625 
L 14.703125 0 
L 5.671875 0 
L 16.3125 54.6875 
L 25.34375 54.6875 
L 23.6875 46.1875 
Q 27.828125 51.125 32.71875 53.5625 
Q 37.546875 56 43.265625 56 
Q 52.6875 56 56.390625 50.203125 
Q 60.0625 44.34375 57.859375 33.015625 
z
" id="DejaVuSans-Oblique-951"/>
      </defs>
      <use transform="translate(0 0.859375)" xlink:href="#Inter-Regular-49"/>
      <use transform="translate(46.448868 0.859375)" xlink:href="#Inter-Regular-48"/>
      <use transform="translate(108.948883 0.859375)" xlink:href="#Inter-Regular-48"/>
      <use transform="translate(171.448898 0.859375)" xlink:href="#Inter-Regular-32"/>
      <use transform="translate(199.573898 0.859375)" xlink:href="#DejaVuSans-Oblique-951"/>
      <use transform="translate(262.952805 -15.546875)scale(0.7)" xlink:href="#DejaVuSans-Oblique-120"/>
      <use transform="translate(307.112961 0.859375)" xlink:href="#Inter-Regular-32"/>
      <use transform="translate(335.237961 0.859375)" xlink:href="#Inter-Regular-47"/>
      <use transform="translate(370.891373 0.859375)" xlink:href="#Inter-Regular-32"/>
      <use transform="translate(399.016373 0.859375)" xlink:href="#Inter-Regular-109"/>
     </g>
    </g>
   </g>
   <g id="patch_7">
    <path d="M 124.609833 57.422324 
L 131.55622 57.422324 
L 131.55622 44.724876 
L 124.609833 44.724876 
z
" style="fill:#ef4444;"/>
   </g>
   <g id="patch_8">
    <path d="M 135.029413 57.422324 
L 138.502607 57.422324 
L 138.502607 44.724876 
L 135.029413 44.724876 
z
" style="fill:#ef4444;"/>
   </g>
   <g id="patch_9">
    <path d="M 143.712397 57.422324 
L 157.60517 57.422324 
L 157.60517 44.724876 
L 143.712397 44.724876 
z
" style="fill:#fbbf24;"/>
   </g>
   <g id="patch_10">
    <path d="M 160.383725 57.422324 
L 163.856918 57.422324 
L 163.856918 44.724876 
L 160.383725 44.724876 
z
" style="fill:#10b981;"/>
   </g>
   <g id="patch_11">
    <path d="M 166.288153 57.422324 
L 173.23454 57.422324 
L 173.23454 44.724876 
L 166.288153 44.724876 
z
" style="fill:#ef4444;"/>
   </g>
   <g id="patch_12">
    <path d="M 176.707733 57.422324 
L 187.127313 57.422324 
L 187.127313 44.724876 
L 176.707733 44.724876 
z
" style="fill:#10b981;"/>
   </g>
   <g id="patch_13">
    <path d="M 190.600507 57.422324 
L 201.020087 57.422324 
L 201.020087 44.724876 
L 190.600507 44.724876 
z
" style="fill:#10b981;"/>
   </g>
   <g id="patch_14">
    <path d="M 204.49328 57.422324 
L 211.439667 57.422324 
L 211.439667 44.724876 
L 204.49328 44.724876 
z
" style="fill:#ef4444;"/>
   </g>
   <g id="patch_15">
    <path d="M 216.649457 57.422324 
L 221.859247 57.422324 
L 221.859247 44.724876 
L 216.649457 44.724876 
z
" style="fill:#10b981;"/>
   </g>
   <g id="patch_16">
    <path d="M 227.069037 57.422324 
L 251.38139 57.422324 
L 251.38139 44.724876 
L 227.069037 44.724876 
z
" style="fill:#fbbf24;"/>
   </g>
   <g id="patch_17">
    <path d="M 256.59118 57.422324 
L 270.483953 57.422324 
L 270.483953 44.724876 
L 256.59118 44.724876 
z
" style="fill:#fbbf24;"/>
   </g>
   <g id="patch_18">
    <path d="M 275.693743 57.422324 
L 300.006097 57.422324 
L 300.006097 44.724876 
L 275.693743 44.724876 
z
" style="fill:#fbbf24;"/>
   </g>
   <g id="patch_19">
    <path d="M 305.215887 57.422324 
L 319.10866 57.422324 
L 319.10866 44.724876 
L 305.215887 44.724876 
z
" style="fill:#fbbf24;"/>
   </g>
   <g id="patch_20">
    <path d="M 324.31845 57.422324 
L 348.630803 57.422324 
L 348.630803 44.724876 
L 324.31845 44.724876 
z
" style="fill:#fbbf24;"/>
   </g>
   <g id="patch_21">
    <path d="M 353.840593 57.422324 
L 367.733367 57.422324 
L 367.733367 44.724876 
L 353.840593 44.724876 
z
" style="fill:#fbbf24;"/>
   </g>
   <g id="patch_22">
    <path d="M 372.943157 57.422324 
L 397.25551 57.422324 
L 397.25551 44.724876 
L 372.943157 44.724876 
z
" style="fill:#fbbf24;"/>
   </g>
   <g id="patch_23">
    <path d="M 402.4653 57.422324 
L 416.358073 57.422324 
L 416.358073 44.724876 
L 402.4653 44.724876 
z
" style="fill:#fbbf24;"/>
   </g>
   <g id="patch_24">
    <path d="M 421.567863 57.422324 
L 445.880217 57.422324 
L 445.880217 44.724876 
L 421.567863 44.724876 
z
" style="fill:#fbbf24;"/>
   </g>
   <g id="patch_25">
    <path d="M 451.090007 57.422324 
L 464.98278 57.422324 
L 464.98278 44.724876 
L 451.090007 44.724876 
z
" style="fill:#fbbf24;"/>
   </g>
   <g id="patch_26">
    <path d="M 470.19257 57.422324 
L 494.504923 57.422324 
L 494.504923 44.724876 
L 470.19257 44.724876 
z
" style="fill:#fbbf24;"/>
   </g>
   <g id="patch_27">
    <path d="M 499.714713 57.422324 
L 513.607487 57.422324 
L 513.607487 44.724876 
L 499.714713 44.724876 
z
" style="fill:#fbbf24;"/>
   </g>
   <g id="patch_28">
    <path d="M 518.817277 57.422324 
L 543.12963 57.422324 
L 543.12963 44.724876 
L 518.817277 44.724876 
z
" style="fill:#fbbf24;"/>
   </g>
   <g id="patch_29">
    <path d="M 548.33942 57.422324 
L 553.54921 57.422324 
L 553.54921 44.724876 
L 548.33942 44.724876 
z
" style="fill:#10b981;"/>
   </g>
   <g id="patch_30">
    <path d="M 558.759 57.422324 
L 558.759 57.422324 
L 558.759 44.724876 
L 558.759 44.724876 
z
" style="fill:#ef4444;"/>
   </g>
   <g id="text_20">
    <!-- Q11 -->
    <g transform="translate(123.856855 39.683184)scale(0.05 -0.05)">
     <defs>
      <path d="M 70.171875 36.359375 
C 70.171875 59.375 56.671875 73.71875 38.0625 73.71875 
C 19.46875 73.71875 5.96875 59.375 5.96875 36.359375 
C 5.96875 13.359375 19.46875 -1 38.0625 -1 
C 42.828125 -1 47.234375 -0.078125 51.171875 1.703125 
L 57.53125 -6.8125 
L 67.1875 -6.8125 
L 57.703125 5.78125 
C 65.453125 12.140625 70.171875 22.734375 70.171875 36.359375 
z
M 35.234375 22.734375 
L 45.984375 8.59375 
C 43.53125 7.703125 40.875 7.25 38.0625 7.25 
C 24.859375 7.25 14.484375 17.46875 14.484375 36.359375 
C 14.484375 55.25 24.859375 65.484375 38.0625 65.484375 
C 51.28125 65.484375 61.65625 55.25 61.65625 36.359375 
C 61.65625 25.390625 58.171875 17.359375 52.625 12.53125 
L 44.890625 22.734375 
z
" id="Inter-Regular-81"/>
     </defs>
     <use xlink:href="#Inter-Regular-81"/>
     <use x="76.136383" xlink:href="#Inter-Regular-49"/>
     <use x="122.585251" xlink:href="#Inter-Regular-49"/>
    </g>
   </g>
   <g id="text_21">
    <!-- Q12 -->
    <g transform="translate(132.188276 65.078079)scale(0.05 -0.05)">
     <use xlink:href="#Inter-Regular-81"/>
     <use x="76.136383" xlink:href="#Inter-Regular-49"/>
     <use x="122.585251" xlink:href="#Inter-Regular-50"/>
    </g>
   </g>
   <g id="text_22">
    <!-- B1 -->
    <g transform="translate(147.870893 39.683184)scale(0.05 -0.05)">
     <defs>
      <path d="M 8.8125 0 
L 35.09375 0 
C 52.28125 0 59.375 8.375 59.375 19.3125 
C 59.375 30.828125 51.421875 37.078125 44.75 37.5 
L 44.75 38.203125 
C 51 39.921875 56.53125 44.03125 56.53125 53.40625 
C 56.53125 64.0625 49.4375 72.734375 34.234375 72.734375 
L 8.8125 72.734375 
z
M 17.609375 40.765625 
L 17.609375 64.921875 
L 34.234375 64.921875 
C 43.890625 64.921875 48.15625 59.796875 48.15625 53.40625 
C 48.15625 45.734375 41.90625 40.765625 33.953125 40.765625 
z
M 17.609375 7.8125 
L 17.609375 33.09375 
L 35.515625 33.09375 
C 45.03125 33.09375 51 26.703125 51 19.3125 
C 51 12.921875 46.59375 7.8125 35.09375 7.8125 
z
" id="Inter-Regular-66"/>
     </defs>
     <use xlink:href="#Inter-Regular-66"/>
     <use x="65.056839" xlink:href="#Inter-Regular-49"/>
    </g>
   </g>
   <g id="text_23">
    <!-- S4 -->
    <g transform="translate(158.920712 65.078079)scale(0.05 -0.05)">
     <defs>
      <path d="M 48.578125 54.546875 
L 57.109375 54.546875 
C 56.71875 65.515625 46.59375 73.71875 32.53125 73.71875 
C 18.609375 73.71875 7.671875 65.625 7.671875 53.40625 
C 7.671875 43.609375 14.78125 37.78125 26.140625 34.515625 
L 35.09375 31.953125 
C 42.75 29.828125 49.578125 27.125 49.578125 19.890625 
C 49.578125 11.9375 41.90625 6.671875 31.8125 6.671875 
C 23.15625 6.671875 15.484375 10.515625 14.78125 18.75 
L 5.6875 18.75 
C 6.53125 6.8125 16.1875 -1.28125 31.8125 -1.28125 
C 48.578125 -1.28125 58.09375 7.953125 58.09375 19.75 
C 58.09375 33.375 45.171875 37.78125 37.640625 39.765625 
L 30.25 41.765625 
C 24.859375 43.1875 16.1875 46.015625 16.1875 53.828125 
C 16.1875 60.796875 22.59375 65.90625 32.25 65.90625 
C 41.046875 65.90625 47.734375 61.71875 48.578125 54.546875 
z
" id="Inter-Regular-83"/>
     </defs>
     <use xlink:href="#Inter-Regular-83"/>
     <use x="63.778427" xlink:href="#Inter-Regular-52"/>
    </g>
   </g>
   <g id="text_24">
    <!-- Q2 -->
    <g transform="translate(166.34494 39.683184)scale(0.05 -0.05)">
     <use xlink:href="#Inter-Regular-81"/>
     <use x="76.136383" xlink:href="#Inter-Regular-50"/>
    </g>
   </g>
   <g id="text_25">
    <!-- S1 -->
    <g transform="translate(179.161664 65.078079)scale(0.05 -0.05)">
     <use xlink:href="#Inter-Regular-83"/>
     <use x="63.778427" xlink:href="#Inter-Regular-49"/>
    </g>
   </g>
   <g id="text_26">
    <!-- S2 -->
    <g transform="translate(192.702875 39.683184)scale(0.05 -0.05)">
     <use xlink:href="#Inter-Regular-83"/>
     <use x="63.778427" xlink:href="#Inter-Regular-50"/>
    </g>
   </g>
   <g id="text_27">
    <!-- Q3 -->
    <g transform="translate(204.471942 65.078079)scale(0.05 -0.05)">
     <defs>
      <path d="M 32.109375 -1 
C 46.203125 -1 56.671875 7.84375 56.671875 19.75 
C 56.671875 28.984375 51.203125 35.6875 42.046875 37.21875 
L 42.046875 37.78125 
C 49.390625 40.015625 53.984375 46.0625 53.984375 54.265625 
C 53.984375 64.5625 45.84375 73.71875 32.390625 73.71875 
C 19.8125 73.71875 9.375 65.984375 8.953125 54.546875 
L 17.46875 54.546875 
C 17.796875 61.796875 24.6875 66.046875 32.25 66.046875 
C 40.265625 66.046875 45.453125 61.1875 45.453125 53.828125 
C 45.453125 46.171875 39.453125 41.1875 30.828125 41.1875 
L 25 41.1875 
L 25 33.375 
L 30.828125 33.375 
C 41.875 33.375 48.015625 27.765625 48.015625 19.75 
C 48.015625 12.03125 41.296875 6.8125 31.96875 6.8125 
C 23.546875 6.8125 16.875 11.15625 16.34375 18.1875 
L 7.390625 18.1875 
C 7.921875 6.75 18 -1 32.109375 -1 
z
" id="Inter-Regular-51"/>
     </defs>
     <use xlink:href="#Inter-Regular-81"/>
     <use x="76.136383" xlink:href="#Inter-Regular-51"/>
    </g>
   </g>
   <g id="text_28">
    <!-- S3 -->
    <g transform="translate(216.068805 39.683184)scale(0.05 -0.05)">
     <use xlink:href="#Inter-Regular-83"/>
     <use x="63.778427" xlink:href="#Inter-Regular-51"/>
    </g>
   </g>
   <g id="text_29">
    <!-- B2 -->
    <g transform="translate(236.08576 65.078079)scale(0.05 -0.05)">
     <use xlink:href="#Inter-Regular-66"/>
     <use x="65.056839" xlink:href="#Inter-Regular-50"/>
    </g>
   </g>
   <g id="text_30">
    <!-- Q4 -->
    <g transform="translate(260.028973 39.683184)scale(0.05 -0.05)">
     <use xlink:href="#Inter-Regular-81"/>
     <use x="76.136383" xlink:href="#Inter-Regular-52"/>
    </g>
   </g>
   <g id="text_31">
    <!-- B3 -->
    <g transform="translate(284.632342 65.078079)scale(0.05 -0.05)">
     <use xlink:href="#Inter-Regular-66"/>
     <use x="65.056839" xlink:href="#Inter-Regular-51"/>
    </g>
   </g>
   <g id="text_32">
    <!-- Q5 -->
    <g transform="translate(308.738836 39.683184)scale(0.05 -0.05)">
     <use xlink:href="#Inter-Regular-81"/>
     <use x="76.136383" xlink:href="#Inter-Regular-53"/>
    </g>
   </g>
   <g id="text_33">
    <!-- B4 -->
    <g transform="translate(333.242986 65.078079)scale(0.05 -0.05)">
     <use xlink:href="#Inter-Regular-66"/>
     <use x="65.056839" xlink:href="#Inter-Regular-52"/>
    </g>
   </g>
   <g id="text_34">
    <!-- Q6 -->
    <g transform="translate(357.32448 39.683184)scale(0.05 -0.05)">
     <use xlink:href="#Inter-Regular-81"/>
     <use x="76.136383" xlink:href="#Inter-Regular-54"/>
    </g>
   </g>
   <g id="text_35">
    <!-- B5 -->
    <g transform="translate(381.952849 65.078079)scale(0.05 -0.05)">
     <use xlink:href="#Inter-Regular-66"/>
     <use x="65.056839" xlink:href="#Inter-Regular-53"/>
    </g>
   </g>
   <g id="text_36">
    <!-- Q6 -->
    <g transform="translate(405.949187 39.683184)scale(0.05 -0.05)">
     <use xlink:href="#Inter-Regular-81"/>
     <use x="76.136383" xlink:href="#Inter-Regular-54"/>
    </g>
   </g>
   <g id="text_37">
    <!-- B4 -->
    <g transform="translate(430.492399 65.078079)scale(0.05 -0.05)">
     <use xlink:href="#Inter-Regular-66"/>
     <use x="65.056839" xlink:href="#Inter-Regular-52"/>
    </g>
   </g>
   <g id="text_38">
    <!-- Q5 -->
    <g transform="translate(454.612956 39.683184)scale(0.05 -0.05)">
     <use xlink:href="#Inter-Regular-81"/>
     <use x="76.136383" xlink:href="#Inter-Regular-53"/>
    </g>
   </g>
   <g id="text_39">
    <!-- B3 -->
    <g transform="translate(479.131169 65.078079)scale(0.05 -0.05)">
     <use xlink:href="#Inter-Regular-66"/>
     <use x="65.056839" xlink:href="#Inter-Regular-51"/>
    </g>
   </g>
   <g id="text_40">
    <!-- Q4 -->
    <g transform="translate(503.152506 39.683184)scale(0.05 -0.05)">
     <use xlink:href="#Inter-Regular-81"/>
     <use x="76.136383" xlink:href="#Inter-Regular-52"/>
    </g>
   </g>
   <g id="text_41">
    <!-- B2 -->
    <g transform="translate(527.834 65.078079)scale(0.05 -0.05)">
     <use xlink:href="#Inter-Regular-66"/>
     <use x="65.056839" xlink:href="#Inter-Regular-50"/>
    </g>
   </g>
   <g id="text_42">
    <!-- S3 -->
    <g transform="translate(547.758768 39.683184)scale(0.05 -0.05)">
     <use xlink:href="#Inter-Regular-83"/>
     <use x="63.778427" xlink:href="#Inter-Regular-51"/>
    </g>
   </g>
   <g id="text_43">
    <!-- Q3 -->
    <g transform="translate(558.737662 65.078079)scale(0.05 -0.05)">
     <use xlink:href="#Inter-Regular-81"/>
     <use x="76.136383" xlink:href="#Inter-Regular-51"/>
    </g>
   </g>
  </g>
 </g>
 <defs>
  <clipPath id="p4e0ea4a7c0">
   <rect height="266.6464" width="520.979" x="37.78" y="51.0736"/>
  </clipPath>
 </defs>
</svg>
