<?xml version="1.0" encoding="utf-8" standalone="no"?>
<!DOCTYPE svg PUBLIC "-//W3C//DTD SVG 1.1//EN"
  "http://www.w3.org/Graphics/SVG/1.1/DTD/svg11.dtd">
<!-- Created with matplotlib (https://matplotlib.org/) -->
<svg height="288pt" version="1.1" viewBox="0 0 720 288" width="720pt" xmlns="http://www.w3.org/2000/svg" xmlns:xlink="http://www.w3.org/1999/xlink">
 <metadata>
  <rdf:RDF xmlns:cc="http://creativecommons.org/ns#" xmlns:dc="http://purl.org/dc/elements/1.1/" xmlns:rdf="http://www.w3.org/1999/02/22-rdf-syntax-ns#">
   <cc:Work>
    <dc:type rdf:resource="http://purl.org/dc/dcmitype/StillImage"/>
    <dc:date>2020-12-03T08:58:31.764721</dc:date>
    <dc:format>image/svg+xml</dc:format>
    <dc:creator>
     <cc:Agent>
      <dc:title>Matplotlib v3.3.3, https://matplotlib.org/</dc:title>
     </cc:Agent>
    </dc:creator>
   </cc:Work>
  </rdf:RDF>
 </metadata>
 <defs>
  <style type="text/css">*{stroke-linecap:butt;stroke-linejoin:round;}</style>
 </defs>
 <g id="figure_1">
  <g id="patch_1">
   <path d="M 0 288 
L 720 288 
L 720 0 
L 0 0 
z
" style="fill:#ffffff;"/>
  </g>
  <g id="axes_1">
   <g id="patch_2">
    <path d="M 62.388 246.04 
L 709.2 246.04 
L 709.2 24.048 
L 62.388 24.048 
z
" style="fill:#ffffff;"/>
   </g>
   <g id="matplotlib.axis_1">
    <g id="xtick_1">
     <g id="line2d_1">
      <path clip-path="url(#p27de51a0c4)" d="M 91.788545 246.04 
L 91.788545 24.048 
" style="fill:none;stroke:#e5e7eb;stroke-dasharray:3.7,1.6;stroke-dashoffset:0;"/>
     </g>
     <g id="line2d_2">
      <defs>
       <path d="M 0 0 
L 0 3.5 
" id="m78d5a61e4d" style="stroke:#000000;stroke-width:0.8;"/>
      </defs>
      <g>
       <use style="stroke:#000000;stroke-width:0.8;" x="91.788545" xlink:href="#m78d5a61e4d" y="246.04"/>
      </g>
     </g>
     <g id="text_1">
      <!-- 0 -->
      <g transform="translate(88.663545 260.313437)scale(0.1 -0.1)">
       <defs>
        <path d="M 31.25 -1 
C 47.296875 -1 56.53125 12.609375 56.53125 36.359375 
C 56.53125 59.9375 47.15625 73.71875 31.25 73.71875 
C 15.34375 73.71875 5.96875 59.9375 5.96875 36.359375 
C 5.96875 12.609375 15.203125 -1 31.25 -1 
z
M 31.25 6.8125 
C 20.671875 6.8125 14.484375 17.4375 14.484375 36.359375 
C 14.484375 55.25 20.734375 66.046875 31.25 66.046875 
C 41.765625 66.046875 48.015625 55.25 48.015625 36.359375 
C 48.015625 17.4375 41.828125 6.8125 31.25 6.8125 
z
" id="Inter-Regular-48"/>
       </defs>
       <use xlink:href="#Inter-Regular-48"/>
      </g>
     </g>
    </g>
    <g id="xtick_2">
     <g id="line2d_3">
      <path clip-path="url(#p27de51a0c4)" d="M 234.50964 246.04 
L 234.50964 24.048 
" style="fill:none;stroke:#e5e7eb;stroke-dasharray:3.7,1.6;stroke-dashoffset:0;"/>
     </g>
     <g id="line2d_4">
      <g>
       <use style="stroke:#000000;stroke-width:0.8;" x="234.50964" xlink:href="#m78d5a61e4d" y="246.04"/>
      </g>
     </g>
     <g id="text_2">
      <!-- 5 -->
      <g transform="translate(231.469796 260.313437)scale(0.1 -0.1)">
       <defs>
        <path d="M 30.25 -1 
C 44.109375 -1 54.265625 9.234375 54.265625 23.15625 
C 54.265625 37.25 44.46875 47.578125 31.109375 47.578125 
C 26.203125 47.578125 21.453125 45.84375 18.46875 43.46875 
L 18.046875 43.46875 
L 20.59375 64.921875 
L 51 64.921875 
L 51 72.734375 
L 13.21875 72.734375 
L 8.8125 36.9375 
L 17.046875 35.9375 
C 20.0625 38.109375 25.21875 39.671875 29.6875 39.625 
C 38.953125 39.5625 45.734375 32.53125 45.734375 23.015625 
C 45.734375 13.671875 39.203125 6.8125 30.25 6.8125 
C 22.796875 6.8125 16.875 11.609375 16.1875 18.1875 
L 7.671875 18.1875 
C 8.203125 7.109375 17.75 -1 30.25 -1 
z
" id="Inter-Regular-53"/>
       </defs>
       <use xlink:href="#Inter-Regular-53"/>
      </g>
     </g>
    </g>
    <g id="xtick_3">
     <g id="line2d_5">
      <path clip-path="url(#p27de51a0c4)" d="M 377.230734 246.04 
L 377.230734 24.048 
" style="fill:none;stroke:#e5e7eb;stroke-dasharray:3.7,1.6;stroke-dashoffset:0;"/>
     </g>
     <g id="line2d_6">
      <g>
       <use style="stroke:#000000;stroke-width:0.8;" x="377.230734" xlink:href="#m78d5a61e4d" y="246.04"/>
      </g>
     </g>
     <g id="text_3">
      <!-- 10 -->
      <g transform="translate(371.783078 260.313437)scale(0.1 -0.1)">
       <defs>
        <path d="M 33.09375 72.734375 
L 24.296875 72.734375 
L 6.109375 60.65625 
L 6.109375 51.703125 
L 23.859375 63.5 
L 24.296875 63.5 
L 24.296875 0 
L 33.09375 0 
z
" id="Inter-Regular-49"/>
       </defs>
       <use xlink:href="#Inter-Regular-49"/>
       <use x="46.448868" xlink:href="#Inter-Regular-48"/>
      </g>
     </g>
    </g>
    <g id="xtick_4">
     <g id="line2d_7">
      <path clip-path="url(#p27de51a0c4)" d="M 519.951829 246.04 
L 519.951829 24.048 
" style="fill:none;stroke:#e5e7eb;stroke-dasharray:3.7,1.6;stroke-dashoffset:0;"/>
     </g>
     <g id="line2d_8">
      <g>
       <use style="stroke:#000000;stroke-width:0.8;" x="519.951829" xlink:href="#m78d5a61e4d" y="246.04"/>
      </g>
     </g>
     <g id="text_4">
      <!-- 15 -->
      <g transform="translate(514.589329 260.313437)scale(0.1 -0.1)">
       <use xlink:href="#Inter-Regular-49"/>
       <use x="46.448868" xlink:href="#Inter-Regular-53"/>
      </g>
     </g>
    </g>
    <g id="xtick_5">
     <g id="line2d_9">
      <path clip-path="url(#p27de51a0c4)" d="M 662.672923 246.04 
L 662.672923 24.048 
" style="fill:none;stroke:#e5e7eb;stroke-dasharray:3.7,1.6;stroke-dashoffset:0;"/>
     </g>
     <g id="line2d_10">
      <g>
       <use style="stroke:#000000;stroke-width:0.8;" x="662.672923" xlink:href="#m78d5a61e4d" y="246.04"/>
      </g>
     </g>
     <g id="text_5">
      <!-- 20 -->
      <g transform="translate(656.522142 260.313437)scale(0.1 -0.1)">
       <defs>
        <path d="M 7.53125 0 
L 53.40625 0 
L 53.40625 7.8125 
L 19.609375 7.8125 
L 19.609375 8.375 
L 35.9375 25.859375 
C 48.4375 39.234375 52.125 45.484375 52.125 53.546875 
C 52.125 64.765625 43.046875 73.71875 30.25 73.71875 
C 17.515625 73.71875 7.8125 65.0625 7.8125 52.265625 
L 16.1875 52.265625 
C 16.1875 60.546875 21.5625 66.046875 29.96875 66.046875 
C 37.859375 66.046875 43.890625 61.21875 43.890625 53.546875 
C 43.890625 46.84375 39.953125 41.875 31.53125 32.671875 
L 7.53125 6.390625 
z
" id="Inter-Regular-50"/>
       </defs>
       <use xlink:href="#Inter-Regular-50"/>
       <use x="60.511383" xlink:href="#Inter-Regular-48"/>
      </g>
     </g>
    </g>
    <g id="text_6">
     <!-- s / m -->
     <g transform="translate(374.23775 273.632187)scale(0.1 -0.1)">
      <defs>
       <path d="M 46.3125 42.328125 
C 43.6875 50.078125 37.78125 55.25 26.984375 55.25 
C 15.484375 55.25 6.96875 48.71875 6.96875 39.484375 
C 6.96875 31.953125 11.4375 26.921875 21.453125 24.578125 
L 30.546875 22.4375 
C 36.046875 21.171875 38.640625 18.53125 38.640625 14.765625 
C 38.640625 10.078125 33.671875 6.25 25.859375 6.25 
C 19 6.25 14.703125 9.203125 13.21875 15.0625 
L 5.25 13.0625 
C 7.203125 3.796875 14.84375 -1.140625 26 -1.140625 
C 38.671875 -1.140625 47.296875 5.78125 47.296875 15.203125 
C 47.296875 22.796875 42.546875 27.59375 32.8125 29.96875 
L 24.71875 31.953125 
C 18.25 33.5625 15.34375 35.71875 15.34375 39.921875 
C 15.34375 44.609375 20.3125 48.015625 26.984375 48.015625 
C 34.3125 48.015625 37.328125 43.96875 38.78125 40.203125 
z
" id="Inter-Regular-115"/>
       <path id="Inter-Regular-32"/>
       <path d="M 33.375 76.140625 
L 25.71875 76.140625 
L 2.28125 -10.9375 
L 9.9375 -10.9375 
z
" id="Inter-Regular-47"/>
       <path d="M 7.671875 0 
L 16.046875 0 
L 16.046875 34.09375 
C 16.046875 42.078125 21.875 47.734375 28.40625 47.734375 
C 34.765625 47.734375 39.203125 43.578125 39.203125 37.359375 
L 39.203125 0 
L 47.734375 0 
L 47.734375 35.515625 
C 47.734375 42.546875 52.125 47.734375 59.796875 47.734375 
C 65.765625 47.734375 70.875 44.5625 70.875 36.5 
L 70.875 0 
L 79.265625 0 
L 79.265625 36.5 
C 79.265625 49.328125 72.375 55.25 62.640625 55.25 
C 54.828125 55.25 49.109375 51.671875 46.3125 46.015625 
L 45.734375 46.015625 
C 43.046875 51.84375 38.28125 55.25 31.109375 55.25 
C 24 55.25 18.75 51.84375 16.484375 46.015625 
L 15.765625 46.015625 
L 15.765625 54.546875 
L 7.671875 54.546875 
z
" id="Inter-Regular-109"/>
      </defs>
      <use xlink:href="#Inter-Regular-115"/>
      <use x="52.272736" xlink:href="#Inter-Regular-32"/>
      <use x="80.397736" xlink:href="#Inter-Regular-47"/>
      <use x="116.051147" xlink:href="#Inter-Regular-32"/>
      <use x="144.176147" xlink:href="#Inter-Regular-109"/>
     </g>
    </g>
   </g>
   <g id="matplotlib.axis_2">
    <g id="ytick_1">
     <g id="line2d_11">
      <path clip-path="url(#p27de51a0c4)" d="M 62.388 235.924452 
L 709.2 235.924452 
" style="fill:none;stroke:#e5e7eb;stroke-dasharray:3.7,1.6;stroke-dashoffset:0;"/>
     </g>
     <g id="line2d_12">
      <defs>
       <path d="M 0 0 
L -3.5 0 
" id="m4f29691610" style="stroke:#000000;stroke-width:0.8;"/>
      </defs>
      <g>
       <use style="stroke:#000000;stroke-width:0.8;" x="62.388" xlink:href="#m4f29691610" y="235.924452"/>
      </g>
     </g>
     <g id="text_7">
      <!-- 0 -->
      <g transform="translate(49.138 239.561171)scale(0.1 -0.1)">
       <use xlink:href="#Inter-Regular-48"/>
      </g>
     </g>
    </g>
    <g id="ytick_2">
     <g id="line2d_13">
      <path clip-path="url(#p27de51a0c4)" d="M 62.388 191.440845 
L 709.2 191.440845 
" style="fill:none;stroke:#e5e7eb;stroke-dasharray:3.7,1.6;stroke-dashoffset:0;"/>
     </g>
     <g id="line2d_14">
      <g>
       <use style="stroke:#000000;stroke-width:0.8;" x="62.388" xlink:href="#m4f29691610" y="191.440845"/>
      </g>
     </g>
     <g id="text_8">
      <!-- 5 -->
      <g transform="translate(49.308312 195.077564)scale(0.1 -0.1)">
       <use xlink:href="#Inter-Regular-53"/>
      </g>
     </g>
    </g>
    <g id="ytick_3">
     <g id="line2d_15">
      <path clip-path="url(#p27de51a0c4)" d="M 62.388 146.957238 
L 709.2 146.957238 
" style="fill:none;stroke:#e5e7eb;stroke-dasharray:3.7,1.6;stroke-dashoffset:0;"/>
     </g>
     <g id="line2d_16">
      <g>
       <use style="stroke:#000000;stroke-width:0.8;" x="62.388" xlink:href="#m4f29691610" y="146.957238"/>
      </g>
     </g>
     <g id="text_9">
      <!-- 10 -->
      <g transform="translate(44.492687 150.593957)scale(0.1 -0.1)">
       <use xlink:href="#Inter-Regular-49"/>
       <use x="46.448868" xlink:href="#Inter-Regular-48"/>
      </g>
     </g>
    </g>
    <g id="ytick_4">
     <g id="line2d_17">
      <path clip-path="url(#p27de51a0c4)" d="M 62.388 102.473631 
L 709.2 102.473631 
" style="fill:none;stroke:#e5e7eb;stroke-dasharray:3.7,1.6;stroke-dashoffset:0;"/>
     </g>
     <g id="line2d_18">
      <g>
       <use style="stroke:#000000;stroke-width:0.8;" x="62.388" xlink:href="#m4f29691610" y="102.473631"/>
      </g>
     </g>
     <g id="text_10">
      <!-- 15 -->
      <g transform="translate(44.663 106.11035)scale(0.1 -0.1)">
       <use xlink:href="#Inter-Regular-49"/>
       <use x="46.448868" xlink:href="#Inter-Regular-53"/>
      </g>
     </g>
    </g>
    <g id="ytick_5">
     <g id="line2d_19">
      <path clip-path="url(#p27de51a0c4)" d="M 62.388 57.990024 
L 709.2 57.990024 
" style="fill:none;stroke:#e5e7eb;stroke-dasharray:3.7,1.6;stroke-dashoffset:0;"/>
     </g>
     <g id="line2d_20">
      <g>
       <use style="stroke:#000000;stroke-width:0.8;" x="62.388" xlink:href="#m4f29691610" y="57.990024"/>
      </g>
     </g>
     <g id="text_11">
      <!-- 20 -->
      <g transform="translate(43.086437 61.626743)scale(0.1 -0.1)">
       <use xlink:href="#Inter-Regular-50"/>
       <use x="60.511383" xlink:href="#Inter-Regular-48"/>
      </g>
     </g>
    </g>
   </g>
   <g id="line2d_21">
    <path clip-path="url(#p27de51a0c4)" d="M 91.788545 213.552376 
L 96.947139 213.436824 
L 102.105733 213.090166 
L 107.264327 212.512402 
L 112.422921 211.703534 
L 117.581514 210.663559 
L 122.740108 209.39248 
L 127.898702 207.890295 
L 133.057296 206.157005 
L 138.215889 204.192609 
L 143.374483 201.997108 
L 148.533077 199.570502 
L 153.691671 196.91279 
L 158.850265 194.023973 
L 164.100567 190.846495 
L 169.673486 187.417735 
L 170.489035 187.483577 
L 171.304584 187.957012 
L 172.120133 188.830006 
L 172.935682 190.087744 
L 173.751231 191.708883 
L 177.421202 200.723441 
L 178.372676 203.145796 
L 180.275624 208.890144 
L 181.988277 214.16831 
L 183.70093 218.8503 
L 185.43554 222.917884 
L 187.192108 226.054291 
L 188.948675 228.370534 
L 190.705242 230.049557 
L 192.46181 231.223975 
L 194.218377 231.986546 
L 195.974944 232.3975 
L 197.687598 232.554476 
L 199.400251 232.541573 
L 201.208051 232.343656 
L 203.110999 231.930839 
L 205.013947 231.308295 
L 209.227617 229.645561 
L 210.858716 229.196251 
L 215.385013 228.200645 
L 217.953993 227.378496 
L 220.522973 226.356563 
L 223.091952 225.134848 
L 225.946374 223.543073 
L 228.515354 221.899594 
L 231.94066 219.397514 
L 235.461114 216.455828 
L 238.179611 214.064859 
L 238.99516 213.684486 
L 239.810709 213.578012 
L 240.626258 213.748127 
L 241.441807 214.190531 
L 242.257356 214.894045 
L 244.785559 217.993034 
L 247.354538 220.936301 
L 249.923518 223.537626 
L 252.492498 225.79701 
L 255.061477 227.714453 
L 256.786541 228.789673 
L 258.524015 229.589778 
L 260.26149 230.119842 
L 261.998964 230.403725 
L 263.736438 230.454205 
L 265.473912 230.273557 
L 267.211386 229.853648 
L 268.948861 229.175574 
L 270.686335 228.208813 
L 272.423809 226.909845 
L 274.161283 225.220196 
L 275.898757 223.063806 
L 277.61141 220.545428 
L 280.18039 216.269915 
L 281.058674 214.806076 
L 281.936957 213.566826 
L 282.815241 212.584464 
L 283.693525 211.884592 
L 284.571808 211.485452 
L 285.450092 211.397445 
L 286.328376 211.622866 
L 287.206659 212.15584 
L 288.084943 212.982476 
L 288.963227 214.081229 
L 289.84151 215.423462 
L 291.598078 218.693008 
L 293.310731 221.987106 
L 295.023384 224.895302 
L 296.748448 227.406609 
L 298.485922 229.387871 
L 300.223396 230.885914 
L 301.96087 231.976136 
L 303.698344 232.713407 
L 305.435819 233.134833 
L 307.173293 233.261625 
L 308.910767 233.100163 
L 310.648241 232.642323 
L 312.385715 231.86506 
L 314.12319 230.729256 
L 315.860664 229.177745 
L 317.573317 227.262996 
L 319.28597 225.034736 
L 321.898864 221.401502 
L 322.777148 220.401946 
L 323.655431 219.573512 
L 324.533715 218.938384 
L 325.411999 218.513571 
L 326.290282 218.31045 
L 327.168566 218.33446 
L 328.046849 218.584959 
L 328.925133 219.055237 
L 329.803417 219.732702 
L 330.6817 220.59921 
L 334.98529 225.541056 
L 336.710354 227.171964 
L 338.447828 228.419926 
L 340.185302 229.306547 
L 341.922777 229.880965 
L 343.660251 230.175018 
L 345.397725 230.205004 
L 347.135199 229.972585 
L 348.872673 229.464879 
L 350.610148 228.653747 
L 352.347622 227.494231 
L 354.085096 225.922067 
L 355.82257 223.850116 
L 357.535223 221.390859 
L 360.104203 217.194179 
L 361.86077 214.519412 
L 362.739054 213.535171 
L 363.617338 212.823106 
L 364.495621 212.401983 
L 365.373905 212.2829 
L 366.252189 212.468996 
L 367.130472 212.955367 
L 368.008756 213.729195 
L 368.88704 214.770085 
L 369.765323 216.050606 
L 371.521891 219.190126 
L 373.234544 222.363003 
L 374.947197 225.164827 
L 376.636063 227.527717 
L 378.301143 229.298627 
L 379.966222 230.590136 
L 381.631301 231.489433 
L 383.296381 232.05723 
L 384.96146 232.331858 
L 386.62654 232.331858 
L 388.291619 232.05723 
L 389.956699 231.489433 
L 391.621778 230.590136 
L 393.286857 229.298627 
L 394.951937 227.527717 
L 396.640803 225.164827 
L 398.353456 222.363003 
L 402.70096 214.770085 
L 403.579244 213.729195 
L 404.457528 212.955367 
L 405.335811 212.468996 
L 406.214095 212.2829 
L 407.092379 212.401983 
L 407.970662 212.823106 
L 408.848946 213.535171 
L 409.72723 214.519412 
L 410.605513 215.749891 
L 414.909103 222.654341 
L 416.634167 224.955026 
L 418.371641 226.76459 
L 420.109115 228.121065 
L 421.84659 229.099632 
L 423.584064 229.75453 
L 425.321538 230.122055 
L 427.059012 230.222578 
L 428.796486 230.061669 
L 430.53396 229.630411 
L 432.271435 228.9049 
L 434.008909 227.844927 
L 435.746383 226.391743 
L 438.315363 223.687657 
L 441.784583 219.732702 
L 442.662867 219.055237 
L 443.541151 218.584959 
L 444.419434 218.33446 
L 445.297718 218.31045 
L 446.176001 218.513571 
L 447.054285 218.938384 
L 447.932569 219.573512 
L 448.810852 220.401946 
L 450.56742 222.545411 
L 453.158357 226.188055 
L 454.87101 228.259559 
L 456.596073 230.009814 
L 458.333548 231.345097 
L 460.071022 232.295669 
L 461.808496 232.909371 
L 463.54597 233.217092 
L 465.283444 233.234319 
L 467.020919 232.961919 
L 468.758393 232.386181 
L 470.495867 231.47813 
L 472.233341 230.192062 
L 473.970815 228.463252 
L 475.708289 226.204687 
L 477.420943 223.489442 
L 479.133596 220.388295 
L 481.74649 215.423462 
L 482.624773 214.081229 
L 483.503057 212.982476 
L 484.381341 212.15584 
L 485.259624 211.622866 
L 486.137908 211.397445 
L 487.016192 211.485452 
L 487.894475 211.884592 
L 488.772759 212.584464 
L 489.651043 213.566826 
L 490.529326 214.806076 
L 494.832916 221.837813 
L 496.55798 224.205872 
L 498.295454 226.118161 
L 500.032928 227.604132 
L 501.770402 228.730675 
L 503.507877 229.548503 
L 505.245351 230.094431 
L 506.982825 230.393035 
L 508.720299 230.457755 
L 510.457773 230.291506 
L 512.195248 229.886804 
L 513.932722 229.225431 
L 515.670196 228.277614 
L 518.239176 226.474152 
L 520.808155 224.328748 
L 523.377135 221.841403 
L 525.946115 219.012116 
L 529.330644 214.894045 
L 530.146193 214.190531 
L 530.961742 213.748127 
L 531.777291 213.578012 
L 532.59284 213.684486 
L 533.408389 214.064859 
L 535.175412 215.596375 
L 538.791013 218.716499 
L 542.21632 221.307371 
L 545.641626 223.543073 
L 548.496048 225.134848 
L 551.065027 226.356563 
L 553.634007 227.378496 
L 556.202987 228.200645 
L 558.962261 228.861165 
L 561.544833 229.400938 
L 563.991481 230.234848 
L 567.525527 231.645783 
L 569.428475 232.163463 
L 571.331423 232.471417 
L 573.044076 232.569259 
L 574.756729 232.497223 
L 576.491339 232.233336 
L 578.247907 231.652282 
L 580.004474 230.69321 
L 581.761041 229.28037 
L 583.517609 227.302172 
L 584.395892 226.054291 
L 585.274176 224.602371 
L 586.15246 222.917884 
L 587.88707 218.8503 
L 589.599723 214.16831 
L 594.166798 200.723441 
L 598.652318 190.087744 
L 599.467867 188.830006 
L 600.283416 187.957012 
L 601.098965 187.483577 
L 601.914514 187.417735 
L 602.730064 187.760602 
L 608.438907 191.440087 
L 613.597501 194.521492 
L 618.756095 197.371791 
L 623.914689 199.990985 
L 629.073282 202.379074 
L 634.231876 204.536057 
L 639.39047 206.461935 
L 644.549064 208.156708 
L 649.707658 209.620375 
L 654.866251 210.852937 
L 660.024845 211.854394 
L 665.183439 212.624745 
L 670.342033 213.163991 
L 675.500626 213.472132 
L 679.799455 213.552376 
L 679.799455 213.552376 
" style="fill:none;stroke:#ef4444;stroke-linecap:square;stroke-width:1.5;"/>
   </g>
   <g id="line2d_22">
    <path clip-path="url(#p27de51a0c4)" d="M 91.788545 193.966774 
L 98.66667 193.857239 
L 105.544796 193.528635 
L 112.422921 192.98096 
L 119.301046 192.214216 
L 126.179171 191.228403 
L 133.057296 190.023519 
L 139.935421 188.599566 
L 146.813546 186.956543 
L 153.691671 185.094451 
L 160.569796 183.013288 
L 167.906462 180.551919 
L 168.857936 180.214451 
L 169.673486 179.684016 
L 170.489035 178.667441 
L 171.304584 177.147428 
L 172.120133 175.09811 
L 172.935682 172.484611 
L 173.751231 169.262456 
L 175.518254 160.344072 
L 177.421202 149.751222 
L 178.372676 143.596554 
L 179.32415 135.96231 
L 181.131951 117.240234 
L 183.70093 86.684489 
L 185.43554 64.893129 
L 186.313824 55.439865 
L 187.192108 47.545733 
L 188.070391 41.365515 
L 188.948675 37.020389 
L 189.826959 34.595551 
L 190.705242 34.138545 
L 191.583526 35.658333 
L 192.46181 39.125115 
L 193.340093 44.470916 
L 194.218377 51.590922 
L 195.096661 60.345526 
L 200.256577 119.357327 
L 202.159525 138.304085 
L 204.062473 155.564948 
L 205.965421 171.139918 
L 206.78097 177.002301 
L 207.596519 182.03554 
L 208.412068 186.338096 
L 209.227617 189.994137 
L 210.043167 193.075184 
L 210.858716 195.641509 
L 212.625739 199.907344 
L 215.385013 205.799208 
L 217.953993 210.771628 
L 220.522973 215.249264 
L 223.091952 219.232117 
L 224.9949 221.863383 
L 227.659027 225.091057 
L 229.37168 226.885003 
L 231.084334 228.459044 
L 232.796987 229.813182 
L 234.50964 230.947417 
L 236.412588 231.949765 
L 238.179611 232.616012 
L 239.810709 232.888594 
L 241.441807 232.832506 
L 243.072906 232.442018 
L 244.785559 231.738263 
L 246.498212 230.819792 
L 248.210865 229.686604 
L 249.923518 228.338699 
L 251.636171 226.776078 
L 253.348824 224.998741 
L 255.917804 221.930141 
L 258.524015 218.732782 
L 260.26149 216.8775 
L 261.998964 215.341811 
L 263.736438 214.194504 
L 265.473912 213.48697 
L 266.342649 213.308837 
L 267.211386 213.250903 
L 268.080123 213.313818 
L 268.948861 213.496876 
L 270.686335 214.213871 
L 272.423809 215.369772 
L 274.161283 216.912803 
L 276.755084 219.73802 
L 279.324064 222.411887 
L 281.058674 223.952302 
L 281.936957 224.488686 
L 282.815241 224.853478 
L 283.693525 225.056225 
L 284.571808 225.102234 
L 285.450092 224.992708 
L 286.328376 224.72478 
L 287.206659 224.29144 
L 288.084943 223.681346 
L 288.963227 222.878533 
L 289.84151 221.861989 
L 290.719794 220.605114 
L 292.454404 217.393572 
L 294.167057 213.766636 
L 299.354659 202.215069 
L 301.092133 199.347833 
L 301.96087 198.212448 
L 302.829607 197.295733 
L 303.698344 196.609187 
L 304.567081 196.161424 
L 305.435819 195.95806 
L 306.304556 196.001648 
L 307.173293 196.29164 
L 308.04203 196.824398 
L 308.910767 197.593239 
L 309.779504 198.588517 
L 310.648241 199.797746 
L 312.385715 202.794882 
L 314.12319 206.43472 
L 319.28597 218.200356 
L 321.02058 221.416656 
L 321.898864 222.676015 
L 322.777148 223.697147 
L 323.655431 224.507513 
L 324.533715 225.128908 
L 325.411999 225.578042 
L 326.290282 225.866995 
L 327.168566 226.003538 
L 328.046849 225.991342 
L 328.925133 225.830079 
L 329.803417 225.515414 
L 330.6817 225.038882 
L 332.416311 223.644714 
L 334.98529 221.204924 
L 337.579091 218.652373 
L 339.316565 217.360503 
L 341.05404 216.516835 
L 341.922777 216.278629 
L 342.791514 216.167798 
L 343.660251 216.185871 
L 344.528988 216.332598 
L 345.397725 216.605955 
L 347.135199 217.515764 
L 348.872673 218.865233 
L 350.610148 220.580098 
L 353.216359 223.626845 
L 357.535223 228.887716 
L 359.247876 230.553175 
L 360.982487 231.88856 
L 362.739054 232.758468 
L 364.495621 233.202295 
L 366.252189 233.267336 
L 368.008756 232.96052 
L 369.765323 232.249154 
L 370.643607 231.719948 
L 372.378217 230.300122 
L 374.09087 228.539527 
L 375.803523 226.450985 
L 378.301143 223.257716 
L 379.966222 221.377262 
L 381.631301 219.844507 
L 383.296381 218.761933 
L 384.128921 218.413408 
L 384.96146 218.201925 
L 385.794 218.131034 
L 386.62654 218.201925 
L 387.459079 218.413408 
L 388.291619 218.761933 
L 389.956699 219.844507 
L 391.621778 221.377262 
L 393.286857 223.257716 
L 398.353456 229.460818 
L 400.066109 231.057438 
L 401.822677 232.249154 
L 403.579244 232.96052 
L 405.335811 233.267336 
L 407.092379 233.202295 
L 408.848946 232.758468 
L 410.605513 231.88856 
L 412.340124 230.553175 
L 414.052777 228.887716 
L 415.76543 226.904824 
L 420.109115 221.545714 
L 421.84659 219.682474 
L 423.584064 218.139657 
L 425.321538 217.002167 
L 426.190275 216.605955 
L 427.059012 216.332598 
L 427.927749 216.185871 
L 428.796486 216.167798 
L 429.665223 216.278629 
L 430.53396 216.516835 
L 432.271435 217.360503 
L 434.008909 218.652373 
L 435.746383 220.321354 
L 438.315363 222.866604 
L 440.028016 224.38767 
L 440.9063 225.038882 
L 441.784583 225.515414 
L 442.662867 225.830079 
L 443.541151 225.991342 
L 444.419434 226.003538 
L 445.297718 225.866995 
L 446.176001 225.578042 
L 447.054285 225.128908 
L 447.932569 224.507513 
L 448.810852 223.697147 
L 449.689136 222.676015 
L 450.56742 221.416656 
L 452.30203 218.200356 
L 454.014683 214.552927 
L 459.202285 202.794882 
L 460.939759 199.797746 
L 461.808496 198.588517 
L 462.677233 197.593239 
L 463.54597 196.824398 
L 464.414707 196.29164 
L 465.283444 196.001648 
L 466.152181 195.95806 
L 467.020919 196.161424 
L 467.889656 196.609187 
L 468.758393 197.295733 
L 469.62713 198.212448 
L 470.495867 199.347833 
L 472.233341 202.215069 
L 473.970815 205.75401 
L 479.133596 217.393572 
L 480.868206 220.605114 
L 481.74649 221.861989 
L 482.624773 222.878533 
L 483.503057 223.681346 
L 484.381341 224.29144 
L 485.259624 224.72478 
L 486.137908 224.992708 
L 487.016192 225.102234 
L 487.894475 225.056225 
L 488.772759 224.853478 
L 489.651043 224.488686 
L 490.529326 223.952302 
L 492.263936 222.411887 
L 494.832916 219.73802 
L 497.426717 216.912803 
L 499.164191 215.369772 
L 500.901665 214.213871 
L 502.639139 213.496876 
L 503.507877 213.313818 
L 504.376614 213.250903 
L 505.245351 213.308837 
L 506.114088 213.48697 
L 507.851562 214.194504 
L 509.589036 215.341811 
L 511.32651 216.8775 
L 513.063985 218.732782 
L 515.670196 221.930141 
L 518.239176 224.998741 
L 520.808155 227.584228 
L 522.520808 229.039491 
L 524.233462 230.280037 
L 525.946115 231.305867 
L 527.658768 232.11698 
L 529.330644 232.680725 
L 530.961742 232.901215 
L 532.59284 232.794324 
L 534.223938 232.349132 
L 536.126886 231.482526 
L 537.934687 230.407787 
L 539.64734 229.163601 
L 541.359993 227.699512 
L 543.072646 226.015518 
L 544.785299 224.11162 
L 546.5931 221.863383 
L 548.496048 219.232117 
L 551.065027 215.249264 
L 553.634007 210.771628 
L 556.202987 205.799208 
L 558.962261 199.907344 
L 560.729284 195.641509 
L 561.544833 193.075184 
L 562.360383 189.994137 
L 563.175932 186.338096 
L 563.991481 182.03554 
L 564.80703 177.002301 
L 566.574053 163.56317 
L 568.477001 147.145253 
L 570.379949 129.041443 
L 573.044076 100.863807 
L 577.369623 51.590922 
L 578.247907 44.470916 
L 579.12619 39.125115 
L 580.004474 35.658333 
L 580.882758 34.138545 
L 581.761041 34.595551 
L 582.639325 37.020389 
L 583.517609 41.365515 
L 584.395892 47.545733 
L 585.274176 55.439865 
L 586.15246 64.893129 
L 590.456049 117.240234 
L 592.26385 135.96231 
L 593.215324 143.596554 
L 594.166798 149.751222 
L 597.02122 165.376811 
L 597.836769 169.262456 
L 598.652318 172.484611 
L 599.467867 175.09811 
L 600.283416 177.147428 
L 601.098965 178.667441 
L 601.914514 179.684016 
L 602.730064 180.214451 
L 610.158439 182.73774 
L 617.036564 184.846286 
L 623.914689 186.735762 
L 630.792814 188.406169 
L 637.670939 189.857505 
L 644.549064 191.089773 
L 651.427189 192.10297 
L 658.305314 192.897098 
L 665.183439 193.472156 
L 672.061564 193.828144 
L 678.939689 193.965062 
L 679.799455 193.966774 
L 679.799455 193.966774 
" style="fill:none;stroke:#1d4ed8;stroke-linecap:square;stroke-width:1.5;"/>
   </g>
   <g id="line2d_23">
    <path clip-path="url(#p27de51a0c4)" d="M 91.788545 235.949455 
L 185.43554 235.90249 
L 187.192108 235.640996 
L 188.948675 235.115094 
L 190.705242 234.31445 
L 192.46181 233.223333 
L 194.218377 231.820303 
L 195.974944 230.077791 
L 206.78097 218.289109 
L 208.412068 216.848714 
L 210.043167 215.780271 
L 211.674265 215.104615 
L 238.179611 207.488336 
L 238.99516 207.52094 
L 239.810709 207.73329 
L 240.626258 208.124042 
L 241.441807 208.690724 
L 242.257356 209.429749 
L 243.929232 211.374576 
L 256.786541 226.911961 
L 258.524015 228.628951 
L 260.26149 229.974855 
L 261.998964 230.964779 
L 263.736438 231.609831 
L 265.473912 231.917251 
L 267.211386 231.890488 
L 268.948861 231.529242 
L 270.686335 230.829459 
L 272.423809 229.783286 
L 274.161283 228.378983 
L 275.898757 226.600789 
L 281.058674 220.810652 
L 282.815241 219.35115 
L 283.693525 218.833141 
L 284.571808 218.461112 
L 285.450092 218.23749 
L 286.328376 218.163734 
L 287.206659 218.240327 
L 288.084943 218.466768 
L 288.963227 218.84158 
L 289.84151 219.362315 
L 291.598078 220.827035 
L 296.748448 225.869607 
L 298.485922 227.174026 
L 300.223396 228.079445 
L 301.96087 228.597219 
L 303.698344 228.733842 
L 305.435819 228.49103 
L 307.173293 227.865735 
L 308.910767 226.850115 
L 310.648241 225.431431 
L 312.385715 223.591888 
L 314.12319 221.308412 
L 315.860664 218.552362 
L 321.02058 209.735066 
L 321.898864 208.528939 
L 322.777148 207.540966 
L 323.655431 206.777774 
L 324.533715 206.24448 
L 325.411999 205.944661 
L 326.290282 205.880327 
L 327.168566 206.05191 
L 328.046849 206.458259 
L 328.925133 207.09665 
L 329.803417 207.9628 
L 330.6817 209.050901 
L 332.416311 211.725763 
L 336.710354 218.538581 
L 338.447828 220.794817 
L 340.185302 222.55286 
L 341.922777 223.836988 
L 343.660251 224.664932 
L 345.397725 225.048125 
L 347.135199 224.991857 
L 348.872673 224.495352 
L 350.610148 223.551755 
L 352.347622 222.148034 
L 354.085096 220.264808 
L 355.82257 217.876071 
L 360.982487 210.100369 
L 361.86077 209.064527 
L 362.739054 208.240382 
L 363.617338 207.633371 
L 364.495621 207.247501 
L 365.373905 207.085319 
L 366.252189 207.147894 
L 367.130472 207.434815 
L 368.008756 207.944187 
L 368.88704 208.672648 
L 369.765323 209.615392 
L 370.643607 210.766196 
L 373.234544 214.942312 
L 376.636063 220.485404 
L 378.301143 222.70848 
L 379.966222 224.443696 
L 381.631301 225.720216 
L 383.296381 226.559494 
L 384.96146 226.975636 
L 386.62654 226.975636 
L 388.291619 226.559494 
L 389.956699 225.720216 
L 391.621778 224.443696 
L 393.286857 222.70848 
L 394.951937 220.485404 
L 397.49713 216.354735 
L 400.944393 210.766196 
L 401.822677 209.615392 
L 402.70096 208.672648 
L 403.579244 207.944187 
L 404.457528 207.434815 
L 405.335811 207.147894 
L 406.214095 207.085319 
L 407.092379 207.247501 
L 407.970662 207.633371 
L 408.848946 208.240382 
L 409.72723 209.064527 
L 410.605513 210.100369 
L 412.340124 212.648071 
L 416.634167 219.135522 
L 418.371641 221.267826 
L 420.109115 222.90847 
L 421.84659 224.080108 
L 423.584064 224.79892 
L 425.321538 225.07483 
L 427.059012 224.911649 
L 428.796486 224.307123 
L 430.53396 223.252906 
L 432.271435 221.734438 
L 434.008909 219.730754 
L 435.746383 217.214185 
L 440.9063 209.050901 
L 441.784583 207.9628 
L 442.662867 207.09665 
L 443.541151 206.458259 
L 444.419434 206.05191 
L 445.297718 205.880327 
L 446.176001 205.944661 
L 447.054285 206.24448 
L 447.932569 206.777774 
L 448.810852 207.540966 
L 449.689136 208.528939 
L 450.56742 209.735066 
L 453.158357 214.1117 
L 456.596073 219.991476 
L 458.333548 222.507297 
L 460.071022 224.565582 
L 461.808496 226.192147 
L 463.54597 227.407395 
L 465.283444 228.226569 
L 467.020919 228.659944 
L 468.758393 228.712956 
L 470.495867 228.386269 
L 472.233341 227.675786 
L 473.970815 226.572595 
L 475.708289 225.062859 
L 480.868206 220.025577 
L 481.74649 219.362315 
L 482.624773 218.84158 
L 483.503057 218.466768 
L 484.381341 218.240327 
L 485.259624 218.163734 
L 486.137908 218.23749 
L 487.016192 218.461112 
L 487.894475 218.833141 
L 488.772759 219.35115 
L 490.529326 220.810652 
L 493.120263 223.685887 
L 496.55798 227.537769 
L 498.295454 229.12679 
L 500.032928 230.350313 
L 501.770402 231.222069 
L 503.507877 231.75184 
L 505.245351 231.945573 
L 506.982825 231.805441 
L 508.720299 231.329872 
L 510.457773 230.513529 
L 512.195248 229.347249 
L 513.932722 227.817946 
L 515.670196 225.908456 
L 529.330644 209.429749 
L 530.146193 208.690724 
L 530.961742 208.124042 
L 531.777291 207.73329 
L 532.59284 207.52094 
L 533.408389 207.488336 
L 535.175412 207.912312 
L 560.729284 215.392338 
L 562.360383 216.266521 
L 563.991481 217.524009 
L 565.622579 219.140282 
L 576.491339 230.993459 
L 578.247907 232.562381 
L 580.004474 233.806403 
L 581.761041 234.749969 
L 583.517609 235.411618 
L 585.274176 235.804353 
L 587.030743 235.935889 
L 679.799455 235.949455 
L 679.799455 235.949455 
" style="fill:none;stroke:#10b981;stroke-linecap:square;stroke-width:1.5;"/>
   </g>
   <g id="patch_3">
    <path d="M 62.388 246.04 
L 62.388 24.048 
" style="fill:none;stroke:#000000;stroke-linecap:square;stroke-linejoin:miter;stroke-width:0.8;"/>
   </g>
   <g id="patch_4">
    <path d="M 709.2 246.04 
L 709.2 24.048 
" style="fill:none;stroke:#000000;stroke-linecap:square;stroke-linejoin:miter;stroke-width:0.8;"/>
   </g>
   <g id="patch_5">
    <path d="M 62.388 246.04 
L 709.2 246.04 
" style="fill:none;stroke:#000000;stroke-linecap:square;stroke-linejoin:miter;stroke-width:0.8;"/>
   </g>
   <g id="patch_6">
    <path d="M 62.388 24.048 
L 709.2 24.048 
" style="fill:none;stroke:#000000;stroke-linecap:square;stroke-linejoin:miter;stroke-width:0.8;"/>
   </g>
   <g id="text_12">
    <!--        $\eta_x / 1\mathrm{cm}$ -->
    <g style="fill:#008000;" transform="translate(13.94304 174.7912)rotate(-90)scale(0.1 -0.1)">
     <defs>
      <path d="M 57.859375 33.015625 
L 47.40625 -20.796875 
L 38.421875 -20.796875 
L 48.828125 32.71875 
Q 50.34375 40.484375 48.046875 44.34375 
Q 45.796875 48.1875 39.75 48.1875 
Q 32.46875 48.1875 27.34375 43.5625 
Q 22.265625 38.921875 20.703125 30.90625 
L 14.703125 0 
L 5.671875 0 
L 16.3125 54.6875 
L 25.34375 54.6875 
L 23.6875 46.1875 
Q 27.828125 51.125 32.71875 53.5625 
Q 37.546875 56 43.265625 56 
Q 52.6875 56 56.390625 50.203125 
Q 60.0625 44.34375 57.859375 33.015625 
z
" id="DejaVuSans-Oblique-951"/>
      <path d="M 60.015625 54.6875 
L 34.90625 27.875 
L 50.296875 0 
L 39.984375 0 
L 28.421875 21.6875 
L 8.296875 0 
L -2.59375 0 
L 24.3125 28.8125 
L 10.015625 54.6875 
L 20.3125 54.6875 
L 30.8125 34.90625 
L 49.125 54.6875 
z
" id="DejaVuSans-Oblique-120"/>
      <path d="M 25.390625 72.90625 
L 33.6875 72.90625 
L 8.296875 -9.28125 
L 0 -9.28125 
z
" id="DejaVuSans-47"/>
      <path d="M 12.40625 8.296875 
L 28.515625 8.296875 
L 28.515625 63.921875 
L 10.984375 60.40625 
L 10.984375 69.390625 
L 28.421875 72.90625 
L 38.28125 72.90625 
L 38.28125 8.296875 
L 54.390625 8.296875 
L 54.390625 0 
L 12.40625 0 
z
" id="DejaVuSans-49"/>
      <path d="M 48.78125 52.59375 
L 48.78125 44.1875 
Q 44.96875 46.296875 41.140625 47.34375 
Q 37.3125 48.390625 33.40625 48.390625 
Q 24.65625 48.390625 19.8125 42.84375 
Q 14.984375 37.3125 14.984375 27.296875 
Q 14.984375 17.28125 19.8125 11.734375 
Q 24.65625 6.203125 33.40625 6.203125 
Q 37.3125 6.203125 41.140625 7.25 
Q 44.96875 8.296875 48.78125 10.40625 
L 48.78125 2.09375 
Q 45.015625 0.34375 40.984375 -0.53125 
Q 36.96875 -1.421875 32.421875 -1.421875 
Q 20.0625 -1.421875 12.78125 6.34375 
Q 5.515625 14.109375 5.515625 27.296875 
Q 5.515625 40.671875 12.859375 48.328125 
Q 20.21875 56 33.015625 56 
Q 37.15625 56 41.109375 55.140625 
Q 45.0625 54.296875 48.78125 52.59375 
z
" id="DejaVuSans-99"/>
      <path d="M 52 44.1875 
Q 55.375 50.25 60.0625 53.125 
Q 64.75 56 71.09375 56 
Q 79.640625 56 84.28125 50.015625 
Q 88.921875 44.046875 88.921875 33.015625 
L 88.921875 0 
L 79.890625 0 
L 79.890625 32.71875 
Q 79.890625 40.578125 77.09375 44.375 
Q 74.3125 48.1875 68.609375 48.1875 
Q 61.625 48.1875 57.5625 43.546875 
Q 53.515625 38.921875 53.515625 30.90625 
L 53.515625 0 
L 44.484375 0 
L 44.484375 32.71875 
Q 44.484375 40.625 41.703125 44.40625 
Q 38.921875 48.1875 33.109375 48.1875 
Q 26.21875 48.1875 22.15625 43.53125 
Q 18.109375 38.875 18.109375 30.90625 
L 18.109375 0 
L 9.078125 0 
L 9.078125 54.6875 
L 18.109375 54.6875 
L 18.109375 46.1875 
Q 21.1875 51.21875 25.484375 53.609375 
Q 29.78125 56 35.6875 56 
Q 41.65625 56 45.828125 52.96875 
Q 50 49.953125 52 44.1875 
z
" id="DejaVuSans-109"/>
     </defs>
     <use transform="translate(0 0.09375)" xlink:href="#Inter-Regular-32"/>
     <use transform="translate(28.125 0.09375)" xlink:href="#Inter-Regular-32"/>
     <use transform="translate(56.25 0.09375)" xlink:href="#Inter-Regular-32"/>
     <use transform="translate(84.375 0.09375)" xlink:href="#Inter-Regular-32"/>
     <use transform="translate(112.5 0.09375)" xlink:href="#Inter-Regular-32"/>
     <use transform="translate(140.625 0.09375)" xlink:href="#Inter-Regular-32"/>
     <use transform="translate(168.75 0.09375)" xlink:href="#Inter-Regular-32"/>
     <use transform="translate(196.875 0.09375)" xlink:href="#DejaVuSans-Oblique-951"/>
     <use transform="translate(260.253906 -16.3125)scale(0.7)" xlink:href="#DejaVuSans-Oblique-120"/>
     <use transform="translate(304.414062 0.09375)" xlink:href="#DejaVuSans-47"/>
     <use transform="translate(338.105469 0.09375)" xlink:href="#DejaVuSans-49"/>
     <use transform="translate(401.728516 0.09375)" xlink:href="#DejaVuSans-99"/>
     <use transform="translate(456.708984 0.09375)" xlink:href="#DejaVuSans-109"/>
    </g>
   </g>
   <g id="text_13">
    <!--   $\beta_y / \mathrm{m}$ -->
    <g style="fill:#0000ff;" transform="translate(12.94304 195.4412)rotate(-90)scale(0.1 -0.1)">
     <defs>
      <path d="M 13.625 3.375 
L 8.9375 -20.796875 
L -0.09375 -20.796875 
L 14.5 54.34375 
Q 18.84375 76.609375 39.65625 76.609375 
Q 60.75 76.609375 57.171875 57.8125 
Q 54.734375 44.4375 45.21875 39.546875 
Q 58.015625 35.15625 55.515625 22.125 
Q 51.125 -1.078125 27.484375 -1.03125 
Q 17.140625 -0.984375 13.625 3.375 
z
M 15.921875 15.09375 
Q 19.671875 6.59375 29.296875 6.640625 
Q 43.359375 6.640625 46.34375 21.96875 
Q 49.03125 35.75 26.171875 34.671875 
L 27.78125 42.96875 
Q 45.453125 42.671875 48.53125 58.59375 
Q 50.640625 69.34375 39.203125 69.28125 
Q 26.421875 69.28125 23.484375 54.046875 
z
" id="DejaVuSans-Oblique-946"/>
      <path d="M 24.8125 -5.078125 
Q 18.5625 -15.578125 14.625 -18.1875 
Q 10.6875 -20.796875 4.59375 -20.796875 
L -2.484375 -20.796875 
L -0.984375 -13.28125 
L 4.203125 -13.28125 
Q 7.953125 -13.28125 10.59375 -11.234375 
Q 13.234375 -9.1875 16.5 -3.21875 
L 19.28125 2 
L 7.171875 54.6875 
L 16.703125 54.6875 
L 25.78125 12.796875 
L 50.875 54.6875 
L 60.296875 54.6875 
z
" id="DejaVuSans-Oblique-121"/>
     </defs>
     <use transform="translate(0 0.390625)" xlink:href="#Inter-Regular-32"/>
     <use transform="translate(28.125 0.390625)" xlink:href="#Inter-Regular-32"/>
     <use transform="translate(56.25 0.390625)" xlink:href="#DejaVuSans-Oblique-946"/>
     <use transform="translate(120.068359 -16.015625)scale(0.7)" xlink:href="#DejaVuSans-Oblique-121"/>
     <use transform="translate(164.228516 0.390625)" xlink:href="#DejaVuSans-47"/>
     <use transform="translate(197.919922 0.390625)" xlink:href="#DejaVuSans-109"/>
    </g>
   </g>
   <g id="text_14">
    <!-- $\beta_x / \mathrm{m}$ -->
    <g style="fill:#ff0000;" transform="translate(13.94304 222.6412)rotate(-90)scale(0.1 -0.1)">
     <use transform="translate(0 0.390625)" xlink:href="#DejaVuSans-Oblique-946"/>
     <use transform="translate(63.818359 -16.015625)scale(0.7)" xlink:href="#DejaVuSans-Oblique-120"/>
     <use transform="translate(107.978516 0.390625)" xlink:href="#DejaVuSans-47"/>
     <use transform="translate(141.669922 0.390625)" xlink:href="#DejaVuSans-109"/>
    </g>
   </g>
   <g id="patch_7">
    <path d="M 163.149093 29.5978 
L 166.003515 29.5978 
L 166.003515 18.4982 
L 163.149093 18.4982 
z
" style="fill:#10b981;"/>
   </g>
   <g id="patch_8">
    <path d="M 168.857936 29.5978 
L 174.56678 29.5978 
L 174.56678 18.4982 
L 168.857936 18.4982 
z
" style="fill:#ef4444;"/>
   </g>
   <g id="patch_9">
    <path d="M 177.421202 29.5978 
L 180.275624 29.5978 
L 180.275624 18.4982 
L 177.421202 18.4982 
z
" style="fill:#ef4444;"/>
   </g>
   <g id="patch_10">
    <path d="M 184.557257 29.5978 
L 195.974944 29.5978 
L 195.974944 18.4982 
L 184.557257 18.4982 
z
" style="fill:#fbbf24;"/>
   </g>
   <g id="patch_11">
    <path d="M 200.256577 29.5978 
L 203.110999 29.5978 
L 203.110999 18.4982 
L 200.256577 18.4982 
z
" style="fill:#10b981;"/>
   </g>
   <g id="patch_12">
    <path d="M 205.965421 29.5978 
L 211.674265 29.5978 
L 211.674265 18.4982 
L 205.965421 18.4982 
z
" style="fill:#ef4444;"/>
   </g>
   <g id="patch_13">
    <path d="M 214.528687 29.5978 
L 223.091952 29.5978 
L 223.091952 18.4982 
L 214.528687 18.4982 
z
" style="fill:#10b981;"/>
   </g>
   <g id="patch_14">
    <path d="M 225.946374 29.5978 
L 234.50964 29.5978 
L 234.50964 18.4982 
L 225.946374 18.4982 
z
" style="fill:#10b981;"/>
   </g>
   <g id="patch_15">
    <path d="M 237.364062 29.5978 
L 243.072906 29.5978 
L 243.072906 18.4982 
L 237.364062 18.4982 
z
" style="fill:#ef4444;"/>
   </g>
   <g id="patch_16">
    <path d="M 247.354538 29.5978 
L 251.636171 29.5978 
L 251.636171 18.4982 
L 247.354538 18.4982 
z
" style="fill:#10b981;"/>
   </g>
   <g id="patch_17">
    <path d="M 255.917804 29.5978 
L 275.898757 29.5978 
L 275.898757 18.4982 
L 255.917804 18.4982 
z
" style="fill:#fbbf24;"/>
   </g>
   <g id="patch_18">
    <path d="M 280.18039 29.5978 
L 291.598078 29.5978 
L 291.598078 18.4982 
L 280.18039 18.4982 
z
" style="fill:#fbbf24;"/>
   </g>
   <g id="patch_19">
    <path d="M 295.879711 29.5978 
L 315.860664 29.5978 
L 315.860664 18.4982 
L 295.879711 18.4982 
z
" style="fill:#fbbf24;"/>
   </g>
   <g id="patch_20">
    <path d="M 320.142297 29.5978 
L 331.559984 29.5978 
L 331.559984 18.4982 
L 320.142297 18.4982 
z
" style="fill:#fbbf24;"/>
   </g>
   <g id="patch_21">
    <path d="M 335.841617 29.5978 
L 355.82257 29.5978 
L 355.82257 18.4982 
L 335.841617 18.4982 
z
" style="fill:#fbbf24;"/>
   </g>
   <g id="patch_22">
    <path d="M 360.104203 29.5978 
L 371.521891 29.5978 
L 371.521891 18.4982 
L 360.104203 18.4982 
z
" style="fill:#fbbf24;"/>
   </g>
   <g id="patch_23">
    <path d="M 375.803523 29.5978 
L 395.784477 29.5978 
L 395.784477 18.4982 
L 375.803523 18.4982 
z
" style="fill:#fbbf24;"/>
   </g>
   <g id="patch_24">
    <path d="M 400.066109 29.5978 
L 411.483797 29.5978 
L 411.483797 18.4982 
L 400.066109 18.4982 
z
" style="fill:#fbbf24;"/>
   </g>
   <g id="patch_25">
    <path d="M 415.76543 29.5978 
L 435.746383 29.5978 
L 435.746383 18.4982 
L 415.76543 18.4982 
z
" style="fill:#fbbf24;"/>
   </g>
   <g id="patch_26">
    <path d="M 440.028016 29.5978 
L 451.445703 29.5978 
L 451.445703 18.4982 
L 440.028016 18.4982 
z
" style="fill:#fbbf24;"/>
   </g>
   <g id="patch_27">
    <path d="M 455.727336 29.5978 
L 475.708289 29.5978 
L 475.708289 18.4982 
L 455.727336 18.4982 
z
" style="fill:#fbbf24;"/>
   </g>
   <g id="patch_28">
    <path d="M 479.989922 29.5978 
L 491.40761 29.5978 
L 491.40761 18.4982 
L 479.989922 18.4982 
z
" style="fill:#fbbf24;"/>
   </g>
   <g id="patch_29">
    <path d="M 495.689243 29.5978 
L 515.670196 29.5978 
L 515.670196 18.4982 
L 495.689243 18.4982 
z
" style="fill:#fbbf24;"/>
   </g>
   <g id="patch_30">
    <path d="M 519.951829 29.5978 
L 524.233462 29.5978 
L 524.233462 18.4982 
L 519.951829 18.4982 
z
" style="fill:#10b981;"/>
   </g>
   <g id="patch_31">
    <path d="M 528.515094 29.5978 
L 534.223938 29.5978 
L 534.223938 18.4982 
L 528.515094 18.4982 
z
" style="fill:#ef4444;"/>
   </g>
   <g id="patch_32">
    <path d="M 537.07836 29.5978 
L 545.641626 29.5978 
L 545.641626 18.4982 
L 537.07836 18.4982 
z
" style="fill:#10b981;"/>
   </g>
   <g id="patch_33">
    <path d="M 548.496048 29.5978 
L 557.059313 29.5978 
L 557.059313 18.4982 
L 548.496048 18.4982 
z
" style="fill:#10b981;"/>
   </g>
   <g id="patch_34">
    <path d="M 559.913735 29.5978 
L 565.622579 29.5978 
L 565.622579 18.4982 
L 559.913735 18.4982 
z
" style="fill:#ef4444;"/>
   </g>
   <g id="patch_35">
    <path d="M 568.477001 29.5978 
L 571.331423 29.5978 
L 571.331423 18.4982 
L 568.477001 18.4982 
z
" style="fill:#10b981;"/>
   </g>
   <g id="patch_36">
    <path d="M 575.613056 29.5978 
L 587.030743 29.5978 
L 587.030743 18.4982 
L 575.613056 18.4982 
z
" style="fill:#fbbf24;"/>
   </g>
   <g id="patch_37">
    <path d="M 591.312376 29.5978 
L 594.166798 29.5978 
L 594.166798 18.4982 
L 591.312376 18.4982 
z
" style="fill:#ef4444;"/>
   </g>
   <g id="patch_38">
    <path d="M 597.02122 29.5978 
L 602.730064 29.5978 
L 602.730064 18.4982 
L 597.02122 18.4982 
z
" style="fill:#ef4444;"/>
   </g>
   <g id="patch_39">
    <path d="M 605.584485 29.5978 
L 608.438907 29.5978 
L 608.438907 18.4982 
L 605.584485 18.4982 
z
" style="fill:#10b981;"/>
   </g>
   <g id="text_15">
    <!-- S4 -->
    <g transform="translate(161.376694 36.454631)scale(0.05 -0.05)">
     <defs>
      <path d="M 48.578125 54.546875 
L 57.109375 54.546875 
C 56.71875 65.515625 46.59375 73.71875 32.53125 73.71875 
C 18.609375 73.71875 7.671875 65.625 7.671875 53.40625 
C 7.671875 43.609375 14.78125 37.78125 26.140625 34.515625 
L 35.09375 31.953125 
C 42.75 29.828125 49.578125 27.125 49.578125 19.890625 
C 49.578125 11.9375 41.90625 6.671875 31.8125 6.671875 
C 23.15625 6.671875 15.484375 10.515625 14.78125 18.75 
L 5.6875 18.75 
C 6.53125 6.8125 16.1875 -1.28125 31.8125 -1.28125 
C 48.578125 -1.28125 58.09375 7.953125 58.09375 19.75 
C 58.09375 33.375 45.171875 37.78125 37.640625 39.765625 
L 30.25 41.765625 
C 24.859375 43.1875 16.1875 46.015625 16.1875 53.828125 
C 16.1875 60.796875 22.59375 65.90625 32.25 65.90625 
C 41.046875 65.90625 47.734375 61.71875 48.578125 54.546875 
z
" id="Inter-Regular-83"/>
      <path d="M 5.828125 14.921875 
L 40.0625 14.921875 
L 40.0625 0 
L 48.4375 0 
L 48.4375 14.921875 
L 58.375 14.921875 
L 58.375 22.734375 
L 48.4375 22.734375 
L 48.4375 72.734375 
L 37.78125 72.734375 
L 5.828125 22.15625 
z
M 15.34375 22.734375 
L 15.34375 23.296875 
L 39.484375 61.5 
L 40.0625 61.5 
L 40.0625 22.734375 
z
" id="Inter-Regular-52"/>
     </defs>
     <use xlink:href="#Inter-Regular-83"/>
     <use x="63.778427" xlink:href="#Inter-Regular-52"/>
    </g>
   </g>
   <g id="text_16">
    <!-- Q11 -->
    <g transform="translate(167.486186 14.255431)scale(0.05 -0.05)">
     <defs>
      <path d="M 70.171875 36.359375 
C 70.171875 59.375 56.671875 73.71875 38.0625 73.71875 
C 19.46875 73.71875 5.96875 59.375 5.96875 36.359375 
C 5.96875 13.359375 19.46875 -1 38.0625 -1 
C 42.828125 -1 47.234375 -0.078125 51.171875 1.703125 
L 57.53125 -6.8125 
L 67.1875 -6.8125 
L 57.703125 5.78125 
C 65.453125 12.140625 70.171875 22.734375 70.171875 36.359375 
z
M 35.234375 22.734375 
L 45.984375 8.59375 
C 43.53125 7.703125 40.875 7.25 38.0625 7.25 
C 24.859375 7.25 14.484375 17.46875 14.484375 36.359375 
C 14.484375 55.25 24.859375 65.484375 38.0625 65.484375 
C 51.28125 65.484375 61.65625 55.25 61.65625 36.359375 
C 61.65625 25.390625 58.171875 17.359375 52.625 12.53125 
L 44.890625 22.734375 
z
" id="Inter-Regular-81"/>
     </defs>
     <use xlink:href="#Inter-Regular-81"/>
     <use x="76.136383" xlink:href="#Inter-Regular-49"/>
     <use x="122.585251" xlink:href="#Inter-Regular-49"/>
    </g>
   </g>
   <g id="text_17">
    <!-- Q12 -->
    <g transform="translate(174.270679 14.255431)scale(0.05 -0.05)">
     <use xlink:href="#Inter-Regular-81"/>
     <use x="76.136383" xlink:href="#Inter-Regular-49"/>
     <use x="122.585251" xlink:href="#Inter-Regular-50"/>
    </g>
   </g>
   <g id="text_18">
    <!-- B1 -->
    <g transform="translate(187.47821 36.454631)scale(0.05 -0.05)">
     <defs>
      <path d="M 8.8125 0 
L 35.09375 0 
C 52.28125 0 59.375 8.375 59.375 19.3125 
C 59.375 30.828125 51.421875 37.078125 44.75 37.5 
L 44.75 38.203125 
C 51 39.921875 56.53125 44.03125 56.53125 53.40625 
C 56.53125 64.0625 49.4375 72.734375 34.234375 72.734375 
L 8.8125 72.734375 
z
M 17.609375 40.765625 
L 17.609375 64.921875 
L 34.234375 64.921875 
C 43.890625 64.921875 48.15625 59.796875 48.15625 53.40625 
C 48.15625 45.734375 41.90625 40.765625 33.953125 40.765625 
z
M 17.609375 7.8125 
L 17.609375 33.09375 
L 35.515625 33.09375 
C 45.03125 33.09375 51 26.703125 51 19.3125 
C 51 12.921875 46.59375 7.8125 35.09375 7.8125 
z
" id="Inter-Regular-66"/>
     </defs>
     <use xlink:href="#Inter-Regular-66"/>
     <use x="65.056839" xlink:href="#Inter-Regular-49"/>
    </g>
   </g>
   <g id="text_19">
    <!-- S5 -->
    <g transform="translate(198.569335 36.454631)scale(0.05 -0.05)">
     <use xlink:href="#Inter-Regular-83"/>
     <use x="63.778427" xlink:href="#Inter-Regular-53"/>
    </g>
   </g>
   <g id="text_20">
    <!-- Q2 -->
    <g transform="translate(205.403437 14.255431)scale(0.05 -0.05)">
     <use xlink:href="#Inter-Regular-81"/>
     <use x="76.136383" xlink:href="#Inter-Regular-50"/>
    </g>
   </g>
   <g id="text_21">
    <!-- S1 -->
    <g transform="translate(216.05446 36.454631)scale(0.05 -0.05)">
     <use xlink:href="#Inter-Regular-83"/>
     <use x="63.778427" xlink:href="#Inter-Regular-49"/>
    </g>
   </g>
   <g id="text_22">
    <!-- S2 -->
    <g transform="translate(227.120585 36.454631)scale(0.05 -0.05)">
     <use xlink:href="#Inter-Regular-83"/>
     <use x="63.778427" xlink:href="#Inter-Regular-50"/>
    </g>
   </g>
   <g id="text_23">
    <!-- Q3 -->
    <g transform="translate(236.723952 14.255431)scale(0.05 -0.05)">
     <defs>
      <path d="M 32.109375 -1 
C 46.203125 -1 56.671875 7.84375 56.671875 19.75 
C 56.671875 28.984375 51.203125 35.6875 42.046875 37.21875 
L 42.046875 37.78125 
C 49.390625 40.015625 53.984375 46.0625 53.984375 54.265625 
C 53.984375 64.5625 45.84375 73.71875 32.390625 73.71875 
C 19.8125 73.71875 9.375 65.984375 8.953125 54.546875 
L 17.46875 54.546875 
C 17.796875 61.796875 24.6875 66.046875 32.25 66.046875 
C 40.265625 66.046875 45.453125 61.1875 45.453125 53.828125 
C 45.453125 46.171875 39.453125 41.1875 30.828125 41.1875 
L 25 41.1875 
L 25 33.375 
L 30.828125 33.375 
C 41.875 33.375 48.015625 27.765625 48.015625 19.75 
C 48.015625 12.03125 41.296875 6.8125 31.96875 6.8125 
C 23.546875 6.8125 16.875 11.15625 16.34375 18.1875 
L 7.390625 18.1875 
C 7.921875 6.75 18 -1 32.109375 -1 
z
" id="Inter-Regular-51"/>
     </defs>
     <use xlink:href="#Inter-Regular-81"/>
     <use x="76.136383" xlink:href="#Inter-Regular-51"/>
    </g>
   </g>
   <g id="text_24">
    <!-- S3 -->
    <g transform="translate(246.309808 36.454631)scale(0.05 -0.05)">
     <use xlink:href="#Inter-Regular-83"/>
     <use x="63.778427" xlink:href="#Inter-Regular-51"/>
    </g>
   </g>
   <g id="text_25">
    <!-- B2 -->
    <g transform="translate(262.768828 36.454631)scale(0.05 -0.05)">
     <use xlink:href="#Inter-Regular-66"/>
     <use x="65.056839" xlink:href="#Inter-Regular-50"/>
    </g>
   </g>
   <g id="text_26">
    <!-- Q4 -->
    <g transform="translate(282.38064 36.454631)scale(0.05 -0.05)">
     <use xlink:href="#Inter-Regular-81"/>
     <use x="76.136383" xlink:href="#Inter-Regular-52"/>
    </g>
   </g>
   <g id="text_27">
    <!-- B3 -->
    <g transform="translate(302.652609 36.454631)scale(0.05 -0.05)">
     <use xlink:href="#Inter-Regular-66"/>
     <use x="65.056839" xlink:href="#Inter-Regular-51"/>
    </g>
   </g>
   <g id="text_28">
    <!-- Q5 -->
    <g transform="translate(322.427703 36.454631)scale(0.05 -0.05)">
     <use xlink:href="#Inter-Regular-81"/>
     <use x="76.136383" xlink:href="#Inter-Regular-53"/>
    </g>
   </g>
   <g id="text_29">
    <!-- B4 -->
    <g transform="translate(342.600453 36.454631)scale(0.05 -0.05)">
     <use xlink:href="#Inter-Regular-66"/>
     <use x="65.056839" xlink:href="#Inter-Regular-52"/>
    </g>
   </g>
   <g id="text_30">
    <!-- Q6 -->
    <g transform="translate(362.350547 36.454631)scale(0.05 -0.05)">
     <defs>
      <path d="M 31.671875 -1 
C 46.375 -1.171875 55.96875 9.90625 55.96875 23.4375 
C 55.96875 37.5 45.5625 47.578125 33.09375 47.578125 
C 25.609375 47.578125 19.171875 43.921875 15.203125 37.921875 
L 14.625 37.921875 
C 14.671875 55.78125 21.5625 66.046875 32.8125 66.046875 
C 40.484375 66.046875 45.09375 61.21875 46.734375 54.546875 
L 55.40625 54.546875 
C 53.625 65.984375 45.03125 73.859375 32.8125 73.859375 
C 16.4375 73.859375 6.390625 59.375 6.390625 33.515625 
C 6.390625 6.640625 19.75 -0.859375 31.671875 -1 
z
M 31.671875 6.8125 
C 22.546875 6.8125 15.875 14.59375 15.90625 23.296875 
C 15.953125 32 22.9375 39.765625 31.96875 39.765625 
C 40.875 39.765625 47.4375 32.453125 47.4375 23.4375 
C 47.4375 14.203125 40.59375 6.8125 31.671875 6.8125 
z
" id="Inter-Regular-54"/>
     </defs>
     <use xlink:href="#Inter-Regular-81"/>
     <use x="76.136383" xlink:href="#Inter-Regular-54"/>
    </g>
   </g>
   <g id="text_31">
    <!-- B5 -->
    <g transform="translate(382.647516 36.454631)scale(0.05 -0.05)">
     <use xlink:href="#Inter-Regular-66"/>
     <use x="65.056839" xlink:href="#Inter-Regular-53"/>
    </g>
   </g>
   <g id="text_32">
    <!-- Q6 -->
    <g transform="translate(402.312453 36.454631)scale(0.05 -0.05)">
     <use xlink:href="#Inter-Regular-81"/>
     <use x="76.136383" xlink:href="#Inter-Regular-54"/>
    </g>
   </g>
   <g id="text_33">
    <!-- B4 -->
    <g transform="translate(422.524266 36.454631)scale(0.05 -0.05)">
     <use xlink:href="#Inter-Regular-66"/>
     <use x="65.056839" xlink:href="#Inter-Regular-52"/>
    </g>
   </g>
   <g id="text_34">
    <!-- Q5 -->
    <g transform="translate(442.313422 36.454631)scale(0.05 -0.05)">
     <use xlink:href="#Inter-Regular-81"/>
     <use x="76.136383" xlink:href="#Inter-Regular-53"/>
    </g>
   </g>
   <g id="text_35">
    <!-- B3 -->
    <g transform="translate(462.500235 36.454631)scale(0.05 -0.05)">
     <use xlink:href="#Inter-Regular-66"/>
     <use x="65.056839" xlink:href="#Inter-Regular-51"/>
    </g>
   </g>
   <g id="text_36">
    <!-- Q4 -->
    <g transform="translate(482.190172 36.454631)scale(0.05 -0.05)">
     <use xlink:href="#Inter-Regular-81"/>
     <use x="76.136383" xlink:href="#Inter-Regular-52"/>
    </g>
   </g>
   <g id="text_37">
    <!-- B2 -->
    <g transform="translate(502.540266 36.454631)scale(0.05 -0.05)">
     <use xlink:href="#Inter-Regular-66"/>
     <use x="65.056839" xlink:href="#Inter-Regular-50"/>
    </g>
   </g>
   <g id="text_38">
    <!-- S3 -->
    <g transform="translate(518.907098 36.454631)scale(0.05 -0.05)">
     <use xlink:href="#Inter-Regular-83"/>
     <use x="63.778427" xlink:href="#Inter-Regular-51"/>
    </g>
   </g>
   <g id="text_39">
    <!-- Q3 -->
    <g transform="translate(527.874985 14.255431)scale(0.05 -0.05)">
     <use xlink:href="#Inter-Regular-81"/>
     <use x="76.136383" xlink:href="#Inter-Regular-51"/>
    </g>
   </g>
   <g id="text_40">
    <!-- S2 -->
    <g transform="translate(538.252571 36.454631)scale(0.05 -0.05)">
     <use xlink:href="#Inter-Regular-83"/>
     <use x="63.778427" xlink:href="#Inter-Regular-50"/>
    </g>
   </g>
   <g id="text_41">
    <!-- S1 -->
    <g transform="translate(550.021821 36.454631)scale(0.05 -0.05)">
     <use xlink:href="#Inter-Regular-83"/>
     <use x="63.778427" xlink:href="#Inter-Regular-49"/>
    </g>
   </g>
   <g id="text_42">
    <!-- Q2 -->
    <g transform="translate(559.351751 14.255431)scale(0.05 -0.05)">
     <use xlink:href="#Inter-Regular-81"/>
     <use x="76.136383" xlink:href="#Inter-Regular-50"/>
    </g>
   </g>
   <g id="text_43">
    <!-- S5 -->
    <g transform="translate(566.789759 36.454631)scale(0.05 -0.05)">
     <use xlink:href="#Inter-Regular-83"/>
     <use x="63.778427" xlink:href="#Inter-Regular-53"/>
    </g>
   </g>
   <g id="text_44">
    <!-- B1 -->
    <g transform="translate(578.534009 36.454631)scale(0.05 -0.05)">
     <use xlink:href="#Inter-Regular-66"/>
     <use x="65.056839" xlink:href="#Inter-Regular-49"/>
    </g>
   </g>
   <g id="text_45">
    <!-- Q12 -->
    <g transform="translate(588.161853 14.255431)scale(0.05 -0.05)">
     <use xlink:href="#Inter-Regular-81"/>
     <use x="76.136383" xlink:href="#Inter-Regular-49"/>
     <use x="122.585251" xlink:href="#Inter-Regular-50"/>
    </g>
   </g>
   <g id="text_46">
    <!-- Q11 -->
    <g transform="translate(595.64947 14.255431)scale(0.05 -0.05)">
     <use xlink:href="#Inter-Regular-81"/>
     <use x="76.136383" xlink:href="#Inter-Regular-49"/>
     <use x="122.585251" xlink:href="#Inter-Regular-49"/>
    </g>
   </g>
   <g id="text_47">
    <!-- S4 -->
    <g transform="translate(603.812087 36.454631)scale(0.05 -0.05)">
     <use xlink:href="#Inter-Regular-83"/>
     <use x="63.778427" xlink:href="#Inter-Regular-52"/>
    </g>
   </g>
  </g>
 </g>
 <defs>
  <clipPath id="p27de51a0c4">
   <rect height="221.992" width="646.812" x="62.388" y="24.048"/>
  </clipPath>
 </defs>
</svg>
