<?xml version="1.0" encoding="utf-8" standalone="no"?>
<!DOCTYPE svg PUBLIC "-//W3C//DTD SVG 1.1//EN"
  "http://www.w3.org/Graphics/SVG/1.1/DTD/svg11.dtd">
<!-- Created with matplotlib (https://matplotlib.org/) -->
<svg height="288pt" version="1.1" viewBox="0 0 720 288" width="720pt" xmlns="http://www.w3.org/2000/svg" xmlns:xlink="http://www.w3.org/1999/xlink">
 <metadata>
  <rdf:RDF xmlns:cc="http://creativecommons.org/ns#" xmlns:dc="http://purl.org/dc/elements/1.1/" xmlns:rdf="http://www.w3.org/1999/02/22-rdf-syntax-ns#">
   <cc:Work>
    <dc:type rdf:resource="http://purl.org/dc/dcmitype/StillImage"/>
    <dc:date>2020-12-03T08:58:30.694506</dc:date>
    <dc:format>image/svg+xml</dc:format>
    <dc:creator>
     <cc:Agent>
      <dc:title>Matplotlib v3.3.3, https://matplotlib.org/</dc:title>
     </cc:Agent>
    </dc:creator>
   </cc:Work>
  </rdf:RDF>
 </metadata>
 <defs>
  <style type="text/css">*{stroke-linecap:butt;stroke-linejoin:round;}</style>
 </defs>
 <g id="figure_1">
  <g id="patch_1">
   <path d="M 0 288 
L 720 288 
L 720 0 
L 0 0 
z
" style="fill:#ffffff;"/>
  </g>
  <g id="axes_1">
   <g id="patch_2">
    <path d="M 62.388 246.04 
L 709.2 246.04 
L 709.2 24.048 
L 62.388 24.048 
z
" style="fill:#ffffff;"/>
   </g>
   <g id="matplotlib.axis_1">
    <g id="xtick_1">
     <g id="line2d_1">
      <path clip-path="url(#p54c80280a8)" d="M 91.788545 246.04 
L 91.788545 24.048 
" style="fill:none;stroke:#e5e7eb;stroke-dasharray:3.7,1.6;stroke-dashoffset:0;"/>
     </g>
     <g id="line2d_2">
      <defs>
       <path d="M 0 0 
L 0 3.5 
" id="maf14586025" style="stroke:#000000;stroke-width:0.8;"/>
      </defs>
      <g>
       <use style="stroke:#000000;stroke-width:0.8;" x="91.788545" xlink:href="#maf14586025" y="246.04"/>
      </g>
     </g>
     <g id="text_1">
      <!-- 0 -->
      <g transform="translate(88.663545 260.313437)scale(0.1 -0.1)">
       <defs>
        <path d="M 31.25 -1 
C 47.296875 -1 56.53125 12.609375 56.53125 36.359375 
C 56.53125 59.9375 47.15625 73.71875 31.25 73.71875 
C 15.34375 73.71875 5.96875 59.9375 5.96875 36.359375 
C 5.96875 12.609375 15.203125 -1 31.25 -1 
z
M 31.25 6.8125 
C 20.671875 6.8125 14.484375 17.4375 14.484375 36.359375 
C 14.484375 55.25 20.734375 66.046875 31.25 66.046875 
C 41.765625 66.046875 48.015625 55.25 48.015625 36.359375 
C 48.015625 17.4375 41.828125 6.8125 31.25 6.8125 
z
" id="Inter-Regular-48"/>
       </defs>
       <use xlink:href="#Inter-Regular-48"/>
      </g>
     </g>
    </g>
    <g id="xtick_2">
     <g id="line2d_3">
      <path clip-path="url(#p54c80280a8)" d="M 165.015309 246.04 
L 165.015309 24.048 
" style="fill:none;stroke:#e5e7eb;stroke-dasharray:3.7,1.6;stroke-dashoffset:0;"/>
     </g>
     <g id="line2d_4">
      <g>
       <use style="stroke:#000000;stroke-width:0.8;" x="165.015309" xlink:href="#maf14586025" y="246.04"/>
      </g>
     </g>
     <g id="text_2">
      <!-- 2 -->
      <g transform="translate(161.989527 260.313437)scale(0.1 -0.1)">
       <defs>
        <path d="M 7.53125 0 
L 53.40625 0 
L 53.40625 7.8125 
L 19.609375 7.8125 
L 19.609375 8.375 
L 35.9375 25.859375 
C 48.4375 39.234375 52.125 45.484375 52.125 53.546875 
C 52.125 64.765625 43.046875 73.71875 30.25 73.71875 
C 17.515625 73.71875 7.8125 65.0625 7.8125 52.265625 
L 16.1875 52.265625 
C 16.1875 60.546875 21.5625 66.046875 29.96875 66.046875 
C 37.859375 66.046875 43.890625 61.21875 43.890625 53.546875 
C 43.890625 46.84375 39.953125 41.875 31.53125 32.671875 
L 7.53125 6.390625 
z
" id="Inter-Regular-50"/>
       </defs>
       <use xlink:href="#Inter-Regular-50"/>
      </g>
     </g>
    </g>
    <g id="xtick_3">
     <g id="line2d_5">
      <path clip-path="url(#p54c80280a8)" d="M 238.242072 246.04 
L 238.242072 24.048 
" style="fill:none;stroke:#e5e7eb;stroke-dasharray:3.7,1.6;stroke-dashoffset:0;"/>
     </g>
     <g id="line2d_6">
      <g>
       <use style="stroke:#000000;stroke-width:0.8;" x="238.242072" xlink:href="#maf14586025" y="246.04"/>
      </g>
     </g>
     <g id="text_3">
      <!-- 4 -->
      <g transform="translate(235.031916 260.313437)scale(0.1 -0.1)">
       <defs>
        <path d="M 5.828125 14.921875 
L 40.0625 14.921875 
L 40.0625 0 
L 48.4375 0 
L 48.4375 14.921875 
L 58.375 14.921875 
L 58.375 22.734375 
L 48.4375 22.734375 
L 48.4375 72.734375 
L 37.78125 72.734375 
L 5.828125 22.15625 
z
M 15.34375 22.734375 
L 15.34375 23.296875 
L 39.484375 61.5 
L 40.0625 61.5 
L 40.0625 22.734375 
z
" id="Inter-Regular-52"/>
       </defs>
       <use xlink:href="#Inter-Regular-52"/>
      </g>
     </g>
    </g>
    <g id="xtick_4">
     <g id="line2d_7">
      <path clip-path="url(#p54c80280a8)" d="M 311.468835 246.04 
L 311.468835 24.048 
" style="fill:none;stroke:#e5e7eb;stroke-dasharray:3.7,1.6;stroke-dashoffset:0;"/>
     </g>
     <g id="line2d_8">
      <g>
       <use style="stroke:#000000;stroke-width:0.8;" x="311.468835" xlink:href="#maf14586025" y="246.04"/>
      </g>
     </g>
     <g id="text_4">
      <!-- 6 -->
      <g transform="translate(308.350867 260.313437)scale(0.1 -0.1)">
       <defs>
        <path d="M 31.671875 -1 
C 46.375 -1.171875 55.96875 9.90625 55.96875 23.4375 
C 55.96875 37.5 45.5625 47.578125 33.09375 47.578125 
C 25.609375 47.578125 19.171875 43.921875 15.203125 37.921875 
L 14.625 37.921875 
C 14.671875 55.78125 21.5625 66.046875 32.8125 66.046875 
C 40.484375 66.046875 45.09375 61.21875 46.734375 54.546875 
L 55.40625 54.546875 
C 53.625 65.984375 45.03125 73.859375 32.8125 73.859375 
C 16.4375 73.859375 6.390625 59.375 6.390625 33.515625 
C 6.390625 6.640625 19.75 -0.859375 31.671875 -1 
z
M 31.671875 6.8125 
C 22.546875 6.8125 15.875 14.59375 15.90625 23.296875 
C 15.953125 32 22.9375 39.765625 31.96875 39.765625 
C 40.875 39.765625 47.4375 32.453125 47.4375 23.4375 
C 47.4375 14.203125 40.59375 6.8125 31.671875 6.8125 
z
" id="Inter-Regular-54"/>
       </defs>
       <use xlink:href="#Inter-Regular-54"/>
      </g>
     </g>
    </g>
    <g id="xtick_5">
     <g id="line2d_9">
      <path clip-path="url(#p54c80280a8)" d="M 384.695599 246.04 
L 384.695599 24.048 
" style="fill:none;stroke:#e5e7eb;stroke-dasharray:3.7,1.6;stroke-dashoffset:0;"/>
     </g>
     <g id="line2d_10">
      <g>
       <use style="stroke:#000000;stroke-width:0.8;" x="384.695599" xlink:href="#maf14586025" y="246.04"/>
      </g>
     </g>
     <g id="text_5">
      <!-- 8 -->
      <g transform="translate(381.612786 260.313437)scale(0.1 -0.1)">
       <defs>
        <path d="M 30.828125 -1 
C 45.34375 -1 55.46875 7.5 55.546875 19.3125 
C 55.46875 28.515625 49.328125 36.328125 41.484375 37.78125 
L 41.484375 38.203125 
C 48.296875 39.984375 52.765625 46.65625 52.84375 54.40625 
C 52.765625 65.484375 43.46875 73.71875 30.828125 73.71875 
C 18.046875 73.71875 8.734375 65.484375 8.8125 54.40625 
C 8.734375 46.65625 13.21875 39.984375 20.171875 38.203125 
L 20.171875 37.78125 
C 12.1875 36.328125 6.03125 28.515625 6.109375 19.3125 
C 6.03125 7.5 16.15625 -1 30.828125 -1 
z
M 30.828125 41.328125 
C 22.875 41.328125 17.265625 46.3125 17.328125 53.828125 
C 17.265625 61.21875 22.65625 66.046875 30.828125 66.046875 
C 38.84375 66.046875 44.25 61.21875 44.3125 53.828125 
C 44.25 46.3125 38.640625 41.328125 30.828125 41.328125 
z
M 30.828125 6.8125 
C 20.84375 6.8125 14.703125 11.9375 14.78125 19.75 
C 14.703125 27.953125 21.484375 33.8125 30.828125 33.8125 
C 40.015625 33.8125 46.8125 27.953125 46.875 19.75 
C 46.8125 11.9375 40.65625 6.8125 30.828125 6.8125 
z
" id="Inter-Regular-56"/>
       </defs>
       <use xlink:href="#Inter-Regular-56"/>
      </g>
     </g>
    </g>
    <g id="xtick_6">
     <g id="line2d_11">
      <path clip-path="url(#p54c80280a8)" d="M 457.922362 246.04 
L 457.922362 24.048 
" style="fill:none;stroke:#e5e7eb;stroke-dasharray:3.7,1.6;stroke-dashoffset:0;"/>
     </g>
     <g id="line2d_12">
      <g>
       <use style="stroke:#000000;stroke-width:0.8;" x="457.922362" xlink:href="#maf14586025" y="246.04"/>
      </g>
     </g>
     <g id="text_6">
      <!-- 10 -->
      <g transform="translate(452.474706 260.313437)scale(0.1 -0.1)">
       <defs>
        <path d="M 33.09375 72.734375 
L 24.296875 72.734375 
L 6.109375 60.65625 
L 6.109375 51.703125 
L 23.859375 63.5 
L 24.296875 63.5 
L 24.296875 0 
L 33.09375 0 
z
" id="Inter-Regular-49"/>
       </defs>
       <use xlink:href="#Inter-Regular-49"/>
       <use x="46.448868" xlink:href="#Inter-Regular-48"/>
      </g>
     </g>
    </g>
    <g id="xtick_7">
     <g id="line2d_13">
      <path clip-path="url(#p54c80280a8)" d="M 531.149125 246.04 
L 531.149125 24.048 
" style="fill:none;stroke:#e5e7eb;stroke-dasharray:3.7,1.6;stroke-dashoffset:0;"/>
     </g>
     <g id="line2d_14">
      <g>
       <use style="stroke:#000000;stroke-width:0.8;" x="531.149125" xlink:href="#maf14586025" y="246.04"/>
      </g>
     </g>
     <g id="text_7">
      <!-- 12 -->
      <g transform="translate(525.800688 260.313437)scale(0.1 -0.1)">
       <use xlink:href="#Inter-Regular-49"/>
       <use x="46.448868" xlink:href="#Inter-Regular-50"/>
      </g>
     </g>
    </g>
    <g id="xtick_8">
     <g id="line2d_15">
      <path clip-path="url(#p54c80280a8)" d="M 604.375888 246.04 
L 604.375888 24.048 
" style="fill:none;stroke:#e5e7eb;stroke-dasharray:3.7,1.6;stroke-dashoffset:0;"/>
     </g>
     <g id="line2d_16">
      <g>
       <use style="stroke:#000000;stroke-width:0.8;" x="604.375888" xlink:href="#maf14586025" y="246.04"/>
      </g>
     </g>
     <g id="text_8">
      <!-- 14 -->
      <g transform="translate(598.843076 260.313437)scale(0.1 -0.1)">
       <use xlink:href="#Inter-Regular-49"/>
       <use x="46.448868" xlink:href="#Inter-Regular-52"/>
      </g>
     </g>
    </g>
    <g id="xtick_9">
     <g id="line2d_17">
      <path clip-path="url(#p54c80280a8)" d="M 677.602652 246.04 
L 677.602652 24.048 
" style="fill:none;stroke:#e5e7eb;stroke-dasharray:3.7,1.6;stroke-dashoffset:0;"/>
     </g>
     <g id="line2d_18">
      <g>
       <use style="stroke:#000000;stroke-width:0.8;" x="677.602652" xlink:href="#maf14586025" y="246.04"/>
      </g>
     </g>
     <g id="text_9">
      <!-- 16 -->
      <g transform="translate(672.162027 260.313437)scale(0.1 -0.1)">
       <use xlink:href="#Inter-Regular-49"/>
       <use x="46.448868" xlink:href="#Inter-Regular-54"/>
      </g>
     </g>
    </g>
    <g id="text_10">
     <!-- s / m -->
     <g transform="translate(374.23775 273.632187)scale(0.1 -0.1)">
      <defs>
       <path d="M 46.3125 42.328125 
C 43.6875 50.078125 37.78125 55.25 26.984375 55.25 
C 15.484375 55.25 6.96875 48.71875 6.96875 39.484375 
C 6.96875 31.953125 11.4375 26.921875 21.453125 24.578125 
L 30.546875 22.4375 
C 36.046875 21.171875 38.640625 18.53125 38.640625 14.765625 
C 38.640625 10.078125 33.671875 6.25 25.859375 6.25 
C 19 6.25 14.703125 9.203125 13.21875 15.0625 
L 5.25 13.0625 
C 7.203125 3.796875 14.84375 -1.140625 26 -1.140625 
C 38.671875 -1.140625 47.296875 5.78125 47.296875 15.203125 
C 47.296875 22.796875 42.546875 27.59375 32.8125 29.96875 
L 24.71875 31.953125 
C 18.25 33.5625 15.34375 35.71875 15.34375 39.921875 
C 15.34375 44.609375 20.3125 48.015625 26.984375 48.015625 
C 34.3125 48.015625 37.328125 43.96875 38.78125 40.203125 
z
" id="Inter-Regular-115"/>
       <path id="Inter-Regular-32"/>
       <path d="M 33.375 76.140625 
L 25.71875 76.140625 
L 2.28125 -10.9375 
L 9.9375 -10.9375 
z
" id="Inter-Regular-47"/>
       <path d="M 7.671875 0 
L 16.046875 0 
L 16.046875 34.09375 
C 16.046875 42.078125 21.875 47.734375 28.40625 47.734375 
C 34.765625 47.734375 39.203125 43.578125 39.203125 37.359375 
L 39.203125 0 
L 47.734375 0 
L 47.734375 35.515625 
C 47.734375 42.546875 52.125 47.734375 59.796875 47.734375 
C 65.765625 47.734375 70.875 44.5625 70.875 36.5 
L 70.875 0 
L 79.265625 0 
L 79.265625 36.5 
C 79.265625 49.328125 72.375 55.25 62.640625 55.25 
C 54.828125 55.25 49.109375 51.671875 46.3125 46.015625 
L 45.734375 46.015625 
C 43.046875 51.84375 38.28125 55.25 31.109375 55.25 
C 24 55.25 18.75 51.84375 16.484375 46.015625 
L 15.765625 46.015625 
L 15.765625 54.546875 
L 7.671875 54.546875 
z
" id="Inter-Regular-109"/>
      </defs>
      <use xlink:href="#Inter-Regular-115"/>
      <use x="52.272736" xlink:href="#Inter-Regular-32"/>
      <use x="80.397736" xlink:href="#Inter-Regular-47"/>
      <use x="116.051147" xlink:href="#Inter-Regular-32"/>
      <use x="144.176147" xlink:href="#Inter-Regular-109"/>
     </g>
    </g>
   </g>
   <g id="matplotlib.axis_2">
    <g id="ytick_1">
     <g id="line2d_19">
      <path clip-path="url(#p54c80280a8)" d="M 62.388 235.757585 
L 709.2 235.757585 
" style="fill:none;stroke:#e5e7eb;stroke-dasharray:3.7,1.6;stroke-dashoffset:0;"/>
     </g>
     <g id="line2d_20">
      <defs>
       <path d="M 0 0 
L -3.5 0 
" id="m66b07e5d23" style="stroke:#000000;stroke-width:0.8;"/>
      </defs>
      <g>
       <use style="stroke:#000000;stroke-width:0.8;" x="62.388" xlink:href="#m66b07e5d23" y="235.757585"/>
      </g>
     </g>
     <g id="text_11">
      <!-- 0 -->
      <g transform="translate(49.138 239.394304)scale(0.1 -0.1)">
       <use xlink:href="#Inter-Regular-48"/>
      </g>
     </g>
    </g>
    <g id="ytick_2">
     <g id="line2d_21">
      <path clip-path="url(#p54c80280a8)" d="M 62.388 210.46459 
L 709.2 210.46459 
" style="fill:none;stroke:#e5e7eb;stroke-dasharray:3.7,1.6;stroke-dashoffset:0;"/>
     </g>
     <g id="line2d_22">
      <g>
       <use style="stroke:#000000;stroke-width:0.8;" x="62.388" xlink:href="#m66b07e5d23" y="210.46459"/>
      </g>
     </g>
     <g id="text_12">
      <!-- 2 -->
      <g transform="translate(49.336437 214.101309)scale(0.1 -0.1)">
       <use xlink:href="#Inter-Regular-50"/>
      </g>
     </g>
    </g>
    <g id="ytick_3">
     <g id="line2d_23">
      <path clip-path="url(#p54c80280a8)" d="M 62.388 185.171595 
L 709.2 185.171595 
" style="fill:none;stroke:#e5e7eb;stroke-dasharray:3.7,1.6;stroke-dashoffset:0;"/>
     </g>
     <g id="line2d_24">
      <g>
       <use style="stroke:#000000;stroke-width:0.8;" x="62.388" xlink:href="#m66b07e5d23" y="185.171595"/>
      </g>
     </g>
     <g id="text_13">
      <!-- 4 -->
      <g transform="translate(48.967687 188.808314)scale(0.1 -0.1)">
       <use xlink:href="#Inter-Regular-52"/>
      </g>
     </g>
    </g>
    <g id="ytick_4">
     <g id="line2d_25">
      <path clip-path="url(#p54c80280a8)" d="M 62.388 159.8786 
L 709.2 159.8786 
" style="fill:none;stroke:#e5e7eb;stroke-dasharray:3.7,1.6;stroke-dashoffset:0;"/>
     </g>
     <g id="line2d_26">
      <g>
       <use style="stroke:#000000;stroke-width:0.8;" x="62.388" xlink:href="#m66b07e5d23" y="159.8786"/>
      </g>
     </g>
     <g id="text_14">
      <!-- 6 -->
      <g transform="translate(49.152062 163.515319)scale(0.1 -0.1)">
       <use xlink:href="#Inter-Regular-54"/>
      </g>
     </g>
    </g>
    <g id="ytick_5">
     <g id="line2d_27">
      <path clip-path="url(#p54c80280a8)" d="M 62.388 134.585605 
L 709.2 134.585605 
" style="fill:none;stroke:#e5e7eb;stroke-dasharray:3.7,1.6;stroke-dashoffset:0;"/>
     </g>
     <g id="line2d_28">
      <g>
       <use style="stroke:#000000;stroke-width:0.8;" x="62.388" xlink:href="#m66b07e5d23" y="134.585605"/>
      </g>
     </g>
     <g id="text_15">
      <!-- 8 -->
      <g transform="translate(49.222375 138.222324)scale(0.1 -0.1)">
       <use xlink:href="#Inter-Regular-56"/>
      </g>
     </g>
    </g>
    <g id="ytick_6">
     <g id="line2d_29">
      <path clip-path="url(#p54c80280a8)" d="M 62.388 109.29261 
L 709.2 109.29261 
" style="fill:none;stroke:#e5e7eb;stroke-dasharray:3.7,1.6;stroke-dashoffset:0;"/>
     </g>
     <g id="line2d_30">
      <g>
       <use style="stroke:#000000;stroke-width:0.8;" x="62.388" xlink:href="#m66b07e5d23" y="109.29261"/>
      </g>
     </g>
     <g id="text_16">
      <!-- 10 -->
      <g transform="translate(44.492687 112.929329)scale(0.1 -0.1)">
       <use xlink:href="#Inter-Regular-49"/>
       <use x="46.448868" xlink:href="#Inter-Regular-48"/>
      </g>
     </g>
    </g>
    <g id="ytick_7">
     <g id="line2d_31">
      <path clip-path="url(#p54c80280a8)" d="M 62.388 83.999615 
L 709.2 83.999615 
" style="fill:none;stroke:#e5e7eb;stroke-dasharray:3.7,1.6;stroke-dashoffset:0;"/>
     </g>
     <g id="line2d_32">
      <g>
       <use style="stroke:#000000;stroke-width:0.8;" x="62.388" xlink:href="#m66b07e5d23" y="83.999615"/>
      </g>
     </g>
     <g id="text_17">
      <!-- 12 -->
      <g transform="translate(44.691125 87.636334)scale(0.1 -0.1)">
       <use xlink:href="#Inter-Regular-49"/>
       <use x="46.448868" xlink:href="#Inter-Regular-50"/>
      </g>
     </g>
    </g>
    <g id="ytick_8">
     <g id="line2d_33">
      <path clip-path="url(#p54c80280a8)" d="M 62.388 58.70662 
L 709.2 58.70662 
" style="fill:none;stroke:#e5e7eb;stroke-dasharray:3.7,1.6;stroke-dashoffset:0;"/>
     </g>
     <g id="line2d_34">
      <g>
       <use style="stroke:#000000;stroke-width:0.8;" x="62.388" xlink:href="#m66b07e5d23" y="58.70662"/>
      </g>
     </g>
     <g id="text_18">
      <!-- 14 -->
      <g transform="translate(44.322375 62.343339)scale(0.1 -0.1)">
       <use xlink:href="#Inter-Regular-49"/>
       <use x="46.448868" xlink:href="#Inter-Regular-52"/>
      </g>
     </g>
    </g>
    <g id="ytick_9">
     <g id="line2d_35">
      <path clip-path="url(#p54c80280a8)" d="M 62.388 33.413625 
L 709.2 33.413625 
" style="fill:none;stroke:#e5e7eb;stroke-dasharray:3.7,1.6;stroke-dashoffset:0;"/>
     </g>
     <g id="line2d_36">
      <g>
       <use style="stroke:#000000;stroke-width:0.8;" x="62.388" xlink:href="#m66b07e5d23" y="33.413625"/>
      </g>
     </g>
     <g id="text_19">
      <!-- 16 -->
      <g transform="translate(44.50675 37.050344)scale(0.1 -0.1)">
       <use xlink:href="#Inter-Regular-49"/>
       <use x="46.448868" xlink:href="#Inter-Regular-54"/>
      </g>
     </g>
    </g>
   </g>
   <g id="line2d_37">
    <path clip-path="url(#p54c80280a8)" d="M 91.788545 213.651188 
L 96.199796 213.546169 
L 100.611047 213.231113 
L 105.022298 212.70602 
L 109.433549 211.97089 
L 113.844799 211.025722 
L 118.25605 209.870517 
L 122.667301 208.505275 
L 127.078552 206.929995 
L 131.489803 205.144678 
L 135.901053 203.149324 
L 140.312304 200.943933 
L 144.723555 198.528504 
L 149.134806 195.903038 
L 153.546057 193.067535 
L 159.06012 189.227791 
L 164.574184 185.059864 
L 170.088247 180.563754 
L 175.602311 175.73946 
L 181.116374 170.586984 
L 183.322 168.434102 
L 186.617204 158.705893 
L 189.058096 145.767032 
L 192.231256 127.420405 
L 194.428059 113.708296 
L 196.868951 97.502852 
L 205.656162 129.516003 
L 208.097054 157.670719 
L 209.317501 170.120053 
L 212.612705 194.816573 
L 215.053597 207.335841 
L 217.2504 216.61959 
L 219.203114 223.294218 
L 220.42356 226.711864 
L 221.644006 229.549512 
L 222.864452 231.807163 
L 223.917086 233.287906 
L 224.969721 234.337633 
L 226.022356 234.956223 
L 227.074991 235.143606 
L 228.127625 234.89976 
L 229.18026 234.224714 
L 230.232895 233.118544 
L 231.285529 231.581377 
L 232.505976 229.258261 
L 233.726422 226.355148 
L 234.946868 222.872037 
L 239.706607 198.888162 
L 240.927053 188.997131 
L 242.147499 177.923593 
L 244.344302 155.011309 
L 246.297016 131.428416 
L 248.737908 97.692776 
L 249.958354 79.051196 
L 255.816495 34.138545 
L 262.406904 46.986949 
L 269.119357 59.58387 
L 271.560249 64.042117 
L 275.953855 97.606507 
L 278.394747 126.699383 
L 280.59155 149.935512 
L 282.544264 168.24567 
L 284.985156 188.03078 
L 286.205602 196.63059 
L 289.500806 213.170887 
L 290.721252 217.392266 
L 291.941698 221.159887 
L 293.162144 224.473749 
L 294.214779 226.963422 
L 295.267414 229.117045 
L 296.320049 230.934383 
L 297.372683 232.415239 
L 298.425318 233.559452 
L 299.477953 234.366898 
L 300.530588 234.837488 
L 301.583222 234.971171 
L 302.635857 234.767933 
L 303.688492 234.227797 
L 304.741126 233.35082 
L 305.793761 232.137097 
L 306.846396 230.586762 
L 307.899031 228.699983 
L 308.951665 226.476965 
L 310.0043 223.917949 
L 311.224746 220.523443 
L 312.445192 216.675178 
L 313.665638 212.373154 
L 316.960843 195.527913 
L 318.181289 186.772371 
L 320.622181 166.653225 
L 322.574894 148.054171 
L 324.771697 124.470012 
L 327.212589 94.961848 
L 332.338463 59.647424 
L 344.787013 59.942181 
L 355.038759 60.026927 
L 360.164633 95.412598 
L 362.605525 124.898531 
L 364.802328 148.456697 
L 366.755042 167.027888 
L 369.195934 187.105904 
L 370.41638 195.838257 
L 373.711584 212.636742 
L 374.93203 216.925712 
L 376.152476 220.75802 
L 377.372922 224.133665 
L 378.425557 226.674167 
L 379.478192 228.876494 
L 380.530826 230.740406 
L 381.583461 232.265702 
L 382.636096 233.452216 
L 383.688731 234.299818 
L 384.741365 234.808416 
L 385.794 234.977954 
L 386.846635 234.808416 
L 387.899269 234.299818 
L 388.951904 233.452216 
L 390.004539 232.265702 
L 391.057174 230.740406 
L 392.109808 228.876494 
L 393.162443 226.674167 
L 394.215078 224.133665 
L 395.435524 220.75802 
L 396.65597 216.925712 
L 397.876416 212.636742 
L 401.17162 195.838257 
L 402.392066 187.105904 
L 404.832958 167.027888 
L 406.785672 148.456697 
L 408.982475 124.898531 
L 411.423367 95.412598 
L 416.549241 60.026927 
L 428.99779 59.905455 
L 439.249537 59.647424 
L 444.375411 94.961848 
L 446.816303 124.470012 
L 449.013106 148.054171 
L 450.965819 166.653225 
L 453.406711 186.772371 
L 454.627157 195.527913 
L 457.922362 212.373154 
L 459.142808 216.675178 
L 460.363254 220.523443 
L 461.5837 223.917949 
L 462.636335 226.476965 
L 463.688969 228.699983 
L 464.741604 230.586762 
L 465.794239 232.137097 
L 466.846874 233.35082 
L 467.899508 234.227797 
L 468.952143 234.767933 
L 470.004778 234.971171 
L 471.057412 234.837488 
L 472.110047 234.366898 
L 473.162682 233.559452 
L 474.215317 232.415239 
L 475.267951 230.934383 
L 476.320586 229.117045 
L 477.373221 226.963422 
L 478.425856 224.473749 
L 479.646302 221.159887 
L 480.866748 217.392266 
L 482.087194 213.170887 
L 485.382398 196.63059 
L 486.602844 188.03078 
L 489.043736 168.24567 
L 490.99645 149.935512 
L 493.193253 126.699383 
L 495.634145 97.606507 
L 500.027751 64.042117 
L 506.740204 51.624796 
L 513.940836 37.755304 
L 515.771505 34.138545 
L 521.629646 79.051196 
L 524.070538 115.151849 
L 526.267341 143.598265 
L 528.220055 165.667549 
L 529.440501 177.923593 
L 530.660947 188.997131 
L 531.881393 198.888162 
L 536.641132 222.872037 
L 537.861578 226.355148 
L 539.082024 229.258261 
L 540.302471 231.581377 
L 541.355105 233.118544 
L 542.40774 234.224714 
L 543.460375 234.89976 
L 544.513009 235.143606 
L 545.565644 234.956223 
L 546.618279 234.337633 
L 547.670914 233.287906 
L 548.723548 231.807163 
L 549.943994 229.549512 
L 551.16444 226.711864 
L 552.384886 223.294218 
L 554.3376 216.61959 
L 555.313957 212.725478 
L 556.534403 207.335841 
L 557.754849 201.366206 
L 558.975295 194.816573 
L 562.270499 170.120053 
L 564.711392 144.136036 
L 565.931838 129.516003 
L 574.719049 97.502852 
L 577.159941 113.708296 
L 580.333101 133.249267 
L 582.529904 145.767032 
L 584.970796 158.705893 
L 588.266 168.434102 
L 593.780064 173.717852 
L 599.294127 178.673419 
L 604.808191 183.300802 
L 610.322254 187.600003 
L 615.836318 191.57102 
L 621.350381 195.213854 
L 625.761632 197.891829 
L 630.172883 200.359767 
L 634.584134 202.617667 
L 638.995385 204.665531 
L 643.406635 206.503357 
L 647.817886 208.131146 
L 652.229137 209.548897 
L 656.640388 210.756612 
L 661.051639 211.754289 
L 665.462889 212.541928 
L 669.87414 213.119531 
L 674.285391 213.487096 
L 678.696642 213.644624 
L 679.799455 213.651188 
L 679.799455 213.651188 
" style="fill:none;stroke:#ef4444;stroke-linecap:square;stroke-width:1.5;"/>
   </g>
   <g id="line2d_38">
    <path clip-path="url(#p54c80280a8)" d="M 91.788545 216.469583 
L 96.199796 216.349219 
L 100.611047 215.988127 
L 105.022298 215.386306 
L 109.433549 214.543757 
L 113.844799 213.46048 
L 118.25605 212.136474 
L 122.667301 210.571741 
L 127.078552 208.766279 
L 131.489803 206.720088 
L 135.901053 204.43317 
L 140.312304 201.905523 
L 144.723555 199.137148 
L 149.134806 196.128044 
L 153.546057 192.878213 
L 157.957307 189.387653 
L 162.368558 185.656364 
L 166.779809 181.684348 
L 172.293873 176.380803 
L 177.807936 170.70112 
L 183.322 164.6453 
L 186.617204 167.251041 
L 190.278542 176.642396 
L 193.207613 183.621029 
L 196.868951 191.676257 
L 205.656162 180.012993 
L 208.097054 166.250247 
L 209.317501 158.79149 
L 212.612705 143.375954 
L 216.274043 132.616145 
L 220.42356 119.665727 
L 224.969721 104.613439 
L 229.18026 89.884339 
L 233.726422 73.150367 
L 234.946868 68.517492 
L 239.706607 82.036993 
L 242.147499 103.527921 
L 245.320659 129.033112 
L 247.517462 145.079391 
L 249.958354 161.362528 
L 255.816495 176.612635 
L 260.942369 173.327931 
L 266.983577 169.210659 
L 271.560249 165.917614 
L 275.953855 150.211136 
L 278.394747 132.803873 
L 281.567907 107.743435 
L 283.76471 88.784078 
L 286.205602 66.173345 
L 289.500806 49.773876 
L 294.214779 49.572019 
L 307.899031 49.642765 
L 311.224746 49.71761 
L 313.665638 49.88236 
L 316.960843 66.300085 
L 319.401735 88.914299 
L 322.574894 115.879056 
L 324.771697 132.935336 
L 327.212589 150.340246 
L 332.338463 166.70052 
L 340.271362 166.917745 
L 348.326306 166.91951 
L 355.038759 166.753527 
L 360.164633 150.433133 
L 362.605525 133.059469 
L 365.778685 108.045841 
L 367.975488 89.120963 
L 370.41638 66.55053 
L 373.711584 50.172529 
L 378.425557 49.950181 
L 392.109808 49.959431 
L 395.435524 50.019111 
L 397.876416 50.172529 
L 401.17162 66.55053 
L 403.612512 89.120963 
L 406.785672 116.03466 
L 408.982475 133.059469 
L 411.423367 150.433133 
L 416.549241 166.753527 
L 424.48214 166.933704 
L 432.537084 166.89785 
L 439.249537 166.70052 
L 444.375411 150.340246 
L 446.816303 132.935336 
L 449.989462 107.875231 
L 452.186265 88.914299 
L 454.627157 66.300085 
L 457.922362 49.88236 
L 462.636335 49.638263 
L 476.320586 49.585984 
L 479.646302 49.630971 
L 482.087194 49.773876 
L 485.382398 66.173345 
L 487.82329 88.784078 
L 490.99645 115.747034 
L 493.193253 132.803873 
L 495.634145 150.211136 
L 500.027751 165.917614 
L 506.740204 170.696456 
L 513.025501 174.876845 
L 515.771505 176.612635 
L 521.629646 161.362528 
L 524.070538 145.079391 
L 526.267341 129.033112 
L 528.220055 113.663097 
L 530.660947 92.985887 
L 531.881393 82.036993 
L 536.641132 68.517492 
L 541.355105 86.074831 
L 545.565644 101.007503 
L 549.943994 115.70392 
L 554.3376 129.64125 
L 557.754849 139.858834 
L 558.975295 143.375954 
L 562.270499 158.79149 
L 564.711392 173.324081 
L 565.931838 180.012993 
L 574.719049 191.676257 
L 578.380387 183.621029 
L 581.309458 176.642396 
L 584.970796 167.251041 
L 588.266 164.6453 
L 593.780064 170.70112 
L 599.294127 176.380803 
L 604.808191 181.684348 
L 610.322254 186.611755 
L 614.733505 190.282861 
L 619.144756 193.713239 
L 623.556007 196.902888 
L 627.967258 199.85181 
L 632.378508 202.560003 
L 636.789759 205.027468 
L 641.20101 207.254204 
L 645.612261 209.240212 
L 650.023512 210.985492 
L 654.434762 212.490044 
L 658.846013 213.753867 
L 663.257264 214.776963 
L 667.668515 215.559329 
L 672.079766 216.100968 
L 676.491016 216.401878 
L 679.799455 216.469583 
L 679.799455 216.469583 
" style="fill:none;stroke:#1d4ed8;stroke-linecap:square;stroke-width:1.5;"/>
   </g>
   <g id="line2d_39">
    <path clip-path="url(#p54c80280a8)" d="M 91.788545 235.902059 
L 219.203114 235.799748 
L 223.917086 235.665498 
L 224.969721 235.366265 
L 226.022356 234.873102 
L 227.074991 234.186023 
L 228.127625 233.305047 
L 229.18026 232.2302 
L 230.232895 230.961512 
L 232.505976 227.690214 
L 234.946868 224.072604 
L 239.706607 215.657406 
L 249.958354 194.025988 
L 255.816495 188.359654 
L 267.898911 191.178876 
L 271.560249 192.451399 
L 275.953855 197.423929 
L 286.205602 216.749484 
L 289.500806 222.193695 
L 294.214779 228.903952 
L 295.267414 230.138027 
L 296.320049 231.182677 
L 297.372683 232.037873 
L 298.425318 232.703592 
L 299.477953 233.179816 
L 300.530588 233.466531 
L 301.583222 233.563731 
L 302.635857 233.471412 
L 303.688492 233.189576 
L 304.741126 232.718233 
L 305.793761 232.057393 
L 306.846396 231.207076 
L 307.899031 230.167304 
L 308.951665 228.938106 
L 311.224746 225.762916 
L 313.665638 222.249715 
L 316.960843 216.823563 
L 327.212589 197.563643 
L 332.338463 192.340286 
L 336.915136 191.808239 
L 340.271362 191.783958 
L 350.462087 191.824098 
L 353.818313 192.214601 
L 355.038759 192.366861 
L 360.164633 197.598964 
L 370.41638 216.869232 
L 373.711584 222.300829 
L 378.425557 229.000169 
L 379.478192 230.23182 
L 380.530826 231.274042 
L 381.583461 232.126809 
L 382.636096 232.790095 
L 383.688731 233.263884 
L 384.741365 233.548163 
L 385.794 233.642923 
L 386.846635 233.548163 
L 387.899269 233.263884 
L 388.951904 232.790095 
L 390.004539 232.126809 
L 391.057174 231.274042 
L 392.109808 230.23182 
L 393.162443 229.000169 
L 395.435524 225.819692 
L 397.876416 222.300829 
L 401.17162 216.869232 
L 411.423367 197.598964 
L 416.549241 192.366861 
L 421.125913 191.824098 
L 424.48214 191.791959 
L 434.672864 191.808239 
L 438.029091 192.190884 
L 439.249537 192.340286 
L 444.375411 197.563643 
L 454.627157 216.823563 
L 457.922362 222.249715 
L 462.636335 228.938106 
L 463.688969 230.167304 
L 464.741604 231.207076 
L 465.794239 232.057393 
L 466.846874 232.718233 
L 467.899508 233.189576 
L 468.952143 233.471412 
L 470.004778 233.563731 
L 471.057412 233.466531 
L 472.110047 233.179816 
L 473.162682 232.703592 
L 474.215317 232.037873 
L 475.267951 231.182677 
L 476.320586 230.138027 
L 477.373221 228.903952 
L 479.646302 225.718221 
L 482.087194 222.193695 
L 485.382398 216.749484 
L 495.634145 197.423929 
L 500.027751 192.451399 
L 505.519758 190.655739 
L 515.771505 188.359654 
L 521.629646 194.025988 
L 531.881393 215.657406 
L 536.641132 224.072604 
L 541.355105 230.961512 
L 542.40774 232.2302 
L 543.460375 233.305047 
L 544.513009 234.186023 
L 545.565644 234.873102 
L 546.618279 235.366265 
L 547.670914 235.665498 
L 548.723548 235.770792 
L 581.309458 235.923178 
L 613.630693 235.902059 
L 679.799455 235.902059 
L 679.799455 235.902059 
" style="fill:none;stroke:#10b981;stroke-linecap:square;stroke-width:1.5;"/>
   </g>
   <g id="patch_3">
    <path d="M 62.388 246.04 
L 62.388 24.048 
" style="fill:none;stroke:#000000;stroke-linecap:square;stroke-linejoin:miter;stroke-width:0.8;"/>
   </g>
   <g id="patch_4">
    <path d="M 709.2 246.04 
L 709.2 24.048 
" style="fill:none;stroke:#000000;stroke-linecap:square;stroke-linejoin:miter;stroke-width:0.8;"/>
   </g>
   <g id="patch_5">
    <path d="M 62.388 246.04 
L 709.2 246.04 
" style="fill:none;stroke:#000000;stroke-linecap:square;stroke-linejoin:miter;stroke-width:0.8;"/>
   </g>
   <g id="patch_6">
    <path d="M 62.388 24.048 
L 709.2 24.048 
" style="fill:none;stroke:#000000;stroke-linecap:square;stroke-linejoin:miter;stroke-width:0.8;"/>
   </g>
   <g id="text_20">
    <!--        $\eta_x / 1\mathrm{cm}$ -->
    <g style="fill:#008000;" transform="translate(13.94304 174.7912)rotate(-90)scale(0.1 -0.1)">
     <defs>
      <path d="M 57.859375 33.015625 
L 47.40625 -20.796875 
L 38.421875 -20.796875 
L 48.828125 32.71875 
Q 50.34375 40.484375 48.046875 44.34375 
Q 45.796875 48.1875 39.75 48.1875 
Q 32.46875 48.1875 27.34375 43.5625 
Q 22.265625 38.921875 20.703125 30.90625 
L 14.703125 0 
L 5.671875 0 
L 16.3125 54.6875 
L 25.34375 54.6875 
L 23.6875 46.1875 
Q 27.828125 51.125 32.71875 53.5625 
Q 37.546875 56 43.265625 56 
Q 52.6875 56 56.390625 50.203125 
Q 60.0625 44.34375 57.859375 33.015625 
z
" id="DejaVuSans-Oblique-951"/>
      <path d="M 60.015625 54.6875 
L 34.90625 27.875 
L 50.296875 0 
L 39.984375 0 
L 28.421875 21.6875 
L 8.296875 0 
L -2.59375 0 
L 24.3125 28.8125 
L 10.015625 54.6875 
L 20.3125 54.6875 
L 30.8125 34.90625 
L 49.125 54.6875 
z
" id="DejaVuSans-Oblique-120"/>
      <path d="M 25.390625 72.90625 
L 33.6875 72.90625 
L 8.296875 -9.28125 
L 0 -9.28125 
z
" id="DejaVuSans-47"/>
      <path d="M 12.40625 8.296875 
L 28.515625 8.296875 
L 28.515625 63.921875 
L 10.984375 60.40625 
L 10.984375 69.390625 
L 28.421875 72.90625 
L 38.28125 72.90625 
L 38.28125 8.296875 
L 54.390625 8.296875 
L 54.390625 0 
L 12.40625 0 
z
" id="DejaVuSans-49"/>
      <path d="M 48.78125 52.59375 
L 48.78125 44.1875 
Q 44.96875 46.296875 41.140625 47.34375 
Q 37.3125 48.390625 33.40625 48.390625 
Q 24.65625 48.390625 19.8125 42.84375 
Q 14.984375 37.3125 14.984375 27.296875 
Q 14.984375 17.28125 19.8125 11.734375 
Q 24.65625 6.203125 33.40625 6.203125 
Q 37.3125 6.203125 41.140625 7.25 
Q 44.96875 8.296875 48.78125 10.40625 
L 48.78125 2.09375 
Q 45.015625 0.34375 40.984375 -0.53125 
Q 36.96875 -1.421875 32.421875 -1.421875 
Q 20.0625 -1.421875 12.78125 6.34375 
Q 5.515625 14.109375 5.515625 27.296875 
Q 5.515625 40.671875 12.859375 48.328125 
Q 20.21875 56 33.015625 56 
Q 37.15625 56 41.109375 55.140625 
Q 45.0625 54.296875 48.78125 52.59375 
z
" id="DejaVuSans-99"/>
      <path d="M 52 44.1875 
Q 55.375 50.25 60.0625 53.125 
Q 64.75 56 71.09375 56 
Q 79.640625 56 84.28125 50.015625 
Q 88.921875 44.046875 88.921875 33.015625 
L 88.921875 0 
L 79.890625 0 
L 79.890625 32.71875 
Q 79.890625 40.578125 77.09375 44.375 
Q 74.3125 48.1875 68.609375 48.1875 
Q 61.625 48.1875 57.5625 43.546875 
Q 53.515625 38.921875 53.515625 30.90625 
L 53.515625 0 
L 44.484375 0 
L 44.484375 32.71875 
Q 44.484375 40.625 41.703125 44.40625 
Q 38.921875 48.1875 33.109375 48.1875 
Q 26.21875 48.1875 22.15625 43.53125 
Q 18.109375 38.875 18.109375 30.90625 
L 18.109375 0 
L 9.078125 0 
L 9.078125 54.6875 
L 18.109375 54.6875 
L 18.109375 46.1875 
Q 21.1875 51.21875 25.484375 53.609375 
Q 29.78125 56 35.6875 56 
Q 41.65625 56 45.828125 52.96875 
Q 50 49.953125 52 44.1875 
z
" id="DejaVuSans-109"/>
     </defs>
     <use transform="translate(0 0.09375)" xlink:href="#Inter-Regular-32"/>
     <use transform="translate(28.125 0.09375)" xlink:href="#Inter-Regular-32"/>
     <use transform="translate(56.25 0.09375)" xlink:href="#Inter-Regular-32"/>
     <use transform="translate(84.375 0.09375)" xlink:href="#Inter-Regular-32"/>
     <use transform="translate(112.5 0.09375)" xlink:href="#Inter-Regular-32"/>
     <use transform="translate(140.625 0.09375)" xlink:href="#Inter-Regular-32"/>
     <use transform="translate(168.75 0.09375)" xlink:href="#Inter-Regular-32"/>
     <use transform="translate(196.875 0.09375)" xlink:href="#DejaVuSans-Oblique-951"/>
     <use transform="translate(260.253906 -16.3125)scale(0.7)" xlink:href="#DejaVuSans-Oblique-120"/>
     <use transform="translate(304.414062 0.09375)" xlink:href="#DejaVuSans-47"/>
     <use transform="translate(338.105469 0.09375)" xlink:href="#DejaVuSans-49"/>
     <use transform="translate(401.728516 0.09375)" xlink:href="#DejaVuSans-99"/>
     <use transform="translate(456.708984 0.09375)" xlink:href="#DejaVuSans-109"/>
    </g>
   </g>
   <g id="text_21">
    <!--   $\beta_y / \mathrm{m}$ -->
    <g style="fill:#0000ff;" transform="translate(12.94304 195.4412)rotate(-90)scale(0.1 -0.1)">
     <defs>
      <path d="M 13.625 3.375 
L 8.9375 -20.796875 
L -0.09375 -20.796875 
L 14.5 54.34375 
Q 18.84375 76.609375 39.65625 76.609375 
Q 60.75 76.609375 57.171875 57.8125 
Q 54.734375 44.4375 45.21875 39.546875 
Q 58.015625 35.15625 55.515625 22.125 
Q 51.125 -1.078125 27.484375 -1.03125 
Q 17.140625 -0.984375 13.625 3.375 
z
M 15.921875 15.09375 
Q 19.671875 6.59375 29.296875 6.640625 
Q 43.359375 6.640625 46.34375 21.96875 
Q 49.03125 35.75 26.171875 34.671875 
L 27.78125 42.96875 
Q 45.453125 42.671875 48.53125 58.59375 
Q 50.640625 69.34375 39.203125 69.28125 
Q 26.421875 69.28125 23.484375 54.046875 
z
" id="DejaVuSans-Oblique-946"/>
      <path d="M 24.8125 -5.078125 
Q 18.5625 -15.578125 14.625 -18.1875 
Q 10.6875 -20.796875 4.59375 -20.796875 
L -2.484375 -20.796875 
L -0.984375 -13.28125 
L 4.203125 -13.28125 
Q 7.953125 -13.28125 10.59375 -11.234375 
Q 13.234375 -9.1875 16.5 -3.21875 
L 19.28125 2 
L 7.171875 54.6875 
L 16.703125 54.6875 
L 25.78125 12.796875 
L 50.875 54.6875 
L 60.296875 54.6875 
z
" id="DejaVuSans-Oblique-121"/>
     </defs>
     <use transform="translate(0 0.390625)" xlink:href="#Inter-Regular-32"/>
     <use transform="translate(28.125 0.390625)" xlink:href="#Inter-Regular-32"/>
     <use transform="translate(56.25 0.390625)" xlink:href="#DejaVuSans-Oblique-946"/>
     <use transform="translate(120.068359 -16.015625)scale(0.7)" xlink:href="#DejaVuSans-Oblique-121"/>
     <use transform="translate(164.228516 0.390625)" xlink:href="#DejaVuSans-47"/>
     <use transform="translate(197.919922 0.390625)" xlink:href="#DejaVuSans-109"/>
    </g>
   </g>
   <g id="text_22">
    <!-- $\beta_x / \mathrm{m}$ -->
    <g style="fill:#ff0000;" transform="translate(13.94304 222.6412)rotate(-90)scale(0.1 -0.1)">
     <use transform="translate(0 0.390625)" xlink:href="#DejaVuSans-Oblique-946"/>
     <use transform="translate(63.818359 -16.015625)scale(0.7)" xlink:href="#DejaVuSans-Oblique-120"/>
     <use transform="translate(107.978516 0.390625)" xlink:href="#DejaVuSans-47"/>
     <use transform="translate(141.669922 0.390625)" xlink:href="#DejaVuSans-109"/>
    </g>
   </g>
   <g id="patch_7">
    <path d="M 183.322 29.5978 
L 186.617204 29.5978 
L 186.617204 18.4982 
L 183.322 18.4982 
z
" style="fill:#ef4444;"/>
   </g>
   <g id="patch_8">
    <path d="M 190.278542 29.5978 
L 193.207613 29.5978 
L 193.207613 18.4982 
L 190.278542 18.4982 
z
" style="fill:#10b981;"/>
   </g>
   <g id="patch_9">
    <path d="M 196.868951 29.5978 
L 205.656162 29.5978 
L 205.656162 18.4982 
L 196.868951 18.4982 
z
" style="fill:#ef4444;"/>
   </g>
   <g id="patch_10">
    <path d="M 209.317501 29.5978 
L 212.612705 29.5978 
L 212.612705 18.4982 
L 209.317501 18.4982 
z
" style="fill:#ef4444;"/>
   </g>
   <g id="patch_11">
    <path d="M 216.274043 29.5978 
L 219.203114 29.5978 
L 219.203114 18.4982 
L 216.274043 18.4982 
z
" style="fill:#10b981;"/>
   </g>
   <g id="patch_12">
    <path d="M 222.864452 29.5978 
L 231.285529 29.5978 
L 231.285529 18.4982 
L 222.864452 18.4982 
z
" style="fill:#fbbf24;"/>
   </g>
   <g id="patch_13">
    <path d="M 234.946868 29.5978 
L 239.706607 29.5978 
L 239.706607 18.4982 
L 234.946868 18.4982 
z
" style="fill:#ef4444;"/>
   </g>
   <g id="patch_14">
    <path d="M 243.367945 29.5978 
L 246.297016 29.5978 
L 246.297016 18.4982 
L 243.367945 18.4982 
z
" style="fill:#10b981;"/>
   </g>
   <g id="patch_15">
    <path d="M 249.958354 29.5978 
L 255.816495 29.5978 
L 255.816495 18.4982 
L 249.958354 18.4982 
z
" style="fill:#ef4444;"/>
   </g>
   <g id="patch_16">
    <path d="M 259.477833 29.5978 
L 262.406904 29.5978 
L 262.406904 18.4982 
L 259.477833 18.4982 
z
" style="fill:#10b981;"/>
   </g>
   <g id="patch_17">
    <path d="M 266.068242 29.5978 
L 267.898911 29.5978 
L 267.898911 18.4982 
L 266.068242 18.4982 
z
" style="fill:#fbbf24;"/>
   </g>
   <g id="patch_18">
    <path d="M 271.560249 29.5978 
L 275.953855 29.5978 
L 275.953855 18.4982 
L 271.560249 18.4982 
z
" style="fill:#ef4444;"/>
   </g>
   <g id="patch_19">
    <path d="M 279.615193 29.5978 
L 282.544264 29.5978 
L 282.544264 18.4982 
L 279.615193 18.4982 
z
" style="fill:#10b981;"/>
   </g>
   <g id="patch_20">
    <path d="M 286.205602 29.5978 
L 289.500806 29.5978 
L 289.500806 18.4982 
L 286.205602 18.4982 
z
" style="fill:#ef4444;"/>
   </g>
   <g id="patch_21">
    <path d="M 293.162144 29.5978 
L 310.0043 29.5978 
L 310.0043 18.4982 
L 293.162144 18.4982 
z
" style="fill:#fbbf24;"/>
   </g>
   <g id="patch_22">
    <path d="M 313.665638 29.5978 
L 316.960843 29.5978 
L 316.960843 18.4982 
L 313.665638 18.4982 
z
" style="fill:#ef4444;"/>
   </g>
   <g id="patch_23">
    <path d="M 320.622181 29.5978 
L 323.551251 29.5978 
L 323.551251 18.4982 
L 320.622181 18.4982 
z
" style="fill:#10b981;"/>
   </g>
   <g id="patch_24">
    <path d="M 327.212589 29.5978 
L 332.338463 29.5978 
L 332.338463 18.4982 
L 327.212589 18.4982 
z
" style="fill:#ef4444;"/>
   </g>
   <g id="patch_25">
    <path d="M 335.999801 29.5978 
L 337.83047 29.5978 
L 337.83047 18.4982 
L 335.999801 18.4982 
z
" style="fill:#fbbf24;"/>
   </g>
   <g id="patch_26">
    <path d="M 341.491808 29.5978 
L 345.885414 29.5978 
L 345.885414 18.4982 
L 341.491808 18.4982 
z
" style="fill:#10b981;"/>
   </g>
   <g id="patch_27">
    <path d="M 349.546752 29.5978 
L 351.377421 29.5978 
L 351.377421 18.4982 
L 349.546752 18.4982 
z
" style="fill:#fbbf24;"/>
   </g>
   <g id="patch_28">
    <path d="M 355.038759 29.5978 
L 360.164633 29.5978 
L 360.164633 18.4982 
L 355.038759 18.4982 
z
" style="fill:#ef4444;"/>
   </g>
   <g id="patch_29">
    <path d="M 363.825971 29.5978 
L 366.755042 29.5978 
L 366.755042 18.4982 
L 363.825971 18.4982 
z
" style="fill:#10b981;"/>
   </g>
   <g id="patch_30">
    <path d="M 370.41638 29.5978 
L 373.711584 29.5978 
L 373.711584 18.4982 
L 370.41638 18.4982 
z
" style="fill:#ef4444;"/>
   </g>
   <g id="patch_31">
    <path d="M 377.372922 29.5978 
L 394.215078 29.5978 
L 394.215078 18.4982 
L 377.372922 18.4982 
z
" style="fill:#fbbf24;"/>
   </g>
   <g id="patch_32">
    <path d="M 397.876416 29.5978 
L 401.17162 29.5978 
L 401.17162 18.4982 
L 397.876416 18.4982 
z
" style="fill:#ef4444;"/>
   </g>
   <g id="patch_33">
    <path d="M 404.832958 29.5978 
L 407.762029 29.5978 
L 407.762029 18.4982 
L 404.832958 18.4982 
z
" style="fill:#10b981;"/>
   </g>
   <g id="patch_34">
    <path d="M 411.423367 29.5978 
L 416.549241 29.5978 
L 416.549241 18.4982 
L 411.423367 18.4982 
z
" style="fill:#ef4444;"/>
   </g>
   <g id="patch_35">
    <path d="M 420.210579 29.5978 
L 422.041248 29.5978 
L 422.041248 18.4982 
L 420.210579 18.4982 
z
" style="fill:#fbbf24;"/>
   </g>
   <g id="patch_36">
    <path d="M 425.702586 29.5978 
L 430.096192 29.5978 
L 430.096192 18.4982 
L 425.702586 18.4982 
z
" style="fill:#10b981;"/>
   </g>
   <g id="patch_37">
    <path d="M 433.75753 29.5978 
L 435.588199 29.5978 
L 435.588199 18.4982 
L 433.75753 18.4982 
z
" style="fill:#fbbf24;"/>
   </g>
   <g id="patch_38">
    <path d="M 439.249537 29.5978 
L 444.375411 29.5978 
L 444.375411 18.4982 
L 439.249537 18.4982 
z
" style="fill:#ef4444;"/>
   </g>
   <g id="patch_39">
    <path d="M 448.036749 29.5978 
L 450.965819 29.5978 
L 450.965819 18.4982 
L 448.036749 18.4982 
z
" style="fill:#10b981;"/>
   </g>
   <g id="patch_40">
    <path d="M 454.627157 29.5978 
L 457.922362 29.5978 
L 457.922362 18.4982 
L 454.627157 18.4982 
z
" style="fill:#ef4444;"/>
   </g>
   <g id="patch_41">
    <path d="M 461.5837 29.5978 
L 478.425856 29.5978 
L 478.425856 18.4982 
L 461.5837 18.4982 
z
" style="fill:#fbbf24;"/>
   </g>
   <g id="patch_42">
    <path d="M 482.087194 29.5978 
L 485.382398 29.5978 
L 485.382398 18.4982 
L 482.087194 18.4982 
z
" style="fill:#ef4444;"/>
   </g>
   <g id="patch_43">
    <path d="M 489.043736 29.5978 
L 491.972807 29.5978 
L 491.972807 18.4982 
L 489.043736 18.4982 
z
" style="fill:#10b981;"/>
   </g>
   <g id="patch_44">
    <path d="M 495.634145 29.5978 
L 500.027751 29.5978 
L 500.027751 18.4982 
L 495.634145 18.4982 
z
" style="fill:#ef4444;"/>
   </g>
   <g id="patch_45">
    <path d="M 503.689089 29.5978 
L 505.519758 29.5978 
L 505.519758 18.4982 
L 503.689089 18.4982 
z
" style="fill:#fbbf24;"/>
   </g>
   <g id="patch_46">
    <path d="M 509.181096 29.5978 
L 512.110167 29.5978 
L 512.110167 18.4982 
L 509.181096 18.4982 
z
" style="fill:#10b981;"/>
   </g>
   <g id="patch_47">
    <path d="M 515.771505 29.5978 
L 521.629646 29.5978 
L 521.629646 18.4982 
L 515.771505 18.4982 
z
" style="fill:#ef4444;"/>
   </g>
   <g id="patch_48">
    <path d="M 525.290984 29.5978 
L 528.220055 29.5978 
L 528.220055 18.4982 
L 525.290984 18.4982 
z
" style="fill:#10b981;"/>
   </g>
   <g id="patch_49">
    <path d="M 531.881393 29.5978 
L 536.641132 29.5978 
L 536.641132 18.4982 
L 531.881393 18.4982 
z
" style="fill:#ef4444;"/>
   </g>
   <g id="patch_50">
    <path d="M 540.302471 29.5978 
L 548.723548 29.5978 
L 548.723548 18.4982 
L 540.302471 18.4982 
z
" style="fill:#fbbf24;"/>
   </g>
   <g id="patch_51">
    <path d="M 552.384886 29.5978 
L 555.313957 29.5978 
L 555.313957 18.4982 
L 552.384886 18.4982 
z
" style="fill:#10b981;"/>
   </g>
   <g id="patch_52">
    <path d="M 558.975295 29.5978 
L 562.270499 29.5978 
L 562.270499 18.4982 
L 558.975295 18.4982 
z
" style="fill:#ef4444;"/>
   </g>
   <g id="patch_53">
    <path d="M 565.931838 29.5978 
L 574.719049 29.5978 
L 574.719049 18.4982 
L 565.931838 18.4982 
z
" style="fill:#ef4444;"/>
   </g>
   <g id="patch_54">
    <path d="M 578.380387 29.5978 
L 581.309458 29.5978 
L 581.309458 18.4982 
L 578.380387 18.4982 
z
" style="fill:#10b981;"/>
   </g>
   <g id="patch_55">
    <path d="M 584.970796 29.5978 
L 588.266 29.5978 
L 588.266 18.4982 
L 584.970796 18.4982 
z
" style="fill:#ef4444;"/>
   </g>
   <g id="text_23">
    <!-- UQ3 -->
    <g transform="translate(179.621164 14.255431)scale(0.05 -0.05)">
     <defs>
      <path d="M 56.53125 72.734375 
L 56.53125 25.28125 
C 56.53125 14.625 49.21875 6.953125 37.078125 6.953125 
C 24.9375 6.953125 17.609375 14.625 17.609375 25.28125 
L 17.609375 72.734375 
L 8.8125 72.734375 
L 8.8125 24.578125 
C 8.8125 9.65625 19.953125 -1.28125 37.078125 -1.28125 
C 54.1875 -1.28125 65.34375 9.65625 65.34375 24.578125 
L 65.34375 72.734375 
z
" id="Inter-Regular-85"/>
      <path d="M 70.171875 36.359375 
C 70.171875 59.375 56.671875 73.71875 38.0625 73.71875 
C 19.46875 73.71875 5.96875 59.375 5.96875 36.359375 
C 5.96875 13.359375 19.46875 -1 38.0625 -1 
C 42.828125 -1 47.234375 -0.078125 51.171875 1.703125 
L 57.53125 -6.8125 
L 67.1875 -6.8125 
L 57.703125 5.78125 
C 65.453125 12.140625 70.171875 22.734375 70.171875 36.359375 
z
M 35.234375 22.734375 
L 45.984375 8.59375 
C 43.53125 7.703125 40.875 7.25 38.0625 7.25 
C 24.859375 7.25 14.484375 17.46875 14.484375 36.359375 
C 14.484375 55.25 24.859375 65.484375 38.0625 65.484375 
C 51.28125 65.484375 61.65625 55.25 61.65625 36.359375 
C 61.65625 25.390625 58.171875 17.359375 52.625 12.53125 
L 44.890625 22.734375 
z
" id="Inter-Regular-81"/>
      <path d="M 32.109375 -1 
C 46.203125 -1 56.671875 7.84375 56.671875 19.75 
C 56.671875 28.984375 51.203125 35.6875 42.046875 37.21875 
L 42.046875 37.78125 
C 49.390625 40.015625 53.984375 46.0625 53.984375 54.265625 
C 53.984375 64.5625 45.84375 73.71875 32.390625 73.71875 
C 19.8125 73.71875 9.375 65.984375 8.953125 54.546875 
L 17.46875 54.546875 
C 17.796875 61.796875 24.6875 66.046875 32.25 66.046875 
C 40.265625 66.046875 45.453125 61.1875 45.453125 53.828125 
C 45.453125 46.171875 39.453125 41.1875 30.828125 41.1875 
L 25 41.1875 
L 25 33.375 
L 30.828125 33.375 
C 41.875 33.375 48.015625 27.765625 48.015625 19.75 
C 48.015625 12.03125 41.296875 6.8125 31.96875 6.8125 
C 23.546875 6.8125 16.875 11.15625 16.34375 18.1875 
L 7.390625 18.1875 
C 7.921875 6.75 18 -1 32.109375 -1 
z
" id="Inter-Regular-51"/>
     </defs>
     <use xlink:href="#Inter-Regular-85"/>
     <use x="74.147751" xlink:href="#Inter-Regular-81"/>
     <use x="150.284134" xlink:href="#Inter-Regular-51"/>
    </g>
   </g>
   <g id="text_24">
    <!-- S5 -->
    <g transform="translate(188.628624 36.454631)scale(0.05 -0.05)">
     <defs>
      <path d="M 48.578125 54.546875 
L 57.109375 54.546875 
C 56.71875 65.515625 46.59375 73.71875 32.53125 73.71875 
C 18.609375 73.71875 7.671875 65.625 7.671875 53.40625 
C 7.671875 43.609375 14.78125 37.78125 26.140625 34.515625 
L 35.09375 31.953125 
C 42.75 29.828125 49.578125 27.125 49.578125 19.890625 
C 49.578125 11.9375 41.90625 6.671875 31.8125 6.671875 
C 23.15625 6.671875 15.484375 10.515625 14.78125 18.75 
L 5.6875 18.75 
C 6.53125 6.8125 16.1875 -1.28125 31.8125 -1.28125 
C 48.578125 -1.28125 58.09375 7.953125 58.09375 19.75 
C 58.09375 33.375 45.171875 37.78125 37.640625 39.765625 
L 30.25 41.765625 
C 24.859375 43.1875 16.1875 46.015625 16.1875 53.828125 
C 16.1875 60.796875 22.59375 65.90625 32.25 65.90625 
C 41.046875 65.90625 47.734375 61.71875 48.578125 54.546875 
z
" id="Inter-Regular-83"/>
      <path d="M 30.25 -1 
C 44.109375 -1 54.265625 9.234375 54.265625 23.15625 
C 54.265625 37.25 44.46875 47.578125 31.109375 47.578125 
C 26.203125 47.578125 21.453125 45.84375 18.46875 43.46875 
L 18.046875 43.46875 
L 20.59375 64.921875 
L 51 64.921875 
L 51 72.734375 
L 13.21875 72.734375 
L 8.8125 36.9375 
L 17.046875 35.9375 
C 20.0625 38.109375 25.21875 39.671875 29.6875 39.625 
C 38.953125 39.5625 45.734375 32.53125 45.734375 23.015625 
C 45.734375 13.671875 39.203125 6.8125 30.25 6.8125 
C 22.796875 6.8125 16.875 11.609375 16.1875 18.1875 
L 7.671875 18.1875 
C 8.203125 7.109375 17.75 -1 30.25 -1 
z
" id="Inter-Regular-53"/>
     </defs>
     <use xlink:href="#Inter-Regular-83"/>
     <use x="63.778427" xlink:href="#Inter-Regular-53"/>
    </g>
   </g>
   <g id="text_25">
    <!-- UQ2 -->
    <g transform="translate(195.992244 14.255431)scale(0.05 -0.05)">
     <use xlink:href="#Inter-Regular-85"/>
     <use x="74.147751" xlink:href="#Inter-Regular-81"/>
     <use x="150.284134" xlink:href="#Inter-Regular-50"/>
    </g>
   </g>
   <g id="text_26">
    <!-- UQ1 -->
    <g transform="translate(206.046353 14.255431)scale(0.05 -0.05)">
     <use xlink:href="#Inter-Regular-85"/>
     <use x="74.147751" xlink:href="#Inter-Regular-81"/>
     <use x="150.284134" xlink:href="#Inter-Regular-49"/>
    </g>
   </g>
   <g id="text_27">
    <!-- S3 -->
    <g transform="translate(214.553031 36.454631)scale(0.05 -0.05)">
     <use xlink:href="#Inter-Regular-83"/>
     <use x="63.778427" xlink:href="#Inter-Regular-51"/>
    </g>
   </g>
   <g id="text_28">
    <!-- MB0 -->
    <g transform="translate(221.662881 36.454631)scale(0.05 -0.05)">
     <defs>
      <path d="M 8.8125 72.734375 
L 8.8125 0 
L 17.046875 0 
L 17.046875 55.25 
L 17.75 55.25 
L 40.484375 0 
L 48.4375 0 
L 71.171875 55.25 
L 71.875 55.25 
L 71.875 0 
L 80.109375 0 
L 80.109375 72.734375 
L 69.609375 72.734375 
L 44.890625 12.359375 
L 44.03125 12.359375 
L 19.3125 72.734375 
z
" id="Inter-Regular-77"/>
      <path d="M 8.8125 0 
L 35.09375 0 
C 52.28125 0 59.375 8.375 59.375 19.3125 
C 59.375 30.828125 51.421875 37.078125 44.75 37.5 
L 44.75 38.203125 
C 51 39.921875 56.53125 44.03125 56.53125 53.40625 
C 56.53125 64.0625 49.4375 72.734375 34.234375 72.734375 
L 8.8125 72.734375 
z
M 17.609375 40.765625 
L 17.609375 64.921875 
L 34.234375 64.921875 
C 43.890625 64.921875 48.15625 59.796875 48.15625 53.40625 
C 48.15625 45.734375 41.90625 40.765625 33.953125 40.765625 
z
M 17.609375 7.8125 
L 17.609375 33.09375 
L 35.515625 33.09375 
C 45.03125 33.09375 51 26.703125 51 19.3125 
C 51 12.921875 46.59375 7.8125 35.09375 7.8125 
z
" id="Inter-Regular-66"/>
     </defs>
     <use xlink:href="#Inter-Regular-77"/>
     <use x="88.920471" xlink:href="#Inter-Regular-66"/>
     <use x="153.97731" xlink:href="#Inter-Regular-48"/>
    </g>
   </g>
   <g id="text_29">
    <!-- MQ1 -->
    <g transform="translate(232.038847 14.255431)scale(0.05 -0.05)">
     <use xlink:href="#Inter-Regular-77"/>
     <use x="88.920471" xlink:href="#Inter-Regular-81"/>
     <use x="165.056854" xlink:href="#Inter-Regular-49"/>
    </g>
   </g>
   <g id="text_30">
    <!-- S1A -->
    <g transform="translate(240.386387 36.454631)scale(0.05 -0.05)">
     <defs>
      <path d="M 11.796875 0 
L 19.109375 20.59375 
L 48.515625 20.59375 
L 55.828125 0 
L 65.0625 0 
L 38.359375 72.734375 
L 29.265625 72.734375 
L 2.5625 0 
z
M 33.53125 61.21875 
L 34.09375 61.21875 
L 45.734375 28.40625 
L 21.875 28.40625 
z
" id="Inter-Regular-65"/>
     </defs>
     <use xlink:href="#Inter-Regular-83"/>
     <use x="63.778427" xlink:href="#Inter-Regular-49"/>
     <use x="110.227295" xlink:href="#Inter-Regular-65"/>
    </g>
   </g>
   <g id="text_31">
    <!-- MQ2 -->
    <g transform="translate(247.247972 14.255431)scale(0.05 -0.05)">
     <use xlink:href="#Inter-Regular-77"/>
     <use x="88.920471" xlink:href="#Inter-Regular-81"/>
     <use x="165.056854" xlink:href="#Inter-Regular-50"/>
    </g>
   </g>
   <g id="text_32">
    <!-- S0A -->
    <g transform="translate(256.095103 36.454631)scale(0.05 -0.05)">
     <use xlink:href="#Inter-Regular-83"/>
     <use x="63.778427" xlink:href="#Inter-Regular-48"/>
     <use x="126.278442" xlink:href="#Inter-Regular-65"/>
    </g>
   </g>
   <g id="text_33">
    <!-- B1 -->
    <g transform="translate(264.195686 36.454631)scale(0.05 -0.05)">
     <use xlink:href="#Inter-Regular-66"/>
     <use x="65.056839" xlink:href="#Inter-Regular-49"/>
    </g>
   </g>
   <g id="text_34">
    <!-- Q1A -->
    <g transform="translate(269.001974 14.255431)scale(0.05 -0.05)">
     <use xlink:href="#Inter-Regular-81"/>
     <use x="76.136383" xlink:href="#Inter-Regular-49"/>
     <use x="122.585251" xlink:href="#Inter-Regular-65"/>
    </g>
   </g>
   <g id="text_35">
    <!-- S1 -->
    <g transform="translate(278.323869 36.454631)scale(0.05 -0.05)">
     <use xlink:href="#Inter-Regular-83"/>
     <use x="63.778427" xlink:href="#Inter-Regular-49"/>
    </g>
   </g>
   <g id="text_36">
    <!-- Q0 -->
    <g transform="translate(284.387188 14.255431)scale(0.05 -0.05)">
     <use xlink:href="#Inter-Regular-81"/>
     <use x="76.136383" xlink:href="#Inter-Regular-48"/>
    </g>
   </g>
   <g id="text_37">
    <!-- B0 -->
    <g transform="translate(298.39416 36.454631)scale(0.05 -0.05)">
     <use xlink:href="#Inter-Regular-66"/>
     <use x="65.056839" xlink:href="#Inter-Regular-48"/>
    </g>
   </g>
   <g id="text_38">
    <!-- Q0 -->
    <g transform="translate(311.847225 14.255431)scale(0.05 -0.05)">
     <use xlink:href="#Inter-Regular-81"/>
     <use x="76.136383" xlink:href="#Inter-Regular-48"/>
    </g>
   </g>
   <g id="text_39">
    <!-- S1 -->
    <g transform="translate(319.330857 36.454631)scale(0.05 -0.05)">
     <use xlink:href="#Inter-Regular-83"/>
     <use x="63.778427" xlink:href="#Inter-Regular-49"/>
    </g>
   </g>
   <g id="text_40">
    <!-- Q1 -->
    <g transform="translate(326.710682 14.255431)scale(0.05 -0.05)">
     <use xlink:href="#Inter-Regular-81"/>
     <use x="76.136383" xlink:href="#Inter-Regular-49"/>
    </g>
   </g>
   <g id="text_41">
    <!-- B1 -->
    <g transform="translate(334.127245 36.454631)scale(0.05 -0.05)">
     <use xlink:href="#Inter-Regular-66"/>
     <use x="65.056839" xlink:href="#Inter-Regular-49"/>
    </g>
   </g>
   <g id="text_42">
    <!-- S0 -->
    <g transform="translate(340.53158 36.454631)scale(0.05 -0.05)">
     <use xlink:href="#Inter-Regular-83"/>
     <use x="63.778427" xlink:href="#Inter-Regular-48"/>
    </g>
   </g>
   <g id="text_43">
    <!-- B1 -->
    <g transform="translate(347.674196 36.454631)scale(0.05 -0.05)">
     <use xlink:href="#Inter-Regular-66"/>
     <use x="65.056839" xlink:href="#Inter-Regular-49"/>
    </g>
   </g>
   <g id="text_44">
    <!-- Q1 -->
    <g transform="translate(354.536852 14.255431)scale(0.05 -0.05)">
     <use xlink:href="#Inter-Regular-81"/>
     <use x="76.136383" xlink:href="#Inter-Regular-49"/>
    </g>
   </g>
   <g id="text_45">
    <!-- S1 -->
    <g transform="translate(362.534647 36.454631)scale(0.05 -0.05)">
     <use xlink:href="#Inter-Regular-83"/>
     <use x="63.778427" xlink:href="#Inter-Regular-49"/>
    </g>
   </g>
   <g id="text_46">
    <!-- Q0 -->
    <g transform="translate(368.597966 14.255431)scale(0.05 -0.05)">
     <use xlink:href="#Inter-Regular-81"/>
     <use x="76.136383" xlink:href="#Inter-Regular-48"/>
    </g>
   </g>
   <g id="text_47">
    <!-- B0 -->
    <g transform="translate(382.604938 36.454631)scale(0.05 -0.05)">
     <use xlink:href="#Inter-Regular-66"/>
     <use x="65.056839" xlink:href="#Inter-Regular-48"/>
    </g>
   </g>
   <g id="text_48">
    <!-- Q0 -->
    <g transform="translate(396.058002 14.255431)scale(0.05 -0.05)">
     <use xlink:href="#Inter-Regular-81"/>
     <use x="76.136383" xlink:href="#Inter-Regular-48"/>
    </g>
   </g>
   <g id="text_49">
    <!-- S1 -->
    <g transform="translate(403.541634 36.454631)scale(0.05 -0.05)">
     <use xlink:href="#Inter-Regular-83"/>
     <use x="63.778427" xlink:href="#Inter-Regular-49"/>
    </g>
   </g>
   <g id="text_50">
    <!-- Q1 -->
    <g transform="translate(410.92146 14.255431)scale(0.05 -0.05)">
     <use xlink:href="#Inter-Regular-81"/>
     <use x="76.136383" xlink:href="#Inter-Regular-49"/>
    </g>
   </g>
   <g id="text_51">
    <!-- B1 -->
    <g transform="translate(418.338023 36.454631)scale(0.05 -0.05)">
     <use xlink:href="#Inter-Regular-66"/>
     <use x="65.056839" xlink:href="#Inter-Regular-49"/>
    </g>
   </g>
   <g id="text_52">
    <!-- S0 -->
    <g transform="translate(424.742358 36.454631)scale(0.05 -0.05)">
     <use xlink:href="#Inter-Regular-83"/>
     <use x="63.778427" xlink:href="#Inter-Regular-48"/>
    </g>
   </g>
   <g id="text_53">
    <!-- B1 -->
    <g transform="translate(431.884974 36.454631)scale(0.05 -0.05)">
     <use xlink:href="#Inter-Regular-66"/>
     <use x="65.056839" xlink:href="#Inter-Regular-49"/>
    </g>
   </g>
   <g id="text_54">
    <!-- Q1 -->
    <g transform="translate(438.74763 14.255431)scale(0.05 -0.05)">
     <use xlink:href="#Inter-Regular-81"/>
     <use x="76.136383" xlink:href="#Inter-Regular-49"/>
    </g>
   </g>
   <g id="text_55">
    <!-- S1 -->
    <g transform="translate(446.745425 36.454631)scale(0.05 -0.05)">
     <use xlink:href="#Inter-Regular-83"/>
     <use x="63.778427" xlink:href="#Inter-Regular-49"/>
    </g>
   </g>
   <g id="text_56">
    <!-- Q0 -->
    <g transform="translate(452.808744 14.255431)scale(0.05 -0.05)">
     <use xlink:href="#Inter-Regular-81"/>
     <use x="76.136383" xlink:href="#Inter-Regular-48"/>
    </g>
   </g>
   <g id="text_57">
    <!-- B0 -->
    <g transform="translate(466.815715 36.454631)scale(0.05 -0.05)">
     <use xlink:href="#Inter-Regular-66"/>
     <use x="65.056839" xlink:href="#Inter-Regular-48"/>
    </g>
   </g>
   <g id="text_58">
    <!-- Q0 -->
    <g transform="translate(480.26878 14.255431)scale(0.05 -0.05)">
     <use xlink:href="#Inter-Regular-81"/>
     <use x="76.136383" xlink:href="#Inter-Regular-48"/>
    </g>
   </g>
   <g id="text_59">
    <!-- S1 -->
    <g transform="translate(487.752412 36.454631)scale(0.05 -0.05)">
     <use xlink:href="#Inter-Regular-83"/>
     <use x="63.778427" xlink:href="#Inter-Regular-49"/>
    </g>
   </g>
   <g id="text_60">
    <!-- Q1A -->
    <g transform="translate(493.07587 14.255431)scale(0.05 -0.05)">
     <use xlink:href="#Inter-Regular-81"/>
     <use x="76.136383" xlink:href="#Inter-Regular-49"/>
     <use x="122.585251" xlink:href="#Inter-Regular-65"/>
    </g>
   </g>
   <g id="text_61">
    <!-- B1 -->
    <g transform="translate(501.816533 36.454631)scale(0.05 -0.05)">
     <use xlink:href="#Inter-Regular-66"/>
     <use x="65.056839" xlink:href="#Inter-Regular-49"/>
    </g>
   </g>
   <g id="text_62">
    <!-- S0A -->
    <g transform="translate(505.798366 36.454631)scale(0.05 -0.05)">
     <use xlink:href="#Inter-Regular-83"/>
     <use x="63.778427" xlink:href="#Inter-Regular-48"/>
     <use x="126.278442" xlink:href="#Inter-Regular-65"/>
    </g>
   </g>
   <g id="text_63">
    <!-- MQ2 -->
    <g transform="translate(513.061122 14.255431)scale(0.05 -0.05)">
     <use xlink:href="#Inter-Regular-77"/>
     <use x="88.920471" xlink:href="#Inter-Regular-81"/>
     <use x="165.056854" xlink:href="#Inter-Regular-50"/>
    </g>
   </g>
   <g id="text_64">
    <!-- S1A -->
    <g transform="translate(522.309426 36.454631)scale(0.05 -0.05)">
     <use xlink:href="#Inter-Regular-83"/>
     <use x="63.778427" xlink:href="#Inter-Regular-49"/>
     <use x="110.227295" xlink:href="#Inter-Regular-65"/>
    </g>
   </g>
   <g id="text_65">
    <!-- MQ1 -->
    <g transform="translate(528.973372 14.255431)scale(0.05 -0.05)">
     <use xlink:href="#Inter-Regular-77"/>
     <use x="88.920471" xlink:href="#Inter-Regular-81"/>
     <use x="165.056854" xlink:href="#Inter-Regular-49"/>
    </g>
   </g>
   <g id="text_66">
    <!-- MB0 -->
    <g transform="translate(539.1009 36.454631)scale(0.05 -0.05)">
     <use xlink:href="#Inter-Regular-77"/>
     <use x="88.920471" xlink:href="#Inter-Regular-66"/>
     <use x="153.97731" xlink:href="#Inter-Regular-48"/>
    </g>
   </g>
   <g id="text_67">
    <!-- S3 -->
    <g transform="translate(550.663875 36.454631)scale(0.05 -0.05)">
     <use xlink:href="#Inter-Regular-83"/>
     <use x="63.778427" xlink:href="#Inter-Regular-51"/>
    </g>
   </g>
   <g id="text_68">
    <!-- UQ1 -->
    <g transform="translate(555.704147 14.255431)scale(0.05 -0.05)">
     <use xlink:href="#Inter-Regular-85"/>
     <use x="74.147751" xlink:href="#Inter-Regular-81"/>
     <use x="150.284134" xlink:href="#Inter-Regular-49"/>
    </g>
   </g>
   <g id="text_69">
    <!-- UQ2 -->
    <g transform="translate(565.055131 14.255431)scale(0.05 -0.05)">
     <use xlink:href="#Inter-Regular-85"/>
     <use x="74.147751" xlink:href="#Inter-Regular-81"/>
     <use x="150.284134" xlink:href="#Inter-Regular-50"/>
    </g>
   </g>
   <g id="text_70">
    <!-- S5 -->
    <g transform="translate(576.73047 36.454631)scale(0.05 -0.05)">
     <use xlink:href="#Inter-Regular-83"/>
     <use x="63.778427" xlink:href="#Inter-Regular-53"/>
    </g>
   </g>
   <g id="text_71">
    <!-- UQ3 -->
    <g transform="translate(581.269961 14.255431)scale(0.05 -0.05)">
     <use xlink:href="#Inter-Regular-85"/>
     <use x="74.147751" xlink:href="#Inter-Regular-81"/>
     <use x="150.284134" xlink:href="#Inter-Regular-51"/>
    </g>
   </g>
  </g>
 </g>
 <defs>
  <clipPath id="p54c80280a8">
   <rect height="221.992" width="646.812" x="62.388" y="24.048"/>
  </clipPath>
 </defs>
</svg>
