<?xml version="1.0" encoding="utf-8" standalone="no"?>
<!DOCTYPE svg PUBLIC "-//W3C//DTD SVG 1.1//EN"
  "http://www.w3.org/Graphics/SVG/1.1/DTD/svg11.dtd">
<!-- Created with matplotlib (https://matplotlib.org/) -->
<svg height="288pt" version="1.1" viewBox="0 0 720 288" width="720pt" xmlns="http://www.w3.org/2000/svg" xmlns:xlink="http://www.w3.org/1999/xlink">
 <metadata>
  <rdf:RDF xmlns:cc="http://creativecommons.org/ns#" xmlns:dc="http://purl.org/dc/elements/1.1/" xmlns:rdf="http://www.w3.org/1999/02/22-rdf-syntax-ns#">
   <cc:Work>
    <dc:type rdf:resource="http://purl.org/dc/dcmitype/StillImage"/>
    <dc:date>2020-12-03T08:58:31.441394</dc:date>
    <dc:format>image/svg+xml</dc:format>
    <dc:creator>
     <cc:Agent>
      <dc:title>Matplotlib v3.3.3, https://matplotlib.org/</dc:title>
     </cc:Agent>
    </dc:creator>
   </cc:Work>
  </rdf:RDF>
 </metadata>
 <defs>
  <style type="text/css">*{stroke-linecap:butt;stroke-linejoin:round;}</style>
 </defs>
 <g id="figure_1">
  <g id="patch_1">
   <path d="M 0 288 
L 720 288 
L 720 0 
L 0 0 
z
" style="fill:#ffffff;"/>
  </g>
  <g id="axes_1">
   <g id="patch_2">
    <path d="M 62.388 246.04 
L 709.2 246.04 
L 709.2 24.048 
L 62.388 24.048 
z
" style="fill:#ffffff;"/>
   </g>
   <g id="matplotlib.axis_1">
    <g id="xtick_1">
     <g id="line2d_1">
      <path clip-path="url(#pa22dc6d4c9)" d="M 91.788545 246.04 
L 91.788545 24.048 
" style="fill:none;stroke:#e5e7eb;stroke-dasharray:3.7,1.6;stroke-dashoffset:0;"/>
     </g>
     <g id="line2d_2">
      <defs>
       <path d="M 0 0 
L 0 3.5 
" id="mbef190a29f" style="stroke:#000000;stroke-width:0.8;"/>
      </defs>
      <g>
       <use style="stroke:#000000;stroke-width:0.8;" x="91.788545" xlink:href="#mbef190a29f" y="246.04"/>
      </g>
     </g>
     <g id="text_1">
      <!-- 0.0 -->
      <g transform="translate(84.16042 260.313437)scale(0.1 -0.1)">
       <defs>
        <path d="M 31.25 -1 
C 47.296875 -1 56.53125 12.609375 56.53125 36.359375 
C 56.53125 59.9375 47.15625 73.71875 31.25 73.71875 
C 15.34375 73.71875 5.96875 59.9375 5.96875 36.359375 
C 5.96875 12.609375 15.203125 -1 31.25 -1 
z
M 31.25 6.8125 
C 20.671875 6.8125 14.484375 17.4375 14.484375 36.359375 
C 14.484375 55.25 20.734375 66.046875 31.25 66.046875 
C 41.765625 66.046875 48.015625 55.25 48.015625 36.359375 
C 48.015625 17.4375 41.828125 6.8125 31.25 6.8125 
z
" id="Inter-Regular-48"/>
        <path d="M 13.78125 -0.5625 
C 17.296875 -0.5625 20.171875 2.3125 20.171875 5.828125 
C 20.171875 9.34375 17.296875 12.21875 13.78125 12.21875 
C 10.265625 12.21875 7.390625 9.34375 7.390625 5.828125 
C 7.390625 2.3125 10.265625 -0.5625 13.78125 -0.5625 
z
" id="Inter-Regular-46"/>
       </defs>
       <use xlink:href="#Inter-Regular-48"/>
       <use x="62.500015" xlink:href="#Inter-Regular-46"/>
       <use x="90.056839" xlink:href="#Inter-Regular-48"/>
      </g>
     </g>
    </g>
    <g id="xtick_2">
     <g id="line2d_3">
      <path clip-path="url(#pa22dc6d4c9)" d="M 165.289909 246.04 
L 165.289909 24.048 
" style="fill:none;stroke:#e5e7eb;stroke-dasharray:3.7,1.6;stroke-dashoffset:0;"/>
     </g>
     <g id="line2d_4">
      <g>
       <use style="stroke:#000000;stroke-width:0.8;" x="165.289909" xlink:href="#mbef190a29f" y="246.04"/>
      </g>
     </g>
     <g id="text_2">
      <!-- 2.5 -->
      <g transform="translate(157.846159 260.313437)scale(0.1 -0.1)">
       <defs>
        <path d="M 7.53125 0 
L 53.40625 0 
L 53.40625 7.8125 
L 19.609375 7.8125 
L 19.609375 8.375 
L 35.9375 25.859375 
C 48.4375 39.234375 52.125 45.484375 52.125 53.546875 
C 52.125 64.765625 43.046875 73.71875 30.25 73.71875 
C 17.515625 73.71875 7.8125 65.0625 7.8125 52.265625 
L 16.1875 52.265625 
C 16.1875 60.546875 21.5625 66.046875 29.96875 66.046875 
C 37.859375 66.046875 43.890625 61.21875 43.890625 53.546875 
C 43.890625 46.84375 39.953125 41.875 31.53125 32.671875 
L 7.53125 6.390625 
z
" id="Inter-Regular-50"/>
        <path d="M 30.25 -1 
C 44.109375 -1 54.265625 9.234375 54.265625 23.15625 
C 54.265625 37.25 44.46875 47.578125 31.109375 47.578125 
C 26.203125 47.578125 21.453125 45.84375 18.46875 43.46875 
L 18.046875 43.46875 
L 20.59375 64.921875 
L 51 64.921875 
L 51 72.734375 
L 13.21875 72.734375 
L 8.8125 36.9375 
L 17.046875 35.9375 
C 20.0625 38.109375 25.21875 39.671875 29.6875 39.625 
C 38.953125 39.5625 45.734375 32.53125 45.734375 23.015625 
C 45.734375 13.671875 39.203125 6.8125 30.25 6.8125 
C 22.796875 6.8125 16.875 11.609375 16.1875 18.1875 
L 7.671875 18.1875 
C 8.203125 7.109375 17.75 -1 30.25 -1 
z
" id="Inter-Regular-53"/>
       </defs>
       <use xlink:href="#Inter-Regular-50"/>
       <use x="60.511383" xlink:href="#Inter-Regular-46"/>
       <use x="88.068207" xlink:href="#Inter-Regular-53"/>
      </g>
     </g>
    </g>
    <g id="xtick_3">
     <g id="line2d_5">
      <path clip-path="url(#pa22dc6d4c9)" d="M 238.791273 246.04 
L 238.791273 24.048 
" style="fill:none;stroke:#e5e7eb;stroke-dasharray:3.7,1.6;stroke-dashoffset:0;"/>
     </g>
     <g id="line2d_6">
      <g>
       <use style="stroke:#000000;stroke-width:0.8;" x="238.791273" xlink:href="#mbef190a29f" y="246.04"/>
      </g>
     </g>
     <g id="text_3">
      <!-- 5.0 -->
      <g transform="translate(231.248304 260.313437)scale(0.1 -0.1)">
       <use xlink:href="#Inter-Regular-53"/>
       <use x="60.795471" xlink:href="#Inter-Regular-46"/>
       <use x="88.352295" xlink:href="#Inter-Regular-48"/>
      </g>
     </g>
    </g>
    <g id="xtick_4">
     <g id="line2d_7">
      <path clip-path="url(#pa22dc6d4c9)" d="M 312.292636 246.04 
L 312.292636 24.048 
" style="fill:none;stroke:#e5e7eb;stroke-dasharray:3.7,1.6;stroke-dashoffset:0;"/>
     </g>
     <g id="line2d_8">
      <g>
       <use style="stroke:#000000;stroke-width:0.8;" x="312.292636" xlink:href="#mbef190a29f" y="246.04"/>
      </g>
     </g>
     <g id="text_4">
      <!-- 7.5 -->
      <g transform="translate(305.019199 260.313437)scale(0.1 -0.1)">
       <defs>
        <path d="M 9.796875 0 
L 19.03125 0 
L 51.421875 64.484375 
L 51.421875 72.734375 
L 4.828125 72.734375 
L 4.828125 64.921875 
L 42.328125 64.921875 
L 42.328125 64.34375 
z
" id="Inter-Regular-55"/>
       </defs>
       <use xlink:href="#Inter-Regular-55"/>
       <use x="57.10228" xlink:href="#Inter-Regular-46"/>
       <use x="84.659103" xlink:href="#Inter-Regular-53"/>
      </g>
     </g>
    </g>
    <g id="xtick_5">
     <g id="line2d_9">
      <path clip-path="url(#pa22dc6d4c9)" d="M 385.794 246.04 
L 385.794 24.048 
" style="fill:none;stroke:#e5e7eb;stroke-dasharray:3.7,1.6;stroke-dashoffset:0;"/>
     </g>
     <g id="line2d_10">
      <g>
       <use style="stroke:#000000;stroke-width:0.8;" x="385.794" xlink:href="#mbef190a29f" y="246.04"/>
      </g>
     </g>
     <g id="text_5">
      <!-- 10.0 -->
      <g transform="translate(375.843219 260.313437)scale(0.1 -0.1)">
       <defs>
        <path d="M 33.09375 72.734375 
L 24.296875 72.734375 
L 6.109375 60.65625 
L 6.109375 51.703125 
L 23.859375 63.5 
L 24.296875 63.5 
L 24.296875 0 
L 33.09375 0 
z
" id="Inter-Regular-49"/>
       </defs>
       <use xlink:href="#Inter-Regular-49"/>
       <use x="46.448868" xlink:href="#Inter-Regular-48"/>
       <use x="108.948883" xlink:href="#Inter-Regular-46"/>
       <use x="136.505707" xlink:href="#Inter-Regular-48"/>
      </g>
     </g>
    </g>
    <g id="xtick_6">
     <g id="line2d_11">
      <path clip-path="url(#pa22dc6d4c9)" d="M 459.295364 246.04 
L 459.295364 24.048 
" style="fill:none;stroke:#e5e7eb;stroke-dasharray:3.7,1.6;stroke-dashoffset:0;"/>
     </g>
     <g id="line2d_12">
      <g>
       <use style="stroke:#000000;stroke-width:0.8;" x="459.295364" xlink:href="#mbef190a29f" y="246.04"/>
      </g>
     </g>
     <g id="text_6">
      <!-- 12.5 -->
      <g transform="translate(449.528957 260.313437)scale(0.1 -0.1)">
       <use xlink:href="#Inter-Regular-49"/>
       <use x="46.448868" xlink:href="#Inter-Regular-50"/>
       <use x="106.960251" xlink:href="#Inter-Regular-46"/>
       <use x="134.517075" xlink:href="#Inter-Regular-53"/>
      </g>
     </g>
    </g>
    <g id="xtick_7">
     <g id="line2d_13">
      <path clip-path="url(#pa22dc6d4c9)" d="M 532.796727 246.04 
L 532.796727 24.048 
" style="fill:none;stroke:#e5e7eb;stroke-dasharray:3.7,1.6;stroke-dashoffset:0;"/>
     </g>
     <g id="line2d_14">
      <g>
       <use style="stroke:#000000;stroke-width:0.8;" x="532.796727" xlink:href="#mbef190a29f" y="246.04"/>
      </g>
     </g>
     <g id="text_7">
      <!-- 15.0 -->
      <g transform="translate(522.931102 260.313437)scale(0.1 -0.1)">
       <use xlink:href="#Inter-Regular-49"/>
       <use x="46.448868" xlink:href="#Inter-Regular-53"/>
       <use x="107.244339" xlink:href="#Inter-Regular-46"/>
       <use x="134.801163" xlink:href="#Inter-Regular-48"/>
      </g>
     </g>
    </g>
    <g id="xtick_8">
     <g id="line2d_15">
      <path clip-path="url(#pa22dc6d4c9)" d="M 606.298091 246.04 
L 606.298091 24.048 
" style="fill:none;stroke:#e5e7eb;stroke-dasharray:3.7,1.6;stroke-dashoffset:0;"/>
     </g>
     <g id="line2d_16">
      <g>
       <use style="stroke:#000000;stroke-width:0.8;" x="606.298091" xlink:href="#mbef190a29f" y="246.04"/>
      </g>
     </g>
     <g id="text_8">
      <!-- 17.5 -->
      <g transform="translate(596.701997 260.313437)scale(0.1 -0.1)">
       <use xlink:href="#Inter-Regular-49"/>
       <use x="46.448868" xlink:href="#Inter-Regular-55"/>
       <use x="103.551147" xlink:href="#Inter-Regular-46"/>
       <use x="131.107971" xlink:href="#Inter-Regular-53"/>
      </g>
     </g>
    </g>
    <g id="xtick_9">
     <g id="line2d_17">
      <path clip-path="url(#pa22dc6d4c9)" d="M 679.799455 246.04 
L 679.799455 24.048 
" style="fill:none;stroke:#e5e7eb;stroke-dasharray:3.7,1.6;stroke-dashoffset:0;"/>
     </g>
     <g id="line2d_18">
      <g>
       <use style="stroke:#000000;stroke-width:0.8;" x="679.799455" xlink:href="#mbef190a29f" y="246.04"/>
      </g>
     </g>
     <g id="text_9">
      <!-- 20.0 -->
      <g transform="translate(669.145548 260.313437)scale(0.1 -0.1)">
       <use xlink:href="#Inter-Regular-50"/>
       <use x="60.511383" xlink:href="#Inter-Regular-48"/>
       <use x="123.011398" xlink:href="#Inter-Regular-46"/>
       <use x="150.568222" xlink:href="#Inter-Regular-48"/>
      </g>
     </g>
    </g>
    <g id="text_10">
     <!-- s / m -->
     <g transform="translate(374.23775 273.632187)scale(0.1 -0.1)">
      <defs>
       <path d="M 46.3125 42.328125 
C 43.6875 50.078125 37.78125 55.25 26.984375 55.25 
C 15.484375 55.25 6.96875 48.71875 6.96875 39.484375 
C 6.96875 31.953125 11.4375 26.921875 21.453125 24.578125 
L 30.546875 22.4375 
C 36.046875 21.171875 38.640625 18.53125 38.640625 14.765625 
C 38.640625 10.078125 33.671875 6.25 25.859375 6.25 
C 19 6.25 14.703125 9.203125 13.21875 15.0625 
L 5.25 13.0625 
C 7.203125 3.796875 14.84375 -1.140625 26 -1.140625 
C 38.671875 -1.140625 47.296875 5.78125 47.296875 15.203125 
C 47.296875 22.796875 42.546875 27.59375 32.8125 29.96875 
L 24.71875 31.953125 
C 18.25 33.5625 15.34375 35.71875 15.34375 39.921875 
C 15.34375 44.609375 20.3125 48.015625 26.984375 48.015625 
C 34.3125 48.015625 37.328125 43.96875 38.78125 40.203125 
z
" id="Inter-Regular-115"/>
       <path id="Inter-Regular-32"/>
       <path d="M 33.375 76.140625 
L 25.71875 76.140625 
L 2.28125 -10.9375 
L 9.9375 -10.9375 
z
" id="Inter-Regular-47"/>
       <path d="M 7.671875 0 
L 16.046875 0 
L 16.046875 34.09375 
C 16.046875 42.078125 21.875 47.734375 28.40625 47.734375 
C 34.765625 47.734375 39.203125 43.578125 39.203125 37.359375 
L 39.203125 0 
L 47.734375 0 
L 47.734375 35.515625 
C 47.734375 42.546875 52.125 47.734375 59.796875 47.734375 
C 65.765625 47.734375 70.875 44.5625 70.875 36.5 
L 70.875 0 
L 79.265625 0 
L 79.265625 36.5 
C 79.265625 49.328125 72.375 55.25 62.640625 55.25 
C 54.828125 55.25 49.109375 51.671875 46.3125 46.015625 
L 45.734375 46.015625 
C 43.046875 51.84375 38.28125 55.25 31.109375 55.25 
C 24 55.25 18.75 51.84375 16.484375 46.015625 
L 15.765625 46.015625 
L 15.765625 54.546875 
L 7.671875 54.546875 
z
" id="Inter-Regular-109"/>
      </defs>
      <use xlink:href="#Inter-Regular-115"/>
      <use x="52.272736" xlink:href="#Inter-Regular-32"/>
      <use x="80.397736" xlink:href="#Inter-Regular-47"/>
      <use x="116.051147" xlink:href="#Inter-Regular-32"/>
      <use x="144.176147" xlink:href="#Inter-Regular-109"/>
     </g>
    </g>
   </g>
   <g id="matplotlib.axis_2">
    <g id="ytick_1">
     <g id="line2d_19">
      <path clip-path="url(#pa22dc6d4c9)" d="M 62.388 235.948234 
L 709.2 235.948234 
" style="fill:none;stroke:#e5e7eb;stroke-dasharray:3.7,1.6;stroke-dashoffset:0;"/>
     </g>
     <g id="line2d_20">
      <defs>
       <path d="M 0 0 
L -3.5 0 
" id="m1f1002ed93" style="stroke:#000000;stroke-width:0.8;"/>
      </defs>
      <g>
       <use style="stroke:#000000;stroke-width:0.8;" x="62.388" xlink:href="#m1f1002ed93" y="235.948234"/>
      </g>
     </g>
     <g id="text_11">
      <!-- 0.0 -->
      <g transform="translate(40.13175 239.584953)scale(0.1 -0.1)">
       <use xlink:href="#Inter-Regular-48"/>
       <use x="62.500015" xlink:href="#Inter-Regular-46"/>
       <use x="90.056839" xlink:href="#Inter-Regular-48"/>
      </g>
     </g>
    </g>
    <g id="ytick_2">
     <g id="line2d_21">
      <path clip-path="url(#pa22dc6d4c9)" d="M 62.388 205.432275 
L 709.2 205.432275 
" style="fill:none;stroke:#e5e7eb;stroke-dasharray:3.7,1.6;stroke-dashoffset:0;"/>
     </g>
     <g id="line2d_22">
      <g>
       <use style="stroke:#000000;stroke-width:0.8;" x="62.388" xlink:href="#m1f1002ed93" y="205.432275"/>
      </g>
     </g>
     <g id="text_12">
      <!-- 2.5 -->
      <g transform="translate(40.5005 209.068993)scale(0.1 -0.1)">
       <use xlink:href="#Inter-Regular-50"/>
       <use x="60.511383" xlink:href="#Inter-Regular-46"/>
       <use x="88.068207" xlink:href="#Inter-Regular-53"/>
      </g>
     </g>
    </g>
    <g id="ytick_3">
     <g id="line2d_23">
      <path clip-path="url(#pa22dc6d4c9)" d="M 62.388 174.916316 
L 709.2 174.916316 
" style="fill:none;stroke:#e5e7eb;stroke-dasharray:3.7,1.6;stroke-dashoffset:0;"/>
     </g>
     <g id="line2d_24">
      <g>
       <use style="stroke:#000000;stroke-width:0.8;" x="62.388" xlink:href="#m1f1002ed93" y="174.916316"/>
      </g>
     </g>
     <g id="text_13">
      <!-- 5.0 -->
      <g transform="translate(40.302062 178.553034)scale(0.1 -0.1)">
       <use xlink:href="#Inter-Regular-53"/>
       <use x="60.795471" xlink:href="#Inter-Regular-46"/>
       <use x="88.352295" xlink:href="#Inter-Regular-48"/>
      </g>
     </g>
    </g>
    <g id="ytick_4">
     <g id="line2d_25">
      <path clip-path="url(#pa22dc6d4c9)" d="M 62.388 144.400356 
L 709.2 144.400356 
" style="fill:none;stroke:#e5e7eb;stroke-dasharray:3.7,1.6;stroke-dashoffset:0;"/>
     </g>
     <g id="line2d_26">
      <g>
       <use style="stroke:#000000;stroke-width:0.8;" x="62.388" xlink:href="#m1f1002ed93" y="144.400356"/>
      </g>
     </g>
     <g id="text_14">
      <!-- 7.5 -->
      <g transform="translate(40.841125 148.037075)scale(0.1 -0.1)">
       <use xlink:href="#Inter-Regular-55"/>
       <use x="57.10228" xlink:href="#Inter-Regular-46"/>
       <use x="84.659103" xlink:href="#Inter-Regular-53"/>
      </g>
     </g>
    </g>
    <g id="ytick_5">
     <g id="line2d_27">
      <path clip-path="url(#pa22dc6d4c9)" d="M 62.388 113.884397 
L 709.2 113.884397 
" style="fill:none;stroke:#e5e7eb;stroke-dasharray:3.7,1.6;stroke-dashoffset:0;"/>
     </g>
     <g id="line2d_28">
      <g>
       <use style="stroke:#000000;stroke-width:0.8;" x="62.388" xlink:href="#m1f1002ed93" y="113.884397"/>
      </g>
     </g>
     <g id="text_15">
      <!-- 10.0 -->
      <g transform="translate(35.486437 117.521116)scale(0.1 -0.1)">
       <use xlink:href="#Inter-Regular-49"/>
       <use x="46.448868" xlink:href="#Inter-Regular-48"/>
       <use x="108.948883" xlink:href="#Inter-Regular-46"/>
       <use x="136.505707" xlink:href="#Inter-Regular-48"/>
      </g>
     </g>
    </g>
    <g id="ytick_6">
     <g id="line2d_29">
      <path clip-path="url(#pa22dc6d4c9)" d="M 62.388 83.368438 
L 709.2 83.368438 
" style="fill:none;stroke:#e5e7eb;stroke-dasharray:3.7,1.6;stroke-dashoffset:0;"/>
     </g>
     <g id="line2d_30">
      <g>
       <use style="stroke:#000000;stroke-width:0.8;" x="62.388" xlink:href="#m1f1002ed93" y="83.368438"/>
      </g>
     </g>
     <g id="text_16">
      <!-- 12.5 -->
      <g transform="translate(35.855187 87.005157)scale(0.1 -0.1)">
       <use xlink:href="#Inter-Regular-49"/>
       <use x="46.448868" xlink:href="#Inter-Regular-50"/>
       <use x="106.960251" xlink:href="#Inter-Regular-46"/>
       <use x="134.517075" xlink:href="#Inter-Regular-53"/>
      </g>
     </g>
    </g>
    <g id="ytick_7">
     <g id="line2d_31">
      <path clip-path="url(#pa22dc6d4c9)" d="M 62.388 52.852479 
L 709.2 52.852479 
" style="fill:none;stroke:#e5e7eb;stroke-dasharray:3.7,1.6;stroke-dashoffset:0;"/>
     </g>
     <g id="line2d_32">
      <g>
       <use style="stroke:#000000;stroke-width:0.8;" x="62.388" xlink:href="#m1f1002ed93" y="52.852479"/>
      </g>
     </g>
     <g id="text_17">
      <!-- 15.0 -->
      <g transform="translate(35.65675 56.489198)scale(0.1 -0.1)">
       <use xlink:href="#Inter-Regular-49"/>
       <use x="46.448868" xlink:href="#Inter-Regular-53"/>
       <use x="107.244339" xlink:href="#Inter-Regular-46"/>
       <use x="134.801163" xlink:href="#Inter-Regular-48"/>
      </g>
     </g>
    </g>
   </g>
   <g id="line2d_33">
    <path clip-path="url(#pa22dc6d4c9)" d="M 91.788545 203.754903 
L 96.216338 203.649932 
L 100.644131 203.335017 
L 105.071924 202.810159 
L 109.499717 202.075357 
L 113.92751 201.130612 
L 118.355303 199.975924 
L 122.783096 198.611293 
L 127.210889 197.036719 
L 131.638682 195.252201 
L 136.066475 193.25774 
L 140.494268 191.053335 
L 144.922061 188.638988 
L 150.235413 185.464646 
L 155.548765 181.987985 
L 160.862116 178.209006 
L 165.289909 174.828919 
L 166.129925 174.618963 
L 166.96994 175.311109 
L 167.809956 176.884896 
L 168.649971 179.293798 
L 169.489987 182.4666 
L 170.330003 186.309506 
L 173.130055 200.863899 
L 174.110073 205.445542 
L 175.090091 209.449122 
L 176.070109 212.717952 
L 177.932144 217.445381 
L 179.696176 221.225375 
L 181.460209 224.508901 
L 183.269473 227.225095 
L 185.078738 229.243985 
L 186.888002 230.681561 
L 188.697266 231.620415 
L 190.506531 232.114485 
L 192.315795 232.192158 
L 194.004442 231.903936 
L 195.572471 231.38518 
L 197.532507 230.413648 
L 199.541545 229.045268 
L 204.770642 224.862879 
L 206.450673 223.902102 
L 209.390727 222.325229 
L 212.036776 220.623801 
L 214.682825 218.654984 
L 217.328875 216.41878 
L 220.170927 213.719099 
L 222.914978 210.819814 
L 225.561027 207.751736 
L 228.207076 204.416269 
L 230.951127 200.674841 
L 233.751179 196.812571 
L 234.591195 196.291154 
L 235.43121 196.275568 
L 236.271226 196.766216 
L 237.111242 197.750409 
L 237.951257 199.20269 
L 240.555305 205.306614 
L 243.201355 211.066192 
L 245.847404 216.139252 
L 247.611436 219.139893 
L 249.375469 221.835414 
L 251.139502 224.225816 
L 252.916317 226.292807 
L 254.705916 227.871707 
L 256.495514 228.991673 
L 258.285113 229.711047 
L 260.074711 230.067299 
L 261.864309 230.078987 
L 263.653908 229.74672 
L 265.443506 229.05319 
L 267.233105 227.962272 
L 269.022703 226.417137 
L 270.812302 224.337301 
L 272.6019 221.614423 
L 274.365933 218.37092 
L 276.129965 214.729265 
L 277.916614 210.800016 
L 278.821246 209.100084 
L 279.725878 207.704944 
L 280.63051 206.65203 
L 281.535143 205.969592 
L 282.439775 205.67594 
L 283.344407 205.778954 
L 284.249039 206.275869 
L 285.153671 207.153352 
L 286.058303 208.387861 
L 286.962936 209.946272 
L 288.7722 213.859979 
L 290.536233 217.86712 
L 292.300265 221.419827 
L 294.077081 224.494004 
L 295.866679 226.872406 
L 297.656278 228.622282 
L 299.445876 229.849692 
L 301.235475 230.629027 
L 303.025073 231.007521 
L 304.814672 231.008115 
L 306.60427 230.630846 
L 308.393868 229.852846 
L 310.183467 228.626962 
L 311.973065 226.878895 
L 313.762664 224.502697 
L 315.526696 221.601478 
L 317.290729 218.289093 
L 319.98201 213.014649 
L 320.886642 211.614643 
L 321.791274 210.486602 
L 322.695906 209.659877 
L 323.600538 209.155981 
L 324.505171 208.988023 
L 325.409803 209.160375 
L 326.314435 209.668551 
L 327.219067 210.499329 
L 328.123699 211.631093 
L 329.028331 213.034394 
L 332.579013 219.406478 
L 334.343045 222.160284 
L 336.132644 224.465725 
L 337.922242 226.196415 
L 339.711841 227.443737 
L 341.501439 228.273552 
L 343.291038 228.729674 
L 345.080636 228.836188 
L 346.870234 228.598718 
L 348.659833 228.004726 
L 350.449431 227.022846 
L 352.23903 225.601235 
L 354.028628 223.66483 
L 355.805444 221.177891 
L 357.569476 218.352784 
L 361.142773 212.242892 
L 362.047406 211.117881 
L 362.952038 210.27293 
L 363.85667 209.729208 
L 364.761302 209.500338 
L 365.665934 209.592053 
L 366.570566 210.002058 
L 367.475199 210.720077 
L 368.379831 211.728123 
L 369.284463 213.000939 
L 371.093727 216.207486 
L 372.85776 219.506884 
L 374.621793 222.445215 
L 376.361325 224.954726 
L 378.076357 226.883785 
L 379.791389 228.32509 
L 381.50642 229.348817 
L 383.221452 230.004812 
L 384.936484 230.325013 
L 386.651516 230.325013 
L 388.366548 230.004812 
L 390.08158 229.348817 
L 391.796611 228.32509 
L 393.511643 226.883785 
L 395.226675 224.954726 
L 396.966207 222.445215 
L 398.73024 219.506884 
L 402.303537 213.000939 
L 403.208169 211.728123 
L 404.112801 210.720077 
L 405.017434 210.002058 
L 405.922066 209.592053 
L 406.826698 209.500338 
L 407.73133 209.729208 
L 408.635962 210.27293 
L 409.540594 211.117881 
L 410.445227 212.242892 
L 411.349859 213.619775 
L 414.90054 219.804543 
L 416.664573 222.472827 
L 418.454171 224.70308 
L 420.24377 226.371114 
L 422.033368 227.565005 
L 423.822966 228.347792 
L 425.612565 228.760806 
L 427.402163 228.825856 
L 429.191762 228.546377 
L 430.98136 227.90761 
L 432.770958 226.875829 
L 434.560557 225.396555 
L 436.350155 223.391678 
L 438.126971 220.823584 
L 439.891004 217.908964 
L 443.464301 211.631093 
L 444.368933 210.499329 
L 445.273565 209.668551 
L 446.178197 209.160375 
L 447.082829 208.988023 
L 447.987462 209.155981 
L 448.892094 209.659877 
L 449.796726 210.486602 
L 450.701358 211.614643 
L 451.60599 213.014649 
L 453.415255 216.478715 
L 455.179287 219.996681 
L 456.94332 223.103483 
L 458.720136 225.777332 
L 460.509734 227.824017 
L 462.299332 229.299853 
L 464.088931 230.294289 
L 465.878529 230.867597 
L 467.668128 231.054523 
L 469.457726 230.866399 
L 471.247325 230.291821 
L 473.036923 229.295965 
L 474.826521 227.818474 
L 476.61612 225.769797 
L 478.405718 223.025768 
L 480.169751 219.700278 
L 481.933784 215.920354 
L 483.720432 211.786772 
L 484.625064 209.946272 
L 485.529697 208.387861 
L 486.434329 207.153352 
L 487.338961 206.275869 
L 488.243593 205.778954 
L 489.148225 205.67594 
L 490.052857 205.969592 
L 490.95749 206.65203 
L 491.862122 207.704944 
L 492.766754 209.100084 
L 493.671386 210.800016 
L 497.222067 218.37092 
L 498.9861 221.614423 
L 500.775698 224.337301 
L 502.565297 226.417137 
L 504.354895 227.962272 
L 506.144494 229.05319 
L 507.934092 229.74672 
L 509.723691 230.078987 
L 511.513289 230.067299 
L 513.302887 229.711047 
L 515.092486 228.991673 
L 516.882084 227.871707 
L 518.671683 226.292807 
L 520.448498 224.225816 
L 522.212531 221.835414 
L 523.976564 219.139893 
L 525.740596 216.139252 
L 528.386645 211.066192 
L 531.032695 205.306614 
L 533.636743 199.20269 
L 534.476758 197.750409 
L 535.316774 196.766216 
L 536.15679 196.275568 
L 536.996805 196.291154 
L 537.836821 196.812571 
L 538.676836 197.826334 
L 541.616891 202.044076 
L 545.144956 206.669623 
L 547.791005 209.826831 
L 550.437055 212.716651 
L 553.377109 215.613958 
L 556.023158 217.939292 
L 558.669207 219.997238 
L 561.315256 221.787796 
L 564.157309 223.413157 
L 566.817358 224.862879 
L 568.49739 226.081821 
L 573.075475 229.793262 
L 575.035511 230.944287 
L 576.799544 231.673277 
L 578.367573 232.077158 
L 580.176837 232.204541 
L 581.986101 231.920701 
L 583.795366 231.20933 
L 585.60463 230.029557 
L 587.413894 228.313603 
L 589.223159 225.962882 
L 591.009807 222.929196 
L 592.77384 219.397437 
L 594.537873 215.369208 
L 595.517891 212.717952 
L 596.497909 209.449122 
L 597.477927 205.445542 
L 599.437964 195.951688 
L 601.257997 186.309506 
L 602.098013 182.4666 
L 602.938029 179.293798 
L 603.778044 176.884896 
L 604.61806 175.311109 
L 605.458075 174.618963 
L 606.298091 174.828919 
L 611.611442 178.85983 
L 616.924794 182.588423 
L 622.238146 186.014697 
L 627.551497 189.138653 
L 632.864849 191.96029 
L 637.292642 194.080717 
L 641.720435 195.991201 
L 646.148228 197.691742 
L 650.576021 199.182339 
L 655.003814 200.462993 
L 659.431607 201.533704 
L 663.8594 202.394471 
L 668.287193 203.045295 
L 672.714986 203.486176 
L 677.142779 203.717114 
L 679.799455 203.754903 
L 679.799455 203.754903 
" style="fill:none;stroke:#ef4444;stroke-linecap:square;stroke-width:1.5;"/>
   </g>
   <g id="line2d_34">
    <path clip-path="url(#pa22dc6d4c9)" d="M 91.788545 192.825052 
L 97.101897 192.712205 
L 102.415249 192.373664 
L 107.7286 191.80943 
L 113.041952 191.019501 
L 118.355303 190.003879 
L 123.668655 188.762564 
L 128.982007 187.295554 
L 134.295358 185.602851 
L 139.60871 183.684454 
L 144.922061 181.540363 
L 150.235413 179.170579 
L 155.548765 176.575101 
L 160.862116 173.753929 
L 165.289909 171.230547 
L 166.129925 170.251009 
L 166.96994 168.275356 
L 167.809956 165.244892 
L 168.649971 161.069584 
L 169.489987 155.625387 
L 170.330003 148.750557 
L 171.170018 140.240847 
L 173.130055 117.025704 
L 175.090091 92.52849 
L 176.070109 82.725132 
L 177.050127 75.408326 
L 180.578193 53.150184 
L 182.364841 42.006464 
L 183.269473 37.985328 
L 184.174106 35.350127 
L 185.078738 34.138545 
L 185.98337 34.367908 
L 186.888002 36.034935 
L 187.792634 39.115788 
L 188.697266 43.56641 
L 189.601899 49.323159 
L 190.506531 56.303711 
L 191.411163 64.408246 
L 193.220427 83.511267 
L 195.572471 109.30469 
L 197.532507 128.963782 
L 199.541545 147.382688 
L 201.410579 162.602143 
L 202.250595 168.151613 
L 203.09061 172.887149 
L 203.930626 176.89483 
L 204.770642 180.247507 
L 205.610657 183.006124 
L 206.450673 185.220825 
L 209.390727 191.809566 
L 212.036776 197.293851 
L 214.682825 202.356007 
L 217.328875 206.996033 
L 220.170927 211.509574 
L 222.914978 215.405392 
L 225.561027 218.732126 
L 228.207076 221.63673 
L 230.951127 224.203042 
L 232.911164 225.758176 
L 233.751179 226.290203 
L 234.591195 226.661062 
L 235.43121 226.880386 
L 236.271226 226.953874 
L 237.111242 226.883434 
L 237.951257 226.667236 
L 239.673289 225.811672 
L 242.319338 224.112701 
L 244.965387 222.061236 
L 247.611436 219.657278 
L 250.257485 216.900826 
L 253.811117 212.935959 
L 255.600715 211.489496 
L 256.495514 210.972607 
L 257.390313 210.602833 
L 258.285113 210.384974 
L 259.179912 210.321858 
L 260.074711 210.414304 
L 260.96951 210.661113 
L 261.864309 211.059081 
L 262.759109 211.603042 
L 264.548707 213.098893 
L 266.338306 215.071249 
L 268.127904 217.418032 
L 270.812302 221.3708 
L 273.483916 225.378395 
L 275.247949 227.651858 
L 277.011982 229.535623 
L 277.916614 230.311065 
L 278.821246 230.918293 
L 279.725878 231.373668 
L 280.63051 231.689461 
L 281.535143 231.874181 
L 282.439775 231.932804 
L 283.344407 231.866911 
L 284.249039 231.674726 
L 285.153671 231.351071 
L 286.058303 230.887224 
L 286.962936 230.270688 
L 287.867568 229.484849 
L 289.654216 227.400394 
L 291.418249 224.852466 
L 293.182282 221.86234 
L 296.761479 215.548123 
L 298.551077 212.82383 
L 300.340675 210.613462 
L 301.235475 209.743963 
L 302.130274 209.049894 
L 303.025073 208.541725 
L 303.919872 208.227122 
L 304.814672 208.110832 
L 305.709471 208.194608 
L 306.60427 208.477186 
L 307.499069 208.954305 
L 308.393868 209.618765 
L 309.288668 210.460544 
L 311.078266 212.622777 
L 312.867864 215.311021 
L 315.526696 219.672658 
L 317.290729 222.248751 
L 319.077378 224.481731 
L 319.98201 225.323384 
L 320.886642 225.973615 
L 321.791274 226.44941 
L 322.695906 226.763202 
L 323.600538 226.923189 
L 324.505171 226.933551 
L 325.409803 226.794558 
L 326.314435 226.502578 
L 327.219067 226.049985 
L 328.123699 225.424951 
L 329.028331 224.611149 
L 330.81498 222.442753 
L 332.579013 219.939336 
L 337.922242 211.803164 
L 339.711841 209.785174 
L 340.60664 208.990669 
L 341.501439 208.35374 
L 342.396238 207.882767 
L 343.291038 207.583947 
L 344.185837 207.46121 
L 345.080636 207.516172 
L 345.975435 207.748109 
L 346.870234 208.15397 
L 347.765034 208.728416 
L 348.659833 209.463887 
L 350.449431 211.377213 
L 352.23903 213.793587 
L 354.028628 216.58626 
L 356.68746 220.909614 
L 358.451493 223.431243 
L 360.238141 225.602891 
L 361.142773 226.431027 
L 362.047406 227.081237 
L 362.952038 227.569877 
L 363.85667 227.909238 
L 364.761302 228.107855 
L 365.665934 228.170725 
L 366.570566 228.099429 
L 367.475199 227.892173 
L 368.379831 227.543745 
L 369.284463 227.04538 
L 370.189095 226.384543 
L 371.975744 224.598986 
L 373.739776 222.510289 
L 379.791389 214.833619 
L 381.50642 213.306867 
L 383.221452 212.246032 
L 384.078968 211.907336 
L 384.936484 211.70246 
L 385.794 211.633891 
L 386.651516 211.70246 
L 387.509032 211.907336 
L 388.366548 212.246032 
L 390.08158 213.306867 
L 391.796611 214.833619 
L 393.511643 216.75239 
L 396.084191 220.158329 
L 397.848224 222.510289 
L 399.612256 224.598986 
L 401.398905 226.384543 
L 402.303537 227.04538 
L 403.208169 227.543745 
L 404.112801 227.892173 
L 405.017434 228.099429 
L 405.922066 228.170725 
L 406.826698 228.107855 
L 407.73133 227.909238 
L 408.635962 227.569877 
L 409.540594 227.081237 
L 410.445227 226.431027 
L 411.349859 225.602891 
L 413.136507 223.431243 
L 414.90054 220.909614 
L 417.559372 216.58626 
L 419.34897 213.793587 
L 421.138569 211.377213 
L 422.928167 209.463887 
L 423.822966 208.728416 
L 424.717766 208.15397 
L 425.612565 207.748109 
L 426.507364 207.516172 
L 427.402163 207.46121 
L 428.296962 207.583947 
L 429.191762 207.882767 
L 430.086561 208.35374 
L 430.98136 208.990669 
L 432.770958 210.726802 
L 434.560557 213.000098 
L 436.350155 215.691316 
L 439.008987 219.939336 
L 440.77302 222.442753 
L 442.559669 224.611149 
L 443.464301 225.424951 
L 444.368933 226.049985 
L 445.273565 226.502578 
L 446.178197 226.794558 
L 447.082829 226.933551 
L 447.987462 226.923189 
L 448.892094 226.763202 
L 449.796726 226.44941 
L 450.701358 225.973615 
L 451.60599 225.323384 
L 452.510622 224.481731 
L 454.297271 222.248751 
L 456.061304 219.672658 
L 460.509734 212.622777 
L 462.299332 210.460544 
L 463.194132 209.618765 
L 464.088931 208.954305 
L 464.98373 208.477186 
L 465.878529 208.194608 
L 466.773328 208.110832 
L 467.668128 208.227122 
L 468.562927 208.541725 
L 469.457726 209.049894 
L 470.352525 209.743963 
L 471.247325 210.613462 
L 473.036923 212.82383 
L 474.826521 215.548123 
L 477.510919 220.233863 
L 480.169751 224.852466 
L 481.933784 227.400394 
L 483.720432 229.484849 
L 484.625064 230.270688 
L 485.529697 230.887224 
L 486.434329 231.351071 
L 487.338961 231.674726 
L 488.243593 231.866911 
L 489.148225 231.932804 
L 490.052857 231.874181 
L 490.95749 231.689461 
L 491.862122 231.373668 
L 492.766754 230.918293 
L 493.671386 230.311065 
L 495.458035 228.642453 
L 497.222067 226.563839 
L 498.9861 224.095526 
L 503.460096 217.418032 
L 505.249694 215.071249 
L 507.039293 213.098893 
L 508.828891 211.603042 
L 509.723691 211.059081 
L 510.61849 210.661113 
L 511.513289 210.414304 
L 512.408088 210.321858 
L 513.302887 210.384974 
L 514.197687 210.602833 
L 515.092486 210.972607 
L 515.987285 211.489496 
L 517.776883 212.935959 
L 519.566482 214.867361 
L 522.212531 217.858809 
L 524.85858 220.497763 
L 527.504629 222.784224 
L 530.150678 224.718191 
L 532.796727 226.299664 
L 533.636743 226.667236 
L 534.476758 226.883434 
L 535.316774 226.953874 
L 536.15679 226.880386 
L 536.996805 226.661062 
L 537.836821 226.290203 
L 539.656855 225.009561 
L 541.616891 223.338617 
L 544.26294 220.715432 
L 546.908989 217.670118 
L 549.555038 214.202674 
L 552.397091 210.008191 
L 555.141142 205.496261 
L 557.787191 200.715525 
L 560.43324 195.512659 
L 563.177291 189.671224 
L 565.137327 185.220825 
L 565.977343 183.006124 
L 566.817358 180.247507 
L 567.657374 176.89483 
L 568.49739 172.887149 
L 569.337405 168.151613 
L 570.177421 162.602143 
L 572.046455 147.382688 
L 574.055493 128.963782 
L 576.799544 100.973854 
L 580.176837 64.408246 
L 581.081469 56.303711 
L 581.986101 49.323159 
L 582.890734 43.56641 
L 583.795366 39.115788 
L 584.699998 36.034935 
L 585.60463 34.367908 
L 586.509262 34.138545 
L 587.413894 35.350127 
L 588.318527 37.985328 
L 589.223159 42.006464 
L 591.009807 53.150184 
L 595.517891 82.725132 
L 596.497909 92.52849 
L 600.417982 140.240847 
L 601.257997 148.750557 
L 602.098013 155.625387 
L 602.938029 161.069584 
L 603.778044 165.244892 
L 604.61806 168.275356 
L 605.458075 170.251009 
L 606.298091 171.230547 
L 611.611442 174.239797 
L 616.924794 177.023353 
L 622.238146 179.581216 
L 627.551497 181.913385 
L 632.864849 184.01986 
L 638.1782 185.900641 
L 643.491552 187.555729 
L 648.804904 188.985123 
L 654.118255 190.188823 
L 659.431607 191.166829 
L 664.744958 191.919142 
L 670.05831 192.445761 
L 675.371662 192.746686 
L 679.799455 192.825052 
L 679.799455 192.825052 
" style="fill:none;stroke:#1d4ed8;stroke-linecap:square;stroke-width:1.5;"/>
   </g>
   <g id="line2d_35">
    <path clip-path="url(#pa22dc6d4c9)" d="M 91.788545 235.949455 
L 182.364841 235.904247 
L 184.174106 235.548553 
L 185.98337 234.832167 
L 187.792634 233.744838 
L 189.601899 232.271003 
L 191.411163 230.389569 
L 193.220427 228.073609 
L 202.250595 215.549799 
L 203.930626 213.729569 
L 205.610657 212.312002 
L 208.410709 210.607584 
L 232.911164 196.1706 
L 233.751179 195.804967 
L 234.591195 195.699333 
L 235.43121 195.854381 
L 236.271226 196.269108 
L 237.111242 196.940827 
L 237.951257 197.865188 
L 239.673289 200.392747 
L 252.916317 220.684879 
L 254.705916 222.843787 
L 256.495514 224.435735 
L 257.390313 225.025835 
L 258.285113 225.481385 
L 259.179912 225.803862 
L 260.074711 225.994312 
L 260.96951 226.053351 
L 261.864309 225.981172 
L 262.759109 225.77754 
L 263.653908 225.441795 
L 264.548707 224.972849 
L 265.443506 224.369181 
L 267.233105 222.749405 
L 269.022703 220.561443 
L 270.812302 217.776894 
L 272.6019 214.359612 
L 277.916614 203.358999 
L 278.821246 201.860055 
L 279.725878 200.637394 
L 280.63051 199.699231 
L 281.535143 199.051869 
L 282.439775 198.699658 
L 283.344407 198.644964 
L 284.249039 198.888155 
L 285.153671 199.427598 
L 286.058303 200.259666 
L 286.962936 201.37877 
L 287.867568 202.777391 
L 289.654216 206.201336 
L 294.077081 214.911505 
L 295.866679 217.760543 
L 297.656278 219.938104 
L 298.551077 220.785734 
L 299.445876 221.477058 
L 300.340675 222.014684 
L 301.235475 222.400637 
L 302.130274 222.636374 
L 303.025073 222.722783 
L 303.919872 222.660189 
L 304.814672 222.448357 
L 305.709471 222.086488 
L 306.60427 221.573217 
L 307.499069 220.906611 
L 308.393868 220.084154 
L 310.183467 217.958689 
L 311.973065 215.164738 
L 313.762664 211.660126 
L 319.077378 200.283336 
L 319.98201 198.739335 
L 320.886642 197.485017 
L 321.791274 196.528556 
L 322.695906 195.876182 
L 323.600538 195.532147 
L 324.505171 195.498692 
L 325.409803 195.776036 
L 326.314435 196.36237 
L 327.219067 197.253876 
L 328.123699 198.444743 
L 329.028331 199.927213 
L 330.81498 203.545788 
L 335.237845 212.753868 
L 337.027443 215.815958 
L 338.817042 218.216301 
L 340.60664 219.986478 
L 341.501439 220.642847 
L 342.396238 221.149779 
L 343.291038 221.50894 
L 344.185837 221.721511 
L 345.080636 221.788189 
L 345.975435 221.709195 
L 346.870234 221.484268 
L 347.765034 221.112669 
L 348.659833 220.593177 
L 349.554632 219.924085 
L 350.449431 219.103194 
L 352.23903 216.994713 
L 354.028628 214.239994 
L 356.68746 209.223069 
L 360.238141 202.532369 
L 361.142773 201.177916 
L 362.047406 200.088841 
L 362.952038 199.271975 
L 363.85667 198.732443 
L 364.761302 198.473631 
L 365.665934 198.497161 
L 366.570566 198.802886 
L 367.475199 199.388889 
L 368.379831 200.251492 
L 369.284463 201.385285 
L 370.189095 202.783155 
L 371.975744 206.169397 
L 376.361325 214.707282 
L 378.076357 217.456605 
L 379.791389 219.617063 
L 381.50642 221.214875 
L 383.221452 222.269431 
L 384.078968 222.59724 
L 384.936484 222.793529 
L 385.794 222.858893 
L 386.651516 222.793529 
L 387.509032 222.59724 
L 388.366548 222.269431 
L 389.224064 221.809108 
L 390.08158 221.214875 
L 391.796611 219.617063 
L 393.511643 217.456605 
L 395.226675 214.707282 
L 397.848224 209.635528 
L 401.398905 202.783155 
L 402.303537 201.385285 
L 403.208169 200.251492 
L 404.112801 199.388889 
L 405.017434 198.802886 
L 405.922066 198.497161 
L 406.826698 198.473631 
L 407.73133 198.732443 
L 408.635962 199.271975 
L 409.540594 200.088841 
L 410.445227 201.177916 
L 411.349859 202.532369 
L 413.136507 205.836825 
L 417.559372 214.239994 
L 419.34897 216.994713 
L 421.138569 219.103194 
L 422.033368 219.924085 
L 422.928167 220.593177 
L 423.822966 221.112669 
L 424.717766 221.484268 
L 425.612565 221.709195 
L 426.507364 221.788189 
L 427.402163 221.721511 
L 428.296962 221.50894 
L 429.191762 221.149779 
L 430.086561 220.642847 
L 430.98136 219.986478 
L 431.876159 219.178514 
L 433.665758 217.096675 
L 435.455356 214.36994 
L 437.244955 210.962431 
L 442.559669 199.927213 
L 443.464301 198.444743 
L 444.368933 197.253876 
L 445.273565 196.36237 
L 446.178197 195.776036 
L 447.082829 195.498692 
L 447.987462 195.532147 
L 448.892094 195.876182 
L 449.796726 196.528556 
L 450.701358 197.485017 
L 451.60599 198.739335 
L 452.510622 200.283336 
L 454.297271 204.017593 
L 458.720136 213.504311 
L 460.509734 216.647667 
L 462.299332 219.102747 
L 464.088931 220.906611 
L 464.98373 221.573217 
L 465.878529 222.086488 
L 466.773328 222.448357 
L 467.668128 222.660189 
L 468.562927 222.722783 
L 469.457726 222.636374 
L 470.352525 222.400637 
L 471.247325 222.014684 
L 472.142124 221.477058 
L 473.036923 220.785734 
L 473.931722 219.938104 
L 475.721321 217.760543 
L 477.510919 214.911505 
L 480.169751 209.711745 
L 483.720432 202.777391 
L 484.625064 201.37877 
L 485.529697 200.259666 
L 486.434329 199.427598 
L 487.338961 198.888155 
L 488.243593 198.644964 
L 489.148225 198.699658 
L 490.052857 199.051869 
L 490.95749 199.699231 
L 491.862122 200.637394 
L 492.766754 201.860055 
L 493.671386 203.358999 
L 495.458035 206.971246 
L 499.880899 216.149918 
L 501.670498 219.245814 
L 503.460096 221.728046 
L 505.249694 223.628833 
L 507.039293 224.972849 
L 507.934092 225.441795 
L 508.828891 225.77754 
L 509.723691 225.981172 
L 510.61849 226.053351 
L 511.513289 225.994312 
L 512.408088 225.803862 
L 513.302887 225.481385 
L 514.197687 225.025835 
L 515.092486 224.435735 
L 516.882084 222.843787 
L 518.671683 220.684879 
L 521.330515 216.671266 
L 533.636743 197.865188 
L 534.476758 196.940827 
L 535.316774 196.269108 
L 536.15679 195.854381 
L 536.996805 195.699333 
L 537.836821 195.804967 
L 538.676836 196.1706 
L 565.977343 212.312002 
L 567.657374 213.729569 
L 569.337405 215.549799 
L 571.017436 217.739702 
L 579.272205 229.287825 
L 581.081469 231.382778 
L 582.890734 233.057419 
L 584.699998 234.335716 
L 586.509262 235.235965 
L 588.318527 235.771048 
L 590.127791 235.948624 
L 679.799455 235.949455 
L 679.799455 235.949455 
" style="fill:none;stroke:#10b981;stroke-linecap:square;stroke-width:1.5;"/>
   </g>
   <g id="patch_3">
    <path d="M 62.388 246.04 
L 62.388 24.048 
" style="fill:none;stroke:#000000;stroke-linecap:square;stroke-linejoin:miter;stroke-width:0.8;"/>
   </g>
   <g id="patch_4">
    <path d="M 709.2 246.04 
L 709.2 24.048 
" style="fill:none;stroke:#000000;stroke-linecap:square;stroke-linejoin:miter;stroke-width:0.8;"/>
   </g>
   <g id="patch_5">
    <path d="M 62.388 246.04 
L 709.2 246.04 
" style="fill:none;stroke:#000000;stroke-linecap:square;stroke-linejoin:miter;stroke-width:0.8;"/>
   </g>
   <g id="patch_6">
    <path d="M 62.388 24.048 
L 709.2 24.048 
" style="fill:none;stroke:#000000;stroke-linecap:square;stroke-linejoin:miter;stroke-width:0.8;"/>
   </g>
   <g id="text_18">
    <!--        $\eta_x / 1\mathrm{cm}$ -->
    <g style="fill:#008000;" transform="translate(13.94304 174.7912)rotate(-90)scale(0.1 -0.1)">
     <defs>
      <path d="M 57.859375 33.015625 
L 47.40625 -20.796875 
L 38.421875 -20.796875 
L 48.828125 32.71875 
Q 50.34375 40.484375 48.046875 44.34375 
Q 45.796875 48.1875 39.75 48.1875 
Q 32.46875 48.1875 27.34375 43.5625 
Q 22.265625 38.921875 20.703125 30.90625 
L 14.703125 0 
L 5.671875 0 
L 16.3125 54.6875 
L 25.34375 54.6875 
L 23.6875 46.1875 
Q 27.828125 51.125 32.71875 53.5625 
Q 37.546875 56 43.265625 56 
Q 52.6875 56 56.390625 50.203125 
Q 60.0625 44.34375 57.859375 33.015625 
z
" id="DejaVuSans-Oblique-951"/>
      <path d="M 60.015625 54.6875 
L 34.90625 27.875 
L 50.296875 0 
L 39.984375 0 
L 28.421875 21.6875 
L 8.296875 0 
L -2.59375 0 
L 24.3125 28.8125 
L 10.015625 54.6875 
L 20.3125 54.6875 
L 30.8125 34.90625 
L 49.125 54.6875 
z
" id="DejaVuSans-Oblique-120"/>
      <path d="M 25.390625 72.90625 
L 33.6875 72.90625 
L 8.296875 -9.28125 
L 0 -9.28125 
z
" id="DejaVuSans-47"/>
      <path d="M 12.40625 8.296875 
L 28.515625 8.296875 
L 28.515625 63.921875 
L 10.984375 60.40625 
L 10.984375 69.390625 
L 28.421875 72.90625 
L 38.28125 72.90625 
L 38.28125 8.296875 
L 54.390625 8.296875 
L 54.390625 0 
L 12.40625 0 
z
" id="DejaVuSans-49"/>
      <path d="M 48.78125 52.59375 
L 48.78125 44.1875 
Q 44.96875 46.296875 41.140625 47.34375 
Q 37.3125 48.390625 33.40625 48.390625 
Q 24.65625 48.390625 19.8125 42.84375 
Q 14.984375 37.3125 14.984375 27.296875 
Q 14.984375 17.28125 19.8125 11.734375 
Q 24.65625 6.203125 33.40625 6.203125 
Q 37.3125 6.203125 41.140625 7.25 
Q 44.96875 8.296875 48.78125 10.40625 
L 48.78125 2.09375 
Q 45.015625 0.34375 40.984375 -0.53125 
Q 36.96875 -1.421875 32.421875 -1.421875 
Q 20.0625 -1.421875 12.78125 6.34375 
Q 5.515625 14.109375 5.515625 27.296875 
Q 5.515625 40.671875 12.859375 48.328125 
Q 20.21875 56 33.015625 56 
Q 37.15625 56 41.109375 55.140625 
Q 45.0625 54.296875 48.78125 52.59375 
z
" id="DejaVuSans-99"/>
      <path d="M 52 44.1875 
Q 55.375 50.25 60.0625 53.125 
Q 64.75 56 71.09375 56 
Q 79.640625 56 84.28125 50.015625 
Q 88.921875 44.046875 88.921875 33.015625 
L 88.921875 0 
L 79.890625 0 
L 79.890625 32.71875 
Q 79.890625 40.578125 77.09375 44.375 
Q 74.3125 48.1875 68.609375 48.1875 
Q 61.625 48.1875 57.5625 43.546875 
Q 53.515625 38.921875 53.515625 30.90625 
L 53.515625 0 
L 44.484375 0 
L 44.484375 32.71875 
Q 44.484375 40.625 41.703125 44.40625 
Q 38.921875 48.1875 33.109375 48.1875 
Q 26.21875 48.1875 22.15625 43.53125 
Q 18.109375 38.875 18.109375 30.90625 
L 18.109375 0 
L 9.078125 0 
L 9.078125 54.6875 
L 18.109375 54.6875 
L 18.109375 46.1875 
Q 21.1875 51.21875 25.484375 53.609375 
Q 29.78125 56 35.6875 56 
Q 41.65625 56 45.828125 52.96875 
Q 50 49.953125 52 44.1875 
z
" id="DejaVuSans-109"/>
     </defs>
     <use transform="translate(0 0.09375)" xlink:href="#Inter-Regular-32"/>
     <use transform="translate(28.125 0.09375)" xlink:href="#Inter-Regular-32"/>
     <use transform="translate(56.25 0.09375)" xlink:href="#Inter-Regular-32"/>
     <use transform="translate(84.375 0.09375)" xlink:href="#Inter-Regular-32"/>
     <use transform="translate(112.5 0.09375)" xlink:href="#Inter-Regular-32"/>
     <use transform="translate(140.625 0.09375)" xlink:href="#Inter-Regular-32"/>
     <use transform="translate(168.75 0.09375)" xlink:href="#Inter-Regular-32"/>
     <use transform="translate(196.875 0.09375)" xlink:href="#DejaVuSans-Oblique-951"/>
     <use transform="translate(260.253906 -16.3125)scale(0.7)" xlink:href="#DejaVuSans-Oblique-120"/>
     <use transform="translate(304.414062 0.09375)" xlink:href="#DejaVuSans-47"/>
     <use transform="translate(338.105469 0.09375)" xlink:href="#DejaVuSans-49"/>
     <use transform="translate(401.728516 0.09375)" xlink:href="#DejaVuSans-99"/>
     <use transform="translate(456.708984 0.09375)" xlink:href="#DejaVuSans-109"/>
    </g>
   </g>
   <g id="text_19">
    <!--   $\beta_y / \mathrm{m}$ -->
    <g style="fill:#0000ff;" transform="translate(12.94304 195.4412)rotate(-90)scale(0.1 -0.1)">
     <defs>
      <path d="M 13.625 3.375 
L 8.9375 -20.796875 
L -0.09375 -20.796875 
L 14.5 54.34375 
Q 18.84375 76.609375 39.65625 76.609375 
Q 60.75 76.609375 57.171875 57.8125 
Q 54.734375 44.4375 45.21875 39.546875 
Q 58.015625 35.15625 55.515625 22.125 
Q 51.125 -1.078125 27.484375 -1.03125 
Q 17.140625 -0.984375 13.625 3.375 
z
M 15.921875 15.09375 
Q 19.671875 6.59375 29.296875 6.640625 
Q 43.359375 6.640625 46.34375 21.96875 
Q 49.03125 35.75 26.171875 34.671875 
L 27.78125 42.96875 
Q 45.453125 42.671875 48.53125 58.59375 
Q 50.640625 69.34375 39.203125 69.28125 
Q 26.421875 69.28125 23.484375 54.046875 
z
" id="DejaVuSans-Oblique-946"/>
      <path d="M 24.8125 -5.078125 
Q 18.5625 -15.578125 14.625 -18.1875 
Q 10.6875 -20.796875 4.59375 -20.796875 
L -2.484375 -20.796875 
L -0.984375 -13.28125 
L 4.203125 -13.28125 
Q 7.953125 -13.28125 10.59375 -11.234375 
Q 13.234375 -9.1875 16.5 -3.21875 
L 19.28125 2 
L 7.171875 54.6875 
L 16.703125 54.6875 
L 25.78125 12.796875 
L 50.875 54.6875 
L 60.296875 54.6875 
z
" id="DejaVuSans-Oblique-121"/>
     </defs>
     <use transform="translate(0 0.390625)" xlink:href="#Inter-Regular-32"/>
     <use transform="translate(28.125 0.390625)" xlink:href="#Inter-Regular-32"/>
     <use transform="translate(56.25 0.390625)" xlink:href="#DejaVuSans-Oblique-946"/>
     <use transform="translate(120.068359 -16.015625)scale(0.7)" xlink:href="#DejaVuSans-Oblique-121"/>
     <use transform="translate(164.228516 0.390625)" xlink:href="#DejaVuSans-47"/>
     <use transform="translate(197.919922 0.390625)" xlink:href="#DejaVuSans-109"/>
    </g>
   </g>
   <g id="text_20">
    <!-- $\beta_x / \mathrm{m}$ -->
    <g style="fill:#ff0000;" transform="translate(13.94304 222.6412)rotate(-90)scale(0.1 -0.1)">
     <use transform="translate(0 0.390625)" xlink:href="#DejaVuSans-Oblique-946"/>
     <use transform="translate(63.818359 -16.015625)scale(0.7)" xlink:href="#DejaVuSans-Oblique-120"/>
     <use transform="translate(107.978516 0.390625)" xlink:href="#DejaVuSans-47"/>
     <use transform="translate(141.669922 0.390625)" xlink:href="#DejaVuSans-109"/>
    </g>
   </g>
   <g id="patch_7">
    <path d="M 165.289909 29.5978 
L 171.170018 29.5978 
L 171.170018 18.4982 
L 165.289909 18.4982 
z
" style="fill:#ef4444;"/>
   </g>
   <g id="patch_8">
    <path d="M 174.110073 29.5978 
L 177.050127 29.5978 
L 177.050127 18.4982 
L 174.110073 18.4982 
z
" style="fill:#ef4444;"/>
   </g>
   <g id="patch_9">
    <path d="M 181.460209 29.5978 
L 193.220427 29.5978 
L 193.220427 18.4982 
L 181.460209 18.4982 
z
" style="fill:#fbbf24;"/>
   </g>
   <g id="patch_10">
    <path d="M 195.572471 29.5978 
L 198.512525 29.5978 
L 198.512525 18.4982 
L 195.572471 18.4982 
z
" style="fill:#10b981;"/>
   </g>
   <g id="patch_11">
    <path d="M 200.570564 29.5978 
L 206.450673 29.5978 
L 206.450673 18.4982 
L 200.570564 18.4982 
z
" style="fill:#ef4444;"/>
   </g>
   <g id="patch_12">
    <path d="M 209.390727 29.5978 
L 218.210891 29.5978 
L 218.210891 18.4982 
L 209.390727 18.4982 
z
" style="fill:#10b981;"/>
   </g>
   <g id="patch_13">
    <path d="M 221.150945 29.5978 
L 229.971109 29.5978 
L 229.971109 18.4982 
L 221.150945 18.4982 
z
" style="fill:#10b981;"/>
   </g>
   <g id="patch_14">
    <path d="M 232.911164 29.5978 
L 238.791273 29.5978 
L 238.791273 18.4982 
L 232.911164 18.4982 
z
" style="fill:#ef4444;"/>
   </g>
   <g id="patch_15">
    <path d="M 243.201355 29.5978 
L 247.611436 29.5978 
L 247.611436 18.4982 
L 243.201355 18.4982 
z
" style="fill:#10b981;"/>
   </g>
   <g id="patch_16">
    <path d="M 252.021518 29.5978 
L 272.6019 29.5978 
L 272.6019 18.4982 
L 252.021518 18.4982 
z
" style="fill:#fbbf24;"/>
   </g>
   <g id="patch_17">
    <path d="M 277.011982 29.5978 
L 288.7722 29.5978 
L 288.7722 18.4982 
L 277.011982 18.4982 
z
" style="fill:#fbbf24;"/>
   </g>
   <g id="patch_18">
    <path d="M 293.182282 29.5978 
L 313.762664 29.5978 
L 313.762664 18.4982 
L 293.182282 18.4982 
z
" style="fill:#fbbf24;"/>
   </g>
   <g id="patch_19">
    <path d="M 318.172745 29.5978 
L 329.932964 29.5978 
L 329.932964 18.4982 
L 318.172745 18.4982 
z
" style="fill:#fbbf24;"/>
   </g>
   <g id="patch_20">
    <path d="M 334.343045 29.5978 
L 354.923427 29.5978 
L 354.923427 18.4982 
L 334.343045 18.4982 
z
" style="fill:#fbbf24;"/>
   </g>
   <g id="patch_21">
    <path d="M 359.333509 29.5978 
L 371.093727 29.5978 
L 371.093727 18.4982 
L 359.333509 18.4982 
z
" style="fill:#fbbf24;"/>
   </g>
   <g id="patch_22">
    <path d="M 375.503809 29.5978 
L 396.084191 29.5978 
L 396.084191 18.4982 
L 375.503809 18.4982 
z
" style="fill:#fbbf24;"/>
   </g>
   <g id="patch_23">
    <path d="M 400.494273 29.5978 
L 412.254491 29.5978 
L 412.254491 18.4982 
L 400.494273 18.4982 
z
" style="fill:#fbbf24;"/>
   </g>
   <g id="patch_24">
    <path d="M 416.664573 29.5978 
L 437.244955 29.5978 
L 437.244955 18.4982 
L 416.664573 18.4982 
z
" style="fill:#fbbf24;"/>
   </g>
   <g id="patch_25">
    <path d="M 441.655036 29.5978 
L 453.415255 29.5978 
L 453.415255 18.4982 
L 441.655036 18.4982 
z
" style="fill:#fbbf24;"/>
   </g>
   <g id="patch_26">
    <path d="M 457.825336 29.5978 
L 478.405718 29.5978 
L 478.405718 18.4982 
L 457.825336 18.4982 
z
" style="fill:#fbbf24;"/>
   </g>
   <g id="patch_27">
    <path d="M 482.8158 29.5978 
L 494.576018 29.5978 
L 494.576018 18.4982 
L 482.8158 18.4982 
z
" style="fill:#fbbf24;"/>
   </g>
   <g id="patch_28">
    <path d="M 498.9861 29.5978 
L 519.566482 29.5978 
L 519.566482 18.4982 
L 498.9861 18.4982 
z
" style="fill:#fbbf24;"/>
   </g>
   <g id="patch_29">
    <path d="M 523.976564 29.5978 
L 528.386645 29.5978 
L 528.386645 18.4982 
L 523.976564 18.4982 
z
" style="fill:#10b981;"/>
   </g>
   <g id="patch_30">
    <path d="M 532.796727 29.5978 
L 538.676836 29.5978 
L 538.676836 18.4982 
L 532.796727 18.4982 
z
" style="fill:#ef4444;"/>
   </g>
   <g id="patch_31">
    <path d="M 541.616891 29.5978 
L 550.437055 29.5978 
L 550.437055 18.4982 
L 541.616891 18.4982 
z
" style="fill:#10b981;"/>
   </g>
   <g id="patch_32">
    <path d="M 553.377109 29.5978 
L 562.197273 29.5978 
L 562.197273 18.4982 
L 553.377109 18.4982 
z
" style="fill:#10b981;"/>
   </g>
   <g id="patch_33">
    <path d="M 565.137327 29.5978 
L 571.017436 29.5978 
L 571.017436 18.4982 
L 565.137327 18.4982 
z
" style="fill:#ef4444;"/>
   </g>
   <g id="patch_34">
    <path d="M 573.075475 29.5978 
L 576.015529 29.5978 
L 576.015529 18.4982 
L 573.075475 18.4982 
z
" style="fill:#10b981;"/>
   </g>
   <g id="patch_35">
    <path d="M 578.367573 29.5978 
L 590.127791 29.5978 
L 590.127791 18.4982 
L 578.367573 18.4982 
z
" style="fill:#fbbf24;"/>
   </g>
   <g id="patch_36">
    <path d="M 594.537873 29.5978 
L 597.477927 29.5978 
L 597.477927 18.4982 
L 594.537873 18.4982 
z
" style="fill:#ef4444;"/>
   </g>
   <g id="patch_37">
    <path d="M 600.417982 29.5978 
L 606.298091 29.5978 
L 606.298091 18.4982 
L 600.417982 18.4982 
z
" style="fill:#ef4444;"/>
   </g>
   <g id="text_21">
    <!-- Q11 -->
    <g transform="translate(164.003792 14.255431)scale(0.05 -0.05)">
     <defs>
      <path d="M 70.171875 36.359375 
C 70.171875 59.375 56.671875 73.71875 38.0625 73.71875 
C 19.46875 73.71875 5.96875 59.375 5.96875 36.359375 
C 5.96875 13.359375 19.46875 -1 38.0625 -1 
C 42.828125 -1 47.234375 -0.078125 51.171875 1.703125 
L 57.53125 -6.8125 
L 67.1875 -6.8125 
L 57.703125 5.78125 
C 65.453125 12.140625 70.171875 22.734375 70.171875 36.359375 
z
M 35.234375 22.734375 
L 45.984375 8.59375 
C 43.53125 7.703125 40.875 7.25 38.0625 7.25 
C 24.859375 7.25 14.484375 17.46875 14.484375 36.359375 
C 14.484375 55.25 24.859375 65.484375 38.0625 65.484375 
C 51.28125 65.484375 61.65625 55.25 61.65625 36.359375 
C 61.65625 25.390625 58.171875 17.359375 52.625 12.53125 
L 44.890625 22.734375 
z
" id="Inter-Regular-81"/>
     </defs>
     <use xlink:href="#Inter-Regular-81"/>
     <use x="76.136383" xlink:href="#Inter-Regular-49"/>
     <use x="122.585251" xlink:href="#Inter-Regular-49"/>
    </g>
   </g>
   <g id="text_22">
    <!-- Q12 -->
    <g transform="translate(171.002366 14.255431)scale(0.05 -0.05)">
     <use xlink:href="#Inter-Regular-81"/>
     <use x="76.136383" xlink:href="#Inter-Regular-49"/>
     <use x="122.585251" xlink:href="#Inter-Regular-50"/>
    </g>
   </g>
   <g id="text_23">
    <!-- B1 -->
    <g transform="translate(184.552428 36.454631)scale(0.05 -0.05)">
     <defs>
      <path d="M 8.8125 0 
L 35.09375 0 
C 52.28125 0 59.375 8.375 59.375 19.3125 
C 59.375 30.828125 51.421875 37.078125 44.75 37.5 
L 44.75 38.203125 
C 51 39.921875 56.53125 44.03125 56.53125 53.40625 
C 56.53125 64.0625 49.4375 72.734375 34.234375 72.734375 
L 8.8125 72.734375 
z
M 17.609375 40.765625 
L 17.609375 64.921875 
L 34.234375 64.921875 
C 43.890625 64.921875 48.15625 59.796875 48.15625 53.40625 
C 48.15625 45.734375 41.90625 40.765625 33.953125 40.765625 
z
M 17.609375 7.8125 
L 17.609375 33.09375 
L 35.515625 33.09375 
C 45.03125 33.09375 51 26.703125 51 19.3125 
C 51 12.921875 46.59375 7.8125 35.09375 7.8125 
z
" id="Inter-Regular-66"/>
     </defs>
     <use xlink:href="#Inter-Regular-66"/>
     <use x="65.056839" xlink:href="#Inter-Regular-49"/>
    </g>
   </g>
   <g id="text_24">
    <!-- S4 -->
    <g transform="translate(193.842889 36.454631)scale(0.05 -0.05)">
     <defs>
      <path d="M 48.578125 54.546875 
L 57.109375 54.546875 
C 56.71875 65.515625 46.59375 73.71875 32.53125 73.71875 
C 18.609375 73.71875 7.671875 65.625 7.671875 53.40625 
C 7.671875 43.609375 14.78125 37.78125 26.140625 34.515625 
L 35.09375 31.953125 
C 42.75 29.828125 49.578125 27.125 49.578125 19.890625 
C 49.578125 11.9375 41.90625 6.671875 31.8125 6.671875 
C 23.15625 6.671875 15.484375 10.515625 14.78125 18.75 
L 5.6875 18.75 
C 6.53125 6.8125 16.1875 -1.28125 31.8125 -1.28125 
C 48.578125 -1.28125 58.09375 7.953125 58.09375 19.75 
C 58.09375 33.375 45.171875 37.78125 37.640625 39.765625 
L 30.25 41.765625 
C 24.859375 43.1875 16.1875 46.015625 16.1875 53.828125 
C 16.1875 60.796875 22.59375 65.90625 32.25 65.90625 
C 41.046875 65.90625 47.734375 61.71875 48.578125 54.546875 
z
" id="Inter-Regular-83"/>
      <path d="M 5.828125 14.921875 
L 40.0625 14.921875 
L 40.0625 0 
L 48.4375 0 
L 48.4375 14.921875 
L 58.375 14.921875 
L 58.375 22.734375 
L 48.4375 22.734375 
L 48.4375 72.734375 
L 37.78125 72.734375 
L 5.828125 22.15625 
z
M 15.34375 22.734375 
L 15.34375 23.296875 
L 39.484375 61.5 
L 40.0625 61.5 
L 40.0625 22.734375 
z
" id="Inter-Regular-52"/>
     </defs>
     <use xlink:href="#Inter-Regular-83"/>
     <use x="63.778427" xlink:href="#Inter-Regular-52"/>
    </g>
   </g>
   <g id="text_25">
    <!-- Q2 -->
    <g transform="translate(200.094212 14.255431)scale(0.05 -0.05)">
     <use xlink:href="#Inter-Regular-81"/>
     <use x="76.136383" xlink:href="#Inter-Regular-50"/>
    </g>
   </g>
   <g id="text_26">
    <!-- S1 -->
    <g transform="translate(211.04495 36.454631)scale(0.05 -0.05)">
     <use xlink:href="#Inter-Regular-83"/>
     <use x="63.778427" xlink:href="#Inter-Regular-49"/>
    </g>
   </g>
   <g id="text_27">
    <!-- S2 -->
    <g transform="translate(222.453605 36.454631)scale(0.05 -0.05)">
     <use xlink:href="#Inter-Regular-83"/>
     <use x="63.778427" xlink:href="#Inter-Regular-50"/>
    </g>
   </g>
   <g id="text_28">
    <!-- Q3 -->
    <g transform="translate(232.356687 14.255431)scale(0.05 -0.05)">
     <defs>
      <path d="M 32.109375 -1 
C 46.203125 -1 56.671875 7.84375 56.671875 19.75 
C 56.671875 28.984375 51.203125 35.6875 42.046875 37.21875 
L 42.046875 37.78125 
C 49.390625 40.015625 53.984375 46.0625 53.984375 54.265625 
C 53.984375 64.5625 45.84375 73.71875 32.390625 73.71875 
C 19.8125 73.71875 9.375 65.984375 8.953125 54.546875 
L 17.46875 54.546875 
C 17.796875 61.796875 24.6875 66.046875 32.25 66.046875 
C 40.265625 66.046875 45.453125 61.1875 45.453125 53.828125 
C 45.453125 46.171875 39.453125 41.1875 30.828125 41.1875 
L 25 41.1875 
L 25 33.375 
L 30.828125 33.375 
C 41.875 33.375 48.015625 27.765625 48.015625 19.75 
C 48.015625 12.03125 41.296875 6.8125 31.96875 6.8125 
C 23.546875 6.8125 16.875 11.15625 16.34375 18.1875 
L 7.390625 18.1875 
C 7.921875 6.75 18 -1 32.109375 -1 
z
" id="Inter-Regular-51"/>
     </defs>
     <use xlink:href="#Inter-Regular-81"/>
     <use x="76.136383" xlink:href="#Inter-Regular-51"/>
    </g>
   </g>
   <g id="text_29">
    <!-- S3 -->
    <g transform="translate(242.220849 36.454631)scale(0.05 -0.05)">
     <use xlink:href="#Inter-Regular-83"/>
     <use x="63.778427" xlink:href="#Inter-Regular-51"/>
    </g>
   </g>
   <g id="text_30">
    <!-- B2 -->
    <g transform="translate(259.172256 36.454631)scale(0.05 -0.05)">
     <use xlink:href="#Inter-Regular-66"/>
     <use x="65.056839" xlink:href="#Inter-Regular-50"/>
    </g>
   </g>
   <g id="text_31">
    <!-- Q4 -->
    <g transform="translate(279.383497 36.454631)scale(0.05 -0.05)">
     <use xlink:href="#Inter-Regular-81"/>
     <use x="76.136383" xlink:href="#Inter-Regular-52"/>
    </g>
   </g>
   <g id="text_32">
    <!-- B3 -->
    <g transform="translate(300.254895 36.454631)scale(0.05 -0.05)">
     <use xlink:href="#Inter-Regular-66"/>
     <use x="65.056839" xlink:href="#Inter-Regular-51"/>
    </g>
   </g>
   <g id="text_33">
    <!-- Q5 -->
    <g transform="translate(320.629417 36.454631)scale(0.05 -0.05)">
     <use xlink:href="#Inter-Regular-81"/>
     <use x="76.136383" xlink:href="#Inter-Regular-53"/>
    </g>
   </g>
   <g id="text_34">
    <!-- B4 -->
    <g transform="translate(341.401596 36.454631)scale(0.05 -0.05)">
     <use xlink:href="#Inter-Regular-66"/>
     <use x="65.056839" xlink:href="#Inter-Regular-52"/>
    </g>
   </g>
   <g id="text_35">
    <!-- Q6 -->
    <g transform="translate(361.751118 36.454631)scale(0.05 -0.05)">
     <defs>
      <path d="M 31.671875 -1 
C 46.375 -1.171875 55.96875 9.90625 55.96875 23.4375 
C 55.96875 37.5 45.5625 47.578125 33.09375 47.578125 
C 25.609375 47.578125 19.171875 43.921875 15.203125 37.921875 
L 14.625 37.921875 
C 14.671875 55.78125 21.5625 66.046875 32.8125 66.046875 
C 40.484375 66.046875 45.09375 61.21875 46.734375 54.546875 
L 55.40625 54.546875 
C 53.625 65.984375 45.03125 73.859375 32.8125 73.859375 
C 16.4375 73.859375 6.390625 59.375 6.390625 33.515625 
C 6.390625 6.640625 19.75 -0.859375 31.671875 -1 
z
M 31.671875 6.8125 
C 22.546875 6.8125 15.875 14.59375 15.90625 23.296875 
C 15.953125 32 22.9375 39.765625 31.96875 39.765625 
C 40.875 39.765625 47.4375 32.453125 47.4375 23.4375 
C 47.4375 14.203125 40.59375 6.8125 31.671875 6.8125 
z
" id="Inter-Regular-54"/>
     </defs>
     <use xlink:href="#Inter-Regular-81"/>
     <use x="76.136383" xlink:href="#Inter-Regular-54"/>
    </g>
   </g>
   <g id="text_36">
    <!-- B5 -->
    <g transform="translate(382.647516 36.454631)scale(0.05 -0.05)">
     <use xlink:href="#Inter-Regular-66"/>
     <use x="65.056839" xlink:href="#Inter-Regular-53"/>
    </g>
   </g>
   <g id="text_37">
    <!-- Q6 -->
    <g transform="translate(402.911882 36.454631)scale(0.05 -0.05)">
     <use xlink:href="#Inter-Regular-81"/>
     <use x="76.136383" xlink:href="#Inter-Regular-54"/>
    </g>
   </g>
   <g id="text_38">
    <!-- B4 -->
    <g transform="translate(423.723123 36.454631)scale(0.05 -0.05)">
     <use xlink:href="#Inter-Regular-66"/>
     <use x="65.056839" xlink:href="#Inter-Regular-52"/>
    </g>
   </g>
   <g id="text_39">
    <!-- Q5 -->
    <g transform="translate(444.111708 36.454631)scale(0.05 -0.05)">
     <use xlink:href="#Inter-Regular-81"/>
     <use x="76.136383" xlink:href="#Inter-Regular-53"/>
    </g>
   </g>
   <g id="text_40">
    <!-- B3 -->
    <g transform="translate(464.897949 36.454631)scale(0.05 -0.05)">
     <use xlink:href="#Inter-Regular-66"/>
     <use x="65.056839" xlink:href="#Inter-Regular-51"/>
    </g>
   </g>
   <g id="text_41">
    <!-- Q4 -->
    <g transform="translate(485.187315 36.454631)scale(0.05 -0.05)">
     <use xlink:href="#Inter-Regular-81"/>
     <use x="76.136383" xlink:href="#Inter-Regular-52"/>
    </g>
   </g>
   <g id="text_42">
    <!-- B2 -->
    <g transform="translate(506.136838 36.454631)scale(0.05 -0.05)">
     <use xlink:href="#Inter-Regular-66"/>
     <use x="65.056839" xlink:href="#Inter-Regular-50"/>
    </g>
   </g>
   <g id="text_43">
    <!-- S3 -->
    <g transform="translate(522.996058 36.454631)scale(0.05 -0.05)">
     <use xlink:href="#Inter-Regular-83"/>
     <use x="63.778427" xlink:href="#Inter-Regular-51"/>
    </g>
   </g>
   <g id="text_44">
    <!-- Q3 -->
    <g transform="translate(532.242251 14.255431)scale(0.05 -0.05)">
     <use xlink:href="#Inter-Regular-81"/>
     <use x="76.136383" xlink:href="#Inter-Regular-51"/>
    </g>
   </g>
   <g id="text_45">
    <!-- S2 -->
    <g transform="translate(542.919551 36.454631)scale(0.05 -0.05)">
     <use xlink:href="#Inter-Regular-83"/>
     <use x="63.778427" xlink:href="#Inter-Regular-50"/>
    </g>
   </g>
   <g id="text_46">
    <!-- S1 -->
    <g transform="translate(555.031332 36.454631)scale(0.05 -0.05)">
     <use xlink:href="#Inter-Regular-83"/>
     <use x="63.778427" xlink:href="#Inter-Regular-49"/>
    </g>
   </g>
   <g id="text_47">
    <!-- Q2 -->
    <g transform="translate(564.660976 14.255431)scale(0.05 -0.05)">
     <use xlink:href="#Inter-Regular-81"/>
     <use x="76.136383" xlink:href="#Inter-Regular-50"/>
    </g>
   </g>
   <g id="text_48">
    <!-- S4 -->
    <g transform="translate(571.345892 36.454631)scale(0.05 -0.05)">
     <use xlink:href="#Inter-Regular-83"/>
     <use x="63.778427" xlink:href="#Inter-Regular-52"/>
    </g>
   </g>
   <g id="text_49">
    <!-- B1 -->
    <g transform="translate(581.459791 36.454631)scale(0.05 -0.05)">
     <use xlink:href="#Inter-Regular-66"/>
     <use x="65.056839" xlink:href="#Inter-Regular-49"/>
    </g>
   </g>
   <g id="text_50">
    <!-- Q12 -->
    <g transform="translate(591.430166 14.255431)scale(0.05 -0.05)">
     <use xlink:href="#Inter-Regular-81"/>
     <use x="76.136383" xlink:href="#Inter-Regular-49"/>
     <use x="122.585251" xlink:href="#Inter-Regular-50"/>
    </g>
   </g>
   <g id="text_51">
    <!-- Q11 -->
    <g transform="translate(599.131864 14.255431)scale(0.05 -0.05)">
     <use xlink:href="#Inter-Regular-81"/>
     <use x="76.136383" xlink:href="#Inter-Regular-49"/>
     <use x="122.585251" xlink:href="#Inter-Regular-49"/>
    </g>
   </g>
  </g>
 </g>
 <defs>
  <clipPath id="pa22dc6d4c9">
   <rect height="221.992" width="646.812" x="62.388" y="24.048"/>
  </clipPath>
 </defs>
</svg>
