<?xml version="1.0" encoding="utf-8" standalone="no"?>
<!DOCTYPE svg PUBLIC "-//W3C//DTD SVG 1.1//EN"
  "http://www.w3.org/Graphics/SVG/1.1/DTD/svg11.dtd">
<!-- Created with matplotlib (https://matplotlib.org/) -->
<svg height="345.6pt" version="1.1" viewBox="0 0 576 345.6" width="576pt" xmlns="http://www.w3.org/2000/svg" xmlns:xlink="http://www.w3.org/1999/xlink">
 <metadata>
  <rdf:RDF xmlns:cc="http://creativecommons.org/ns#" xmlns:dc="http://purl.org/dc/elements/1.1/" xmlns:rdf="http://www.w3.org/1999/02/22-rdf-syntax-ns#">
   <cc:Work>
    <dc:type rdf:resource="http://purl.org/dc/dcmitype/StillImage"/>
    <dc:date>2020-12-15T11:56:07.605953</dc:date>
    <dc:format>image/svg+xml</dc:format>
    <dc:creator>
     <cc:Agent>
      <dc:title>Matplotlib v3.3.3, https://matplotlib.org/</dc:title>
     </cc:Agent>
    </dc:creator>
   </cc:Work>
  </rdf:RDF>
 </metadata>
 <defs>
  <style type="text/css">*{stroke-linecap:butt;stroke-linejoin:round;}</style>
 </defs>
 <g id="figure_1">
  <g id="patch_1">
   <path d="M 0 345.6 
L 576 345.6 
L 576 0 
L 0 0 
z
" style="fill:#ffffff;"/>
  </g>
  <g id="axes_1">
   <g id="patch_2">
    <path clip-path="url(#p89a7382eb1)" d="M 76.376471 209.185876 
L 145.875611 209.185876 
" style="stroke:#000000;stroke-linejoin:miter;"/>
   </g>
   <g id="patch_3">
    <path clip-path="url(#p89a7382eb1)" d="M 145.875611 209.185876 
L 148.37758 209.185876 
" style="fill:#ef4444;stroke:#ef4444;stroke-linejoin:miter;stroke-width:6;"/>
   </g>
   <g id="patch_4">
    <path clip-path="url(#p89a7382eb1)" d="M 148.37758 209.185876 
L 151.157546 209.185876 
" style="stroke:#000000;stroke-linejoin:miter;"/>
   </g>
   <g id="patch_5">
    <path clip-path="url(#p89a7382eb1)" d="M 151.157546 209.185876 
L 153.381518 209.185876 
" style="fill:#10b981;stroke:#10b981;stroke-linejoin:miter;stroke-width:6;"/>
   </g>
   <g id="patch_6">
    <path clip-path="url(#p89a7382eb1)" d="M 153.381518 209.185876 
L 156.161484 209.185876 
" style="stroke:#000000;stroke-linejoin:miter;"/>
   </g>
   <g id="patch_7">
    <path clip-path="url(#p89a7382eb1)" d="M 156.161484 209.185876 
L 162.833401 209.185876 
" style="fill:#ef4444;stroke:#ef4444;stroke-linejoin:miter;stroke-width:6;"/>
   </g>
   <g id="patch_8">
    <path clip-path="url(#p89a7382eb1)" d="M 162.833401 209.185876 
L 165.613367 209.185876 
" style="stroke:#000000;stroke-linejoin:miter;"/>
   </g>
   <g id="patch_9">
    <path clip-path="url(#p89a7382eb1)" d="M 165.613367 209.185876 
L 168.115336 209.185876 
" style="fill:#ef4444;stroke:#ef4444;stroke-linejoin:miter;stroke-width:6;"/>
   </g>
   <g id="patch_10">
    <path clip-path="url(#p89a7382eb1)" d="M 168.115336 209.185876 
L 170.895301 209.185876 
" style="stroke:#000000;stroke-linejoin:miter;"/>
   </g>
   <g id="patch_11">
    <path clip-path="url(#p89a7382eb1)" d="M 170.895301 209.185876 
L 173.119274 209.185876 
" style="fill:#10b981;stroke:#10b981;stroke-linejoin:miter;stroke-width:6;"/>
   </g>
   <g id="patch_12">
    <path clip-path="url(#p89a7382eb1)" d="M 173.119274 209.185876 
L 175.89924 209.185876 
" style="stroke:#000000;stroke-linejoin:miter;"/>
   </g>
   <g id="patch_13">
    <path clip-path="url(#p89a7382eb1)" d="M 175.89924 209.185876 
C 176.964903 209.185876 178.030536 209.174507 179.095957 209.151771 
C 180.161378 209.129036 181.226527 209.094934 182.29122 209.049473 
" style="fill:none;stroke:#fbbf24;stroke-linejoin:miter;stroke-width:6;"/>
   </g>
   <g id="patch_14">
    <path clip-path="url(#p89a7382eb1)" d="M 182.29122 209.049473 
L 185.068655 208.930879 
" style="stroke:#000000;stroke-linejoin:miter;"/>
   </g>
   <g id="patch_15">
    <path clip-path="url(#p89a7382eb1)" d="M 185.068655 208.930879 
L 188.67932 208.776708 
" style="fill:#ef4444;stroke:#ef4444;stroke-linejoin:miter;stroke-width:6;"/>
   </g>
   <g id="patch_16">
    <path clip-path="url(#p89a7382eb1)" d="M 188.67932 208.776708 
L 191.456755 208.658114 
" style="stroke:#000000;stroke-linejoin:miter;"/>
   </g>
   <g id="patch_17">
    <path clip-path="url(#p89a7382eb1)" d="M 191.456755 208.658114 
L 193.678703 208.56324 
" style="fill:#10b981;stroke:#10b981;stroke-linejoin:miter;stroke-width:6;"/>
   </g>
   <g id="patch_18">
    <path clip-path="url(#p89a7382eb1)" d="M 193.678703 208.56324 
L 196.456138 208.444646 
" style="stroke:#000000;stroke-linejoin:miter;"/>
   </g>
   <g id="patch_19">
    <path clip-path="url(#p89a7382eb1)" d="M 196.456138 208.444646 
L 200.900034 208.254897 
" style="fill:#ef4444;stroke:#ef4444;stroke-linejoin:miter;stroke-width:6;"/>
   </g>
   <g id="patch_20">
    <path clip-path="url(#p89a7382eb1)" d="M 200.900034 208.254897 
L 202.288751 208.1956 
" style="stroke:#000000;stroke-linejoin:miter;"/>
   </g>
   <g id="patch_21">
    <path clip-path="url(#p89a7382eb1)" d="M 202.288751 208.1956 
L 203.677469 208.136303 
" style="stroke:#000000;stroke-linejoin:miter;"/>
   </g>
   <g id="patch_22">
    <path clip-path="url(#p89a7382eb1)" d="M 203.677469 208.136303 
L 205.899416 208.041428 
" style="fill:#10b981;stroke:#10b981;stroke-linejoin:miter;stroke-width:6;"/>
   </g>
   <g id="patch_23">
    <path clip-path="url(#p89a7382eb1)" d="M 205.899416 208.041428 
L 208.676851 207.922835 
" style="stroke:#000000;stroke-linejoin:miter;"/>
   </g>
   <g id="patch_24">
    <path clip-path="url(#p89a7382eb1)" d="M 210.065672 207.866023 
C 209.834185 207.875077 209.602706 207.884339 209.371236 207.893808 
C 209.139766 207.903276 208.908304 207.912952 208.676851 207.922835 
" style="fill:none;stroke:#fbbf24;stroke-linejoin:miter;stroke-width:6;"/>
   </g>
   <g id="patch_25">
    <path clip-path="url(#p89a7382eb1)" d="M 210.065672 207.866023 
L 212.843513 207.757368 
" style="stroke:#000000;stroke-linejoin:miter;"/>
   </g>
   <g id="patch_26">
    <path clip-path="url(#p89a7382eb1)" d="M 212.843513 207.757368 
L 216.176923 207.626981 
" style="fill:#ef4444;stroke:#ef4444;stroke-linejoin:miter;stroke-width:6;"/>
   </g>
   <g id="patch_27">
    <path clip-path="url(#p89a7382eb1)" d="M 216.176923 207.626981 
L 218.954764 207.518326 
" style="stroke:#000000;stroke-linejoin:miter;"/>
   </g>
   <g id="patch_28">
    <path clip-path="url(#p89a7382eb1)" d="M 218.954764 207.518326 
L 221.177037 207.431402 
" style="fill:#10b981;stroke:#10b981;stroke-linejoin:miter;stroke-width:6;"/>
   </g>
   <g id="patch_29">
    <path clip-path="url(#p89a7382eb1)" d="M 221.177037 207.431402 
L 223.954879 207.322747 
" style="stroke:#000000;stroke-linejoin:miter;"/>
   </g>
   <g id="patch_30">
    <path clip-path="url(#p89a7382eb1)" d="M 223.954879 207.322747 
L 226.454936 207.224958 
" style="fill:#ef4444;stroke:#ef4444;stroke-linejoin:miter;stroke-width:6;"/>
   </g>
   <g id="patch_31">
    <path clip-path="url(#p89a7382eb1)" d="M 226.454936 207.224958 
L 229.232778 207.116303 
" style="stroke:#000000;stroke-linejoin:miter;"/>
   </g>
   <g id="patch_32">
    <path clip-path="url(#p89a7382eb1)" d="M 229.232778 207.116303 
C 231.362533 207.032997 233.49032 206.90528 235.614749 206.733235 
C 237.739178 206.561189 239.859788 206.344853 241.975194 206.084366 
" style="fill:none;stroke:#fbbf24;stroke-linejoin:miter;stroke-width:6;"/>
   </g>
   <g id="patch_33">
    <path clip-path="url(#p89a7382eb1)" d="M 241.975194 206.084366 
L 244.73432 205.744614 
" style="stroke:#000000;stroke-linejoin:miter;"/>
   </g>
   <g id="patch_34">
    <path clip-path="url(#p89a7382eb1)" d="M 244.73432 205.744614 
L 247.217534 205.438836 
" style="fill:#ef4444;stroke:#ef4444;stroke-linejoin:miter;stroke-width:6;"/>
   </g>
   <g id="patch_35">
    <path clip-path="url(#p89a7382eb1)" d="M 247.217534 205.438836 
L 249.97666 205.099084 
" style="stroke:#000000;stroke-linejoin:miter;"/>
   </g>
   <g id="patch_36">
    <path clip-path="url(#p89a7382eb1)" d="M 249.97666 205.099084 
L 252.183961 204.827281 
" style="fill:#10b981;stroke:#10b981;stroke-linejoin:miter;stroke-width:6;"/>
   </g>
   <g id="patch_37">
    <path clip-path="url(#p89a7382eb1)" d="M 252.183961 204.827281 
L 254.943087 204.487529 
" style="stroke:#000000;stroke-linejoin:miter;"/>
   </g>
   <g id="patch_38">
    <path clip-path="url(#p89a7382eb1)" d="M 254.943087 204.487529 
L 258.805864 204.011875 
" style="fill:#ef4444;stroke:#ef4444;stroke-linejoin:miter;stroke-width:6;"/>
   </g>
   <g id="patch_39">
    <path clip-path="url(#p89a7382eb1)" d="M 258.805864 204.011875 
L 261.56499 203.672122 
" style="stroke:#000000;stroke-linejoin:miter;"/>
   </g>
   <g id="patch_40">
    <path clip-path="url(#p89a7382eb1)" d="M 262.944854 203.504715 
C 262.714827 203.532204 262.484824 203.5599 262.254847 203.587801 
C 262.024869 203.615703 261.794917 203.64381 261.56499 203.672122 
" style="fill:none;stroke:#fbbf24;stroke-linejoin:miter;stroke-width:6;"/>
   </g>
   <g id="patch_41">
    <path clip-path="url(#p89a7382eb1)" d="M 262.944854 203.504715 
L 265.705178 203.174836 
" style="stroke:#000000;stroke-linejoin:miter;"/>
   </g>
   <g id="patch_42">
    <path clip-path="url(#p89a7382eb1)" d="M 265.705178 203.174836 
L 269.017567 202.778982 
" style="fill:#10b981;stroke:#10b981;stroke-linejoin:miter;stroke-width:6;"/>
   </g>
   <g id="patch_43">
    <path clip-path="url(#p89a7382eb1)" d="M 269.017567 202.778982 
L 271.777891 202.449104 
" style="stroke:#000000;stroke-linejoin:miter;"/>
   </g>
   <g id="patch_44">
    <path clip-path="url(#p89a7382eb1)" d="M 273.158345 202.286634 
C 272.928221 202.313301 272.698121 202.340173 272.468045 202.367252 
C 272.237969 202.39433 272.007918 202.421614 271.777891 202.449104 
" style="fill:none;stroke:#fbbf24;stroke-linejoin:miter;stroke-width:6;"/>
   </g>
   <g id="patch_45">
    <path clip-path="url(#p89a7382eb1)" d="M 273.158345 202.286634 
L 275.919832 201.966634 
" style="stroke:#000000;stroke-linejoin:miter;"/>
   </g>
   <g id="patch_46">
    <path clip-path="url(#p89a7382eb1)" d="M 275.919832 201.966634 
L 279.785913 201.518635 
" style="fill:#ef4444;stroke:#ef4444;stroke-linejoin:miter;stroke-width:6;"/>
   </g>
   <g id="patch_47">
    <path clip-path="url(#p89a7382eb1)" d="M 279.785913 201.518635 
L 282.5474 201.198635 
" style="stroke:#000000;stroke-linejoin:miter;"/>
   </g>
   <g id="patch_48">
    <path clip-path="url(#p89a7382eb1)" d="M 282.5474 201.198635 
L 284.756589 200.942635 
" style="fill:#10b981;stroke:#10b981;stroke-linejoin:miter;stroke-width:6;"/>
   </g>
   <g id="patch_49">
    <path clip-path="url(#p89a7382eb1)" d="M 284.756589 200.942635 
L 287.518076 200.622635 
" style="stroke:#000000;stroke-linejoin:miter;"/>
   </g>
   <g id="patch_50">
    <path clip-path="url(#p89a7382eb1)" d="M 287.518076 200.622635 
L 290.003414 200.334635 
" style="fill:#ef4444;stroke:#ef4444;stroke-linejoin:miter;stroke-width:6;"/>
   </g>
   <g id="patch_51">
    <path clip-path="url(#p89a7382eb1)" d="M 290.003414 200.334635 
L 292.764901 200.014635 
" style="stroke:#000000;stroke-linejoin:miter;"/>
   </g>
   <g id="patch_52">
    <path clip-path="url(#p89a7382eb1)" d="M 292.764901 200.014635 
C 294.882117 199.769293 296.993986 199.479819 299.09913 199.1464 
C 301.204274 198.812982 303.302235 198.435692 305.391644 198.014777 
" style="fill:none;stroke:#fbbf24;stroke-linejoin:miter;stroke-width:6;"/>
   </g>
   <g id="patch_53">
    <path clip-path="url(#p89a7382eb1)" d="M 305.391644 198.014777 
L 308.116861 197.465777 
" style="stroke:#000000;stroke-linejoin:miter;"/>
   </g>
   <g id="patch_54">
    <path clip-path="url(#p89a7382eb1)" d="M 308.116861 197.465777 
L 310.569556 196.971678 
" style="fill:#ef4444;stroke:#ef4444;stroke-linejoin:miter;stroke-width:6;"/>
   </g>
   <g id="patch_55">
    <path clip-path="url(#p89a7382eb1)" d="M 310.569556 196.971678 
L 313.294773 196.422678 
" style="stroke:#000000;stroke-linejoin:miter;"/>
   </g>
   <g id="patch_56">
    <path clip-path="url(#p89a7382eb1)" d="M 313.294773 196.422678 
L 315.474947 195.983479 
" style="fill:#10b981;stroke:#10b981;stroke-linejoin:miter;stroke-width:6;"/>
   </g>
   <g id="patch_57">
    <path clip-path="url(#p89a7382eb1)" d="M 315.474947 195.983479 
L 318.200164 195.434479 
" style="stroke:#000000;stroke-linejoin:miter;"/>
   </g>
   <g id="patch_58">
    <path clip-path="url(#p89a7382eb1)" d="M 318.200164 195.434479 
L 322.015468 194.66588 
" style="fill:#ef4444;stroke:#ef4444;stroke-linejoin:miter;stroke-width:6;"/>
   </g>
   <g id="patch_59">
    <path clip-path="url(#p89a7382eb1)" d="M 322.015468 194.66588 
L 324.740685 194.11688 
" style="stroke:#000000;stroke-linejoin:miter;"/>
   </g>
   <g id="patch_60">
    <path clip-path="url(#p89a7382eb1)" d="M 326.103782 193.844819 
C 325.876518 193.889756 325.649295 193.934896 325.422112 193.98024 
C 325.194929 194.025584 324.967787 194.07113 324.740685 194.11688 
" style="fill:none;stroke:#fbbf24;stroke-linejoin:miter;stroke-width:6;"/>
   </g>
   <g id="patch_61">
    <path clip-path="url(#p89a7382eb1)" d="M 326.103782 193.844819 
L 328.830946 193.305574 
" style="stroke:#000000;stroke-linejoin:miter;"/>
   </g>
   <g id="patch_62">
    <path clip-path="url(#p89a7382eb1)" d="M 328.830946 193.305574 
L 332.103543 192.658479 
" style="fill:#10b981;stroke:#10b981;stroke-linejoin:miter;stroke-width:6;"/>
   </g>
   <g id="patch_63">
    <path clip-path="url(#p89a7382eb1)" d="M 332.103543 192.658479 
L 334.830707 192.119234 
" style="stroke:#000000;stroke-linejoin:miter;"/>
   </g>
   <g id="patch_64">
    <path clip-path="url(#p89a7382eb1)" d="M 336.194768 191.852052 
C 335.967345 191.896175 335.739962 191.940502 335.512618 191.985033 
C 335.285274 192.029563 335.057971 192.074297 334.830707 192.119234 
" style="fill:none;stroke:#fbbf24;stroke-linejoin:miter;stroke-width:6;"/>
   </g>
   <g id="patch_65">
    <path clip-path="url(#p89a7382eb1)" d="M 336.194768 191.852052 
L 338.923844 191.322568 
" style="stroke:#000000;stroke-linejoin:miter;"/>
   </g>
   <g id="patch_66">
    <path clip-path="url(#p89a7382eb1)" d="M 338.923844 191.322568 
L 342.744551 190.58129 
" style="fill:#ef4444;stroke:#ef4444;stroke-linejoin:miter;stroke-width:6;"/>
   </g>
   <g id="patch_67">
    <path clip-path="url(#p89a7382eb1)" d="M 342.744551 190.58129 
L 345.473627 190.051806 
" style="stroke:#000000;stroke-linejoin:miter;"/>
   </g>
   <g id="patch_68">
    <path clip-path="url(#p89a7382eb1)" d="M 345.473627 190.051806 
L 347.656887 189.628219 
" style="fill:#10b981;stroke:#10b981;stroke-linejoin:miter;stroke-width:6;"/>
   </g>
   <g id="patch_69">
    <path clip-path="url(#p89a7382eb1)" d="M 347.656887 189.628219 
L 350.385963 189.098735 
" style="stroke:#000000;stroke-linejoin:miter;"/>
   </g>
   <g id="patch_70">
    <path clip-path="url(#p89a7382eb1)" d="M 350.385963 189.098735 
L 352.842132 188.622199 
" style="fill:#ef4444;stroke:#ef4444;stroke-linejoin:miter;stroke-width:6;"/>
   </g>
   <g id="patch_71">
    <path clip-path="url(#p89a7382eb1)" d="M 352.842132 188.622199 
L 355.571208 188.092715 
" style="stroke:#000000;stroke-linejoin:miter;"/>
   </g>
   <g id="patch_72">
    <path clip-path="url(#p89a7382eb1)" d="M 355.571208 188.092715 
C 357.663575 187.686763 359.747248 187.237214 361.820866 186.744361 
C 363.894485 186.251508 365.957599 185.715458 368.008861 185.136563 
" style="fill:none;stroke:#fbbf24;stroke-linejoin:miter;stroke-width:6;"/>
   </g>
   <g id="patch_73">
    <path clip-path="url(#p89a7382eb1)" d="M 368.008861 185.136563 
L 370.684324 184.381508 
" style="stroke:#000000;stroke-linejoin:miter;"/>
   </g>
   <g id="patch_74">
    <path clip-path="url(#p89a7382eb1)" d="M 370.684324 184.381508 
L 373.092241 183.701959 
" style="fill:#ef4444;stroke:#ef4444;stroke-linejoin:miter;stroke-width:6;"/>
   </g>
   <g id="patch_75">
    <path clip-path="url(#p89a7382eb1)" d="M 373.092241 183.701959 
L 375.767704 182.946905 
" style="stroke:#000000;stroke-linejoin:miter;"/>
   </g>
   <g id="patch_76">
    <path clip-path="url(#p89a7382eb1)" d="M 375.767704 182.946905 
L 377.908074 182.342861 
" style="fill:#10b981;stroke:#10b981;stroke-linejoin:miter;stroke-width:6;"/>
   </g>
   <g id="patch_77">
    <path clip-path="url(#p89a7382eb1)" d="M 377.908074 182.342861 
L 380.583537 181.587807 
" style="stroke:#000000;stroke-linejoin:miter;"/>
   </g>
   <g id="patch_78">
    <path clip-path="url(#p89a7382eb1)" d="M 380.583537 181.587807 
L 383.794093 180.681742 
" style="fill:#ef4444;stroke:#ef4444;stroke-linejoin:miter;stroke-width:6;"/>
   </g>
   <g id="patch_79">
    <path clip-path="url(#p89a7382eb1)" d="M 383.794093 180.681742 
L 386.469555 179.926687 
" style="stroke:#000000;stroke-linejoin:miter;"/>
   </g>
   <g id="patch_80">
    <path clip-path="url(#p89a7382eb1)" d="M 387.807959 179.551554 
C 387.584781 179.613677 387.361657 179.676 387.13859 179.738522 
C 386.915522 179.801045 386.692511 179.863766 386.469555 179.926687 
" style="fill:none;stroke:#fbbf24;stroke-linejoin:miter;stroke-width:6;"/>
   </g>
   <g id="patch_81">
    <path clip-path="url(#p89a7382eb1)" d="M 387.807959 179.551554 
L 390.486107 178.806078 
" style="stroke:#000000;stroke-linejoin:miter;"/>
   </g>
   <g id="patch_82">
    <path clip-path="url(#p89a7382eb1)" d="M 390.486107 178.806078 
L 392.628625 178.209696 
" style="fill:#10b981;stroke:#10b981;stroke-linejoin:miter;stroke-width:6;"/>
   </g>
   <g id="patch_83">
    <path clip-path="url(#p89a7382eb1)" d="M 392.628625 178.209696 
L 393.967698 177.836958 
" style="stroke:#000000;stroke-linejoin:miter;"/>
   </g>
   <g id="patch_84">
    <path clip-path="url(#p89a7382eb1)" d="M 393.967698 177.836958 
L 395.306772 177.464219 
" style="stroke:#000000;stroke-linejoin:miter;"/>
   </g>
   <g id="patch_85">
    <path clip-path="url(#p89a7382eb1)" d="M 395.306772 177.464219 
L 399.591808 176.271457 
" style="fill:#ef4444;stroke:#ef4444;stroke-linejoin:miter;stroke-width:6;"/>
   </g>
   <g id="patch_86">
    <path clip-path="url(#p89a7382eb1)" d="M 399.591808 176.271457 
L 402.269955 175.52598 
" style="stroke:#000000;stroke-linejoin:miter;"/>
   </g>
   <g id="patch_87">
    <path clip-path="url(#p89a7382eb1)" d="M 402.269955 175.52598 
L 404.412473 174.929599 
" style="fill:#10b981;stroke:#10b981;stroke-linejoin:miter;stroke-width:6;"/>
   </g>
   <g id="patch_88">
    <path clip-path="url(#p89a7382eb1)" d="M 404.412473 174.929599 
L 407.09062 174.184122 
" style="stroke:#000000;stroke-linejoin:miter;"/>
   </g>
   <g id="patch_89">
    <path clip-path="url(#p89a7382eb1)" d="M 407.09062 174.184122 
L 410.572212 173.215002 
" style="fill:#ef4444;stroke:#ef4444;stroke-linejoin:miter;stroke-width:6;"/>
   </g>
   <g id="patch_90">
    <path clip-path="url(#p89a7382eb1)" d="M 410.572212 173.215002 
L 413.250359 172.469525 
" style="stroke:#000000;stroke-linejoin:miter;"/>
   </g>
   <g id="patch_91">
    <path clip-path="url(#p89a7382eb1)" d="M 413.250359 172.469525 
C 414.276992 172.183757 415.300547 171.887043 416.32085 171.579437 
C 417.341152 171.27183 418.358144 170.953347 419.371651 170.624042 
" style="fill:none;stroke:#fbbf24;stroke-linejoin:miter;stroke-width:6;"/>
   </g>
   <g id="patch_92">
    <path clip-path="url(#p89a7382eb1)" d="M 419.371651 170.624042 
L 422.015558 169.764994 
" style="stroke:#000000;stroke-linejoin:miter;"/>
   </g>
   <g id="patch_93">
    <path clip-path="url(#p89a7382eb1)" d="M 422.015558 169.764994 
L 424.130684 169.077755 
" style="fill:#10b981;stroke:#10b981;stroke-linejoin:miter;stroke-width:6;"/>
   </g>
   <g id="patch_94">
    <path clip-path="url(#p89a7382eb1)" d="M 424.130684 169.077755 
L 426.774591 168.218708 
" style="stroke:#000000;stroke-linejoin:miter;"/>
   </g>
   <g id="patch_95">
    <path clip-path="url(#p89a7382eb1)" d="M 426.774591 168.218708 
L 429.154108 167.445564 
" style="fill:#ef4444;stroke:#ef4444;stroke-linejoin:miter;stroke-width:6;"/>
   </g>
   <g id="patch_96">
    <path clip-path="url(#p89a7382eb1)" d="M 429.154108 167.445564 
L 431.798015 166.586516 
" style="stroke:#000000;stroke-linejoin:miter;"/>
   </g>
   <g id="patch_97">
    <path clip-path="url(#p89a7382eb1)" d="M 431.798015 166.586516 
L 438.143392 164.524801 
" style="fill:#ef4444;stroke:#ef4444;stroke-linejoin:miter;stroke-width:6;"/>
   </g>
   <g id="patch_98">
    <path clip-path="url(#p89a7382eb1)" d="M 438.143392 164.524801 
L 440.787299 163.665753 
" style="stroke:#000000;stroke-linejoin:miter;"/>
   </g>
   <g id="patch_99">
    <path clip-path="url(#p89a7382eb1)" d="M 440.787299 163.665753 
L 442.902425 162.978515 
" style="fill:#10b981;stroke:#10b981;stroke-linejoin:miter;stroke-width:6;"/>
   </g>
   <g id="patch_100">
    <path clip-path="url(#p89a7382eb1)" d="M 442.902425 162.978515 
L 445.546332 162.119467 
" style="stroke:#000000;stroke-linejoin:miter;"/>
   </g>
   <g id="patch_101">
    <path clip-path="url(#p89a7382eb1)" d="M 445.546332 162.119467 
L 447.925849 161.346324 
" style="fill:#ef4444;stroke:#ef4444;stroke-linejoin:miter;stroke-width:6;"/>
   </g>
   <g id="patch_102">
    <path clip-path="url(#p89a7382eb1)" d="M 447.925849 161.346324 
L 514.023529 139.870124 
" style="stroke:#000000;stroke-linejoin:miter;"/>
   </g>
   <g id="text_1">
    <!-- uq3 -->
    <g transform="translate(141.646439 224.683673)scale(0.06 -0.06)">
     <defs>
      <path d="M 42.046875 22.296875 
C 42.046875 12.078125 34.234375 7.390625 27.984375 7.390625 
C 21.03125 7.390625 16.046875 12.5 16.046875 20.453125 
L 16.046875 54.546875 
L 7.671875 54.546875 
L 7.671875 19.890625 
C 7.671875 5.96875 15.0625 -0.703125 25.28125 -0.703125 
C 33.53125 -0.703125 38.921875 3.6875 41.484375 9.234375 
L 42.046875 9.234375 
L 42.046875 0 
L 50.421875 0 
L 50.421875 54.546875 
L 42.046875 54.546875 
z
" id="Inter-Regular-117"/>
      <path d="M 53.265625 -20.453125 
L 53.265625 54.546875 
L 45.171875 54.546875 
L 45.171875 45.875 
L 44.171875 45.875 
C 42.328125 48.71875 39.0625 55.25 28.40625 55.25 
C 14.625 55.25 5.109375 44.3125 5.109375 27.125 
C 5.109375 9.796875 14.625 -1.140625 28.265625 -1.140625 
C 38.78125 -1.140625 42.328125 5.390625 44.171875 8.375 
L 44.890625 8.375 
L 44.890625 -20.453125 
z
M 45.03125 27.265625 
C 45.03125 14.921875 39.484375 6.390625 29.40625 6.390625 
C 18.890625 6.390625 13.5 15.625 13.5 27.265625 
C 13.5 38.78125 18.75 47.734375 29.40625 47.734375 
C 39.625 47.734375 45.03125 39.484375 45.03125 27.265625 
z
" id="Inter-Regular-113"/>
      <path d="M 32.109375 -1 
C 46.203125 -1 56.671875 7.84375 56.671875 19.75 
C 56.671875 28.984375 51.203125 35.6875 42.046875 37.21875 
L 42.046875 37.78125 
C 49.390625 40.015625 53.984375 46.0625 53.984375 54.265625 
C 53.984375 64.5625 45.84375 73.71875 32.390625 73.71875 
C 19.8125 73.71875 9.375 65.984375 8.953125 54.546875 
L 17.46875 54.546875 
C 17.796875 61.796875 24.6875 66.046875 32.25 66.046875 
C 40.265625 66.046875 45.453125 61.1875 45.453125 53.828125 
C 45.453125 46.171875 39.453125 41.1875 30.828125 41.1875 
L 25 41.1875 
L 25 33.375 
L 30.828125 33.375 
C 41.875 33.375 48.015625 27.765625 48.015625 19.75 
C 48.015625 12.03125 41.296875 6.8125 31.96875 6.8125 
C 23.546875 6.8125 16.875 11.15625 16.34375 18.1875 
L 7.390625 18.1875 
C 7.921875 6.75 18 -1 32.109375 -1 
z
" id="Inter-Regular-51"/>
     </defs>
     <use xlink:href="#Inter-Regular-117"/>
     <use x="58.096603" xlink:href="#Inter-Regular-113"/>
     <use x="119.034119" xlink:href="#Inter-Regular-51"/>
    </g>
   </g>
   <g id="text_2">
    <!-- uq2 -->
    <g transform="translate(154.111036 196.884017)scale(0.06 -0.06)">
     <defs>
      <path d="M 7.53125 0 
L 53.40625 0 
L 53.40625 7.8125 
L 19.609375 7.8125 
L 19.609375 8.375 
L 35.9375 25.859375 
C 48.4375 39.234375 52.125 45.484375 52.125 53.546875 
C 52.125 64.765625 43.046875 73.71875 30.25 73.71875 
C 17.515625 73.71875 7.8125 65.0625 7.8125 52.265625 
L 16.1875 52.265625 
C 16.1875 60.546875 21.5625 66.046875 29.96875 66.046875 
C 37.859375 66.046875 43.890625 61.21875 43.890625 53.546875 
C 43.890625 46.84375 39.953125 41.875 31.53125 32.671875 
L 7.53125 6.390625 
z
" id="Inter-Regular-50"/>
     </defs>
     <use xlink:href="#Inter-Regular-117"/>
     <use x="58.096603" xlink:href="#Inter-Regular-113"/>
     <use x="119.034119" xlink:href="#Inter-Regular-50"/>
    </g>
   </g>
   <g id="text_3">
    <!-- uq1 -->
    <g transform="translate(161.89982 224.654142)scale(0.06 -0.06)">
     <defs>
      <path d="M 33.09375 72.734375 
L 24.296875 72.734375 
L 6.109375 60.65625 
L 6.109375 51.703125 
L 23.859375 63.5 
L 24.296875 63.5 
L 24.296875 0 
L 33.09375 0 
z
" id="Inter-Regular-49"/>
     </defs>
     <use xlink:href="#Inter-Regular-117"/>
     <use x="58.096603" xlink:href="#Inter-Regular-113"/>
     <use x="119.034119" xlink:href="#Inter-Regular-49"/>
    </g>
   </g>
   <g id="text_4">
    <!-- mb0 -->
    <g transform="translate(172.45321 196.789448)scale(0.06 -0.06)">
     <defs>
      <path d="M 7.671875 0 
L 16.046875 0 
L 16.046875 34.09375 
C 16.046875 42.078125 21.875 47.734375 28.40625 47.734375 
C 34.765625 47.734375 39.203125 43.578125 39.203125 37.359375 
L 39.203125 0 
L 47.734375 0 
L 47.734375 35.515625 
C 47.734375 42.546875 52.125 47.734375 59.796875 47.734375 
C 65.765625 47.734375 70.875 44.5625 70.875 36.5 
L 70.875 0 
L 79.265625 0 
L 79.265625 36.5 
C 79.265625 49.328125 72.375 55.25 62.640625 55.25 
C 54.828125 55.25 49.109375 51.671875 46.3125 46.015625 
L 45.734375 46.015625 
C 43.046875 51.84375 38.28125 55.25 31.109375 55.25 
C 24 55.25 18.75 51.84375 16.484375 46.015625 
L 15.765625 46.015625 
L 15.765625 54.546875 
L 7.671875 54.546875 
z
" id="Inter-Regular-109"/>
      <path d="M 8.8125 0 
L 16.90625 0 
L 16.90625 8.375 
L 17.90625 8.375 
C 19.75 5.390625 23.296875 -1.140625 33.8125 -1.140625 
C 47.4375 -1.140625 56.96875 9.796875 56.96875 27.125 
C 56.96875 44.3125 47.4375 55.25 33.671875 55.25 
C 23.015625 55.25 19.75 48.71875 17.90625 45.875 
L 17.1875 45.875 
L 17.1875 72.734375 
L 8.8125 72.734375 
z
M 17.046875 27.265625 
C 17.046875 39.484375 22.4375 47.734375 32.671875 47.734375 
C 43.328125 47.734375 48.578125 38.78125 48.578125 27.265625 
C 48.578125 15.625 43.1875 6.390625 32.671875 6.390625 
C 22.59375 6.390625 17.046875 14.921875 17.046875 27.265625 
z
" id="Inter-Regular-98"/>
      <path d="M 31.25 -1 
C 47.296875 -1 56.53125 12.609375 56.53125 36.359375 
C 56.53125 59.9375 47.15625 73.71875 31.25 73.71875 
C 15.34375 73.71875 5.96875 59.9375 5.96875 36.359375 
C 5.96875 12.609375 15.203125 -1 31.25 -1 
z
M 31.25 6.8125 
C 20.671875 6.8125 14.484375 17.4375 14.484375 36.359375 
C 14.484375 55.25 20.734375 66.046875 31.25 66.046875 
C 41.765625 66.046875 48.015625 55.25 48.015625 36.359375 
C 48.015625 17.4375 41.828125 6.8125 31.25 6.8125 
z
" id="Inter-Regular-48"/>
     </defs>
     <use xlink:href="#Inter-Regular-109"/>
     <use x="86.931839" xlink:href="#Inter-Regular-98"/>
     <use x="149.005722" xlink:href="#Inter-Regular-48"/>
    </g>
   </g>
   <g id="text_5">
    <!-- mq1 -->
    <g transform="translate(181.637111 224.309405)scale(0.06 -0.06)">
     <use xlink:href="#Inter-Regular-109"/>
     <use x="86.931839" xlink:href="#Inter-Regular-113"/>
     <use x="147.869354" xlink:href="#Inter-Regular-49"/>
    </g>
   </g>
   <g id="text_6">
    <!-- mq2 -->
    <g transform="translate(191.8334 196.060566)scale(0.06 -0.06)">
     <use xlink:href="#Inter-Regular-109"/>
     <use x="86.931839" xlink:href="#Inter-Regular-113"/>
     <use x="147.869354" xlink:href="#Inter-Regular-50"/>
    </g>
   </g>
   <g id="text_7">
    <!-- b1 -->
    <g transform="translate(206.683446 223.351079)scale(0.06 -0.06)">
     <use xlink:href="#Inter-Regular-98"/>
     <use x="62.073883" xlink:href="#Inter-Regular-49"/>
    </g>
   </g>
   <g id="text_8">
    <!-- q1a -->
    <g transform="translate(209.053505 195.371405)scale(0.06 -0.06)">
     <defs>
      <path d="M 23.71875 -1.28125 
C 33.234375 -1.28125 38.21875 3.828125 39.921875 7.390625 
L 40.34375 7.390625 
L 40.34375 0 
L 48.71875 0 
L 48.71875 35.9375 
C 48.71875 53.265625 35.515625 55.25 28.546875 55.25 
C 20.3125 55.25 10.9375 52.421875 6.671875 42.46875 
L 14.625 39.625 
C 16.484375 43.609375 20.84375 47.875 28.84375 47.875 
C 36.546875 47.875 40.34375 43.78125 40.34375 36.796875 
L 40.34375 36.5 
C 40.34375 32.453125 36.21875 32.8125 26.28125 31.53125 
C 16.15625 30.21875 5.109375 27.984375 5.109375 15.484375 
C 5.109375 4.828125 13.359375 -1.28125 23.71875 -1.28125 
z
M 25 6.25 
C 18.328125 6.25 13.5 9.234375 13.5 15.0625 
C 13.5 21.453125 19.3125 23.4375 25.859375 24.296875 
C 29.40625 24.71875 38.921875 25.703125 40.34375 27.421875 
L 40.34375 19.75 
C 40.34375 12.921875 34.9375 6.25 25 6.25 
z
" id="Inter-Regular-97"/>
     </defs>
     <use xlink:href="#Inter-Regular-113"/>
     <use x="60.937515" xlink:href="#Inter-Regular-49"/>
     <use x="107.386383" xlink:href="#Inter-Regular-97"/>
    </g>
   </g>
   <g id="text_9">
    <!-- q0 -->
    <g transform="translate(222.045058 222.761028)scale(0.06 -0.06)">
     <use xlink:href="#Inter-Regular-113"/>
     <use x="60.937515" xlink:href="#Inter-Regular-48"/>
    </g>
   </g>
   <g id="text_10">
    <!-- b0 -->
    <g transform="translate(230.744647 194.314302)scale(0.06 -0.06)">
     <use xlink:href="#Inter-Regular-98"/>
     <use x="62.073883" xlink:href="#Inter-Regular-48"/>
    </g>
   </g>
   <g id="text_11">
    <!-- q0 -->
    <g transform="translate(243.971565 220.985324)scale(0.06 -0.06)">
     <use xlink:href="#Inter-Regular-113"/>
     <use x="60.937515" xlink:href="#Inter-Regular-48"/>
    </g>
   </g>
   <g id="text_12">
    <!-- q1 -->
    <g transform="translate(251.953993 192.022509)scale(0.06 -0.06)">
     <use xlink:href="#Inter-Regular-113"/>
     <use x="60.937515" xlink:href="#Inter-Regular-49"/>
    </g>
   </g>
   <g id="text_13">
    <!-- b1 -->
    <g transform="translate(260.673064 218.955504)scale(0.06 -0.06)">
     <use xlink:href="#Inter-Regular-98"/>
     <use x="62.073883" xlink:href="#Inter-Regular-49"/>
    </g>
   </g>
   <g id="text_14">
    <!-- b1 -->
    <g transform="translate(267.587482 190.131757)scale(0.06 -0.06)">
     <use xlink:href="#Inter-Regular-98"/>
     <use x="62.073883" xlink:href="#Inter-Regular-49"/>
    </g>
   </g>
   <g id="text_15">
    <!-- q1 -->
    <g transform="translate(276.231153 217.118506)scale(0.06 -0.06)">
     <use xlink:href="#Inter-Regular-113"/>
     <use x="60.937515" xlink:href="#Inter-Regular-49"/>
    </g>
   </g>
   <g id="text_16">
    <!-- q0 -->
    <g transform="translate(283.457621 188.26917)scale(0.06 -0.06)">
     <use xlink:href="#Inter-Regular-113"/>
     <use x="60.937515" xlink:href="#Inter-Regular-48"/>
    </g>
   </g>
   <g id="text_17">
    <!-- b0 -->
    <g transform="translate(297.515318 214.311845)scale(0.06 -0.06)">
     <use xlink:href="#Inter-Regular-98"/>
     <use x="62.073883" xlink:href="#Inter-Regular-48"/>
    </g>
   </g>
   <g id="text_18">
    <!-- q0 -->
    <g transform="translate(302.895086 185.190611)scale(0.06 -0.06)">
     <use xlink:href="#Inter-Regular-113"/>
     <use x="60.937515" xlink:href="#Inter-Regular-48"/>
    </g>
   </g>
   <g id="text_19">
    <!-- q1 -->
    <g transform="translate(319.631095 210.244703)scale(0.06 -0.06)">
     <use xlink:href="#Inter-Regular-113"/>
     <use x="60.937515" xlink:href="#Inter-Regular-49"/>
    </g>
   </g>
   <g id="text_20">
    <!-- b1 -->
    <g transform="translate(319.44568 181.918313)scale(0.06 -0.06)">
     <use xlink:href="#Inter-Regular-98"/>
     <use x="62.073883" xlink:href="#Inter-Regular-49"/>
    </g>
   </g>
   <g id="text_21">
    <!-- b1 -->
    <g transform="translate(334.928627 207.194702)scale(0.06 -0.06)">
     <use xlink:href="#Inter-Regular-98"/>
     <use x="62.073883" xlink:href="#Inter-Regular-49"/>
    </g>
   </g>
   <g id="text_22">
    <!-- q1 -->
    <g transform="translate(334.965059 178.874987)scale(0.06 -0.06)">
     <use xlink:href="#Inter-Regular-113"/>
     <use x="60.937515" xlink:href="#Inter-Regular-49"/>
    </g>
   </g>
   <g id="text_23">
    <!-- q0 -->
    <g transform="translate(350.558342 204.103816)scale(0.06 -0.06)">
     <use xlink:href="#Inter-Regular-113"/>
     <use x="60.937515" xlink:href="#Inter-Regular-48"/>
    </g>
   </g>
   <g id="text_24">
    <!-- b0 -->
    <g transform="translate(354.838549 174.659966)scale(0.06 -0.06)">
     <use xlink:href="#Inter-Regular-98"/>
     <use x="62.073883" xlink:href="#Inter-Regular-48"/>
    </g>
   </g>
   <g id="text_25">
    <!-- q0 -->
    <g transform="translate(371.960429 199.017017)scale(0.06 -0.06)">
     <use xlink:href="#Inter-Regular-113"/>
     <use x="60.937515" xlink:href="#Inter-Regular-48"/>
    </g>
   </g>
   <g id="text_26">
    <!-- q1a -->
    <g transform="translate(373.500106 169.325897)scale(0.06 -0.06)">
     <use xlink:href="#Inter-Regular-113"/>
     <use x="60.937515" xlink:href="#Inter-Regular-49"/>
     <use x="107.386383" xlink:href="#Inter-Regular-97"/>
    </g>
   </g>
   <g id="text_27">
    <!-- b1 -->
    <g transform="translate(387.634154 194.691605)scale(0.06 -0.06)">
     <use xlink:href="#Inter-Regular-98"/>
     <use x="62.073883" xlink:href="#Inter-Regular-49"/>
    </g>
   </g>
   <g id="text_28">
    <!-- mq2 -->
    <g transform="translate(387.470188 165.07507)scale(0.06 -0.06)">
     <use xlink:href="#Inter-Regular-109"/>
     <use x="86.931839" xlink:href="#Inter-Regular-113"/>
     <use x="147.869354" xlink:href="#Inter-Regular-50"/>
    </g>
   </g>
   <g id="text_29">
    <!-- mq1 -->
    <g transform="translate(406.728956 188.658736)scale(0.06 -0.06)">
     <use xlink:href="#Inter-Regular-109"/>
     <use x="86.931839" xlink:href="#Inter-Regular-113"/>
     <use x="147.869354" xlink:href="#Inter-Regular-49"/>
    </g>
   </g>
   <g id="text_30">
    <!-- mb0 -->
    <g transform="translate(405.953311 159.807056)scale(0.06 -0.06)">
     <use xlink:href="#Inter-Regular-109"/>
     <use x="86.931839" xlink:href="#Inter-Regular-98"/>
     <use x="149.005722" xlink:href="#Inter-Regular-48"/>
    </g>
   </g>
   <g id="text_31">
    <!-- uq1 -->
    <g transform="translate(427.295058 182.620109)scale(0.06 -0.06)">
     <use xlink:href="#Inter-Regular-117"/>
     <use x="58.096603" xlink:href="#Inter-Regular-113"/>
     <use x="119.034119" xlink:href="#Inter-Regular-49"/>
    </g>
   </g>
   <g id="text_32">
    <!-- uq2 -->
    <g transform="translate(425.289057 153.934091)scale(0.06 -0.06)">
     <use xlink:href="#Inter-Regular-117"/>
     <use x="58.096603" xlink:href="#Inter-Regular-113"/>
     <use x="119.034119" xlink:href="#Inter-Regular-50"/>
    </g>
   </g>
   <g id="text_33">
    <!-- uq3 -->
    <g transform="translate(445.551174 176.5504)scale(0.06 -0.06)">
     <use xlink:href="#Inter-Regular-117"/>
     <use x="58.096603" xlink:href="#Inter-Regular-113"/>
     <use x="119.034119" xlink:href="#Inter-Regular-51"/>
    </g>
   </g>
  </g>
 </g>
 <defs>
  <clipPath id="p89a7382eb1">
   <rect height="78.068693" width="446.4" x="72" y="135.493653"/>
  </clipPath>
 </defs>
</svg>
