<?xml version="1.0" encoding="utf-8" standalone="no"?>
<!DOCTYPE svg PUBLIC "-//W3C//DTD SVG 1.1//EN"
  "http://www.w3.org/Graphics/SVG/1.1/DTD/svg11.dtd">
<!-- Created with matplotlib (https://matplotlib.org/) -->
<svg height="345.6pt" version="1.1" viewBox="0 0 460.8 345.6" width="460.8pt" xmlns="http://www.w3.org/2000/svg" xmlns:xlink="http://www.w3.org/1999/xlink">
 <metadata>
  <rdf:RDF xmlns:cc="http://creativecommons.org/ns#" xmlns:dc="http://purl.org/dc/elements/1.1/" xmlns:rdf="http://www.w3.org/1999/02/22-rdf-syntax-ns#">
   <cc:Work>
    <dc:type rdf:resource="http://purl.org/dc/dcmitype/StillImage"/>
    <dc:date>2020-12-08T15:37:29.616619</dc:date>
    <dc:format>image/svg+xml</dc:format>
    <dc:creator>
     <cc:Agent>
      <dc:title>Matplotlib v3.3.3, https://matplotlib.org/</dc:title>
     </cc:Agent>
    </dc:creator>
   </cc:Work>
  </rdf:RDF>
 </metadata>
 <defs>
  <style type="text/css">*{stroke-linecap:butt;stroke-linejoin:round;}</style>
 </defs>
 <g id="figure_1">
  <g id="patch_1">
   <path d="M 0 345.6 
L 460.8 345.6 
L 460.8 0 
L 0 0 
z
" style="fill:#ffffff;"/>
  </g>
  <g id="axes_1">
   <g id="patch_2">
    <path clip-path="url(#pc27f58547b)" d="M 73.832727 200.237843 
L 125.388453 200.237843 
" style="stroke:#000000;stroke-linejoin:miter;stroke-width:0.5;"/>
   </g>
   <g id="patch_3">
    <path clip-path="url(#pc27f58547b)" d="M 125.388453 200.237843 
L 127.244459 200.237843 
" style="fill:#ef4444;stroke:#ef4444;stroke-linejoin:miter;stroke-width:3;"/>
   </g>
   <g id="patch_4">
    <path clip-path="url(#pc27f58547b)" d="M 127.244459 200.237843 
L 129.306688 200.237843 
" style="stroke:#000000;stroke-linejoin:miter;stroke-width:0.5;"/>
   </g>
   <g id="patch_5">
    <path clip-path="url(#pc27f58547b)" d="M 129.306688 200.237843 
L 130.956472 200.237843 
" style="fill:#10b981;stroke:#10b981;stroke-linejoin:miter;stroke-width:3;"/>
   </g>
   <g id="patch_6">
    <path clip-path="url(#pc27f58547b)" d="M 130.956472 200.237843 
L 133.018701 200.237843 
" style="stroke:#000000;stroke-linejoin:miter;stroke-width:0.5;"/>
   </g>
   <g id="patch_7">
    <path clip-path="url(#pc27f58547b)" d="M 133.018701 200.237843 
L 137.96805 200.237843 
" style="fill:#ef4444;stroke:#ef4444;stroke-linejoin:miter;stroke-width:3;"/>
   </g>
   <g id="patch_8">
    <path clip-path="url(#pc27f58547b)" d="M 137.96805 200.237843 
L 140.030279 200.237843 
" style="stroke:#000000;stroke-linejoin:miter;stroke-width:0.5;"/>
   </g>
   <g id="patch_9">
    <path clip-path="url(#pc27f58547b)" d="M 140.030279 200.237843 
L 141.886286 200.237843 
" style="fill:#ef4444;stroke:#ef4444;stroke-linejoin:miter;stroke-width:3;"/>
   </g>
   <g id="patch_10">
    <path clip-path="url(#pc27f58547b)" d="M 141.886286 200.237843 
L 143.948515 200.237843 
" style="stroke:#000000;stroke-linejoin:miter;stroke-width:0.5;"/>
   </g>
   <g id="patch_11">
    <path clip-path="url(#pc27f58547b)" d="M 143.948515 200.237843 
L 145.598298 200.237843 
" style="fill:#10b981;stroke:#10b981;stroke-linejoin:miter;stroke-width:3;"/>
   </g>
   <g id="patch_12">
    <path clip-path="url(#pc27f58547b)" d="M 145.598298 200.237843 
L 147.660527 200.237843 
" style="stroke:#000000;stroke-linejoin:miter;stroke-width:0.5;"/>
   </g>
   <g id="patch_13">
    <path clip-path="url(#pc27f58547b)" d="M 147.660527 200.237843 
C 148.451055 200.237843 149.241562 200.229409 150.03191 200.212543 
C 150.822259 200.195677 151.612405 200.17038 152.402214 200.136656 
" style="fill:none;stroke:#fbbf24;stroke-linejoin:miter;stroke-width:3;"/>
   </g>
   <g id="patch_14">
    <path clip-path="url(#pc27f58547b)" d="M 152.402214 200.136656 
L 154.462566 200.048681 
" style="stroke:#000000;stroke-linejoin:miter;stroke-width:0.5;"/>
   </g>
   <g id="patch_15">
    <path clip-path="url(#pc27f58547b)" d="M 154.462566 200.048681 
L 157.141023 199.934314 
" style="fill:#ef4444;stroke:#ef4444;stroke-linejoin:miter;stroke-width:3;"/>
   </g>
   <g id="patch_16">
    <path clip-path="url(#pc27f58547b)" d="M 157.141023 199.934314 
L 159.201375 199.846339 
" style="stroke:#000000;stroke-linejoin:miter;stroke-width:0.5;"/>
   </g>
   <g id="patch_17">
    <path clip-path="url(#pc27f58547b)" d="M 159.201375 199.846339 
L 160.849656 199.77596 
" style="fill:#10b981;stroke:#10b981;stroke-linejoin:miter;stroke-width:3;"/>
   </g>
   <g id="patch_18">
    <path clip-path="url(#pc27f58547b)" d="M 160.849656 199.77596 
L 162.910008 199.687985 
" style="stroke:#000000;stroke-linejoin:miter;stroke-width:0.5;"/>
   </g>
   <g id="patch_19">
    <path clip-path="url(#pc27f58547b)" d="M 162.910008 199.687985 
L 166.20657 199.547225 
" style="fill:#ef4444;stroke:#ef4444;stroke-linejoin:miter;stroke-width:3;"/>
   </g>
   <g id="patch_20">
    <path clip-path="url(#pc27f58547b)" d="M 166.20657 199.547225 
L 167.236746 199.503238 
" style="stroke:#000000;stroke-linejoin:miter;stroke-width:0.5;"/>
   </g>
   <g id="patch_21">
    <path clip-path="url(#pc27f58547b)" d="M 167.236746 199.503238 
L 168.266922 199.45925 
" style="stroke:#000000;stroke-linejoin:miter;stroke-width:0.5;"/>
   </g>
   <g id="patch_22">
    <path clip-path="url(#pc27f58547b)" d="M 168.266922 199.45925 
L 169.091063 199.42406 
" style="fill:#10b981;stroke:#10b981;stroke-linejoin:miter;stroke-width:3;"/>
   </g>
   <g id="patch_23">
    <path clip-path="url(#pc27f58547b)" d="M 168.266922 199.45925 
L 169.915203 199.38887 
" style="fill:#10b981;stroke:#10b981;stroke-linejoin:miter;stroke-width:3;"/>
   </g>
   <g id="patch_24">
    <path clip-path="url(#pc27f58547b)" d="M 169.915203 199.38887 
L 171.975555 199.300896 
" style="stroke:#000000;stroke-linejoin:miter;stroke-width:0.5;"/>
   </g>
   <g id="patch_25">
    <path clip-path="url(#pc27f58547b)" d="M 173.005807 199.258751 
C 172.834086 199.265468 172.662371 199.272339 172.490662 199.279363 
C 172.318954 199.286387 172.147251 199.293564 171.975555 199.300896 
" style="fill:none;stroke:#fbbf24;stroke-linejoin:miter;stroke-width:3;"/>
   </g>
   <g id="patch_26">
    <path clip-path="url(#pc27f58547b)" d="M 173.005807 199.258751 
L 175.066461 199.178149 
" style="stroke:#000000;stroke-linejoin:miter;stroke-width:0.5;"/>
   </g>
   <g id="patch_27">
    <path clip-path="url(#pc27f58547b)" d="M 175.066461 199.178149 
L 177.539245 199.081426 
" style="fill:#ef4444;stroke:#ef4444;stroke-linejoin:miter;stroke-width:3;"/>
   </g>
   <g id="patch_28">
    <path clip-path="url(#pc27f58547b)" d="M 177.539245 199.081426 
L 179.599898 199.000824 
" style="stroke:#000000;stroke-linejoin:miter;stroke-width:0.5;"/>
   </g>
   <g id="patch_29">
    <path clip-path="url(#pc27f58547b)" d="M 179.599898 199.000824 
L 181.248421 198.936342 
" style="fill:#10b981;stroke:#10b981;stroke-linejoin:miter;stroke-width:3;"/>
   </g>
   <g id="patch_30">
    <path clip-path="url(#pc27f58547b)" d="M 181.248421 198.936342 
L 183.309074 198.85574 
" style="stroke:#000000;stroke-linejoin:miter;stroke-width:0.5;"/>
   </g>
   <g id="patch_31">
    <path clip-path="url(#pc27f58547b)" d="M 183.309074 198.85574 
L 185.163662 198.783198 
" style="fill:#ef4444;stroke:#ef4444;stroke-linejoin:miter;stroke-width:3;"/>
   </g>
   <g id="patch_32">
    <path clip-path="url(#pc27f58547b)" d="M 185.163662 198.783198 
L 187.224315 198.702595 
" style="stroke:#000000;stroke-linejoin:miter;stroke-width:0.5;"/>
   </g>
   <g id="patch_33">
    <path clip-path="url(#pc27f58547b)" d="M 187.224315 198.702595 
C 188.014239 198.671698 188.80382 198.632563 189.592928 198.585198 
C 190.382036 198.537833 191.170629 198.48224 191.958577 198.418429 
" style="fill:none;stroke:#fbbf24;stroke-linejoin:miter;stroke-width:3;"/>
   </g>
   <g id="patch_34">
    <path clip-path="url(#pc27f58547b)" d="M 187.224315 198.702595 
C 188.012264 198.638784 188.799525 198.566757 189.585972 198.486527 
C 190.372418 198.406297 191.158007 198.317867 191.942609 198.221253 
" style="fill:none;stroke:#fbbf24;stroke-linejoin:miter;stroke-width:3;"/>
   </g>
   <g id="patch_35">
    <path clip-path="url(#pc27f58547b)" d="M 196.676871 197.937086 
L 198.723641 197.685052 
" style="stroke:#000000;stroke-linejoin:miter;stroke-width:0.5;"/>
   </g>
   <g id="patch_36">
    <path clip-path="url(#pc27f58547b)" d="M 198.723641 197.685052 
L 200.565734 197.45822 
" style="fill:#ef4444;stroke:#ef4444;stroke-linejoin:miter;stroke-width:3;"/>
   </g>
   <g id="patch_37">
    <path clip-path="url(#pc27f58547b)" d="M 200.565734 197.45822 
L 202.612504 197.206186 
" style="stroke:#000000;stroke-linejoin:miter;stroke-width:0.5;"/>
   </g>
   <g id="patch_38">
    <path clip-path="url(#pc27f58547b)" d="M 202.612504 197.206186 
L 204.24992 197.004558 
" style="fill:#10b981;stroke:#10b981;stroke-linejoin:miter;stroke-width:3;"/>
   </g>
   <g id="patch_39">
    <path clip-path="url(#pc27f58547b)" d="M 204.24992 197.004558 
L 206.29669 196.752523 
" style="stroke:#000000;stroke-linejoin:miter;stroke-width:0.5;"/>
   </g>
   <g id="patch_40">
    <path clip-path="url(#pc27f58547b)" d="M 206.29669 196.752523 
L 209.162168 196.399675 
" style="fill:#ef4444;stroke:#ef4444;stroke-linejoin:miter;stroke-width:3;"/>
   </g>
   <g id="patch_41">
    <path clip-path="url(#pc27f58547b)" d="M 209.162168 196.399675 
L 211.208938 196.14764 
" style="stroke:#000000;stroke-linejoin:miter;stroke-width:0.5;"/>
   </g>
   <g id="patch_42">
    <path clip-path="url(#pc27f58547b)" d="M 212.232546 196.023454 
C 212.061908 196.043846 211.891288 196.064391 211.720686 196.085089 
C 211.550085 196.105787 211.379502 196.126637 211.208938 196.14764 
" style="fill:none;stroke:#fbbf24;stroke-linejoin:miter;stroke-width:3;"/>
   </g>
   <g id="patch_43">
    <path clip-path="url(#pc27f58547b)" d="M 212.232546 196.023454 
L 214.280205 195.778744 
" style="stroke:#000000;stroke-linejoin:miter;stroke-width:0.5;"/>
   </g>
   <g id="patch_44">
    <path clip-path="url(#pc27f58547b)" d="M 214.280205 195.778744 
L 215.5088 195.631918 
" style="fill:#10b981;stroke:#10b981;stroke-linejoin:miter;stroke-width:3;"/>
   </g>
   <g id="patch_45">
    <path clip-path="url(#pc27f58547b)" d="M 214.280205 195.778744 
L 216.737395 195.485092 
" style="fill:#10b981;stroke:#10b981;stroke-linejoin:miter;stroke-width:3;"/>
   </g>
   <g id="patch_46">
    <path clip-path="url(#pc27f58547b)" d="M 216.737395 195.485092 
L 218.785054 195.240382 
" style="stroke:#000000;stroke-linejoin:miter;stroke-width:0.5;"/>
   </g>
   <g id="patch_47">
    <path clip-path="url(#pc27f58547b)" d="M 219.8091 195.11986 
C 219.638389 195.139641 219.467697 195.159576 219.297023 195.179663 
C 219.126348 195.19975 218.955692 195.21999 218.785054 195.240382 
" style="fill:none;stroke:#fbbf24;stroke-linejoin:miter;stroke-width:3;"/>
   </g>
   <g id="patch_48">
    <path clip-path="url(#pc27f58547b)" d="M 219.8091 195.11986 
L 221.857621 194.882478 
" style="stroke:#000000;stroke-linejoin:miter;stroke-width:0.5;"/>
   </g>
   <g id="patch_49">
    <path clip-path="url(#pc27f58547b)" d="M 221.857621 194.882478 
L 224.72555 194.550143 
" style="fill:#ef4444;stroke:#ef4444;stroke-linejoin:miter;stroke-width:3;"/>
   </g>
   <g id="patch_50">
    <path clip-path="url(#pc27f58547b)" d="M 224.72555 194.550143 
L 226.774071 194.312762 
" style="stroke:#000000;stroke-linejoin:miter;stroke-width:0.5;"/>
   </g>
   <g id="patch_51">
    <path clip-path="url(#pc27f58547b)" d="M 226.774071 194.312762 
L 228.412888 194.122856 
" style="fill:#10b981;stroke:#10b981;stroke-linejoin:miter;stroke-width:3;"/>
   </g>
   <g id="patch_52">
    <path clip-path="url(#pc27f58547b)" d="M 228.412888 194.122856 
L 230.461409 193.885475 
" style="stroke:#000000;stroke-linejoin:miter;stroke-width:0.5;"/>
   </g>
   <g id="patch_53">
    <path clip-path="url(#pc27f58547b)" d="M 230.461409 193.885475 
L 232.305078 193.671831 
" style="fill:#ef4444;stroke:#ef4444;stroke-linejoin:miter;stroke-width:3;"/>
   </g>
   <g id="patch_54">
    <path clip-path="url(#pc27f58547b)" d="M 232.305078 193.671831 
L 234.353599 193.43445 
" style="stroke:#000000;stroke-linejoin:miter;stroke-width:0.5;"/>
   </g>
   <g id="patch_55">
    <path clip-path="url(#pc27f58547b)" d="M 234.353599 193.43445 
C 235.138873 193.343452 235.923176 193.244269 236.706381 193.136914 
C 237.489586 193.02956 238.27165 192.914041 239.052446 192.790377 
" style="fill:none;stroke:#fbbf24;stroke-linejoin:miter;stroke-width:3;"/>
   </g>
   <g id="patch_56">
    <path clip-path="url(#pc27f58547b)" d="M 234.353599 193.43445 
C 235.134395 193.310785 235.91388 193.178981 236.691927 193.03906 
C 237.469974 192.899139 238.24654 192.751108 239.0215 192.594991 
" style="fill:none;stroke:#fbbf24;stroke-linejoin:miter;stroke-width:3;"/>
   </g>
   <g id="patch_57">
    <path clip-path="url(#pc27f58547b)" d="M 243.720347 191.950918 
L 245.741962 191.54366 
" style="stroke:#000000;stroke-linejoin:miter;stroke-width:0.5;"/>
   </g>
   <g id="patch_58">
    <path clip-path="url(#pc27f58547b)" d="M 245.741962 191.54366 
L 247.561416 191.177128 
" style="fill:#ef4444;stroke:#ef4444;stroke-linejoin:miter;stroke-width:3;"/>
   </g>
   <g id="patch_59">
    <path clip-path="url(#pc27f58547b)" d="M 247.561416 191.177128 
L 249.583032 190.76987 
" style="stroke:#000000;stroke-linejoin:miter;stroke-width:0.5;"/>
   </g>
   <g id="patch_60">
    <path clip-path="url(#pc27f58547b)" d="M 249.583032 190.76987 
L 251.200324 190.444064 
" style="fill:#10b981;stroke:#10b981;stroke-linejoin:miter;stroke-width:3;"/>
   </g>
   <g id="patch_61">
    <path clip-path="url(#pc27f58547b)" d="M 251.200324 190.444064 
L 253.22194 190.036806 
" style="stroke:#000000;stroke-linejoin:miter;stroke-width:0.5;"/>
   </g>
   <g id="patch_62">
    <path clip-path="url(#pc27f58547b)" d="M 253.22194 190.036806 
L 256.052202 189.466645 
" style="fill:#ef4444;stroke:#ef4444;stroke-linejoin:miter;stroke-width:3;"/>
   </g>
   <g id="patch_63">
    <path clip-path="url(#pc27f58547b)" d="M 256.052202 189.466645 
L 258.073818 189.059388 
" style="stroke:#000000;stroke-linejoin:miter;stroke-width:0.5;"/>
   </g>
   <g id="patch_64">
    <path clip-path="url(#pc27f58547b)" d="M 259.084987 188.857567 
C 258.916399 188.890903 258.747841 188.924389 258.579312 188.958025 
C 258.410784 188.991662 258.242285 189.025449 258.073818 189.059388 
" style="fill:none;stroke:#fbbf24;stroke-linejoin:miter;stroke-width:3;"/>
   </g>
   <g id="patch_65">
    <path clip-path="url(#pc27f58547b)" d="M 259.084987 188.857567 
L 261.108047 188.457546 
" style="stroke:#000000;stroke-linejoin:miter;stroke-width:0.5;"/>
   </g>
   <g id="patch_66">
    <path clip-path="url(#pc27f58547b)" d="M 261.108047 188.457546 
L 262.321883 188.217532 
" style="fill:#10b981;stroke:#10b981;stroke-linejoin:miter;stroke-width:3;"/>
   </g>
   <g id="patch_67">
    <path clip-path="url(#pc27f58547b)" d="M 261.108047 188.457546 
L 263.535719 187.977519 
" style="fill:#10b981;stroke:#10b981;stroke-linejoin:miter;stroke-width:3;"/>
   </g>
   <g id="patch_68">
    <path clip-path="url(#pc27f58547b)" d="M 263.535719 187.977519 
L 265.558779 187.577497 
" style="stroke:#000000;stroke-linejoin:miter;stroke-width:0.5;"/>
   </g>
   <g id="patch_69">
    <path clip-path="url(#pc27f58547b)" d="M 266.570664 187.379297 
C 266.401958 187.412028 266.233281 187.444911 266.064633 187.477944 
C 265.895985 187.510978 265.727367 187.544162 265.558779 187.577497 
" style="fill:none;stroke:#fbbf24;stroke-linejoin:miter;stroke-width:3;"/>
   </g>
   <g id="patch_70">
    <path clip-path="url(#pc27f58547b)" d="M 266.570664 187.379297 
L 268.595143 186.986516 
" style="stroke:#000000;stroke-linejoin:miter;stroke-width:0.5;"/>
   </g>
   <g id="patch_71">
    <path clip-path="url(#pc27f58547b)" d="M 268.595143 186.986516 
L 271.429412 186.436622 
" style="fill:#ef4444;stroke:#ef4444;stroke-linejoin:miter;stroke-width:3;"/>
   </g>
   <g id="patch_72">
    <path clip-path="url(#pc27f58547b)" d="M 271.429412 186.436622 
L 273.45389 186.043842 
" style="stroke:#000000;stroke-linejoin:miter;stroke-width:0.5;"/>
   </g>
   <g id="patch_73">
    <path clip-path="url(#pc27f58547b)" d="M 273.45389 186.043842 
L 275.073473 185.729617 
" style="fill:#10b981;stroke:#10b981;stroke-linejoin:miter;stroke-width:3;"/>
   </g>
   <g id="patch_74">
    <path clip-path="url(#pc27f58547b)" d="M 275.073473 185.729617 
L 277.097951 185.336836 
" style="stroke:#000000;stroke-linejoin:miter;stroke-width:0.5;"/>
   </g>
   <g id="patch_75">
    <path clip-path="url(#pc27f58547b)" d="M 277.097951 185.336836 
L 278.919981 184.983333 
" style="fill:#ef4444;stroke:#ef4444;stroke-linejoin:miter;stroke-width:3;"/>
   </g>
   <g id="patch_76">
    <path clip-path="url(#pc27f58547b)" d="M 278.919981 184.983333 
L 280.944459 184.590553 
" style="stroke:#000000;stroke-linejoin:miter;stroke-width:0.5;"/>
   </g>
   <g id="patch_77">
    <path clip-path="url(#pc27f58547b)" d="M 280.944459 184.590553 
C 281.720516 184.439985 282.494982 184.281329 283.26773 184.11461 
C 284.040478 183.94789 284.811467 183.773117 285.58057 183.590319 
" style="fill:none;stroke:#fbbf24;stroke-linejoin:miter;stroke-width:3;"/>
   </g>
   <g id="patch_78">
    <path clip-path="url(#pc27f58547b)" d="M 280.944459 184.590553 
C 281.713563 184.407754 282.480738 184.21694 283.245862 184.018141 
C 284.010986 183.819343 284.774015 183.612571 285.534827 183.397859 
" style="fill:none;stroke:#fbbf24;stroke-linejoin:miter;stroke-width:3;"/>
   </g>
   <g id="patch_79">
    <path clip-path="url(#pc27f58547b)" d="M 290.170937 182.397625 
L 292.155644 181.837512 
" style="stroke:#000000;stroke-linejoin:miter;stroke-width:0.5;"/>
   </g>
   <g id="patch_80">
    <path clip-path="url(#pc27f58547b)" d="M 292.155644 181.837512 
L 293.941881 181.33341 
" style="fill:#ef4444;stroke:#ef4444;stroke-linejoin:miter;stroke-width:3;"/>
   </g>
   <g id="patch_81">
    <path clip-path="url(#pc27f58547b)" d="M 293.941881 181.33341 
L 295.926588 180.773297 
" style="stroke:#000000;stroke-linejoin:miter;stroke-width:0.5;"/>
   </g>
   <g id="patch_82">
    <path clip-path="url(#pc27f58547b)" d="M 295.926588 180.773297 
L 297.514353 180.325206 
" style="fill:#10b981;stroke:#10b981;stroke-linejoin:miter;stroke-width:3;"/>
   </g>
   <g id="patch_83">
    <path clip-path="url(#pc27f58547b)" d="M 297.514353 180.325206 
L 299.49906 179.765093 
" style="stroke:#000000;stroke-linejoin:miter;stroke-width:0.5;"/>
   </g>
   <g id="patch_84">
    <path clip-path="url(#pc27f58547b)" d="M 299.49906 179.765093 
L 301.880709 179.092958 
" style="fill:#ef4444;stroke:#ef4444;stroke-linejoin:miter;stroke-width:3;"/>
   </g>
   <g id="patch_85">
    <path clip-path="url(#pc27f58547b)" d="M 301.880709 179.092958 
L 303.865416 178.532845 
" style="stroke:#000000;stroke-linejoin:miter;stroke-width:0.5;"/>
   </g>
   <g id="patch_86">
    <path clip-path="url(#pc27f58547b)" d="M 304.858268 178.254564 
C 304.69271 178.300648 304.527193 178.34688 304.361717 178.39326 
C 304.196242 178.43964 304.030808 178.486168 303.865416 178.532845 
" style="fill:none;stroke:#fbbf24;stroke-linejoin:miter;stroke-width:3;"/>
   </g>
   <g id="patch_87">
    <path clip-path="url(#pc27f58547b)" d="M 304.858268 178.254564 
L 306.844967 177.701556 
" style="stroke:#000000;stroke-linejoin:miter;stroke-width:0.5;"/>
   </g>
   <g id="patch_88">
    <path clip-path="url(#pc27f58547b)" d="M 306.844967 177.701556 
L 307.639646 177.480352 
" style="fill:#10b981;stroke:#10b981;stroke-linejoin:miter;stroke-width:3;"/>
   </g>
   <g id="patch_89">
    <path clip-path="url(#pc27f58547b)" d="M 306.844967 177.701556 
L 308.434325 177.259149 
" style="fill:#10b981;stroke:#10b981;stroke-linejoin:miter;stroke-width:3;"/>
   </g>
   <g id="patch_90">
    <path clip-path="url(#pc27f58547b)" d="M 308.434325 177.259149 
L 309.427674 176.982645 
" style="stroke:#000000;stroke-linejoin:miter;stroke-width:0.5;"/>
   </g>
   <g id="patch_91">
    <path clip-path="url(#pc27f58547b)" d="M 309.427674 176.982645 
L 310.421024 176.706141 
" style="stroke:#000000;stroke-linejoin:miter;stroke-width:0.5;"/>
   </g>
   <g id="patch_92">
    <path clip-path="url(#pc27f58547b)" d="M 310.421024 176.706141 
L 313.599741 175.821328 
" style="fill:#ef4444;stroke:#ef4444;stroke-linejoin:miter;stroke-width:3;"/>
   </g>
   <g id="patch_93">
    <path clip-path="url(#pc27f58547b)" d="M 313.599741 175.821328 
L 315.586439 175.26832 
" style="stroke:#000000;stroke-linejoin:miter;stroke-width:0.5;"/>
   </g>
   <g id="patch_94">
    <path clip-path="url(#pc27f58547b)" d="M 315.586439 175.26832 
L 317.175798 174.825913 
" style="fill:#10b981;stroke:#10b981;stroke-linejoin:miter;stroke-width:3;"/>
   </g>
   <g id="patch_95">
    <path clip-path="url(#pc27f58547b)" d="M 317.175798 174.825913 
L 319.162497 174.272905 
" style="stroke:#000000;stroke-linejoin:miter;stroke-width:0.5;"/>
   </g>
   <g id="patch_96">
    <path clip-path="url(#pc27f58547b)" d="M 319.162497 174.272905 
L 321.745205 173.553994 
" style="fill:#ef4444;stroke:#ef4444;stroke-linejoin:miter;stroke-width:3;"/>
   </g>
   <g id="patch_97">
    <path clip-path="url(#pc27f58547b)" d="M 321.745205 173.553994 
L 323.731903 173.000986 
" style="stroke:#000000;stroke-linejoin:miter;stroke-width:0.5;"/>
   </g>
   <g id="patch_98">
    <path clip-path="url(#pc27f58547b)" d="M 323.731903 173.000986 
C 324.493478 172.788998 325.25277 172.56889 326.009648 172.340702 
C 326.766527 172.112514 327.52095 171.876257 328.272788 171.631973 
" style="fill:none;stroke:#fbbf24;stroke-linejoin:miter;stroke-width:3;"/>
   </g>
   <g id="patch_99">
    <path clip-path="url(#pc27f58547b)" d="M 328.272788 171.631973 
L 330.234087 170.994715 
" style="stroke:#000000;stroke-linejoin:miter;stroke-width:0.5;"/>
   </g>
   <g id="patch_100">
    <path clip-path="url(#pc27f58547b)" d="M 330.234087 170.994715 
L 331.803126 170.48491 
" style="fill:#10b981;stroke:#10b981;stroke-linejoin:miter;stroke-width:3;"/>
   </g>
   <g id="patch_101">
    <path clip-path="url(#pc27f58547b)" d="M 331.803126 170.48491 
L 333.764424 169.847652 
" style="stroke:#000000;stroke-linejoin:miter;stroke-width:0.5;"/>
   </g>
   <g id="patch_102">
    <path clip-path="url(#pc27f58547b)" d="M 333.764424 169.847652 
L 335.529593 169.27412 
" style="fill:#ef4444;stroke:#ef4444;stroke-linejoin:miter;stroke-width:3;"/>
   </g>
   <g id="patch_103">
    <path clip-path="url(#pc27f58547b)" d="M 335.529593 169.27412 
L 337.490891 168.636863 
" style="stroke:#000000;stroke-linejoin:miter;stroke-width:0.5;"/>
   </g>
   <g id="patch_104">
    <path clip-path="url(#pc27f58547b)" d="M 337.490891 168.636863 
L 342.198007 167.107445 
" style="fill:#ef4444;stroke:#ef4444;stroke-linejoin:miter;stroke-width:3;"/>
   </g>
   <g id="patch_105">
    <path clip-path="url(#pc27f58547b)" d="M 342.198007 167.107445 
L 344.159306 166.470188 
" style="stroke:#000000;stroke-linejoin:miter;stroke-width:0.5;"/>
   </g>
   <g id="patch_106">
    <path clip-path="url(#pc27f58547b)" d="M 344.159306 166.470188 
L 345.728345 165.960382 
" style="fill:#10b981;stroke:#10b981;stroke-linejoin:miter;stroke-width:3;"/>
   </g>
   <g id="patch_107">
    <path clip-path="url(#pc27f58547b)" d="M 345.728345 165.960382 
L 347.689643 165.323124 
" style="stroke:#000000;stroke-linejoin:miter;stroke-width:0.5;"/>
   </g>
   <g id="patch_108">
    <path clip-path="url(#pc27f58547b)" d="M 347.689643 165.323124 
L 349.454812 164.749593 
" style="fill:#ef4444;stroke:#ef4444;stroke-linejoin:miter;stroke-width:3;"/>
   </g>
   <g id="patch_109">
    <path clip-path="url(#pc27f58547b)" d="M 349.454812 164.749593 
L 398.487273 148.818157 
" style="stroke:#000000;stroke-linejoin:miter;stroke-width:0.5;"/>
   </g>
   <g id="text_1">
    <!-- uq3 -->
    <g transform="translate(120.8363 212.146956)scale(0.06 -0.06)">
     <defs>
      <path d="M 42.046875 22.296875 
C 42.046875 12.078125 34.234375 7.390625 27.984375 7.390625 
C 21.03125 7.390625 16.046875 12.5 16.046875 20.453125 
L 16.046875 54.546875 
L 7.671875 54.546875 
L 7.671875 19.890625 
C 7.671875 5.96875 15.0625 -0.703125 25.28125 -0.703125 
C 33.53125 -0.703125 38.921875 3.6875 41.484375 9.234375 
L 42.046875 9.234375 
L 42.046875 0 
L 50.421875 0 
L 50.421875 54.546875 
L 42.046875 54.546875 
z
" id="Inter-Regular-117"/>
      <path d="M 53.265625 -20.453125 
L 53.265625 54.546875 
L 45.171875 54.546875 
L 45.171875 45.875 
L 44.171875 45.875 
C 42.328125 48.71875 39.0625 55.25 28.40625 55.25 
C 14.625 55.25 5.109375 44.3125 5.109375 27.125 
C 5.109375 9.796875 14.625 -1.140625 28.265625 -1.140625 
C 38.78125 -1.140625 42.328125 5.390625 44.171875 8.375 
L 44.890625 8.375 
L 44.890625 -20.453125 
z
M 45.03125 27.265625 
C 45.03125 14.921875 39.484375 6.390625 29.40625 6.390625 
C 18.890625 6.390625 13.5 15.625 13.5 27.265625 
C 13.5 38.78125 18.75 47.734375 29.40625 47.734375 
C 39.625 47.734375 45.03125 39.484375 45.03125 27.265625 
z
" id="Inter-Regular-113"/>
      <path d="M 32.109375 -1 
C 46.203125 -1 56.671875 7.84375 56.671875 19.75 
C 56.671875 28.984375 51.203125 35.6875 42.046875 37.21875 
L 42.046875 37.78125 
C 49.390625 40.015625 53.984375 46.0625 53.984375 54.265625 
C 53.984375 64.5625 45.84375 73.71875 32.390625 73.71875 
C 19.8125 73.71875 9.375 65.984375 8.953125 54.546875 
L 17.46875 54.546875 
C 17.796875 61.796875 24.6875 66.046875 32.25 66.046875 
C 40.265625 66.046875 45.453125 61.1875 45.453125 53.828125 
C 45.453125 46.171875 39.453125 41.1875 30.828125 41.1875 
L 25 41.1875 
L 25 33.375 
L 30.828125 33.375 
C 41.875 33.375 48.015625 27.765625 48.015625 19.75 
C 48.015625 12.03125 41.296875 6.8125 31.96875 6.8125 
C 23.546875 6.8125 16.875 11.15625 16.34375 18.1875 
L 7.390625 18.1875 
C 7.921875 6.75 18 -1 32.109375 -1 
z
" id="Inter-Regular-51"/>
     </defs>
     <use xlink:href="#Inter-Regular-117"/>
     <use x="58.096603" xlink:href="#Inter-Regular-113"/>
     <use x="119.034119" xlink:href="#Inter-Regular-51"/>
    </g>
   </g>
   <g id="text_2">
    <!-- s5 -->
    <g transform="translate(126.739236 191.495135)scale(0.06 -0.06)">
     <defs>
      <path d="M 46.3125 42.328125 
C 43.6875 50.078125 37.78125 55.25 26.984375 55.25 
C 15.484375 55.25 6.96875 48.71875 6.96875 39.484375 
C 6.96875 31.953125 11.4375 26.921875 21.453125 24.578125 
L 30.546875 22.4375 
C 36.046875 21.171875 38.640625 18.53125 38.640625 14.765625 
C 38.640625 10.078125 33.671875 6.25 25.859375 6.25 
C 19 6.25 14.703125 9.203125 13.21875 15.0625 
L 5.25 13.0625 
C 7.203125 3.796875 14.84375 -1.140625 26 -1.140625 
C 38.671875 -1.140625 47.296875 5.78125 47.296875 15.203125 
C 47.296875 22.796875 42.546875 27.59375 32.8125 29.96875 
L 24.71875 31.953125 
C 18.25 33.5625 15.34375 35.71875 15.34375 39.921875 
C 15.34375 44.609375 20.3125 48.015625 26.984375 48.015625 
C 34.3125 48.015625 37.328125 43.96875 38.78125 40.203125 
z
" id="Inter-Regular-115"/>
      <path d="M 30.25 -1 
C 44.109375 -1 54.265625 9.234375 54.265625 23.15625 
C 54.265625 37.25 44.46875 47.578125 31.109375 47.578125 
C 26.203125 47.578125 21.453125 45.84375 18.46875 43.46875 
L 18.046875 43.46875 
L 20.59375 64.921875 
L 51 64.921875 
L 51 72.734375 
L 13.21875 72.734375 
L 8.8125 36.9375 
L 17.046875 35.9375 
C 20.0625 38.109375 25.21875 39.671875 29.6875 39.625 
C 38.953125 39.5625 45.734375 32.53125 45.734375 23.015625 
C 45.734375 13.671875 39.203125 6.8125 30.25 6.8125 
C 22.796875 6.8125 16.875 11.609375 16.1875 18.1875 
L 7.671875 18.1875 
C 8.203125 7.109375 17.75 -1 30.25 -1 
z
" id="Inter-Regular-53"/>
     </defs>
     <use xlink:href="#Inter-Regular-115"/>
     <use x="52.272736" xlink:href="#Inter-Regular-53"/>
    </g>
   </g>
   <g id="text_3">
    <!-- uq2 -->
    <g transform="translate(130.106969 212.146956)scale(0.06 -0.06)">
     <defs>
      <path d="M 7.53125 0 
L 53.40625 0 
L 53.40625 7.8125 
L 19.609375 7.8125 
L 19.609375 8.375 
L 35.9375 25.859375 
C 48.4375 39.234375 52.125 45.484375 52.125 53.546875 
C 52.125 64.765625 43.046875 73.71875 30.25 73.71875 
C 17.515625 73.71875 7.8125 65.0625 7.8125 52.265625 
L 16.1875 52.265625 
C 16.1875 60.546875 21.5625 66.046875 29.96875 66.046875 
C 37.859375 66.046875 43.890625 61.21875 43.890625 53.546875 
C 43.890625 46.84375 39.953125 41.875 31.53125 32.671875 
L 7.53125 6.390625 
z
" id="Inter-Regular-50"/>
     </defs>
     <use xlink:href="#Inter-Regular-117"/>
     <use x="58.096603" xlink:href="#Inter-Regular-113"/>
     <use x="119.034119" xlink:href="#Inter-Regular-50"/>
    </g>
   </g>
   <g id="text_4">
    <!-- uq1 -->
    <g transform="translate(135.993751 212.117425)scale(0.06 -0.06)">
     <defs>
      <path d="M 33.09375 72.734375 
L 24.296875 72.734375 
L 6.109375 60.65625 
L 6.109375 51.703125 
L 23.859375 63.5 
L 24.296875 63.5 
L 24.296875 0 
L 33.09375 0 
z
" id="Inter-Regular-49"/>
     </defs>
     <use xlink:href="#Inter-Regular-117"/>
     <use x="58.096603" xlink:href="#Inter-Regular-113"/>
     <use x="119.034119" xlink:href="#Inter-Regular-49"/>
    </g>
   </g>
   <g id="text_5">
    <!-- s3 -->
    <g transform="translate(141.29575 191.495135)scale(0.06 -0.06)">
     <use xlink:href="#Inter-Regular-115"/>
     <use x="52.272736" xlink:href="#Inter-Regular-51"/>
    </g>
   </g>
   <g id="text_6">
    <!-- mb0 -->
    <g transform="translate(143.465915 191.446889)scale(0.06 -0.06)">
     <defs>
      <path d="M 7.671875 0 
L 16.046875 0 
L 16.046875 34.09375 
C 16.046875 42.078125 21.875 47.734375 28.40625 47.734375 
C 34.765625 47.734375 39.203125 43.578125 39.203125 37.359375 
L 39.203125 0 
L 47.734375 0 
L 47.734375 35.515625 
C 47.734375 42.546875 52.125 47.734375 59.796875 47.734375 
C 65.765625 47.734375 70.875 44.5625 70.875 36.5 
L 70.875 0 
L 79.265625 0 
L 79.265625 36.5 
C 79.265625 49.328125 72.375 55.25 62.640625 55.25 
C 54.828125 55.25 49.109375 51.671875 46.3125 46.015625 
L 45.734375 46.015625 
C 43.046875 51.84375 38.28125 55.25 31.109375 55.25 
C 24 55.25 18.75 51.84375 16.484375 46.015625 
L 15.765625 46.015625 
L 15.765625 54.546875 
L 7.671875 54.546875 
z
" id="Inter-Regular-109"/>
      <path d="M 8.8125 0 
L 16.90625 0 
L 16.90625 8.375 
L 17.90625 8.375 
C 19.75 5.390625 23.296875 -1.140625 33.8125 -1.140625 
C 47.4375 -1.140625 56.96875 9.796875 56.96875 27.125 
C 56.96875 44.3125 47.4375 55.25 33.671875 55.25 
C 23.015625 55.25 19.75 48.71875 17.90625 45.875 
L 17.1875 45.875 
L 17.1875 72.734375 
L 8.8125 72.734375 
z
M 17.046875 27.265625 
C 17.046875 39.484375 22.4375 47.734375 32.671875 47.734375 
C 43.328125 47.734375 48.578125 38.78125 48.578125 27.265625 
C 48.578125 15.625 43.1875 6.390625 32.671875 6.390625 
C 22.59375 6.390625 17.046875 14.921875 17.046875 27.265625 
z
" id="Inter-Regular-98"/>
      <path d="M 31.25 -1 
C 47.296875 -1 56.53125 12.609375 56.53125 36.359375 
C 56.53125 59.9375 47.15625 73.71875 31.25 73.71875 
C 15.34375 73.71875 5.96875 59.9375 5.96875 36.359375 
C 5.96875 12.609375 15.203125 -1 31.25 -1 
z
M 31.25 6.8125 
C 20.671875 6.8125 14.484375 17.4375 14.484375 36.359375 
C 14.484375 55.25 20.734375 66.046875 31.25 66.046875 
C 41.765625 66.046875 48.015625 55.25 48.015625 36.359375 
C 48.015625 17.4375 41.828125 6.8125 31.25 6.8125 
z
" id="Inter-Regular-48"/>
     </defs>
     <use xlink:href="#Inter-Regular-109"/>
     <use x="86.931839" xlink:href="#Inter-Regular-98"/>
     <use x="149.005722" xlink:href="#Inter-Regular-48"/>
    </g>
   </g>
   <g id="text_7">
    <!-- mq1 -->
    <g transform="translate(150.411825 211.861694)scale(0.06 -0.06)">
     <use xlink:href="#Inter-Regular-109"/>
     <use x="86.931839" xlink:href="#Inter-Regular-113"/>
     <use x="147.869354" xlink:href="#Inter-Regular-49"/>
    </g>
   </g>
   <g id="text_8">
    <!-- s1a -->
    <g transform="translate(154.931891 191.077829)scale(0.06 -0.06)">
     <defs>
      <path d="M 23.71875 -1.28125 
C 33.234375 -1.28125 38.21875 3.828125 39.921875 7.390625 
L 40.34375 7.390625 
L 40.34375 0 
L 48.71875 0 
L 48.71875 35.9375 
C 48.71875 53.265625 35.515625 55.25 28.546875 55.25 
C 20.3125 55.25 10.9375 52.421875 6.671875 42.46875 
L 14.625 39.625 
C 16.484375 43.609375 20.84375 47.875 28.84375 47.875 
C 36.546875 47.875 40.34375 43.78125 40.34375 36.796875 
L 40.34375 36.5 
C 40.34375 32.453125 36.21875 32.8125 26.28125 31.53125 
C 16.15625 30.21875 5.109375 27.984375 5.109375 15.484375 
C 5.109375 4.828125 13.359375 -1.28125 23.71875 -1.28125 
z
M 25 6.25 
C 18.328125 6.25 13.5 9.234375 13.5 15.0625 
C 13.5 21.453125 19.3125 23.4375 25.859375 24.296875 
C 29.40625 24.71875 38.921875 25.703125 40.34375 27.421875 
L 40.34375 19.75 
C 40.34375 12.921875 34.9375 6.25 25 6.25 
z
" id="Inter-Regular-97"/>
     </defs>
     <use xlink:href="#Inter-Regular-115"/>
     <use x="52.272736" xlink:href="#Inter-Regular-49"/>
     <use x="98.721603" xlink:href="#Inter-Regular-97"/>
    </g>
   </g>
   <g id="text_9">
    <!-- mq2 -->
    <g transform="translate(158.746444 211.517332)scale(0.06 -0.06)">
     <use xlink:href="#Inter-Regular-109"/>
     <use x="86.931839" xlink:href="#Inter-Regular-113"/>
     <use x="147.869354" xlink:href="#Inter-Regular-50"/>
    </g>
   </g>
   <g id="text_10">
    <!-- s0a -->
    <g transform="translate(163.516033 190.690739)scale(0.06 -0.06)">
     <use xlink:href="#Inter-Regular-115"/>
     <use x="52.272736" xlink:href="#Inter-Regular-48"/>
     <use x="114.772751" xlink:href="#Inter-Regular-97"/>
    </g>
   </g>
   <g id="text_11">
    <!-- b1 -->
    <g transform="translate(168.8133 190.545732)scale(0.06 -0.06)">
     <use xlink:href="#Inter-Regular-98"/>
     <use x="62.073883" xlink:href="#Inter-Regular-49"/>
    </g>
   </g>
   <g id="text_12">
    <!-- q1a -->
    <g transform="translate(171.792427 211.001491)scale(0.06 -0.06)">
     <use xlink:href="#Inter-Regular-113"/>
     <use x="60.937515" xlink:href="#Inter-Regular-49"/>
     <use x="107.386383" xlink:href="#Inter-Regular-97"/>
    </g>
   </g>
   <g id="text_13">
    <!-- s1 -->
    <g transform="translate(177.059116 190.233754)scale(0.06 -0.06)">
     <use xlink:href="#Inter-Regular-115"/>
     <use x="52.272736" xlink:href="#Inter-Regular-49"/>
    </g>
   </g>
   <g id="text_14">
    <!-- q0 -->
    <g transform="translate(180.936254 210.720704)scale(0.06 -0.06)">
     <use xlink:href="#Inter-Regular-113"/>
     <use x="60.937515" xlink:href="#Inter-Regular-48"/>
    </g>
   </g>
   <g id="text_15">
    <!-- b0 -->
    <g transform="translate(187.166777 189.630374)scale(0.06 -0.06)">
     <use xlink:href="#Inter-Regular-98"/>
     <use x="62.073883" xlink:href="#Inter-Regular-48"/>
    </g>
   </g>
   <g id="text_16">
    <!-- q0 -->
    <g transform="translate(197.201736 209.403454)scale(0.06 -0.06)">
     <use xlink:href="#Inter-Regular-113"/>
     <use x="60.937515" xlink:href="#Inter-Regular-48"/>
    </g>
   </g>
   <g id="text_17">
    <!-- s1 -->
    <g transform="translate(199.209007 188.43996)scale(0.06 -0.06)">
     <use xlink:href="#Inter-Regular-115"/>
     <use x="52.272736" xlink:href="#Inter-Regular-49"/>
    </g>
   </g>
   <g id="text_18">
    <!-- q1 -->
    <g transform="translate(205.767884 208.378386)scale(0.06 -0.06)">
     <use xlink:href="#Inter-Regular-113"/>
     <use x="60.937515" xlink:href="#Inter-Regular-49"/>
    </g>
   </g>
   <g id="text_19">
    <!-- b1 -->
    <g transform="translate(207.222941 187.417897)scale(0.06 -0.06)">
     <use xlink:href="#Inter-Regular-98"/>
     <use x="62.073883" xlink:href="#Inter-Regular-49"/>
    </g>
   </g>
   <g id="text_20">
    <!-- s0 -->
    <g transform="translate(210.841814 186.962063)scale(0.06 -0.06)">
     <use xlink:href="#Inter-Regular-115"/>
     <use x="52.272736" xlink:href="#Inter-Regular-48"/>
    </g>
   </g>
   <g id="text_21">
    <!-- b1 -->
    <g transform="translate(214.835909 186.508093)scale(0.06 -0.06)">
     <use xlink:href="#Inter-Regular-98"/>
     <use x="62.073883" xlink:href="#Inter-Regular-49"/>
    </g>
   </g>
   <g id="text_22">
    <!-- q1 -->
    <g transform="translate(221.256775 206.527353)scale(0.06 -0.06)">
     <use xlink:href="#Inter-Regular-113"/>
     <use x="60.937515" xlink:href="#Inter-Regular-49"/>
    </g>
   </g>
   <g id="text_23">
    <!-- s1 -->
    <g transform="translate(223.44454 185.543641)scale(0.06 -0.06)">
     <use xlink:href="#Inter-Regular-115"/>
     <use x="52.272736" xlink:href="#Inter-Regular-49"/>
    </g>
   </g>
   <g id="text_24">
    <!-- q0 -->
    <g transform="translate(228.867027 205.619227)scale(0.06 -0.06)">
     <use xlink:href="#Inter-Regular-113"/>
     <use x="60.937515" xlink:href="#Inter-Regular-48"/>
    </g>
   </g>
   <g id="text_25">
    <!-- b0 -->
    <g transform="translate(233.474587 184.112775)scale(0.06 -0.06)">
     <use xlink:href="#Inter-Regular-98"/>
     <use x="62.073883" xlink:href="#Inter-Regular-48"/>
    </g>
   </g>
   <g id="text_26">
    <!-- q0 -->
    <g transform="translate(244.984853 203.066441)scale(0.06 -0.06)">
     <use xlink:href="#Inter-Regular-113"/>
     <use x="60.937515" xlink:href="#Inter-Regular-48"/>
    </g>
   </g>
   <g id="text_27">
    <!-- s1 -->
    <g transform="translate(245.393358 182.067327)scale(0.06 -0.06)">
     <use xlink:href="#Inter-Regular-115"/>
     <use x="52.272736" xlink:href="#Inter-Regular-49"/>
    </g>
   </g>
   <g id="text_28">
    <!-- q1 -->
    <g transform="translate(253.451641 201.428241)scale(0.06 -0.06)">
     <use xlink:href="#Inter-Regular-113"/>
     <use x="60.937515" xlink:href="#Inter-Regular-49"/>
    </g>
   </g>
   <g id="text_29">
    <!-- b1 -->
    <g transform="translate(253.305262 180.41521)scale(0.06 -0.06)">
     <use xlink:href="#Inter-Regular-98"/>
     <use x="62.073883" xlink:href="#Inter-Regular-49"/>
    </g>
   </g>
   <g id="text_30">
    <!-- s0 -->
    <g transform="translate(256.878336 179.670671)scale(0.06 -0.06)">
     <use xlink:href="#Inter-Regular-115"/>
     <use x="52.272736" xlink:href="#Inter-Regular-48"/>
    </g>
   </g>
   <g id="text_31">
    <!-- b1 -->
    <g transform="translate(260.826774 178.927973)scale(0.06 -0.06)">
     <use xlink:href="#Inter-Regular-98"/>
     <use x="62.073883" xlink:href="#Inter-Regular-49"/>
    </g>
   </g>
   <g id="text_32">
    <!-- q1 -->
    <g transform="translate(268.754463 198.402397)scale(0.06 -0.06)">
     <use xlink:href="#Inter-Regular-113"/>
     <use x="60.937515" xlink:href="#Inter-Regular-49"/>
    </g>
   </g>
   <g id="text_33">
    <!-- s1 -->
    <g transform="translate(269.337746 177.332776)scale(0.06 -0.06)">
     <use xlink:href="#Inter-Regular-115"/>
     <use x="52.272736" xlink:href="#Inter-Regular-49"/>
    </g>
   </g>
   <g id="text_34">
    <!-- q0 -->
    <g transform="translate(276.269745 196.880444)scale(0.06 -0.06)">
     <use xlink:href="#Inter-Regular-113"/>
     <use x="60.937515" xlink:href="#Inter-Regular-48"/>
    </g>
   </g>
   <g id="text_35">
    <!-- b0 -->
    <g transform="translate(279.227354 175.082743)scale(0.06 -0.06)">
     <use xlink:href="#Inter-Regular-98"/>
     <use x="62.073883" xlink:href="#Inter-Regular-48"/>
    </g>
   </g>
   <g id="text_36">
    <!-- q0 -->
    <g transform="translate(292.146203 193.106965)scale(0.06 -0.06)">
     <use xlink:href="#Inter-Regular-113"/>
     <use x="60.937515" xlink:href="#Inter-Regular-48"/>
    </g>
   </g>
   <g id="text_37">
    <!-- s1 -->
    <g transform="translate(290.957874 172.194154)scale(0.06 -0.06)">
     <use xlink:href="#Inter-Regular-115"/>
     <use x="52.272736" xlink:href="#Inter-Regular-49"/>
    </g>
   </g>
   <g id="text_38">
    <!-- q1a -->
    <g transform="translate(298.577012 190.920998)scale(0.06 -0.06)">
     <use xlink:href="#Inter-Regular-113"/>
     <use x="60.937515" xlink:href="#Inter-Regular-49"/>
     <use x="107.386383" xlink:href="#Inter-Regular-97"/>
    </g>
   </g>
   <g id="text_39">
    <!-- b1 -->
    <g transform="translate(298.323097 170.033612)scale(0.06 -0.06)">
     <use xlink:href="#Inter-Regular-98"/>
     <use x="62.073883" xlink:href="#Inter-Regular-49"/>
    </g>
   </g>
   <g id="text_40">
    <!-- s0a -->
    <g transform="translate(299.739449 169.115298)scale(0.06 -0.06)">
     <use xlink:href="#Inter-Regular-115"/>
     <use x="52.272736" xlink:href="#Inter-Regular-48"/>
     <use x="114.772751" xlink:href="#Inter-Regular-97"/>
    </g>
   </g>
   <g id="text_41">
    <!-- mq2 -->
    <g transform="translate(308.523705 187.795195)scale(0.06 -0.06)">
     <use xlink:href="#Inter-Regular-109"/>
     <use x="86.931839" xlink:href="#Inter-Regular-113"/>
     <use x="147.869354" xlink:href="#Inter-Regular-50"/>
    </g>
   </g>
   <g id="text_42">
    <!-- s1a -->
    <g transform="translate(308.962328 166.682062)scale(0.06 -0.06)">
     <use xlink:href="#Inter-Regular-115"/>
     <use x="52.272736" xlink:href="#Inter-Regular-49"/>
     <use x="98.721603" xlink:href="#Inter-Regular-97"/>
    </g>
   </g>
   <g id="text_43">
    <!-- mq1 -->
    <g transform="translate(317.389048 185.415379)scale(0.06 -0.06)">
     <use xlink:href="#Inter-Regular-109"/>
     <use x="86.931839" xlink:href="#Inter-Regular-113"/>
     <use x="147.869354" xlink:href="#Inter-Regular-49"/>
    </g>
   </g>
   <g id="text_44">
    <!-- mb0 -->
    <g transform="translate(316.680535 164.012678)scale(0.06 -0.06)">
     <use xlink:href="#Inter-Regular-109"/>
     <use x="86.931839" xlink:href="#Inter-Regular-98"/>
     <use x="149.005722" xlink:href="#Inter-Regular-48"/>
    </g>
   </g>
   <g id="text_45">
    <!-- s3 -->
    <g transform="translate(324.354663 162.501758)scale(0.06 -0.06)">
     <use xlink:href="#Inter-Regular-115"/>
     <use x="52.272736" xlink:href="#Inter-Regular-51"/>
    </g>
   </g>
   <g id="text_46">
    <!-- uq1 -->
    <g transform="translate(332.868764 180.935816)scale(0.06 -0.06)">
     <use xlink:href="#Inter-Regular-117"/>
     <use x="58.096603" xlink:href="#Inter-Regular-113"/>
     <use x="119.034119" xlink:href="#Inter-Regular-49"/>
    </g>
   </g>
   <g id="text_47">
    <!-- uq2 -->
    <g transform="translate(337.64433 179.276615)scale(0.06 -0.06)">
     <use xlink:href="#Inter-Regular-117"/>
     <use x="58.096603" xlink:href="#Inter-Regular-113"/>
     <use x="119.034119" xlink:href="#Inter-Regular-50"/>
    </g>
   </g>
   <g id="text_48">
    <!-- s5 -->
    <g transform="translate(338.365194 157.97723)scale(0.06 -0.06)">
     <use xlink:href="#Inter-Regular-115"/>
     <use x="52.272736" xlink:href="#Inter-Regular-53"/>
    </g>
   </g>
   <g id="text_49">
    <!-- uq3 -->
    <g transform="translate(346.278358 176.44082)scale(0.06 -0.06)">
     <use xlink:href="#Inter-Regular-117"/>
     <use x="58.096603" xlink:href="#Inter-Regular-113"/>
     <use x="119.034119" xlink:href="#Inter-Regular-51"/>
    </g>
   </g>
  </g>
 </g>
 <defs>
  <clipPath id="pc27f58547b">
   <rect height="83.88514" width="357.12" x="57.6" y="132.58543"/>
  </clipPath>
 </defs>
</svg>
