<?xml version="1.0" encoding="utf-8" standalone="no"?>
<!DOCTYPE svg PUBLIC "-//W3C//DTD SVG 1.1//EN"
  "http://www.w3.org/Graphics/SVG/1.1/DTD/svg11.dtd">
<!-- Created with matplotlib (https://matplotlib.org/) -->
<svg height="360pt" version="1.1" viewBox="0 0 576 360" width="576pt" xmlns="http://www.w3.org/2000/svg" xmlns:xlink="http://www.w3.org/1999/xlink">
 <metadata>
  <rdf:RDF xmlns:cc="http://creativecommons.org/ns#" xmlns:dc="http://purl.org/dc/elements/1.1/" xmlns:rdf="http://www.w3.org/1999/02/22-rdf-syntax-ns#">
   <cc:Work>
    <dc:type rdf:resource="http://purl.org/dc/dcmitype/StillImage"/>
    <dc:date>2020-12-08T15:37:28.428679</dc:date>
    <dc:format>image/svg+xml</dc:format>
    <dc:creator>
     <cc:Agent>
      <dc:title>Matplotlib v3.3.3, https://matplotlib.org/</dc:title>
     </cc:Agent>
    </dc:creator>
   </cc:Work>
  </rdf:RDF>
 </metadata>
 <defs>
  <style type="text/css">*{stroke-linecap:butt;stroke-linejoin:round;}</style>
 </defs>
 <g id="figure_1">
  <g id="patch_1">
   <path d="M 0 360 
L 576 360 
L 576 0 
L 0 0 
z
" style="fill:#ffffff;"/>
  </g>
  <g id="axes_1">
   <g id="patch_2">
    <path d="M 28.78 315.88 
L 561.422746 315.88 
L 561.422746 28.26 
L 28.78 28.26 
z
" style="fill:#ffffff;"/>
   </g>
   <g id="matplotlib.axis_1">
    <g id="xtick_1">
     <g id="line2d_1">
      <defs>
       <path d="M 0 0 
L 0 3.5 
" id="m839d1da6a0" style="stroke:#000000;stroke-width:0.8;"/>
      </defs>
      <g>
       <use style="stroke:#000000;stroke-width:0.8;" x="28.78" xlink:href="#m839d1da6a0" y="315.88"/>
      </g>
     </g>
     <g id="text_1">
      <!-- 0 -->
      <g transform="translate(25.655 330.153437)scale(0.1 -0.1)">
       <defs>
        <path d="M 31.25 -1 
C 47.296875 -1 56.53125 12.609375 56.53125 36.359375 
C 56.53125 59.9375 47.15625 73.71875 31.25 73.71875 
C 15.34375 73.71875 5.96875 59.9375 5.96875 36.359375 
C 5.96875 12.609375 15.203125 -1 31.25 -1 
z
M 31.25 6.8125 
C 20.671875 6.8125 14.484375 17.4375 14.484375 36.359375 
C 14.484375 55.25 20.734375 66.046875 31.25 66.046875 
C 41.765625 66.046875 48.015625 55.25 48.015625 36.359375 
C 48.015625 17.4375 41.828125 6.8125 31.25 6.8125 
z
" id="Inter-Regular-48"/>
       </defs>
       <use xlink:href="#Inter-Regular-48"/>
      </g>
     </g>
    </g>
    <g id="xtick_2">
     <g id="line2d_2">
      <g>
       <use style="stroke:#000000;stroke-width:0.8;" x="95.1116" xlink:href="#m839d1da6a0" y="315.88"/>
      </g>
     </g>
     <g id="text_2">
      <!-- 2 -->
      <g transform="translate(92.085818 330.153437)scale(0.1 -0.1)">
       <defs>
        <path d="M 7.53125 0 
L 53.40625 0 
L 53.40625 7.8125 
L 19.609375 7.8125 
L 19.609375 8.375 
L 35.9375 25.859375 
C 48.4375 39.234375 52.125 45.484375 52.125 53.546875 
C 52.125 64.765625 43.046875 73.71875 30.25 73.71875 
C 17.515625 73.71875 7.8125 65.0625 7.8125 52.265625 
L 16.1875 52.265625 
C 16.1875 60.546875 21.5625 66.046875 29.96875 66.046875 
C 37.859375 66.046875 43.890625 61.21875 43.890625 53.546875 
C 43.890625 46.84375 39.953125 41.875 31.53125 32.671875 
L 7.53125 6.390625 
z
" id="Inter-Regular-50"/>
       </defs>
       <use xlink:href="#Inter-Regular-50"/>
      </g>
     </g>
    </g>
    <g id="xtick_3">
     <g id="line2d_3">
      <g>
       <use style="stroke:#000000;stroke-width:0.8;" x="161.443199" xlink:href="#m839d1da6a0" y="315.88"/>
      </g>
     </g>
     <g id="text_3">
      <!-- 4 -->
      <g transform="translate(158.233043 330.153437)scale(0.1 -0.1)">
       <defs>
        <path d="M 5.828125 14.921875 
L 40.0625 14.921875 
L 40.0625 0 
L 48.4375 0 
L 48.4375 14.921875 
L 58.375 14.921875 
L 58.375 22.734375 
L 48.4375 22.734375 
L 48.4375 72.734375 
L 37.78125 72.734375 
L 5.828125 22.15625 
z
M 15.34375 22.734375 
L 15.34375 23.296875 
L 39.484375 61.5 
L 40.0625 61.5 
L 40.0625 22.734375 
z
" id="Inter-Regular-52"/>
       </defs>
       <use xlink:href="#Inter-Regular-52"/>
      </g>
     </g>
    </g>
    <g id="xtick_4">
     <g id="line2d_4">
      <g>
       <use style="stroke:#000000;stroke-width:0.8;" x="227.774799" xlink:href="#m839d1da6a0" y="315.88"/>
      </g>
     </g>
     <g id="text_4">
      <!-- 6 -->
      <g transform="translate(224.65683 330.153437)scale(0.1 -0.1)">
       <defs>
        <path d="M 31.671875 -1 
C 46.375 -1.171875 55.96875 9.90625 55.96875 23.4375 
C 55.96875 37.5 45.5625 47.578125 33.09375 47.578125 
C 25.609375 47.578125 19.171875 43.921875 15.203125 37.921875 
L 14.625 37.921875 
C 14.671875 55.78125 21.5625 66.046875 32.8125 66.046875 
C 40.484375 66.046875 45.09375 61.21875 46.734375 54.546875 
L 55.40625 54.546875 
C 53.625 65.984375 45.03125 73.859375 32.8125 73.859375 
C 16.4375 73.859375 6.390625 59.375 6.390625 33.515625 
C 6.390625 6.640625 19.75 -0.859375 31.671875 -1 
z
M 31.671875 6.8125 
C 22.546875 6.8125 15.875 14.59375 15.90625 23.296875 
C 15.953125 32 22.9375 39.765625 31.96875 39.765625 
C 40.875 39.765625 47.4375 32.453125 47.4375 23.4375 
C 47.4375 14.203125 40.59375 6.8125 31.671875 6.8125 
z
" id="Inter-Regular-54"/>
       </defs>
       <use xlink:href="#Inter-Regular-54"/>
      </g>
     </g>
    </g>
    <g id="xtick_5">
     <g id="line2d_5">
      <g>
       <use style="stroke:#000000;stroke-width:0.8;" x="294.106399" xlink:href="#m839d1da6a0" y="315.88"/>
      </g>
     </g>
     <g id="text_5">
      <!-- 8 -->
      <g transform="translate(291.023586 330.153437)scale(0.1 -0.1)">
       <defs>
        <path d="M 30.828125 -1 
C 45.34375 -1 55.46875 7.5 55.546875 19.3125 
C 55.46875 28.515625 49.328125 36.328125 41.484375 37.78125 
L 41.484375 38.203125 
C 48.296875 39.984375 52.765625 46.65625 52.84375 54.40625 
C 52.765625 65.484375 43.46875 73.71875 30.828125 73.71875 
C 18.046875 73.71875 8.734375 65.484375 8.8125 54.40625 
C 8.734375 46.65625 13.21875 39.984375 20.171875 38.203125 
L 20.171875 37.78125 
C 12.1875 36.328125 6.03125 28.515625 6.109375 19.3125 
C 6.03125 7.5 16.15625 -1 30.828125 -1 
z
M 30.828125 41.328125 
C 22.875 41.328125 17.265625 46.3125 17.328125 53.828125 
C 17.265625 61.21875 22.65625 66.046875 30.828125 66.046875 
C 38.84375 66.046875 44.25 61.21875 44.3125 53.828125 
C 44.25 46.3125 38.640625 41.328125 30.828125 41.328125 
z
M 30.828125 6.8125 
C 20.84375 6.8125 14.703125 11.9375 14.78125 19.75 
C 14.703125 27.953125 21.484375 33.8125 30.828125 33.8125 
C 40.015625 33.8125 46.8125 27.953125 46.875 19.75 
C 46.8125 11.9375 40.65625 6.8125 30.828125 6.8125 
z
" id="Inter-Regular-56"/>
       </defs>
       <use xlink:href="#Inter-Regular-56"/>
      </g>
     </g>
    </g>
    <g id="xtick_6">
     <g id="line2d_6">
      <g>
       <use style="stroke:#000000;stroke-width:0.8;" x="360.437999" xlink:href="#m839d1da6a0" y="315.88"/>
      </g>
     </g>
     <g id="text_6">
      <!-- 10 -->
      <g transform="translate(354.990342 330.153437)scale(0.1 -0.1)">
       <defs>
        <path d="M 33.09375 72.734375 
L 24.296875 72.734375 
L 6.109375 60.65625 
L 6.109375 51.703125 
L 23.859375 63.5 
L 24.296875 63.5 
L 24.296875 0 
L 33.09375 0 
z
" id="Inter-Regular-49"/>
       </defs>
       <use xlink:href="#Inter-Regular-49"/>
       <use x="46.448868" xlink:href="#Inter-Regular-48"/>
      </g>
     </g>
    </g>
    <g id="xtick_7">
     <g id="line2d_7">
      <g>
       <use style="stroke:#000000;stroke-width:0.8;" x="426.769598" xlink:href="#m839d1da6a0" y="315.88"/>
      </g>
     </g>
     <g id="text_7">
      <!-- 12 -->
      <g transform="translate(421.421161 330.153437)scale(0.1 -0.1)">
       <use xlink:href="#Inter-Regular-49"/>
       <use x="46.448868" xlink:href="#Inter-Regular-50"/>
      </g>
     </g>
    </g>
    <g id="xtick_8">
     <g id="line2d_8">
      <g>
       <use style="stroke:#000000;stroke-width:0.8;" x="493.101198" xlink:href="#m839d1da6a0" y="315.88"/>
      </g>
     </g>
     <g id="text_8">
      <!-- 14 -->
      <g transform="translate(487.568386 330.153437)scale(0.1 -0.1)">
       <use xlink:href="#Inter-Regular-49"/>
       <use x="46.448868" xlink:href="#Inter-Regular-52"/>
      </g>
     </g>
    </g>
    <g id="xtick_9">
     <g id="line2d_9">
      <g>
       <use style="stroke:#000000;stroke-width:0.8;" x="559.432798" xlink:href="#m839d1da6a0" y="315.88"/>
      </g>
     </g>
     <g id="text_9">
      <!-- 16 -->
      <g transform="translate(553.992173 330.153437)scale(0.1 -0.1)">
       <use xlink:href="#Inter-Regular-49"/>
       <use x="46.448868" xlink:href="#Inter-Regular-54"/>
      </g>
     </g>
    </g>
    <g id="text_10">
     <!-- Orbit Position $s$ / m -->
     <g transform="translate(250.051373 343.472188)scale(0.1 -0.1)">
      <defs>
       <path d="M 70.171875 36.359375 
C 70.171875 59.375 56.671875 73.71875 38.0625 73.71875 
C 19.46875 73.71875 5.96875 59.375 5.96875 36.359375 
C 5.96875 13.359375 19.46875 -1 38.0625 -1 
C 56.671875 -1 70.171875 13.359375 70.171875 36.359375 
z
M 61.65625 36.359375 
C 61.65625 17.46875 51.28125 7.25 38.0625 7.25 
C 24.859375 7.25 14.484375 17.46875 14.484375 36.359375 
C 14.484375 55.25 24.859375 65.484375 38.0625 65.484375 
C 51.28125 65.484375 61.65625 55.25 61.65625 36.359375 
z
" id="Inter-Regular-79"/>
       <path d="M 7.671875 0 
L 16.046875 0 
L 16.046875 34.515625 
C 16.046875 41.90625 21.875 47.296875 29.828125 47.296875 
C 32.0625 47.296875 34.375 46.875 34.9375 46.734375 
L 34.9375 55.25 
C 33.984375 55.328125 31.78125 55.390625 30.546875 55.390625 
C 24 55.390625 18.328125 51.703125 16.34375 46.3125 
L 15.765625 46.3125 
L 15.765625 54.546875 
L 7.671875 54.546875 
z
" id="Inter-Regular-114"/>
       <path d="M 8.8125 0 
L 16.90625 0 
L 16.90625 8.375 
L 17.90625 8.375 
C 19.75 5.390625 23.296875 -1.140625 33.8125 -1.140625 
C 47.4375 -1.140625 56.96875 9.796875 56.96875 27.125 
C 56.96875 44.3125 47.4375 55.25 33.671875 55.25 
C 23.015625 55.25 19.75 48.71875 17.90625 45.875 
L 17.1875 45.875 
L 17.1875 72.734375 
L 8.8125 72.734375 
z
M 17.046875 27.265625 
C 17.046875 39.484375 22.4375 47.734375 32.671875 47.734375 
C 43.328125 47.734375 48.578125 38.78125 48.578125 27.265625 
C 48.578125 15.625 43.1875 6.390625 32.671875 6.390625 
C 22.59375 6.390625 17.046875 14.921875 17.046875 27.265625 
z
" id="Inter-Regular-98"/>
       <path d="M 11.9375 63.640625 
C 15.203125 63.640625 17.90625 66.1875 17.90625 69.3125 
C 17.90625 72.4375 15.203125 75 11.9375 75 
C 8.671875 75 5.96875 72.4375 5.96875 69.3125 
C 5.96875 66.1875 8.671875 63.640625 11.9375 63.640625 
z
M 7.671875 0 
L 16.046875 0 
L 16.046875 54.546875 
L 7.671875 54.546875 
z
" id="Inter-Regular-105"/>
       <path d="M 31.390625 54.546875 
L 19.75 54.546875 
L 19.75 67.609375 
L 11.359375 67.609375 
L 11.359375 54.546875 
L 3.125 54.546875 
L 3.125 47.4375 
L 11.359375 47.4375 
L 11.359375 13.359375 
C 11.359375 3.828125 19.03125 -0.703125 26.140625 -0.703125 
C 29.265625 -0.703125 31.25 -0.140625 32.390625 0.28125 
L 30.6875 7.8125 
C 29.96875 7.671875 28.84375 7.390625 26.984375 7.390625 
C 23.296875 7.390625 19.75 8.515625 19.75 15.625 
L 19.75 47.4375 
L 31.390625 47.4375 
z
" id="Inter-Regular-116"/>
       <path id="Inter-Regular-32"/>
       <path d="M 8.8125 0 
L 17.609375 0 
L 17.609375 26.5625 
L 33.53125 26.5625 
C 50.46875 26.5625 58.09375 36.859375 58.09375 49.71875 
C 58.09375 62.578125 50.46875 72.734375 33.375 72.734375 
L 8.8125 72.734375 
z
M 33.09375 64.921875 
C 44.921875 64.921875 49.4375 58.453125 49.4375 49.71875 
C 49.4375 40.984375 44.921875 34.375 33.234375 34.375 
L 17.609375 34.375 
L 17.609375 64.921875 
z
" id="Inter-Regular-80"/>
       <path d="M 29.828125 -1.140625 
C 44.609375 -1.140625 54.546875 10.078125 54.546875 26.984375 
C 54.546875 44.03125 44.609375 55.25 29.828125 55.25 
C 15.0625 55.25 5.109375 44.03125 5.109375 26.984375 
C 5.109375 10.078125 15.0625 -1.140625 29.828125 -1.140625 
z
M 29.828125 6.390625 
C 18.609375 6.390625 13.5 16.046875 13.5 26.984375 
C 13.5 37.921875 18.609375 47.734375 29.828125 47.734375 
C 41.046875 47.734375 46.171875 37.921875 46.171875 26.984375 
C 46.171875 16.046875 41.046875 6.390625 29.828125 6.390625 
z
" id="Inter-Regular-111"/>
       <path d="M 46.3125 42.328125 
C 43.6875 50.078125 37.78125 55.25 26.984375 55.25 
C 15.484375 55.25 6.96875 48.71875 6.96875 39.484375 
C 6.96875 31.953125 11.4375 26.921875 21.453125 24.578125 
L 30.546875 22.4375 
C 36.046875 21.171875 38.640625 18.53125 38.640625 14.765625 
C 38.640625 10.078125 33.671875 6.25 25.859375 6.25 
C 19 6.25 14.703125 9.203125 13.21875 15.0625 
L 5.25 13.0625 
C 7.203125 3.796875 14.84375 -1.140625 26 -1.140625 
C 38.671875 -1.140625 47.296875 5.78125 47.296875 15.203125 
C 47.296875 22.796875 42.546875 27.59375 32.8125 29.96875 
L 24.71875 31.953125 
C 18.25 33.5625 15.34375 35.71875 15.34375 39.921875 
C 15.34375 44.609375 20.3125 48.015625 26.984375 48.015625 
C 34.3125 48.015625 37.328125 43.96875 38.78125 40.203125 
z
" id="Inter-Regular-115"/>
       <path d="M 16.046875 32.8125 
C 16.046875 42.328125 21.953125 47.734375 29.96875 47.734375 
C 37.75 47.734375 42.46875 42.65625 42.46875 34.09375 
L 42.46875 0 
L 50.859375 0 
L 50.859375 34.65625 
C 50.859375 48.578125 43.4375 55.25 32.390625 55.25 
C 24.15625 55.25 19.03125 51.5625 16.484375 46.015625 
L 15.765625 46.015625 
L 15.765625 54.546875 
L 7.671875 54.546875 
L 7.671875 0 
L 16.046875 0 
z
" id="Inter-Regular-110"/>
       <path d="M 50 53.078125 
L 48.296875 44.578125 
Q 44.734375 46.53125 40.765625 47.5 
Q 36.8125 48.484375 32.625 48.484375 
Q 25.53125 48.484375 21.453125 46.0625 
Q 17.390625 43.65625 17.390625 39.5 
Q 17.390625 34.671875 26.859375 32.078125 
Q 27.59375 31.890625 27.9375 31.78125 
L 30.8125 30.90625 
Q 39.796875 28.421875 42.796875 25.6875 
Q 45.796875 22.953125 45.796875 18.21875 
Q 45.796875 9.515625 38.890625 4.046875 
Q 31.984375 -1.421875 20.796875 -1.421875 
Q 16.453125 -1.421875 11.671875 -0.578125 
Q 6.890625 0.25 1.125 2 
L 2.875 11.28125 
Q 7.8125 8.734375 12.59375 7.421875 
Q 17.390625 6.109375 21.78125 6.109375 
Q 28.375 6.109375 32.5 8.9375 
Q 36.625 11.765625 36.625 16.109375 
Q 36.625 20.796875 25.78125 23.6875 
L 24.859375 23.921875 
L 21.78125 24.703125 
Q 14.9375 26.515625 11.765625 29.46875 
Q 8.59375 32.421875 8.59375 37.015625 
Q 8.59375 45.75 15.15625 50.875 
Q 21.734375 56 33.015625 56 
Q 37.453125 56 41.671875 55.265625 
Q 45.90625 54.546875 50 53.078125 
z
" id="DejaVuSans-Oblique-115"/>
       <path d="M 33.375 76.140625 
L 25.71875 76.140625 
L 2.28125 -10.9375 
L 9.9375 -10.9375 
z
" id="Inter-Regular-47"/>
       <path d="M 7.671875 0 
L 16.046875 0 
L 16.046875 34.09375 
C 16.046875 42.078125 21.875 47.734375 28.40625 47.734375 
C 34.765625 47.734375 39.203125 43.578125 39.203125 37.359375 
L 39.203125 0 
L 47.734375 0 
L 47.734375 35.515625 
C 47.734375 42.546875 52.125 47.734375 59.796875 47.734375 
C 65.765625 47.734375 70.875 44.5625 70.875 36.5 
L 70.875 0 
L 79.265625 0 
L 79.265625 36.5 
C 79.265625 49.328125 72.375 55.25 62.640625 55.25 
C 54.828125 55.25 49.109375 51.671875 46.3125 46.015625 
L 45.734375 46.015625 
C 43.046875 51.84375 38.28125 55.25 31.109375 55.25 
C 24 55.25 18.75 51.84375 16.484375 46.015625 
L 15.765625 46.015625 
L 15.765625 54.546875 
L 7.671875 54.546875 
z
" id="Inter-Regular-109"/>
      </defs>
      <use transform="translate(0 0.859375)" xlink:href="#Inter-Regular-79"/>
      <use transform="translate(76.136383 0.859375)" xlink:href="#Inter-Regular-114"/>
      <use transform="translate(113.352295 0.859375)" xlink:href="#Inter-Regular-98"/>
      <use transform="translate(175.426178 0.859375)" xlink:href="#Inter-Regular-105"/>
      <use transform="translate(199.147766 0.859375)" xlink:href="#Inter-Regular-116"/>
      <use transform="translate(235.511414 0.859375)" xlink:href="#Inter-Regular-32"/>
      <use transform="translate(263.636414 0.859375)" xlink:href="#Inter-Regular-80"/>
      <use transform="translate(327.130737 0.859375)" xlink:href="#Inter-Regular-111"/>
      <use transform="translate(386.789841 0.859375)" xlink:href="#Inter-Regular-115"/>
      <use transform="translate(439.062576 0.859375)" xlink:href="#Inter-Regular-105"/>
      <use transform="translate(462.784164 0.859375)" xlink:href="#Inter-Regular-116"/>
      <use transform="translate(499.147812 0.859375)" xlink:href="#Inter-Regular-105"/>
      <use transform="translate(522.8694 0.859375)" xlink:href="#Inter-Regular-111"/>
      <use transform="translate(582.528503 0.859375)" xlink:href="#Inter-Regular-110"/>
      <use transform="translate(641.051239 0.859375)" xlink:href="#Inter-Regular-32"/>
      <use transform="translate(669.176239 0.859375)" xlink:href="#DejaVuSans-Oblique-115"/>
      <use transform="translate(721.275848 0.859375)" xlink:href="#Inter-Regular-32"/>
      <use transform="translate(749.400848 0.859375)" xlink:href="#Inter-Regular-47"/>
      <use transform="translate(785.05426 0.859375)" xlink:href="#Inter-Regular-32"/>
      <use transform="translate(813.17926 0.859375)" xlink:href="#Inter-Regular-109"/>
     </g>
    </g>
   </g>
   <g id="matplotlib.axis_2">
    <g id="ytick_1">
     <g id="line2d_10">
      <defs>
       <path d="M 0 0 
L -3.5 0 
" id="m6dea7d0efa" style="stroke:#000000;stroke-width:0.8;"/>
      </defs>
      <g>
       <use style="stroke:#000000;stroke-width:0.8;" x="28.78" xlink:href="#m6dea7d0efa" y="302.4336"/>
      </g>
     </g>
     <g id="text_11">
      <!-- 0 -->
      <g transform="translate(15.53 306.070319)scale(0.1 -0.1)">
       <use xlink:href="#Inter-Regular-48"/>
      </g>
     </g>
    </g>
    <g id="ytick_2">
     <g id="line2d_11">
      <g>
       <use style="stroke:#000000;stroke-width:0.8;" x="28.78" xlink:href="#m6dea7d0efa" y="269.978389"/>
      </g>
     </g>
     <g id="text_12">
      <!-- 2 -->
      <g transform="translate(15.728438 273.615108)scale(0.1 -0.1)">
       <use xlink:href="#Inter-Regular-50"/>
      </g>
     </g>
    </g>
    <g id="ytick_3">
     <g id="line2d_12">
      <g>
       <use style="stroke:#000000;stroke-width:0.8;" x="28.78" xlink:href="#m6dea7d0efa" y="237.523178"/>
      </g>
     </g>
     <g id="text_13">
      <!-- 4 -->
      <g transform="translate(15.359688 241.159897)scale(0.1 -0.1)">
       <use xlink:href="#Inter-Regular-52"/>
      </g>
     </g>
    </g>
    <g id="ytick_4">
     <g id="line2d_13">
      <g>
       <use style="stroke:#000000;stroke-width:0.8;" x="28.78" xlink:href="#m6dea7d0efa" y="205.067967"/>
      </g>
     </g>
     <g id="text_14">
      <!-- 6 -->
      <g transform="translate(15.544063 208.704685)scale(0.1 -0.1)">
       <use xlink:href="#Inter-Regular-54"/>
      </g>
     </g>
    </g>
    <g id="ytick_5">
     <g id="line2d_14">
      <g>
       <use style="stroke:#000000;stroke-width:0.8;" x="28.78" xlink:href="#m6dea7d0efa" y="172.612756"/>
      </g>
     </g>
     <g id="text_15">
      <!-- 8 -->
      <g transform="translate(15.614375 176.249474)scale(0.1 -0.1)">
       <use xlink:href="#Inter-Regular-56"/>
      </g>
     </g>
    </g>
    <g id="ytick_6">
     <g id="line2d_15">
      <g>
       <use style="stroke:#000000;stroke-width:0.8;" x="28.78" xlink:href="#m6dea7d0efa" y="140.157544"/>
      </g>
     </g>
     <g id="text_16">
      <!-- 10 -->
      <g transform="translate(10.884688 143.794263)scale(0.1 -0.1)">
       <use xlink:href="#Inter-Regular-49"/>
       <use x="46.448868" xlink:href="#Inter-Regular-48"/>
      </g>
     </g>
    </g>
    <g id="ytick_7">
     <g id="line2d_16">
      <g>
       <use style="stroke:#000000;stroke-width:0.8;" x="28.78" xlink:href="#m6dea7d0efa" y="107.702333"/>
      </g>
     </g>
     <g id="text_17">
      <!-- 12 -->
      <g transform="translate(11.083125 111.339052)scale(0.1 -0.1)">
       <use xlink:href="#Inter-Regular-49"/>
       <use x="46.448868" xlink:href="#Inter-Regular-50"/>
      </g>
     </g>
    </g>
    <g id="ytick_8">
     <g id="line2d_17">
      <g>
       <use style="stroke:#000000;stroke-width:0.8;" x="28.78" xlink:href="#m6dea7d0efa" y="75.247122"/>
      </g>
     </g>
     <g id="text_18">
      <!-- 14 -->
      <g transform="translate(10.714375 78.883841)scale(0.1 -0.1)">
       <use xlink:href="#Inter-Regular-49"/>
       <use x="46.448868" xlink:href="#Inter-Regular-52"/>
      </g>
     </g>
    </g>
    <g id="ytick_9">
     <g id="line2d_18">
      <g>
       <use style="stroke:#000000;stroke-width:0.8;" x="28.78" xlink:href="#m6dea7d0efa" y="42.791911"/>
      </g>
     </g>
     <g id="text_19">
      <!-- 16 -->
      <g transform="translate(10.89875 46.42863)scale(0.1 -0.1)">
       <use xlink:href="#Inter-Regular-49"/>
       <use x="46.448868" xlink:href="#Inter-Regular-54"/>
      </g>
     </g>
    </g>
   </g>
   <g id="patch_3">
    <path d="M 28.78 315.88 
L 28.78 28.26 
" style="fill:none;stroke:#000000;stroke-linecap:square;stroke-linejoin:miter;stroke-width:0.8;"/>
   </g>
   <g id="patch_4">
    <path d="M 561.422746 315.88 
L 561.422746 28.26 
" style="fill:none;stroke:#000000;stroke-linecap:square;stroke-linejoin:miter;stroke-width:0.8;"/>
   </g>
   <g id="patch_5">
    <path d="M 28.78 315.88 
L 561.422746 315.88 
" style="fill:none;stroke:#000000;stroke-linecap:square;stroke-linejoin:miter;stroke-width:0.8;"/>
   </g>
   <g id="patch_6">
    <path d="M 28.78 28.26 
L 561.422746 28.26 
" style="fill:none;stroke:#000000;stroke-linecap:square;stroke-linejoin:miter;stroke-width:0.8;"/>
   </g>
   <g id="line2d_19">
    <path clip-path="url(#pdde742c42a)" d="M 28.78 302.606748 
L 138.558798 302.61586 
L 148.17688 302.404533 
L 149.171854 302.072774 
L 150.166828 301.470057 
L 151.161802 300.5964 
L 152.156776 299.451829 
L 153.483408 297.504377 
L 154.81004 295.075473 
L 159.121593 285.984456 
L 160.779883 282.067391 
L 162.438173 277.573388 
L 170.729623 252.75458 
L 173.051229 246.088354 
L 174.046203 243.987453 
L 175.041177 242.500636 
L 175.704493 241.858567 
L 176.367809 241.499502 
L 177.031125 241.42512 
L 178.357757 241.810878 
L 187.975839 244.958703 
L 191.955735 246.945363 
L 192.619051 247.523619 
L 193.282367 248.350758 
L 194.277341 250.049619 
L 195.272315 252.282454 
L 198.920553 262.014224 
L 206.217029 281.327018 
L 207.875319 284.982935 
L 212.518531 294.260593 
L 213.845163 296.272906 
L 215.171795 297.814656 
L 216.166769 298.662113 
L 217.161743 299.244808 
L 218.156717 299.562722 
L 219.151691 299.615635 
L 220.146665 299.403333 
L 221.141639 298.926246 
L 222.136613 298.184389 
L 223.131587 297.177784 
L 224.126561 295.90646 
L 225.453193 293.799644 
L 226.779825 291.236296 
L 231.091379 282.306115 
L 232.749669 278.221514 
L 242.964736 251.326442 
L 243.893378 249.519477 
L 244.82202 248.170674 
L 245.750663 247.291712 
L 246.369758 246.970688 
L 248.005937 246.659803 
L 251.322517 246.176649 
L 257.955677 246.180157 
L 263.593863 246.280867 
L 267.551649 247.000232 
L 268.170743 247.32287 
L 268.789838 247.857673 
L 269.718481 249.052964 
L 270.647123 250.710457 
L 271.575766 252.8158 
L 275.865209 264.181246 
L 282.498369 281.588733 
L 284.156659 285.220922 
L 288.799871 294.441671 
L 290.126503 296.437711 
L 291.453135 297.96318 
L 292.448109 298.79842 
L 293.443083 299.368894 
L 294.438057 299.674584 
L 295.433031 299.715278 
L 296.428005 299.490769 
L 297.422979 299.001473 
L 298.417953 298.247404 
L 299.412927 297.228585 
L 300.407901 295.945047 
L 301.734533 293.821942 
L 303.061165 291.242306 
L 307.372719 282.258872 
L 309.031009 278.152294 
L 319.246075 251.117435 
L 320.174718 249.300364 
L 321.10336 247.943353 
L 322.032002 247.05815 
L 322.651097 246.734087 
L 323.955619 246.476202 
L 327.603857 245.922904 
L 334.237017 245.903604 
L 339.875203 245.984927 
L 343.832988 246.690833 
L 344.452083 247.012533 
L 345.071178 247.547594 
L 345.999821 248.745508 
L 346.928463 250.408286 
L 347.857105 252.521531 
L 352.146549 263.933183 
L 358.779709 281.410688 
L 360.437999 285.054295 
L 365.081211 294.300409 
L 366.407843 296.303707 
L 367.734475 297.83644 
L 368.729449 298.677133 
L 369.724423 299.253063 
L 370.719397 299.564214 
L 371.714371 299.610362 
L 372.709345 299.391295 
L 373.704319 298.907444 
L 374.699293 298.158823 
L 375.694267 297.145454 
L 376.689241 295.867368 
L 378.015873 293.751537 
L 379.342505 291.179174 
L 383.654059 282.218936 
L 385.312349 278.119952 
L 395.593747 250.990766 
L 396.588721 249.119599 
L 397.583695 247.791887 
L 398.247011 247.215581 
L 399.905301 246.368987 
L 403.221881 244.83139 
L 410.186699 242.621029 
L 413.171621 241.711647 
L 413.834937 241.785416 
L 414.498253 242.142531 
L 415.161569 242.781325 
L 415.824885 243.698812 
L 416.819859 245.587865 
L 417.814833 248.074186 
L 421.46307 258.916834 
L 429.091204 281.31243 
L 430.749494 285.315821 
L 433.0711 290.255706 
L 436.38768 296.956925 
L 437.714312 299.010829 
L 439.040944 300.583199 
L 440.035918 301.446416 
L 441.030892 302.038693 
L 442.025866 302.360013 
L 443.02084 302.425418 
L 482.8198 302.522193 
L 561.754404 302.607104 
L 561.754404 302.607104 
" style="fill:none;stroke:#10b981;stroke-linecap:square;stroke-width:1.3;"/>
   </g>
   <g id="line2d_20">
    <path clip-path="url(#pdde742c42a)" d="M 28.78 277.664265 
L 32.09658 277.520837 
L 35.41316 277.164751 
L 38.72974 276.596008 
L 42.04632 275.814606 
L 45.3629 274.820547 
L 49.011138 273.481462 
L 52.659376 271.885062 
L 56.307614 270.031345 
L 59.955852 267.920312 
L 63.60409 265.551964 
L 67.252328 262.9263 
L 70.900566 260.043319 
L 74.880462 256.604782 
L 78.860358 252.860018 
L 82.840254 248.809026 
L 86.82015 244.451808 
L 91.131704 239.385918 
L 95.443258 233.960638 
L 99.754812 228.175965 
L 104.066366 222.031901 
L 108.709578 215.013293 
L 112.026158 209.847102 
L 112.357816 209.616557 
L 112.689474 209.590615 
L 113.021132 209.76939 
L 113.35279 210.152092 
L 114.016106 211.521611 
L 114.679422 213.67497 
L 117.996002 225.861849 
L 120.980924 236.0063 
L 123.965846 245.370367 
L 124.629162 247.084708 
L 125.292478 248.258975 
L 125.955794 248.915128 
L 126.287452 249.053116 
L 126.61911 249.065436 
L 126.950768 248.952143 
L 127.614084 248.346017 
L 128.2774 247.223405 
L 128.940716 245.563313 
L 129.604032 243.334698 
L 130.267348 240.495886 
L 131.262322 234.974065 
L 132.257296 227.810292 
L 134.247244 211.633251 
L 136.56885 192.303178 
L 137.563824 186.153249 
L 138.558798 181.690969 
L 142.207036 166.296266 
L 145.855274 149.928428 
L 150.166828 129.435496 
L 154.146724 109.388321 
L 159.121593 83.909755 
L 159.453251 83.326475 
L 159.784909 83.237895 
L 160.116567 83.644417 
L 160.448225 84.544203 
L 160.779883 85.933185 
L 161.443199 90.151441 
L 162.106515 96.223005 
L 163.101489 108.335809 
L 165.754753 141.012771 
L 168.076359 167.120495 
L 170.397965 190.909242 
L 172.387913 209.344047 
L 173.382887 216.429813 
L 174.377861 221.482932 
L 175.041177 223.831002 
L 175.704493 225.416011 
L 176.367809 226.26764 
L 176.699467 226.423946 
L 177.031125 226.401834 
L 177.694441 225.91044 
L 182.669311 221.399883 
L 187.975839 216.281233 
L 191.624077 212.581706 
L 191.955735 212.135806 
L 192.619051 210.619899 
L 193.282367 208.247323 
L 193.945683 204.974981 
L 194.608999 200.743433 
L 195.603973 192.424358 
L 197.925579 168.893417 
L 200.247185 143.062371 
L 202.568791 114.93122 
L 205.885371 73.014893 
L 206.548687 67.768679 
L 207.212003 64.564498 
L 207.543661 63.747376 
L 207.875319 63.459182 
L 218.488375 62.606307 
L 219.815007 62.592693 
L 227.774799 62.800256 
L 229.764747 63.013765 
L 230.096405 63.314253 
L 230.428063 64.144602 
L 230.759721 65.501124 
L 231.423037 69.766292 
L 232.086353 76.034108 
L 233.081327 88.699505 
L 235.734591 123.04735 
L 238.387855 154.371179 
L 240.709461 179.298891 
L 242.655188 197.998745 
L 243.583831 204.523947 
L 244.512473 209.184892 
L 245.131568 211.338979 
L 245.750663 212.77095 
L 246.369758 213.502891 
L 247.010963 213.633125 
L 253.644123 213.968443 
L 259.945625 214.071124 
L 266.578785 213.95151 
L 267.551649 213.829305 
L 267.861196 213.560371 
L 268.480291 212.503579 
L 269.099386 210.740193 
L 269.718481 208.243014 
L 270.337576 204.973524 
L 271.266218 198.507452 
L 272.216971 189.854694 
L 274.538577 166.119475 
L 276.860183 140.094789 
L 279.513447 107.548862 
L 282.166711 74.261318 
L 282.830027 69.040032 
L 283.493343 65.849643 
L 283.825001 65.035157 
L 284.156659 64.746738 
L 294.769715 63.840184 
L 296.096347 63.819204 
L 304.056139 63.980362 
L 306.046087 64.181283 
L 306.377745 64.478377 
L 306.709403 65.302753 
L 307.041061 66.650753 
L 307.704377 70.891387 
L 308.367693 77.125063 
L 309.362667 89.723756 
L 312.015931 123.892616 
L 314.669195 155.05442 
L 316.990801 179.854273 
L 318.936528 198.458775 
L 319.86517 204.94966 
L 320.793813 209.584685 
L 321.412908 211.725701 
L 322.032002 213.147725 
L 322.651097 213.872692 
L 323.292303 213.998316 
L 329.925463 214.289176 
L 336.226965 214.348893 
L 342.860125 214.183294 
L 343.832988 214.054495 
L 344.142536 213.784038 
L 344.761631 212.725464 
L 345.380726 210.961959 
L 345.999821 208.466322 
L 346.618915 205.200062 
L 347.547558 198.742111 
L 348.498311 190.101744 
L 350.819917 166.400108 
L 353.141523 140.410562 
L 355.794787 107.906701 
L 358.448051 74.659311 
L 359.111367 69.44221 
L 359.774683 66.252414 
L 360.106341 65.436872 
L 360.437999 65.146501 
L 371.051055 64.162886 
L 372.377687 64.132083 
L 380.337479 64.233768 
L 382.327427 64.419613 
L 382.659085 64.713932 
L 382.990743 65.535016 
L 383.322401 66.879222 
L 383.985717 71.110833 
L 384.649033 77.333708 
L 385.644007 89.913503 
L 388.297271 124.033662 
L 390.950535 155.152751 
L 393.272141 179.920139 
L 394.930431 196.082728 
L 395.925405 203.568539 
L 396.588721 207.303992 
L 397.252037 210.117138 
L 397.915353 212.059077 
L 398.578669 213.165082 
L 403.885197 218.57209 
L 409.191725 223.659559 
L 412.839963 226.968605 
L 413.171621 227.173825 
L 413.503279 227.202312 
L 413.834937 227.054198 
L 414.166595 226.728792 
L 414.829911 225.53918 
L 415.493227 223.6112 
L 416.156543 220.908752 
L 416.819859 217.381235 
L 417.814833 210.393948 
L 419.473122 195.374355 
L 421.794728 172.237603 
L 424.116334 146.817342 
L 426.43794 119.113574 
L 428.427888 95.623521 
L 429.091204 90.544833 
L 429.75452 87.337843 
L 430.086178 86.455688 
L 430.417836 86.06047 
L 430.749494 86.153976 
L 431.081152 86.735783 
L 431.41281 87.803261 
L 432.407784 92.9093 
L 436.719338 115.355829 
L 440.699234 135.013149 
L 445.010788 155.113796 
L 448.659026 171.131994 
L 452.97058 189.765036 
L 453.965554 196.384986 
L 455.292186 207.396713 
L 457.613792 226.468872 
L 458.940424 236.079381 
L 459.935398 241.525257 
L 460.930372 245.499283 
L 461.593688 247.415994 
L 462.257004 248.789975 
L 462.92032 249.646918 
L 463.583636 250.002849 
L 463.915294 249.995376 
L 464.246952 249.864424 
L 464.910268 249.229053 
L 465.573584 248.084855 
L 466.2369 246.410435 
L 469.221822 237.25804 
L 472.206744 227.342898 
L 475.191666 216.66501 
L 476.18664 213.327914 
L 476.849956 211.992643 
L 477.181614 211.621041 
L 477.513272 211.449278 
L 477.84493 211.478114 
L 478.176588 211.707422 
L 478.839904 212.663058 
L 483.483116 219.815965 
L 488.126328 226.552063 
L 492.437882 232.433796 
L 496.749436 237.956138 
L 501.06099 243.119088 
L 505.372544 247.922646 
L 509.35244 252.037713 
L 513.332336 255.846553 
L 517.312232 259.349166 
L 521.292128 262.545552 
L 524.940366 265.20656 
L 528.588604 267.610252 
L 532.236842 269.756628 
L 535.88508 271.645688 
L 539.533318 273.277433 
L 543.181556 274.651861 
L 546.829794 275.768974 
L 550.146374 276.56124 
L 553.462954 277.140849 
L 556.779534 277.507799 
L 560.096114 277.662092 
L 561.754404 277.659492 
L 561.754404 277.659492 
" style="fill:none;stroke:#3b82f6;stroke-linecap:square;stroke-width:1.3;"/>
   </g>
   <g id="patch_7">
    <path d="M 111.6945 35.4505 
L 114.679422 35.4505 
L 114.679422 21.0695 
L 111.6945 21.0695 
z
" style="fill:#ef4444;"/>
   </g>
   <g id="patch_8">
    <path d="M 117.996002 35.4505 
L 120.649266 35.4505 
L 120.649266 21.0695 
L 117.996002 21.0695 
z
" style="fill:#10b981;"/>
   </g>
   <g id="patch_9">
    <path d="M 123.965846 35.4505 
L 131.925638 35.4505 
L 131.925638 21.0695 
L 123.965846 21.0695 
z
" style="fill:#ef4444;"/>
   </g>
   <g id="patch_10">
    <path d="M 135.242218 35.4505 
L 138.22714 35.4505 
L 138.22714 21.0695 
L 135.242218 21.0695 
z
" style="fill:#ef4444;"/>
   </g>
   <g id="patch_11">
    <path d="M 141.54372 35.4505 
L 144.196984 35.4505 
L 144.196984 21.0695 
L 141.54372 21.0695 
z
" style="fill:#10b981;"/>
   </g>
   <g id="patch_12">
    <path d="M 147.513564 35.4505 
L 155.141698 35.4505 
L 155.141698 21.0695 
L 147.513564 21.0695 
z
" style="fill:#fbbf24;"/>
   </g>
   <g id="patch_13">
    <path d="M 158.458278 35.4505 
L 162.769831 35.4505 
L 162.769831 21.0695 
L 158.458278 21.0695 
z
" style="fill:#ef4444;"/>
   </g>
   <g id="patch_14">
    <path d="M 166.086411 35.4505 
L 168.739675 35.4505 
L 168.739675 21.0695 
L 166.086411 21.0695 
z
" style="fill:#10b981;"/>
   </g>
   <g id="patch_15">
    <path d="M 172.056255 35.4505 
L 177.362783 35.4505 
L 177.362783 21.0695 
L 172.056255 21.0695 
z
" style="fill:#ef4444;"/>
   </g>
   <g id="patch_16">
    <path d="M 180.679363 35.4505 
L 183.332627 35.4505 
L 183.332627 21.0695 
L 180.679363 21.0695 
z
" style="fill:#10b981;"/>
   </g>
   <g id="patch_17">
    <path d="M 186.649207 35.4505 
L 188.307497 35.4505 
L 188.307497 21.0695 
L 186.649207 21.0695 
z
" style="fill:#fbbf24;"/>
   </g>
   <g id="patch_18">
    <path d="M 191.624077 35.4505 
L 195.603973 35.4505 
L 195.603973 21.0695 
L 191.624077 21.0695 
z
" style="fill:#ef4444;"/>
   </g>
   <g id="patch_19">
    <path d="M 198.920553 35.4505 
L 201.573817 35.4505 
L 201.573817 21.0695 
L 198.920553 21.0695 
z
" style="fill:#10b981;"/>
   </g>
   <g id="patch_20">
    <path d="M 204.890397 35.4505 
L 207.875319 35.4505 
L 207.875319 21.0695 
L 204.890397 21.0695 
z
" style="fill:#ef4444;"/>
   </g>
   <g id="patch_21">
    <path d="M 211.191899 35.4505 
L 226.448167 35.4505 
L 226.448167 21.0695 
L 211.191899 21.0695 
z
" style="fill:#fbbf24;"/>
   </g>
   <g id="patch_22">
    <path d="M 229.764747 35.4505 
L 232.749669 35.4505 
L 232.749669 21.0695 
L 229.764747 21.0695 
z
" style="fill:#ef4444;"/>
   </g>
   <g id="patch_23">
    <path d="M 236.066249 35.4505 
L 238.719513 35.4505 
L 238.719513 21.0695 
L 236.066249 21.0695 
z
" style="fill:#10b981;"/>
   </g>
   <g id="patch_24">
    <path d="M 242.036093 35.4505 
L 246.679305 35.4505 
L 246.679305 21.0695 
L 242.036093 21.0695 
z
" style="fill:#ef4444;"/>
   </g>
   <g id="patch_25">
    <path d="M 249.995885 35.4505 
L 251.654175 35.4505 
L 251.654175 21.0695 
L 249.995885 21.0695 
z
" style="fill:#fbbf24;"/>
   </g>
   <g id="patch_26">
    <path d="M 254.970755 35.4505 
L 258.950651 35.4505 
L 258.950651 21.0695 
L 254.970755 21.0695 
z
" style="fill:#10b981;"/>
   </g>
   <g id="patch_27">
    <path d="M 262.267231 35.4505 
L 263.925521 35.4505 
L 263.925521 21.0695 
L 262.267231 21.0695 
z
" style="fill:#fbbf24;"/>
   </g>
   <g id="patch_28">
    <path d="M 267.242101 35.4505 
L 271.885313 35.4505 
L 271.885313 21.0695 
L 267.242101 21.0695 
z
" style="fill:#ef4444;"/>
   </g>
   <g id="patch_29">
    <path d="M 275.201893 35.4505 
L 277.855157 35.4505 
L 277.855157 21.0695 
L 275.201893 21.0695 
z
" style="fill:#10b981;"/>
   </g>
   <g id="patch_30">
    <path d="M 281.171737 35.4505 
L 284.156659 35.4505 
L 284.156659 21.0695 
L 281.171737 21.0695 
z
" style="fill:#ef4444;"/>
   </g>
   <g id="patch_31">
    <path d="M 287.473239 35.4505 
L 302.729507 35.4505 
L 302.729507 21.0695 
L 287.473239 21.0695 
z
" style="fill:#fbbf24;"/>
   </g>
   <g id="patch_32">
    <path d="M 306.046087 35.4505 
L 309.031009 35.4505 
L 309.031009 21.0695 
L 306.046087 21.0695 
z
" style="fill:#ef4444;"/>
   </g>
   <g id="patch_33">
    <path d="M 312.347589 35.4505 
L 315.000853 35.4505 
L 315.000853 21.0695 
L 312.347589 21.0695 
z
" style="fill:#10b981;"/>
   </g>
   <g id="patch_34">
    <path d="M 318.317433 35.4505 
L 322.960645 35.4505 
L 322.960645 21.0695 
L 318.317433 21.0695 
z
" style="fill:#ef4444;"/>
   </g>
   <g id="patch_35">
    <path d="M 326.277225 35.4505 
L 327.935515 35.4505 
L 327.935515 21.0695 
L 326.277225 21.0695 
z
" style="fill:#fbbf24;"/>
   </g>
   <g id="patch_36">
    <path d="M 331.252095 35.4505 
L 335.231991 35.4505 
L 335.231991 21.0695 
L 331.252095 21.0695 
z
" style="fill:#10b981;"/>
   </g>
   <g id="patch_37">
    <path d="M 338.548571 35.4505 
L 340.206861 35.4505 
L 340.206861 21.0695 
L 338.548571 21.0695 
z
" style="fill:#fbbf24;"/>
   </g>
   <g id="patch_38">
    <path d="M 343.523441 35.4505 
L 348.166653 35.4505 
L 348.166653 21.0695 
L 343.523441 21.0695 
z
" style="fill:#ef4444;"/>
   </g>
   <g id="patch_39">
    <path d="M 351.483233 35.4505 
L 354.136497 35.4505 
L 354.136497 21.0695 
L 351.483233 21.0695 
z
" style="fill:#10b981;"/>
   </g>
   <g id="patch_40">
    <path d="M 357.453077 35.4505 
L 360.437999 35.4505 
L 360.437999 21.0695 
L 357.453077 21.0695 
z
" style="fill:#ef4444;"/>
   </g>
   <g id="patch_41">
    <path d="M 363.754579 35.4505 
L 379.010847 35.4505 
L 379.010847 21.0695 
L 363.754579 21.0695 
z
" style="fill:#fbbf24;"/>
   </g>
   <g id="patch_42">
    <path d="M 382.327427 35.4505 
L 385.312349 35.4505 
L 385.312349 21.0695 
L 382.327427 21.0695 
z
" style="fill:#ef4444;"/>
   </g>
   <g id="patch_43">
    <path d="M 388.628929 35.4505 
L 391.282193 35.4505 
L 391.282193 21.0695 
L 388.628929 21.0695 
z
" style="fill:#10b981;"/>
   </g>
   <g id="patch_44">
    <path d="M 394.598773 35.4505 
L 398.578669 35.4505 
L 398.578669 21.0695 
L 394.598773 21.0695 
z
" style="fill:#ef4444;"/>
   </g>
   <g id="patch_45">
    <path d="M 401.895249 35.4505 
L 403.553539 35.4505 
L 403.553539 21.0695 
L 401.895249 21.0695 
z
" style="fill:#fbbf24;"/>
   </g>
   <g id="patch_46">
    <path d="M 406.870119 35.4505 
L 409.523383 35.4505 
L 409.523383 21.0695 
L 406.870119 21.0695 
z
" style="fill:#10b981;"/>
   </g>
   <g id="patch_47">
    <path d="M 412.839963 35.4505 
L 418.146491 35.4505 
L 418.146491 21.0695 
L 412.839963 21.0695 
z
" style="fill:#ef4444;"/>
   </g>
   <g id="patch_48">
    <path d="M 421.46307 35.4505 
L 424.116334 35.4505 
L 424.116334 21.0695 
L 421.46307 21.0695 
z
" style="fill:#10b981;"/>
   </g>
   <g id="patch_49">
    <path d="M 427.432914 35.4505 
L 431.744468 35.4505 
L 431.744468 21.0695 
L 427.432914 21.0695 
z
" style="fill:#ef4444;"/>
   </g>
   <g id="patch_50">
    <path d="M 435.061048 35.4505 
L 442.689182 35.4505 
L 442.689182 21.0695 
L 435.061048 21.0695 
z
" style="fill:#fbbf24;"/>
   </g>
   <g id="patch_51">
    <path d="M 446.005762 35.4505 
L 448.659026 35.4505 
L 448.659026 21.0695 
L 446.005762 21.0695 
z
" style="fill:#10b981;"/>
   </g>
   <g id="patch_52">
    <path d="M 451.975606 35.4505 
L 454.960528 35.4505 
L 454.960528 21.0695 
L 451.975606 21.0695 
z
" style="fill:#ef4444;"/>
   </g>
   <g id="patch_53">
    <path d="M 458.277108 35.4505 
L 466.2369 35.4505 
L 466.2369 21.0695 
L 458.277108 21.0695 
z
" style="fill:#ef4444;"/>
   </g>
   <g id="patch_54">
    <path d="M 469.55348 35.4505 
L 472.206744 35.4505 
L 472.206744 21.0695 
L 469.55348 21.0695 
z
" style="fill:#10b981;"/>
   </g>
   <g id="patch_55">
    <path d="M 475.523324 35.4505 
L 478.508246 35.4505 
L 478.508246 21.0695 
L 475.523324 21.0695 
z
" style="fill:#ef4444;"/>
   </g>
   <g id="line2d_21">
    <path clip-path="url(#pdde742c42a)" d="M 28.78 274.341349 
L 32.428238 274.246447 
L 36.076476 273.924691 
L 39.724714 273.376078 
L 43.372952 272.60061 
L 47.02119 271.598287 
L 50.669428 270.369108 
L 54.317666 268.913074 
L 57.965904 267.230184 
L 61.9458 265.135576 
L 65.925696 262.770991 
L 69.905592 260.13643 
L 73.885488 257.231891 
L 77.865384 254.057376 
L 81.84528 250.612884 
L 86.156834 246.57669 
L 90.468388 242.223648 
L 94.779942 237.553757 
L 99.091496 232.56702 
L 103.734708 226.842342 
L 108.37792 220.750196 
L 111.6945 216.173682 
L 112.357816 214.850898 
L 113.021132 212.732719 
L 113.684448 209.781601 
L 114.347764 205.945239 
L 116.006054 193.866133 
L 118.659318 172.832171 
L 121.312582 149.908534 
L 124.96082 117.22694 
L 125.624136 114.065516 
L 125.955794 113.135115 
L 126.287452 112.64472 
L 126.61911 112.596619 
L 126.950768 112.991037 
L 127.282426 113.826134 
L 127.945742 116.80074 
L 128.609058 121.464984 
L 129.272374 127.731919 
L 130.267348 139.874164 
L 131.262322 154.844804 
L 134.578902 208.756869 
L 135.905534 226.796288 
L 136.900508 237.902636 
L 137.895482 247.134444 
L 139.553772 259.842232 
L 141.212062 270.82836 
L 142.870352 280.14289 
L 144.196984 286.390963 
L 145.523616 291.569213 
L 146.51859 294.75083 
L 147.513564 297.330671 
L 148.508538 299.307909 
L 149.503512 300.68399 
L 150.166828 301.267314 
L 150.830144 301.583348 
L 151.49346 301.632075 
L 152.156776 301.413491 
L 152.820092 300.927609 
L 153.483408 300.174455 
L 154.146724 299.154071 
L 155.141698 297.122566 
L 156.136672 294.48842 
L 157.131646 291.252499 
L 158.458278 286.001843 
L 159.453251 281.163519 
L 160.448225 275.188308 
L 161.443199 267.832214 
L 162.438173 258.794851 
L 163.764805 244.035643 
L 165.091437 227.0471 
L 166.749727 202.747557 
L 168.408017 175.043719 
L 170.066307 143.935587 
L 172.056255 102.112159 
L 173.382887 75.601474 
L 174.377861 60.386627 
L 175.041177 52.837591 
L 175.704493 47.534083 
L 176.367809 44.575099 
L 176.699467 43.993806 
L 177.031125 44.01587 
L 177.362783 44.641187 
L 183.664285 61.901869 
L 189.634129 77.631992 
L 191.955735 83.834107 
L 192.619051 87.486607 
L 193.282367 93.034992 
L 193.945683 100.37878 
L 194.940657 114.461613 
L 199.915527 194.122216 
L 201.905475 220.075039 
L 203.563765 238.975974 
L 205.222055 255.344983 
L 206.217029 263.310808 
L 207.212003 269.817474 
L 208.538635 276.785933 
L 210.196925 284.149286 
L 211.523557 289.101298 
L 212.850189 293.21969 
L 214.176821 296.504097 
L 215.171795 298.419677 
L 216.166769 299.865522 
L 217.161743 300.841459 
L 217.825059 301.230965 
L 218.488375 301.41155 
L 219.151691 301.383052 
L 219.815007 301.145464 
L 220.478323 300.698952 
L 221.141639 300.043538 
L 222.136613 298.668806 
L 223.131587 296.82429 
L 224.126561 294.510207 
L 225.453193 290.694808 
L 226.779825 286.043484 
L 228.106457 280.549163 
L 229.433089 274.217519 
L 230.428063 268.775716 
L 231.423037 262.143705 
L 232.418011 254.023574 
L 233.744643 240.890717 
L 235.402933 222.150874 
L 237.061223 200.905243 
L 239.051171 172.102847 
L 241.041119 139.692116 
L 243.274283 102.019434 
L 244.202925 90.401844 
L 244.82202 84.541538 
L 245.441115 80.297667 
L 246.06021 77.735521 
L 246.369758 77.098443 
L 246.679305 76.894518 
L 256.960703 77.215613 
L 267.551649 77.527964 
L 267.861196 78.176348 
L 268.170743 79.254538 
L 268.789838 82.682096 
L 269.408933 87.757906 
L 270.337576 98.28463 
L 271.266218 111.974759 
L 275.865209 187.401256 
L 277.855157 214.365358 
L 279.513447 234.074313 
L 281.171737 251.273151 
L 282.166711 259.937047 
L 283.161685 267.015928 
L 284.156659 272.793661 
L 285.814949 280.816317 
L 287.141581 286.28728 
L 288.468213 290.916693 
L 289.794845 294.705003 
L 290.789819 296.993809 
L 291.784793 298.808801 
L 292.779767 300.149762 
L 293.774741 301.016535 
L 294.438057 301.330893 
L 295.101373 301.434437 
L 295.764689 301.326859 
L 296.428005 301.008467 
L 297.091321 300.479278 
L 298.086295 299.290312 
L 299.081269 297.627259 
L 300.076243 295.490314 
L 301.071217 292.879732 
L 302.397849 288.662727 
L 303.724481 283.597007 
L 305.051113 277.684303 
L 306.377745 270.892415 
L 307.372719 264.68742 
L 308.367693 257.088218 
L 309.362667 247.849475 
L 311.020957 230.087072 
L 312.679247 209.805793 
L 314.337537 187.005639 
L 316.327485 156.320539 
L 318.317433 122.008258 
L 319.555623 101.82658 
L 320.484265 90.158621 
L 321.10336 84.265824 
L 321.722455 79.990917 
L 322.34155 77.399668 
L 322.651097 76.748905 
L 322.960645 76.531943 
L 333.242043 76.431745 
L 343.832988 76.312099 
L 344.142536 76.951365 
L 344.452083 78.022835 
L 345.071178 81.444242 
L 345.690273 86.523684 
L 346.309368 93.183016 
L 347.23801 105.903933 
L 348.498311 127.477962 
L 350.488259 161.208794 
L 352.478207 191.318787 
L 354.468155 217.807941 
L 356.126445 237.116316 
L 357.784735 253.855177 
L 358.779709 262.003857 
L 359.774683 268.659267 
L 361.101315 275.787686 
L 362.759605 283.336614 
L 364.086237 288.430599 
L 365.412869 292.685242 
L 366.739501 296.100171 
L 367.734475 298.109866 
L 368.729449 299.646576 
L 369.724423 300.710119 
L 370.387739 301.156212 
L 371.051055 301.391929 
L 371.714371 301.417105 
L 372.377687 301.231745 
L 373.041003 300.836012 
L 373.704319 300.229926 
L 374.699293 298.926459 
L 375.694267 297.149927 
L 376.689241 294.900541 
L 377.684215 292.178567 
L 379.010847 287.814697 
L 380.337479 282.600921 
L 381.664111 276.544035 
L 382.990743 269.503642 
L 383.985717 262.930213 
L 384.980691 254.882991 
L 386.307323 241.865301 
L 387.965613 223.272062 
L 389.623903 202.174636 
L 391.613851 173.552199 
L 393.603799 141.323732 
L 395.925405 102.678213 
L 396.920379 90.909056 
L 397.583695 85.302778 
L 398.247011 81.611632 
L 398.910327 79.650343 
L 404.880171 63.916884 
L 410.850015 47.572613 
L 413.171621 41.35648 
L 413.503279 41.333636 
L 413.834937 41.920364 
L 414.166595 43.113923 
L 414.829911 47.296416 
L 415.493227 53.803046 
L 416.156543 62.51236 
L 417.151517 79.340234 
L 418.478149 107.430064 
L 420.468096 148.857446 
L 422.458044 185.332874 
L 424.116334 211.946322 
L 425.774624 235.120914 
L 427.432914 254.856648 
L 428.427888 264.633105 
L 429.422862 272.59519 
L 430.417836 279.068034 
L 431.41281 284.315954 
L 432.739442 289.912765 
L 434.066074 294.409323 
L 435.061048 297.072753 
L 436.056022 299.127607 
L 437.050996 300.5754 
L 437.714312 301.203249 
L 438.377628 301.561177 
L 439.040944 301.649166 
L 439.70426 301.467209 
L 440.367576 301.015318 
L 441.030892 300.293517 
L 441.694208 299.301846 
L 442.689182 297.308456 
L 443.684156 294.706531 
L 444.67913 291.496903 
L 446.005762 286.272081 
L 447.332394 279.966897 
L 448.659026 272.58135 
L 450.317316 261.830155 
L 451.975606 249.390894 
L 452.97058 240.631322 
L 453.965554 230.089596 
L 454.960528 217.4153 
L 456.618818 192.711092 
L 458.608766 159.059618 
L 459.935398 138.38151 
L 460.930372 126.122822 
L 461.593688 119.794951 
L 462.257004 115.084486 
L 462.92032 112.079238 
L 463.251978 111.234852 
L 463.583636 110.835229 
L 463.915294 110.882235 
L 464.246952 111.375651 
L 464.57861 112.313173 
L 465.241926 115.500988 
L 465.905242 120.386257 
L 471.875086 174.358498 
L 474.52835 195.344079 
L 476.18664 207.064914 
L 476.849956 210.481416 
L 477.513272 213.032541 
L 478.176588 214.763505 
L 479.171562 216.268603 
L 483.814774 222.61789 
L 488.457986 228.599708 
L 493.101198 234.214058 
L 497.74441 239.460939 
L 502.055964 244.004009 
L 506.367518 248.230231 
L 510.679072 252.139605 
L 514.990626 255.732131 
L 518.970522 258.767084 
L 522.950418 261.532059 
L 526.930314 264.027058 
L 530.91021 266.252079 
L 534.890106 268.207124 
L 538.538344 269.762082 
L 542.186582 271.090183 
L 545.83482 272.19143 
L 549.483058 273.06582 
L 553.131296 273.713355 
L 556.779534 274.134035 
L 560.427772 274.327859 
L 561.754404 274.342095 
L 561.754404 274.342095 
" style="fill:none;stroke:#ef4444;stroke-linecap:square;stroke-width:1.3;"/>
   </g>
   <g id="text_20">
    <!-- uq3 -->
    <g transform="translate(107.372547 16.009625)scale(0.08 -0.08)">
     <defs>
      <path d="M 42.046875 22.296875 
C 42.046875 12.078125 34.234375 7.390625 27.984375 7.390625 
C 21.03125 7.390625 16.046875 12.5 16.046875 20.453125 
L 16.046875 54.546875 
L 7.671875 54.546875 
L 7.671875 19.890625 
C 7.671875 5.96875 15.0625 -0.703125 25.28125 -0.703125 
C 33.53125 -0.703125 38.921875 3.6875 41.484375 9.234375 
L 42.046875 9.234375 
L 42.046875 0 
L 50.421875 0 
L 50.421875 54.546875 
L 42.046875 54.546875 
z
" id="Inter-Regular-117"/>
      <path d="M 53.265625 -20.453125 
L 53.265625 54.546875 
L 45.171875 54.546875 
L 45.171875 45.875 
L 44.171875 45.875 
C 42.328125 48.71875 39.0625 55.25 28.40625 55.25 
C 14.625 55.25 5.109375 44.3125 5.109375 27.125 
C 5.109375 9.796875 14.625 -1.140625 28.265625 -1.140625 
C 38.78125 -1.140625 42.328125 5.390625 44.171875 8.375 
L 44.890625 8.375 
L 44.890625 -20.453125 
z
M 45.03125 27.265625 
C 45.03125 14.921875 39.484375 6.390625 29.40625 6.390625 
C 18.890625 6.390625 13.5 15.625 13.5 27.265625 
C 13.5 38.78125 18.75 47.734375 29.40625 47.734375 
C 39.625 47.734375 45.03125 39.484375 45.03125 27.265625 
z
" id="Inter-Regular-113"/>
      <path d="M 32.109375 -1 
C 46.203125 -1 56.671875 7.84375 56.671875 19.75 
C 56.671875 28.984375 51.203125 35.6875 42.046875 37.21875 
L 42.046875 37.78125 
C 49.390625 40.015625 53.984375 46.0625 53.984375 54.265625 
C 53.984375 64.5625 45.84375 73.71875 32.390625 73.71875 
C 19.8125 73.71875 9.375 65.984375 8.953125 54.546875 
L 17.46875 54.546875 
C 17.796875 61.796875 24.6875 66.046875 32.25 66.046875 
C 40.265625 66.046875 45.453125 61.1875 45.453125 53.828125 
C 45.453125 46.171875 39.453125 41.1875 30.828125 41.1875 
L 25 41.1875 
L 25 33.375 
L 30.828125 33.375 
C 41.875 33.375 48.015625 27.765625 48.015625 19.75 
C 48.015625 12.03125 41.296875 6.8125 31.96875 6.8125 
C 23.546875 6.8125 16.875 11.15625 16.34375 18.1875 
L 7.390625 18.1875 
C 7.921875 6.75 18 -1 32.109375 -1 
z
" id="Inter-Regular-51"/>
     </defs>
     <use xlink:href="#Inter-Regular-117"/>
     <use x="58.096603" xlink:href="#Inter-Regular-113"/>
     <use x="119.034119" xlink:href="#Inter-Regular-51"/>
    </g>
   </g>
   <g id="text_21">
    <!-- s5 -->
    <g transform="translate(116.126141 44.73225)scale(0.08 -0.08)">
     <defs>
      <path d="M 30.25 -1 
C 44.109375 -1 54.265625 9.234375 54.265625 23.15625 
C 54.265625 37.25 44.46875 47.578125 31.109375 47.578125 
C 26.203125 47.578125 21.453125 45.84375 18.46875 43.46875 
L 18.046875 43.46875 
L 20.59375 64.921875 
L 51 64.921875 
L 51 72.734375 
L 13.21875 72.734375 
L 8.8125 36.9375 
L 17.046875 35.9375 
C 20.0625 38.109375 25.21875 39.671875 29.6875 39.625 
C 38.953125 39.5625 45.734375 32.53125 45.734375 23.015625 
C 45.734375 13.671875 39.203125 6.8125 30.25 6.8125 
C 22.796875 6.8125 16.875 11.609375 16.1875 18.1875 
L 7.671875 18.1875 
C 8.203125 7.109375 17.75 -1 30.25 -1 
z
" id="Inter-Regular-53"/>
     </defs>
     <use xlink:href="#Inter-Regular-115"/>
     <use x="52.272736" xlink:href="#Inter-Regular-53"/>
    </g>
   </g>
   <g id="text_22">
    <!-- uq2 -->
    <g transform="translate(124.743763 16.009625)scale(0.08 -0.08)">
     <use xlink:href="#Inter-Regular-117"/>
     <use x="58.096603" xlink:href="#Inter-Regular-113"/>
     <use x="119.034119" xlink:href="#Inter-Regular-50"/>
    </g>
   </g>
   <g id="text_23">
    <!-- uq1 -->
    <g transform="translate(131.607765 15.97025)scale(0.08 -0.08)">
     <use xlink:href="#Inter-Regular-117"/>
     <use x="58.096603" xlink:href="#Inter-Regular-113"/>
     <use x="119.034119" xlink:href="#Inter-Regular-49"/>
    </g>
   </g>
   <g id="text_24">
    <!-- s3 -->
    <g transform="translate(139.560109 44.73225)scale(0.08 -0.08)">
     <use xlink:href="#Inter-Regular-115"/>
     <use x="52.272736" xlink:href="#Inter-Regular-51"/>
    </g>
   </g>
   <g id="text_25">
    <!-- mb0 -->
    <g transform="translate(146.681073 44.73225)scale(0.08 -0.08)">
     <use xlink:href="#Inter-Regular-109"/>
     <use x="86.931839" xlink:href="#Inter-Regular-98"/>
     <use x="149.005722" xlink:href="#Inter-Regular-48"/>
    </g>
   </g>
   <g id="text_26">
    <!-- mq1 -->
    <g transform="translate(154.996706 15.97025)scale(0.08 -0.08)">
     <use xlink:href="#Inter-Regular-109"/>
     <use x="86.931839" xlink:href="#Inter-Regular-113"/>
     <use x="147.869354" xlink:href="#Inter-Regular-49"/>
    </g>
   </g>
   <g id="text_27">
    <!-- s1a -->
    <g transform="translate(162.534675 44.73225)scale(0.08 -0.08)">
     <defs>
      <path d="M 23.71875 -1.28125 
C 33.234375 -1.28125 38.21875 3.828125 39.921875 7.390625 
L 40.34375 7.390625 
L 40.34375 0 
L 48.71875 0 
L 48.71875 35.9375 
C 48.71875 53.265625 35.515625 55.25 28.546875 55.25 
C 20.3125 55.25 10.9375 52.421875 6.671875 42.46875 
L 14.625 39.625 
C 16.484375 43.609375 20.84375 47.875 28.84375 47.875 
C 36.546875 47.875 40.34375 43.78125 40.34375 36.796875 
L 40.34375 36.5 
C 40.34375 32.453125 36.21875 32.8125 26.28125 31.53125 
C 16.15625 30.21875 5.109375 27.984375 5.109375 15.484375 
C 5.109375 4.828125 13.359375 -1.28125 23.71875 -1.28125 
z
M 25 6.25 
C 18.328125 6.25 13.5 9.234375 13.5 15.0625 
C 13.5 21.453125 19.3125 23.4375 25.859375 24.296875 
C 29.40625 24.71875 38.921875 25.703125 40.34375 27.421875 
L 40.34375 19.75 
C 40.34375 12.921875 34.9375 6.25 25 6.25 
z
" id="Inter-Regular-97"/>
     </defs>
     <use xlink:href="#Inter-Regular-115"/>
     <use x="52.272736" xlink:href="#Inter-Regular-49"/>
     <use x="98.721603" xlink:href="#Inter-Regular-97"/>
    </g>
   </g>
   <g id="text_28">
    <!-- mq2 -->
    <g transform="translate(169.027158 16.009625)scale(0.08 -0.08)">
     <use xlink:href="#Inter-Regular-109"/>
     <use x="86.931839" xlink:href="#Inter-Regular-113"/>
     <use x="147.869354" xlink:href="#Inter-Regular-50"/>
    </g>
   </g>
   <g id="text_29">
    <!-- s0a -->
    <g transform="translate(176.485752 44.73225)scale(0.08 -0.08)">
     <use xlink:href="#Inter-Regular-115"/>
     <use x="52.272736" xlink:href="#Inter-Regular-48"/>
     <use x="114.772751" xlink:href="#Inter-Regular-97"/>
    </g>
   </g>
   <g id="text_30">
    <!-- b1 -->
    <g transform="translate(183.966247 44.73225)scale(0.08 -0.08)">
     <use xlink:href="#Inter-Regular-98"/>
     <use x="62.073883" xlink:href="#Inter-Regular-49"/>
    </g>
   </g>
   <g id="text_31">
    <!-- q1a -->
    <g transform="translate(189.052723 15.97025)scale(0.08 -0.08)">
     <use xlink:href="#Inter-Regular-113"/>
     <use x="60.937515" xlink:href="#Inter-Regular-49"/>
     <use x="107.386383" xlink:href="#Inter-Regular-97"/>
    </g>
   </g>
   <g id="text_32">
    <!-- s1 -->
    <g transform="translate(197.624442 44.73225)scale(0.08 -0.08)">
     <use xlink:href="#Inter-Regular-115"/>
     <use x="52.272736" xlink:href="#Inter-Regular-49"/>
    </g>
   </g>
   <g id="text_33">
    <!-- q0 -->
    <g transform="translate(202.937819 16.009625)scale(0.08 -0.08)">
     <use xlink:href="#Inter-Regular-113"/>
     <use x="60.937515" xlink:href="#Inter-Regular-48"/>
    </g>
   </g>
   <g id="text_34">
    <!-- b0 -->
    <g transform="translate(221.465042 44.73225)scale(0.08 -0.08)">
     <use xlink:href="#Inter-Regular-98"/>
     <use x="62.073883" xlink:href="#Inter-Regular-48"/>
    </g>
   </g>
   <g id="text_35">
    <!-- q0 -->
    <g transform="translate(227.812169 16.009625)scale(0.08 -0.08)">
     <use xlink:href="#Inter-Regular-113"/>
     <use x="60.937515" xlink:href="#Inter-Regular-48"/>
    </g>
   </g>
   <g id="text_36">
    <!-- s1 -->
    <g transform="translate(234.770138 44.73225)scale(0.08 -0.08)">
     <use xlink:href="#Inter-Regular-115"/>
     <use x="52.272736" xlink:href="#Inter-Regular-49"/>
    </g>
   </g>
   <g id="text_37">
    <!-- q1 -->
    <g transform="translate(242.38368 15.97025)scale(0.08 -0.08)">
     <use xlink:href="#Inter-Regular-113"/>
     <use x="60.937515" xlink:href="#Inter-Regular-49"/>
    </g>
   </g>
   <g id="text_38">
    <!-- b1 -->
    <g transform="translate(247.312925 44.73225)scale(0.08 -0.08)">
     <use xlink:href="#Inter-Regular-98"/>
     <use x="62.073883" xlink:href="#Inter-Regular-49"/>
    </g>
   </g>
   <g id="text_39">
    <!-- s0 -->
    <g transform="translate(254.359401 44.73225)scale(0.08 -0.08)">
     <use xlink:href="#Inter-Regular-115"/>
     <use x="52.272736" xlink:href="#Inter-Regular-48"/>
    </g>
   </g>
   <g id="text_40">
    <!-- b1 -->
    <g transform="translate(259.584271 44.73225)scale(0.08 -0.08)">
     <use xlink:href="#Inter-Regular-98"/>
     <use x="62.073883" xlink:href="#Inter-Regular-49"/>
    </g>
   </g>
   <g id="text_41">
    <!-- q1 -->
    <g transform="translate(267.589688 15.97025)scale(0.08 -0.08)">
     <use xlink:href="#Inter-Regular-113"/>
     <use x="60.937515" xlink:href="#Inter-Regular-49"/>
    </g>
   </g>
   <g id="text_42">
    <!-- s1 -->
    <g transform="translate(273.905782 44.73225)scale(0.08 -0.08)">
     <use xlink:href="#Inter-Regular-115"/>
     <use x="52.272736" xlink:href="#Inter-Regular-49"/>
    </g>
   </g>
   <g id="text_43">
    <!-- q0 -->
    <g transform="translate(279.219159 16.009625)scale(0.08 -0.08)">
     <use xlink:href="#Inter-Regular-113"/>
     <use x="60.937515" xlink:href="#Inter-Regular-48"/>
    </g>
   </g>
   <g id="text_44">
    <!-- b0 -->
    <g transform="translate(297.746382 44.73225)scale(0.08 -0.08)">
     <use xlink:href="#Inter-Regular-98"/>
     <use x="62.073883" xlink:href="#Inter-Regular-48"/>
    </g>
   </g>
   <g id="text_45">
    <!-- q0 -->
    <g transform="translate(304.093509 16.009625)scale(0.08 -0.08)">
     <use xlink:href="#Inter-Regular-113"/>
     <use x="60.937515" xlink:href="#Inter-Regular-48"/>
    </g>
   </g>
   <g id="text_46">
    <!-- s1 -->
    <g transform="translate(311.051478 44.73225)scale(0.08 -0.08)">
     <use xlink:href="#Inter-Regular-115"/>
     <use x="52.272736" xlink:href="#Inter-Regular-49"/>
    </g>
   </g>
   <g id="text_47">
    <!-- q1 -->
    <g transform="translate(318.66502 15.97025)scale(0.08 -0.08)">
     <use xlink:href="#Inter-Regular-113"/>
     <use x="60.937515" xlink:href="#Inter-Regular-49"/>
    </g>
   </g>
   <g id="text_48">
    <!-- b1 -->
    <g transform="translate(323.594265 44.73225)scale(0.08 -0.08)">
     <use xlink:href="#Inter-Regular-98"/>
     <use x="62.073883" xlink:href="#Inter-Regular-49"/>
    </g>
   </g>
   <g id="text_49">
    <!-- s0 -->
    <g transform="translate(330.640741 44.73225)scale(0.08 -0.08)">
     <use xlink:href="#Inter-Regular-115"/>
     <use x="52.272736" xlink:href="#Inter-Regular-48"/>
    </g>
   </g>
   <g id="text_50">
    <!-- b1 -->
    <g transform="translate(335.865611 44.73225)scale(0.08 -0.08)">
     <use xlink:href="#Inter-Regular-98"/>
     <use x="62.073883" xlink:href="#Inter-Regular-49"/>
    </g>
   </g>
   <g id="text_51">
    <!-- q1 -->
    <g transform="translate(343.871028 15.97025)scale(0.08 -0.08)">
     <use xlink:href="#Inter-Regular-113"/>
     <use x="60.937515" xlink:href="#Inter-Regular-49"/>
    </g>
   </g>
   <g id="text_52">
    <!-- s1 -->
    <g transform="translate(350.187122 44.73225)scale(0.08 -0.08)">
     <use xlink:href="#Inter-Regular-115"/>
     <use x="52.272736" xlink:href="#Inter-Regular-49"/>
    </g>
   </g>
   <g id="text_53">
    <!-- q0 -->
    <g transform="translate(355.500499 16.009625)scale(0.08 -0.08)">
     <use xlink:href="#Inter-Regular-113"/>
     <use x="60.937515" xlink:href="#Inter-Regular-48"/>
    </g>
   </g>
   <g id="text_54">
    <!-- b0 -->
    <g transform="translate(374.027722 44.73225)scale(0.08 -0.08)">
     <use xlink:href="#Inter-Regular-98"/>
     <use x="62.073883" xlink:href="#Inter-Regular-48"/>
    </g>
   </g>
   <g id="text_55">
    <!-- q0 -->
    <g transform="translate(380.374849 16.009625)scale(0.08 -0.08)">
     <use xlink:href="#Inter-Regular-113"/>
     <use x="60.937515" xlink:href="#Inter-Regular-48"/>
    </g>
   </g>
   <g id="text_56">
    <!-- s1 -->
    <g transform="translate(387.332818 44.73225)scale(0.08 -0.08)">
     <use xlink:href="#Inter-Regular-115"/>
     <use x="52.272736" xlink:href="#Inter-Regular-49"/>
    </g>
   </g>
   <g id="text_57">
    <!-- q1a -->
    <g transform="translate(392.027419 15.97025)scale(0.08 -0.08)">
     <use xlink:href="#Inter-Regular-113"/>
     <use x="60.937515" xlink:href="#Inter-Regular-49"/>
     <use x="107.386383" xlink:href="#Inter-Regular-97"/>
    </g>
   </g>
   <g id="text_58">
    <!-- b1 -->
    <g transform="translate(399.212289 44.73225)scale(0.08 -0.08)">
     <use xlink:href="#Inter-Regular-98"/>
     <use x="62.073883" xlink:href="#Inter-Regular-49"/>
    </g>
   </g>
   <g id="text_59">
    <!-- s0a -->
    <g transform="translate(402.676508 44.73225)scale(0.08 -0.08)">
     <use xlink:href="#Inter-Regular-115"/>
     <use x="52.272736" xlink:href="#Inter-Regular-48"/>
     <use x="114.772751" xlink:href="#Inter-Regular-97"/>
    </g>
   </g>
   <g id="text_60">
    <!-- mq2 -->
    <g transform="translate(409.810866 16.009625)scale(0.08 -0.08)">
     <use xlink:href="#Inter-Regular-109"/>
     <use x="86.931839" xlink:href="#Inter-Regular-113"/>
     <use x="147.869354" xlink:href="#Inter-Regular-50"/>
    </g>
   </g>
   <g id="text_61">
    <!-- s1a -->
    <g transform="translate(417.911334 44.73225)scale(0.08 -0.08)">
     <use xlink:href="#Inter-Regular-115"/>
     <use x="52.272736" xlink:href="#Inter-Regular-49"/>
     <use x="98.721603" xlink:href="#Inter-Regular-97"/>
    </g>
   </g>
   <g id="text_62">
    <!-- mq1 -->
    <g transform="translate(423.971343 15.97025)scale(0.08 -0.08)">
     <use xlink:href="#Inter-Regular-109"/>
     <use x="86.931839" xlink:href="#Inter-Regular-113"/>
     <use x="147.869354" xlink:href="#Inter-Regular-49"/>
    </g>
   </g>
   <g id="text_63">
    <!-- mb0 -->
    <g transform="translate(434.228557 44.73225)scale(0.08 -0.08)">
     <use xlink:href="#Inter-Regular-109"/>
     <use x="86.931839" xlink:href="#Inter-Regular-98"/>
     <use x="149.005722" xlink:href="#Inter-Regular-48"/>
    </g>
   </g>
   <g id="text_64">
    <!-- s3 -->
    <g transform="translate(444.022151 44.73225)scale(0.08 -0.08)">
     <use xlink:href="#Inter-Regular-115"/>
     <use x="52.272736" xlink:href="#Inter-Regular-51"/>
    </g>
   </g>
   <g id="text_65">
    <!-- uq1 -->
    <g transform="translate(448.341153 15.97025)scale(0.08 -0.08)">
     <use xlink:href="#Inter-Regular-117"/>
     <use x="58.096603" xlink:href="#Inter-Regular-113"/>
     <use x="119.034119" xlink:href="#Inter-Regular-49"/>
    </g>
   </g>
   <g id="text_66">
    <!-- uq2 -->
    <g transform="translate(459.055025 16.009625)scale(0.08 -0.08)">
     <use xlink:href="#Inter-Regular-117"/>
     <use x="58.096603" xlink:href="#Inter-Regular-113"/>
     <use x="119.034119" xlink:href="#Inter-Regular-50"/>
    </g>
   </g>
   <g id="text_67">
    <!-- s5 -->
    <g transform="translate(467.683619 44.73225)scale(0.08 -0.08)">
     <use xlink:href="#Inter-Regular-115"/>
     <use x="52.272736" xlink:href="#Inter-Regular-53"/>
    </g>
   </g>
   <g id="text_68">
    <!-- uq3 -->
    <g transform="translate(471.201371 16.009625)scale(0.08 -0.08)">
     <use xlink:href="#Inter-Regular-117"/>
     <use x="58.096603" xlink:href="#Inter-Regular-113"/>
     <use x="119.034119" xlink:href="#Inter-Regular-51"/>
    </g>
   </g>
  </g>
 </g>
 <defs>
  <clipPath id="pdde742c42a">
   <rect height="287.62" width="532.642746" x="28.78" y="28.26"/>
  </clipPath>
 </defs>
</svg>
