<?xml version="1.0" encoding="utf-8" standalone="no"?>
<!DOCTYPE svg PUBLIC "-//W3C//DTD SVG 1.1//EN"
  "http://www.w3.org/Graphics/SVG/1.1/DTD/svg11.dtd">
<!-- Created with matplotlib (https://matplotlib.org/) -->
<svg height="345.6pt" version="1.1" viewBox="0 0 576 345.6" width="576pt" xmlns="http://www.w3.org/2000/svg" xmlns:xlink="http://www.w3.org/1999/xlink">
 <metadata>
  <rdf:RDF xmlns:cc="http://creativecommons.org/ns#" xmlns:dc="http://purl.org/dc/elements/1.1/" xmlns:rdf="http://www.w3.org/1999/02/22-rdf-syntax-ns#">
   <cc:Work>
    <dc:type rdf:resource="http://purl.org/dc/dcmitype/StillImage"/>
    <dc:date>2020-12-16T19:48:29.286587</dc:date>
    <dc:format>image/svg+xml</dc:format>
    <dc:creator>
     <cc:Agent>
      <dc:title>Matplotlib v3.3.3, https://matplotlib.org/</dc:title>
     </cc:Agent>
    </dc:creator>
   </cc:Work>
  </rdf:RDF>
 </metadata>
 <defs>
  <style type="text/css">*{stroke-linecap:butt;stroke-linejoin:round;}</style>
 </defs>
 <g id="figure_1">
  <g id="patch_1">
   <path d="M 0 345.6 
L 576 345.6 
L 576 0 
L 0 0 
z
" style="fill:#ffffff;"/>
  </g>
  <g id="axes_1">
   <g id="patch_2">
    <path d="M 37.78 301.48 
L 552.15 301.48 
L 552.15 51.0736 
L 37.78 51.0736 
z
" style="fill:#ffffff;"/>
   </g>
   <g id="matplotlib.axis_1">
    <g id="xtick_1">
     <g id="line2d_1">
      <path clip-path="url(#pe9293abb4c)" d="M 37.78 301.48 
L 37.78 51.0736 
" style="fill:none;stroke:#e5e7eb;stroke-dasharray:3.7,1.6;stroke-dashoffset:0;"/>
     </g>
     <g id="line2d_2">
      <defs>
       <path d="M 0 0 
L 0 3.5 
" id="m843c0302ec" style="stroke:#000000;stroke-width:0.8;"/>
      </defs>
      <g>
       <use style="stroke:#000000;stroke-width:0.8;" x="37.78" xlink:href="#m843c0302ec" y="301.48"/>
      </g>
     </g>
     <g id="text_1">
      <!-- 0.00 -->
      <g transform="translate(27.026875 315.753437)scale(0.1 -0.1)">
       <defs>
        <path d="M 31.25 -1 
C 47.296875 -1 56.53125 12.609375 56.53125 36.359375 
C 56.53125 59.9375 47.15625 73.71875 31.25 73.71875 
C 15.34375 73.71875 5.96875 59.9375 5.96875 36.359375 
C 5.96875 12.609375 15.203125 -1 31.25 -1 
z
M 31.25 6.8125 
C 20.671875 6.8125 14.484375 17.4375 14.484375 36.359375 
C 14.484375 55.25 20.734375 66.046875 31.25 66.046875 
C 41.765625 66.046875 48.015625 55.25 48.015625 36.359375 
C 48.015625 17.4375 41.828125 6.8125 31.25 6.8125 
z
" id="Inter-Regular-48"/>
        <path d="M 13.78125 -0.5625 
C 17.296875 -0.5625 20.171875 2.3125 20.171875 5.828125 
C 20.171875 9.34375 17.296875 12.21875 13.78125 12.21875 
C 10.265625 12.21875 7.390625 9.34375 7.390625 5.828125 
C 7.390625 2.3125 10.265625 -0.5625 13.78125 -0.5625 
z
" id="Inter-Regular-46"/>
       </defs>
       <use xlink:href="#Inter-Regular-48"/>
       <use x="62.500015" xlink:href="#Inter-Regular-46"/>
       <use x="90.056839" xlink:href="#Inter-Regular-48"/>
       <use x="152.556854" xlink:href="#Inter-Regular-48"/>
      </g>
     </g>
    </g>
    <g id="xtick_2">
     <g id="line2d_3">
      <path clip-path="url(#pe9293abb4c)" d="M 117.85005 301.48 
L 117.85005 51.0736 
" style="fill:none;stroke:#e5e7eb;stroke-dasharray:3.7,1.6;stroke-dashoffset:0;"/>
     </g>
     <g id="line2d_4">
      <g>
       <use style="stroke:#000000;stroke-width:0.8;" x="117.85005" xlink:href="#m843c0302ec" y="301.48"/>
      </g>
     </g>
     <g id="text_2">
      <!-- 2.50 -->
      <g transform="translate(107.2813 315.753437)scale(0.1 -0.1)">
       <defs>
        <path d="M 7.53125 0 
L 53.40625 0 
L 53.40625 7.8125 
L 19.609375 7.8125 
L 19.609375 8.375 
L 35.9375 25.859375 
C 48.4375 39.234375 52.125 45.484375 52.125 53.546875 
C 52.125 64.765625 43.046875 73.71875 30.25 73.71875 
C 17.515625 73.71875 7.8125 65.0625 7.8125 52.265625 
L 16.1875 52.265625 
C 16.1875 60.546875 21.5625 66.046875 29.96875 66.046875 
C 37.859375 66.046875 43.890625 61.21875 43.890625 53.546875 
C 43.890625 46.84375 39.953125 41.875 31.53125 32.671875 
L 7.53125 6.390625 
z
" id="Inter-Regular-50"/>
        <path d="M 30.25 -1 
C 44.109375 -1 54.265625 9.234375 54.265625 23.15625 
C 54.265625 37.25 44.46875 47.578125 31.109375 47.578125 
C 26.203125 47.578125 21.453125 45.84375 18.46875 43.46875 
L 18.046875 43.46875 
L 20.59375 64.921875 
L 51 64.921875 
L 51 72.734375 
L 13.21875 72.734375 
L 8.8125 36.9375 
L 17.046875 35.9375 
C 20.0625 38.109375 25.21875 39.671875 29.6875 39.625 
C 38.953125 39.5625 45.734375 32.53125 45.734375 23.015625 
C 45.734375 13.671875 39.203125 6.8125 30.25 6.8125 
C 22.796875 6.8125 16.875 11.609375 16.1875 18.1875 
L 7.671875 18.1875 
C 8.203125 7.109375 17.75 -1 30.25 -1 
z
" id="Inter-Regular-53"/>
       </defs>
       <use xlink:href="#Inter-Regular-50"/>
       <use x="60.511383" xlink:href="#Inter-Regular-46"/>
       <use x="88.068207" xlink:href="#Inter-Regular-53"/>
       <use x="148.863678" xlink:href="#Inter-Regular-48"/>
      </g>
     </g>
    </g>
    <g id="xtick_3">
     <g id="line2d_5">
      <path clip-path="url(#pe9293abb4c)" d="M 221.300554 301.48 
L 221.300554 51.0736 
" style="fill:none;stroke:#e5e7eb;stroke-dasharray:3.7,1.6;stroke-dashoffset:0;"/>
     </g>
     <g id="line2d_6">
      <g>
       <use style="stroke:#000000;stroke-width:0.8;" x="221.300554" xlink:href="#m843c0302ec" y="301.48"/>
      </g>
     </g>
     <g id="text_3">
      <!-- 5.73 -->
      <g transform="translate(210.845085 315.753437)scale(0.1 -0.1)">
       <defs>
        <path d="M 9.796875 0 
L 19.03125 0 
L 51.421875 64.484375 
L 51.421875 72.734375 
L 4.828125 72.734375 
L 4.828125 64.921875 
L 42.328125 64.921875 
L 42.328125 64.34375 
z
" id="Inter-Regular-55"/>
        <path d="M 32.109375 -1 
C 46.203125 -1 56.671875 7.84375 56.671875 19.75 
C 56.671875 28.984375 51.203125 35.6875 42.046875 37.21875 
L 42.046875 37.78125 
C 49.390625 40.015625 53.984375 46.0625 53.984375 54.265625 
C 53.984375 64.5625 45.84375 73.71875 32.390625 73.71875 
C 19.8125 73.71875 9.375 65.984375 8.953125 54.546875 
L 17.46875 54.546875 
C 17.796875 61.796875 24.6875 66.046875 32.25 66.046875 
C 40.265625 66.046875 45.453125 61.1875 45.453125 53.828125 
C 45.453125 46.171875 39.453125 41.1875 30.828125 41.1875 
L 25 41.1875 
L 25 33.375 
L 30.828125 33.375 
C 41.875 33.375 48.015625 27.765625 48.015625 19.75 
C 48.015625 12.03125 41.296875 6.8125 31.96875 6.8125 
C 23.546875 6.8125 16.875 11.15625 16.34375 18.1875 
L 7.390625 18.1875 
C 7.921875 6.75 18 -1 32.109375 -1 
z
" id="Inter-Regular-51"/>
       </defs>
       <use xlink:href="#Inter-Regular-53"/>
       <use x="60.795471" xlink:href="#Inter-Regular-46"/>
       <use x="88.352295" xlink:href="#Inter-Regular-55"/>
       <use x="145.454575" xlink:href="#Inter-Regular-51"/>
      </g>
     </g>
    </g>
    <g id="xtick_4">
     <g id="line2d_7">
      <path clip-path="url(#pe9293abb4c)" d="M 368.629446 301.48 
L 368.629446 51.0736 
" style="fill:none;stroke:#e5e7eb;stroke-dasharray:3.7,1.6;stroke-dashoffset:0;"/>
     </g>
     <g id="line2d_8">
      <g>
       <use style="stroke:#000000;stroke-width:0.8;" x="368.629446" xlink:href="#m843c0302ec" y="301.48"/>
      </g>
     </g>
     <g id="text_4">
      <!-- 10.33 -->
      <g transform="translate(355.439602 315.753437)scale(0.1 -0.1)">
       <defs>
        <path d="M 33.09375 72.734375 
L 24.296875 72.734375 
L 6.109375 60.65625 
L 6.109375 51.703125 
L 23.859375 63.5 
L 24.296875 63.5 
L 24.296875 0 
L 33.09375 0 
z
" id="Inter-Regular-49"/>
       </defs>
       <use xlink:href="#Inter-Regular-49"/>
       <use x="46.448868" xlink:href="#Inter-Regular-48"/>
       <use x="108.948883" xlink:href="#Inter-Regular-46"/>
       <use x="136.505707" xlink:href="#Inter-Regular-51"/>
       <use x="200.14209" xlink:href="#Inter-Regular-51"/>
      </g>
     </g>
    </g>
    <g id="xtick_5">
     <g id="line2d_9">
      <path clip-path="url(#pe9293abb4c)" d="M 472.07995 301.48 
L 472.07995 51.0736 
" style="fill:none;stroke:#e5e7eb;stroke-dasharray:3.7,1.6;stroke-dashoffset:0;"/>
     </g>
     <g id="line2d_10">
      <g>
       <use style="stroke:#000000;stroke-width:0.8;" x="472.07995" xlink:href="#m843c0302ec" y="301.48"/>
      </g>
     </g>
     <g id="text_5">
      <!-- 13.56 -->
      <g transform="translate(459.039325 315.753437)scale(0.1 -0.1)">
       <defs>
        <path d="M 31.671875 -1 
C 46.375 -1.171875 55.96875 9.90625 55.96875 23.4375 
C 55.96875 37.5 45.5625 47.578125 33.09375 47.578125 
C 25.609375 47.578125 19.171875 43.921875 15.203125 37.921875 
L 14.625 37.921875 
C 14.671875 55.78125 21.5625 66.046875 32.8125 66.046875 
C 40.484375 66.046875 45.09375 61.21875 46.734375 54.546875 
L 55.40625 54.546875 
C 53.625 65.984375 45.03125 73.859375 32.8125 73.859375 
C 16.4375 73.859375 6.390625 59.375 6.390625 33.515625 
C 6.390625 6.640625 19.75 -0.859375 31.671875 -1 
z
M 31.671875 6.8125 
C 22.546875 6.8125 15.875 14.59375 15.90625 23.296875 
C 15.953125 32 22.9375 39.765625 31.96875 39.765625 
C 40.875 39.765625 47.4375 32.453125 47.4375 23.4375 
C 47.4375 14.203125 40.59375 6.8125 31.671875 6.8125 
z
" id="Inter-Regular-54"/>
       </defs>
       <use xlink:href="#Inter-Regular-49"/>
       <use x="46.448868" xlink:href="#Inter-Regular-51"/>
       <use x="110.085251" xlink:href="#Inter-Regular-46"/>
       <use x="137.642075" xlink:href="#Inter-Regular-53"/>
       <use x="198.437546" xlink:href="#Inter-Regular-54"/>
      </g>
     </g>
    </g>
    <g id="xtick_6">
     <g id="line2d_11">
      <path clip-path="url(#pe9293abb4c)" d="M 552.15 301.48 
L 552.15 51.0736 
" style="fill:none;stroke:#e5e7eb;stroke-dasharray:3.7,1.6;stroke-dashoffset:0;"/>
     </g>
     <g id="line2d_12">
      <g>
       <use style="stroke:#000000;stroke-width:0.8;" x="552.15" xlink:href="#m843c0302ec" y="301.48"/>
      </g>
     </g>
     <g id="text_6">
      <!-- 16.06 -->
      <g transform="translate(539.088281 315.753437)scale(0.1 -0.1)">
       <use xlink:href="#Inter-Regular-49"/>
       <use x="46.448868" xlink:href="#Inter-Regular-54"/>
       <use x="108.806839" xlink:href="#Inter-Regular-46"/>
       <use x="136.363663" xlink:href="#Inter-Regular-48"/>
       <use x="198.863678" xlink:href="#Inter-Regular-54"/>
      </g>
     </g>
    </g>
    <g id="text_7">
     <!-- Orbit Position $s$ / m -->
     <g transform="translate(249.915 329.072187)scale(0.1 -0.1)">
      <defs>
       <path d="M 70.171875 36.359375 
C 70.171875 59.375 56.671875 73.71875 38.0625 73.71875 
C 19.46875 73.71875 5.96875 59.375 5.96875 36.359375 
C 5.96875 13.359375 19.46875 -1 38.0625 -1 
C 56.671875 -1 70.171875 13.359375 70.171875 36.359375 
z
M 61.65625 36.359375 
C 61.65625 17.46875 51.28125 7.25 38.0625 7.25 
C 24.859375 7.25 14.484375 17.46875 14.484375 36.359375 
C 14.484375 55.25 24.859375 65.484375 38.0625 65.484375 
C 51.28125 65.484375 61.65625 55.25 61.65625 36.359375 
z
" id="Inter-Regular-79"/>
       <path d="M 7.671875 0 
L 16.046875 0 
L 16.046875 34.515625 
C 16.046875 41.90625 21.875 47.296875 29.828125 47.296875 
C 32.0625 47.296875 34.375 46.875 34.9375 46.734375 
L 34.9375 55.25 
C 33.984375 55.328125 31.78125 55.390625 30.546875 55.390625 
C 24 55.390625 18.328125 51.703125 16.34375 46.3125 
L 15.765625 46.3125 
L 15.765625 54.546875 
L 7.671875 54.546875 
z
" id="Inter-Regular-114"/>
       <path d="M 8.8125 0 
L 16.90625 0 
L 16.90625 8.375 
L 17.90625 8.375 
C 19.75 5.390625 23.296875 -1.140625 33.8125 -1.140625 
C 47.4375 -1.140625 56.96875 9.796875 56.96875 27.125 
C 56.96875 44.3125 47.4375 55.25 33.671875 55.25 
C 23.015625 55.25 19.75 48.71875 17.90625 45.875 
L 17.1875 45.875 
L 17.1875 72.734375 
L 8.8125 72.734375 
z
M 17.046875 27.265625 
C 17.046875 39.484375 22.4375 47.734375 32.671875 47.734375 
C 43.328125 47.734375 48.578125 38.78125 48.578125 27.265625 
C 48.578125 15.625 43.1875 6.390625 32.671875 6.390625 
C 22.59375 6.390625 17.046875 14.921875 17.046875 27.265625 
z
" id="Inter-Regular-98"/>
       <path d="M 11.9375 63.640625 
C 15.203125 63.640625 17.90625 66.1875 17.90625 69.3125 
C 17.90625 72.4375 15.203125 75 11.9375 75 
C 8.671875 75 5.96875 72.4375 5.96875 69.3125 
C 5.96875 66.1875 8.671875 63.640625 11.9375 63.640625 
z
M 7.671875 0 
L 16.046875 0 
L 16.046875 54.546875 
L 7.671875 54.546875 
z
" id="Inter-Regular-105"/>
       <path d="M 31.390625 54.546875 
L 19.75 54.546875 
L 19.75 67.609375 
L 11.359375 67.609375 
L 11.359375 54.546875 
L 3.125 54.546875 
L 3.125 47.4375 
L 11.359375 47.4375 
L 11.359375 13.359375 
C 11.359375 3.828125 19.03125 -0.703125 26.140625 -0.703125 
C 29.265625 -0.703125 31.25 -0.140625 32.390625 0.28125 
L 30.6875 7.8125 
C 29.96875 7.671875 28.84375 7.390625 26.984375 7.390625 
C 23.296875 7.390625 19.75 8.515625 19.75 15.625 
L 19.75 47.4375 
L 31.390625 47.4375 
z
" id="Inter-Regular-116"/>
       <path id="Inter-Regular-32"/>
       <path d="M 8.8125 0 
L 17.609375 0 
L 17.609375 26.5625 
L 33.53125 26.5625 
C 50.46875 26.5625 58.09375 36.859375 58.09375 49.71875 
C 58.09375 62.578125 50.46875 72.734375 33.375 72.734375 
L 8.8125 72.734375 
z
M 33.09375 64.921875 
C 44.921875 64.921875 49.4375 58.453125 49.4375 49.71875 
C 49.4375 40.984375 44.921875 34.375 33.234375 34.375 
L 17.609375 34.375 
L 17.609375 64.921875 
z
" id="Inter-Regular-80"/>
       <path d="M 29.828125 -1.140625 
C 44.609375 -1.140625 54.546875 10.078125 54.546875 26.984375 
C 54.546875 44.03125 44.609375 55.25 29.828125 55.25 
C 15.0625 55.25 5.109375 44.03125 5.109375 26.984375 
C 5.109375 10.078125 15.0625 -1.140625 29.828125 -1.140625 
z
M 29.828125 6.390625 
C 18.609375 6.390625 13.5 16.046875 13.5 26.984375 
C 13.5 37.921875 18.609375 47.734375 29.828125 47.734375 
C 41.046875 47.734375 46.171875 37.921875 46.171875 26.984375 
C 46.171875 16.046875 41.046875 6.390625 29.828125 6.390625 
z
" id="Inter-Regular-111"/>
       <path d="M 46.3125 42.328125 
C 43.6875 50.078125 37.78125 55.25 26.984375 55.25 
C 15.484375 55.25 6.96875 48.71875 6.96875 39.484375 
C 6.96875 31.953125 11.4375 26.921875 21.453125 24.578125 
L 30.546875 22.4375 
C 36.046875 21.171875 38.640625 18.53125 38.640625 14.765625 
C 38.640625 10.078125 33.671875 6.25 25.859375 6.25 
C 19 6.25 14.703125 9.203125 13.21875 15.0625 
L 5.25 13.0625 
C 7.203125 3.796875 14.84375 -1.140625 26 -1.140625 
C 38.671875 -1.140625 47.296875 5.78125 47.296875 15.203125 
C 47.296875 22.796875 42.546875 27.59375 32.8125 29.96875 
L 24.71875 31.953125 
C 18.25 33.5625 15.34375 35.71875 15.34375 39.921875 
C 15.34375 44.609375 20.3125 48.015625 26.984375 48.015625 
C 34.3125 48.015625 37.328125 43.96875 38.78125 40.203125 
z
" id="Inter-Regular-115"/>
       <path d="M 16.046875 32.8125 
C 16.046875 42.328125 21.953125 47.734375 29.96875 47.734375 
C 37.75 47.734375 42.46875 42.65625 42.46875 34.09375 
L 42.46875 0 
L 50.859375 0 
L 50.859375 34.65625 
C 50.859375 48.578125 43.4375 55.25 32.390625 55.25 
C 24.15625 55.25 19.03125 51.5625 16.484375 46.015625 
L 15.765625 46.015625 
L 15.765625 54.546875 
L 7.671875 54.546875 
L 7.671875 0 
L 16.046875 0 
z
" id="Inter-Regular-110"/>
       <path d="M 50 53.078125 
L 48.296875 44.578125 
Q 44.734375 46.53125 40.765625 47.5 
Q 36.8125 48.484375 32.625 48.484375 
Q 25.53125 48.484375 21.453125 46.0625 
Q 17.390625 43.65625 17.390625 39.5 
Q 17.390625 34.671875 26.859375 32.078125 
Q 27.59375 31.890625 27.9375 31.78125 
L 30.8125 30.90625 
Q 39.796875 28.421875 42.796875 25.6875 
Q 45.796875 22.953125 45.796875 18.21875 
Q 45.796875 9.515625 38.890625 4.046875 
Q 31.984375 -1.421875 20.796875 -1.421875 
Q 16.453125 -1.421875 11.671875 -0.578125 
Q 6.890625 0.25 1.125 2 
L 2.875 11.28125 
Q 7.8125 8.734375 12.59375 7.421875 
Q 17.390625 6.109375 21.78125 6.109375 
Q 28.375 6.109375 32.5 8.9375 
Q 36.625 11.765625 36.625 16.109375 
Q 36.625 20.796875 25.78125 23.6875 
L 24.859375 23.921875 
L 21.78125 24.703125 
Q 14.9375 26.515625 11.765625 29.46875 
Q 8.59375 32.421875 8.59375 37.015625 
Q 8.59375 45.75 15.15625 50.875 
Q 21.734375 56 33.015625 56 
Q 37.453125 56 41.671875 55.265625 
Q 45.90625 54.546875 50 53.078125 
z
" id="DejaVuSans-Oblique-115"/>
       <path d="M 33.375 76.140625 
L 25.71875 76.140625 
L 2.28125 -10.9375 
L 9.9375 -10.9375 
z
" id="Inter-Regular-47"/>
       <path d="M 7.671875 0 
L 16.046875 0 
L 16.046875 34.09375 
C 16.046875 42.078125 21.875 47.734375 28.40625 47.734375 
C 34.765625 47.734375 39.203125 43.578125 39.203125 37.359375 
L 39.203125 0 
L 47.734375 0 
L 47.734375 35.515625 
C 47.734375 42.546875 52.125 47.734375 59.796875 47.734375 
C 65.765625 47.734375 70.875 44.5625 70.875 36.5 
L 70.875 0 
L 79.265625 0 
L 79.265625 36.5 
C 79.265625 49.328125 72.375 55.25 62.640625 55.25 
C 54.828125 55.25 49.109375 51.671875 46.3125 46.015625 
L 45.734375 46.015625 
C 43.046875 51.84375 38.28125 55.25 31.109375 55.25 
C 24 55.25 18.75 51.84375 16.484375 46.015625 
L 15.765625 46.015625 
L 15.765625 54.546875 
L 7.671875 54.546875 
z
" id="Inter-Regular-109"/>
      </defs>
      <use transform="translate(0 0.859375)" xlink:href="#Inter-Regular-79"/>
      <use transform="translate(76.136383 0.859375)" xlink:href="#Inter-Regular-114"/>
      <use transform="translate(113.352295 0.859375)" xlink:href="#Inter-Regular-98"/>
      <use transform="translate(175.426178 0.859375)" xlink:href="#Inter-Regular-105"/>
      <use transform="translate(199.147766 0.859375)" xlink:href="#Inter-Regular-116"/>
      <use transform="translate(235.511414 0.859375)" xlink:href="#Inter-Regular-32"/>
      <use transform="translate(263.636414 0.859375)" xlink:href="#Inter-Regular-80"/>
      <use transform="translate(327.130737 0.859375)" xlink:href="#Inter-Regular-111"/>
      <use transform="translate(386.789841 0.859375)" xlink:href="#Inter-Regular-115"/>
      <use transform="translate(439.062576 0.859375)" xlink:href="#Inter-Regular-105"/>
      <use transform="translate(462.784164 0.859375)" xlink:href="#Inter-Regular-116"/>
      <use transform="translate(499.147812 0.859375)" xlink:href="#Inter-Regular-105"/>
      <use transform="translate(522.8694 0.859375)" xlink:href="#Inter-Regular-111"/>
      <use transform="translate(582.528503 0.859375)" xlink:href="#Inter-Regular-110"/>
      <use transform="translate(641.051239 0.859375)" xlink:href="#Inter-Regular-32"/>
      <use transform="translate(669.176239 0.859375)" xlink:href="#DejaVuSans-Oblique-115"/>
      <use transform="translate(721.275848 0.859375)" xlink:href="#Inter-Regular-32"/>
      <use transform="translate(749.400848 0.859375)" xlink:href="#Inter-Regular-47"/>
      <use transform="translate(785.05426 0.859375)" xlink:href="#Inter-Regular-32"/>
      <use transform="translate(813.17926 0.859375)" xlink:href="#Inter-Regular-109"/>
     </g>
    </g>
   </g>
   <g id="matplotlib.axis_2">
    <g id="ytick_1">
     <g id="line2d_13">
      <path clip-path="url(#pe9293abb4c)" d="M 37.78 290.429283 
L 552.15 290.429283 
" style="fill:none;stroke:#e5e7eb;stroke-dasharray:3.7,1.6;stroke-dashoffset:0;"/>
     </g>
     <g id="line2d_14">
      <defs>
       <path d="M 0 0 
L -3.5 0 
" id="ma20f1d32d3" style="stroke:#000000;stroke-width:0.8;"/>
      </defs>
      <g>
       <use style="stroke:#000000;stroke-width:0.8;" x="37.78" xlink:href="#ma20f1d32d3" y="290.429283"/>
      </g>
     </g>
     <g id="text_8">
      <!-- 0.0 -->
      <g transform="translate(15.52375 294.066002)scale(0.1 -0.1)">
       <use xlink:href="#Inter-Regular-48"/>
       <use x="62.500015" xlink:href="#Inter-Regular-46"/>
       <use x="90.056839" xlink:href="#Inter-Regular-48"/>
      </g>
     </g>
    </g>
    <g id="ytick_2">
     <g id="line2d_15">
      <path clip-path="url(#pe9293abb4c)" d="M 37.78 256.551151 
L 552.15 256.551151 
" style="fill:none;stroke:#e5e7eb;stroke-dasharray:3.7,1.6;stroke-dashoffset:0;"/>
     </g>
     <g id="line2d_16">
      <g>
       <use style="stroke:#000000;stroke-width:0.8;" x="37.78" xlink:href="#ma20f1d32d3" y="256.551151"/>
      </g>
     </g>
     <g id="text_9">
      <!-- 2.5 -->
      <g transform="translate(15.8925 260.18787)scale(0.1 -0.1)">
       <use xlink:href="#Inter-Regular-50"/>
       <use x="60.511383" xlink:href="#Inter-Regular-46"/>
       <use x="88.068207" xlink:href="#Inter-Regular-53"/>
      </g>
     </g>
    </g>
    <g id="ytick_3">
     <g id="line2d_17">
      <path clip-path="url(#pe9293abb4c)" d="M 37.78 222.673019 
L 552.15 222.673019 
" style="fill:none;stroke:#e5e7eb;stroke-dasharray:3.7,1.6;stroke-dashoffset:0;"/>
     </g>
     <g id="line2d_18">
      <g>
       <use style="stroke:#000000;stroke-width:0.8;" x="37.78" xlink:href="#ma20f1d32d3" y="222.673019"/>
      </g>
     </g>
     <g id="text_10">
      <!-- 5.0 -->
      <g transform="translate(15.694063 226.309737)scale(0.1 -0.1)">
       <use xlink:href="#Inter-Regular-53"/>
       <use x="60.795471" xlink:href="#Inter-Regular-46"/>
       <use x="88.352295" xlink:href="#Inter-Regular-48"/>
      </g>
     </g>
    </g>
    <g id="ytick_4">
     <g id="line2d_19">
      <path clip-path="url(#pe9293abb4c)" d="M 37.78 188.794886 
L 552.15 188.794886 
" style="fill:none;stroke:#e5e7eb;stroke-dasharray:3.7,1.6;stroke-dashoffset:0;"/>
     </g>
     <g id="line2d_20">
      <g>
       <use style="stroke:#000000;stroke-width:0.8;" x="37.78" xlink:href="#ma20f1d32d3" y="188.794886"/>
      </g>
     </g>
     <g id="text_11">
      <!-- 7.5 -->
      <g transform="translate(16.233125 192.431605)scale(0.1 -0.1)">
       <use xlink:href="#Inter-Regular-55"/>
       <use x="57.10228" xlink:href="#Inter-Regular-46"/>
       <use x="84.659103" xlink:href="#Inter-Regular-53"/>
      </g>
     </g>
    </g>
    <g id="ytick_5">
     <g id="line2d_21">
      <path clip-path="url(#pe9293abb4c)" d="M 37.78 154.916754 
L 552.15 154.916754 
" style="fill:none;stroke:#e5e7eb;stroke-dasharray:3.7,1.6;stroke-dashoffset:0;"/>
     </g>
     <g id="line2d_22">
      <g>
       <use style="stroke:#000000;stroke-width:0.8;" x="37.78" xlink:href="#ma20f1d32d3" y="154.916754"/>
      </g>
     </g>
     <g id="text_12">
      <!-- 10.0 -->
      <g transform="translate(10.878438 158.553473)scale(0.1 -0.1)">
       <use xlink:href="#Inter-Regular-49"/>
       <use x="46.448868" xlink:href="#Inter-Regular-48"/>
       <use x="108.948883" xlink:href="#Inter-Regular-46"/>
       <use x="136.505707" xlink:href="#Inter-Regular-48"/>
      </g>
     </g>
    </g>
    <g id="ytick_6">
     <g id="line2d_23">
      <path clip-path="url(#pe9293abb4c)" d="M 37.78 121.038622 
L 552.15 121.038622 
" style="fill:none;stroke:#e5e7eb;stroke-dasharray:3.7,1.6;stroke-dashoffset:0;"/>
     </g>
     <g id="line2d_24">
      <g>
       <use style="stroke:#000000;stroke-width:0.8;" x="37.78" xlink:href="#ma20f1d32d3" y="121.038622"/>
      </g>
     </g>
     <g id="text_13">
      <!-- 12.5 -->
      <g transform="translate(11.247188 124.675341)scale(0.1 -0.1)">
       <use xlink:href="#Inter-Regular-49"/>
       <use x="46.448868" xlink:href="#Inter-Regular-50"/>
       <use x="106.960251" xlink:href="#Inter-Regular-46"/>
       <use x="134.517075" xlink:href="#Inter-Regular-53"/>
      </g>
     </g>
    </g>
    <g id="ytick_7">
     <g id="line2d_25">
      <path clip-path="url(#pe9293abb4c)" d="M 37.78 87.16049 
L 552.15 87.16049 
" style="fill:none;stroke:#e5e7eb;stroke-dasharray:3.7,1.6;stroke-dashoffset:0;"/>
     </g>
     <g id="line2d_26">
      <g>
       <use style="stroke:#000000;stroke-width:0.8;" x="37.78" xlink:href="#ma20f1d32d3" y="87.16049"/>
      </g>
     </g>
     <g id="text_14">
      <!-- 15.0 -->
      <g transform="translate(11.04875 90.797208)scale(0.1 -0.1)">
       <use xlink:href="#Inter-Regular-49"/>
       <use x="46.448868" xlink:href="#Inter-Regular-53"/>
       <use x="107.244339" xlink:href="#Inter-Regular-46"/>
       <use x="134.801163" xlink:href="#Inter-Regular-48"/>
      </g>
     </g>
    </g>
    <g id="ytick_8">
     <g id="line2d_27">
      <path clip-path="url(#pe9293abb4c)" d="M 37.78 53.282357 
L 552.15 53.282357 
" style="fill:none;stroke:#e5e7eb;stroke-dasharray:3.7,1.6;stroke-dashoffset:0;"/>
     </g>
     <g id="line2d_28">
      <g>
       <use style="stroke:#000000;stroke-width:0.8;" x="37.78" xlink:href="#ma20f1d32d3" y="53.282357"/>
      </g>
     </g>
     <g id="text_15">
      <!-- 17.5 -->
      <g transform="translate(11.587813 56.919076)scale(0.1 -0.1)">
       <use xlink:href="#Inter-Regular-49"/>
       <use x="46.448868" xlink:href="#Inter-Regular-55"/>
       <use x="103.551147" xlink:href="#Inter-Regular-46"/>
       <use x="131.107971" xlink:href="#Inter-Regular-53"/>
      </g>
     </g>
    </g>
   </g>
   <g id="patch_3">
    <path d="M 37.78 301.48 
L 37.78 51.0736 
" style="fill:none;stroke:#000000;stroke-linecap:square;stroke-linejoin:miter;stroke-width:0.8;"/>
   </g>
   <g id="patch_4">
    <path d="M 552.15 301.48 
L 552.15 51.0736 
" style="fill:none;stroke:#000000;stroke-linecap:square;stroke-linejoin:miter;stroke-width:0.8;"/>
   </g>
   <g id="patch_5">
    <path d="M 37.78 301.48 
L 552.15 301.48 
" style="fill:none;stroke:#000000;stroke-linecap:square;stroke-linejoin:miter;stroke-width:0.8;"/>
   </g>
   <g id="patch_6">
    <path d="M 37.78 51.0736 
L 552.15 51.0736 
" style="fill:none;stroke:#000000;stroke-linecap:square;stroke-linejoin:miter;stroke-width:0.8;"/>
   </g>
   <g id="legend_1">
    <g id="line2d_29">
     <path d="M 46.78 22.95328 
L 66.78 22.95328 
" style="fill:none;stroke:#ef4444;stroke-linecap:square;stroke-width:1.3;"/>
    </g>
    <g id="line2d_30"/>
    <g id="text_16">
     <!-- $\beta_x$ / m -->
     <g transform="translate(74.78 26.45328)scale(0.1 -0.1)">
      <defs>
       <path d="M 13.625 3.375 
L 8.9375 -20.796875 
L -0.09375 -20.796875 
L 14.5 54.34375 
Q 18.84375 76.609375 39.65625 76.609375 
Q 60.75 76.609375 57.171875 57.8125 
Q 54.734375 44.4375 45.21875 39.546875 
Q 58.015625 35.15625 55.515625 22.125 
Q 51.125 -1.078125 27.484375 -1.03125 
Q 17.140625 -0.984375 13.625 3.375 
z
M 15.921875 15.09375 
Q 19.671875 6.59375 29.296875 6.640625 
Q 43.359375 6.640625 46.34375 21.96875 
Q 49.03125 35.75 26.171875 34.671875 
L 27.78125 42.96875 
Q 45.453125 42.671875 48.53125 58.59375 
Q 50.640625 69.34375 39.203125 69.28125 
Q 26.421875 69.28125 23.484375 54.046875 
z
" id="DejaVuSans-Oblique-946"/>
       <path d="M 60.015625 54.6875 
L 34.90625 27.875 
L 50.296875 0 
L 39.984375 0 
L 28.421875 21.6875 
L 8.296875 0 
L -2.59375 0 
L 24.3125 28.8125 
L 10.015625 54.6875 
L 20.3125 54.6875 
L 30.8125 34.90625 
L 49.125 54.6875 
z
" id="DejaVuSans-Oblique-120"/>
      </defs>
      <use transform="translate(0 0.390625)" xlink:href="#DejaVuSans-Oblique-946"/>
      <use transform="translate(63.818359 -16.015625)scale(0.7)" xlink:href="#DejaVuSans-Oblique-120"/>
      <use transform="translate(107.978516 0.390625)" xlink:href="#Inter-Regular-32"/>
      <use transform="translate(136.103516 0.390625)" xlink:href="#Inter-Regular-47"/>
      <use transform="translate(171.756927 0.390625)" xlink:href="#Inter-Regular-32"/>
      <use transform="translate(199.881927 0.390625)" xlink:href="#Inter-Regular-109"/>
     </g>
    </g>
    <g id="line2d_31">
     <path d="M 256.665 22.95328 
L 276.665 22.95328 
" style="fill:none;stroke:#3b82f6;stroke-linecap:square;stroke-width:1.3;"/>
    </g>
    <g id="line2d_32"/>
    <g id="text_17">
     <!-- $\beta_y$ / m -->
     <g transform="translate(284.665 26.45328)scale(0.1 -0.1)">
      <defs>
       <path d="M 24.8125 -5.078125 
Q 18.5625 -15.578125 14.625 -18.1875 
Q 10.6875 -20.796875 4.59375 -20.796875 
L -2.484375 -20.796875 
L -0.984375 -13.28125 
L 4.203125 -13.28125 
Q 7.953125 -13.28125 10.59375 -11.234375 
Q 13.234375 -9.1875 16.5 -3.21875 
L 19.28125 2 
L 7.171875 54.6875 
L 16.703125 54.6875 
L 25.78125 12.796875 
L 50.875 54.6875 
L 60.296875 54.6875 
z
" id="DejaVuSans-Oblique-121"/>
      </defs>
      <use transform="translate(0 0.390625)" xlink:href="#DejaVuSans-Oblique-946"/>
      <use transform="translate(63.818359 -16.015625)scale(0.7)" xlink:href="#DejaVuSans-Oblique-121"/>
      <use transform="translate(107.978516 0.390625)" xlink:href="#Inter-Regular-32"/>
      <use transform="translate(136.103516 0.390625)" xlink:href="#Inter-Regular-47"/>
      <use transform="translate(171.756927 0.390625)" xlink:href="#Inter-Regular-32"/>
      <use transform="translate(199.881927 0.390625)" xlink:href="#Inter-Regular-109"/>
     </g>
    </g>
    <g id="line2d_33">
     <path d="M 466.55 22.95328 
L 486.55 22.95328 
" style="fill:none;stroke:#10b981;stroke-linecap:square;stroke-width:1.3;"/>
    </g>
    <g id="line2d_34"/>
    <g id="text_18">
     <!-- 100 $\eta_x$ / m -->
     <g transform="translate(494.55 26.45328)scale(0.1 -0.1)">
      <defs>
       <path d="M 57.859375 33.015625 
L 47.40625 -20.796875 
L 38.421875 -20.796875 
L 48.828125 32.71875 
Q 50.34375 40.484375 48.046875 44.34375 
Q 45.796875 48.1875 39.75 48.1875 
Q 32.46875 48.1875 27.34375 43.5625 
Q 22.265625 38.921875 20.703125 30.90625 
L 14.703125 0 
L 5.671875 0 
L 16.3125 54.6875 
L 25.34375 54.6875 
L 23.6875 46.1875 
Q 27.828125 51.125 32.71875 53.5625 
Q 37.546875 56 43.265625 56 
Q 52.6875 56 56.390625 50.203125 
Q 60.0625 44.34375 57.859375 33.015625 
z
" id="DejaVuSans-Oblique-951"/>
      </defs>
      <use transform="translate(0 0.859375)" xlink:href="#Inter-Regular-49"/>
      <use transform="translate(46.448868 0.859375)" xlink:href="#Inter-Regular-48"/>
      <use transform="translate(108.948883 0.859375)" xlink:href="#Inter-Regular-48"/>
      <use transform="translate(171.448898 0.859375)" xlink:href="#Inter-Regular-32"/>
      <use transform="translate(199.573898 0.859375)" xlink:href="#DejaVuSans-Oblique-951"/>
      <use transform="translate(262.952805 -15.546875)scale(0.7)" xlink:href="#DejaVuSans-Oblique-120"/>
      <use transform="translate(307.112961 0.859375)" xlink:href="#Inter-Regular-32"/>
      <use transform="translate(335.237961 0.859375)" xlink:href="#Inter-Regular-47"/>
      <use transform="translate(370.891373 0.859375)" xlink:href="#Inter-Regular-32"/>
      <use transform="translate(399.016373 0.859375)" xlink:href="#Inter-Regular-109"/>
     </g>
    </g>
   </g>
   <g id="line2d_35">
    <path clip-path="url(#pe9293abb4c)" d="M 37.78 290.584093 
L 149.237509 290.474462 
L 153.080872 290.386946 
L 154.041712 290.113647 
L 155.002553 289.614078 
L 155.963394 288.888254 
L 156.924234 287.936199 
L 158.205355 286.314926 
L 159.486476 284.291605 
L 163.650118 276.716213 
L 165.251519 273.452024 
L 166.85292 269.706899 
L 175.180205 248.195587 
L 177.101887 243.467932 
L 178.062727 241.717153 
L 179.023568 240.478183 
L 179.664128 239.943195 
L 180.304689 239.644078 
L 180.945249 239.582227 
L 182.22637 239.90402 
L 191.514496 242.529769 
L 195.357858 244.187517 
L 195.998418 244.669772 
L 196.959259 245.781104 
L 197.9201 247.347556 
L 198.88094 249.353161 
L 209.450187 273.493004 
L 211.371868 277.028009 
L 215.21523 283.626945 
L 216.496351 285.301001 
L 217.777472 286.582101 
L 218.738313 287.285009 
L 219.699153 287.766819 
L 220.659994 288.02752 
L 221.620834 288.067101 
L 222.581675 287.885563 
L 223.542516 287.482911 
L 224.503356 286.859157 
L 225.464197 286.014319 
L 226.745318 284.544004 
L 228.026438 282.680774 
L 230.2684 278.77844 
L 233.471202 272.917215 
L 235.072603 269.403619 
L 244.616953 247.619252 
L 245.513737 246.106308 
L 246.410522 244.977138 
L 247.307306 244.241521 
L 247.905163 243.973037 
L 249.485212 243.713716 
L 252.688014 243.310975 
L 260.374738 243.317198 
L 264.538381 243.400698 
L 268.360391 244.002356 
L 268.958248 244.272442 
L 269.855032 245.010236 
L 270.751817 246.141296 
L 271.648601 247.655829 
L 272.865666 250.27818 
L 283.114633 273.612475 
L 285.036314 277.140987 
L 288.879676 283.72903 
L 290.160797 285.399468 
L 291.441918 286.676946 
L 292.402758 287.377133 
L 293.363599 287.856221 
L 294.32444 288.114196 
L 295.28528 288.15105 
L 296.246121 287.966782 
L 297.206961 287.561397 
L 298.167802 286.934907 
L 299.128643 286.087332 
L 300.409763 284.613364 
L 301.690884 282.746477 
L 303.932846 278.837761 
L 307.135648 272.968175 
L 308.737049 269.452159 
L 318.281399 247.655829 
L 319.178183 246.141296 
L 320.074968 245.010236 
L 320.971752 244.272442 
L 321.569609 244.002356 
L 323.149658 243.738518 
L 326.35246 243.326591 
L 334.039184 243.310768 
L 338.202827 243.382327 
L 342.024837 243.973037 
L 342.622694 244.241521 
L 343.519478 244.977138 
L 344.416263 246.106308 
L 345.313047 247.619252 
L 346.530112 250.239936 
L 356.779078 273.56087 
L 358.70076 277.084396 
L 362.544122 283.661498 
L 363.825243 285.328282 
L 365.106364 286.602108 
L 366.067204 287.29956 
L 367.028045 287.775914 
L 367.988885 288.031157 
L 368.949726 288.065282 
L 369.910567 287.878288 
L 370.871407 287.470179 
L 371.832248 286.840969 
L 372.793088 285.990675 
L 374.074209 284.513087 
L 375.35533 282.642586 
L 377.597291 278.727514 
L 380.800093 272.847207 
L 382.401494 269.321728 
L 392.0099 247.347556 
L 392.970741 245.781104 
L 393.931582 244.669772 
L 394.572142 244.187517 
L 396.173543 243.479463 
L 399.376345 242.193431 
L 407.38335 239.991889 
L 408.984751 239.582227 
L 409.625311 239.644078 
L 410.265872 239.943195 
L 410.906432 240.478183 
L 411.546993 241.24654 
L 412.507833 242.828498 
L 413.468674 244.910588 
L 417.312036 254.81815 
L 424.3582 272.744655 
L 425.959601 276.097238 
L 428.521843 280.815652 
L 431.404365 285.846784 
L 432.685486 287.568578 
L 433.966606 288.888254 
L 434.927447 289.614078 
L 435.888288 290.113647 
L 436.849128 290.386946 
L 438.130249 290.44964 
L 465.674346 290.608287 
L 493.218443 290.584093 
L 552.47028 290.584093 
L 552.47028 290.584093 
" style="fill:none;stroke:#10b981;stroke-linecap:square;stroke-width:1.3;"/>
   </g>
   <g id="line2d_36">
    <path clip-path="url(#pe9293abb4c)" d="M 37.78 269.761395 
L 41.303082 269.653885 
L 44.826164 269.331355 
L 48.349247 268.793806 
L 51.872329 268.041237 
L 55.395411 267.073649 
L 58.918493 265.891041 
L 62.761856 264.355694 
L 66.605218 262.564456 
L 70.44858 260.517327 
L 74.291943 258.214306 
L 78.135305 255.655395 
L 81.978667 252.840592 
L 86.14231 249.502456 
L 90.305953 245.864004 
L 94.469595 241.925235 
L 98.633238 237.686149 
L 102.79688 233.146747 
L 107.280803 227.922302 
L 111.764726 222.349562 
L 116.248649 216.428525 
L 118.17033 213.868899 
L 118.49061 213.676668 
L 118.81089 213.653615 
L 119.131171 213.799844 
L 119.451451 214.114708 
L 120.092011 215.244029 
L 120.732572 217.021621 
L 123.935374 227.084853 
L 126.817895 235.461697 
L 129.700417 243.19427 
L 130.340978 244.60941 
L 130.981538 245.577506 
L 131.622098 246.116662 
L 132.262659 246.236959 
L 132.903219 245.940648 
L 133.54378 245.222187 
L 134.18434 244.068141 
L 134.8249 242.456931 
L 135.465461 240.358426 
L 136.426301 236.208483 
L 137.387142 230.696583 
L 139.308823 217.498194 
L 142.191345 197.270345 
L 143.152186 192.644979 
L 145.394147 184.601089 
L 148.917229 171.439428 
L 152.760592 156.167123 
L 156.603954 140.054329 
L 160.767597 121.566273 
L 163.329838 109.924693 
L 163.650118 109.029399 
L 163.970399 108.542562 
L 164.290679 108.466382 
L 164.610959 108.801206 
L 164.931239 109.545517 
L 165.5718 112.247314 
L 166.21236 116.522978 
L 166.85292 122.29529 
L 171.336843 169.001329 
L 173.578804 189.564854 
L 175.820766 208.205767 
L 176.781606 215.248399 
L 177.742447 220.540774 
L 178.383007 223.157035 
L 179.023568 225.102804 
L 179.664128 226.414514 
L 180.304689 227.116727 
L 180.624969 227.243819 
L 180.945249 227.222591 
L 181.585809 226.80836 
L 186.710293 222.75226 
L 192.155056 218.149567 
L 195.357858 215.218358 
L 195.998418 213.949626 
L 196.638979 211.967162 
L 197.279539 209.234955 
L 197.9201 205.703376 
L 198.88094 198.762606 
L 201.122902 179.131609 
L 203.364863 157.579596 
L 205.927105 130.596458 
L 208.809626 99.12662 
L 209.450187 94.745801 
L 210.090747 92.067689 
L 210.411027 91.383199 
L 210.731308 91.139786 
L 215.21523 90.929524 
L 226.425037 91.000915 
L 229.94812 91.097516 
L 231.869801 91.256028 
L 232.190081 91.502818 
L 232.510361 92.190412 
L 232.830641 93.315757 
L 233.471202 96.857797 
L 234.111762 102.066111 
L 235.072603 112.594339 
L 237.634844 141.149545 
L 240.197086 167.192854 
L 242.439047 187.920209 
L 244.318024 203.470155 
L 245.214809 208.894598 
L 246.111594 212.767073 
L 246.70945 214.555058 
L 247.307306 215.741691 
L 247.905163 216.345276 
L 248.524371 216.447411 
L 255.570535 216.671423 
L 262.29642 216.664511 
L 268.061463 216.488478 
L 268.360391 216.403839 
L 268.65932 216.176019 
L 269.257176 215.286772 
L 269.855032 213.807022 
L 270.452889 211.713945 
L 271.050745 208.975257 
L 271.94753 203.561423 
L 272.865666 196.318919 
L 275.107628 176.451705 
L 277.349589 154.665948 
L 279.911831 127.418704 
L 282.474072 99.54678 
L 283.114633 95.172083 
L 283.755193 92.496317 
L 284.075473 91.811569 
L 284.395753 91.566944 
L 288.879676 91.332749 
L 300.089483 91.342435 
L 303.612565 91.419362 
L 305.534247 91.566944 
L 305.854527 91.811569 
L 306.174807 92.496317 
L 306.495087 93.618149 
L 307.135648 97.151222 
L 307.776208 102.348123 
L 308.737049 112.855388 
L 311.29929 141.355558 
L 313.861532 167.349876 
L 316.103493 188.039323 
L 317.98247 203.561423 
L 318.879255 208.975257 
L 319.776039 212.83894 
L 320.373896 214.62192 
L 320.971752 215.804141 
L 321.569609 216.403839 
L 322.188817 216.502376 
L 329.234981 216.686081 
L 335.960866 216.640692 
L 341.725909 216.431681 
L 342.024837 216.345276 
L 342.323765 216.115574 
L 342.921622 215.222186 
L 343.519478 213.737736 
L 344.117335 211.639329 
L 344.715191 208.894598 
L 345.611976 203.470155 
L 346.530112 196.214636 
L 348.772073 176.311497 
L 351.014035 154.485187 
L 353.576276 127.185929 
L 356.138518 99.258768 
L 356.779078 94.873858 
L 357.419639 92.190412 
L 357.739919 91.502818 
L 358.060199 91.256028 
L 362.544122 90.996537 
L 373.753929 90.944483 
L 377.277011 91.002341 
L 379.198692 91.139786 
L 379.518973 91.383199 
L 379.839253 92.067689 
L 380.159533 93.190218 
L 380.800093 96.727535 
L 381.440654 101.932408 
L 382.401494 112.457853 
L 384.963736 141.009168 
L 387.525978 167.0514 
L 389.767939 187.78012 
L 391.36934 201.308275 
L 392.330181 207.572744 
L 392.970741 210.69755 
L 393.611301 213.049551 
L 394.251862 214.67147 
L 394.892422 215.59277 
L 400.337186 220.352641 
L 405.781949 224.813892 
L 408.984751 227.222591 
L 409.305031 227.243819 
L 409.625311 227.116727 
L 409.945592 226.840722 
L 410.586152 225.836109 
L 411.226712 224.211168 
L 411.867273 221.935474 
L 412.507833 218.966415 
L 413.468674 213.087357 
L 415.070075 200.452226 
L 417.312036 180.987336 
L 419.553998 159.599835 
L 422.116239 132.802758 
L 423.39736 119.227955 
L 424.03792 114.192587 
L 424.678481 110.695954 
L 425.319041 108.801206 
L 425.639321 108.466382 
L 425.959601 108.542562 
L 426.279882 109.029399 
L 426.600162 109.924693 
L 427.561002 114.211637 
L 432.044925 134.472271 
L 435.888288 150.901755 
L 440.05193 167.709167 
L 443.895293 182.268367 
L 447.098095 194.022628 
L 448.058935 199.128453 
L 449.019776 205.55613 
L 451.902298 226.445606 
L 453.183418 234.532721 
L 454.144259 239.11455 
L 455.1051 242.456931 
L 455.74566 244.068141 
L 456.38622 245.222187 
L 457.026781 245.940648 
L 457.667341 246.236959 
L 458.307902 246.116662 
L 458.948462 245.577506 
L 459.589022 244.60941 
L 460.229583 243.19427 
L 463.112105 235.461697 
L 465.994626 227.084853 
L 468.877148 218.063737 
L 469.837989 215.244029 
L 470.478549 214.114708 
L 470.798829 213.799844 
L 471.11911 213.653615 
L 471.43939 213.676668 
L 471.75967 213.868899 
L 472.720511 215.114417 
L 477.524714 221.525023 
L 482.008636 227.147521 
L 486.492559 232.421722 
L 490.976482 237.347626 
L 495.140125 241.609813 
L 499.303767 245.571684 
L 503.46741 249.233237 
L 507.631052 252.594474 
L 511.794695 255.655395 
L 515.638057 258.214306 
L 519.48142 260.517327 
L 523.324782 262.564456 
L 527.168144 264.355694 
L 531.011507 265.891041 
L 534.854869 267.170497 
L 538.377951 268.118538 
L 541.901034 268.851559 
L 545.424116 269.369561 
L 548.947198 269.672543 
L 552.47028 269.760506 
L 552.47028 269.760506 
" style="fill:none;stroke:#3b82f6;stroke-linecap:square;stroke-width:1.3;"/>
   </g>
   <g id="patch_7">
    <path d="M 117.85005 57.035657 
L 120.732572 57.035657 
L 120.732572 45.111543 
L 117.85005 45.111543 
z
" style="fill:#ef4444;"/>
   </g>
   <g id="patch_8">
    <path d="M 123.935374 57.035657 
L 126.497615 57.035657 
L 126.497615 45.111543 
L 123.935374 45.111543 
z
" style="fill:#10b981;"/>
   </g>
   <g id="patch_9">
    <path d="M 129.700417 57.035657 
L 137.387142 57.035657 
L 137.387142 45.111543 
L 129.700417 45.111543 
z
" style="fill:#ef4444;"/>
   </g>
   <g id="patch_10">
    <path d="M 140.589944 57.035657 
L 143.472466 57.035657 
L 143.472466 45.111543 
L 140.589944 45.111543 
z
" style="fill:#ef4444;"/>
   </g>
   <g id="patch_11">
    <path d="M 146.675268 57.035657 
L 149.237509 57.035657 
L 149.237509 45.111543 
L 146.675268 45.111543 
z
" style="fill:#10b981;"/>
   </g>
   <g id="patch_12">
    <path d="M 152.440311 57.035657 
L 159.806756 57.035657 
L 159.806756 45.111543 
L 152.440311 45.111543 
z
" style="fill:#fbbf24;"/>
   </g>
   <g id="patch_13">
    <path d="M 163.009558 57.035657 
L 167.1732 57.035657 
L 167.1732 45.111543 
L 163.009558 45.111543 
z
" style="fill:#ef4444;"/>
   </g>
   <g id="patch_14">
    <path d="M 170.376002 57.035657 
L 172.938244 57.035657 
L 172.938244 45.111543 
L 170.376002 45.111543 
z
" style="fill:#10b981;"/>
   </g>
   <g id="patch_15">
    <path d="M 176.141046 57.035657 
L 181.265529 57.035657 
L 181.265529 45.111543 
L 176.141046 45.111543 
z
" style="fill:#ef4444;"/>
   </g>
   <g id="patch_16">
    <path d="M 184.468331 57.035657 
L 187.030573 57.035657 
L 187.030573 45.111543 
L 184.468331 45.111543 
z
" style="fill:#10b981;"/>
   </g>
   <g id="patch_17">
    <path d="M 190.233375 54.054629 
L 191.834776 54.054629 
L 191.834776 42.130514 
L 190.233375 42.130514 
z
" style="fill:#fbbf24;"/>
   </g>
   <g id="patch_18">
    <path d="M 195.037578 57.035657 
L 198.88094 57.035657 
L 198.88094 45.111543 
L 195.037578 45.111543 
z
" style="fill:#ef4444;"/>
   </g>
   <g id="patch_19">
    <path d="M 202.083742 57.035657 
L 204.645984 57.035657 
L 204.645984 45.111543 
L 202.083742 45.111543 
z
" style="fill:#10b981;"/>
   </g>
   <g id="patch_20">
    <path d="M 207.848786 57.035657 
L 210.731308 57.035657 
L 210.731308 45.111543 
L 207.848786 45.111543 
z
" style="fill:#ef4444;"/>
   </g>
   <g id="patch_21">
    <path d="M 213.93411 57.035657 
L 221.300554 57.035657 
L 221.300554 45.111543 
L 213.93411 45.111543 
z
" style="fill:#fbbf24;"/>
   </g>
   <g id="patch_22">
    <path d="M 221.300554 57.035657 
L 228.666999 57.035657 
L 228.666999 45.111543 
L 221.300554 45.111543 
z
" style="fill:#fbbf24;"/>
   </g>
   <g id="patch_23">
    <path d="M 231.869801 57.035657 
L 234.752323 57.035657 
L 234.752323 45.111543 
L 231.869801 45.111543 
z
" style="fill:#ef4444;"/>
   </g>
   <g id="patch_24">
    <path d="M 237.955125 57.035657 
L 240.517366 57.035657 
L 240.517366 45.111543 
L 237.955125 45.111543 
z
" style="fill:#10b981;"/>
   </g>
   <g id="patch_25">
    <path d="M 243.720168 57.035657 
L 248.204091 57.035657 
L 248.204091 45.111543 
L 243.720168 45.111543 
z
" style="fill:#ef4444;"/>
   </g>
   <g id="patch_26">
    <path d="M 251.406893 54.054629 
L 253.008294 54.054629 
L 253.008294 42.130514 
L 251.406893 42.130514 
z
" style="fill:#fbbf24;"/>
   </g>
   <g id="patch_27">
    <path d="M 256.211096 57.035657 
L 260.054458 57.035657 
L 260.054458 45.111543 
L 256.211096 45.111543 
z
" style="fill:#10b981;"/>
   </g>
   <g id="patch_28">
    <path d="M 263.25726 54.054629 
L 264.858661 54.054629 
L 264.858661 42.130514 
L 263.25726 42.130514 
z
" style="fill:#fbbf24;"/>
   </g>
   <g id="patch_29">
    <path d="M 268.061463 57.035657 
L 272.545386 57.035657 
L 272.545386 45.111543 
L 268.061463 45.111543 
z
" style="fill:#ef4444;"/>
   </g>
   <g id="patch_30">
    <path d="M 275.748188 57.035657 
L 278.31043 57.035657 
L 278.31043 45.111543 
L 275.748188 45.111543 
z
" style="fill:#10b981;"/>
   </g>
   <g id="patch_31">
    <path d="M 281.513232 57.035657 
L 284.395753 57.035657 
L 284.395753 45.111543 
L 281.513232 45.111543 
z
" style="fill:#ef4444;"/>
   </g>
   <g id="patch_32">
    <path d="M 287.598555 57.035657 
L 294.965 57.035657 
L 294.965 45.111543 
L 287.598555 45.111543 
z
" style="fill:#fbbf24;"/>
   </g>
   <g id="patch_33">
    <path d="M 294.965 57.035657 
L 302.331445 57.035657 
L 302.331445 45.111543 
L 294.965 45.111543 
z
" style="fill:#fbbf24;"/>
   </g>
   <g id="patch_34">
    <path d="M 305.534247 57.035657 
L 308.416768 57.035657 
L 308.416768 45.111543 
L 305.534247 45.111543 
z
" style="fill:#ef4444;"/>
   </g>
   <g id="patch_35">
    <path d="M 311.61957 57.035657 
L 314.181812 57.035657 
L 314.181812 45.111543 
L 311.61957 45.111543 
z
" style="fill:#10b981;"/>
   </g>
   <g id="patch_36">
    <path d="M 317.384614 57.035657 
L 321.868537 57.035657 
L 321.868537 45.111543 
L 317.384614 45.111543 
z
" style="fill:#ef4444;"/>
   </g>
   <g id="patch_37">
    <path d="M 325.071339 54.054629 
L 326.67274 54.054629 
L 326.67274 42.130514 
L 325.071339 42.130514 
z
" style="fill:#fbbf24;"/>
   </g>
   <g id="patch_38">
    <path d="M 329.875542 57.035657 
L 333.718904 57.035657 
L 333.718904 45.111543 
L 329.875542 45.111543 
z
" style="fill:#10b981;"/>
   </g>
   <g id="patch_39">
    <path d="M 336.921706 54.054629 
L 338.523107 54.054629 
L 338.523107 42.130514 
L 336.921706 42.130514 
z
" style="fill:#fbbf24;"/>
   </g>
   <g id="patch_40">
    <path d="M 341.725909 57.035657 
L 346.209832 57.035657 
L 346.209832 45.111543 
L 341.725909 45.111543 
z
" style="fill:#ef4444;"/>
   </g>
   <g id="patch_41">
    <path d="M 349.412634 57.035657 
L 351.974875 57.035657 
L 351.974875 45.111543 
L 349.412634 45.111543 
z
" style="fill:#10b981;"/>
   </g>
   <g id="patch_42">
    <path d="M 355.177677 57.035657 
L 358.060199 57.035657 
L 358.060199 45.111543 
L 355.177677 45.111543 
z
" style="fill:#ef4444;"/>
   </g>
   <g id="patch_43">
    <path d="M 361.263001 57.035657 
L 368.629446 57.035657 
L 368.629446 45.111543 
L 361.263001 45.111543 
z
" style="fill:#fbbf24;"/>
   </g>
   <g id="patch_44">
    <path d="M 368.629446 57.035657 
L 375.99589 57.035657 
L 375.99589 45.111543 
L 368.629446 45.111543 
z
" style="fill:#fbbf24;"/>
   </g>
   <g id="patch_45">
    <path d="M 379.198692 57.035657 
L 382.081214 57.035657 
L 382.081214 45.111543 
L 379.198692 45.111543 
z
" style="fill:#ef4444;"/>
   </g>
   <g id="patch_46">
    <path d="M 385.284016 57.035657 
L 387.846258 57.035657 
L 387.846258 45.111543 
L 385.284016 45.111543 
z
" style="fill:#10b981;"/>
   </g>
   <g id="patch_47">
    <path d="M 391.04906 57.035657 
L 394.892422 57.035657 
L 394.892422 45.111543 
L 391.04906 45.111543 
z
" style="fill:#ef4444;"/>
   </g>
   <g id="patch_48">
    <path d="M 398.095224 54.054629 
L 399.696625 54.054629 
L 399.696625 42.130514 
L 398.095224 42.130514 
z
" style="fill:#fbbf24;"/>
   </g>
   <g id="patch_49">
    <path d="M 402.899427 57.035657 
L 405.461669 57.035657 
L 405.461669 45.111543 
L 402.899427 45.111543 
z
" style="fill:#10b981;"/>
   </g>
   <g id="patch_50">
    <path d="M 408.664471 57.035657 
L 413.788954 57.035657 
L 413.788954 45.111543 
L 408.664471 45.111543 
z
" style="fill:#ef4444;"/>
   </g>
   <g id="patch_51">
    <path d="M 416.991756 57.035657 
L 419.553998 57.035657 
L 419.553998 45.111543 
L 416.991756 45.111543 
z
" style="fill:#10b981;"/>
   </g>
   <g id="patch_52">
    <path d="M 422.7568 57.035657 
L 426.920442 57.035657 
L 426.920442 45.111543 
L 422.7568 45.111543 
z
" style="fill:#ef4444;"/>
   </g>
   <g id="patch_53">
    <path d="M 430.123244 57.035657 
L 437.489689 57.035657 
L 437.489689 45.111543 
L 430.123244 45.111543 
z
" style="fill:#fbbf24;"/>
   </g>
   <g id="patch_54">
    <path d="M 440.692491 57.035657 
L 443.254732 57.035657 
L 443.254732 45.111543 
L 440.692491 45.111543 
z
" style="fill:#10b981;"/>
   </g>
   <g id="patch_55">
    <path d="M 446.457534 57.035657 
L 449.340056 57.035657 
L 449.340056 45.111543 
L 446.457534 45.111543 
z
" style="fill:#ef4444;"/>
   </g>
   <g id="patch_56">
    <path d="M 452.542858 57.035657 
L 460.229583 57.035657 
L 460.229583 45.111543 
L 452.542858 45.111543 
z
" style="fill:#ef4444;"/>
   </g>
   <g id="patch_57">
    <path d="M 463.432385 57.035657 
L 465.994626 57.035657 
L 465.994626 45.111543 
L 463.432385 45.111543 
z
" style="fill:#10b981;"/>
   </g>
   <g id="patch_58">
    <path d="M 469.197428 57.035657 
L 472.07995 57.035657 
L 472.07995 45.111543 
L 469.197428 45.111543 
z
" style="fill:#ef4444;"/>
   </g>
   <g id="line2d_37">
    <path clip-path="url(#pe9293abb4c)" d="M 37.78 266.741351 
L 41.623362 266.629717 
L 45.466725 266.294817 
L 49.310087 265.73665 
L 53.15345 264.955216 
L 56.996812 263.950515 
L 60.840174 262.722548 
L 64.683537 261.271313 
L 68.526899 259.596812 
L 72.690542 257.530818 
L 76.854184 255.202796 
L 81.017827 252.612746 
L 85.181469 249.760667 
L 89.345112 246.64656 
L 93.508755 243.270424 
L 97.992677 239.341548 
L 102.4766 235.10878 
L 106.960523 230.572122 
L 111.444446 225.731573 
L 116.248649 220.208044 
L 118.17033 217.820842 
L 118.81089 216.391216 
L 119.451451 214.282428 
L 120.092011 211.457102 
L 121.052852 205.855213 
L 123.615093 188.889623 
L 126.177335 170.348905 
L 128.739577 150.233062 
L 130.340978 137.567992 
L 130.981538 134.222903 
L 131.622098 132.310623 
L 131.942379 131.903991 
L 132.262659 131.8668 
L 132.582939 132.199223 
L 132.903219 132.899708 
L 133.54378 135.390092 
L 134.18434 139.291527 
L 134.8249 144.531285 
L 135.785741 154.680222 
L 136.746582 167.190327 
L 139.949384 212.231482 
L 141.230504 227.300844 
L 142.511625 239.309741 
L 143.792746 248.729989 
L 145.394147 258.744568 
L 146.995548 267.36079 
L 148.276669 273.246951 
L 149.55779 278.238164 
L 150.83891 282.334429 
L 151.799751 284.819318 
L 152.760592 286.800502 
L 153.721432 288.27808 
L 154.682273 289.252709 
L 155.322833 289.622984 
L 155.963394 289.769652 
L 156.603954 289.692703 
L 157.244514 289.392143 
L 157.885075 288.867987 
L 158.525635 288.120266 
L 159.486476 286.57959 
L 160.447316 284.53529 
L 161.408157 281.987267 
L 162.689278 277.806824 
L 163.650118 274.014164 
L 164.610959 269.3427 
L 165.5718 263.586961 
L 166.53264 256.511912 
L 167.493481 247.875598 
L 168.774601 234.549002 
L 170.376002 215.324868 
L 171.977403 193.249747 
L 173.578804 168.323638 
L 175.500486 134.649004 
L 177.422167 100.301426 
L 178.383007 87.557249 
L 179.023568 81.235739 
L 179.664128 76.796421 
L 180.304689 74.322159 
L 180.624969 73.837818 
L 180.945249 73.859138 
L 181.265529 74.38602 
L 187.350853 88.903532 
L 193.436177 102.852613 
L 195.357858 107.347457 
L 195.998418 110.412221 
L 196.638979 115.06466 
L 197.279539 121.22052 
L 198.24038 133.0224 
L 203.044583 199.762847 
L 204.966264 221.503009 
L 206.567665 237.334179 
L 208.169066 251.042867 
L 209.129907 257.713846 
L 210.090747 263.163027 
L 211.371868 268.999066 
L 212.973269 275.164211 
L 214.25439 279.306931 
L 215.535511 282.746388 
L 216.816631 285.488445 
L 217.777472 287.086966 
L 218.738313 288.292682 
L 219.699153 289.105451 
L 220.339714 289.428943 
L 220.980274 289.577731 
L 221.620834 289.551807 
L 222.261395 289.351172 
L 222.901955 288.975837 
L 223.862796 288.085319 
L 224.823636 286.801877 
L 225.784477 285.125664 
L 226.745318 283.056878 
L 228.026438 279.688259 
L 229.307559 275.618549 
L 230.58868 270.845296 
L 231.869801 265.371884 
L 232.830641 260.526331 
L 233.791482 254.588902 
L 234.752323 247.321501 
L 236.353724 232.899273 
L 237.955125 216.381061 
L 239.556526 197.766864 
L 241.478207 172.663127 
L 243.399888 144.541172 
L 244.616953 126.555034 
L 245.513737 115.950359 
L 246.410522 108.113206 
L 247.008378 104.563944 
L 247.606235 102.421841 
L 247.905163 101.889635 
L 248.204091 101.719854 
L 259.093618 102.035698 
L 268.360391 102.308133 
L 268.65932 102.851354 
L 268.958248 103.754081 
L 269.556104 106.622776 
L 270.153961 110.870085 
L 271.050745 119.677454 
L 271.94753 131.130567 
L 276.388748 194.227225 
L 278.31043 216.782528 
L 279.911831 233.268389 
L 281.513232 247.654047 
L 282.474072 254.900658 
L 283.434913 260.821607 
L 284.395753 265.654329 
L 285.997154 272.364546 
L 287.278275 276.940001 
L 288.559396 280.80616 
L 289.840517 283.96885 
L 290.801357 285.880126 
L 291.762198 287.396224 
L 292.723039 288.516967 
L 293.683879 289.24222 
L 294.32444 289.505961 
L 294.965 289.593876 
L 295.60556 289.505961 
L 296.246121 289.24222 
L 296.886681 288.802666 
L 297.847522 287.813741 
L 298.808362 286.42941 
L 299.769203 284.649837 
L 300.730044 282.475233 
L 302.011164 278.961719 
L 303.292285 274.740354 
L 304.573406 269.812579 
L 305.854527 264.151567 
L 306.815367 258.979615 
L 307.776208 252.645571 
L 308.737049 244.944932 
L 310.33845 230.139233 
L 311.939851 213.233331 
L 313.861532 190.173979 
L 315.783213 164.090334 
L 319.178183 116.430665 
L 320.074968 108.577701 
L 320.672824 105.012837 
L 321.27068 102.851354 
L 321.569609 102.308133 
L 321.868537 102.126507 
L 332.758064 101.996345 
L 342.024837 101.889635 
L 342.323765 102.421841 
L 342.622694 103.314423 
L 343.22055 106.165593 
L 343.818406 110.399283 
L 344.715191 119.193987 
L 345.611976 130.644115 
L 350.053194 193.792506 
L 351.974875 216.381061 
L 353.576276 232.899273 
L 355.177677 247.321501 
L 356.138518 254.588902 
L 357.099359 260.526331 
L 358.060199 265.371884 
L 359.6616 272.104249 
L 360.942721 276.702462 
L 362.223842 280.595765 
L 363.504963 283.790078 
L 364.786083 286.286771 
L 365.746924 287.701156 
L 366.707765 288.722663 
L 367.668605 289.351172 
L 368.309166 289.551807 
L 368.949726 289.577731 
L 369.590286 289.428943 
L 370.230847 289.105451 
L 371.191687 288.292682 
L 372.152528 287.086966 
L 373.113369 285.488445 
L 374.074209 283.497309 
L 375.35533 280.232139 
L 376.636451 276.26596 
L 377.917572 271.596404 
L 379.198692 266.226688 
L 380.159533 261.467996 
L 381.120374 255.63805 
L 382.081214 248.503065 
L 383.682615 234.334172 
L 385.284016 218.087433 
L 386.885417 199.762847 
L 388.807098 175.030588 
L 390.72878 147.306229 
L 392.0099 128.768319 
L 392.970741 117.961013 
L 393.611301 112.544589 
L 394.251862 108.677222 
L 394.892422 106.428951 
L 400.977746 92.629455 
L 407.06307 78.261528 
L 408.984751 73.859138 
L 409.305031 73.837818 
L 409.625311 74.322159 
L 409.945592 75.309898 
L 410.586152 78.774782 
L 411.226712 84.167794 
L 411.867273 91.388268 
L 412.828113 105.341923 
L 414.109234 128.637426 
L 416.030915 162.996297 
L 417.952597 193.249747 
L 419.553998 215.324868 
L 421.155399 234.549002 
L 422.7568 250.922149 
L 423.71764 259.033458 
L 424.678481 265.639516 
L 425.639321 271.01008 
L 426.600162 275.364457 
L 427.881283 280.008914 
L 429.162403 283.741883 
L 430.123244 285.9543 
L 431.084085 287.66258 
L 432.044925 288.867987 
L 432.685486 289.392143 
L 433.326046 289.692703 
L 433.966606 289.769652 
L 434.607167 289.622984 
L 435.247727 289.252709 
L 435.888288 288.658847 
L 436.849128 287.348901 
L 437.809969 285.535746 
L 438.770809 283.21866 
L 439.73165 280.398165 
L 441.012771 275.854426 
L 442.293892 270.415739 
L 443.575012 264.082104 
L 445.176413 254.906539 
L 446.777814 244.290851 
L 447.738655 236.578699 
L 448.699496 227.300844 
L 449.980616 212.231482 
L 451.582017 190.738685 
L 454.144259 154.680222 
L 455.1051 144.531285 
L 455.74566 139.291527 
L 456.38622 135.390092 
L 457.026781 132.899708 
L 457.347061 132.199223 
L 457.667341 131.8668 
L 457.987621 131.903991 
L 458.307902 132.310623 
L 458.628182 133.084797 
L 459.268742 135.719629 
L 459.909303 139.759369 
L 465.674346 184.402111 
L 468.236588 201.761484 
L 469.837989 211.457102 
L 470.478549 214.282428 
L 471.11911 216.391216 
L 471.75967 217.820842 
L 472.720511 219.061476 
L 477.524714 224.654776 
L 482.328917 229.899221 
L 486.812839 234.479292 
L 491.296762 238.755472 
L 495.780685 242.727761 
L 500.264608 246.39616 
L 504.42825 249.530423 
L 508.591893 252.402658 
L 512.755535 255.012864 
L 516.919178 257.361042 
L 521.082821 259.447192 
L 525.246463 261.271313 
L 529.089826 262.722548 
L 532.933188 263.950515 
L 536.77655 264.955216 
L 540.619913 265.73665 
L 544.463275 266.294817 
L 548.306638 266.629717 
L 552.15 266.741351 
L 552.47028 266.740575 
L 552.47028 266.740575 
" style="fill:none;stroke:#ef4444;stroke-linecap:square;stroke-width:1.3;"/>
   </g>
   <g id="text_19">
    <!-- uq3 -->
    <g transform="translate(111.984436 41.280111)scale(0.08 -0.08)">
     <defs>
      <path d="M 42.046875 22.296875 
C 42.046875 12.078125 34.234375 7.390625 27.984375 7.390625 
C 21.03125 7.390625 16.046875 12.5 16.046875 20.453125 
L 16.046875 54.546875 
L 7.671875 54.546875 
L 7.671875 19.890625 
C 7.671875 5.96875 15.0625 -0.703125 25.28125 -0.703125 
C 33.53125 -0.703125 38.921875 3.6875 41.484375 9.234375 
L 42.046875 9.234375 
L 42.046875 0 
L 50.421875 0 
L 50.421875 54.546875 
L 42.046875 54.546875 
z
" id="Inter-Regular-117"/>
      <path d="M 53.265625 -20.453125 
L 53.265625 54.546875 
L 45.171875 54.546875 
L 45.171875 45.875 
L 44.171875 45.875 
C 42.328125 48.71875 39.0625 55.25 28.40625 55.25 
C 14.625 55.25 5.109375 44.3125 5.109375 27.125 
C 5.109375 9.796875 14.625 -1.140625 28.265625 -1.140625 
C 38.78125 -1.140625 42.328125 5.390625 44.171875 8.375 
L 44.890625 8.375 
L 44.890625 -20.453125 
z
M 45.03125 27.265625 
C 45.03125 14.921875 39.484375 6.390625 29.40625 6.390625 
C 18.890625 6.390625 13.5 15.625 13.5 27.265625 
C 13.5 38.78125 18.75 47.734375 29.40625 47.734375 
C 39.625 47.734375 45.03125 39.484375 45.03125 27.265625 
z
" id="Inter-Regular-113"/>
     </defs>
     <use xlink:href="#Inter-Regular-117"/>
     <use x="58.096603" xlink:href="#Inter-Regular-113"/>
     <use x="119.034119" xlink:href="#Inter-Regular-51"/>
    </g>
   </g>
   <g id="text_20">
    <!-- uq2 -->
    <g transform="translate(126.361905 65.128339)scale(0.08 -0.08)">
     <use xlink:href="#Inter-Regular-117"/>
     <use x="58.096603" xlink:href="#Inter-Regular-113"/>
     <use x="119.034119" xlink:href="#Inter-Regular-50"/>
    </g>
   </g>
   <g id="text_21">
    <!-- uq1 -->
    <g transform="translate(135.41183 41.240736)scale(0.08 -0.08)">
     <use xlink:href="#Inter-Regular-117"/>
     <use x="58.096603" xlink:href="#Inter-Regular-113"/>
     <use x="119.034119" xlink:href="#Inter-Regular-49"/>
    </g>
   </g>
   <g id="text_22">
    <!-- mb0 -->
    <g transform="translate(147.662909 65.088964)scale(0.08 -0.08)">
     <use xlink:href="#Inter-Regular-109"/>
     <use x="86.931839" xlink:href="#Inter-Regular-98"/>
     <use x="149.005722" xlink:href="#Inter-Regular-48"/>
    </g>
   </g>
   <g id="text_23">
    <!-- mq1 -->
    <g transform="translate(157.318254 41.240736)scale(0.08 -0.08)">
     <use xlink:href="#Inter-Regular-109"/>
     <use x="86.931839" xlink:href="#Inter-Regular-113"/>
     <use x="147.869354" xlink:href="#Inter-Regular-49"/>
    </g>
   </g>
   <g id="text_24">
    <!-- mq2 -->
    <g transform="translate(170.367663 65.128339)scale(0.08 -0.08)">
     <use xlink:href="#Inter-Regular-109"/>
     <use x="86.931839" xlink:href="#Inter-Regular-113"/>
     <use x="147.869354" xlink:href="#Inter-Regular-50"/>
    </g>
   </g>
   <g id="text_25">
    <!-- b1 -->
    <g transform="translate(186.692825 41.240736)scale(0.08 -0.08)">
     <use xlink:href="#Inter-Regular-98"/>
     <use x="62.073883" xlink:href="#Inter-Regular-49"/>
    </g>
   </g>
   <g id="text_26">
    <!-- q1a -->
    <g transform="translate(190.408009 65.088964)scale(0.08 -0.08)">
     <defs>
      <path d="M 23.71875 -1.28125 
C 33.234375 -1.28125 38.21875 3.828125 39.921875 7.390625 
L 40.34375 7.390625 
L 40.34375 0 
L 48.71875 0 
L 48.71875 35.9375 
C 48.71875 53.265625 35.515625 55.25 28.546875 55.25 
C 20.3125 55.25 10.9375 52.421875 6.671875 42.46875 
L 14.625 39.625 
C 16.484375 43.609375 20.84375 47.875 28.84375 47.875 
C 36.546875 47.875 40.34375 43.78125 40.34375 36.796875 
L 40.34375 36.5 
C 40.34375 32.453125 36.21875 32.8125 26.28125 31.53125 
C 16.15625 30.21875 5.109375 27.984375 5.109375 15.484375 
C 5.109375 4.828125 13.359375 -1.28125 23.71875 -1.28125 
z
M 25 6.25 
C 18.328125 6.25 13.5 9.234375 13.5 15.0625 
C 13.5 21.453125 19.3125 23.4375 25.859375 24.296875 
C 29.40625 24.71875 38.921875 25.703125 40.34375 27.421875 
L 40.34375 19.75 
C 40.34375 12.921875 34.9375 6.25 25 6.25 
z
" id="Inter-Regular-97"/>
     </defs>
     <use xlink:href="#Inter-Regular-113"/>
     <use x="60.937515" xlink:href="#Inter-Regular-49"/>
     <use x="107.386383" xlink:href="#Inter-Regular-97"/>
    </g>
   </g>
   <g id="text_27">
    <!-- q0 -->
    <g transform="translate(204.352547 41.280111)scale(0.08 -0.08)">
     <use xlink:href="#Inter-Regular-113"/>
     <use x="60.937515" xlink:href="#Inter-Regular-48"/>
    </g>
   </g>
   <g id="text_28">
    <!-- b0_r -->
    <g transform="translate(209.338582 65.088964)scale(0.08 -0.08)">
     <defs>
      <path d="M 45.3125 0 
L -0.140625 0 
L -0.140625 -7.8125 
L 45.3125 -7.8125 
z
" id="Inter-Regular-95"/>
     </defs>
     <use xlink:href="#Inter-Regular-98"/>
     <use x="62.073883" xlink:href="#Inter-Regular-48"/>
     <use x="124.573898" xlink:href="#Inter-Regular-95"/>
     <use x="169.744354" xlink:href="#Inter-Regular-114"/>
    </g>
   </g>
   <g id="text_29">
    <!-- b0 -->
    <g transform="translate(220.000651 41.240736)scale(0.08 -0.08)">
     <use xlink:href="#Inter-Regular-98"/>
     <use x="62.073883" xlink:href="#Inter-Regular-48"/>
    </g>
   </g>
   <g id="text_30">
    <!-- q0 -->
    <g transform="translate(228.373562 65.128339)scale(0.08 -0.08)">
     <use xlink:href="#Inter-Regular-113"/>
     <use x="60.937515" xlink:href="#Inter-Regular-48"/>
    </g>
   </g>
   <g id="text_31">
    <!-- q1 -->
    <g transform="translate(241.666505 41.240736)scale(0.08 -0.08)">
     <use xlink:href="#Inter-Regular-113"/>
     <use x="60.937515" xlink:href="#Inter-Regular-49"/>
    </g>
   </g>
   <g id="text_32">
    <!-- b1 -->
    <g transform="translate(247.866343 65.088964)scale(0.08 -0.08)">
     <use xlink:href="#Inter-Regular-98"/>
     <use x="62.073883" xlink:href="#Inter-Regular-49"/>
    </g>
   </g>
   <g id="text_33">
    <!-- b1 -->
    <g transform="translate(259.716711 41.240736)scale(0.08 -0.08)">
     <use xlink:href="#Inter-Regular-98"/>
     <use x="62.073883" xlink:href="#Inter-Regular-49"/>
    </g>
   </g>
   <g id="text_34">
    <!-- q1 -->
    <g transform="translate(266.0078 65.088964)scale(0.08 -0.08)">
     <use xlink:href="#Inter-Regular-113"/>
     <use x="60.937515" xlink:href="#Inter-Regular-49"/>
    </g>
   </g>
   <g id="text_35">
    <!-- q0 -->
    <g transform="translate(278.016993 41.280111)scale(0.08 -0.08)">
     <use xlink:href="#Inter-Regular-113"/>
     <use x="60.937515" xlink:href="#Inter-Regular-48"/>
    </g>
   </g>
   <g id="text_36">
    <!-- b0_r -->
    <g transform="translate(283.003028 65.088964)scale(0.08 -0.08)">
     <use xlink:href="#Inter-Regular-98"/>
     <use x="62.073883" xlink:href="#Inter-Regular-48"/>
     <use x="124.573898" xlink:href="#Inter-Regular-95"/>
     <use x="169.744354" xlink:href="#Inter-Regular-114"/>
    </g>
   </g>
   <g id="text_37">
    <!-- b0 -->
    <g transform="translate(293.665097 41.240736)scale(0.08 -0.08)">
     <use xlink:href="#Inter-Regular-98"/>
     <use x="62.073883" xlink:href="#Inter-Regular-48"/>
    </g>
   </g>
   <g id="text_38">
    <!-- q0 -->
    <g transform="translate(302.038007 65.128339)scale(0.08 -0.08)">
     <use xlink:href="#Inter-Regular-113"/>
     <use x="60.937515" xlink:href="#Inter-Regular-48"/>
    </g>
   </g>
   <g id="text_39">
    <!-- q1 -->
    <g transform="translate(315.33095 41.240736)scale(0.08 -0.08)">
     <use xlink:href="#Inter-Regular-113"/>
     <use x="60.937515" xlink:href="#Inter-Regular-49"/>
    </g>
   </g>
   <g id="text_40">
    <!-- b1 -->
    <g transform="translate(321.530789 65.088964)scale(0.08 -0.08)">
     <use xlink:href="#Inter-Regular-98"/>
     <use x="62.073883" xlink:href="#Inter-Regular-49"/>
    </g>
   </g>
   <g id="text_41">
    <!-- b1 -->
    <g transform="translate(333.381157 41.240736)scale(0.08 -0.08)">
     <use xlink:href="#Inter-Regular-98"/>
     <use x="62.073883" xlink:href="#Inter-Regular-49"/>
    </g>
   </g>
   <g id="text_42">
    <!-- q1 -->
    <g transform="translate(339.672245 65.088964)scale(0.08 -0.08)">
     <use xlink:href="#Inter-Regular-113"/>
     <use x="60.937515" xlink:href="#Inter-Regular-49"/>
    </g>
   </g>
   <g id="text_43">
    <!-- q0 -->
    <g transform="translate(351.681438 41.280111)scale(0.08 -0.08)">
     <use xlink:href="#Inter-Regular-113"/>
     <use x="60.937515" xlink:href="#Inter-Regular-48"/>
    </g>
   </g>
   <g id="text_44">
    <!-- b0_r -->
    <g transform="translate(356.667474 65.088964)scale(0.08 -0.08)">
     <use xlink:href="#Inter-Regular-98"/>
     <use x="62.073883" xlink:href="#Inter-Regular-48"/>
     <use x="124.573898" xlink:href="#Inter-Regular-95"/>
     <use x="169.744354" xlink:href="#Inter-Regular-114"/>
    </g>
   </g>
   <g id="text_45">
    <!-- b0 -->
    <g transform="translate(367.329543 41.240736)scale(0.08 -0.08)">
     <use xlink:href="#Inter-Regular-98"/>
     <use x="62.073883" xlink:href="#Inter-Regular-48"/>
    </g>
   </g>
   <g id="text_46">
    <!-- q0 -->
    <g transform="translate(375.702453 65.128339)scale(0.08 -0.08)">
     <use xlink:href="#Inter-Regular-113"/>
     <use x="60.937515" xlink:href="#Inter-Regular-48"/>
    </g>
   </g>
   <g id="text_47">
    <!-- q1a -->
    <g transform="translate(386.419491 41.240736)scale(0.08 -0.08)">
     <use xlink:href="#Inter-Regular-113"/>
     <use x="60.937515" xlink:href="#Inter-Regular-49"/>
     <use x="107.386383" xlink:href="#Inter-Regular-97"/>
    </g>
   </g>
   <g id="text_48">
    <!-- b1 -->
    <g transform="translate(394.554675 65.088964)scale(0.08 -0.08)">
     <use xlink:href="#Inter-Regular-98"/>
     <use x="62.073883" xlink:href="#Inter-Regular-49"/>
    </g>
   </g>
   <g id="text_49">
    <!-- mq2 -->
    <g transform="translate(402.891087 41.280111)scale(0.08 -0.08)">
     <use xlink:href="#Inter-Regular-109"/>
     <use x="86.931839" xlink:href="#Inter-Regular-113"/>
     <use x="147.869354" xlink:href="#Inter-Regular-50"/>
    </g>
   </g>
   <g id="text_50">
    <!-- mq1 -->
    <g transform="translate(417.065496 65.088964)scale(0.08 -0.08)">
     <use xlink:href="#Inter-Regular-109"/>
     <use x="86.931839" xlink:href="#Inter-Regular-113"/>
     <use x="147.869354" xlink:href="#Inter-Regular-49"/>
    </g>
   </g>
   <g id="text_51">
    <!-- mb0 -->
    <g transform="translate(425.345841 41.240736)scale(0.08 -0.08)">
     <use xlink:href="#Inter-Regular-109"/>
     <use x="86.931839" xlink:href="#Inter-Regular-98"/>
     <use x="149.005722" xlink:href="#Inter-Regular-48"/>
    </g>
   </g>
   <g id="text_52">
    <!-- uq1 -->
    <g transform="translate(441.27942 65.088964)scale(0.08 -0.08)">
     <use xlink:href="#Inter-Regular-117"/>
     <use x="58.096603" xlink:href="#Inter-Regular-113"/>
     <use x="119.034119" xlink:href="#Inter-Regular-49"/>
    </g>
   </g>
   <g id="text_53">
    <!-- uq2 -->
    <g transform="translate(449.204345 41.280111)scale(0.08 -0.08)">
     <use xlink:href="#Inter-Regular-117"/>
     <use x="58.096603" xlink:href="#Inter-Regular-113"/>
     <use x="119.034119" xlink:href="#Inter-Regular-50"/>
    </g>
   </g>
   <g id="text_54">
    <!-- uq3 -->
    <g transform="translate(463.331814 65.128339)scale(0.08 -0.08)">
     <use xlink:href="#Inter-Regular-117"/>
     <use x="58.096603" xlink:href="#Inter-Regular-113"/>
     <use x="119.034119" xlink:href="#Inter-Regular-51"/>
    </g>
   </g>
  </g>
 </g>
 <defs>
  <clipPath id="pe9293abb4c">
   <rect height="250.4064" width="514.37" x="37.78" y="51.0736"/>
  </clipPath>
 </defs>
</svg>
