<?xml version="1.0" encoding="utf-8" standalone="no"?>
<!DOCTYPE svg PUBLIC "-//W3C//DTD SVG 1.1//EN"
  "http://www.w3.org/Graphics/SVG/1.1/DTD/svg11.dtd">
<!-- Created with matplotlib (https://matplotlib.org/) -->
<svg height="345.6pt" version="1.1" viewBox="0 0 576 345.6" width="576pt" xmlns="http://www.w3.org/2000/svg" xmlns:xlink="http://www.w3.org/1999/xlink">
 <metadata>
  <rdf:RDF xmlns:cc="http://creativecommons.org/ns#" xmlns:dc="http://purl.org/dc/elements/1.1/" xmlns:rdf="http://www.w3.org/1999/02/22-rdf-syntax-ns#">
   <cc:Work>
    <dc:type rdf:resource="http://purl.org/dc/dcmitype/StillImage"/>
    <dc:date>2020-12-15T10:10:56.577899</dc:date>
    <dc:format>image/svg+xml</dc:format>
    <dc:creator>
     <cc:Agent>
      <dc:title>Matplotlib v3.3.3, https://matplotlib.org/</dc:title>
     </cc:Agent>
    </dc:creator>
   </cc:Work>
  </rdf:RDF>
 </metadata>
 <defs>
  <style type="text/css">*{stroke-linecap:butt;stroke-linejoin:round;}</style>
 </defs>
 <g id="figure_1">
  <g id="patch_1">
   <path d="M 0 345.6 
L 576 345.6 
L 576 0 
L 0 0 
z
" style="fill:#ffffff;"/>
  </g>
  <g id="axes_1">
   <g id="patch_2">
    <path d="M 37.78 301.48 
L 552.15 301.48 
L 552.15 51.0736 
L 37.78 51.0736 
z
" style="fill:#ffffff;"/>
   </g>
   <g id="matplotlib.axis_1">
    <g id="xtick_1">
     <g id="line2d_1">
      <path clip-path="url(#p53fca2f5af)" d="M 37.78 301.48 
L 37.78 51.0736 
" style="fill:none;stroke:#e5e7eb;stroke-dasharray:3.7,1.6;stroke-dashoffset:0;"/>
     </g>
     <g id="line2d_2">
      <defs>
       <path d="M 0 0 
L 0 3.5 
" id="m69dbbe1e9c" style="stroke:#000000;stroke-width:0.8;"/>
      </defs>
      <g>
       <use style="stroke:#000000;stroke-width:0.8;" x="37.78" xlink:href="#m69dbbe1e9c" y="301.48"/>
      </g>
     </g>
     <g id="text_1">
      <!-- 0.00 -->
      <g transform="translate(27.026875 315.753437)scale(0.1 -0.1)">
       <defs>
        <path d="M 31.25 -1 
C 47.296875 -1 56.53125 12.609375 56.53125 36.359375 
C 56.53125 59.9375 47.15625 73.71875 31.25 73.71875 
C 15.34375 73.71875 5.96875 59.9375 5.96875 36.359375 
C 5.96875 12.609375 15.203125 -1 31.25 -1 
z
M 31.25 6.8125 
C 20.671875 6.8125 14.484375 17.4375 14.484375 36.359375 
C 14.484375 55.25 20.734375 66.046875 31.25 66.046875 
C 41.765625 66.046875 48.015625 55.25 48.015625 36.359375 
C 48.015625 17.4375 41.828125 6.8125 31.25 6.8125 
z
" id="Inter-Regular-48"/>
        <path d="M 13.78125 -0.5625 
C 17.296875 -0.5625 20.171875 2.3125 20.171875 5.828125 
C 20.171875 9.34375 17.296875 12.21875 13.78125 12.21875 
C 10.265625 12.21875 7.390625 9.34375 7.390625 5.828125 
C 7.390625 2.3125 10.265625 -0.5625 13.78125 -0.5625 
z
" id="Inter-Regular-46"/>
       </defs>
       <use xlink:href="#Inter-Regular-48"/>
       <use x="62.500015" xlink:href="#Inter-Regular-46"/>
       <use x="90.056839" xlink:href="#Inter-Regular-48"/>
       <use x="152.556854" xlink:href="#Inter-Regular-48"/>
      </g>
     </g>
    </g>
    <g id="xtick_2">
     <g id="line2d_3">
      <path clip-path="url(#p53fca2f5af)" d="M 221.300554 301.48 
L 221.300554 51.0736 
" style="fill:none;stroke:#e5e7eb;stroke-dasharray:3.7,1.6;stroke-dashoffset:0;"/>
     </g>
     <g id="line2d_4">
      <g>
       <use style="stroke:#000000;stroke-width:0.8;" x="221.300554" xlink:href="#m69dbbe1e9c" y="301.48"/>
      </g>
     </g>
     <g id="text_2">
      <!-- 5.73 -->
      <g transform="translate(210.845085 315.753437)scale(0.1 -0.1)">
       <defs>
        <path d="M 30.25 -1 
C 44.109375 -1 54.265625 9.234375 54.265625 23.15625 
C 54.265625 37.25 44.46875 47.578125 31.109375 47.578125 
C 26.203125 47.578125 21.453125 45.84375 18.46875 43.46875 
L 18.046875 43.46875 
L 20.59375 64.921875 
L 51 64.921875 
L 51 72.734375 
L 13.21875 72.734375 
L 8.8125 36.9375 
L 17.046875 35.9375 
C 20.0625 38.109375 25.21875 39.671875 29.6875 39.625 
C 38.953125 39.5625 45.734375 32.53125 45.734375 23.015625 
C 45.734375 13.671875 39.203125 6.8125 30.25 6.8125 
C 22.796875 6.8125 16.875 11.609375 16.1875 18.1875 
L 7.671875 18.1875 
C 8.203125 7.109375 17.75 -1 30.25 -1 
z
" id="Inter-Regular-53"/>
        <path d="M 9.796875 0 
L 19.03125 0 
L 51.421875 64.484375 
L 51.421875 72.734375 
L 4.828125 72.734375 
L 4.828125 64.921875 
L 42.328125 64.921875 
L 42.328125 64.34375 
z
" id="Inter-Regular-55"/>
        <path d="M 32.109375 -1 
C 46.203125 -1 56.671875 7.84375 56.671875 19.75 
C 56.671875 28.984375 51.203125 35.6875 42.046875 37.21875 
L 42.046875 37.78125 
C 49.390625 40.015625 53.984375 46.0625 53.984375 54.265625 
C 53.984375 64.5625 45.84375 73.71875 32.390625 73.71875 
C 19.8125 73.71875 9.375 65.984375 8.953125 54.546875 
L 17.46875 54.546875 
C 17.796875 61.796875 24.6875 66.046875 32.25 66.046875 
C 40.265625 66.046875 45.453125 61.1875 45.453125 53.828125 
C 45.453125 46.171875 39.453125 41.1875 30.828125 41.1875 
L 25 41.1875 
L 25 33.375 
L 30.828125 33.375 
C 41.875 33.375 48.015625 27.765625 48.015625 19.75 
C 48.015625 12.03125 41.296875 6.8125 31.96875 6.8125 
C 23.546875 6.8125 16.875 11.15625 16.34375 18.1875 
L 7.390625 18.1875 
C 7.921875 6.75 18 -1 32.109375 -1 
z
" id="Inter-Regular-51"/>
       </defs>
       <use xlink:href="#Inter-Regular-53"/>
       <use x="60.795471" xlink:href="#Inter-Regular-46"/>
       <use x="88.352295" xlink:href="#Inter-Regular-55"/>
       <use x="145.454575" xlink:href="#Inter-Regular-51"/>
      </g>
     </g>
    </g>
    <g id="xtick_3">
     <g id="line2d_5">
      <path clip-path="url(#p53fca2f5af)" d="M 368.629446 301.48 
L 368.629446 51.0736 
" style="fill:none;stroke:#e5e7eb;stroke-dasharray:3.7,1.6;stroke-dashoffset:0;"/>
     </g>
     <g id="line2d_6">
      <g>
       <use style="stroke:#000000;stroke-width:0.8;" x="368.629446" xlink:href="#m69dbbe1e9c" y="301.48"/>
      </g>
     </g>
     <g id="text_3">
      <!-- 10.33 -->
      <g transform="translate(355.439602 315.753437)scale(0.1 -0.1)">
       <defs>
        <path d="M 33.09375 72.734375 
L 24.296875 72.734375 
L 6.109375 60.65625 
L 6.109375 51.703125 
L 23.859375 63.5 
L 24.296875 63.5 
L 24.296875 0 
L 33.09375 0 
z
" id="Inter-Regular-49"/>
       </defs>
       <use xlink:href="#Inter-Regular-49"/>
       <use x="46.448868" xlink:href="#Inter-Regular-48"/>
       <use x="108.948883" xlink:href="#Inter-Regular-46"/>
       <use x="136.505707" xlink:href="#Inter-Regular-51"/>
       <use x="200.14209" xlink:href="#Inter-Regular-51"/>
      </g>
     </g>
    </g>
    <g id="xtick_4">
     <g id="line2d_7">
      <path clip-path="url(#p53fca2f5af)" d="M 552.15 301.48 
L 552.15 51.0736 
" style="fill:none;stroke:#e5e7eb;stroke-dasharray:3.7,1.6;stroke-dashoffset:0;"/>
     </g>
     <g id="line2d_8">
      <g>
       <use style="stroke:#000000;stroke-width:0.8;" x="552.15" xlink:href="#m69dbbe1e9c" y="301.48"/>
      </g>
     </g>
     <g id="text_4">
      <!-- 16.06 -->
      <g transform="translate(539.088281 315.753437)scale(0.1 -0.1)">
       <defs>
        <path d="M 31.671875 -1 
C 46.375 -1.171875 55.96875 9.90625 55.96875 23.4375 
C 55.96875 37.5 45.5625 47.578125 33.09375 47.578125 
C 25.609375 47.578125 19.171875 43.921875 15.203125 37.921875 
L 14.625 37.921875 
C 14.671875 55.78125 21.5625 66.046875 32.8125 66.046875 
C 40.484375 66.046875 45.09375 61.21875 46.734375 54.546875 
L 55.40625 54.546875 
C 53.625 65.984375 45.03125 73.859375 32.8125 73.859375 
C 16.4375 73.859375 6.390625 59.375 6.390625 33.515625 
C 6.390625 6.640625 19.75 -0.859375 31.671875 -1 
z
M 31.671875 6.8125 
C 22.546875 6.8125 15.875 14.59375 15.90625 23.296875 
C 15.953125 32 22.9375 39.765625 31.96875 39.765625 
C 40.875 39.765625 47.4375 32.453125 47.4375 23.4375 
C 47.4375 14.203125 40.59375 6.8125 31.671875 6.8125 
z
" id="Inter-Regular-54"/>
       </defs>
       <use xlink:href="#Inter-Regular-49"/>
       <use x="46.448868" xlink:href="#Inter-Regular-54"/>
       <use x="108.806839" xlink:href="#Inter-Regular-46"/>
       <use x="136.363663" xlink:href="#Inter-Regular-48"/>
       <use x="198.863678" xlink:href="#Inter-Regular-54"/>
      </g>
     </g>
    </g>
    <g id="text_5">
     <!-- Orbit Position $s$ / m -->
     <g transform="translate(249.915 329.072187)scale(0.1 -0.1)">
      <defs>
       <path d="M 70.171875 36.359375 
C 70.171875 59.375 56.671875 73.71875 38.0625 73.71875 
C 19.46875 73.71875 5.96875 59.375 5.96875 36.359375 
C 5.96875 13.359375 19.46875 -1 38.0625 -1 
C 56.671875 -1 70.171875 13.359375 70.171875 36.359375 
z
M 61.65625 36.359375 
C 61.65625 17.46875 51.28125 7.25 38.0625 7.25 
C 24.859375 7.25 14.484375 17.46875 14.484375 36.359375 
C 14.484375 55.25 24.859375 65.484375 38.0625 65.484375 
C 51.28125 65.484375 61.65625 55.25 61.65625 36.359375 
z
" id="Inter-Regular-79"/>
       <path d="M 7.671875 0 
L 16.046875 0 
L 16.046875 34.515625 
C 16.046875 41.90625 21.875 47.296875 29.828125 47.296875 
C 32.0625 47.296875 34.375 46.875 34.9375 46.734375 
L 34.9375 55.25 
C 33.984375 55.328125 31.78125 55.390625 30.546875 55.390625 
C 24 55.390625 18.328125 51.703125 16.34375 46.3125 
L 15.765625 46.3125 
L 15.765625 54.546875 
L 7.671875 54.546875 
z
" id="Inter-Regular-114"/>
       <path d="M 8.8125 0 
L 16.90625 0 
L 16.90625 8.375 
L 17.90625 8.375 
C 19.75 5.390625 23.296875 -1.140625 33.8125 -1.140625 
C 47.4375 -1.140625 56.96875 9.796875 56.96875 27.125 
C 56.96875 44.3125 47.4375 55.25 33.671875 55.25 
C 23.015625 55.25 19.75 48.71875 17.90625 45.875 
L 17.1875 45.875 
L 17.1875 72.734375 
L 8.8125 72.734375 
z
M 17.046875 27.265625 
C 17.046875 39.484375 22.4375 47.734375 32.671875 47.734375 
C 43.328125 47.734375 48.578125 38.78125 48.578125 27.265625 
C 48.578125 15.625 43.1875 6.390625 32.671875 6.390625 
C 22.59375 6.390625 17.046875 14.921875 17.046875 27.265625 
z
" id="Inter-Regular-98"/>
       <path d="M 11.9375 63.640625 
C 15.203125 63.640625 17.90625 66.1875 17.90625 69.3125 
C 17.90625 72.4375 15.203125 75 11.9375 75 
C 8.671875 75 5.96875 72.4375 5.96875 69.3125 
C 5.96875 66.1875 8.671875 63.640625 11.9375 63.640625 
z
M 7.671875 0 
L 16.046875 0 
L 16.046875 54.546875 
L 7.671875 54.546875 
z
" id="Inter-Regular-105"/>
       <path d="M 31.390625 54.546875 
L 19.75 54.546875 
L 19.75 67.609375 
L 11.359375 67.609375 
L 11.359375 54.546875 
L 3.125 54.546875 
L 3.125 47.4375 
L 11.359375 47.4375 
L 11.359375 13.359375 
C 11.359375 3.828125 19.03125 -0.703125 26.140625 -0.703125 
C 29.265625 -0.703125 31.25 -0.140625 32.390625 0.28125 
L 30.6875 7.8125 
C 29.96875 7.671875 28.84375 7.390625 26.984375 7.390625 
C 23.296875 7.390625 19.75 8.515625 19.75 15.625 
L 19.75 47.4375 
L 31.390625 47.4375 
z
" id="Inter-Regular-116"/>
       <path id="Inter-Regular-32"/>
       <path d="M 8.8125 0 
L 17.609375 0 
L 17.609375 26.5625 
L 33.53125 26.5625 
C 50.46875 26.5625 58.09375 36.859375 58.09375 49.71875 
C 58.09375 62.578125 50.46875 72.734375 33.375 72.734375 
L 8.8125 72.734375 
z
M 33.09375 64.921875 
C 44.921875 64.921875 49.4375 58.453125 49.4375 49.71875 
C 49.4375 40.984375 44.921875 34.375 33.234375 34.375 
L 17.609375 34.375 
L 17.609375 64.921875 
z
" id="Inter-Regular-80"/>
       <path d="M 29.828125 -1.140625 
C 44.609375 -1.140625 54.546875 10.078125 54.546875 26.984375 
C 54.546875 44.03125 44.609375 55.25 29.828125 55.25 
C 15.0625 55.25 5.109375 44.03125 5.109375 26.984375 
C 5.109375 10.078125 15.0625 -1.140625 29.828125 -1.140625 
z
M 29.828125 6.390625 
C 18.609375 6.390625 13.5 16.046875 13.5 26.984375 
C 13.5 37.921875 18.609375 47.734375 29.828125 47.734375 
C 41.046875 47.734375 46.171875 37.921875 46.171875 26.984375 
C 46.171875 16.046875 41.046875 6.390625 29.828125 6.390625 
z
" id="Inter-Regular-111"/>
       <path d="M 46.3125 42.328125 
C 43.6875 50.078125 37.78125 55.25 26.984375 55.25 
C 15.484375 55.25 6.96875 48.71875 6.96875 39.484375 
C 6.96875 31.953125 11.4375 26.921875 21.453125 24.578125 
L 30.546875 22.4375 
C 36.046875 21.171875 38.640625 18.53125 38.640625 14.765625 
C 38.640625 10.078125 33.671875 6.25 25.859375 6.25 
C 19 6.25 14.703125 9.203125 13.21875 15.0625 
L 5.25 13.0625 
C 7.203125 3.796875 14.84375 -1.140625 26 -1.140625 
C 38.671875 -1.140625 47.296875 5.78125 47.296875 15.203125 
C 47.296875 22.796875 42.546875 27.59375 32.8125 29.96875 
L 24.71875 31.953125 
C 18.25 33.5625 15.34375 35.71875 15.34375 39.921875 
C 15.34375 44.609375 20.3125 48.015625 26.984375 48.015625 
C 34.3125 48.015625 37.328125 43.96875 38.78125 40.203125 
z
" id="Inter-Regular-115"/>
       <path d="M 16.046875 32.8125 
C 16.046875 42.328125 21.953125 47.734375 29.96875 47.734375 
C 37.75 47.734375 42.46875 42.65625 42.46875 34.09375 
L 42.46875 0 
L 50.859375 0 
L 50.859375 34.65625 
C 50.859375 48.578125 43.4375 55.25 32.390625 55.25 
C 24.15625 55.25 19.03125 51.5625 16.484375 46.015625 
L 15.765625 46.015625 
L 15.765625 54.546875 
L 7.671875 54.546875 
L 7.671875 0 
L 16.046875 0 
z
" id="Inter-Regular-110"/>
       <path d="M 50 53.078125 
L 48.296875 44.578125 
Q 44.734375 46.53125 40.765625 47.5 
Q 36.8125 48.484375 32.625 48.484375 
Q 25.53125 48.484375 21.453125 46.0625 
Q 17.390625 43.65625 17.390625 39.5 
Q 17.390625 34.671875 26.859375 32.078125 
Q 27.59375 31.890625 27.9375 31.78125 
L 30.8125 30.90625 
Q 39.796875 28.421875 42.796875 25.6875 
Q 45.796875 22.953125 45.796875 18.21875 
Q 45.796875 9.515625 38.890625 4.046875 
Q 31.984375 -1.421875 20.796875 -1.421875 
Q 16.453125 -1.421875 11.671875 -0.578125 
Q 6.890625 0.25 1.125 2 
L 2.875 11.28125 
Q 7.8125 8.734375 12.59375 7.421875 
Q 17.390625 6.109375 21.78125 6.109375 
Q 28.375 6.109375 32.5 8.9375 
Q 36.625 11.765625 36.625 16.109375 
Q 36.625 20.796875 25.78125 23.6875 
L 24.859375 23.921875 
L 21.78125 24.703125 
Q 14.9375 26.515625 11.765625 29.46875 
Q 8.59375 32.421875 8.59375 37.015625 
Q 8.59375 45.75 15.15625 50.875 
Q 21.734375 56 33.015625 56 
Q 37.453125 56 41.671875 55.265625 
Q 45.90625 54.546875 50 53.078125 
z
" id="DejaVuSans-Oblique-115"/>
       <path d="M 33.375 76.140625 
L 25.71875 76.140625 
L 2.28125 -10.9375 
L 9.9375 -10.9375 
z
" id="Inter-Regular-47"/>
       <path d="M 7.671875 0 
L 16.046875 0 
L 16.046875 34.09375 
C 16.046875 42.078125 21.875 47.734375 28.40625 47.734375 
C 34.765625 47.734375 39.203125 43.578125 39.203125 37.359375 
L 39.203125 0 
L 47.734375 0 
L 47.734375 35.515625 
C 47.734375 42.546875 52.125 47.734375 59.796875 47.734375 
C 65.765625 47.734375 70.875 44.5625 70.875 36.5 
L 70.875 0 
L 79.265625 0 
L 79.265625 36.5 
C 79.265625 49.328125 72.375 55.25 62.640625 55.25 
C 54.828125 55.25 49.109375 51.671875 46.3125 46.015625 
L 45.734375 46.015625 
C 43.046875 51.84375 38.28125 55.25 31.109375 55.25 
C 24 55.25 18.75 51.84375 16.484375 46.015625 
L 15.765625 46.015625 
L 15.765625 54.546875 
L 7.671875 54.546875 
z
" id="Inter-Regular-109"/>
      </defs>
      <use transform="translate(0 0.859375)" xlink:href="#Inter-Regular-79"/>
      <use transform="translate(76.136383 0.859375)" xlink:href="#Inter-Regular-114"/>
      <use transform="translate(113.352295 0.859375)" xlink:href="#Inter-Regular-98"/>
      <use transform="translate(175.426178 0.859375)" xlink:href="#Inter-Regular-105"/>
      <use transform="translate(199.147766 0.859375)" xlink:href="#Inter-Regular-116"/>
      <use transform="translate(235.511414 0.859375)" xlink:href="#Inter-Regular-32"/>
      <use transform="translate(263.636414 0.859375)" xlink:href="#Inter-Regular-80"/>
      <use transform="translate(327.130737 0.859375)" xlink:href="#Inter-Regular-111"/>
      <use transform="translate(386.789841 0.859375)" xlink:href="#Inter-Regular-115"/>
      <use transform="translate(439.062576 0.859375)" xlink:href="#Inter-Regular-105"/>
      <use transform="translate(462.784164 0.859375)" xlink:href="#Inter-Regular-116"/>
      <use transform="translate(499.147812 0.859375)" xlink:href="#Inter-Regular-105"/>
      <use transform="translate(522.8694 0.859375)" xlink:href="#Inter-Regular-111"/>
      <use transform="translate(582.528503 0.859375)" xlink:href="#Inter-Regular-110"/>
      <use transform="translate(641.051239 0.859375)" xlink:href="#Inter-Regular-32"/>
      <use transform="translate(669.176239 0.859375)" xlink:href="#DejaVuSans-Oblique-115"/>
      <use transform="translate(721.275848 0.859375)" xlink:href="#Inter-Regular-32"/>
      <use transform="translate(749.400848 0.859375)" xlink:href="#Inter-Regular-47"/>
      <use transform="translate(785.05426 0.859375)" xlink:href="#Inter-Regular-32"/>
      <use transform="translate(813.17926 0.859375)" xlink:href="#Inter-Regular-109"/>
     </g>
    </g>
   </g>
   <g id="matplotlib.axis_2">
    <g id="ytick_1">
     <g id="line2d_9">
      <path clip-path="url(#p53fca2f5af)" d="M 37.78 272.60806 
L 552.15 272.60806 
" style="fill:none;stroke:#e5e7eb;stroke-dasharray:3.7,1.6;stroke-dashoffset:0;"/>
     </g>
     <g id="line2d_10">
      <defs>
       <path d="M 0 0 
L -3.5 0 
" id="mcc3b8b6715" style="stroke:#000000;stroke-width:0.8;"/>
      </defs>
      <g>
       <use style="stroke:#000000;stroke-width:0.8;" x="37.78" xlink:href="#mcc3b8b6715" y="272.60806"/>
      </g>
     </g>
     <g id="text_6">
      <!-- 0.0 -->
      <g transform="translate(15.52375 276.244778)scale(0.1 -0.1)">
       <use xlink:href="#Inter-Regular-48"/>
       <use x="62.500015" xlink:href="#Inter-Regular-46"/>
       <use x="90.056839" xlink:href="#Inter-Regular-48"/>
      </g>
     </g>
    </g>
    <g id="ytick_2">
     <g id="line2d_11">
      <path clip-path="url(#p53fca2f5af)" d="M 37.78 241.461668 
L 552.15 241.461668 
" style="fill:none;stroke:#e5e7eb;stroke-dasharray:3.7,1.6;stroke-dashoffset:0;"/>
     </g>
     <g id="line2d_12">
      <g>
       <use style="stroke:#000000;stroke-width:0.8;" x="37.78" xlink:href="#mcc3b8b6715" y="241.461668"/>
      </g>
     </g>
     <g id="text_7">
      <!-- 2.5 -->
      <g transform="translate(15.8925 245.098387)scale(0.1 -0.1)">
       <defs>
        <path d="M 7.53125 0 
L 53.40625 0 
L 53.40625 7.8125 
L 19.609375 7.8125 
L 19.609375 8.375 
L 35.9375 25.859375 
C 48.4375 39.234375 52.125 45.484375 52.125 53.546875 
C 52.125 64.765625 43.046875 73.71875 30.25 73.71875 
C 17.515625 73.71875 7.8125 65.0625 7.8125 52.265625 
L 16.1875 52.265625 
C 16.1875 60.546875 21.5625 66.046875 29.96875 66.046875 
C 37.859375 66.046875 43.890625 61.21875 43.890625 53.546875 
C 43.890625 46.84375 39.953125 41.875 31.53125 32.671875 
L 7.53125 6.390625 
z
" id="Inter-Regular-50"/>
       </defs>
       <use xlink:href="#Inter-Regular-50"/>
       <use x="60.511383" xlink:href="#Inter-Regular-46"/>
       <use x="88.068207" xlink:href="#Inter-Regular-53"/>
      </g>
     </g>
    </g>
    <g id="ytick_3">
     <g id="line2d_13">
      <path clip-path="url(#p53fca2f5af)" d="M 37.78 210.315276 
L 552.15 210.315276 
" style="fill:none;stroke:#e5e7eb;stroke-dasharray:3.7,1.6;stroke-dashoffset:0;"/>
     </g>
     <g id="line2d_14">
      <g>
       <use style="stroke:#000000;stroke-width:0.8;" x="37.78" xlink:href="#mcc3b8b6715" y="210.315276"/>
      </g>
     </g>
     <g id="text_8">
      <!-- 5.0 -->
      <g transform="translate(15.694063 213.951995)scale(0.1 -0.1)">
       <use xlink:href="#Inter-Regular-53"/>
       <use x="60.795471" xlink:href="#Inter-Regular-46"/>
       <use x="88.352295" xlink:href="#Inter-Regular-48"/>
      </g>
     </g>
    </g>
    <g id="ytick_4">
     <g id="line2d_15">
      <path clip-path="url(#p53fca2f5af)" d="M 37.78 179.168885 
L 552.15 179.168885 
" style="fill:none;stroke:#e5e7eb;stroke-dasharray:3.7,1.6;stroke-dashoffset:0;"/>
     </g>
     <g id="line2d_16">
      <g>
       <use style="stroke:#000000;stroke-width:0.8;" x="37.78" xlink:href="#mcc3b8b6715" y="179.168885"/>
      </g>
     </g>
     <g id="text_9">
      <!-- 7.5 -->
      <g transform="translate(16.233125 182.805604)scale(0.1 -0.1)">
       <use xlink:href="#Inter-Regular-55"/>
       <use x="57.10228" xlink:href="#Inter-Regular-46"/>
       <use x="84.659103" xlink:href="#Inter-Regular-53"/>
      </g>
     </g>
    </g>
    <g id="ytick_5">
     <g id="line2d_17">
      <path clip-path="url(#p53fca2f5af)" d="M 37.78 148.022493 
L 552.15 148.022493 
" style="fill:none;stroke:#e5e7eb;stroke-dasharray:3.7,1.6;stroke-dashoffset:0;"/>
     </g>
     <g id="line2d_18">
      <g>
       <use style="stroke:#000000;stroke-width:0.8;" x="37.78" xlink:href="#mcc3b8b6715" y="148.022493"/>
      </g>
     </g>
     <g id="text_10">
      <!-- 10.0 -->
      <g transform="translate(10.878438 151.659212)scale(0.1 -0.1)">
       <use xlink:href="#Inter-Regular-49"/>
       <use x="46.448868" xlink:href="#Inter-Regular-48"/>
       <use x="108.948883" xlink:href="#Inter-Regular-46"/>
       <use x="136.505707" xlink:href="#Inter-Regular-48"/>
      </g>
     </g>
    </g>
    <g id="ytick_6">
     <g id="line2d_19">
      <path clip-path="url(#p53fca2f5af)" d="M 37.78 116.876102 
L 552.15 116.876102 
" style="fill:none;stroke:#e5e7eb;stroke-dasharray:3.7,1.6;stroke-dashoffset:0;"/>
     </g>
     <g id="line2d_20">
      <g>
       <use style="stroke:#000000;stroke-width:0.8;" x="37.78" xlink:href="#mcc3b8b6715" y="116.876102"/>
      </g>
     </g>
     <g id="text_11">
      <!-- 12.5 -->
      <g transform="translate(11.247188 120.51282)scale(0.1 -0.1)">
       <use xlink:href="#Inter-Regular-49"/>
       <use x="46.448868" xlink:href="#Inter-Regular-50"/>
       <use x="106.960251" xlink:href="#Inter-Regular-46"/>
       <use x="134.517075" xlink:href="#Inter-Regular-53"/>
      </g>
     </g>
    </g>
    <g id="ytick_7">
     <g id="line2d_21">
      <path clip-path="url(#p53fca2f5af)" d="M 37.78 85.72971 
L 552.15 85.72971 
" style="fill:none;stroke:#e5e7eb;stroke-dasharray:3.7,1.6;stroke-dashoffset:0;"/>
     </g>
     <g id="line2d_22">
      <g>
       <use style="stroke:#000000;stroke-width:0.8;" x="37.78" xlink:href="#mcc3b8b6715" y="85.72971"/>
      </g>
     </g>
     <g id="text_12">
      <!-- 15.0 -->
      <g transform="translate(11.04875 89.366429)scale(0.1 -0.1)">
       <use xlink:href="#Inter-Regular-49"/>
       <use x="46.448868" xlink:href="#Inter-Regular-53"/>
       <use x="107.244339" xlink:href="#Inter-Regular-46"/>
       <use x="134.801163" xlink:href="#Inter-Regular-48"/>
      </g>
     </g>
    </g>
    <g id="ytick_8">
     <g id="line2d_23">
      <path clip-path="url(#p53fca2f5af)" d="M 37.78 54.583318 
L 552.15 54.583318 
" style="fill:none;stroke:#e5e7eb;stroke-dasharray:3.7,1.6;stroke-dashoffset:0;"/>
     </g>
     <g id="line2d_24">
      <g>
       <use style="stroke:#000000;stroke-width:0.8;" x="37.78" xlink:href="#mcc3b8b6715" y="54.583318"/>
      </g>
     </g>
     <g id="text_13">
      <!-- 17.5 -->
      <g transform="translate(11.587813 58.220037)scale(0.1 -0.1)">
       <use xlink:href="#Inter-Regular-49"/>
       <use x="46.448868" xlink:href="#Inter-Regular-55"/>
       <use x="103.551147" xlink:href="#Inter-Regular-46"/>
       <use x="131.107971" xlink:href="#Inter-Regular-53"/>
      </g>
     </g>
    </g>
   </g>
   <g id="patch_3">
    <path d="M 37.78 301.48 
L 37.78 51.0736 
" style="fill:none;stroke:#000000;stroke-linecap:square;stroke-linejoin:miter;stroke-width:0.8;"/>
   </g>
   <g id="patch_4">
    <path d="M 552.15 301.48 
L 552.15 51.0736 
" style="fill:none;stroke:#000000;stroke-linecap:square;stroke-linejoin:miter;stroke-width:0.8;"/>
   </g>
   <g id="patch_5">
    <path d="M 37.78 301.48 
L 552.15 301.48 
" style="fill:none;stroke:#000000;stroke-linecap:square;stroke-linejoin:miter;stroke-width:0.8;"/>
   </g>
   <g id="patch_6">
    <path d="M 37.78 51.0736 
L 552.15 51.0736 
" style="fill:none;stroke:#000000;stroke-linecap:square;stroke-linejoin:miter;stroke-width:0.8;"/>
   </g>
   <g id="legend_1">
    <g id="line2d_25">
     <path d="M 46.78 22.95328 
L 66.78 22.95328 
" style="fill:none;stroke:#ef4444;stroke-linecap:square;stroke-width:1.3;"/>
    </g>
    <g id="line2d_26"/>
    <g id="text_14">
     <!-- $\beta_x$ / m -->
     <g transform="translate(74.78 26.45328)scale(0.1 -0.1)">
      <defs>
       <path d="M 13.625 3.375 
L 8.9375 -20.796875 
L -0.09375 -20.796875 
L 14.5 54.34375 
Q 18.84375 76.609375 39.65625 76.609375 
Q 60.75 76.609375 57.171875 57.8125 
Q 54.734375 44.4375 45.21875 39.546875 
Q 58.015625 35.15625 55.515625 22.125 
Q 51.125 -1.078125 27.484375 -1.03125 
Q 17.140625 -0.984375 13.625 3.375 
z
M 15.921875 15.09375 
Q 19.671875 6.59375 29.296875 6.640625 
Q 43.359375 6.640625 46.34375 21.96875 
Q 49.03125 35.75 26.171875 34.671875 
L 27.78125 42.96875 
Q 45.453125 42.671875 48.53125 58.59375 
Q 50.640625 69.34375 39.203125 69.28125 
Q 26.421875 69.28125 23.484375 54.046875 
z
" id="DejaVuSans-Oblique-946"/>
       <path d="M 60.015625 54.6875 
L 34.90625 27.875 
L 50.296875 0 
L 39.984375 0 
L 28.421875 21.6875 
L 8.296875 0 
L -2.59375 0 
L 24.3125 28.8125 
L 10.015625 54.6875 
L 20.3125 54.6875 
L 30.8125 34.90625 
L 49.125 54.6875 
z
" id="DejaVuSans-Oblique-120"/>
      </defs>
      <use transform="translate(0 0.390625)" xlink:href="#DejaVuSans-Oblique-946"/>
      <use transform="translate(63.818359 -16.015625)scale(0.7)" xlink:href="#DejaVuSans-Oblique-120"/>
      <use transform="translate(107.978516 0.390625)" xlink:href="#Inter-Regular-32"/>
      <use transform="translate(136.103516 0.390625)" xlink:href="#Inter-Regular-47"/>
      <use transform="translate(171.756927 0.390625)" xlink:href="#Inter-Regular-32"/>
      <use transform="translate(199.881927 0.390625)" xlink:href="#Inter-Regular-109"/>
     </g>
    </g>
    <g id="line2d_27">
     <path d="M 256.665 22.95328 
L 276.665 22.95328 
" style="fill:none;stroke:#3b82f6;stroke-linecap:square;stroke-width:1.3;"/>
    </g>
    <g id="line2d_28"/>
    <g id="text_15">
     <!-- $\beta_y$ / m -->
     <g transform="translate(284.665 26.45328)scale(0.1 -0.1)">
      <defs>
       <path d="M 24.8125 -5.078125 
Q 18.5625 -15.578125 14.625 -18.1875 
Q 10.6875 -20.796875 4.59375 -20.796875 
L -2.484375 -20.796875 
L -0.984375 -13.28125 
L 4.203125 -13.28125 
Q 7.953125 -13.28125 10.59375 -11.234375 
Q 13.234375 -9.1875 16.5 -3.21875 
L 19.28125 2 
L 7.171875 54.6875 
L 16.703125 54.6875 
L 25.78125 12.796875 
L 50.875 54.6875 
L 60.296875 54.6875 
z
" id="DejaVuSans-Oblique-121"/>
      </defs>
      <use transform="translate(0 0.390625)" xlink:href="#DejaVuSans-Oblique-946"/>
      <use transform="translate(63.818359 -16.015625)scale(0.7)" xlink:href="#DejaVuSans-Oblique-121"/>
      <use transform="translate(107.978516 0.390625)" xlink:href="#Inter-Regular-32"/>
      <use transform="translate(136.103516 0.390625)" xlink:href="#Inter-Regular-47"/>
      <use transform="translate(171.756927 0.390625)" xlink:href="#Inter-Regular-32"/>
      <use transform="translate(199.881927 0.390625)" xlink:href="#Inter-Regular-109"/>
     </g>
    </g>
    <g id="line2d_29">
     <path d="M 466.55 22.95328 
L 486.55 22.95328 
" style="fill:none;stroke:#10b981;stroke-linecap:square;stroke-width:1.3;"/>
    </g>
    <g id="line2d_30"/>
    <g id="text_16">
     <!-- 100 $\eta_x$ / m -->
     <g transform="translate(494.55 26.45328)scale(0.1 -0.1)">
      <defs>
       <path d="M 57.859375 33.015625 
L 47.40625 -20.796875 
L 38.421875 -20.796875 
L 48.828125 32.71875 
Q 50.34375 40.484375 48.046875 44.34375 
Q 45.796875 48.1875 39.75 48.1875 
Q 32.46875 48.1875 27.34375 43.5625 
Q 22.265625 38.921875 20.703125 30.90625 
L 14.703125 0 
L 5.671875 0 
L 16.3125 54.6875 
L 25.34375 54.6875 
L 23.6875 46.1875 
Q 27.828125 51.125 32.71875 53.5625 
Q 37.546875 56 43.265625 56 
Q 52.6875 56 56.390625 50.203125 
Q 60.0625 44.34375 57.859375 33.015625 
z
" id="DejaVuSans-Oblique-951"/>
      </defs>
      <use transform="translate(0 0.859375)" xlink:href="#Inter-Regular-49"/>
      <use transform="translate(46.448868 0.859375)" xlink:href="#Inter-Regular-48"/>
      <use transform="translate(108.948883 0.859375)" xlink:href="#Inter-Regular-48"/>
      <use transform="translate(171.448898 0.859375)" xlink:href="#Inter-Regular-32"/>
      <use transform="translate(199.573898 0.859375)" xlink:href="#DejaVuSans-Oblique-951"/>
      <use transform="translate(262.952805 -15.546875)scale(0.7)" xlink:href="#DejaVuSans-Oblique-120"/>
      <use transform="translate(307.112961 0.859375)" xlink:href="#Inter-Regular-32"/>
      <use transform="translate(335.237961 0.859375)" xlink:href="#Inter-Regular-47"/>
      <use transform="translate(370.891373 0.859375)" xlink:href="#Inter-Regular-32"/>
      <use transform="translate(399.016373 0.859375)" xlink:href="#Inter-Regular-109"/>
     </g>
    </g>
   </g>
   <g id="line2d_31">
    <path clip-path="url(#p53fca2f5af)" d="M 37.78 272.740992 
L 145.714427 272.723984 
L 153.401152 272.523957 
L 154.361993 272.19991 
L 155.322833 271.667842 
L 156.283674 270.927769 
L 157.564795 269.617482 
L 158.845915 267.937522 
L 160.447316 265.363559 
L 164.610959 258.223179 
L 166.21236 254.961103 
L 168.134041 250.482522 
L 177.101887 229.349648 
L 178.062727 227.736706 
L 179.023568 226.595219 
L 179.664128 226.102278 
L 180.304689 225.82661 
L 180.945249 225.769504 
L 182.54665 226.146542 
L 191.834776 228.603412 
L 195.678138 230.20555 
L 196.318699 230.745345 
L 197.279539 231.909809 
L 198.24038 233.48913 
L 199.841781 236.808259 
L 209.450187 256.998482 
L 211.371868 260.253853 
L 215.21523 266.333328 
L 216.496351 267.878258 
L 217.777472 269.061919 
L 219.058593 269.884249 
L 220.019433 270.263847 
L 220.980274 270.44016 
L 221.941115 270.412856 
L 222.901955 270.182101 
L 223.862796 269.748064 
L 224.823636 269.110757 
L 226.104757 267.944851 
L 227.385878 266.417674 
L 228.666999 264.529304 
L 233.471202 256.56523 
L 235.072603 253.343747 
L 244.616953 233.37113 
L 245.513737 231.983853 
L 246.410522 230.948325 
L 247.307306 230.273512 
L 248.204091 229.965257 
L 253.008294 229.413378 
L 264.538381 229.497448 
L 268.360391 230.049732 
L 268.958248 230.297433 
L 269.855032 230.97393 
L 270.751817 232.010921 
L 271.648601 233.399426 
L 272.865666 235.803492 
L 283.114633 257.195338 
L 285.036314 260.430324 
L 288.879676 266.472348 
L 290.160797 268.004785 
L 291.441918 269.175946 
L 292.723039 269.98577 
L 293.683879 270.355985 
L 294.64472 270.522912 
L 295.60556 270.486232 
L 296.566401 270.246105 
L 297.527242 269.802693 
L 298.488082 269.156011 
L 299.769203 267.977602 
L 301.050324 266.437919 
L 302.331445 264.537044 
L 307.135648 256.525681 
L 308.737049 253.287098 
L 318.281399 233.210667 
L 319.178183 231.815632 
L 320.074968 230.773802 
L 320.971752 230.094198 
L 321.868537 229.782705 
L 326.67274 229.217693 
L 338.202827 229.270243 
L 342.024837 229.812194 
L 342.622694 230.059176 
L 343.519478 230.736314 
L 344.416263 231.776002 
L 345.313047 233.169239 
L 346.530112 235.582782 
L 356.779078 257.060695 
L 358.70076 260.305179 
L 362.544122 266.363896 
L 363.825243 267.901905 
L 365.106364 269.078643 
L 366.387484 269.89405 
L 367.348325 270.268454 
L 368.309166 270.439574 
L 369.270006 270.407077 
L 370.230847 270.171128 
L 371.191687 269.731898 
L 372.152528 269.089398 
L 373.433649 267.91657 
L 374.71477 266.382471 
L 375.99589 264.487182 
L 380.800093 256.496249 
L 382.401494 253.26336 
L 392.0099 233.113418 
L 392.970741 231.676851 
L 393.931582 230.657516 
L 394.572142 230.215063 
L 396.493823 229.439926 
L 399.696625 228.299618 
L 409.305031 225.990567 
L 409.945592 226.156067 
L 410.586152 226.538589 
L 411.226712 227.136346 
L 412.187553 228.430168 
L 413.148394 230.188158 
L 414.429514 233.12699 
L 424.3582 256.392525 
L 426.279882 260.033534 
L 430.123244 266.456938 
L 431.404365 268.403405 
L 432.685486 269.980267 
L 433.966606 271.187435 
L 435.247727 272.024845 
L 436.208568 272.410218 
L 437.169408 272.587564 
L 440.37221 272.612402 
L 483.930318 272.68265 
L 552.47028 272.741266 
L 552.47028 272.741266 
" style="fill:none;stroke:#10b981;stroke-linecap:square;stroke-width:1.3;"/>
   </g>
   <g id="line2d_32">
    <path clip-path="url(#p53fca2f5af)" d="M 37.78 253.591689 
L 41.623362 253.439959 
L 45.466725 253.053126 
L 49.310087 252.431191 
L 53.15345 251.574154 
L 56.996812 250.482014 
L 60.840174 249.154772 
L 64.683537 247.592428 
L 68.526899 245.794981 
L 72.370262 243.762432 
L 76.533904 241.295197 
L 80.697547 238.552043 
L 84.861189 235.53297 
L 89.024832 232.237979 
L 93.188474 228.667069 
L 97.672397 224.512902 
L 102.15632 220.038734 
L 106.640243 215.244566 
L 111.124166 210.130397 
L 115.928369 204.295828 
L 118.17033 201.525846 
L 118.49061 201.348848 
L 118.81089 201.328931 
L 119.131171 201.466183 
L 119.451451 201.759998 
L 120.092011 202.811431 
L 120.732572 204.464647 
L 123.935374 213.820982 
L 126.817895 221.609268 
L 129.700417 228.798422 
L 130.340978 230.114587 
L 130.981538 231.016117 
L 131.622098 231.519871 
L 132.262659 231.635268 
L 132.903219 231.364467 
L 133.54378 230.702403 
L 134.18434 229.636697 
L 134.8249 228.147419 
L 135.465461 226.206721 
L 136.426301 222.367403 
L 137.387142 217.26675 
L 139.308823 205.052871 
L 142.191345 186.338192 
L 143.152186 182.061703 
L 145.394147 174.629597 
L 148.917229 162.470895 
L 152.760592 148.364567 
L 156.603954 133.48424 
L 160.767597 116.412633 
L 163.329838 105.664486 
L 163.650118 104.838903 
L 163.970399 104.391096 
L 164.290679 104.32309 
L 164.610959 104.635193 
L 164.931239 105.325993 
L 165.5718 107.829497 
L 166.21236 111.78839 
L 166.85292 117.131172 
L 171.336843 160.350746 
L 173.578804 179.377297 
L 175.820766 196.62348 
L 176.781606 203.139088 
L 177.742447 208.036832 
L 178.383007 210.45912 
L 179.023568 212.261823 
L 179.664128 213.478696 
L 180.304689 214.132524 
L 180.624969 214.252526 
L 180.945249 214.23555 
L 181.585809 213.858288 
L 187.030573 209.917413 
L 192.475336 205.702269 
L 195.357858 203.282972 
L 195.998418 202.119152 
L 196.638979 200.297634 
L 197.279539 197.785331 
L 197.9201 194.536609 
L 198.88094 188.149735 
L 201.122902 170.084127 
L 203.364863 150.25264 
L 205.927105 125.425783 
L 208.809626 96.474499 
L 209.450187 92.446778 
L 210.090747 89.986805 
L 210.411027 89.35947 
L 210.731308 89.138212 
L 224.183076 88.494055 
L 230.2684 88.660076 
L 231.869801 88.796248 
L 232.190081 89.026944 
L 232.510361 89.664435 
L 232.830641 90.705889 
L 233.471202 93.980423 
L 234.111762 98.792466 
L 235.072603 108.516178 
L 237.634844 134.886339 
L 240.197086 158.934846 
L 242.439047 178.07281 
L 244.318024 192.429407 
L 245.214809 197.439055 
L 246.111594 201.017442 
L 246.70945 202.671217 
L 247.307306 203.770596 
L 247.905163 204.332535 
L 248.524371 204.432521 
L 255.570535 204.706035 
L 262.6167 204.762079 
L 268.061463 204.658038 
L 268.360391 204.583136 
L 268.958248 204.03783 
L 269.556104 202.957332 
L 270.153961 201.324976 
L 270.751817 199.115585 
L 271.648601 194.642452 
L 272.545386 188.636624 
L 274.787347 170.665286 
L 277.029309 150.936236 
L 279.59155 126.23645 
L 282.474072 97.431427 
L 283.114633 93.422845 
L 283.755193 90.97346 
L 284.075473 90.348148 
L 284.395753 90.126718 
L 297.847522 89.426971 
L 303.932846 89.564479 
L 305.534247 89.692597 
L 305.854527 89.920687 
L 306.174807 90.553592 
L 306.495087 91.588503 
L 307.135648 94.844201 
L 307.776208 99.630034 
L 308.737049 109.302535 
L 311.29929 135.535282 
L 313.861532 159.459397 
L 316.103493 178.499198 
L 317.98247 192.78259 
L 318.879255 197.765891 
L 319.776039 201.324378 
L 320.373896 202.968118 
L 320.971752 204.059861 
L 321.569609 204.616446 
L 322.188817 204.712892 
L 329.234981 204.948827 
L 336.281146 204.966565 
L 341.725909 204.832424 
L 342.024837 204.756023 
L 342.622694 204.208703 
L 343.22055 203.127476 
L 343.818406 201.495666 
L 344.416263 199.288103 
L 345.313047 194.820186 
L 346.209832 188.822709 
L 348.451793 170.876982 
L 350.693755 151.17474 
L 353.255996 126.507054 
L 356.138518 97.736981 
L 356.779078 93.731612 
L 357.419639 91.282683 
L 357.739919 90.656561 
L 358.060199 90.433632 
L 371.511968 89.655807 
L 377.597291 89.7571 
L 379.198692 89.875572 
L 379.518973 90.101531 
L 379.839253 90.731909 
L 380.159533 91.763908 
L 380.800093 95.012678 
L 381.440654 99.790219 
L 382.401494 109.448211 
L 384.963736 135.643568 
L 387.525978 159.534889 
L 389.767939 178.549765 
L 391.36934 190.958406 
L 392.330181 196.705551 
L 392.970741 199.573402 
L 393.611301 201.733163 
L 394.251862 203.224064 
L 394.892422 204.073187 
L 400.337186 208.475782 
L 405.781949 212.600881 
L 408.984751 214.828237 
L 409.305031 214.850107 
L 409.625311 214.736395 
L 410.265872 214.099459 
L 410.906432 212.905502 
L 411.546993 211.132169 
L 412.187553 208.746255 
L 412.828113 205.703086 
L 413.788954 199.77771 
L 416.030915 183.016528 
L 418.272877 164.502209 
L 420.514838 144.234754 
L 424.03792 111.706643 
L 424.678481 108.518822 
L 425.319041 106.793513 
L 425.639321 106.490089 
L 425.959601 106.561877 
L 426.279882 107.008553 
L 426.600162 107.828097 
L 427.561002 111.7482 
L 432.044925 130.272147 
L 435.888288 145.291294 
L 440.05193 160.653656 
L 443.895293 173.958928 
L 447.098095 184.698478 
L 448.058935 189.36005 
L 449.019776 195.226456 
L 451.902298 214.287017 
L 453.183418 221.665374 
L 454.144259 225.846383 
L 455.1051 228.897395 
L 455.74566 230.368928 
L 456.38622 231.423786 
L 457.026781 232.081695 
L 457.667341 232.354957 
L 458.307902 232.248682 
L 458.948462 231.760883 
L 459.589022 230.882439 
L 460.229583 229.596922 
L 463.112105 222.570276 
L 465.994626 214.958041 
L 470.158269 203.610516 
L 470.798829 202.887767 
L 471.11911 202.755898 
L 471.43939 202.778037 
L 471.75967 202.954085 
L 472.720511 204.09063 
L 477.524714 209.937711 
L 482.328917 215.417445 
L 486.812839 220.200434 
L 491.296762 224.663423 
L 495.780685 228.806411 
L 499.944328 232.36694 
L 504.10797 235.651551 
L 508.271613 238.660242 
L 512.435255 241.393015 
L 516.598898 243.849869 
L 520.44226 245.872836 
L 524.285623 247.660701 
L 528.128985 249.213463 
L 531.972347 250.531123 
L 535.81571 251.613681 
L 539.659072 252.461136 
L 543.502435 253.073488 
L 547.345797 253.450739 
L 551.189159 253.592887 
L 552.47028 253.588024 
L 552.47028 253.588024 
" style="fill:none;stroke:#3b82f6;stroke-linecap:square;stroke-width:1.3;"/>
   </g>
   <g id="patch_7">
    <path d="M 117.85005 56.594023 
L 120.732572 56.594023 
L 120.732572 45.553177 
L 117.85005 45.553177 
z
" style="fill:#ef4444;"/>
   </g>
   <g id="patch_8">
    <path d="M 123.935374 56.594023 
L 126.497615 56.594023 
L 126.497615 45.553177 
L 123.935374 45.553177 
z
" style="fill:#10b981;"/>
   </g>
   <g id="patch_9">
    <path d="M 129.700417 56.594023 
L 137.387142 56.594023 
L 137.387142 45.553177 
L 129.700417 45.553177 
z
" style="fill:#ef4444;"/>
   </g>
   <g id="patch_10">
    <path d="M 140.589944 56.594023 
L 143.472466 56.594023 
L 143.472466 45.553177 
L 140.589944 45.553177 
z
" style="fill:#ef4444;"/>
   </g>
   <g id="patch_11">
    <path d="M 146.675268 56.594023 
L 149.237509 56.594023 
L 149.237509 45.553177 
L 146.675268 45.553177 
z
" style="fill:#10b981;"/>
   </g>
   <g id="patch_12">
    <path d="M 152.440311 56.594023 
L 159.806756 56.594023 
L 159.806756 45.553177 
L 152.440311 45.553177 
z
" style="fill:#fbbf24;"/>
   </g>
   <g id="patch_13">
    <path d="M 163.009558 56.594023 
L 167.1732 56.594023 
L 167.1732 45.553177 
L 163.009558 45.553177 
z
" style="fill:#ef4444;"/>
   </g>
   <g id="patch_14">
    <path d="M 170.376002 56.594023 
L 172.938244 56.594023 
L 172.938244 45.553177 
L 170.376002 45.553177 
z
" style="fill:#10b981;"/>
   </g>
   <g id="patch_15">
    <path d="M 176.141046 56.594023 
L 181.265529 56.594023 
L 181.265529 45.553177 
L 176.141046 45.553177 
z
" style="fill:#ef4444;"/>
   </g>
   <g id="patch_16">
    <path d="M 184.468331 56.594023 
L 187.030573 56.594023 
L 187.030573 45.553177 
L 184.468331 45.553177 
z
" style="fill:#10b981;"/>
   </g>
   <g id="patch_17">
    <path d="M 190.233375 53.833812 
L 191.834776 53.833812 
L 191.834776 42.792965 
L 190.233375 42.792965 
z
" style="fill:#fbbf24;"/>
   </g>
   <g id="patch_18">
    <path d="M 195.037578 56.594023 
L 198.88094 56.594023 
L 198.88094 45.553177 
L 195.037578 45.553177 
z
" style="fill:#ef4444;"/>
   </g>
   <g id="patch_19">
    <path d="M 202.083742 56.594023 
L 204.645984 56.594023 
L 204.645984 45.553177 
L 202.083742 45.553177 
z
" style="fill:#10b981;"/>
   </g>
   <g id="patch_20">
    <path d="M 207.848786 56.594023 
L 210.731308 56.594023 
L 210.731308 45.553177 
L 207.848786 45.553177 
z
" style="fill:#ef4444;"/>
   </g>
   <g id="patch_21">
    <path d="M 213.93411 56.594023 
L 228.666999 56.594023 
L 228.666999 45.553177 
L 213.93411 45.553177 
z
" style="fill:#fbbf24;"/>
   </g>
   <g id="patch_22">
    <path d="M 231.869801 56.594023 
L 234.752323 56.594023 
L 234.752323 45.553177 
L 231.869801 45.553177 
z
" style="fill:#ef4444;"/>
   </g>
   <g id="patch_23">
    <path d="M 237.955125 56.594023 
L 240.517366 56.594023 
L 240.517366 45.553177 
L 237.955125 45.553177 
z
" style="fill:#10b981;"/>
   </g>
   <g id="patch_24">
    <path d="M 243.720168 56.594023 
L 248.204091 56.594023 
L 248.204091 45.553177 
L 243.720168 45.553177 
z
" style="fill:#ef4444;"/>
   </g>
   <g id="patch_25">
    <path d="M 251.406893 53.833812 
L 253.008294 53.833812 
L 253.008294 42.792965 
L 251.406893 42.792965 
z
" style="fill:#fbbf24;"/>
   </g>
   <g id="patch_26">
    <path d="M 256.211096 56.594023 
L 260.054458 56.594023 
L 260.054458 45.553177 
L 256.211096 45.553177 
z
" style="fill:#10b981;"/>
   </g>
   <g id="patch_27">
    <path d="M 263.25726 53.833812 
L 264.858661 53.833812 
L 264.858661 42.792965 
L 263.25726 42.792965 
z
" style="fill:#fbbf24;"/>
   </g>
   <g id="patch_28">
    <path d="M 268.061463 56.594023 
L 272.545386 56.594023 
L 272.545386 45.553177 
L 268.061463 45.553177 
z
" style="fill:#ef4444;"/>
   </g>
   <g id="patch_29">
    <path d="M 275.748188 56.594023 
L 278.31043 56.594023 
L 278.31043 45.553177 
L 275.748188 45.553177 
z
" style="fill:#10b981;"/>
   </g>
   <g id="patch_30">
    <path d="M 281.513232 56.594023 
L 284.395753 56.594023 
L 284.395753 45.553177 
L 281.513232 45.553177 
z
" style="fill:#ef4444;"/>
   </g>
   <g id="patch_31">
    <path d="M 287.598555 56.594023 
L 302.331445 56.594023 
L 302.331445 45.553177 
L 287.598555 45.553177 
z
" style="fill:#fbbf24;"/>
   </g>
   <g id="patch_32">
    <path d="M 305.534247 56.594023 
L 308.416768 56.594023 
L 308.416768 45.553177 
L 305.534247 45.553177 
z
" style="fill:#ef4444;"/>
   </g>
   <g id="patch_33">
    <path d="M 311.61957 56.594023 
L 314.181812 56.594023 
L 314.181812 45.553177 
L 311.61957 45.553177 
z
" style="fill:#10b981;"/>
   </g>
   <g id="patch_34">
    <path d="M 317.384614 56.594023 
L 321.868537 56.594023 
L 321.868537 45.553177 
L 317.384614 45.553177 
z
" style="fill:#ef4444;"/>
   </g>
   <g id="patch_35">
    <path d="M 325.071339 53.833812 
L 326.67274 53.833812 
L 326.67274 42.792965 
L 325.071339 42.792965 
z
" style="fill:#fbbf24;"/>
   </g>
   <g id="patch_36">
    <path d="M 329.875542 56.594023 
L 333.718904 56.594023 
L 333.718904 45.553177 
L 329.875542 45.553177 
z
" style="fill:#10b981;"/>
   </g>
   <g id="patch_37">
    <path d="M 336.921706 53.833812 
L 338.523107 53.833812 
L 338.523107 42.792965 
L 336.921706 42.792965 
z
" style="fill:#fbbf24;"/>
   </g>
   <g id="patch_38">
    <path d="M 341.725909 56.594023 
L 346.209832 56.594023 
L 346.209832 45.553177 
L 341.725909 45.553177 
z
" style="fill:#ef4444;"/>
   </g>
   <g id="patch_39">
    <path d="M 349.412634 56.594023 
L 351.974875 56.594023 
L 351.974875 45.553177 
L 349.412634 45.553177 
z
" style="fill:#10b981;"/>
   </g>
   <g id="patch_40">
    <path d="M 355.177677 56.594023 
L 358.060199 56.594023 
L 358.060199 45.553177 
L 355.177677 45.553177 
z
" style="fill:#ef4444;"/>
   </g>
   <g id="patch_41">
    <path d="M 361.263001 56.594023 
L 375.99589 56.594023 
L 375.99589 45.553177 
L 361.263001 45.553177 
z
" style="fill:#fbbf24;"/>
   </g>
   <g id="patch_42">
    <path d="M 379.198692 56.594023 
L 382.081214 56.594023 
L 382.081214 45.553177 
L 379.198692 45.553177 
z
" style="fill:#ef4444;"/>
   </g>
   <g id="patch_43">
    <path d="M 385.284016 56.594023 
L 387.846258 56.594023 
L 387.846258 45.553177 
L 385.284016 45.553177 
z
" style="fill:#10b981;"/>
   </g>
   <g id="patch_44">
    <path d="M 391.04906 56.594023 
L 394.892422 56.594023 
L 394.892422 45.553177 
L 391.04906 45.553177 
z
" style="fill:#ef4444;"/>
   </g>
   <g id="patch_45">
    <path d="M 398.095224 53.833812 
L 399.696625 53.833812 
L 399.696625 42.792965 
L 398.095224 42.792965 
z
" style="fill:#fbbf24;"/>
   </g>
   <g id="patch_46">
    <path d="M 402.899427 56.594023 
L 405.461669 56.594023 
L 405.461669 45.553177 
L 402.899427 45.553177 
z
" style="fill:#10b981;"/>
   </g>
   <g id="patch_47">
    <path d="M 408.664471 56.594023 
L 413.788954 56.594023 
L 413.788954 45.553177 
L 408.664471 45.553177 
z
" style="fill:#ef4444;"/>
   </g>
   <g id="patch_48">
    <path d="M 416.991756 56.594023 
L 419.553998 56.594023 
L 419.553998 45.553177 
L 416.991756 45.553177 
z
" style="fill:#10b981;"/>
   </g>
   <g id="patch_49">
    <path d="M 422.7568 56.594023 
L 426.920442 56.594023 
L 426.920442 45.553177 
L 422.7568 45.553177 
z
" style="fill:#ef4444;"/>
   </g>
   <g id="patch_50">
    <path d="M 430.123244 56.594023 
L 437.489689 56.594023 
L 437.489689 45.553177 
L 430.123244 45.553177 
z
" style="fill:#fbbf24;"/>
   </g>
   <g id="patch_51">
    <path d="M 440.692491 56.594023 
L 443.254732 56.594023 
L 443.254732 45.553177 
L 440.692491 45.553177 
z
" style="fill:#10b981;"/>
   </g>
   <g id="patch_52">
    <path d="M 446.457534 56.594023 
L 449.340056 56.594023 
L 449.340056 45.553177 
L 446.457534 45.553177 
z
" style="fill:#ef4444;"/>
   </g>
   <g id="patch_53">
    <path d="M 452.542858 56.594023 
L 460.229583 56.594023 
L 460.229583 45.553177 
L 452.542858 45.553177 
z
" style="fill:#ef4444;"/>
   </g>
   <g id="patch_54">
    <path d="M 463.432385 56.594023 
L 465.994626 56.594023 
L 465.994626 45.553177 
L 463.432385 45.553177 
z
" style="fill:#10b981;"/>
   </g>
   <g id="patch_55">
    <path d="M 469.197428 56.594023 
L 472.07995 56.594023 
L 472.07995 45.553177 
L 469.197428 45.553177 
z
" style="fill:#ef4444;"/>
   </g>
   <g id="line2d_33">
    <path clip-path="url(#p53fca2f5af)" d="M 37.78 251.040558 
L 41.623362 250.952439 
L 45.466725 250.657048 
L 49.310087 250.154386 
L 53.47373 249.375935 
L 57.637372 248.354227 
L 61.801015 247.089264 
L 65.964658 245.581044 
L 70.1283 243.829567 
L 74.291943 241.834835 
L 78.455585 239.596846 
L 82.619228 237.115601 
L 87.103151 234.171447 
L 91.587073 230.945174 
L 96.070996 227.43678 
L 100.554919 223.646267 
L 105.038842 219.573635 
L 109.843045 214.897033 
L 114.647248 209.89657 
L 118.17033 205.950186 
L 118.81089 204.632223 
L 119.451451 202.690573 
L 120.092011 200.090822 
L 121.052852 194.938332 
L 123.615093 179.333791 
L 126.177335 162.278474 
L 128.739577 143.772382 
L 130.340978 132.119304 
L 130.981538 129.039422 
L 131.622098 127.276335 
L 131.942379 126.89984 
L 132.262659 126.862911 
L 132.582939 127.165721 
L 132.903219 127.806857 
L 133.54378 130.090576 
L 134.18434 133.671496 
L 134.8249 138.482863 
L 135.785741 147.804931 
L 136.746582 159.298467 
L 139.949384 200.688832 
L 141.230504 214.538388 
L 142.511625 225.575065 
L 143.792746 234.232337 
L 145.394147 243.43682 
L 146.995548 251.357953 
L 148.276669 256.770847 
L 149.55779 261.362397 
L 150.83891 265.132603 
L 151.799751 267.42125 
L 152.760592 269.247616 
L 153.721432 270.611792 
L 154.682273 271.514387 
L 155.322833 271.859625 
L 155.963394 271.999647 
L 156.603954 271.934443 
L 157.244514 271.664018 
L 157.885075 271.188387 
L 158.845915 270.090239 
L 159.806756 268.530575 
L 160.767597 266.50824 
L 161.728437 264.023899 
L 163.009558 259.992768 
L 163.970399 256.2782 
L 164.931239 251.690801 
L 165.89208 246.043245 
L 166.85292 239.104914 
L 168.134041 227.773703 
L 169.735442 211.208895 
L 171.336843 192.03048 
L 172.938244 170.238457 
L 174.859925 140.638068 
L 177.742447 94.190774 
L 178.703288 83.671981 
L 179.343848 78.726733 
L 179.984408 75.54759 
L 180.304689 74.640175 
L 180.624969 74.193895 
L 180.945249 74.210834 
L 181.265529 74.690914 
L 187.350853 87.942603 
L 193.436177 100.676521 
L 195.357858 104.780825 
L 195.998418 107.58499 
L 196.638979 111.844698 
L 197.279539 117.482807 
L 198.24038 128.294739 
L 203.044583 189.453246 
L 204.966264 209.378226 
L 206.567665 223.8892 
L 208.169066 236.456318 
L 209.129907 242.571988 
L 210.090747 247.567406 
L 211.371868 252.91736 
L 212.973269 258.570489 
L 214.25439 262.372339 
L 215.535511 265.534186 
L 216.816631 268.055752 
L 217.777472 269.526417 
L 218.738313 270.636447 
L 219.699153 271.385712 
L 220.659994 271.774122 
L 221.300554 271.832563 
L 221.941115 271.730361 
L 222.581675 271.467755 
L 223.542516 270.773117 
L 224.503356 269.717683 
L 225.464197 268.301577 
L 226.425037 266.524966 
L 227.706158 263.595738 
L 228.987279 260.024737 
L 230.2684 255.806536 
L 231.869801 249.629783 
L 232.830641 245.183885 
L 233.791482 239.736171 
L 234.752323 233.068183 
L 236.353724 219.835158 
L 237.955125 204.678344 
L 239.556526 187.597741 
L 241.478207 164.561615 
L 243.399888 138.755232 
L 244.616953 122.249596 
L 245.513737 112.517183 
L 246.410522 105.323947 
L 247.008378 102.065764 
L 247.606235 100.098706 
L 247.905163 99.609597 
L 248.204091 99.453036 
L 259.413898 99.718789 
L 268.360391 99.939357 
L 268.65932 100.437146 
L 269.257176 102.419474 
L 269.855032 105.689951 
L 270.452889 110.198261 
L 271.349673 119.124994 
L 272.246458 130.368078 
L 274.787347 164.922334 
L 276.709029 187.936248 
L 278.63071 208.175118 
L 280.232111 222.921018 
L 281.833512 235.69798 
L 282.794352 241.916932 
L 283.755193 246.996607 
L 285.036314 252.437255 
L 286.637715 258.192571 
L 287.918836 262.069688 
L 289.199956 265.301058 
L 290.481077 267.886397 
L 291.441918 269.401112 
L 292.402758 270.551945 
L 293.363599 271.338762 
L 294.32444 271.761469 
L 294.965 271.840964 
L 295.60556 271.758372 
L 296.246121 271.51393 
L 297.206961 270.843829 
L 298.167802 269.809675 
L 299.128643 268.411592 
L 300.089483 266.649743 
L 301.370604 263.735123 
L 302.651725 260.172952 
L 303.932846 255.957856 
L 305.534247 249.776852 
L 306.495087 245.325499 
L 307.455928 239.871796 
L 308.416768 233.197044 
L 310.018169 219.946932 
L 311.61957 204.762982 
L 313.220971 187.645195 
L 315.142653 164.551184 
L 317.064334 138.672448 
L 318.281399 122.114561 
L 319.178183 112.343224 
L 320.074968 105.11227 
L 320.672824 101.83026 
L 321.27068 99.840859 
L 321.569609 99.341243 
L 321.868537 99.174673 
L 333.078344 99.075292 
L 342.024837 99.00589 
L 342.323765 99.496679 
L 342.622694 100.319288 
L 343.22055 102.946034 
L 343.818406 106.845716 
L 344.715191 114.945626 
L 345.611976 125.490349 
L 350.053194 183.641225 
L 351.974875 204.441276 
L 353.576276 219.651149 
L 355.177677 232.930566 
L 356.138518 239.621977 
L 357.099359 245.088886 
L 358.060199 249.550522 
L 359.6616 255.749273 
L 361.263001 260.940151 
L 362.544122 264.367672 
L 363.825243 267.150671 
L 364.786083 268.814595 
L 365.746924 270.115447 
L 366.707765 271.053072 
L 367.668605 271.62736 
L 368.309166 271.808328 
L 368.949726 271.827657 
L 369.590286 271.685349 
L 370.230847 271.38153 
L 371.191687 270.623003 
L 372.152528 269.501202 
L 373.113369 268.016261 
L 374.074209 266.168355 
L 375.35533 263.140252 
L 376.636451 259.464069 
L 377.917572 255.137608 
L 379.198692 250.16386 
L 380.159533 245.756631 
L 381.120374 240.357338 
L 382.081214 233.749465 
L 383.682615 220.628257 
L 385.284016 205.584489 
L 386.885417 188.61816 
L 388.807098 165.720785 
L 390.72878 140.054923 
L 392.0099 122.894807 
L 392.970741 112.89263 
L 393.611301 107.880929 
L 394.251862 104.303828 
L 394.892422 102.226105 
L 400.977746 89.489607 
L 407.06307 76.230614 
L 408.984751 72.169118 
L 409.305031 72.15158 
L 409.625311 72.602033 
L 409.945592 73.518374 
L 410.586152 76.729435 
L 411.226712 81.724825 
L 411.867273 88.4113 
L 412.828113 101.330706 
L 414.109234 122.896348 
L 416.030915 154.701742 
L 417.952597 182.705331 
L 419.553998 203.137498 
L 421.155399 220.929523 
L 422.7568 236.081405 
L 423.71764 243.587167 
L 424.678481 249.699965 
L 425.639321 254.669416 
L 426.600162 258.698446 
L 427.881283 262.995333 
L 429.162403 266.447514 
L 430.123244 268.492331 
L 431.084085 270.069922 
L 432.044925 271.181448 
L 432.685486 271.663472 
L 433.326046 271.938267 
L 433.966606 272.005819 
L 434.607167 271.866124 
L 435.247727 271.51919 
L 435.888288 270.965035 
L 436.849128 269.745336 
L 437.809969 268.059263 
L 438.770809 265.906147 
L 439.73165 263.286472 
L 441.012771 259.067817 
L 442.293892 254.019725 
L 443.575012 248.142198 
L 445.176413 239.628894 
L 446.777814 229.780826 
L 447.738655 222.626608 
L 448.699496 214.019948 
L 449.980616 200.040843 
L 451.582017 180.103977 
L 454.144259 146.658963 
L 455.1051 137.247498 
L 455.74566 132.389348 
L 456.38622 128.772943 
L 457.026781 126.465698 
L 457.347061 125.81743 
L 457.667341 125.510625 
L 457.987621 125.546713 
L 458.307902 125.925527 
L 458.628182 126.645299 
L 459.268742 129.092707 
L 459.909303 132.843316 
L 465.674346 174.27988 
L 468.236588 190.391317 
L 469.837989 199.389853 
L 470.478549 202.012833 
L 471.11911 203.97143 
L 471.75967 205.300357 
L 472.720511 206.455879 
L 477.524714 211.66786 
L 482.328917 216.555979 
L 487.13312 221.120237 
L 491.617042 225.088015 
L 496.100965 228.773674 
L 500.584888 232.177213 
L 505.068811 235.298632 
L 509.552733 238.137932 
L 513.716376 240.521812 
L 517.880019 242.662436 
L 522.043661 244.559803 
L 526.207304 246.213915 
L 530.370946 247.62477 
L 534.534589 248.792369 
L 538.698232 249.716711 
L 542.861874 250.397798 
L 546.705237 250.810585 
L 550.548599 251.016101 
L 552.47028 251.041131 
L 552.47028 251.041131 
" style="fill:none;stroke:#ef4444;stroke-linecap:square;stroke-width:1.3;"/>
   </g>
   <g id="text_17">
    <!-- uq3 -->
    <g transform="translate(111.984436 42.163378)scale(0.08 -0.08)">
     <defs>
      <path d="M 42.046875 22.296875 
C 42.046875 12.078125 34.234375 7.390625 27.984375 7.390625 
C 21.03125 7.390625 16.046875 12.5 16.046875 20.453125 
L 16.046875 54.546875 
L 7.671875 54.546875 
L 7.671875 19.890625 
C 7.671875 5.96875 15.0625 -0.703125 25.28125 -0.703125 
C 33.53125 -0.703125 38.921875 3.6875 41.484375 9.234375 
L 42.046875 9.234375 
L 42.046875 0 
L 50.421875 0 
L 50.421875 54.546875 
L 42.046875 54.546875 
z
" id="Inter-Regular-117"/>
      <path d="M 53.265625 -20.453125 
L 53.265625 54.546875 
L 45.171875 54.546875 
L 45.171875 45.875 
L 44.171875 45.875 
C 42.328125 48.71875 39.0625 55.25 28.40625 55.25 
C 14.625 55.25 5.109375 44.3125 5.109375 27.125 
C 5.109375 9.796875 14.625 -1.140625 28.265625 -1.140625 
C 38.78125 -1.140625 42.328125 5.390625 44.171875 8.375 
L 44.890625 8.375 
L 44.890625 -20.453125 
z
M 45.03125 27.265625 
C 45.03125 14.921875 39.484375 6.390625 29.40625 6.390625 
C 18.890625 6.390625 13.5 15.625 13.5 27.265625 
C 13.5 38.78125 18.75 47.734375 29.40625 47.734375 
C 39.625 47.734375 45.03125 39.484375 45.03125 27.265625 
z
" id="Inter-Regular-113"/>
     </defs>
     <use xlink:href="#Inter-Regular-117"/>
     <use x="58.096603" xlink:href="#Inter-Regular-113"/>
     <use x="119.034119" xlink:href="#Inter-Regular-51"/>
    </g>
   </g>
   <g id="text_18">
    <!-- uq2 -->
    <g transform="translate(126.361905 64.245072)scale(0.08 -0.08)">
     <use xlink:href="#Inter-Regular-117"/>
     <use x="58.096603" xlink:href="#Inter-Regular-113"/>
     <use x="119.034119" xlink:href="#Inter-Regular-50"/>
    </g>
   </g>
   <g id="text_19">
    <!-- uq1 -->
    <g transform="translate(135.41183 42.124003)scale(0.08 -0.08)">
     <use xlink:href="#Inter-Regular-117"/>
     <use x="58.096603" xlink:href="#Inter-Regular-113"/>
     <use x="119.034119" xlink:href="#Inter-Regular-49"/>
    </g>
   </g>
   <g id="text_20">
    <!-- mb0 -->
    <g transform="translate(147.662909 64.205697)scale(0.08 -0.08)">
     <use xlink:href="#Inter-Regular-109"/>
     <use x="86.931839" xlink:href="#Inter-Regular-98"/>
     <use x="149.005722" xlink:href="#Inter-Regular-48"/>
    </g>
   </g>
   <g id="text_21">
    <!-- mq1 -->
    <g transform="translate(157.318254 42.124003)scale(0.08 -0.08)">
     <use xlink:href="#Inter-Regular-109"/>
     <use x="86.931839" xlink:href="#Inter-Regular-113"/>
     <use x="147.869354" xlink:href="#Inter-Regular-49"/>
    </g>
   </g>
   <g id="text_22">
    <!-- mq2 -->
    <g transform="translate(170.367663 64.245072)scale(0.08 -0.08)">
     <use xlink:href="#Inter-Regular-109"/>
     <use x="86.931839" xlink:href="#Inter-Regular-113"/>
     <use x="147.869354" xlink:href="#Inter-Regular-50"/>
    </g>
   </g>
   <g id="text_23">
    <!-- b1 -->
    <g transform="translate(186.692825 42.124003)scale(0.08 -0.08)">
     <use xlink:href="#Inter-Regular-98"/>
     <use x="62.073883" xlink:href="#Inter-Regular-49"/>
    </g>
   </g>
   <g id="text_24">
    <!-- q1a -->
    <g transform="translate(190.408009 64.205697)scale(0.08 -0.08)">
     <defs>
      <path d="M 23.71875 -1.28125 
C 33.234375 -1.28125 38.21875 3.828125 39.921875 7.390625 
L 40.34375 7.390625 
L 40.34375 0 
L 48.71875 0 
L 48.71875 35.9375 
C 48.71875 53.265625 35.515625 55.25 28.546875 55.25 
C 20.3125 55.25 10.9375 52.421875 6.671875 42.46875 
L 14.625 39.625 
C 16.484375 43.609375 20.84375 47.875 28.84375 47.875 
C 36.546875 47.875 40.34375 43.78125 40.34375 36.796875 
L 40.34375 36.5 
C 40.34375 32.453125 36.21875 32.8125 26.28125 31.53125 
C 16.15625 30.21875 5.109375 27.984375 5.109375 15.484375 
C 5.109375 4.828125 13.359375 -1.28125 23.71875 -1.28125 
z
M 25 6.25 
C 18.328125 6.25 13.5 9.234375 13.5 15.0625 
C 13.5 21.453125 19.3125 23.4375 25.859375 24.296875 
C 29.40625 24.71875 38.921875 25.703125 40.34375 27.421875 
L 40.34375 19.75 
C 40.34375 12.921875 34.9375 6.25 25 6.25 
z
" id="Inter-Regular-97"/>
     </defs>
     <use xlink:href="#Inter-Regular-113"/>
     <use x="60.937515" xlink:href="#Inter-Regular-49"/>
     <use x="107.386383" xlink:href="#Inter-Regular-97"/>
    </g>
   </g>
   <g id="text_25">
    <!-- q0 -->
    <g transform="translate(204.352547 42.163378)scale(0.08 -0.08)">
     <use xlink:href="#Inter-Regular-113"/>
     <use x="60.937515" xlink:href="#Inter-Regular-48"/>
    </g>
   </g>
   <g id="text_26">
    <!-- b0 -->
    <g transform="translate(216.317429 64.205697)scale(0.08 -0.08)">
     <use xlink:href="#Inter-Regular-98"/>
     <use x="62.073883" xlink:href="#Inter-Regular-48"/>
    </g>
   </g>
   <g id="text_27">
    <!-- q0 -->
    <g transform="translate(228.373562 42.163378)scale(0.08 -0.08)">
     <use xlink:href="#Inter-Regular-113"/>
     <use x="60.937515" xlink:href="#Inter-Regular-48"/>
    </g>
   </g>
   <g id="text_28">
    <!-- q1 -->
    <g transform="translate(241.666505 64.205697)scale(0.08 -0.08)">
     <use xlink:href="#Inter-Regular-113"/>
     <use x="60.937515" xlink:href="#Inter-Regular-49"/>
    </g>
   </g>
   <g id="text_29">
    <!-- b1 -->
    <g transform="translate(247.866343 42.124003)scale(0.08 -0.08)">
     <use xlink:href="#Inter-Regular-98"/>
     <use x="62.073883" xlink:href="#Inter-Regular-49"/>
    </g>
   </g>
   <g id="text_30">
    <!-- b1 -->
    <g transform="translate(259.716711 64.205697)scale(0.08 -0.08)">
     <use xlink:href="#Inter-Regular-98"/>
     <use x="62.073883" xlink:href="#Inter-Regular-49"/>
    </g>
   </g>
   <g id="text_31">
    <!-- q1 -->
    <g transform="translate(266.0078 42.124003)scale(0.08 -0.08)">
     <use xlink:href="#Inter-Regular-113"/>
     <use x="60.937515" xlink:href="#Inter-Regular-49"/>
    </g>
   </g>
   <g id="text_32">
    <!-- q0 -->
    <g transform="translate(278.016993 64.245072)scale(0.08 -0.08)">
     <use xlink:href="#Inter-Regular-113"/>
     <use x="60.937515" xlink:href="#Inter-Regular-48"/>
    </g>
   </g>
   <g id="text_33">
    <!-- b0 -->
    <g transform="translate(289.981875 42.124003)scale(0.08 -0.08)">
     <use xlink:href="#Inter-Regular-98"/>
     <use x="62.073883" xlink:href="#Inter-Regular-48"/>
    </g>
   </g>
   <g id="text_34">
    <!-- q0 -->
    <g transform="translate(302.038007 64.245072)scale(0.08 -0.08)">
     <use xlink:href="#Inter-Regular-113"/>
     <use x="60.937515" xlink:href="#Inter-Regular-48"/>
    </g>
   </g>
   <g id="text_35">
    <!-- q1 -->
    <g transform="translate(315.33095 42.124003)scale(0.08 -0.08)">
     <use xlink:href="#Inter-Regular-113"/>
     <use x="60.937515" xlink:href="#Inter-Regular-49"/>
    </g>
   </g>
   <g id="text_36">
    <!-- b1 -->
    <g transform="translate(321.530789 64.205697)scale(0.08 -0.08)">
     <use xlink:href="#Inter-Regular-98"/>
     <use x="62.073883" xlink:href="#Inter-Regular-49"/>
    </g>
   </g>
   <g id="text_37">
    <!-- b1 -->
    <g transform="translate(333.381157 42.124003)scale(0.08 -0.08)">
     <use xlink:href="#Inter-Regular-98"/>
     <use x="62.073883" xlink:href="#Inter-Regular-49"/>
    </g>
   </g>
   <g id="text_38">
    <!-- q1 -->
    <g transform="translate(339.672245 64.205697)scale(0.08 -0.08)">
     <use xlink:href="#Inter-Regular-113"/>
     <use x="60.937515" xlink:href="#Inter-Regular-49"/>
    </g>
   </g>
   <g id="text_39">
    <!-- q0 -->
    <g transform="translate(351.681438 42.163378)scale(0.08 -0.08)">
     <use xlink:href="#Inter-Regular-113"/>
     <use x="60.937515" xlink:href="#Inter-Regular-48"/>
    </g>
   </g>
   <g id="text_40">
    <!-- b0 -->
    <g transform="translate(363.646321 64.205697)scale(0.08 -0.08)">
     <use xlink:href="#Inter-Regular-98"/>
     <use x="62.073883" xlink:href="#Inter-Regular-48"/>
    </g>
   </g>
   <g id="text_41">
    <!-- q0 -->
    <g transform="translate(375.702453 42.163378)scale(0.08 -0.08)">
     <use xlink:href="#Inter-Regular-113"/>
     <use x="60.937515" xlink:href="#Inter-Regular-48"/>
    </g>
   </g>
   <g id="text_42">
    <!-- q1a -->
    <g transform="translate(386.419491 64.205697)scale(0.08 -0.08)">
     <use xlink:href="#Inter-Regular-113"/>
     <use x="60.937515" xlink:href="#Inter-Regular-49"/>
     <use x="107.386383" xlink:href="#Inter-Regular-97"/>
    </g>
   </g>
   <g id="text_43">
    <!-- b1 -->
    <g transform="translate(394.554675 42.124003)scale(0.08 -0.08)">
     <use xlink:href="#Inter-Regular-98"/>
     <use x="62.073883" xlink:href="#Inter-Regular-49"/>
    </g>
   </g>
   <g id="text_44">
    <!-- mq2 -->
    <g transform="translate(402.891087 64.245072)scale(0.08 -0.08)">
     <use xlink:href="#Inter-Regular-109"/>
     <use x="86.931839" xlink:href="#Inter-Regular-113"/>
     <use x="147.869354" xlink:href="#Inter-Regular-50"/>
    </g>
   </g>
   <g id="text_45">
    <!-- mq1 -->
    <g transform="translate(417.065496 42.124003)scale(0.08 -0.08)">
     <use xlink:href="#Inter-Regular-109"/>
     <use x="86.931839" xlink:href="#Inter-Regular-113"/>
     <use x="147.869354" xlink:href="#Inter-Regular-49"/>
    </g>
   </g>
   <g id="text_46">
    <!-- mb0 -->
    <g transform="translate(425.345841 64.205697)scale(0.08 -0.08)">
     <use xlink:href="#Inter-Regular-109"/>
     <use x="86.931839" xlink:href="#Inter-Regular-98"/>
     <use x="149.005722" xlink:href="#Inter-Regular-48"/>
    </g>
   </g>
   <g id="text_47">
    <!-- uq1 -->
    <g transform="translate(441.27942 42.124003)scale(0.08 -0.08)">
     <use xlink:href="#Inter-Regular-117"/>
     <use x="58.096603" xlink:href="#Inter-Regular-113"/>
     <use x="119.034119" xlink:href="#Inter-Regular-49"/>
    </g>
   </g>
   <g id="text_48">
    <!-- uq2 -->
    <g transform="translate(449.204345 64.245072)scale(0.08 -0.08)">
     <use xlink:href="#Inter-Regular-117"/>
     <use x="58.096603" xlink:href="#Inter-Regular-113"/>
     <use x="119.034119" xlink:href="#Inter-Regular-50"/>
    </g>
   </g>
   <g id="text_49">
    <!-- uq3 -->
    <g transform="translate(463.331814 42.163378)scale(0.08 -0.08)">
     <use xlink:href="#Inter-Regular-117"/>
     <use x="58.096603" xlink:href="#Inter-Regular-113"/>
     <use x="119.034119" xlink:href="#Inter-Regular-51"/>
    </g>
   </g>
   <g id="text_50">
    <g clip-path="url(#p53fca2f5af)">
     <!-- match_reversed -->
     <g style="opacity:0.5;" transform="translate(91.549652 291.728314)scale(0.1 -0.1)">
      <defs>
       <path d="M 3.125 0 
L 11.5 0 
L 17.1875 34.09375 
C 18.46875 42.046875 25.28125 47.734375 31.8125 47.734375 
C 38.21875 47.734375 41.90625 43.609375 40.90625 37.359375 
L 34.65625 0 
L 43.1875 0 
L 49.15625 35.515625 
C 50.28125 42.609375 55.546875 47.734375 63.21875 47.734375 
C 69.171875 47.734375 73.71875 44.609375 72.4375 36.5 
L 66.34375 0 
L 74.71875 0 
L 80.828125 36.5 
C 82.953125 49.296875 76.984375 55.25 67.328125 55.25 
C 59.515625 55.25 53.125 51.703125 49.4375 46.015625 
L 48.859375 46.015625 
C 47.15625 51.84375 42.90625 55.25 35.796875 55.25 
C 28.6875 55.25 22.875 51.84375 19.609375 46.015625 
L 18.890625 46.015625 
L 20.3125 54.546875 
L 12.21875 54.546875 
z
" id="Inter-Italic-109"/>
       <path d="M 19.03125 -1.28125 
C 28.546875 -1.28125 34.375 3.828125 36.65625 7.390625 
L 37.078125 7.390625 
L 35.796875 0 
L 44.171875 0 
L 50.140625 35.9375 
C 52.984375 53.265625 40.203125 55.25 33.234375 55.25 
C 25 55.25 15.0625 52.421875 9.234375 42.46875 
L 16.625 39.625 
C 19.171875 43.609375 24.578125 47.875 32.53125 47.875 
C 40.203125 47.875 43.046875 43.75 41.90625 36.796875 
L 41.90625 36.5 
C 41.1875 32.53125 37.078125 32.8125 26.984375 31.53125 
C 16.625 30.25 5.25 27.984375 3.125 15.484375 
C 1.421875 4.828125 8.671875 -1.28125 19.03125 -1.28125 
z
M 21.453125 6.25 
C 14.78125 6.25 10.515625 9.234375 11.5 15.0625 
C 12.5 21.453125 18.75 23.4375 25.421875 24.296875 
C 28.984375 24.71875 38.640625 25.703125 40.34375 27.421875 
L 39.0625 19.75 
C 37.921875 12.921875 31.390625 6.25 21.453125 6.25 
z
" id="Inter-Italic-97"/>
       <path d="M 35.9375 54.546875 
L 24.25 54.546875 
L 26.421875 67.609375 
L 18.046875 67.609375 
L 15.875 54.546875 
L 7.671875 54.546875 
L 6.53125 47.4375 
L 14.703125 47.4375 
L 9.09375 13.359375 
C 7.53125 3.828125 14.34375 -0.703125 21.453125 -0.703125 
C 24.578125 -0.703125 26.703125 -0.140625 27.984375 0.28125 
L 27.421875 7.8125 
C 26.703125 7.671875 25.5625 7.390625 23.71875 7.390625 
C 20.03125 7.390625 16.625 8.515625 17.75 15.625 
L 23.046875 47.4375 
L 34.796875 47.4375 
z
" id="Inter-Italic-116"/>
       <path d="M 25.140625 -1.140625 
C 37.1875 -1.140625 46.265625 6.25 49.4375 15.90625 
L 41.046875 15.90625 
C 38.453125 9.9375 32.921875 6.390625 26.421875 6.390625 
C 16.4375 6.390625 11.328125 14.625 13.5 27.265625 
C 15.453125 39.625 23.40625 47.734375 33.234375 47.734375 
C 40.59375 47.734375 44.28125 43.1875 44.75 38.203125 
L 53.125 38.203125 
C 53.375 48.4375 45.84375 55.25 34.375 55.25 
C 19.5625 55.25 7.78125 43.609375 5.109375 26.984375 
C 2.375 10.65625 9.765625 -1.140625 25.140625 -1.140625 
z
" id="Inter-Italic-99"/>
       <path d="M 16.90625 32.8125 
C 18.609375 42.328125 25.5625 47.734375 33.8125 47.734375 
C 41.625 47.734375 45.59375 42.75 44.171875 34.09375 
L 38.5 0 
L 46.875 0 
L 52.703125 34.65625 
C 54.96875 48.71875 48.578125 55.25 37.5 55.25 
C 28.84375 55.25 23.296875 51.703125 19.890625 46.015625 
L 19.171875 46.015625 
L 23.578125 72.734375 
L 15.203125 72.734375 
L 3.125 0 
L 11.5 0 
z
" id="Inter-Italic-104"/>
       <path d="M 40.765625 0 
L -4.6875 0 
L -5.96875 -7.8125 
L 39.484375 -7.8125 
z
" id="Inter-Italic-95"/>
       <path d="M 3.125 0 
L 11.5 0 
L 17.1875 34.515625 
C 18.46875 41.90625 25.140625 47.296875 33.09375 47.296875 
C 35.375 47.296875 37.640625 46.875 38.21875 46.734375 
L 39.625 55.25 
C 38.640625 55.390625 36.5 55.390625 35.234375 55.390625 
C 28.6875 55.390625 22.296875 51.703125 19.46875 46.3125 
L 18.890625 46.3125 
L 20.3125 54.546875 
L 12.21875 54.546875 
z
" id="Inter-Italic-114"/>
       <path d="M 25.859375 -1.140625 
C 36.96875 -1.140625 45.921875 4.40625 49.859375 12.640625 
L 42.1875 14.921875 
C 39.09375 9.234375 33.84375 6.390625 27.125 6.390625 
C 16.625 6.390625 11.015625 11.078125 13.03125 24.4375 
L 52.703125 24.4375 
L 53.265625 27.984375 
C 56.71875 48.296875 45.78125 55.25 34.375 55.25 
C 19.640625 55.25 7.84375 43.609375 5.109375 26.84375 
C 2.3125 10.078125 10.125 -1.140625 25.859375 -1.140625 
z
M 33.09375 47.734375 
C 42.21875 47.734375 46.90625 40.90625 45.3125 31.671875 
L 14.203125 31.671875 
C 15.875 39.421875 23.9375 47.734375 33.09375 47.734375 
z
" id="Inter-Italic-101"/>
       <path d="M 56.8125 54.546875 
L 47.375 54.546875 
L 25.078125 11.078125 
L 24.5 11.078125 
L 16.6875 54.546875 
L 7.953125 54.546875 
L 19.03125 0 
L 27.5625 0 
z
" id="Inter-Italic-118"/>
       <path d="M 48.859375 42.328125 
C 47.4375 50.140625 42.46875 55.25 31.671875 55.25 
C 20.171875 55.25 10.515625 48.71875 8.953125 39.484375 
C 7.671875 31.953125 11.359375 26.984375 21.03125 24.578125 
L 29.6875 22.4375 
C 35.09375 21.171875 37.21875 18.609375 36.5 14.765625 
C 35.796875 10.078125 30.109375 6.25 22.296875 6.25 
C 15.484375 6.25 11.65625 9.234375 11.21875 15.0625 
L 2.84375 13.0625 
C 3.265625 3.828125 10.09375 -1.140625 21.3125 -1.140625 
C 33.953125 -1.140625 43.75 5.828125 45.3125 15.203125 
C 46.59375 22.875 42.609375 27.5625 33.234375 29.96875 
L 25.421875 31.953125 
C 19.3125 33.515625 16.765625 35.796875 17.46875 39.921875 
C 18.1875 44.609375 23.71875 48.015625 30.40625 48.015625 
C 37.78125 48.015625 40.0625 44.03125 40.90625 40.203125 
z
" id="Inter-Italic-115"/>
       <path d="M 23.71875 -1.140625 
C 34.203125 -1.140625 38.84375 5.390625 41.1875 8.375 
L 42.1875 8.375 
L 40.765625 0 
L 48.859375 0 
L 60.9375 72.734375 
L 52.5625 72.734375 
L 48.078125 45.875 
L 47.375 45.875 
C 46.03125 48.71875 43.828125 55.25 33.171875 55.25 
C 19.390625 55.25 8.0625 44.3125 5.1875 27.125 
C 2.34375 9.796875 10.046875 -1.140625 23.71875 -1.140625 
z
M 25.78125 6.390625 
C 15.265625 6.390625 11.6875 15.625 13.640625 27.265625 
C 15.515625 38.78125 21.984375 47.734375 32.59375 47.734375 
C 42.859375 47.734375 47.203125 39.484375 45.171875 27.265625 
C 43.109375 14.921875 35.875 6.390625 25.78125 6.390625 
z
" id="Inter-Italic-100"/>
      </defs>
      <use xlink:href="#Inter-Italic-109"/>
      <use x="86.931839" xlink:href="#Inter-Italic-97"/>
      <use x="143.323898" xlink:href="#Inter-Italic-116"/>
      <use x="179.687546" xlink:href="#Inter-Italic-99"/>
      <use x="235.511414" xlink:href="#Inter-Italic-104"/>
      <use x="294.602341" xlink:href="#Inter-Italic-95"/>
      <use x="339.772797" xlink:href="#Inter-Italic-114"/>
      <use x="377.130753" xlink:href="#Inter-Italic-101"/>
      <use x="435.511444" xlink:href="#Inter-Italic-118"/>
      <use x="491.193268" xlink:href="#Inter-Italic-101"/>
      <use x="549.573959" xlink:href="#Inter-Italic-114"/>
      <use x="586.931915" xlink:href="#Inter-Italic-115"/>
      <use x="639.204651" xlink:href="#Inter-Italic-101"/>
      <use x="697.585342" xlink:href="#Inter-Italic-100"/>
     </g>
    </g>
   </g>
   <g id="text_51">
    <g clip-path="url(#p53fca2f5af)">
     <!-- mbacell -->
     <g style="opacity:0.5;" transform="translate(276.612656 291.728314)scale(0.1 -0.1)">
      <defs>
       <path d="M 4.265625 0 
L 12.359375 0 
L 13.78125 8.375 
L 14.78125 8.375 
C 16.1875 5.390625 18.609375 -1.140625 29.125 -1.140625 
C 42.75 -1.140625 54.125 9.796875 56.96875 27.125 
C 59.796875 44.3125 52.125 55.25 38.359375 55.25 
C 27.703125 55.25 23.296875 48.71875 21.03125 45.875 
L 20.3125 45.875 
L 24.71875 72.734375 
L 16.34375 72.734375 
z
M 17.046875 27.265625 
C 19.03125 39.484375 25.859375 47.734375 36.078125 47.734375 
C 46.734375 47.734375 50.421875 38.78125 48.578125 27.265625 
C 46.59375 15.625 39.78125 6.390625 29.265625 6.390625 
C 19.171875 6.390625 15.0625 14.921875 17.046875 27.265625 
z
" id="Inter-Italic-98"/>
       <path d="M 23.578125 72.734375 
L 15.203125 72.734375 
L 3.125 0 
L 11.5 0 
z
" id="Inter-Italic-108"/>
      </defs>
      <use xlink:href="#Inter-Italic-109"/>
      <use x="86.931839" xlink:href="#Inter-Italic-98"/>
      <use x="149.005722" xlink:href="#Inter-Italic-97"/>
      <use x="205.397781" xlink:href="#Inter-Italic-99"/>
      <use x="261.221649" xlink:href="#Inter-Italic-101"/>
      <use x="319.602341" xlink:href="#Inter-Italic-108"/>
      <use x="343.323929" xlink:href="#Inter-Italic-108"/>
     </g>
    </g>
   </g>
   <g id="text_52">
    <g clip-path="url(#p53fca2f5af)">
     <!-- match -->
     <g style="opacity:0.5;" transform="translate(445.659254 291.728314)scale(0.1 -0.1)">
      <use xlink:href="#Inter-Italic-109"/>
      <use x="86.931839" xlink:href="#Inter-Italic-97"/>
      <use x="143.323898" xlink:href="#Inter-Italic-116"/>
      <use x="179.687546" xlink:href="#Inter-Italic-99"/>
      <use x="235.511414" xlink:href="#Inter-Italic-104"/>
     </g>
    </g>
   </g>
  </g>
 </g>
 <defs>
  <clipPath id="p53fca2f5af">
   <rect height="250.4064" width="514.37" x="37.78" y="51.0736"/>
  </clipPath>
 </defs>
</svg>
