<?xml version="1.0" encoding="utf-8" standalone="no"?>
<!DOCTYPE svg PUBLIC "-//W3C//DTD SVG 1.1//EN"
  "http://www.w3.org/Graphics/SVG/1.1/DTD/svg11.dtd">
<!-- Created with matplotlib (https://matplotlib.org/) -->
<svg height="288pt" version="1.1" viewBox="0 0 720 288" width="720pt" xmlns="http://www.w3.org/2000/svg" xmlns:xlink="http://www.w3.org/1999/xlink">
 <metadata>
  <rdf:RDF xmlns:cc="http://creativecommons.org/ns#" xmlns:dc="http://purl.org/dc/elements/1.1/" xmlns:rdf="http://www.w3.org/1999/02/22-rdf-syntax-ns#">
   <cc:Work>
    <dc:type rdf:resource="http://purl.org/dc/dcmitype/StillImage"/>
    <dc:date>2020-12-08T15:37:22.815010</dc:date>
    <dc:format>image/svg+xml</dc:format>
    <dc:creator>
     <cc:Agent>
      <dc:title>Matplotlib v3.3.3, https://matplotlib.org/</dc:title>
     </cc:Agent>
    </dc:creator>
   </cc:Work>
  </rdf:RDF>
 </metadata>
 <defs>
  <style type="text/css">*{stroke-linecap:butt;stroke-linejoin:round;}</style>
 </defs>
 <g id="figure_1">
  <g id="patch_1">
   <path d="M 0 288 
L 720 288 
L 720 0 
L 0 0 
z
" style="fill:#ffffff;"/>
  </g>
  <g id="axes_1">
   <g id="patch_2">
    <path d="M 90 256.32 
L 648 256.32 
L 648 34.56 
L 90 34.56 
z
" style="fill:#ffffff;"/>
   </g>
   <g id="matplotlib.axis_1">
    <g id="xtick_1">
     <g id="line2d_1">
      <path clip-path="url(#pcfeba1364a)" d="M 115.363636 256.32 
L 115.363636 34.56 
" style="fill:none;stroke:#e5e7eb;stroke-dasharray:3.7,1.6;stroke-dashoffset:0;"/>
     </g>
     <g id="line2d_2">
      <defs>
       <path d="M 0 0 
L 0 3.5 
" id="mb09b1023fd" style="stroke:#000000;stroke-width:0.8;"/>
      </defs>
      <g>
       <use style="stroke:#000000;stroke-width:0.8;" x="115.363636" xlink:href="#mb09b1023fd" y="256.32"/>
      </g>
     </g>
     <g id="text_1">
      <!-- −0.020 -->
      <g transform="translate(98.289418 270.593437)scale(0.1 -0.1)">
       <defs>
        <path d="M 55.6875 32.390625 
L 10.234375 32.390625 
L 10.234375 24.4375 
L 55.6875 24.4375 
z
" id="Inter-Regular-8722"/>
        <path d="M 31.25 -1 
C 47.296875 -1 56.53125 12.609375 56.53125 36.359375 
C 56.53125 59.9375 47.15625 73.71875 31.25 73.71875 
C 15.34375 73.71875 5.96875 59.9375 5.96875 36.359375 
C 5.96875 12.609375 15.203125 -1 31.25 -1 
z
M 31.25 6.8125 
C 20.671875 6.8125 14.484375 17.4375 14.484375 36.359375 
C 14.484375 55.25 20.734375 66.046875 31.25 66.046875 
C 41.765625 66.046875 48.015625 55.25 48.015625 36.359375 
C 48.015625 17.4375 41.828125 6.8125 31.25 6.8125 
z
" id="Inter-Regular-48"/>
        <path d="M 13.78125 -0.5625 
C 17.296875 -0.5625 20.171875 2.3125 20.171875 5.828125 
C 20.171875 9.34375 17.296875 12.21875 13.78125 12.21875 
C 10.265625 12.21875 7.390625 9.34375 7.390625 5.828125 
C 7.390625 2.3125 10.265625 -0.5625 13.78125 -0.5625 
z
" id="Inter-Regular-46"/>
        <path d="M 7.53125 0 
L 53.40625 0 
L 53.40625 7.8125 
L 19.609375 7.8125 
L 19.609375 8.375 
L 35.9375 25.859375 
C 48.4375 39.234375 52.125 45.484375 52.125 53.546875 
C 52.125 64.765625 43.046875 73.71875 30.25 73.71875 
C 17.515625 73.71875 7.8125 65.0625 7.8125 52.265625 
L 16.1875 52.265625 
C 16.1875 60.546875 21.5625 66.046875 29.96875 66.046875 
C 37.859375 66.046875 43.890625 61.21875 43.890625 53.546875 
C 43.890625 46.84375 39.953125 41.875 31.53125 32.671875 
L 7.53125 6.390625 
z
" id="Inter-Regular-50"/>
       </defs>
       <use xlink:href="#Inter-Regular-8722"/>
       <use x="65.909103" xlink:href="#Inter-Regular-48"/>
       <use x="128.409119" xlink:href="#Inter-Regular-46"/>
       <use x="155.965942" xlink:href="#Inter-Regular-48"/>
       <use x="218.465958" xlink:href="#Inter-Regular-50"/>
       <use x="278.977341" xlink:href="#Inter-Regular-48"/>
      </g>
     </g>
    </g>
    <g id="xtick_2">
     <g id="line2d_3">
      <path clip-path="url(#pcfeba1364a)" d="M 178.772727 256.32 
L 178.772727 34.56 
" style="fill:none;stroke:#e5e7eb;stroke-dasharray:3.7,1.6;stroke-dashoffset:0;"/>
     </g>
     <g id="line2d_4">
      <g>
       <use style="stroke:#000000;stroke-width:0.8;" x="178.772727" xlink:href="#mb09b1023fd" y="256.32"/>
      </g>
     </g>
     <g id="text_2">
      <!-- −0.015 -->
      <g transform="translate(162.48679 270.593437)scale(0.1 -0.1)">
       <defs>
        <path d="M 33.09375 72.734375 
L 24.296875 72.734375 
L 6.109375 60.65625 
L 6.109375 51.703125 
L 23.859375 63.5 
L 24.296875 63.5 
L 24.296875 0 
L 33.09375 0 
z
" id="Inter-Regular-49"/>
        <path d="M 30.25 -1 
C 44.109375 -1 54.265625 9.234375 54.265625 23.15625 
C 54.265625 37.25 44.46875 47.578125 31.109375 47.578125 
C 26.203125 47.578125 21.453125 45.84375 18.46875 43.46875 
L 18.046875 43.46875 
L 20.59375 64.921875 
L 51 64.921875 
L 51 72.734375 
L 13.21875 72.734375 
L 8.8125 36.9375 
L 17.046875 35.9375 
C 20.0625 38.109375 25.21875 39.671875 29.6875 39.625 
C 38.953125 39.5625 45.734375 32.53125 45.734375 23.015625 
C 45.734375 13.671875 39.203125 6.8125 30.25 6.8125 
C 22.796875 6.8125 16.875 11.609375 16.1875 18.1875 
L 7.671875 18.1875 
C 8.203125 7.109375 17.75 -1 30.25 -1 
z
" id="Inter-Regular-53"/>
       </defs>
       <use xlink:href="#Inter-Regular-8722"/>
       <use x="65.909103" xlink:href="#Inter-Regular-48"/>
       <use x="128.409119" xlink:href="#Inter-Regular-46"/>
       <use x="155.965942" xlink:href="#Inter-Regular-48"/>
       <use x="218.465958" xlink:href="#Inter-Regular-49"/>
       <use x="264.914825" xlink:href="#Inter-Regular-53"/>
      </g>
     </g>
    </g>
    <g id="xtick_3">
     <g id="line2d_5">
      <path clip-path="url(#pcfeba1364a)" d="M 242.181818 256.32 
L 242.181818 34.56 
" style="fill:none;stroke:#e5e7eb;stroke-dasharray:3.7,1.6;stroke-dashoffset:0;"/>
     </g>
     <g id="line2d_6">
      <g>
       <use style="stroke:#000000;stroke-width:0.8;" x="242.181818" xlink:href="#mb09b1023fd" y="256.32"/>
      </g>
     </g>
     <g id="text_3">
      <!-- −0.010 -->
      <g transform="translate(225.810724 270.593437)scale(0.1 -0.1)">
       <use xlink:href="#Inter-Regular-8722"/>
       <use x="65.909103" xlink:href="#Inter-Regular-48"/>
       <use x="128.409119" xlink:href="#Inter-Regular-46"/>
       <use x="155.965942" xlink:href="#Inter-Regular-48"/>
       <use x="218.465958" xlink:href="#Inter-Regular-49"/>
       <use x="264.914825" xlink:href="#Inter-Regular-48"/>
      </g>
     </g>
    </g>
    <g id="xtick_4">
     <g id="line2d_7">
      <path clip-path="url(#pcfeba1364a)" d="M 305.590909 256.32 
L 305.590909 34.56 
" style="fill:none;stroke:#e5e7eb;stroke-dasharray:3.7,1.6;stroke-dashoffset:0;"/>
     </g>
     <g id="line2d_8">
      <g>
       <use style="stroke:#000000;stroke-width:0.8;" x="305.590909" xlink:href="#mb09b1023fd" y="256.32"/>
      </g>
     </g>
     <g id="text_4">
      <!-- −0.005 -->
      <g transform="translate(288.502628 270.593437)scale(0.1 -0.1)">
       <use xlink:href="#Inter-Regular-8722"/>
       <use x="65.909103" xlink:href="#Inter-Regular-48"/>
       <use x="128.409119" xlink:href="#Inter-Regular-46"/>
       <use x="155.965942" xlink:href="#Inter-Regular-48"/>
       <use x="218.465958" xlink:href="#Inter-Regular-48"/>
       <use x="280.965973" xlink:href="#Inter-Regular-53"/>
      </g>
     </g>
    </g>
    <g id="xtick_5">
     <g id="line2d_9">
      <path clip-path="url(#pcfeba1364a)" d="M 369 256.32 
L 369 34.56 
" style="fill:none;stroke:#e5e7eb;stroke-dasharray:3.7,1.6;stroke-dashoffset:0;"/>
     </g>
     <g id="line2d_10">
      <g>
       <use style="stroke:#000000;stroke-width:0.8;" x="369" xlink:href="#mb09b1023fd" y="256.32"/>
      </g>
     </g>
     <g id="text_5">
      <!-- 0.000 -->
      <g transform="translate(355.121875 270.593437)scale(0.1 -0.1)">
       <use xlink:href="#Inter-Regular-48"/>
       <use x="62.500015" xlink:href="#Inter-Regular-46"/>
       <use x="90.056839" xlink:href="#Inter-Regular-48"/>
       <use x="152.556854" xlink:href="#Inter-Regular-48"/>
       <use x="215.05687" xlink:href="#Inter-Regular-48"/>
      </g>
     </g>
    </g>
    <g id="xtick_6">
     <g id="line2d_11">
      <path clip-path="url(#pcfeba1364a)" d="M 432.409091 256.32 
L 432.409091 34.56 
" style="fill:none;stroke:#e5e7eb;stroke-dasharray:3.7,1.6;stroke-dashoffset:0;"/>
     </g>
     <g id="line2d_12">
      <g>
       <use style="stroke:#000000;stroke-width:0.8;" x="432.409091" xlink:href="#mb09b1023fd" y="256.32"/>
      </g>
     </g>
     <g id="text_6">
      <!-- 0.005 -->
      <g transform="translate(418.616122 270.593437)scale(0.1 -0.1)">
       <use xlink:href="#Inter-Regular-48"/>
       <use x="62.500015" xlink:href="#Inter-Regular-46"/>
       <use x="90.056839" xlink:href="#Inter-Regular-48"/>
       <use x="152.556854" xlink:href="#Inter-Regular-48"/>
       <use x="215.05687" xlink:href="#Inter-Regular-53"/>
      </g>
     </g>
    </g>
    <g id="xtick_7">
     <g id="line2d_13">
      <path clip-path="url(#pcfeba1364a)" d="M 495.818182 256.32 
L 495.818182 34.56 
" style="fill:none;stroke:#e5e7eb;stroke-dasharray:3.7,1.6;stroke-dashoffset:0;"/>
     </g>
     <g id="line2d_14">
      <g>
       <use style="stroke:#000000;stroke-width:0.8;" x="495.818182" xlink:href="#mb09b1023fd" y="256.32"/>
      </g>
     </g>
     <g id="text_7">
      <!-- 0.010 -->
      <g transform="translate(482.742401 270.593437)scale(0.1 -0.1)">
       <use xlink:href="#Inter-Regular-48"/>
       <use x="62.500015" xlink:href="#Inter-Regular-46"/>
       <use x="90.056839" xlink:href="#Inter-Regular-48"/>
       <use x="152.556854" xlink:href="#Inter-Regular-49"/>
       <use x="199.005722" xlink:href="#Inter-Regular-48"/>
      </g>
     </g>
    </g>
    <g id="xtick_8">
     <g id="line2d_15">
      <path clip-path="url(#pcfeba1364a)" d="M 559.227273 256.32 
L 559.227273 34.56 
" style="fill:none;stroke:#e5e7eb;stroke-dasharray:3.7,1.6;stroke-dashoffset:0;"/>
     </g>
     <g id="line2d_16">
      <g>
       <use style="stroke:#000000;stroke-width:0.8;" x="559.227273" xlink:href="#mb09b1023fd" y="256.32"/>
      </g>
     </g>
     <g id="text_8">
      <!-- 0.015 -->
      <g transform="translate(546.236648 270.593437)scale(0.1 -0.1)">
       <use xlink:href="#Inter-Regular-48"/>
       <use x="62.500015" xlink:href="#Inter-Regular-46"/>
       <use x="90.056839" xlink:href="#Inter-Regular-48"/>
       <use x="152.556854" xlink:href="#Inter-Regular-49"/>
       <use x="199.005722" xlink:href="#Inter-Regular-53"/>
      </g>
     </g>
    </g>
    <g id="xtick_9">
     <g id="line2d_17">
      <path clip-path="url(#pcfeba1364a)" d="M 622.636364 256.32 
L 622.636364 34.56 
" style="fill:none;stroke:#e5e7eb;stroke-dasharray:3.7,1.6;stroke-dashoffset:0;"/>
     </g>
     <g id="line2d_18">
      <g>
       <use style="stroke:#000000;stroke-width:0.8;" x="622.636364" xlink:href="#mb09b1023fd" y="256.32"/>
      </g>
     </g>
     <g id="text_9">
      <!-- 0.020 -->
      <g transform="translate(608.857457 270.593437)scale(0.1 -0.1)">
       <use xlink:href="#Inter-Regular-48"/>
       <use x="62.500015" xlink:href="#Inter-Regular-46"/>
       <use x="90.056839" xlink:href="#Inter-Regular-48"/>
       <use x="152.556854" xlink:href="#Inter-Regular-50"/>
       <use x="213.068237" xlink:href="#Inter-Regular-48"/>
      </g>
     </g>
    </g>
   </g>
   <g id="matplotlib.axis_2">
    <g id="ytick_1">
     <g id="line2d_19">
      <path clip-path="url(#pcfeba1364a)" d="M 90 249.830612 
L 648 249.830612 
" style="fill:none;stroke:#e5e7eb;stroke-dasharray:3.7,1.6;stroke-dashoffset:0;"/>
     </g>
     <g id="line2d_20">
      <defs>
       <path d="M 0 0 
L -3.5 0 
" id="ma0b8dc5c4b" style="stroke:#000000;stroke-width:0.8;"/>
      </defs>
      <g>
       <use style="stroke:#000000;stroke-width:0.8;" x="90" xlink:href="#ma0b8dc5c4b" y="249.830612"/>
      </g>
     </g>
     <g id="text_10">
      <!-- −10 -->
      <g transform="translate(65.514062 253.46733)scale(0.1 -0.1)">
       <use xlink:href="#Inter-Regular-8722"/>
       <use x="65.909103" xlink:href="#Inter-Regular-49"/>
       <use x="112.357971" xlink:href="#Inter-Regular-48"/>
      </g>
     </g>
    </g>
    <g id="ytick_2">
     <g id="line2d_21">
      <path clip-path="url(#pcfeba1364a)" d="M 90 223.064774 
L 648 223.064774 
" style="fill:none;stroke:#e5e7eb;stroke-dasharray:3.7,1.6;stroke-dashoffset:0;"/>
     </g>
     <g id="line2d_22">
      <g>
       <use style="stroke:#000000;stroke-width:0.8;" x="90" xlink:href="#ma0b8dc5c4b" y="223.064774"/>
      </g>
     </g>
     <g id="text_11">
      <!-- −8 -->
      <g transform="translate(70.24375 226.701493)scale(0.1 -0.1)">
       <defs>
        <path d="M 30.828125 -1 
C 45.34375 -1 55.46875 7.5 55.546875 19.3125 
C 55.46875 28.515625 49.328125 36.328125 41.484375 37.78125 
L 41.484375 38.203125 
C 48.296875 39.984375 52.765625 46.65625 52.84375 54.40625 
C 52.765625 65.484375 43.46875 73.71875 30.828125 73.71875 
C 18.046875 73.71875 8.734375 65.484375 8.8125 54.40625 
C 8.734375 46.65625 13.21875 39.984375 20.171875 38.203125 
L 20.171875 37.78125 
C 12.1875 36.328125 6.03125 28.515625 6.109375 19.3125 
C 6.03125 7.5 16.15625 -1 30.828125 -1 
z
M 30.828125 41.328125 
C 22.875 41.328125 17.265625 46.3125 17.328125 53.828125 
C 17.265625 61.21875 22.65625 66.046875 30.828125 66.046875 
C 38.84375 66.046875 44.25 61.21875 44.3125 53.828125 
C 44.25 46.3125 38.640625 41.328125 30.828125 41.328125 
z
M 30.828125 6.8125 
C 20.84375 6.8125 14.703125 11.9375 14.78125 19.75 
C 14.703125 27.953125 21.484375 33.8125 30.828125 33.8125 
C 40.015625 33.8125 46.8125 27.953125 46.875 19.75 
C 46.8125 11.9375 40.65625 6.8125 30.828125 6.8125 
z
" id="Inter-Regular-56"/>
       </defs>
       <use xlink:href="#Inter-Regular-8722"/>
       <use x="65.909103" xlink:href="#Inter-Regular-56"/>
      </g>
     </g>
    </g>
    <g id="ytick_3">
     <g id="line2d_23">
      <path clip-path="url(#pcfeba1364a)" d="M 90 196.298937 
L 648 196.298937 
" style="fill:none;stroke:#e5e7eb;stroke-dasharray:3.7,1.6;stroke-dashoffset:0;"/>
     </g>
     <g id="line2d_24">
      <g>
       <use style="stroke:#000000;stroke-width:0.8;" x="90" xlink:href="#ma0b8dc5c4b" y="196.298937"/>
      </g>
     </g>
     <g id="text_12">
      <!-- −6 -->
      <g transform="translate(70.173438 199.935656)scale(0.1 -0.1)">
       <defs>
        <path d="M 31.671875 -1 
C 46.375 -1.171875 55.96875 9.90625 55.96875 23.4375 
C 55.96875 37.5 45.5625 47.578125 33.09375 47.578125 
C 25.609375 47.578125 19.171875 43.921875 15.203125 37.921875 
L 14.625 37.921875 
C 14.671875 55.78125 21.5625 66.046875 32.8125 66.046875 
C 40.484375 66.046875 45.09375 61.21875 46.734375 54.546875 
L 55.40625 54.546875 
C 53.625 65.984375 45.03125 73.859375 32.8125 73.859375 
C 16.4375 73.859375 6.390625 59.375 6.390625 33.515625 
C 6.390625 6.640625 19.75 -0.859375 31.671875 -1 
z
M 31.671875 6.8125 
C 22.546875 6.8125 15.875 14.59375 15.90625 23.296875 
C 15.953125 32 22.9375 39.765625 31.96875 39.765625 
C 40.875 39.765625 47.4375 32.453125 47.4375 23.4375 
C 47.4375 14.203125 40.59375 6.8125 31.671875 6.8125 
z
" id="Inter-Regular-54"/>
       </defs>
       <use xlink:href="#Inter-Regular-8722"/>
       <use x="65.909103" xlink:href="#Inter-Regular-54"/>
      </g>
     </g>
    </g>
    <g id="ytick_4">
     <g id="line2d_25">
      <path clip-path="url(#pcfeba1364a)" d="M 90 169.533099 
L 648 169.533099 
" style="fill:none;stroke:#e5e7eb;stroke-dasharray:3.7,1.6;stroke-dashoffset:0;"/>
     </g>
     <g id="line2d_26">
      <g>
       <use style="stroke:#000000;stroke-width:0.8;" x="90" xlink:href="#ma0b8dc5c4b" y="169.533099"/>
      </g>
     </g>
     <g id="text_13">
      <!-- −4 -->
      <g transform="translate(69.989063 173.169818)scale(0.1 -0.1)">
       <defs>
        <path d="M 5.828125 14.921875 
L 40.0625 14.921875 
L 40.0625 0 
L 48.4375 0 
L 48.4375 14.921875 
L 58.375 14.921875 
L 58.375 22.734375 
L 48.4375 22.734375 
L 48.4375 72.734375 
L 37.78125 72.734375 
L 5.828125 22.15625 
z
M 15.34375 22.734375 
L 15.34375 23.296875 
L 39.484375 61.5 
L 40.0625 61.5 
L 40.0625 22.734375 
z
" id="Inter-Regular-52"/>
       </defs>
       <use xlink:href="#Inter-Regular-8722"/>
       <use x="65.909103" xlink:href="#Inter-Regular-52"/>
      </g>
     </g>
    </g>
    <g id="ytick_5">
     <g id="line2d_27">
      <path clip-path="url(#pcfeba1364a)" d="M 90 142.767262 
L 648 142.767262 
" style="fill:none;stroke:#e5e7eb;stroke-dasharray:3.7,1.6;stroke-dashoffset:0;"/>
     </g>
     <g id="line2d_28">
      <g>
       <use style="stroke:#000000;stroke-width:0.8;" x="90" xlink:href="#ma0b8dc5c4b" y="142.767262"/>
      </g>
     </g>
     <g id="text_14">
      <!-- −2 -->
      <g transform="translate(70.357812 146.403981)scale(0.1 -0.1)">
       <use xlink:href="#Inter-Regular-8722"/>
       <use x="65.909103" xlink:href="#Inter-Regular-50"/>
      </g>
     </g>
    </g>
    <g id="ytick_6">
     <g id="line2d_29">
      <path clip-path="url(#pcfeba1364a)" d="M 90 116.001424 
L 648 116.001424 
" style="fill:none;stroke:#e5e7eb;stroke-dasharray:3.7,1.6;stroke-dashoffset:0;"/>
     </g>
     <g id="line2d_30">
      <g>
       <use style="stroke:#000000;stroke-width:0.8;" x="90" xlink:href="#ma0b8dc5c4b" y="116.001424"/>
      </g>
     </g>
     <g id="text_15">
      <!-- 0 -->
      <g transform="translate(76.75 119.638143)scale(0.1 -0.1)">
       <use xlink:href="#Inter-Regular-48"/>
      </g>
     </g>
    </g>
    <g id="ytick_7">
     <g id="line2d_31">
      <path clip-path="url(#pcfeba1364a)" d="M 90 89.235587 
L 648 89.235587 
" style="fill:none;stroke:#e5e7eb;stroke-dasharray:3.7,1.6;stroke-dashoffset:0;"/>
     </g>
     <g id="line2d_32">
      <g>
       <use style="stroke:#000000;stroke-width:0.8;" x="90" xlink:href="#ma0b8dc5c4b" y="89.235587"/>
      </g>
     </g>
     <g id="text_16">
      <!-- 2 -->
      <g transform="translate(76.948437 92.872306)scale(0.1 -0.1)">
       <use xlink:href="#Inter-Regular-50"/>
      </g>
     </g>
    </g>
    <g id="ytick_8">
     <g id="line2d_33">
      <path clip-path="url(#pcfeba1364a)" d="M 90 62.46975 
L 648 62.46975 
" style="fill:none;stroke:#e5e7eb;stroke-dasharray:3.7,1.6;stroke-dashoffset:0;"/>
     </g>
     <g id="line2d_34">
      <g>
       <use style="stroke:#000000;stroke-width:0.8;" x="90" xlink:href="#ma0b8dc5c4b" y="62.46975"/>
      </g>
     </g>
     <g id="text_17">
      <!-- 4 -->
      <g transform="translate(76.579688 66.106468)scale(0.1 -0.1)">
       <use xlink:href="#Inter-Regular-52"/>
      </g>
     </g>
    </g>
    <g id="ytick_9">
     <g id="line2d_35">
      <path clip-path="url(#pcfeba1364a)" d="M 90 35.703912 
L 648 35.703912 
" style="fill:none;stroke:#e5e7eb;stroke-dasharray:3.7,1.6;stroke-dashoffset:0;"/>
     </g>
     <g id="line2d_36">
      <g>
       <use style="stroke:#000000;stroke-width:0.8;" x="90" xlink:href="#ma0b8dc5c4b" y="35.703912"/>
      </g>
     </g>
     <g id="text_18">
      <!-- 6 -->
      <g transform="translate(76.764062 39.340631)scale(0.1 -0.1)">
       <use xlink:href="#Inter-Regular-54"/>
      </g>
     </g>
    </g>
   </g>
   <g id="line2d_37">
    <path clip-path="url(#pcfeba1364a)" d="M 115.363636 44.64 
L 120.487603 49.453078 
L 125.61157 54.048095 
L 130.735537 58.430043 
L 135.859504 62.603913 
L 140.983471 66.574696 
L 146.107438 70.347384 
L 151.231405 73.92697 
L 156.355372 77.318443 
L 161.479339 80.526797 
L 166.603306 83.557022 
L 171.727273 86.414109 
L 176.85124 89.103051 
L 181.975207 91.62884 
L 187.099174 93.996465 
L 192.22314 96.21092 
L 197.347107 98.277196 
L 202.471074 100.200283 
L 207.595041 101.985175 
L 212.719008 103.636862 
L 217.842975 105.160335 
L 222.966942 106.560587 
L 228.090909 107.842609 
L 233.214876 109.011393 
L 238.338843 110.071929 
L 243.46281 111.02921 
L 248.586777 111.888227 
L 253.710744 112.653972 
L 258.834711 113.331436 
L 263.958678 113.925611 
L 269.082645 114.441489 
L 274.206612 114.88406 
L 279.330579 115.258316 
L 284.454545 115.56925 
L 289.578512 115.821851 
L 294.702479 116.021113 
L 299.826446 116.172027 
L 304.950413 116.279584 
L 310.07438 116.348775 
L 315.198347 116.384593 
L 320.322314 116.392028 
L 325.446281 116.376073 
L 330.570248 116.341719 
L 335.694215 116.293957 
L 340.818182 116.237779 
L 345.942149 116.178177 
L 351.066116 116.120142 
L 356.190083 116.068665 
L 361.31405 116.028739 
L 366.438017 116.005354 
L 371.561983 116.003502 
L 376.68595 116.028176 
L 381.809917 116.084365 
L 386.933884 116.177063 
L 392.057851 116.31126 
L 397.181818 116.491948 
L 402.305785 116.724119 
L 407.429752 117.012763 
L 412.553719 117.362874 
L 417.677686 117.779441 
L 422.801653 118.267457 
L 427.92562 118.831914 
L 433.049587 119.477802 
L 438.173554 120.210114 
L 443.297521 121.033841 
L 448.421488 121.953974 
L 453.545455 122.975505 
L 458.669421 124.103426 
L 463.793388 125.342728 
L 468.917355 126.698402 
L 474.041322 128.175441 
L 479.165289 129.778835 
L 484.289256 131.513577 
L 489.413223 133.384658 
L 494.53719 135.397069 
L 499.661157 137.555802 
L 504.785124 139.865848 
L 509.909091 142.3322 
L 515.033058 144.959848 
L 520.157025 147.753784 
L 525.280992 150.719 
L 530.404959 153.860487 
L 535.528926 157.183237 
L 540.652893 160.692241 
L 545.77686 164.392492 
L 550.900826 168.288979 
L 556.024793 172.386696 
L 561.14876 176.690633 
L 566.272727 181.205782 
L 571.396694 185.937134 
L 576.520661 190.889682 
L 581.644628 196.068417 
L 586.768595 201.47833 
L 591.892562 207.124412 
L 597.016529 213.011656 
L 602.140496 219.145053 
L 607.264463 225.529594 
L 612.38843 232.170271 
L 617.512397 239.072076 
L 622.636364 246.24 
" style="fill:none;stroke:#1f77b4;stroke-linecap:square;stroke-width:1.5;"/>
   </g>
   <g id="line2d_38">
    <path clip-path="url(#pcfeba1364a)" d="M 115.363636 101.383628 
L 120.487603 102.170075 
L 125.61157 102.928445 
L 130.735537 103.659231 
L 135.859504 104.362928 
L 140.983471 105.040029 
L 146.107438 105.69103 
L 151.231405 106.316423 
L 156.355372 106.916704 
L 161.479339 107.492366 
L 166.603306 108.043905 
L 171.727273 108.571813 
L 176.85124 109.076585 
L 181.975207 109.558715 
L 187.099174 110.018698 
L 192.22314 110.457028 
L 197.347107 110.874198 
L 202.471074 111.270704 
L 207.595041 111.647039 
L 212.719008 112.003697 
L 217.842975 112.341173 
L 222.966942 112.65996 
L 228.090909 112.960554 
L 233.214876 113.243447 
L 238.338843 113.509136 
L 243.46281 113.758112 
L 248.586777 113.990872 
L 253.710744 114.207908 
L 258.834711 114.409715 
L 263.958678 114.596788 
L 269.082645 114.769621 
L 274.206612 114.928707 
L 279.330579 115.07454 
L 284.454545 115.207616 
L 289.578512 115.328428 
L 294.702479 115.437471 
L 299.826446 115.535238 
L 304.950413 115.622224 
L 310.07438 115.698923 
L 315.198347 115.76583 
L 320.322314 115.823437 
L 325.446281 115.872241 
L 330.570248 115.912734 
L 335.694215 115.945411 
L 340.818182 115.970766 
L 345.942149 115.989293 
L 351.066116 116.001487 
L 356.190083 116.007842 
L 361.31405 116.008851 
L 366.438017 116.00501 
L 371.561983 115.996812 
L 376.68595 115.984751 
L 381.809917 115.969322 
L 386.933884 115.951019 
L 392.057851 115.930336 
L 397.181818 115.907767 
L 402.305785 115.883806 
L 407.429752 115.858949 
L 412.553719 115.833687 
L 417.677686 115.808517 
L 422.801653 115.783932 
L 427.92562 115.760427 
L 433.049587 115.738495 
L 438.173554 115.71863 
L 443.297521 115.701328 
L 448.421488 115.687081 
L 453.545455 115.676385 
L 458.669421 115.669734 
L 463.793388 115.667621 
L 468.917355 115.670541 
L 474.041322 115.678988 
L 479.165289 115.693456 
L 484.289256 115.71444 
L 489.413223 115.742433 
L 494.53719 115.77793 
L 499.661157 115.821425 
L 504.785124 115.873412 
L 509.909091 115.934386 
L 515.033058 116.00484 
L 520.157025 116.085269 
L 525.280992 116.176167 
L 530.404959 116.278028 
L 535.528926 116.391346 
L 540.652893 116.516616 
L 545.77686 116.654331 
L 550.900826 116.804986 
L 556.024793 116.969076 
L 561.14876 117.147094 
L 566.272727 117.339534 
L 571.396694 117.54689 
L 576.520661 117.769658 
L 581.644628 118.008331 
L 586.768595 118.263402 
L 591.892562 118.535367 
L 597.016529 118.82472 
L 602.140496 119.131955 
L 607.264463 119.457565 
L 612.38843 119.802046 
L 617.512397 120.165891 
L 622.636364 120.549594 
" style="fill:none;stroke:#ff7f0e;stroke-linecap:square;stroke-width:1.5;"/>
   </g>
   <g id="patch_3">
    <path d="M 90 256.32 
L 90 34.56 
" style="fill:none;stroke:#000000;stroke-linecap:square;stroke-linejoin:miter;stroke-width:0.8;"/>
   </g>
   <g id="patch_4">
    <path d="M 648 256.32 
L 648 34.56 
" style="fill:none;stroke:#000000;stroke-linecap:square;stroke-linejoin:miter;stroke-width:0.8;"/>
   </g>
   <g id="patch_5">
    <path d="M 90 256.32 
L 648 256.32 
" style="fill:none;stroke:#000000;stroke-linecap:square;stroke-linejoin:miter;stroke-width:0.8;"/>
   </g>
   <g id="patch_6">
    <path d="M 90 34.56 
L 648 34.56 
" style="fill:none;stroke:#000000;stroke-linecap:square;stroke-linejoin:miter;stroke-width:0.8;"/>
   </g>
   <g id="legend_1">
    <g id="patch_7">
     <path d="M 591.7625 71.1975 
L 641 71.1975 
Q 643 71.1975 643 69.1975 
L 643 41.56 
Q 643 39.56 641 39.56 
L 591.7625 39.56 
Q 589.7625 39.56 589.7625 41.56 
L 589.7625 69.1975 
Q 589.7625 71.1975 591.7625 71.1975 
z
" style="fill:#ffffff;opacity:0.8;stroke:#cccccc;stroke-linejoin:miter;"/>
    </g>
    <g id="line2d_39">
     <path d="M 593.7625 47.333438 
L 613.7625 47.333438 
" style="fill:none;stroke:#1f77b4;stroke-linecap:square;stroke-width:1.5;"/>
    </g>
    <g id="line2d_40"/>
    <g id="text_19">
     <!-- nux -->
     <g transform="translate(621.7625 50.833438)scale(0.1 -0.1)">
      <defs>
       <path d="M 16.046875 32.8125 
C 16.046875 42.328125 21.953125 47.734375 29.96875 47.734375 
C 37.75 47.734375 42.46875 42.65625 42.46875 34.09375 
L 42.46875 0 
L 50.859375 0 
L 50.859375 34.65625 
C 50.859375 48.578125 43.4375 55.25 32.390625 55.25 
C 24.15625 55.25 19.03125 51.5625 16.484375 46.015625 
L 15.765625 46.015625 
L 15.765625 54.546875 
L 7.671875 54.546875 
L 7.671875 0 
L 16.046875 0 
z
" id="Inter-Regular-110"/>
       <path d="M 42.046875 22.296875 
C 42.046875 12.078125 34.234375 7.390625 27.984375 7.390625 
C 21.03125 7.390625 16.046875 12.5 16.046875 20.453125 
L 16.046875 54.546875 
L 7.671875 54.546875 
L 7.671875 19.890625 
C 7.671875 5.96875 15.0625 -0.703125 25.28125 -0.703125 
C 33.53125 -0.703125 38.921875 3.6875 41.484375 9.234375 
L 42.046875 9.234375 
L 42.046875 0 
L 50.421875 0 
L 50.421875 54.546875 
L 42.046875 54.546875 
z
" id="Inter-Regular-117"/>
       <path d="M 13.921875 54.546875 
L 4.265625 54.546875 
L 21.59375 27.265625 
L 4.265625 0 
L 13.921875 0 
L 26.984375 21.171875 
L 40.0625 0 
L 49.71875 0 
L 32.109375 27.265625 
L 49.71875 54.546875 
L 40.0625 54.546875 
L 26.984375 32.25 
z
" id="Inter-Regular-120"/>
      </defs>
      <use xlink:href="#Inter-Regular-110"/>
      <use x="58.522736" xlink:href="#Inter-Regular-117"/>
      <use x="116.619339" xlink:href="#Inter-Regular-120"/>
     </g>
    </g>
    <g id="line2d_41">
     <path d="M 593.7625 61.652187 
L 613.7625 61.652187 
" style="fill:none;stroke:#ff7f0e;stroke-linecap:square;stroke-width:1.5;"/>
    </g>
    <g id="line2d_42"/>
    <g id="text_20">
     <!-- nuy -->
     <g transform="translate(621.7625 65.152187)scale(0.1 -0.1)">
      <defs>
       <path d="M 13.0625 -20.3125 
C 20.640625 -20.3125 26 -16.296875 29.125 -7.953125 
L 52.34375 54.40625 
L 43.1875 54.546875 
L 28.125 11.078125 
L 27.5625 11.078125 
L 12.5 54.546875 
L 3.40625 54.546875 
L 23.578125 -0.28125 
L 22.015625 -4.546875 
C 19.03125 -12.71875 15.203125 -13.5 9.09375 -11.9375 
L 6.96875 -19.3125 
C 7.8125 -19.75 10.234375 -20.3125 13.0625 -20.3125 
z
" id="Inter-Regular-121"/>
      </defs>
      <use xlink:href="#Inter-Regular-110"/>
      <use x="58.522736" xlink:href="#Inter-Regular-117"/>
      <use x="116.619339" xlink:href="#Inter-Regular-121"/>
     </g>
    </g>
   </g>
  </g>
 </g>
 <defs>
  <clipPath id="pcfeba1364a">
   <rect height="221.76" width="558" x="90" y="34.56"/>
  </clipPath>
 </defs>
</svg>
