<?xml version="1.0" encoding="utf-8" standalone="no"?>
<!DOCTYPE svg PUBLIC "-//W3C//DTD SVG 1.1//EN"
  "http://www.w3.org/Graphics/SVG/1.1/DTD/svg11.dtd">
<!-- Created with matplotlib (https://matplotlib.org/) -->
<svg height="345.6pt" version="1.1" viewBox="0 0 576 345.6" width="576pt" xmlns="http://www.w3.org/2000/svg" xmlns:xlink="http://www.w3.org/1999/xlink">
 <metadata>
  <rdf:RDF xmlns:cc="http://creativecommons.org/ns#" xmlns:dc="http://purl.org/dc/elements/1.1/" xmlns:rdf="http://www.w3.org/1999/02/22-rdf-syntax-ns#">
   <cc:Work>
    <dc:type rdf:resource="http://purl.org/dc/dcmitype/StillImage"/>
    <dc:date>2020-12-15T10:10:54.402681</dc:date>
    <dc:format>image/svg+xml</dc:format>
    <dc:creator>
     <cc:Agent>
      <dc:title>Matplotlib v3.3.3, https://matplotlib.org/</dc:title>
     </cc:Agent>
    </dc:creator>
   </cc:Work>
  </rdf:RDF>
 </metadata>
 <defs>
  <style type="text/css">*{stroke-linecap:butt;stroke-linejoin:round;}</style>
 </defs>
 <g id="figure_1">
  <g id="patch_1">
   <path d="M 0 345.6 
L 576 345.6 
L 576 0 
L 0 0 
z
" style="fill:#ffffff;"/>
  </g>
  <g id="axes_1">
   <g id="patch_2">
    <path d="M 28.78 317.72 
L 565.2 317.72 
L 565.2 51.0736 
L 28.78 51.0736 
z
" style="fill:#ffffff;"/>
   </g>
   <g id="matplotlib.axis_1">
    <g id="xtick_1">
     <g id="line2d_1">
      <path clip-path="url(#p677fd24227)" d="M 28.78 317.72 
L 28.78 51.0736 
" style="fill:none;stroke:#e5e7eb;stroke-dasharray:3.7,1.6;stroke-dashoffset:0;"/>
     </g>
     <g id="line2d_2">
      <defs>
       <path d="M 0 0 
L 0 3.5 
" id="m5bdcc0163f" style="stroke:#000000;stroke-width:0.8;"/>
      </defs>
      <g>
       <use style="stroke:#000000;stroke-width:0.8;" x="28.78" xlink:href="#m5bdcc0163f" y="317.72"/>
      </g>
     </g>
     <g id="text_1">
      <!-- 0 -->
      <g transform="translate(25.655 331.993437)scale(0.1 -0.1)">
       <defs>
        <path d="M 31.25 -1 
C 47.296875 -1 56.53125 12.609375 56.53125 36.359375 
C 56.53125 59.9375 47.15625 73.71875 31.25 73.71875 
C 15.34375 73.71875 5.96875 59.9375 5.96875 36.359375 
C 5.96875 12.609375 15.203125 -1 31.25 -1 
z
M 31.25 6.8125 
C 20.671875 6.8125 14.484375 17.4375 14.484375 36.359375 
C 14.484375 55.25 20.734375 66.046875 31.25 66.046875 
C 41.765625 66.046875 48.015625 55.25 48.015625 36.359375 
C 48.015625 17.4375 41.828125 6.8125 31.25 6.8125 
z
" id="Inter-Regular-48"/>
       </defs>
       <use xlink:href="#Inter-Regular-48"/>
      </g>
     </g>
    </g>
    <g id="xtick_2">
     <g id="line2d_3">
      <path clip-path="url(#p677fd24227)" d="M 100.302667 317.72 
L 100.302667 51.0736 
" style="fill:none;stroke:#e5e7eb;stroke-dasharray:3.7,1.6;stroke-dashoffset:0;"/>
     </g>
     <g id="line2d_4">
      <g>
       <use style="stroke:#000000;stroke-width:0.8;" x="100.302667" xlink:href="#m5bdcc0163f" y="317.72"/>
      </g>
     </g>
     <g id="text_2">
      <!-- 2 -->
      <g transform="translate(97.276885 331.993437)scale(0.1 -0.1)">
       <defs>
        <path d="M 7.53125 0 
L 53.40625 0 
L 53.40625 7.8125 
L 19.609375 7.8125 
L 19.609375 8.375 
L 35.9375 25.859375 
C 48.4375 39.234375 52.125 45.484375 52.125 53.546875 
C 52.125 64.765625 43.046875 73.71875 30.25 73.71875 
C 17.515625 73.71875 7.8125 65.0625 7.8125 52.265625 
L 16.1875 52.265625 
C 16.1875 60.546875 21.5625 66.046875 29.96875 66.046875 
C 37.859375 66.046875 43.890625 61.21875 43.890625 53.546875 
C 43.890625 46.84375 39.953125 41.875 31.53125 32.671875 
L 7.53125 6.390625 
z
" id="Inter-Regular-50"/>
       </defs>
       <use xlink:href="#Inter-Regular-50"/>
      </g>
     </g>
    </g>
    <g id="xtick_3">
     <g id="line2d_5">
      <path clip-path="url(#p677fd24227)" d="M 171.825333 317.72 
L 171.825333 51.0736 
" style="fill:none;stroke:#e5e7eb;stroke-dasharray:3.7,1.6;stroke-dashoffset:0;"/>
     </g>
     <g id="line2d_6">
      <g>
       <use style="stroke:#000000;stroke-width:0.8;" x="171.825333" xlink:href="#m5bdcc0163f" y="317.72"/>
      </g>
     </g>
     <g id="text_3">
      <!-- 4 -->
      <g transform="translate(168.615177 331.993437)scale(0.1 -0.1)">
       <defs>
        <path d="M 5.828125 14.921875 
L 40.0625 14.921875 
L 40.0625 0 
L 48.4375 0 
L 48.4375 14.921875 
L 58.375 14.921875 
L 58.375 22.734375 
L 48.4375 22.734375 
L 48.4375 72.734375 
L 37.78125 72.734375 
L 5.828125 22.15625 
z
M 15.34375 22.734375 
L 15.34375 23.296875 
L 39.484375 61.5 
L 40.0625 61.5 
L 40.0625 22.734375 
z
" id="Inter-Regular-52"/>
       </defs>
       <use xlink:href="#Inter-Regular-52"/>
      </g>
     </g>
    </g>
    <g id="xtick_4">
     <g id="line2d_7">
      <path clip-path="url(#p677fd24227)" d="M 243.348 317.72 
L 243.348 51.0736 
" style="fill:none;stroke:#e5e7eb;stroke-dasharray:3.7,1.6;stroke-dashoffset:0;"/>
     </g>
     <g id="line2d_8">
      <g>
       <use style="stroke:#000000;stroke-width:0.8;" x="243.348" xlink:href="#m5bdcc0163f" y="317.72"/>
      </g>
     </g>
     <g id="text_4">
      <!-- 6 -->
      <g transform="translate(240.230031 331.993437)scale(0.1 -0.1)">
       <defs>
        <path d="M 31.671875 -1 
C 46.375 -1.171875 55.96875 9.90625 55.96875 23.4375 
C 55.96875 37.5 45.5625 47.578125 33.09375 47.578125 
C 25.609375 47.578125 19.171875 43.921875 15.203125 37.921875 
L 14.625 37.921875 
C 14.671875 55.78125 21.5625 66.046875 32.8125 66.046875 
C 40.484375 66.046875 45.09375 61.21875 46.734375 54.546875 
L 55.40625 54.546875 
C 53.625 65.984375 45.03125 73.859375 32.8125 73.859375 
C 16.4375 73.859375 6.390625 59.375 6.390625 33.515625 
C 6.390625 6.640625 19.75 -0.859375 31.671875 -1 
z
M 31.671875 6.8125 
C 22.546875 6.8125 15.875 14.59375 15.90625 23.296875 
C 15.953125 32 22.9375 39.765625 31.96875 39.765625 
C 40.875 39.765625 47.4375 32.453125 47.4375 23.4375 
C 47.4375 14.203125 40.59375 6.8125 31.671875 6.8125 
z
" id="Inter-Regular-54"/>
       </defs>
       <use xlink:href="#Inter-Regular-54"/>
      </g>
     </g>
    </g>
    <g id="xtick_5">
     <g id="line2d_9">
      <path clip-path="url(#p677fd24227)" d="M 314.870667 317.72 
L 314.870667 51.0736 
" style="fill:none;stroke:#e5e7eb;stroke-dasharray:3.7,1.6;stroke-dashoffset:0;"/>
     </g>
     <g id="line2d_10">
      <g>
       <use style="stroke:#000000;stroke-width:0.8;" x="314.870667" xlink:href="#m5bdcc0163f" y="317.72"/>
      </g>
     </g>
     <g id="text_5">
      <!-- 8 -->
      <g transform="translate(311.787854 331.993437)scale(0.1 -0.1)">
       <defs>
        <path d="M 30.828125 -1 
C 45.34375 -1 55.46875 7.5 55.546875 19.3125 
C 55.46875 28.515625 49.328125 36.328125 41.484375 37.78125 
L 41.484375 38.203125 
C 48.296875 39.984375 52.765625 46.65625 52.84375 54.40625 
C 52.765625 65.484375 43.46875 73.71875 30.828125 73.71875 
C 18.046875 73.71875 8.734375 65.484375 8.8125 54.40625 
C 8.734375 46.65625 13.21875 39.984375 20.171875 38.203125 
L 20.171875 37.78125 
C 12.1875 36.328125 6.03125 28.515625 6.109375 19.3125 
C 6.03125 7.5 16.15625 -1 30.828125 -1 
z
M 30.828125 41.328125 
C 22.875 41.328125 17.265625 46.3125 17.328125 53.828125 
C 17.265625 61.21875 22.65625 66.046875 30.828125 66.046875 
C 38.84375 66.046875 44.25 61.21875 44.3125 53.828125 
C 44.25 46.3125 38.640625 41.328125 30.828125 41.328125 
z
M 30.828125 6.8125 
C 20.84375 6.8125 14.703125 11.9375 14.78125 19.75 
C 14.703125 27.953125 21.484375 33.8125 30.828125 33.8125 
C 40.015625 33.8125 46.8125 27.953125 46.875 19.75 
C 46.8125 11.9375 40.65625 6.8125 30.828125 6.8125 
z
" id="Inter-Regular-56"/>
       </defs>
       <use xlink:href="#Inter-Regular-56"/>
      </g>
     </g>
    </g>
    <g id="xtick_6">
     <g id="line2d_11">
      <path clip-path="url(#p677fd24227)" d="M 386.393333 317.72 
L 386.393333 51.0736 
" style="fill:none;stroke:#e5e7eb;stroke-dasharray:3.7,1.6;stroke-dashoffset:0;"/>
     </g>
     <g id="line2d_12">
      <g>
       <use style="stroke:#000000;stroke-width:0.8;" x="386.393333" xlink:href="#m5bdcc0163f" y="317.72"/>
      </g>
     </g>
     <g id="text_6">
      <!-- 10 -->
      <g transform="translate(380.945677 331.993437)scale(0.1 -0.1)">
       <defs>
        <path d="M 33.09375 72.734375 
L 24.296875 72.734375 
L 6.109375 60.65625 
L 6.109375 51.703125 
L 23.859375 63.5 
L 24.296875 63.5 
L 24.296875 0 
L 33.09375 0 
z
" id="Inter-Regular-49"/>
       </defs>
       <use xlink:href="#Inter-Regular-49"/>
       <use x="46.448868" xlink:href="#Inter-Regular-48"/>
      </g>
     </g>
    </g>
    <g id="xtick_7">
     <g id="line2d_13">
      <path clip-path="url(#p677fd24227)" d="M 457.916 317.72 
L 457.916 51.0736 
" style="fill:none;stroke:#e5e7eb;stroke-dasharray:3.7,1.6;stroke-dashoffset:0;"/>
     </g>
     <g id="line2d_14">
      <g>
       <use style="stroke:#000000;stroke-width:0.8;" x="457.916" xlink:href="#m5bdcc0163f" y="317.72"/>
      </g>
     </g>
     <g id="text_7">
      <!-- 12 -->
      <g transform="translate(452.567563 331.993437)scale(0.1 -0.1)">
       <use xlink:href="#Inter-Regular-49"/>
       <use x="46.448868" xlink:href="#Inter-Regular-50"/>
      </g>
     </g>
    </g>
    <g id="xtick_8">
     <g id="line2d_15">
      <path clip-path="url(#p677fd24227)" d="M 529.438667 317.72 
L 529.438667 51.0736 
" style="fill:none;stroke:#e5e7eb;stroke-dasharray:3.7,1.6;stroke-dashoffset:0;"/>
     </g>
     <g id="line2d_16">
      <g>
       <use style="stroke:#000000;stroke-width:0.8;" x="529.438667" xlink:href="#m5bdcc0163f" y="317.72"/>
      </g>
     </g>
     <g id="text_8">
      <!-- 14 -->
      <g transform="translate(523.905854 331.993437)scale(0.1 -0.1)">
       <use xlink:href="#Inter-Regular-49"/>
       <use x="46.448868" xlink:href="#Inter-Regular-52"/>
      </g>
     </g>
    </g>
   </g>
   <g id="matplotlib.axis_2">
    <g id="ytick_1">
     <g id="line2d_17">
      <path clip-path="url(#p677fd24227)" d="M 28.78 304.9564 
L 565.2 304.9564 
" style="fill:none;stroke:#e5e7eb;stroke-dasharray:3.7,1.6;stroke-dashoffset:0;"/>
     </g>
     <g id="line2d_18">
      <defs>
       <path d="M 0 0 
L -3.5 0 
" id="mc86164f298" style="stroke:#000000;stroke-width:0.8;"/>
      </defs>
      <g>
       <use style="stroke:#000000;stroke-width:0.8;" x="28.78" xlink:href="#mc86164f298" y="304.9564"/>
      </g>
     </g>
     <g id="text_9">
      <!-- 0 -->
      <g transform="translate(15.53 308.593119)scale(0.1 -0.1)">
       <use xlink:href="#Inter-Regular-48"/>
      </g>
     </g>
    </g>
    <g id="ytick_2">
     <g id="line2d_19">
      <path clip-path="url(#p677fd24227)" d="M 28.78 270.592788 
L 565.2 270.592788 
" style="fill:none;stroke:#e5e7eb;stroke-dasharray:3.7,1.6;stroke-dashoffset:0;"/>
     </g>
     <g id="line2d_20">
      <g>
       <use style="stroke:#000000;stroke-width:0.8;" x="28.78" xlink:href="#mc86164f298" y="270.592788"/>
      </g>
     </g>
     <g id="text_10">
      <!-- 2 -->
      <g transform="translate(15.728438 274.229507)scale(0.1 -0.1)">
       <use xlink:href="#Inter-Regular-50"/>
      </g>
     </g>
    </g>
    <g id="ytick_3">
     <g id="line2d_21">
      <path clip-path="url(#p677fd24227)" d="M 28.78 236.229176 
L 565.2 236.229176 
" style="fill:none;stroke:#e5e7eb;stroke-dasharray:3.7,1.6;stroke-dashoffset:0;"/>
     </g>
     <g id="line2d_22">
      <g>
       <use style="stroke:#000000;stroke-width:0.8;" x="28.78" xlink:href="#mc86164f298" y="236.229176"/>
      </g>
     </g>
     <g id="text_11">
      <!-- 4 -->
      <g transform="translate(15.359688 239.865895)scale(0.1 -0.1)">
       <use xlink:href="#Inter-Regular-52"/>
      </g>
     </g>
    </g>
    <g id="ytick_4">
     <g id="line2d_23">
      <path clip-path="url(#p677fd24227)" d="M 28.78 201.865564 
L 565.2 201.865564 
" style="fill:none;stroke:#e5e7eb;stroke-dasharray:3.7,1.6;stroke-dashoffset:0;"/>
     </g>
     <g id="line2d_24">
      <g>
       <use style="stroke:#000000;stroke-width:0.8;" x="28.78" xlink:href="#mc86164f298" y="201.865564"/>
      </g>
     </g>
     <g id="text_12">
      <!-- 6 -->
      <g transform="translate(15.544063 205.502283)scale(0.1 -0.1)">
       <use xlink:href="#Inter-Regular-54"/>
      </g>
     </g>
    </g>
    <g id="ytick_5">
     <g id="line2d_25">
      <path clip-path="url(#p677fd24227)" d="M 28.78 167.501952 
L 565.2 167.501952 
" style="fill:none;stroke:#e5e7eb;stroke-dasharray:3.7,1.6;stroke-dashoffset:0;"/>
     </g>
     <g id="line2d_26">
      <g>
       <use style="stroke:#000000;stroke-width:0.8;" x="28.78" xlink:href="#mc86164f298" y="167.501952"/>
      </g>
     </g>
     <g id="text_13">
      <!-- 8 -->
      <g transform="translate(15.614375 171.138671)scale(0.1 -0.1)">
       <use xlink:href="#Inter-Regular-56"/>
      </g>
     </g>
    </g>
    <g id="ytick_6">
     <g id="line2d_27">
      <path clip-path="url(#p677fd24227)" d="M 28.78 133.13834 
L 565.2 133.13834 
" style="fill:none;stroke:#e5e7eb;stroke-dasharray:3.7,1.6;stroke-dashoffset:0;"/>
     </g>
     <g id="line2d_28">
      <g>
       <use style="stroke:#000000;stroke-width:0.8;" x="28.78" xlink:href="#mc86164f298" y="133.13834"/>
      </g>
     </g>
     <g id="text_14">
      <!-- 10 -->
      <g transform="translate(10.884688 136.775059)scale(0.1 -0.1)">
       <use xlink:href="#Inter-Regular-49"/>
       <use x="46.448868" xlink:href="#Inter-Regular-48"/>
      </g>
     </g>
    </g>
    <g id="ytick_7">
     <g id="line2d_29">
      <path clip-path="url(#p677fd24227)" d="M 28.78 98.774729 
L 565.2 98.774729 
" style="fill:none;stroke:#e5e7eb;stroke-dasharray:3.7,1.6;stroke-dashoffset:0;"/>
     </g>
     <g id="line2d_30">
      <g>
       <use style="stroke:#000000;stroke-width:0.8;" x="28.78" xlink:href="#mc86164f298" y="98.774729"/>
      </g>
     </g>
     <g id="text_15">
      <!-- 12 -->
      <g transform="translate(11.083125 102.411447)scale(0.1 -0.1)">
       <use xlink:href="#Inter-Regular-49"/>
       <use x="46.448868" xlink:href="#Inter-Regular-50"/>
      </g>
     </g>
    </g>
    <g id="ytick_8">
     <g id="line2d_31">
      <path clip-path="url(#p677fd24227)" d="M 28.78 64.411117 
L 565.2 64.411117 
" style="fill:none;stroke:#e5e7eb;stroke-dasharray:3.7,1.6;stroke-dashoffset:0;"/>
     </g>
     <g id="line2d_32">
      <g>
       <use style="stroke:#000000;stroke-width:0.8;" x="28.78" xlink:href="#mc86164f298" y="64.411117"/>
      </g>
     </g>
     <g id="text_16">
      <!-- 14 -->
      <g transform="translate(10.714375 68.047835)scale(0.1 -0.1)">
       <use xlink:href="#Inter-Regular-49"/>
       <use x="46.448868" xlink:href="#Inter-Regular-52"/>
      </g>
     </g>
    </g>
   </g>
   <g id="line2d_33">
    <path clip-path="url(#p677fd24227)" d="M 28.78 277.265239 
L 32.011446 277.20337 
L 35.242892 276.967393 
L 38.474337 276.557307 
L 41.705783 275.973111 
L 44.937229 275.214807 
L 48.168675 274.282393 
L 52.477269 272.768339 
L 56.785863 270.944757 
L 61.094458 268.811648 
L 65.403052 266.369012 
L 69.711647 263.616849 
L 74.020241 260.555159 
L 78.328835 257.183941 
L 82.63743 253.503196 
L 86.946024 249.512924 
L 91.254618 245.213125 
L 95.563213 240.603799 
L 99.871807 235.684945 
L 104.180402 230.456564 
L 108.488996 224.918656 
L 112.79759 219.071221 
L 117.106185 212.914258 
L 118.183333 211.326654 
L 119.375378 208.350366 
L 120.567422 202.836233 
L 121.759467 194.505834 
L 124.143556 173.880772 
L 127.242871 144.397668 
L 129.388551 122.217847 
L 132.805745 85.976906 
L 133.83885 80.108302 
L 134.871956 78.494667 
L 135.905061 81.197556 
L 136.938166 88.113863 
L 137.971271 98.979757 
L 139.004376 113.380741 
L 140.037481 130.767469 
L 143.454676 194.399883 
L 144.64672 213.605248 
L 145.791083 229.406815 
L 146.935445 242.153065 
L 148.079808 252.422345 
L 149.224171 260.680614 
L 150.368533 267.302583 
L 152.752622 278.572721 
L 154.898302 286.935438 
L 156.805573 292.952969 
L 157.997618 296.037162 
L 159.189662 298.600769 
L 160.381707 300.643789 
L 161.409845 301.986879 
L 162.437983 302.943251 
L 163.466122 303.512772 
L 164.49426 303.695361 
L 165.522398 303.490992 
L 166.550537 302.899695 
L 167.578675 301.921552 
L 168.606813 300.5567 
L 169.798858 298.488428 
L 170.990902 295.899569 
L 172.182947 292.790123 
L 173.255787 289.490069 
L 174.328627 285.619172 
L 175.401467 281.116126 
L 176.593511 275.418835 
L 177.785556 269.086977 
L 179.931236 256.090522 
L 181.838507 242.812094 
L 184.222596 223.929615 
L 186.48748 204.660567 
L 187.56032 197.547173 
L 188.63316 192.492781 
L 192.209293 178.924984 
L 196.262244 162.55434 
L 198.646333 152.4313 
L 199.808577 149.185025 
L 200.97082 149.568587 
L 202.133063 153.564057 
L 203.295307 160.984682 
L 205.679396 178.902428 
L 209.01712 203.247708 
L 212.474049 229.504391 
L 214.619729 243.94515 
L 216.527 255.468581 
L 218.911089 268.13534 
L 221.203482 278.434867 
L 222.303831 282.620719 
L 223.404179 286.337863 
L 224.504528 289.617875 
L 225.604877 292.488618 
L 226.705226 294.974476 
L 227.805574 297.096567 
L 228.905923 298.872916 
L 230.006272 300.318613 
L 231.106621 301.445939 
L 232.206969 302.264469 
L 233.307318 302.781157 
L 234.407667 303.000392 
L 235.508015 302.924037 
L 236.608364 302.551441 
L 237.708713 301.879442 
L 238.809062 300.902329 
L 239.90941 299.611804 
L 241.009759 297.996903 
L 242.110108 296.043908 
L 243.210456 293.736231 
L 244.310805 291.054267 
L 245.411154 287.975235 
L 246.511503 284.472979 
L 247.611851 280.51775 
L 248.7122 276.07595 
L 251.096289 264.93813 
L 253.241969 253.298473 
L 255.14924 241.667174 
L 257.533329 225.427399 
L 259.887617 208.638316 
L 261.04986 202.667433 
L 262.212103 198.965345 
L 263.374347 197.705091 
L 270.169 197.545472 
L 274.817973 197.321743 
L 275.980217 198.509216 
L 277.14246 202.150883 
L 278.304703 208.07653 
L 280.658991 224.820958 
L 283.04308 241.042578 
L 284.950351 252.674021 
L 287.096031 264.329425 
L 289.48012 275.504095 
L 290.580469 279.975184 
L 291.680817 283.960696 
L 292.781166 287.494489 
L 293.881515 290.606579 
L 294.981864 293.323402 
L 296.082212 295.668037 
L 297.182561 297.660402 
L 298.28291 299.317419 
L 299.383258 300.653164 
L 300.483607 301.678985 
L 301.583956 302.403595 
L 302.684305 302.833149 
L 303.784653 302.971297 
L 304.885002 302.819212 
L 305.985351 302.375601 
L 307.085699 301.636697 
L 308.186048 300.596223 
L 309.286397 299.245341 
L 310.386746 297.572574 
L 311.487094 295.563715 
L 312.587443 293.201698 
L 313.687792 290.46646 
L 314.788141 287.334764 
L 315.888489 283.78001 
L 316.988838 279.772 
L 318.089187 275.276688 
L 320.473276 264.026534 
L 322.618956 252.294586 
L 324.526227 240.588258 
L 326.910316 224.263971 
L 329.264603 207.415862 
L 330.426847 201.455836 
L 331.58909 197.795588 
L 332.751333 196.606203 
L 339.545987 196.940472 
L 344.19496 197.05534 
L 345.357203 198.329998 
L 346.519447 202.061036 
L 347.68169 208.074061 
L 350.035978 224.974488 
L 352.420067 241.320047 
L 354.327338 253.026206 
L 356.473018 264.739705 
L 358.857107 275.946684 
L 359.957455 280.422185 
L 361.057804 284.406794 
L 362.158153 287.934357 
L 363.258502 291.03484 
L 364.35885 293.734581 
L 365.459199 296.056513 
L 366.559548 298.020358 
L 367.659896 299.642801 
L 368.760245 300.937621 
L 369.860594 301.915819 
L 370.960943 302.585704 
L 372.061291 302.952967 
L 373.16164 303.020726 
L 374.261989 302.789557 
L 375.362337 302.257498 
L 376.462686 301.420028 
L 377.563035 300.270033 
L 378.663384 298.797745 
L 379.763732 296.990656 
L 380.864081 294.833418 
L 381.96443 292.307704 
L 383.064778 289.39206 
L 384.165127 286.061718 
L 385.265476 282.288389 
L 386.365825 278.04002 
L 387.466173 273.280523 
L 389.850262 261.388074 
L 391.995942 249.007223 
L 393.903213 236.667753 
L 396.287302 219.477473 
L 400.697867 185.532303 
L 403.081956 167.934781 
L 404.274 158.674959 
L 405.436243 151.131738 
L 406.598487 147.068704 
L 407.76073 146.675768 
L 408.922973 149.971297 
L 412.499107 165.253357 
L 416.254047 180.402827 
L 418.936147 190.661492 
L 420.008987 195.796738 
L 421.081827 203.02478 
L 425.7308 241.795925 
L 427.638071 255.291444 
L 429.783751 268.501567 
L 430.975796 274.938148 
L 432.16784 280.730175 
L 433.24068 285.308626 
L 434.31352 289.244965 
L 435.38636 292.601537 
L 436.578404 295.765135 
L 437.770449 298.400086 
L 438.962493 300.506391 
L 439.990632 301.897564 
L 441.01877 302.896041 
L 442.046908 303.501682 
L 443.075047 303.714402 
L 444.103185 303.53417 
L 445.131323 302.961014 
L 446.159462 301.995012 
L 447.1876 300.6363 
L 448.379644 298.567664 
L 449.571689 295.970381 
L 450.763733 292.844452 
L 452.671004 286.74338 
L 453.62464 283.185344 
L 454.816684 278.262017 
L 456.008729 272.810044 
L 457.200773 266.829424 
L 458.345136 260.111997 
L 459.489499 251.735748 
L 460.633861 241.320614 
L 461.778224 228.394017 
L 462.922587 212.369427 
L 464.114631 192.892814 
L 466.49872 148.346846 
L 467.531825 128.356704 
L 468.56493 110.720365 
L 469.598036 96.110593 
L 470.631141 85.084699 
L 471.664246 78.063281 
L 472.697351 75.314182 
L 473.730456 76.942269 
L 474.763561 82.885437 
L 475.796667 92.916975 
L 478.180756 119.613793 
L 481.280071 151.615494 
L 483.425751 171.979802 
L 485.80984 192.888447 
L 487.001884 201.332916 
L 488.193929 206.920397 
L 489.385973 209.933015 
L 494.771716 217.761535 
L 499.080311 223.676134 
L 503.388905 229.281205 
L 507.697499 234.57675 
L 512.006094 239.562767 
L 516.314688 244.239257 
L 520.623283 248.606219 
L 524.931877 252.663654 
L 529.240471 256.411563 
L 533.549066 259.849944 
L 537.85766 262.978797 
L 542.166254 265.798124 
L 546.474849 268.307923 
L 550.783443 270.508195 
L 555.092038 272.39894 
L 559.400632 273.980158 
L 563.709226 275.251849 
L 565.863524 275.771621 
L 565.863524 275.771621 
" style="fill:none;stroke:#ef4444;stroke-linecap:square;stroke-width:1.5;"/>
   </g>
   <g id="line2d_34">
    <path clip-path="url(#p677fd24227)" d="M 28.78 278.035958 
L 32.011446 277.937529 
L 35.242892 277.660015 
L 38.474337 277.203419 
L 41.705783 276.567739 
L 44.937229 275.752975 
L 48.168675 274.759129 
L 51.40012 273.586198 
L 55.708715 271.743717 
L 60.017309 269.582866 
L 64.325904 267.103644 
L 68.634498 264.306051 
L 72.943092 261.190088 
L 77.251687 257.755754 
L 81.560281 254.00305 
L 85.868876 249.931976 
L 90.17747 245.542531 
L 94.486064 240.834715 
L 98.794659 235.808529 
L 103.103253 230.463972 
L 107.411847 224.801045 
L 111.720442 218.819748 
L 116.029036 212.52008 
L 118.183333 209.250857 
L 119.375378 208.621047 
L 120.567422 210.394522 
L 121.759467 214.482483 
L 125.3356 229.339594 
L 128.196507 240.215083 
L 130.580596 248.592052 
L 131.77264 252.546694 
L 132.805745 255.366223 
L 133.83885 257.170509 
L 134.871956 258.028819 
L 135.905061 257.974105 
L 136.938166 257.004266 
L 137.971271 255.082069 
L 139.004376 252.13372 
L 140.037481 248.046031 
L 141.070587 242.662073 
L 143.454676 227.77787 
L 145.791083 212.629016 
L 146.935445 207.398161 
L 148.079808 204.267217 
L 149.224171 203.377181 
L 150.368533 204.768133 
L 154.898302 214.444047 
L 159.189662 223.06577 
L 164.49426 233.075346 
L 168.606813 240.288268 
L 173.255787 248.149471 
L 174.328627 250.480606 
L 179.931236 264.457648 
L 183.030551 271.260781 
L 185.41464 275.986858 
L 186.48748 277.679811 
L 187.56032 278.746353 
L 188.63316 279.23124 
L 192.209293 279.788102 
L 196.262244 280.131015 
L 198.646333 280.18969 
L 199.808577 279.88827 
L 200.97082 278.964054 
L 202.133063 277.373506 
L 203.295307 275.041704 
L 205.679396 269.122734 
L 207.94428 262.807194 
L 209.01712 259.283774 
L 211.282004 250.538204 
L 213.666093 240.276745 
L 216.527 226.735381 
L 218.911089 214.427902 
L 222.303831 196.205448 
L 224.504528 185.743914 
L 226.705226 176.896605 
L 227.805574 173.174755 
L 228.905923 169.96442 
L 230.006272 167.292955 
L 231.106621 165.183122 
L 232.206969 163.652898 
L 233.307318 162.715323 
L 234.407667 162.378384 
L 235.508015 162.644954 
L 236.608364 163.512759 
L 237.708713 164.974407 
L 238.809062 167.017443 
L 239.90941 169.624458 
L 241.009759 172.77324 
L 242.110108 176.436959 
L 243.210456 180.584396 
L 245.411154 190.185254 
L 247.611851 201.249287 
L 252.288333 226.027908 
L 255.14924 239.58398 
L 257.533329 249.86555 
L 258.725373 254.66026 
L 259.887617 258.556151 
L 261.04986 261.230757 
L 262.212103 262.810067 
L 263.374347 263.368473 
L 268.02332 263.491208 
L 272.433884 263.385203 
L 274.817973 263.237721 
L 275.980217 262.651008 
L 277.14246 261.038979 
L 278.304703 258.325699 
L 279.466947 254.383359 
L 281.851036 244.451333 
L 284.950351 230.138442 
L 287.096031 219.301594 
L 292.781166 189.039327 
L 294.981864 179.243536 
L 296.082212 175.003094 
L 297.182561 171.250412 
L 298.28291 168.017465 
L 299.383258 165.331801 
L 300.483607 163.216302 
L 301.583956 161.688995 
L 302.684305 160.762893 
L 303.784653 160.445887 
L 304.885002 160.740678 
L 305.985351 161.644755 
L 307.085699 163.150413 
L 308.186048 165.244824 
L 309.286397 167.910142 
L 310.386746 171.123657 
L 311.487094 174.857988 
L 312.587443 179.081314 
L 314.788141 188.847155 
L 316.988838 200.089043 
L 321.66532 225.241648 
L 324.526227 238.995643 
L 326.910316 249.423297 
L 328.10236 254.284622 
L 329.264603 258.2374 
L 330.426847 260.958637 
L 331.58909 262.576516 
L 332.751333 263.167249 
L 337.400307 263.40907 
L 341.810871 263.416318 
L 344.19496 263.330166 
L 345.357203 262.774703 
L 346.519447 261.197591 
L 347.68169 258.524541 
L 348.843933 254.629639 
L 351.228022 244.811403 
L 354.327338 230.669258 
L 356.473018 219.965731 
L 362.158153 190.097621 
L 364.35885 180.446055 
L 365.459199 176.272813 
L 366.559548 172.583285 
L 367.659896 169.408906 
L 368.760245 166.776724 
L 369.860594 164.709169 
L 370.960943 163.223855 
L 372.061291 162.33344 
L 373.16164 162.045511 
L 374.261989 162.36252 
L 375.362337 163.281766 
L 376.462686 164.795418 
L 377.563035 166.890577 
L 378.663384 169.549391 
L 379.763732 172.749206 
L 380.864081 176.462757 
L 381.96443 180.658403 
L 384.165127 190.349173 
L 386.365825 201.491935 
L 391.042307 226.3965 
L 393.903213 240.006138 
L 396.287302 250.318945 
L 398.552187 259.108074 
L 399.625027 262.649308 
L 401.889911 268.997437 
L 404.274 274.946866 
L 405.436243 277.29126 
L 406.598487 278.891936 
L 407.76073 279.824294 
L 408.922973 280.132254 
L 412.499107 280.022775 
L 416.254047 279.65184 
L 418.936147 279.22634 
L 420.008987 278.747327 
L 421.081827 277.686854 
L 422.154667 276.000417 
L 424.538756 271.290592 
L 427.638071 264.511802 
L 429.783751 259.384376 
L 434.31352 248.266657 
L 436.578404 244.420469 
L 441.01877 236.921278 
L 445.131323 229.500739 
L 449.571689 220.988327 
L 453.62464 212.765553 
L 457.200773 205.119654 
L 458.345136 203.738546 
L 459.489499 204.630282 
L 460.633861 207.754705 
L 461.778224 212.97111 
L 464.114631 228.072627 
L 466.49872 242.908601 
L 467.531825 248.275137 
L 468.56493 252.350218 
L 469.598036 255.290289 
L 470.631141 257.208221 
L 471.664246 258.177645 
L 472.697351 258.235776 
L 473.730456 257.384846 
L 474.763561 255.592189 
L 475.796667 252.788982 
L 478.180756 244.769107 
L 481.280071 233.416333 
L 484.617796 220.01842 
L 485.80984 214.93894 
L 487.001884 210.874692 
L 488.193929 209.113201 
L 489.385973 209.742665 
L 494.771716 217.736859 
L 499.080311 223.774047 
L 503.388905 229.492865 
L 507.697499 234.893313 
L 512.006094 239.97539 
L 516.314688 244.739097 
L 520.623283 249.184433 
L 524.931877 253.311398 
L 529.240471 257.119994 
L 533.549066 260.610218 
L 537.85766 263.782072 
L 542.166254 266.635556 
L 546.474849 269.170669 
L 550.783443 271.387412 
L 555.092038 273.285784 
L 559.400632 274.865786 
L 562.632078 275.841856 
L 565.863524 276.638843 
L 565.863524 276.638843 
" style="fill:none;stroke:#1d4ed8;stroke-linecap:square;stroke-width:1.5;"/>
   </g>
   <g id="line2d_35">
    <path clip-path="url(#p677fd24227)" d="M 28.78 305.666854 
L 122.951511 305.886449 
L 135.905061 306.165958 
L 141.070587 305.943882 
L 150.368533 305.399843 
L 160.381707 305.004941 
L 161.409845 304.818102 
L 162.437983 304.338674 
L 163.466122 303.566674 
L 164.49426 302.502128 
L 165.522398 301.145075 
L 166.550537 299.495561 
L 167.578675 297.553644 
L 169.798858 292.55795 
L 174.328627 281.909432 
L 181.838507 262.753924 
L 186.48748 251.138312 
L 187.56032 249.229914 
L 188.63316 247.903614 
L 198.646333 238.289166 
L 199.808577 237.590886 
L 200.97082 237.732009 
L 202.133063 238.71088 
L 203.295307 240.516027 
L 207.94428 249.449533 
L 210.08996 254.199512 
L 221.203482 280.328181 
L 223.404179 284.663028 
L 225.604877 288.172032 
L 226.705226 289.626424 
L 227.805574 290.884999 
L 228.905923 291.950429 
L 230.006272 292.824976 
L 231.106621 293.510494 
L 232.206969 294.00844 
L 233.307318 294.319871 
L 234.407667 294.445447 
L 235.508015 294.385434 
L 236.608364 294.139706 
L 237.708713 293.707742 
L 238.809062 293.088623 
L 239.90941 292.281036 
L 241.009759 291.283267 
L 242.110108 290.093198 
L 243.210456 288.708303 
L 244.310805 287.125643 
L 246.511503 283.353164 
L 248.7122 278.743713 
L 258.725373 255.780401 
L 259.887617 253.43326 
L 261.04986 251.739854 
L 262.212103 250.720028 
L 263.374347 250.385735 
L 274.817973 250.487797 
L 275.980217 250.842183 
L 277.14246 251.88067 
L 278.304703 253.591087 
L 279.466947 255.95339 
L 290.580469 281.467444 
L 292.781166 285.689973 
L 294.981864 289.095381 
L 296.082212 290.500969 
L 297.182561 291.712596 
L 298.28291 292.732835 
L 299.383258 293.56385 
L 300.483607 294.207407 
L 301.583956 294.664869 
L 302.684305 294.93721 
L 303.784653 295.025006 
L 304.885002 294.928444 
L 305.985351 294.64732 
L 307.085699 294.181035 
L 308.186048 293.528601 
L 309.286397 292.688634 
L 310.386746 291.659349 
L 311.487094 290.438562 
L 312.587443 289.023683 
L 313.687792 287.411708 
L 315.888489 283.582358 
L 318.089187 278.917984 
L 328.10236 255.708686 
L 329.264603 253.333469 
L 330.426847 251.613155 
L 331.58909 250.567908 
L 332.751333 250.209976 
L 344.19496 250.088988 
L 345.357203 250.423101 
L 346.519447 251.446226 
L 347.68169 253.146374 
L 348.843933 255.503618 
L 359.957455 280.993956 
L 362.158153 285.207864 
L 364.35885 288.600556 
L 365.459199 289.998217 
L 366.559548 291.200851 
L 367.659896 292.21101 
L 368.760245 293.030839 
L 369.860594 293.662076 
L 370.960943 294.106063 
L 372.061291 294.363742 
L 373.16164 294.435659 
L 374.261989 294.321967 
L 375.362337 294.022425 
L 376.462686 293.536397 
L 377.563035 292.862851 
L 378.663384 292.000358 
L 379.763732 290.947087 
L 380.864081 289.700803 
L 381.96443 288.25886 
L 383.064778 286.618198 
L 385.265476 282.726357 
L 387.466173 277.992221 
L 398.552187 252.001704 
L 400.697867 247.596579 
L 404.274 240.816748 
L 405.436243 239.018304 
L 406.598487 238.042534 
L 407.76073 237.900872 
L 408.922973 238.594979 
L 418.936147 248.157946 
L 420.008987 249.477412 
L 421.081827 251.37639 
L 422.154667 253.835043 
L 434.31352 284.591016 
L 438.962493 295.345132 
L 439.990632 297.567784 
L 441.01877 299.498101 
L 442.046908 301.136016 
L 443.075047 302.481471 
L 444.103185 303.534419 
L 445.131323 304.294822 
L 446.159462 304.762655 
L 447.1876 304.937901 
L 466.49872 305.590673 
L 472.697351 305.752737 
L 480.326436 305.656336 
L 492.617419 305.539728 
L 565.863524 305.647785 
L 565.863524 305.647785 
" style="fill:none;stroke:#10b981;stroke-linecap:square;stroke-width:1.5;"/>
   </g>
   <g id="patch_3">
    <path d="M 28.78 317.72 
L 28.78 51.0736 
" style="fill:none;stroke:#000000;stroke-linecap:square;stroke-linejoin:miter;stroke-width:0.8;"/>
   </g>
   <g id="patch_4">
    <path d="M 565.2 317.72 
L 565.2 51.0736 
" style="fill:none;stroke:#000000;stroke-linecap:square;stroke-linejoin:miter;stroke-width:0.8;"/>
   </g>
   <g id="patch_5">
    <path d="M 28.78 317.72 
L 565.2 317.72 
" style="fill:none;stroke:#000000;stroke-linecap:square;stroke-linejoin:miter;stroke-width:0.8;"/>
   </g>
   <g id="patch_6">
    <path d="M 28.78 51.0736 
L 565.2 51.0736 
" style="fill:none;stroke:#000000;stroke-linecap:square;stroke-linejoin:miter;stroke-width:0.8;"/>
   </g>
   <g id="legend_1">
    <g id="line2d_36">
     <path d="M 37.78 22.14128 
L 57.78 22.14128 
" style="fill:none;stroke:#ef4444;stroke-linecap:square;stroke-width:1.5;"/>
    </g>
    <g id="line2d_37"/>
    <g id="text_17">
     <!-- $\beta_x$ / m -->
     <g transform="translate(65.78 25.64128)scale(0.1 -0.1)">
      <defs>
       <path d="M 13.625 3.375 
L 8.9375 -20.796875 
L -0.09375 -20.796875 
L 14.5 54.34375 
Q 18.84375 76.609375 39.65625 76.609375 
Q 60.75 76.609375 57.171875 57.8125 
Q 54.734375 44.4375 45.21875 39.546875 
Q 58.015625 35.15625 55.515625 22.125 
Q 51.125 -1.078125 27.484375 -1.03125 
Q 17.140625 -0.984375 13.625 3.375 
z
M 15.921875 15.09375 
Q 19.671875 6.59375 29.296875 6.640625 
Q 43.359375 6.640625 46.34375 21.96875 
Q 49.03125 35.75 26.171875 34.671875 
L 27.78125 42.96875 
Q 45.453125 42.671875 48.53125 58.59375 
Q 50.640625 69.34375 39.203125 69.28125 
Q 26.421875 69.28125 23.484375 54.046875 
z
" id="DejaVuSans-Oblique-946"/>
       <path d="M 60.015625 54.6875 
L 34.90625 27.875 
L 50.296875 0 
L 39.984375 0 
L 28.421875 21.6875 
L 8.296875 0 
L -2.59375 0 
L 24.3125 28.8125 
L 10.015625 54.6875 
L 20.3125 54.6875 
L 30.8125 34.90625 
L 49.125 54.6875 
z
" id="DejaVuSans-Oblique-120"/>
       <path id="Inter-Regular-32"/>
       <path d="M 33.375 76.140625 
L 25.71875 76.140625 
L 2.28125 -10.9375 
L 9.9375 -10.9375 
z
" id="Inter-Regular-47"/>
       <path d="M 7.671875 0 
L 16.046875 0 
L 16.046875 34.09375 
C 16.046875 42.078125 21.875 47.734375 28.40625 47.734375 
C 34.765625 47.734375 39.203125 43.578125 39.203125 37.359375 
L 39.203125 0 
L 47.734375 0 
L 47.734375 35.515625 
C 47.734375 42.546875 52.125 47.734375 59.796875 47.734375 
C 65.765625 47.734375 70.875 44.5625 70.875 36.5 
L 70.875 0 
L 79.265625 0 
L 79.265625 36.5 
C 79.265625 49.328125 72.375 55.25 62.640625 55.25 
C 54.828125 55.25 49.109375 51.671875 46.3125 46.015625 
L 45.734375 46.015625 
C 43.046875 51.84375 38.28125 55.25 31.109375 55.25 
C 24 55.25 18.75 51.84375 16.484375 46.015625 
L 15.765625 46.015625 
L 15.765625 54.546875 
L 7.671875 54.546875 
z
" id="Inter-Regular-109"/>
      </defs>
      <use transform="translate(0 0.390625)" xlink:href="#DejaVuSans-Oblique-946"/>
      <use transform="translate(63.818359 -16.015625)scale(0.7)" xlink:href="#DejaVuSans-Oblique-120"/>
      <use transform="translate(107.978516 0.390625)" xlink:href="#Inter-Regular-32"/>
      <use transform="translate(136.103516 0.390625)" xlink:href="#Inter-Regular-47"/>
      <use transform="translate(171.756927 0.390625)" xlink:href="#Inter-Regular-32"/>
      <use transform="translate(199.881927 0.390625)" xlink:href="#Inter-Regular-109"/>
     </g>
    </g>
    <g id="line2d_38">
     <path d="M 258.69 22.14128 
L 278.69 22.14128 
" style="fill:none;stroke:#1d4ed8;stroke-linecap:square;stroke-width:1.5;"/>
    </g>
    <g id="line2d_39"/>
    <g id="text_18">
     <!-- $\beta_y$ / m -->
     <g transform="translate(286.69 25.64128)scale(0.1 -0.1)">
      <defs>
       <path d="M 24.8125 -5.078125 
Q 18.5625 -15.578125 14.625 -18.1875 
Q 10.6875 -20.796875 4.59375 -20.796875 
L -2.484375 -20.796875 
L -0.984375 -13.28125 
L 4.203125 -13.28125 
Q 7.953125 -13.28125 10.59375 -11.234375 
Q 13.234375 -9.1875 16.5 -3.21875 
L 19.28125 2 
L 7.171875 54.6875 
L 16.703125 54.6875 
L 25.78125 12.796875 
L 50.875 54.6875 
L 60.296875 54.6875 
z
" id="DejaVuSans-Oblique-121"/>
      </defs>
      <use transform="translate(0 0.390625)" xlink:href="#DejaVuSans-Oblique-946"/>
      <use transform="translate(63.818359 -16.015625)scale(0.7)" xlink:href="#DejaVuSans-Oblique-121"/>
      <use transform="translate(107.978516 0.390625)" xlink:href="#Inter-Regular-32"/>
      <use transform="translate(136.103516 0.390625)" xlink:href="#Inter-Regular-47"/>
      <use transform="translate(171.756927 0.390625)" xlink:href="#Inter-Regular-32"/>
      <use transform="translate(199.881927 0.390625)" xlink:href="#Inter-Regular-109"/>
     </g>
    </g>
    <g id="line2d_40">
     <path d="M 479.6 22.14128 
L 499.6 22.14128 
" style="fill:none;stroke:#10b981;stroke-linecap:square;stroke-width:1.5;"/>
    </g>
    <g id="line2d_41"/>
    <g id="text_19">
     <!-- 100 $\eta_x$ / m -->
     <g transform="translate(507.6 25.64128)scale(0.1 -0.1)">
      <defs>
       <path d="M 57.859375 33.015625 
L 47.40625 -20.796875 
L 38.421875 -20.796875 
L 48.828125 32.71875 
Q 50.34375 40.484375 48.046875 44.34375 
Q 45.796875 48.1875 39.75 48.1875 
Q 32.46875 48.1875 27.34375 43.5625 
Q 22.265625 38.921875 20.703125 30.90625 
L 14.703125 0 
L 5.671875 0 
L 16.3125 54.6875 
L 25.34375 54.6875 
L 23.6875 46.1875 
Q 27.828125 51.125 32.71875 53.5625 
Q 37.546875 56 43.265625 56 
Q 52.6875 56 56.390625 50.203125 
Q 60.0625 44.34375 57.859375 33.015625 
z
" id="DejaVuSans-Oblique-951"/>
      </defs>
      <use transform="translate(0 0.859375)" xlink:href="#Inter-Regular-49"/>
      <use transform="translate(46.448868 0.859375)" xlink:href="#Inter-Regular-48"/>
      <use transform="translate(108.948883 0.859375)" xlink:href="#Inter-Regular-48"/>
      <use transform="translate(171.448898 0.859375)" xlink:href="#Inter-Regular-32"/>
      <use transform="translate(199.573898 0.859375)" xlink:href="#DejaVuSans-Oblique-951"/>
      <use transform="translate(262.952805 -15.546875)scale(0.7)" xlink:href="#DejaVuSans-Oblique-120"/>
      <use transform="translate(307.112961 0.859375)" xlink:href="#Inter-Regular-32"/>
      <use transform="translate(335.237961 0.859375)" xlink:href="#Inter-Regular-47"/>
      <use transform="translate(370.891373 0.859375)" xlink:href="#Inter-Regular-32"/>
      <use transform="translate(399.016373 0.859375)" xlink:href="#Inter-Regular-109"/>
     </g>
    </g>
   </g>
   <g id="patch_7">
    <path d="M 118.183333 57.422324 
L 121.759467 57.422324 
L 121.759467 44.724876 
L 118.183333 44.724876 
z
" style="fill:#ef4444;"/>
   </g>
   <g id="patch_8">
    <path d="M 125.3356 57.422324 
L 128.196507 57.422324 
L 128.196507 44.724876 
L 125.3356 44.724876 
z
" style="fill:#10b981;"/>
   </g>
   <g id="patch_9">
    <path d="M 131.77264 57.422324 
L 141.070587 57.422324 
L 141.070587 44.724876 
L 131.77264 44.724876 
z
" style="fill:#ef4444;"/>
   </g>
   <g id="patch_10">
    <path d="M 144.64672 57.422324 
L 150.368533 57.422324 
L 150.368533 44.724876 
L 144.64672 44.724876 
z
" style="fill:#ef4444;"/>
   </g>
   <g id="patch_11">
    <path d="M 153.944667 57.422324 
L 156.805573 57.422324 
L 156.805573 44.724876 
L 153.944667 44.724876 
z
" style="fill:#10b981;"/>
   </g>
   <g id="patch_12">
    <path d="M 160.381707 57.422324 
L 168.606813 57.422324 
L 168.606813 44.724876 
L 160.381707 44.724876 
z
" style="fill:#fbbf24;"/>
   </g>
   <g id="patch_13">
    <path d="M 172.182947 57.422324 
L 175.401467 57.422324 
L 175.401467 44.724876 
L 172.182947 44.724876 
z
" style="fill:#ef4444;"/>
   </g>
   <g id="patch_14">
    <path d="M 178.9776 57.422324 
L 181.838507 57.422324 
L 181.838507 44.724876 
L 178.9776 44.724876 
z
" style="fill:#10b981;"/>
   </g>
   <g id="patch_15">
    <path d="M 185.41464 57.422324 
L 188.63316 57.422324 
L 188.63316 44.724876 
L 185.41464 44.724876 
z
" style="fill:#ef4444;"/>
   </g>
   <g id="patch_16">
    <path d="M 192.209293 57.422324 
L 195.0702 57.422324 
L 195.0702 44.724876 
L 192.209293 44.724876 
z
" style="fill:#10b981;"/>
   </g>
   <g id="patch_17">
    <path d="M 198.646333 57.422324 
L 203.295307 57.422324 
L 203.295307 44.724876 
L 198.646333 44.724876 
z
" style="fill:#fbbf24;"/>
   </g>
   <g id="patch_18">
    <path d="M 206.87144 57.422324 
L 210.08996 57.422324 
L 210.08996 44.724876 
L 206.87144 44.724876 
z
" style="fill:#ef4444;"/>
   </g>
   <g id="patch_19">
    <path d="M 213.666093 57.422324 
L 216.527 57.422324 
L 216.527 44.724876 
L 213.666093 44.724876 
z
" style="fill:#10b981;"/>
   </g>
   <g id="patch_20">
    <path d="M 220.103133 57.422324 
L 248.7122 57.422324 
L 248.7122 44.724876 
L 220.103133 44.724876 
z
" style="fill:#fbbf24;"/>
   </g>
   <g id="patch_21">
    <path d="M 252.288333 57.422324 
L 255.14924 57.422324 
L 255.14924 44.724876 
L 252.288333 44.724876 
z
" style="fill:#10b981;"/>
   </g>
   <g id="patch_22">
    <path d="M 258.725373 57.422324 
L 263.374347 57.422324 
L 263.374347 44.724876 
L 258.725373 44.724876 
z
" style="fill:#fbbf24;"/>
   </g>
   <g id="patch_23">
    <path d="M 266.95048 57.422324 
L 271.24184 57.422324 
L 271.24184 44.724876 
L 266.95048 44.724876 
z
" style="fill:#10b981;"/>
   </g>
   <g id="patch_24">
    <path d="M 274.817973 57.422324 
L 279.466947 57.422324 
L 279.466947 44.724876 
L 274.817973 44.724876 
z
" style="fill:#fbbf24;"/>
   </g>
   <g id="patch_25">
    <path d="M 283.04308 57.422324 
L 285.903987 57.422324 
L 285.903987 44.724876 
L 283.04308 44.724876 
z
" style="fill:#10b981;"/>
   </g>
   <g id="patch_26">
    <path d="M 289.48012 57.422324 
L 318.089187 57.422324 
L 318.089187 44.724876 
L 289.48012 44.724876 
z
" style="fill:#fbbf24;"/>
   </g>
   <g id="patch_27">
    <path d="M 321.66532 57.422324 
L 324.526227 57.422324 
L 324.526227 44.724876 
L 321.66532 44.724876 
z
" style="fill:#10b981;"/>
   </g>
   <g id="patch_28">
    <path d="M 328.10236 57.422324 
L 332.751333 57.422324 
L 332.751333 44.724876 
L 328.10236 44.724876 
z
" style="fill:#fbbf24;"/>
   </g>
   <g id="patch_29">
    <path d="M 336.327467 57.422324 
L 340.618827 57.422324 
L 340.618827 44.724876 
L 336.327467 44.724876 
z
" style="fill:#10b981;"/>
   </g>
   <g id="patch_30">
    <path d="M 344.19496 57.422324 
L 348.843933 57.422324 
L 348.843933 44.724876 
L 344.19496 44.724876 
z
" style="fill:#fbbf24;"/>
   </g>
   <g id="patch_31">
    <path d="M 352.420067 57.422324 
L 355.280973 57.422324 
L 355.280973 44.724876 
L 352.420067 44.724876 
z
" style="fill:#10b981;"/>
   </g>
   <g id="patch_32">
    <path d="M 358.857107 57.422324 
L 387.466173 57.422324 
L 387.466173 44.724876 
L 358.857107 44.724876 
z
" style="fill:#fbbf24;"/>
   </g>
   <g id="patch_33">
    <path d="M 391.042307 57.422324 
L 393.903213 57.422324 
L 393.903213 44.724876 
L 391.042307 44.724876 
z
" style="fill:#10b981;"/>
   </g>
   <g id="patch_34">
    <path d="M 397.479347 57.422324 
L 400.697867 57.422324 
L 400.697867 44.724876 
L 397.479347 44.724876 
z
" style="fill:#ef4444;"/>
   </g>
   <g id="patch_35">
    <path d="M 404.274 57.422324 
L 408.922973 57.422324 
L 408.922973 44.724876 
L 404.274 44.724876 
z
" style="fill:#fbbf24;"/>
   </g>
   <g id="patch_36">
    <path d="M 412.499107 57.422324 
L 415.360013 57.422324 
L 415.360013 44.724876 
L 412.499107 44.724876 
z
" style="fill:#10b981;"/>
   </g>
   <g id="patch_37">
    <path d="M 418.936147 57.422324 
L 422.154667 57.422324 
L 422.154667 44.724876 
L 418.936147 44.724876 
z
" style="fill:#ef4444;"/>
   </g>
   <g id="patch_38">
    <path d="M 425.7308 57.422324 
L 428.591707 57.422324 
L 428.591707 44.724876 
L 425.7308 44.724876 
z
" style="fill:#10b981;"/>
   </g>
   <g id="patch_39">
    <path d="M 432.16784 57.422324 
L 435.38636 57.422324 
L 435.38636 44.724876 
L 432.16784 44.724876 
z
" style="fill:#ef4444;"/>
   </g>
   <g id="patch_40">
    <path d="M 438.962493 57.422324 
L 447.1876 57.422324 
L 447.1876 44.724876 
L 438.962493 44.724876 
z
" style="fill:#fbbf24;"/>
   </g>
   <g id="patch_41">
    <path d="M 450.763733 57.422324 
L 453.62464 57.422324 
L 453.62464 44.724876 
L 450.763733 44.724876 
z
" style="fill:#10b981;"/>
   </g>
   <g id="patch_42">
    <path d="M 457.200773 57.422324 
L 462.922587 57.422324 
L 462.922587 44.724876 
L 457.200773 44.724876 
z
" style="fill:#ef4444;"/>
   </g>
   <g id="patch_43">
    <path d="M 466.49872 57.422324 
L 475.796667 57.422324 
L 475.796667 44.724876 
L 466.49872 44.724876 
z
" style="fill:#ef4444;"/>
   </g>
   <g id="patch_44">
    <path d="M 479.3728 57.422324 
L 482.233707 57.422324 
L 482.233707 44.724876 
L 479.3728 44.724876 
z
" style="fill:#10b981;"/>
   </g>
   <g id="patch_45">
    <path d="M 485.80984 57.422324 
L 489.385973 57.422324 
L 489.385973 44.724876 
L 485.80984 44.724876 
z
" style="fill:#ef4444;"/>
   </g>
   <g id="text_20">
    <!-- UQ3 -->
    <g transform="translate(114.622962 39.683184)scale(0.05 -0.05)">
     <defs>
      <path d="M 56.53125 72.734375 
L 56.53125 25.28125 
C 56.53125 14.625 49.21875 6.953125 37.078125 6.953125 
C 24.9375 6.953125 17.609375 14.625 17.609375 25.28125 
L 17.609375 72.734375 
L 8.8125 72.734375 
L 8.8125 24.578125 
C 8.8125 9.65625 19.953125 -1.28125 37.078125 -1.28125 
C 54.1875 -1.28125 65.34375 9.65625 65.34375 24.578125 
L 65.34375 72.734375 
z
" id="Inter-Regular-85"/>
      <path d="M 70.171875 36.359375 
C 70.171875 59.375 56.671875 73.71875 38.0625 73.71875 
C 19.46875 73.71875 5.96875 59.375 5.96875 36.359375 
C 5.96875 13.359375 19.46875 -1 38.0625 -1 
C 42.828125 -1 47.234375 -0.078125 51.171875 1.703125 
L 57.53125 -6.8125 
L 67.1875 -6.8125 
L 57.703125 5.78125 
C 65.453125 12.140625 70.171875 22.734375 70.171875 36.359375 
z
M 35.234375 22.734375 
L 45.984375 8.59375 
C 43.53125 7.703125 40.875 7.25 38.0625 7.25 
C 24.859375 7.25 14.484375 17.46875 14.484375 36.359375 
C 14.484375 55.25 24.859375 65.484375 38.0625 65.484375 
C 51.28125 65.484375 61.65625 55.25 61.65625 36.359375 
C 61.65625 25.390625 58.171875 17.359375 52.625 12.53125 
L 44.890625 22.734375 
z
" id="Inter-Regular-81"/>
      <path d="M 32.109375 -1 
C 46.203125 -1 56.671875 7.84375 56.671875 19.75 
C 56.671875 28.984375 51.203125 35.6875 42.046875 37.21875 
L 42.046875 37.78125 
C 49.390625 40.015625 53.984375 46.0625 53.984375 54.265625 
C 53.984375 64.5625 45.84375 73.71875 32.390625 73.71875 
C 19.8125 73.71875 9.375 65.984375 8.953125 54.546875 
L 17.46875 54.546875 
C 17.796875 61.796875 24.6875 66.046875 32.25 66.046875 
C 40.265625 66.046875 45.453125 61.1875 45.453125 53.828125 
C 45.453125 46.171875 39.453125 41.1875 30.828125 41.1875 
L 25 41.1875 
L 25 33.375 
L 30.828125 33.375 
C 41.875 33.375 48.015625 27.765625 48.015625 19.75 
C 48.015625 12.03125 41.296875 6.8125 31.96875 6.8125 
C 23.546875 6.8125 16.875 11.15625 16.34375 18.1875 
L 7.390625 18.1875 
C 7.921875 6.75 18 -1 32.109375 -1 
z
" id="Inter-Regular-51"/>
     </defs>
     <use xlink:href="#Inter-Regular-85"/>
     <use x="74.147751" xlink:href="#Inter-Regular-81"/>
     <use x="150.284134" xlink:href="#Inter-Regular-51"/>
    </g>
   </g>
   <g id="text_21">
    <!-- S5 -->
    <g transform="translate(123.6516 65.078079)scale(0.05 -0.05)">
     <defs>
      <path d="M 48.578125 54.546875 
L 57.109375 54.546875 
C 56.71875 65.515625 46.59375 73.71875 32.53125 73.71875 
C 18.609375 73.71875 7.671875 65.625 7.671875 53.40625 
C 7.671875 43.609375 14.78125 37.78125 26.140625 34.515625 
L 35.09375 31.953125 
C 42.75 29.828125 49.578125 27.125 49.578125 19.890625 
C 49.578125 11.9375 41.90625 6.671875 31.8125 6.671875 
C 23.15625 6.671875 15.484375 10.515625 14.78125 18.75 
L 5.6875 18.75 
C 6.53125 6.8125 16.1875 -1.28125 31.8125 -1.28125 
C 48.578125 -1.28125 58.09375 7.953125 58.09375 19.75 
C 58.09375 33.375 45.171875 37.78125 37.640625 39.765625 
L 30.25 41.765625 
C 24.859375 43.1875 16.1875 46.015625 16.1875 53.828125 
C 16.1875 60.796875 22.59375 65.90625 32.25 65.90625 
C 41.046875 65.90625 47.734375 61.71875 48.578125 54.546875 
z
" id="Inter-Regular-83"/>
      <path d="M 30.25 -1 
C 44.109375 -1 54.265625 9.234375 54.265625 23.15625 
C 54.265625 37.25 44.46875 47.578125 31.109375 47.578125 
C 26.203125 47.578125 21.453125 45.84375 18.46875 43.46875 
L 18.046875 43.46875 
L 20.59375 64.921875 
L 51 64.921875 
L 51 72.734375 
L 13.21875 72.734375 
L 8.8125 36.9375 
L 17.046875 35.9375 
C 20.0625 38.109375 25.21875 39.671875 29.6875 39.625 
C 38.953125 39.5625 45.734375 32.53125 45.734375 23.015625 
C 45.734375 13.671875 39.203125 6.8125 30.25 6.8125 
C 22.796875 6.8125 16.875 11.609375 16.1875 18.1875 
L 7.671875 18.1875 
C 8.203125 7.109375 17.75 -1 30.25 -1 
z
" id="Inter-Regular-53"/>
     </defs>
     <use xlink:href="#Inter-Regular-83"/>
     <use x="63.778427" xlink:href="#Inter-Regular-53"/>
    </g>
   </g>
   <g id="text_22">
    <!-- UQ2 -->
    <g transform="translate(131.151301 39.683184)scale(0.05 -0.05)">
     <use xlink:href="#Inter-Regular-85"/>
     <use x="74.147751" xlink:href="#Inter-Regular-81"/>
     <use x="150.284134" xlink:href="#Inter-Regular-50"/>
    </g>
   </g>
   <g id="text_23">
    <!-- UQ1 -->
    <g transform="translate(142.588877 65.078079)scale(0.05 -0.05)">
     <use xlink:href="#Inter-Regular-85"/>
     <use x="74.147751" xlink:href="#Inter-Regular-81"/>
     <use x="150.284134" xlink:href="#Inter-Regular-49"/>
    </g>
   </g>
   <g id="text_24">
    <!-- S3 -->
    <g transform="translate(152.189573 39.683184)scale(0.05 -0.05)">
     <use xlink:href="#Inter-Regular-83"/>
     <use x="63.778427" xlink:href="#Inter-Regular-51"/>
    </g>
   </g>
   <g id="text_25">
    <!-- MB0 -->
    <g transform="translate(159.082151 65.078079)scale(0.05 -0.05)">
     <defs>
      <path d="M 8.8125 72.734375 
L 8.8125 0 
L 17.046875 0 
L 17.046875 55.25 
L 17.75 55.25 
L 40.484375 0 
L 48.4375 0 
L 71.171875 55.25 
L 71.875 55.25 
L 71.875 0 
L 80.109375 0 
L 80.109375 72.734375 
L 69.609375 72.734375 
L 44.890625 12.359375 
L 44.03125 12.359375 
L 19.3125 72.734375 
z
" id="Inter-Regular-77"/>
      <path d="M 8.8125 0 
L 35.09375 0 
C 52.28125 0 59.375 8.375 59.375 19.3125 
C 59.375 30.828125 51.421875 37.078125 44.75 37.5 
L 44.75 38.203125 
C 51 39.921875 56.53125 44.03125 56.53125 53.40625 
C 56.53125 64.0625 49.4375 72.734375 34.234375 72.734375 
L 8.8125 72.734375 
z
M 17.609375 40.765625 
L 17.609375 64.921875 
L 34.234375 64.921875 
C 43.890625 64.921875 48.15625 59.796875 48.15625 53.40625 
C 48.15625 45.734375 41.90625 40.765625 33.953125 40.765625 
z
M 17.609375 7.8125 
L 17.609375 33.09375 
L 35.515625 33.09375 
C 45.03125 33.09375 51 26.703125 51 19.3125 
C 51 12.921875 46.59375 7.8125 35.09375 7.8125 
z
" id="Inter-Regular-66"/>
     </defs>
     <use xlink:href="#Inter-Regular-77"/>
     <use x="88.920471" xlink:href="#Inter-Regular-66"/>
     <use x="153.97731" xlink:href="#Inter-Regular-48"/>
    </g>
   </g>
   <g id="text_26">
    <!-- MQ1 -->
    <g transform="translate(168.504316 39.683184)scale(0.05 -0.05)">
     <use xlink:href="#Inter-Regular-77"/>
     <use x="88.920471" xlink:href="#Inter-Regular-81"/>
     <use x="165.056854" xlink:href="#Inter-Regular-49"/>
    </g>
   </g>
   <g id="text_27">
    <!-- S1A -->
    <g transform="translate(175.96196 65.078079)scale(0.05 -0.05)">
     <defs>
      <path d="M 11.796875 0 
L 19.109375 20.59375 
L 48.515625 20.59375 
L 55.828125 0 
L 65.0625 0 
L 38.359375 72.734375 
L 29.265625 72.734375 
L 2.5625 0 
z
M 33.53125 61.21875 
L 34.09375 61.21875 
L 45.734375 28.40625 
L 21.875 28.40625 
z
" id="Inter-Regular-65"/>
     </defs>
     <use xlink:href="#Inter-Regular-83"/>
     <use x="63.778427" xlink:href="#Inter-Regular-49"/>
     <use x="110.227295" xlink:href="#Inter-Regular-65"/>
    </g>
   </g>
   <g id="text_28">
    <!-- MQ2 -->
    <g transform="translate(181.384447 39.683184)scale(0.05 -0.05)">
     <use xlink:href="#Inter-Regular-77"/>
     <use x="88.920471" xlink:href="#Inter-Regular-81"/>
     <use x="165.056854" xlink:href="#Inter-Regular-50"/>
    </g>
   </g>
   <g id="text_29">
    <!-- S0A -->
    <g transform="translate(188.792481 65.078079)scale(0.05 -0.05)">
     <use xlink:href="#Inter-Regular-83"/>
     <use x="63.778427" xlink:href="#Inter-Regular-48"/>
     <use x="126.278442" xlink:href="#Inter-Regular-65"/>
    </g>
   </g>
   <g id="text_30">
    <!-- B1 -->
    <g transform="translate(198.182929 39.683184)scale(0.05 -0.05)">
     <use xlink:href="#Inter-Regular-66"/>
     <use x="65.056839" xlink:href="#Inter-Regular-49"/>
    </g>
   </g>
   <g id="text_31">
    <!-- Q1A -->
    <g transform="translate(203.725622 65.078079)scale(0.05 -0.05)">
     <use xlink:href="#Inter-Regular-81"/>
     <use x="76.136383" xlink:href="#Inter-Regular-49"/>
     <use x="122.585251" xlink:href="#Inter-Regular-65"/>
    </g>
   </g>
   <g id="text_32">
    <!-- S1 -->
    <g transform="translate(212.340687 39.683184)scale(0.05 -0.05)">
     <use xlink:href="#Inter-Regular-83"/>
     <use x="63.778427" xlink:href="#Inter-Regular-49"/>
    </g>
   </g>
   <g id="text_33">
    <!-- B0 -->
    <g transform="translate(231.218604 65.078079)scale(0.05 -0.05)">
     <use xlink:href="#Inter-Regular-66"/>
     <use x="65.056839" xlink:href="#Inter-Regular-48"/>
    </g>
   </g>
   <g id="text_34">
    <!-- S1 -->
    <g transform="translate(250.962927 39.683184)scale(0.05 -0.05)">
     <use xlink:href="#Inter-Regular-83"/>
     <use x="63.778427" xlink:href="#Inter-Regular-49"/>
    </g>
   </g>
   <g id="text_35">
    <!-- B1 -->
    <g transform="translate(258.261969 65.078079)scale(0.05 -0.05)">
     <use xlink:href="#Inter-Regular-66"/>
     <use x="65.056839" xlink:href="#Inter-Regular-49"/>
    </g>
   </g>
   <g id="text_36">
    <!-- S0 -->
    <g transform="translate(265.939129 39.683184)scale(0.05 -0.05)">
     <use xlink:href="#Inter-Regular-83"/>
     <use x="63.778427" xlink:href="#Inter-Regular-48"/>
    </g>
   </g>
   <g id="text_37">
    <!-- B1 -->
    <g transform="translate(274.354569 65.078079)scale(0.05 -0.05)">
     <use xlink:href="#Inter-Regular-66"/>
     <use x="65.056839" xlink:href="#Inter-Regular-49"/>
    </g>
   </g>
   <g id="text_38">
    <!-- S1 -->
    <g transform="translate(281.717674 39.683184)scale(0.05 -0.05)">
     <use xlink:href="#Inter-Regular-83"/>
     <use x="63.778427" xlink:href="#Inter-Regular-49"/>
    </g>
   </g>
   <g id="text_39">
    <!-- B0 -->
    <g transform="translate(300.595591 65.078079)scale(0.05 -0.05)">
     <use xlink:href="#Inter-Regular-66"/>
     <use x="65.056839" xlink:href="#Inter-Regular-48"/>
    </g>
   </g>
   <g id="text_40">
    <!-- S1 -->
    <g transform="translate(320.339914 39.683184)scale(0.05 -0.05)">
     <use xlink:href="#Inter-Regular-83"/>
     <use x="63.778427" xlink:href="#Inter-Regular-49"/>
    </g>
   </g>
   <g id="text_41">
    <!-- B1 -->
    <g transform="translate(327.638956 65.078079)scale(0.05 -0.05)">
     <use xlink:href="#Inter-Regular-66"/>
     <use x="65.056839" xlink:href="#Inter-Regular-49"/>
    </g>
   </g>
   <g id="text_42">
    <!-- S0 -->
    <g transform="translate(335.316115 39.683184)scale(0.05 -0.05)">
     <use xlink:href="#Inter-Regular-83"/>
     <use x="63.778427" xlink:href="#Inter-Regular-48"/>
    </g>
   </g>
   <g id="text_43">
    <!-- B1 -->
    <g transform="translate(343.731556 65.078079)scale(0.05 -0.05)">
     <use xlink:href="#Inter-Regular-66"/>
     <use x="65.056839" xlink:href="#Inter-Regular-49"/>
    </g>
   </g>
   <g id="text_44">
    <!-- S1 -->
    <g transform="translate(351.094661 39.683184)scale(0.05 -0.05)">
     <use xlink:href="#Inter-Regular-83"/>
     <use x="63.778427" xlink:href="#Inter-Regular-49"/>
    </g>
   </g>
   <g id="text_45">
    <!-- B0 -->
    <g transform="translate(369.972577 65.078079)scale(0.05 -0.05)">
     <use xlink:href="#Inter-Regular-66"/>
     <use x="65.056839" xlink:href="#Inter-Regular-48"/>
    </g>
   </g>
   <g id="text_46">
    <!-- S1 -->
    <g transform="translate(389.716901 39.683184)scale(0.05 -0.05)">
     <use xlink:href="#Inter-Regular-83"/>
     <use x="63.778427" xlink:href="#Inter-Regular-49"/>
    </g>
   </g>
   <g id="text_47">
    <!-- Q1A -->
    <g transform="translate(394.333529 65.078079)scale(0.05 -0.05)">
     <use xlink:href="#Inter-Regular-81"/>
     <use x="76.136383" xlink:href="#Inter-Regular-49"/>
     <use x="122.585251" xlink:href="#Inter-Regular-65"/>
    </g>
   </g>
   <g id="text_48">
    <!-- B1 -->
    <g transform="translate(403.810596 39.683184)scale(0.05 -0.05)">
     <use xlink:href="#Inter-Regular-66"/>
     <use x="65.056839" xlink:href="#Inter-Regular-49"/>
    </g>
   </g>
   <g id="text_49">
    <!-- S0A -->
    <g transform="translate(409.082294 65.078079)scale(0.05 -0.05)">
     <use xlink:href="#Inter-Regular-83"/>
     <use x="63.778427" xlink:href="#Inter-Regular-48"/>
     <use x="126.278442" xlink:href="#Inter-Regular-65"/>
    </g>
   </g>
   <g id="text_50">
    <!-- MQ2 -->
    <g transform="translate(414.905954 39.683184)scale(0.05 -0.05)">
     <use xlink:href="#Inter-Regular-77"/>
     <use x="88.920471" xlink:href="#Inter-Regular-81"/>
     <use x="165.056854" xlink:href="#Inter-Regular-50"/>
    </g>
   </g>
   <g id="text_51">
    <!-- S1A -->
    <g transform="translate(422.71516 65.078079)scale(0.05 -0.05)">
     <use xlink:href="#Inter-Regular-83"/>
     <use x="63.778427" xlink:href="#Inter-Regular-49"/>
     <use x="110.227295" xlink:href="#Inter-Regular-65"/>
    </g>
   </g>
   <g id="text_52">
    <!-- MQ1 -->
    <g transform="translate(428.489209 39.683184)scale(0.05 -0.05)">
     <use xlink:href="#Inter-Regular-77"/>
     <use x="88.920471" xlink:href="#Inter-Regular-81"/>
     <use x="165.056854" xlink:href="#Inter-Regular-49"/>
    </g>
   </g>
   <g id="text_53">
    <!-- MB0 -->
    <g transform="translate(437.662937 65.078079)scale(0.05 -0.05)">
     <use xlink:href="#Inter-Regular-77"/>
     <use x="88.920471" xlink:href="#Inter-Regular-66"/>
     <use x="153.97731" xlink:href="#Inter-Regular-48"/>
    </g>
   </g>
   <g id="text_54">
    <!-- S3 -->
    <g transform="translate(449.00864 39.683184)scale(0.05 -0.05)">
     <use xlink:href="#Inter-Regular-83"/>
     <use x="63.778427" xlink:href="#Inter-Regular-51"/>
    </g>
   </g>
   <g id="text_55">
    <!-- UQ1 -->
    <g transform="translate(455.14293 65.078079)scale(0.05 -0.05)">
     <use xlink:href="#Inter-Regular-85"/>
     <use x="74.147751" xlink:href="#Inter-Regular-81"/>
     <use x="150.284134" xlink:href="#Inter-Regular-49"/>
    </g>
   </g>
   <g id="text_56">
    <!-- UQ2 -->
    <g transform="translate(465.877381 39.683184)scale(0.05 -0.05)">
     <use xlink:href="#Inter-Regular-85"/>
     <use x="74.147751" xlink:href="#Inter-Regular-81"/>
     <use x="150.284134" xlink:href="#Inter-Regular-50"/>
    </g>
   </g>
   <g id="text_57">
    <!-- S5 -->
    <g transform="translate(477.6888 65.078079)scale(0.05 -0.05)">
     <use xlink:href="#Inter-Regular-83"/>
     <use x="63.778427" xlink:href="#Inter-Regular-53"/>
    </g>
   </g>
   <g id="text_58">
    <!-- UQ3 -->
    <g transform="translate(482.249469 39.683184)scale(0.05 -0.05)">
     <use xlink:href="#Inter-Regular-85"/>
     <use x="74.147751" xlink:href="#Inter-Regular-81"/>
     <use x="150.284134" xlink:href="#Inter-Regular-51"/>
    </g>
   </g>
  </g>
 </g>
 <defs>
  <clipPath id="p677fd24227">
   <rect height="266.6464" width="536.42" x="28.78" y="51.0736"/>
  </clipPath>
 </defs>
</svg>
