<?xml version="1.0" encoding="utf-8" standalone="no"?>
<!DOCTYPE svg PUBLIC "-//W3C//DTD SVG 1.1//EN"
  "http://www.w3.org/Graphics/SVG/1.1/DTD/svg11.dtd">
<!-- Created with matplotlib (https://matplotlib.org/) -->
<svg height="345.6pt" version="1.1" viewBox="0 0 576 345.6" width="576pt" xmlns="http://www.w3.org/2000/svg" xmlns:xlink="http://www.w3.org/1999/xlink">
 <metadata>
  <rdf:RDF xmlns:cc="http://creativecommons.org/ns#" xmlns:dc="http://purl.org/dc/elements/1.1/" xmlns:rdf="http://www.w3.org/1999/02/22-rdf-syntax-ns#">
   <cc:Work>
    <dc:type rdf:resource="http://purl.org/dc/dcmitype/StillImage"/>
    <dc:date>2020-12-16T19:49:15.744523</dc:date>
    <dc:format>image/svg+xml</dc:format>
    <dc:creator>
     <cc:Agent>
      <dc:title>Matplotlib v3.3.3, https://matplotlib.org/</dc:title>
     </cc:Agent>
    </dc:creator>
   </cc:Work>
  </rdf:RDF>
 </metadata>
 <defs>
  <style type="text/css">*{stroke-linecap:butt;stroke-linejoin:round;}</style>
 </defs>
 <g id="figure_1">
  <g id="patch_1">
   <path d="M 0 345.6 
L 576 345.6 
L 576 0 
L 0 0 
z
" style="fill:#ffffff;"/>
  </g>
  <g id="axes_1">
   <g id="patch_2">
    <path d="M 28.78 317.72 
L 554.535 317.72 
L 554.535 11.271237 
L 28.78 11.271237 
z
" style="fill:#ffffff;"/>
   </g>
   <g id="matplotlib.axis_1">
    <g id="xtick_1">
     <g id="line2d_1">
      <path clip-path="url(#p529466377f)" d="M 28.78 317.72 
L 28.78 11.271237 
" style="fill:none;stroke:#e5e7eb;stroke-dasharray:3.7,1.6;stroke-dashoffset:0;"/>
     </g>
     <g id="line2d_2">
      <defs>
       <path d="M 0 0 
L 0 3.5 
" id="m5764557565" style="stroke:#000000;stroke-width:0.8;"/>
      </defs>
      <g>
       <use style="stroke:#000000;stroke-width:0.8;" x="28.78" xlink:href="#m5764557565" y="317.72"/>
      </g>
     </g>
     <g id="text_1">
      <!-- 0.0 -->
      <g transform="translate(21.151875 331.993437)scale(0.1 -0.1)">
       <defs>
        <path d="M 31.25 -1 
C 47.296875 -1 56.53125 12.609375 56.53125 36.359375 
C 56.53125 59.9375 47.15625 73.71875 31.25 73.71875 
C 15.34375 73.71875 5.96875 59.9375 5.96875 36.359375 
C 5.96875 12.609375 15.203125 -1 31.25 -1 
z
M 31.25 6.8125 
C 20.671875 6.8125 14.484375 17.4375 14.484375 36.359375 
C 14.484375 55.25 20.734375 66.046875 31.25 66.046875 
C 41.765625 66.046875 48.015625 55.25 48.015625 36.359375 
C 48.015625 17.4375 41.828125 6.8125 31.25 6.8125 
z
" id="Inter-Regular-48"/>
        <path d="M 13.78125 -0.5625 
C 17.296875 -0.5625 20.171875 2.3125 20.171875 5.828125 
C 20.171875 9.34375 17.296875 12.21875 13.78125 12.21875 
C 10.265625 12.21875 7.390625 9.34375 7.390625 5.828125 
C 7.390625 2.3125 10.265625 -0.5625 13.78125 -0.5625 
z
" id="Inter-Regular-46"/>
       </defs>
       <use xlink:href="#Inter-Regular-48"/>
       <use x="62.500015" xlink:href="#Inter-Regular-46"/>
       <use x="90.056839" xlink:href="#Inter-Regular-48"/>
      </g>
     </g>
    </g>
    <g id="xtick_2">
     <g id="line2d_3">
      <path clip-path="url(#p529466377f)" d="M 94.499375 317.72 
L 94.499375 11.271237 
" style="fill:none;stroke:#e5e7eb;stroke-dasharray:3.7,1.6;stroke-dashoffset:0;"/>
     </g>
     <g id="line2d_4">
      <g>
       <use style="stroke:#000000;stroke-width:0.8;" x="94.499375" xlink:href="#m5764557565" y="317.72"/>
      </g>
     </g>
     <g id="text_2">
      <!-- 2.5 -->
      <g transform="translate(87.055625 331.993437)scale(0.1 -0.1)">
       <defs>
        <path d="M 7.53125 0 
L 53.40625 0 
L 53.40625 7.8125 
L 19.609375 7.8125 
L 19.609375 8.375 
L 35.9375 25.859375 
C 48.4375 39.234375 52.125 45.484375 52.125 53.546875 
C 52.125 64.765625 43.046875 73.71875 30.25 73.71875 
C 17.515625 73.71875 7.8125 65.0625 7.8125 52.265625 
L 16.1875 52.265625 
C 16.1875 60.546875 21.5625 66.046875 29.96875 66.046875 
C 37.859375 66.046875 43.890625 61.21875 43.890625 53.546875 
C 43.890625 46.84375 39.953125 41.875 31.53125 32.671875 
L 7.53125 6.390625 
z
" id="Inter-Regular-50"/>
        <path d="M 30.25 -1 
C 44.109375 -1 54.265625 9.234375 54.265625 23.15625 
C 54.265625 37.25 44.46875 47.578125 31.109375 47.578125 
C 26.203125 47.578125 21.453125 45.84375 18.46875 43.46875 
L 18.046875 43.46875 
L 20.59375 64.921875 
L 51 64.921875 
L 51 72.734375 
L 13.21875 72.734375 
L 8.8125 36.9375 
L 17.046875 35.9375 
C 20.0625 38.109375 25.21875 39.671875 29.6875 39.625 
C 38.953125 39.5625 45.734375 32.53125 45.734375 23.015625 
C 45.734375 13.671875 39.203125 6.8125 30.25 6.8125 
C 22.796875 6.8125 16.875 11.609375 16.1875 18.1875 
L 7.671875 18.1875 
C 8.203125 7.109375 17.75 -1 30.25 -1 
z
" id="Inter-Regular-53"/>
       </defs>
       <use xlink:href="#Inter-Regular-50"/>
       <use x="60.511383" xlink:href="#Inter-Regular-46"/>
       <use x="88.068207" xlink:href="#Inter-Regular-53"/>
      </g>
     </g>
    </g>
    <g id="xtick_3">
     <g id="line2d_5">
      <path clip-path="url(#p529466377f)" d="M 160.21875 317.72 
L 160.21875 11.271237 
" style="fill:none;stroke:#e5e7eb;stroke-dasharray:3.7,1.6;stroke-dashoffset:0;"/>
     </g>
     <g id="line2d_6">
      <g>
       <use style="stroke:#000000;stroke-width:0.8;" x="160.21875" xlink:href="#m5764557565" y="317.72"/>
      </g>
     </g>
     <g id="text_3">
      <!-- 5.0 -->
      <g transform="translate(152.675781 331.993437)scale(0.1 -0.1)">
       <use xlink:href="#Inter-Regular-53"/>
       <use x="60.795471" xlink:href="#Inter-Regular-46"/>
       <use x="88.352295" xlink:href="#Inter-Regular-48"/>
      </g>
     </g>
    </g>
    <g id="xtick_4">
     <g id="line2d_7">
      <path clip-path="url(#p529466377f)" d="M 225.938125 317.72 
L 225.938125 11.271237 
" style="fill:none;stroke:#e5e7eb;stroke-dasharray:3.7,1.6;stroke-dashoffset:0;"/>
     </g>
     <g id="line2d_8">
      <g>
       <use style="stroke:#000000;stroke-width:0.8;" x="225.938125" xlink:href="#m5764557565" y="317.72"/>
      </g>
     </g>
     <g id="text_4">
      <!-- 7.5 -->
      <g transform="translate(218.664688 331.993437)scale(0.1 -0.1)">
       <defs>
        <path d="M 9.796875 0 
L 19.03125 0 
L 51.421875 64.484375 
L 51.421875 72.734375 
L 4.828125 72.734375 
L 4.828125 64.921875 
L 42.328125 64.921875 
L 42.328125 64.34375 
z
" id="Inter-Regular-55"/>
       </defs>
       <use xlink:href="#Inter-Regular-55"/>
       <use x="57.10228" xlink:href="#Inter-Regular-46"/>
       <use x="84.659103" xlink:href="#Inter-Regular-53"/>
      </g>
     </g>
    </g>
    <g id="xtick_5">
     <g id="line2d_9">
      <path clip-path="url(#p529466377f)" d="M 291.6575 317.72 
L 291.6575 11.271237 
" style="fill:none;stroke:#e5e7eb;stroke-dasharray:3.7,1.6;stroke-dashoffset:0;"/>
     </g>
     <g id="line2d_10">
      <g>
       <use style="stroke:#000000;stroke-width:0.8;" x="291.6575" xlink:href="#m5764557565" y="317.72"/>
      </g>
     </g>
     <g id="text_5">
      <!-- 10.0 -->
      <g transform="translate(281.706719 331.993437)scale(0.1 -0.1)">
       <defs>
        <path d="M 33.09375 72.734375 
L 24.296875 72.734375 
L 6.109375 60.65625 
L 6.109375 51.703125 
L 23.859375 63.5 
L 24.296875 63.5 
L 24.296875 0 
L 33.09375 0 
z
" id="Inter-Regular-49"/>
       </defs>
       <use xlink:href="#Inter-Regular-49"/>
       <use x="46.448868" xlink:href="#Inter-Regular-48"/>
       <use x="108.948883" xlink:href="#Inter-Regular-46"/>
       <use x="136.505707" xlink:href="#Inter-Regular-48"/>
      </g>
     </g>
    </g>
    <g id="xtick_6">
     <g id="line2d_11">
      <path clip-path="url(#p529466377f)" d="M 357.376875 317.72 
L 357.376875 11.271237 
" style="fill:none;stroke:#e5e7eb;stroke-dasharray:3.7,1.6;stroke-dashoffset:0;"/>
     </g>
     <g id="line2d_12">
      <g>
       <use style="stroke:#000000;stroke-width:0.8;" x="357.376875" xlink:href="#m5764557565" y="317.72"/>
      </g>
     </g>
     <g id="text_6">
      <!-- 12.5 -->
      <g transform="translate(347.610469 331.993437)scale(0.1 -0.1)">
       <use xlink:href="#Inter-Regular-49"/>
       <use x="46.448868" xlink:href="#Inter-Regular-50"/>
       <use x="106.960251" xlink:href="#Inter-Regular-46"/>
       <use x="134.517075" xlink:href="#Inter-Regular-53"/>
      </g>
     </g>
    </g>
    <g id="xtick_7">
     <g id="line2d_13">
      <path clip-path="url(#p529466377f)" d="M 423.09625 317.72 
L 423.09625 11.271237 
" style="fill:none;stroke:#e5e7eb;stroke-dasharray:3.7,1.6;stroke-dashoffset:0;"/>
     </g>
     <g id="line2d_14">
      <g>
       <use style="stroke:#000000;stroke-width:0.8;" x="423.09625" xlink:href="#m5764557565" y="317.72"/>
      </g>
     </g>
     <g id="text_7">
      <!-- 15.0 -->
      <g transform="translate(413.230625 331.993437)scale(0.1 -0.1)">
       <use xlink:href="#Inter-Regular-49"/>
       <use x="46.448868" xlink:href="#Inter-Regular-53"/>
       <use x="107.244339" xlink:href="#Inter-Regular-46"/>
       <use x="134.801163" xlink:href="#Inter-Regular-48"/>
      </g>
     </g>
    </g>
    <g id="xtick_8">
     <g id="line2d_15">
      <path clip-path="url(#p529466377f)" d="M 488.815625 317.72 
L 488.815625 11.271237 
" style="fill:none;stroke:#e5e7eb;stroke-dasharray:3.7,1.6;stroke-dashoffset:0;"/>
     </g>
     <g id="line2d_16">
      <g>
       <use style="stroke:#000000;stroke-width:0.8;" x="488.815625" xlink:href="#m5764557565" y="317.72"/>
      </g>
     </g>
     <g id="text_8">
      <!-- 17.5 -->
      <g transform="translate(479.219531 331.993437)scale(0.1 -0.1)">
       <use xlink:href="#Inter-Regular-49"/>
       <use x="46.448868" xlink:href="#Inter-Regular-55"/>
       <use x="103.551147" xlink:href="#Inter-Regular-46"/>
       <use x="131.107971" xlink:href="#Inter-Regular-53"/>
      </g>
     </g>
    </g>
    <g id="xtick_9">
     <g id="line2d_17">
      <path clip-path="url(#p529466377f)" d="M 554.535 317.72 
L 554.535 11.271237 
" style="fill:none;stroke:#e5e7eb;stroke-dasharray:3.7,1.6;stroke-dashoffset:0;"/>
     </g>
     <g id="line2d_18">
      <g>
       <use style="stroke:#000000;stroke-width:0.8;" x="554.535" xlink:href="#m5764557565" y="317.72"/>
      </g>
     </g>
     <g id="text_9">
      <!-- 20.0 -->
      <g transform="translate(543.881094 331.993437)scale(0.1 -0.1)">
       <use xlink:href="#Inter-Regular-50"/>
       <use x="60.511383" xlink:href="#Inter-Regular-48"/>
       <use x="123.011398" xlink:href="#Inter-Regular-46"/>
       <use x="150.568222" xlink:href="#Inter-Regular-48"/>
      </g>
     </g>
    </g>
   </g>
   <g id="matplotlib.axis_2">
    <g id="ytick_1">
     <g id="line2d_19">
      <path clip-path="url(#p529466377f)" d="M 28.78 303.788708 
L 554.535 303.788708 
" style="fill:none;stroke:#e5e7eb;stroke-dasharray:3.7,1.6;stroke-dashoffset:0;"/>
     </g>
     <g id="line2d_20">
      <defs>
       <path d="M 0 0 
L -3.5 0 
" id="md58871599c" style="stroke:#000000;stroke-width:0.8;"/>
      </defs>
      <g>
       <use style="stroke:#000000;stroke-width:0.8;" x="28.78" xlink:href="#md58871599c" y="303.788708"/>
      </g>
     </g>
     <g id="text_10">
      <!-- 0 -->
      <g transform="translate(15.53 307.425426)scale(0.1 -0.1)">
       <use xlink:href="#Inter-Regular-48"/>
      </g>
     </g>
    </g>
    <g id="ytick_2">
     <g id="line2d_21">
      <path clip-path="url(#p529466377f)" d="M 28.78 267.726222 
L 554.535 267.726222 
" style="fill:none;stroke:#e5e7eb;stroke-dasharray:3.7,1.6;stroke-dashoffset:0;"/>
     </g>
     <g id="line2d_22">
      <g>
       <use style="stroke:#000000;stroke-width:0.8;" x="28.78" xlink:href="#md58871599c" y="267.726222"/>
      </g>
     </g>
     <g id="text_11">
      <!-- 2 -->
      <g transform="translate(15.728438 271.36294)scale(0.1 -0.1)">
       <use xlink:href="#Inter-Regular-50"/>
      </g>
     </g>
    </g>
    <g id="ytick_3">
     <g id="line2d_23">
      <path clip-path="url(#p529466377f)" d="M 28.78 231.663736 
L 554.535 231.663736 
" style="fill:none;stroke:#e5e7eb;stroke-dasharray:3.7,1.6;stroke-dashoffset:0;"/>
     </g>
     <g id="line2d_24">
      <g>
       <use style="stroke:#000000;stroke-width:0.8;" x="28.78" xlink:href="#md58871599c" y="231.663736"/>
      </g>
     </g>
     <g id="text_12">
      <!-- 4 -->
      <g transform="translate(15.359688 235.300455)scale(0.1 -0.1)">
       <defs>
        <path d="M 5.828125 14.921875 
L 40.0625 14.921875 
L 40.0625 0 
L 48.4375 0 
L 48.4375 14.921875 
L 58.375 14.921875 
L 58.375 22.734375 
L 48.4375 22.734375 
L 48.4375 72.734375 
L 37.78125 72.734375 
L 5.828125 22.15625 
z
M 15.34375 22.734375 
L 15.34375 23.296875 
L 39.484375 61.5 
L 40.0625 61.5 
L 40.0625 22.734375 
z
" id="Inter-Regular-52"/>
       </defs>
       <use xlink:href="#Inter-Regular-52"/>
      </g>
     </g>
    </g>
    <g id="ytick_4">
     <g id="line2d_25">
      <path clip-path="url(#p529466377f)" d="M 28.78 195.60125 
L 554.535 195.60125 
" style="fill:none;stroke:#e5e7eb;stroke-dasharray:3.7,1.6;stroke-dashoffset:0;"/>
     </g>
     <g id="line2d_26">
      <g>
       <use style="stroke:#000000;stroke-width:0.8;" x="28.78" xlink:href="#md58871599c" y="195.60125"/>
      </g>
     </g>
     <g id="text_13">
      <!-- 6 -->
      <g transform="translate(15.544063 199.237969)scale(0.1 -0.1)">
       <defs>
        <path d="M 31.671875 -1 
C 46.375 -1.171875 55.96875 9.90625 55.96875 23.4375 
C 55.96875 37.5 45.5625 47.578125 33.09375 47.578125 
C 25.609375 47.578125 19.171875 43.921875 15.203125 37.921875 
L 14.625 37.921875 
C 14.671875 55.78125 21.5625 66.046875 32.8125 66.046875 
C 40.484375 66.046875 45.09375 61.21875 46.734375 54.546875 
L 55.40625 54.546875 
C 53.625 65.984375 45.03125 73.859375 32.8125 73.859375 
C 16.4375 73.859375 6.390625 59.375 6.390625 33.515625 
C 6.390625 6.640625 19.75 -0.859375 31.671875 -1 
z
M 31.671875 6.8125 
C 22.546875 6.8125 15.875 14.59375 15.90625 23.296875 
C 15.953125 32 22.9375 39.765625 31.96875 39.765625 
C 40.875 39.765625 47.4375 32.453125 47.4375 23.4375 
C 47.4375 14.203125 40.59375 6.8125 31.671875 6.8125 
z
" id="Inter-Regular-54"/>
       </defs>
       <use xlink:href="#Inter-Regular-54"/>
      </g>
     </g>
    </g>
    <g id="ytick_5">
     <g id="line2d_27">
      <path clip-path="url(#p529466377f)" d="M 28.78 159.538764 
L 554.535 159.538764 
" style="fill:none;stroke:#e5e7eb;stroke-dasharray:3.7,1.6;stroke-dashoffset:0;"/>
     </g>
     <g id="line2d_28">
      <g>
       <use style="stroke:#000000;stroke-width:0.8;" x="28.78" xlink:href="#md58871599c" y="159.538764"/>
      </g>
     </g>
     <g id="text_14">
      <!-- 8 -->
      <g transform="translate(15.614375 163.175483)scale(0.1 -0.1)">
       <defs>
        <path d="M 30.828125 -1 
C 45.34375 -1 55.46875 7.5 55.546875 19.3125 
C 55.46875 28.515625 49.328125 36.328125 41.484375 37.78125 
L 41.484375 38.203125 
C 48.296875 39.984375 52.765625 46.65625 52.84375 54.40625 
C 52.765625 65.484375 43.46875 73.71875 30.828125 73.71875 
C 18.046875 73.71875 8.734375 65.484375 8.8125 54.40625 
C 8.734375 46.65625 13.21875 39.984375 20.171875 38.203125 
L 20.171875 37.78125 
C 12.1875 36.328125 6.03125 28.515625 6.109375 19.3125 
C 6.03125 7.5 16.15625 -1 30.828125 -1 
z
M 30.828125 41.328125 
C 22.875 41.328125 17.265625 46.3125 17.328125 53.828125 
C 17.265625 61.21875 22.65625 66.046875 30.828125 66.046875 
C 38.84375 66.046875 44.25 61.21875 44.3125 53.828125 
C 44.25 46.3125 38.640625 41.328125 30.828125 41.328125 
z
M 30.828125 6.8125 
C 20.84375 6.8125 14.703125 11.9375 14.78125 19.75 
C 14.703125 27.953125 21.484375 33.8125 30.828125 33.8125 
C 40.015625 33.8125 46.8125 27.953125 46.875 19.75 
C 46.8125 11.9375 40.65625 6.8125 30.828125 6.8125 
z
" id="Inter-Regular-56"/>
       </defs>
       <use xlink:href="#Inter-Regular-56"/>
      </g>
     </g>
    </g>
    <g id="ytick_6">
     <g id="line2d_29">
      <path clip-path="url(#p529466377f)" d="M 28.78 123.476278 
L 554.535 123.476278 
" style="fill:none;stroke:#e5e7eb;stroke-dasharray:3.7,1.6;stroke-dashoffset:0;"/>
     </g>
     <g id="line2d_30">
      <g>
       <use style="stroke:#000000;stroke-width:0.8;" x="28.78" xlink:href="#md58871599c" y="123.476278"/>
      </g>
     </g>
     <g id="text_15">
      <!-- 10 -->
      <g transform="translate(10.884688 127.112997)scale(0.1 -0.1)">
       <use xlink:href="#Inter-Regular-49"/>
       <use x="46.448868" xlink:href="#Inter-Regular-48"/>
      </g>
     </g>
    </g>
    <g id="ytick_7">
     <g id="line2d_31">
      <path clip-path="url(#p529466377f)" d="M 28.78 87.413792 
L 554.535 87.413792 
" style="fill:none;stroke:#e5e7eb;stroke-dasharray:3.7,1.6;stroke-dashoffset:0;"/>
     </g>
     <g id="line2d_32">
      <g>
       <use style="stroke:#000000;stroke-width:0.8;" x="28.78" xlink:href="#md58871599c" y="87.413792"/>
      </g>
     </g>
     <g id="text_16">
      <!-- 12 -->
      <g transform="translate(11.083125 91.050511)scale(0.1 -0.1)">
       <use xlink:href="#Inter-Regular-49"/>
       <use x="46.448868" xlink:href="#Inter-Regular-50"/>
      </g>
     </g>
    </g>
    <g id="ytick_8">
     <g id="line2d_33">
      <path clip-path="url(#p529466377f)" d="M 28.78 51.351306 
L 554.535 51.351306 
" style="fill:none;stroke:#e5e7eb;stroke-dasharray:3.7,1.6;stroke-dashoffset:0;"/>
     </g>
     <g id="line2d_34">
      <g>
       <use style="stroke:#000000;stroke-width:0.8;" x="28.78" xlink:href="#md58871599c" y="51.351306"/>
      </g>
     </g>
     <g id="text_17">
      <!-- 14 -->
      <g transform="translate(10.714375 54.988025)scale(0.1 -0.1)">
       <use xlink:href="#Inter-Regular-49"/>
       <use x="46.448868" xlink:href="#Inter-Regular-52"/>
      </g>
     </g>
    </g>
    <g id="ytick_9">
     <g id="line2d_35">
      <path clip-path="url(#p529466377f)" d="M 28.78 15.28882 
L 554.535 15.28882 
" style="fill:none;stroke:#e5e7eb;stroke-dasharray:3.7,1.6;stroke-dashoffset:0;"/>
     </g>
     <g id="line2d_36">
      <g>
       <use style="stroke:#000000;stroke-width:0.8;" x="28.78" xlink:href="#md58871599c" y="15.28882"/>
      </g>
     </g>
     <g id="text_18">
      <!-- 16 -->
      <g transform="translate(10.89875 18.925539)scale(0.1 -0.1)">
       <use xlink:href="#Inter-Regular-49"/>
       <use x="46.448868" xlink:href="#Inter-Regular-54"/>
      </g>
     </g>
    </g>
   </g>
   <g id="line2d_37">
    <path clip-path="url(#p529466377f)" d="M 28.78 256.232791 
L 94.499375 213.503391 
L 99.756925 236.961276 
L 102.3857 258.730198 
L 105.014475 273.389417 
L 108.957638 286.89055 
L 119.472738 298.070362 
L 121.575758 297.048174 
L 124.204533 294.696597 
L 126.044675 292.340563 
L 131.302225 285.994189 
L 133.931 283.664836 
L 141.817325 273.750961 
L 144.4461 269.471064 
L 152.332425 253.705561 
L 154.9612 247.475121 
L 160.21875 252.289547 
L 164.161912 267.033011 
L 168.105075 278.959463 
L 172.048238 288.068905 
L 190.449663 282.614834 
L 194.392825 269.533816 
L 204.907925 271.159986 
L 208.851088 284.699669 
L 227.252513 286.881386 
L 231.195675 275.028377 
L 241.710775 272.360562 
L 245.653938 283.421179 
L 264.055363 283.882866 
L 267.998525 273.160193 
L 278.513625 274.627719 
L 282.456788 285.812314 
L 291.6575 295.54069 
L 300.858213 285.812314 
L 304.801375 274.627719 
L 315.316475 273.160193 
L 319.259638 283.882866 
L 337.661063 283.421179 
L 341.604225 272.360562 
L 352.119325 275.028377 
L 356.062488 286.881386 
L 374.463913 284.699669 
L 378.407075 271.159986 
L 388.922175 269.533816 
L 392.865338 282.614834 
L 411.266763 288.068905 
L 415.209925 278.959463 
L 419.153088 267.033011 
L 423.09625 252.289547 
L 428.3538 247.475121 
L 430.982575 253.705561 
L 438.8689 269.471064 
L 441.497675 273.750961 
L 449.384 283.664836 
L 452.012775 285.994189 
L 457.270325 292.340563 
L 459.110468 294.696597 
L 461.739243 297.048174 
L 463.842263 298.070362 
L 474.357363 286.89055 
L 478.300525 273.389417 
L 480.9293 258.730198 
L 483.558075 236.961276 
L 488.815625 213.503391 
L 554.535 256.232791 
" style="fill:none;stroke:#ef4444;stroke-linecap:square;stroke-width:1.5;"/>
   </g>
   <g id="line2d_38">
    <path clip-path="url(#p529466377f)" d="M 28.78 240.087238 
L 94.499375 208.187883 
L 99.756925 162.409967 
L 102.3857 109.567977 
L 105.014475 66.639511 
L 108.957638 25.200726 
L 119.472738 78.609158 
L 121.575758 116.711145 
L 124.204533 159.347393 
L 126.044675 185.893004 
L 131.302225 228.854291 
L 133.931 238.587165 
L 141.817325 263.166756 
L 144.4461 269.820276 
L 152.332425 285.161809 
L 154.9612 288.735976 
L 160.21875 289.535861 
L 164.161912 285.353001 
L 168.105075 279.723744 
L 172.048238 272.648088 
L 190.449663 286.279914 
L 194.392825 294.316012 
L 204.907925 292.7988 
L 208.851088 282.981057 
L 227.252513 275.507226 
L 231.195675 285.291873 
L 241.710775 285.529184 
L 245.653938 276.020281 
L 264.055363 277.391574 
L 267.998525 286.989669 
L 278.513625 288.420501 
L 282.456788 280.463895 
L 291.6575 267.871613 
L 300.858213 280.463895 
L 304.801375 288.420501 
L 315.316475 286.989669 
L 319.259638 277.391574 
L 337.661063 276.020281 
L 341.604225 285.529184 
L 352.119325 285.291873 
L 356.062488 275.507226 
L 374.463913 282.981057 
L 378.407075 292.7988 
L 388.922175 294.316012 
L 392.865338 286.279914 
L 411.266763 272.648088 
L 415.209925 279.723744 
L 419.153088 285.353001 
L 423.09625 289.535861 
L 428.3538 288.735976 
L 430.982575 285.161809 
L 438.8689 269.820276 
L 441.497675 263.166756 
L 449.384 238.587165 
L 452.012775 228.854291 
L 457.270325 185.893004 
L 459.110468 159.347393 
L 461.739243 116.711145 
L 463.842263 78.609158 
L 474.357363 25.200726 
L 478.300525 66.639511 
L 480.9293 109.567977 
L 483.558075 162.409967 
L 488.815625 208.187883 
L 554.535 240.087238 
" style="fill:none;stroke:#1d4ed8;stroke-linecap:square;stroke-width:1.5;"/>
   </g>
   <g id="line2d_39">
    <path clip-path="url(#p529466377f)" d="M 28.78 303.790511 
L 94.499375 303.790511 
L 99.756925 303.790193 
L 102.3857 303.789885 
L 105.014475 303.789621 
L 108.957638 303.789285 
L 119.472738 292.156329 
L 121.575758 287.271457 
L 124.204533 281.165368 
L 126.044675 276.891105 
L 131.302225 268.061658 
L 133.931 265.502504 
L 141.817325 257.825043 
L 144.4461 255.265889 
L 152.332425 247.588428 
L 154.9612 245.029274 
L 160.21875 249.262338 
L 164.161912 259.281752 
L 168.105075 269.301166 
L 172.048238 279.320579 
L 190.449663 271.898043 
L 194.392825 258.255446 
L 204.907925 257.253871 
L 208.851088 270.217794 
L 227.252513 267.910368 
L 231.195675 253.798453 
L 241.710775 253.184924 
L 245.653938 266.879735 
L 264.055363 269.312505 
L 267.998525 256.807125 
L 278.513625 257.239395 
L 282.456788 270.039799 
L 291.6575 284.453162 
L 300.858213 270.039799 
L 304.801375 257.239395 
L 315.316475 256.807125 
L 319.259638 269.312505 
L 337.661063 266.879735 
L 341.604225 253.184924 
L 352.119325 253.798453 
L 356.062488 267.910368 
L 374.463913 270.217794 
L 378.407075 257.253871 
L 388.922175 258.255446 
L 392.865338 271.898043 
L 411.266763 279.320579 
L 415.209925 269.301166 
L 419.153088 259.281752 
L 423.09625 249.262338 
L 428.3538 245.029274 
L 430.982575 247.588428 
L 438.8689 255.265889 
L 441.497675 257.825043 
L 449.384 265.502504 
L 452.012775 268.061658 
L 457.270325 276.891105 
L 459.110468 281.165368 
L 461.739243 287.271457 
L 463.842263 292.156329 
L 474.357363 303.789285 
L 478.300525 303.789621 
L 480.9293 303.789885 
L 483.558075 303.790193 
L 488.815625 303.790511 
L 554.535 303.790511 
" style="fill:none;stroke:#10b981;stroke-linecap:square;stroke-width:1.5;"/>
   </g>
   <g id="patch_3">
    <path d="M 28.78 317.72 
L 28.78 11.271237 
" style="fill:none;stroke:#000000;stroke-linecap:square;stroke-linejoin:miter;stroke-width:0.8;"/>
   </g>
   <g id="patch_4">
    <path d="M 554.535 317.72 
L 554.535 11.271237 
" style="fill:none;stroke:#000000;stroke-linecap:square;stroke-linejoin:miter;stroke-width:0.8;"/>
   </g>
   <g id="patch_5">
    <path d="M 28.78 317.72 
L 554.535 317.72 
" style="fill:none;stroke:#000000;stroke-linecap:square;stroke-linejoin:miter;stroke-width:0.8;"/>
   </g>
   <g id="patch_6">
    <path d="M 28.78 11.271237 
L 554.535 11.271237 
" style="fill:none;stroke:#000000;stroke-linecap:square;stroke-linejoin:miter;stroke-width:0.8;"/>
   </g>
  </g>
 </g>
 <defs>
  <clipPath id="p529466377f">
   <rect height="306.448763" width="525.755" x="28.78" y="11.271237"/>
  </clipPath>
 </defs>
</svg>
