<?xml version="1.0" encoding="utf-8" standalone="no"?>
<!DOCTYPE svg PUBLIC "-//W3C//DTD SVG 1.1//EN"
  "http://www.w3.org/Graphics/SVG/1.1/DTD/svg11.dtd">
<!-- Created with matplotlib (https://matplotlib.org/) -->
<svg height="345.6pt" version="1.1" viewBox="0 0 576 345.6" width="576pt" xmlns="http://www.w3.org/2000/svg" xmlns:xlink="http://www.w3.org/1999/xlink">
 <metadata>
  <rdf:RDF xmlns:cc="http://creativecommons.org/ns#" xmlns:dc="http://purl.org/dc/elements/1.1/" xmlns:rdf="http://www.w3.org/1999/02/22-rdf-syntax-ns#">
   <cc:Work>
    <dc:type rdf:resource="http://purl.org/dc/dcmitype/StillImage"/>
    <dc:date>2020-12-16T21:06:01.307096</dc:date>
    <dc:format>image/svg+xml</dc:format>
    <dc:creator>
     <cc:Agent>
      <dc:title>Matplotlib v3.3.3, https://matplotlib.org/</dc:title>
     </cc:Agent>
    </dc:creator>
   </cc:Work>
  </rdf:RDF>
 </metadata>
 <defs>
  <style type="text/css">*{stroke-linecap:butt;stroke-linejoin:round;}</style>
 </defs>
 <g id="figure_1">
  <g id="patch_1">
   <path d="M 0 345.6 
L 576 345.6 
L 576 0 
L 0 0 
z
" style="fill:#ffffff;"/>
  </g>
  <g id="axes_1">
   <g id="patch_2">
    <path d="M 30.4 317.72 
L 554.535 317.72 
L 554.535 10.8 
L 30.4 10.8 
z
" style="fill:#ffffff;"/>
   </g>
   <g id="matplotlib.axis_1">
    <g id="xtick_1">
     <g id="line2d_1">
      <path clip-path="url(#pbe1d140f45)" d="M 30.4 317.72 
L 30.4 10.8 
" style="fill:none;stroke:#e5e7eb;stroke-dasharray:3.7,1.6;stroke-dashoffset:0;"/>
     </g>
     <g id="line2d_2">
      <defs>
       <path d="M 0 0 
L 0 3.5 
" id="m48fb0ee973" style="stroke:#000000;stroke-width:0.8;"/>
      </defs>
      <g>
       <use style="stroke:#000000;stroke-width:0.8;" x="30.4" xlink:href="#m48fb0ee973" y="317.72"/>
      </g>
     </g>
     <g id="text_1">
      <!-- 0.0 -->
      <g transform="translate(22.771875 331.993437)scale(0.1 -0.1)">
       <defs>
        <path d="M 31.25 -1 
C 47.296875 -1 56.53125 12.609375 56.53125 36.359375 
C 56.53125 59.9375 47.15625 73.71875 31.25 73.71875 
C 15.34375 73.71875 5.96875 59.9375 5.96875 36.359375 
C 5.96875 12.609375 15.203125 -1 31.25 -1 
z
M 31.25 6.8125 
C 20.671875 6.8125 14.484375 17.4375 14.484375 36.359375 
C 14.484375 55.25 20.734375 66.046875 31.25 66.046875 
C 41.765625 66.046875 48.015625 55.25 48.015625 36.359375 
C 48.015625 17.4375 41.828125 6.8125 31.25 6.8125 
z
" id="Inter-Regular-48"/>
        <path d="M 13.78125 -0.5625 
C 17.296875 -0.5625 20.171875 2.3125 20.171875 5.828125 
C 20.171875 9.34375 17.296875 12.21875 13.78125 12.21875 
C 10.265625 12.21875 7.390625 9.34375 7.390625 5.828125 
C 7.390625 2.3125 10.265625 -0.5625 13.78125 -0.5625 
z
" id="Inter-Regular-46"/>
       </defs>
       <use xlink:href="#Inter-Regular-48"/>
       <use x="62.500015" xlink:href="#Inter-Regular-46"/>
       <use x="90.056839" xlink:href="#Inter-Regular-48"/>
      </g>
     </g>
    </g>
    <g id="xtick_2">
     <g id="line2d_3">
      <path clip-path="url(#pbe1d140f45)" d="M 95.916875 317.72 
L 95.916875 10.8 
" style="fill:none;stroke:#e5e7eb;stroke-dasharray:3.7,1.6;stroke-dashoffset:0;"/>
     </g>
     <g id="line2d_4">
      <g>
       <use style="stroke:#000000;stroke-width:0.8;" x="95.916875" xlink:href="#m48fb0ee973" y="317.72"/>
      </g>
     </g>
     <g id="text_2">
      <!-- 2.5 -->
      <g transform="translate(88.473125 331.993437)scale(0.1 -0.1)">
       <defs>
        <path d="M 7.53125 0 
L 53.40625 0 
L 53.40625 7.8125 
L 19.609375 7.8125 
L 19.609375 8.375 
L 35.9375 25.859375 
C 48.4375 39.234375 52.125 45.484375 52.125 53.546875 
C 52.125 64.765625 43.046875 73.71875 30.25 73.71875 
C 17.515625 73.71875 7.8125 65.0625 7.8125 52.265625 
L 16.1875 52.265625 
C 16.1875 60.546875 21.5625 66.046875 29.96875 66.046875 
C 37.859375 66.046875 43.890625 61.21875 43.890625 53.546875 
C 43.890625 46.84375 39.953125 41.875 31.53125 32.671875 
L 7.53125 6.390625 
z
" id="Inter-Regular-50"/>
        <path d="M 30.25 -1 
C 44.109375 -1 54.265625 9.234375 54.265625 23.15625 
C 54.265625 37.25 44.46875 47.578125 31.109375 47.578125 
C 26.203125 47.578125 21.453125 45.84375 18.46875 43.46875 
L 18.046875 43.46875 
L 20.59375 64.921875 
L 51 64.921875 
L 51 72.734375 
L 13.21875 72.734375 
L 8.8125 36.9375 
L 17.046875 35.9375 
C 20.0625 38.109375 25.21875 39.671875 29.6875 39.625 
C 38.953125 39.5625 45.734375 32.53125 45.734375 23.015625 
C 45.734375 13.671875 39.203125 6.8125 30.25 6.8125 
C 22.796875 6.8125 16.875 11.609375 16.1875 18.1875 
L 7.671875 18.1875 
C 8.203125 7.109375 17.75 -1 30.25 -1 
z
" id="Inter-Regular-53"/>
       </defs>
       <use xlink:href="#Inter-Regular-50"/>
       <use x="60.511383" xlink:href="#Inter-Regular-46"/>
       <use x="88.068207" xlink:href="#Inter-Regular-53"/>
      </g>
     </g>
    </g>
    <g id="xtick_3">
     <g id="line2d_5">
      <path clip-path="url(#pbe1d140f45)" d="M 161.43375 317.72 
L 161.43375 10.8 
" style="fill:none;stroke:#e5e7eb;stroke-dasharray:3.7,1.6;stroke-dashoffset:0;"/>
     </g>
     <g id="line2d_6">
      <g>
       <use style="stroke:#000000;stroke-width:0.8;" x="161.43375" xlink:href="#m48fb0ee973" y="317.72"/>
      </g>
     </g>
     <g id="text_3">
      <!-- 5.0 -->
      <g transform="translate(153.890781 331.993437)scale(0.1 -0.1)">
       <use xlink:href="#Inter-Regular-53"/>
       <use x="60.795471" xlink:href="#Inter-Regular-46"/>
       <use x="88.352295" xlink:href="#Inter-Regular-48"/>
      </g>
     </g>
    </g>
    <g id="xtick_4">
     <g id="line2d_7">
      <path clip-path="url(#pbe1d140f45)" d="M 226.950625 317.72 
L 226.950625 10.8 
" style="fill:none;stroke:#e5e7eb;stroke-dasharray:3.7,1.6;stroke-dashoffset:0;"/>
     </g>
     <g id="line2d_8">
      <g>
       <use style="stroke:#000000;stroke-width:0.8;" x="226.950625" xlink:href="#m48fb0ee973" y="317.72"/>
      </g>
     </g>
     <g id="text_4">
      <!-- 7.5 -->
      <g transform="translate(219.677188 331.993437)scale(0.1 -0.1)">
       <defs>
        <path d="M 9.796875 0 
L 19.03125 0 
L 51.421875 64.484375 
L 51.421875 72.734375 
L 4.828125 72.734375 
L 4.828125 64.921875 
L 42.328125 64.921875 
L 42.328125 64.34375 
z
" id="Inter-Regular-55"/>
       </defs>
       <use xlink:href="#Inter-Regular-55"/>
       <use x="57.10228" xlink:href="#Inter-Regular-46"/>
       <use x="84.659103" xlink:href="#Inter-Regular-53"/>
      </g>
     </g>
    </g>
    <g id="xtick_5">
     <g id="line2d_9">
      <path clip-path="url(#pbe1d140f45)" d="M 292.4675 317.72 
L 292.4675 10.8 
" style="fill:none;stroke:#e5e7eb;stroke-dasharray:3.7,1.6;stroke-dashoffset:0;"/>
     </g>
     <g id="line2d_10">
      <g>
       <use style="stroke:#000000;stroke-width:0.8;" x="292.4675" xlink:href="#m48fb0ee973" y="317.72"/>
      </g>
     </g>
     <g id="text_5">
      <!-- 10.0 -->
      <g transform="translate(282.516719 331.993437)scale(0.1 -0.1)">
       <defs>
        <path d="M 33.09375 72.734375 
L 24.296875 72.734375 
L 6.109375 60.65625 
L 6.109375 51.703125 
L 23.859375 63.5 
L 24.296875 63.5 
L 24.296875 0 
L 33.09375 0 
z
" id="Inter-Regular-49"/>
       </defs>
       <use xlink:href="#Inter-Regular-49"/>
       <use x="46.448868" xlink:href="#Inter-Regular-48"/>
       <use x="108.948883" xlink:href="#Inter-Regular-46"/>
       <use x="136.505707" xlink:href="#Inter-Regular-48"/>
      </g>
     </g>
    </g>
    <g id="xtick_6">
     <g id="line2d_11">
      <path clip-path="url(#pbe1d140f45)" d="M 357.984375 317.72 
L 357.984375 10.8 
" style="fill:none;stroke:#e5e7eb;stroke-dasharray:3.7,1.6;stroke-dashoffset:0;"/>
     </g>
     <g id="line2d_12">
      <g>
       <use style="stroke:#000000;stroke-width:0.8;" x="357.984375" xlink:href="#m48fb0ee973" y="317.72"/>
      </g>
     </g>
     <g id="text_6">
      <!-- 12.5 -->
      <g transform="translate(348.217969 331.993437)scale(0.1 -0.1)">
       <use xlink:href="#Inter-Regular-49"/>
       <use x="46.448868" xlink:href="#Inter-Regular-50"/>
       <use x="106.960251" xlink:href="#Inter-Regular-46"/>
       <use x="134.517075" xlink:href="#Inter-Regular-53"/>
      </g>
     </g>
    </g>
    <g id="xtick_7">
     <g id="line2d_13">
      <path clip-path="url(#pbe1d140f45)" d="M 423.50125 317.72 
L 423.50125 10.8 
" style="fill:none;stroke:#e5e7eb;stroke-dasharray:3.7,1.6;stroke-dashoffset:0;"/>
     </g>
     <g id="line2d_14">
      <g>
       <use style="stroke:#000000;stroke-width:0.8;" x="423.50125" xlink:href="#m48fb0ee973" y="317.72"/>
      </g>
     </g>
     <g id="text_7">
      <!-- 15.0 -->
      <g transform="translate(413.635625 331.993437)scale(0.1 -0.1)">
       <use xlink:href="#Inter-Regular-49"/>
       <use x="46.448868" xlink:href="#Inter-Regular-53"/>
       <use x="107.244339" xlink:href="#Inter-Regular-46"/>
       <use x="134.801163" xlink:href="#Inter-Regular-48"/>
      </g>
     </g>
    </g>
    <g id="xtick_8">
     <g id="line2d_15">
      <path clip-path="url(#pbe1d140f45)" d="M 489.018125 317.72 
L 489.018125 10.8 
" style="fill:none;stroke:#e5e7eb;stroke-dasharray:3.7,1.6;stroke-dashoffset:0;"/>
     </g>
     <g id="line2d_16">
      <g>
       <use style="stroke:#000000;stroke-width:0.8;" x="489.018125" xlink:href="#m48fb0ee973" y="317.72"/>
      </g>
     </g>
     <g id="text_8">
      <!-- 17.5 -->
      <g transform="translate(479.422031 331.993437)scale(0.1 -0.1)">
       <use xlink:href="#Inter-Regular-49"/>
       <use x="46.448868" xlink:href="#Inter-Regular-55"/>
       <use x="103.551147" xlink:href="#Inter-Regular-46"/>
       <use x="131.107971" xlink:href="#Inter-Regular-53"/>
      </g>
     </g>
    </g>
    <g id="xtick_9">
     <g id="line2d_17">
      <path clip-path="url(#pbe1d140f45)" d="M 554.535 317.72 
L 554.535 10.8 
" style="fill:none;stroke:#e5e7eb;stroke-dasharray:3.7,1.6;stroke-dashoffset:0;"/>
     </g>
     <g id="line2d_18">
      <g>
       <use style="stroke:#000000;stroke-width:0.8;" x="554.535" xlink:href="#m48fb0ee973" y="317.72"/>
      </g>
     </g>
     <g id="text_9">
      <!-- 20.0 -->
      <g transform="translate(543.881094 331.993437)scale(0.1 -0.1)">
       <use xlink:href="#Inter-Regular-50"/>
       <use x="60.511383" xlink:href="#Inter-Regular-48"/>
       <use x="123.011398" xlink:href="#Inter-Regular-46"/>
       <use x="150.568222" xlink:href="#Inter-Regular-48"/>
      </g>
     </g>
    </g>
   </g>
   <g id="matplotlib.axis_2">
    <g id="ytick_1">
     <g id="line2d_19">
      <path clip-path="url(#pbe1d140f45)" d="M 30.4 302.642446 
L 554.535 302.642446 
" style="fill:none;stroke:#e5e7eb;stroke-dasharray:3.7,1.6;stroke-dashoffset:0;"/>
     </g>
     <g id="line2d_20">
      <defs>
       <path d="M 0 0 
L -3.5 0 
" id="m7780c70d04" style="stroke:#000000;stroke-width:0.8;"/>
      </defs>
      <g>
       <use style="stroke:#000000;stroke-width:0.8;" x="30.4" xlink:href="#m7780c70d04" y="302.642446"/>
      </g>
     </g>
     <g id="text_10">
      <!-- 0 -->
      <g transform="translate(17.15 306.279165)scale(0.1 -0.1)">
       <use xlink:href="#Inter-Regular-48"/>
      </g>
     </g>
    </g>
    <g id="ytick_2">
     <g id="line2d_21">
      <path clip-path="url(#pbe1d140f45)" d="M 30.4 242.079964 
L 554.535 242.079964 
" style="fill:none;stroke:#e5e7eb;stroke-dasharray:3.7,1.6;stroke-dashoffset:0;"/>
     </g>
     <g id="line2d_22">
      <g>
       <use style="stroke:#000000;stroke-width:0.8;" x="30.4" xlink:href="#m7780c70d04" y="242.079964"/>
      </g>
     </g>
     <g id="text_11">
      <!-- 10 -->
      <g transform="translate(12.504688 245.716683)scale(0.1 -0.1)">
       <use xlink:href="#Inter-Regular-49"/>
       <use x="46.448868" xlink:href="#Inter-Regular-48"/>
      </g>
     </g>
    </g>
    <g id="ytick_3">
     <g id="line2d_23">
      <path clip-path="url(#pbe1d140f45)" d="M 30.4 181.517482 
L 554.535 181.517482 
" style="fill:none;stroke:#e5e7eb;stroke-dasharray:3.7,1.6;stroke-dashoffset:0;"/>
     </g>
     <g id="line2d_24">
      <g>
       <use style="stroke:#000000;stroke-width:0.8;" x="30.4" xlink:href="#m7780c70d04" y="181.517482"/>
      </g>
     </g>
     <g id="text_12">
      <!-- 20 -->
      <g transform="translate(11.098438 185.1542)scale(0.1 -0.1)">
       <use xlink:href="#Inter-Regular-50"/>
       <use x="60.511383" xlink:href="#Inter-Regular-48"/>
      </g>
     </g>
    </g>
    <g id="ytick_4">
     <g id="line2d_25">
      <path clip-path="url(#pbe1d140f45)" d="M 30.4 120.955 
L 554.535 120.955 
" style="fill:none;stroke:#e5e7eb;stroke-dasharray:3.7,1.6;stroke-dashoffset:0;"/>
     </g>
     <g id="line2d_26">
      <g>
       <use style="stroke:#000000;stroke-width:0.8;" x="30.4" xlink:href="#m7780c70d04" y="120.955"/>
      </g>
     </g>
     <g id="text_13">
      <!-- 30 -->
      <g transform="translate(10.785938 124.591718)scale(0.1 -0.1)">
       <defs>
        <path d="M 32.109375 -1 
C 46.203125 -1 56.671875 7.84375 56.671875 19.75 
C 56.671875 28.984375 51.203125 35.6875 42.046875 37.21875 
L 42.046875 37.78125 
C 49.390625 40.015625 53.984375 46.0625 53.984375 54.265625 
C 53.984375 64.5625 45.84375 73.71875 32.390625 73.71875 
C 19.8125 73.71875 9.375 65.984375 8.953125 54.546875 
L 17.46875 54.546875 
C 17.796875 61.796875 24.6875 66.046875 32.25 66.046875 
C 40.265625 66.046875 45.453125 61.1875 45.453125 53.828125 
C 45.453125 46.171875 39.453125 41.1875 30.828125 41.1875 
L 25 41.1875 
L 25 33.375 
L 30.828125 33.375 
C 41.875 33.375 48.015625 27.765625 48.015625 19.75 
C 48.015625 12.03125 41.296875 6.8125 31.96875 6.8125 
C 23.546875 6.8125 16.875 11.15625 16.34375 18.1875 
L 7.390625 18.1875 
C 7.921875 6.75 18 -1 32.109375 -1 
z
" id="Inter-Regular-51"/>
       </defs>
       <use xlink:href="#Inter-Regular-51"/>
       <use x="63.636383" xlink:href="#Inter-Regular-48"/>
      </g>
     </g>
    </g>
    <g id="ytick_5">
     <g id="line2d_27">
      <path clip-path="url(#pbe1d140f45)" d="M 30.4 60.392517 
L 554.535 60.392517 
" style="fill:none;stroke:#e5e7eb;stroke-dasharray:3.7,1.6;stroke-dashoffset:0;"/>
     </g>
     <g id="line2d_28">
      <g>
       <use style="stroke:#000000;stroke-width:0.8;" x="30.4" xlink:href="#m7780c70d04" y="60.392517"/>
      </g>
     </g>
     <g id="text_14">
      <!-- 40 -->
      <g transform="translate(10.729688 64.029236)scale(0.1 -0.1)">
       <defs>
        <path d="M 5.828125 14.921875 
L 40.0625 14.921875 
L 40.0625 0 
L 48.4375 0 
L 48.4375 14.921875 
L 58.375 14.921875 
L 58.375 22.734375 
L 48.4375 22.734375 
L 48.4375 72.734375 
L 37.78125 72.734375 
L 5.828125 22.15625 
z
M 15.34375 22.734375 
L 15.34375 23.296875 
L 39.484375 61.5 
L 40.0625 61.5 
L 40.0625 22.734375 
z
" id="Inter-Regular-52"/>
       </defs>
       <use xlink:href="#Inter-Regular-52"/>
       <use x="64.204559" xlink:href="#Inter-Regular-48"/>
      </g>
     </g>
    </g>
   </g>
   <g id="line2d_29">
    <path clip-path="url(#pbe1d140f45)" d="M 30.4 200.471261 
L 103.936141 202.531658 
L 112.138853 202.403604 
L 125.242228 233.323265 
L 129.251861 249.039855 
L 133.444941 263.287003 
L 137.454574 274.818082 
L 144.006261 286.95777 
L 155.013096 297.223568 
L 177.419867 297.317743 
L 188.426702 287.145064 
L 193.668052 278.403233 
L 201.713525 257.478548 
L 205.906605 243.929968 
L 213.454149 214.978321 
L 220.005836 200.638754 
L 233.895414 201.538359 
L 240.447101 216.51246 
L 247.994645 245.744781 
L 252.187725 259.338255 
L 260.233198 280.126994 
L 265.474548 288.74346 
L 276.481382 298.448116 
L 298.888154 295.485983 
L 309.894989 282.852377 
L 316.446676 267.424679 
L 320.456309 252.111364 
L 324.649389 233.10495 
L 328.659022 212.068498 
L 341.762397 202.517619 
L 345.77203 219.636236 
L 349.96511 235.802455 
L 353.974742 249.601734 
L 359.216092 260.825477 
L 423.50125 297.033177 
L 487.786408 253.281402 
L 493.027758 240.56953 
L 497.037391 224.789069 
L 501.230471 206.350441 
L 505.240103 186.867025 
L 518.343478 197.159652 
L 522.353111 220.917137 
L 526.546191 242.503707 
L 530.555824 260.030536 
L 537.107511 277.767587 
L 548.114346 292.686955 
L 570.521117 299.808816 
L 577 295.172057 
L 577 295.172057 
" style="fill:none;stroke:#ef4444;stroke-linecap:square;stroke-width:1.5;"/>
   </g>
   <g id="line2d_30">
    <path clip-path="url(#pbe1d140f45)" d="M 30.4 278.083875 
L 103.936141 235.227994 
L 112.138853 228.211765 
L 125.242228 183.835184 
L 129.251861 155.606402 
L 133.444941 122.856777 
L 137.454574 88.4519 
L 144.006261 56.657874 
L 155.013096 52.914377 
L 177.419867 54.759423 
L 188.426702 60.263489 
L 193.668052 80.254602 
L 201.713525 132.597022 
L 205.906605 157.082547 
L 213.454149 196.332059 
L 220.005836 211.480357 
L 233.895414 212.305055 
L 240.447101 198.148726 
L 247.994645 160.60437 
L 252.187725 137.239736 
L 260.233198 87.395216 
L 265.474548 68.67143 
L 276.481382 64.64099 
L 298.888154 65.437086 
L 309.894989 70.227172 
L 316.446676 107.406976 
L 320.456309 146.582701 
L 324.649389 182.852448 
L 328.659022 213.042612 
L 341.762397 248.201499 
L 349.96511 244.053819 
L 353.974742 241.92464 
L 359.216092 245.089533 
L 423.50125 298.681048 
L 487.786408 240.043886 
L 493.027758 237.04082 
L 501.230471 242.428592 
L 505.240103 244.936621 
L 518.343478 210.767546 
L 522.353111 181.008866 
L 526.546191 145.412804 
L 530.555824 107.094017 
L 537.107511 70.909576 
L 548.114346 66.515585 
L 570.521117 66.491594 
L 577 69.064525 
L 577 69.064525 
" style="fill:none;stroke:#1d4ed8;stroke-linecap:square;stroke-width:1.5;"/>
   </g>
   <g id="line2d_31">
    <path clip-path="url(#pbe1d140f45)" d="M 30.4 302.67098 
L 155.013096 302.629935 
L 177.419867 297.552337 
L 188.426702 292.536728 
L 193.668052 289.741633 
L 213.454149 277.524554 
L 220.005836 275.473235 
L 233.895414 275.462738 
L 240.447101 277.505195 
L 260.233198 289.699336 
L 265.474548 292.486701 
L 276.481382 297.482404 
L 298.888154 302.519738 
L 359.216092 302.541871 
L 501.230471 303.235647 
L 505.240103 303.287986 
L 522.353111 303.168163 
L 548.114346 302.779468 
L 570.521117 297.448284 
L 577 294.422181 
L 577 294.422181 
" style="fill:none;stroke:#10b981;stroke-linecap:square;stroke-width:1.5;"/>
   </g>
   <g id="patch_3">
    <path d="M 30.4 317.72 
L 30.4 10.8 
" style="fill:none;stroke:#000000;stroke-linecap:square;stroke-linejoin:miter;stroke-width:0.8;"/>
   </g>
   <g id="patch_4">
    <path d="M 554.535 317.72 
L 554.535 10.8 
" style="fill:none;stroke:#000000;stroke-linecap:square;stroke-linejoin:miter;stroke-width:0.8;"/>
   </g>
   <g id="patch_5">
    <path d="M 30.4 317.72 
L 554.535 317.72 
" style="fill:none;stroke:#000000;stroke-linecap:square;stroke-linejoin:miter;stroke-width:0.8;"/>
   </g>
   <g id="patch_6">
    <path d="M 30.4 10.8 
L 554.535 10.8 
" style="fill:none;stroke:#000000;stroke-linecap:square;stroke-linejoin:miter;stroke-width:0.8;"/>
   </g>
  </g>
 </g>
 <defs>
  <clipPath id="pbe1d140f45">
   <rect height="306.92" width="524.135" x="30.4" y="10.8"/>
  </clipPath>
 </defs>
</svg>
