<?xml version="1.0" encoding="utf-8" standalone="no"?>
<!DOCTYPE svg PUBLIC "-//W3C//DTD SVG 1.1//EN"
  "http://www.w3.org/Graphics/SVG/1.1/DTD/svg11.dtd">
<!-- Created with matplotlib (https://matplotlib.org/) -->
<svg height="345.6pt" version="1.1" viewBox="0 0 576 345.6" width="576pt" xmlns="http://www.w3.org/2000/svg" xmlns:xlink="http://www.w3.org/1999/xlink">
 <metadata>
  <rdf:RDF xmlns:cc="http://creativecommons.org/ns#" xmlns:dc="http://purl.org/dc/elements/1.1/" xmlns:rdf="http://www.w3.org/1999/02/22-rdf-syntax-ns#">
   <cc:Work>
    <dc:type rdf:resource="http://purl.org/dc/dcmitype/StillImage"/>
    <dc:date>2020-12-15T10:10:54.119766</dc:date>
    <dc:format>image/svg+xml</dc:format>
    <dc:creator>
     <cc:Agent>
      <dc:title>Matplotlib v3.3.3, https://matplotlib.org/</dc:title>
     </cc:Agent>
    </dc:creator>
   </cc:Work>
  </rdf:RDF>
 </metadata>
 <defs>
  <style type="text/css">*{stroke-linecap:butt;stroke-linejoin:round;}</style>
 </defs>
 <g id="figure_1">
  <g id="patch_1">
   <path d="M 0 345.6 
L 576 345.6 
L 576 0 
L 0 0 
z
" style="fill:#ffffff;"/>
  </g>
  <g id="axes_1">
   <g id="patch_2">
    <path d="M 39.4 317.72 
L 565.2 317.72 
L 565.2 10.8 
L 39.4 10.8 
z
" style="fill:#ffffff;"/>
   </g>
   <g id="matplotlib.axis_1">
    <g id="xtick_1">
     <g id="line2d_1">
      <path clip-path="url(#pcd0bc33148)" d="M 63.3 317.72 
L 63.3 10.8 
" style="fill:none;stroke:#e5e7eb;stroke-dasharray:3.7,1.6;stroke-dashoffset:0;"/>
     </g>
     <g id="line2d_2">
      <defs>
       <path d="M 0 0 
L 0 3.5 
" id="ma39775d8c3" style="stroke:#000000;stroke-width:0.8;"/>
      </defs>
      <g>
       <use style="stroke:#000000;stroke-width:0.8;" x="63.3" xlink:href="#ma39775d8c3" y="317.72"/>
      </g>
     </g>
     <g id="text_1">
      <!-- −0.020 -->
      <g transform="translate(46.225781 331.993437)scale(0.1 -0.1)">
       <defs>
        <path d="M 55.6875 32.390625 
L 10.234375 32.390625 
L 10.234375 24.4375 
L 55.6875 24.4375 
z
" id="Inter-Regular-8722"/>
        <path d="M 31.25 -1 
C 47.296875 -1 56.53125 12.609375 56.53125 36.359375 
C 56.53125 59.9375 47.15625 73.71875 31.25 73.71875 
C 15.34375 73.71875 5.96875 59.9375 5.96875 36.359375 
C 5.96875 12.609375 15.203125 -1 31.25 -1 
z
M 31.25 6.8125 
C 20.671875 6.8125 14.484375 17.4375 14.484375 36.359375 
C 14.484375 55.25 20.734375 66.046875 31.25 66.046875 
C 41.765625 66.046875 48.015625 55.25 48.015625 36.359375 
C 48.015625 17.4375 41.828125 6.8125 31.25 6.8125 
z
" id="Inter-Regular-48"/>
        <path d="M 13.78125 -0.5625 
C 17.296875 -0.5625 20.171875 2.3125 20.171875 5.828125 
C 20.171875 9.34375 17.296875 12.21875 13.78125 12.21875 
C 10.265625 12.21875 7.390625 9.34375 7.390625 5.828125 
C 7.390625 2.3125 10.265625 -0.5625 13.78125 -0.5625 
z
" id="Inter-Regular-46"/>
        <path d="M 7.53125 0 
L 53.40625 0 
L 53.40625 7.8125 
L 19.609375 7.8125 
L 19.609375 8.375 
L 35.9375 25.859375 
C 48.4375 39.234375 52.125 45.484375 52.125 53.546875 
C 52.125 64.765625 43.046875 73.71875 30.25 73.71875 
C 17.515625 73.71875 7.8125 65.0625 7.8125 52.265625 
L 16.1875 52.265625 
C 16.1875 60.546875 21.5625 66.046875 29.96875 66.046875 
C 37.859375 66.046875 43.890625 61.21875 43.890625 53.546875 
C 43.890625 46.84375 39.953125 41.875 31.53125 32.671875 
L 7.53125 6.390625 
z
" id="Inter-Regular-50"/>
       </defs>
       <use xlink:href="#Inter-Regular-8722"/>
       <use x="65.909103" xlink:href="#Inter-Regular-48"/>
       <use x="128.409119" xlink:href="#Inter-Regular-46"/>
       <use x="155.965942" xlink:href="#Inter-Regular-48"/>
       <use x="218.465958" xlink:href="#Inter-Regular-50"/>
       <use x="278.977341" xlink:href="#Inter-Regular-48"/>
      </g>
     </g>
    </g>
    <g id="xtick_2">
     <g id="line2d_3">
      <path clip-path="url(#pcd0bc33148)" d="M 123.05 317.72 
L 123.05 10.8 
" style="fill:none;stroke:#e5e7eb;stroke-dasharray:3.7,1.6;stroke-dashoffset:0;"/>
     </g>
     <g id="line2d_4">
      <g>
       <use style="stroke:#000000;stroke-width:0.8;" x="123.05" xlink:href="#ma39775d8c3" y="317.72"/>
      </g>
     </g>
     <g id="text_2">
      <!-- −0.015 -->
      <g transform="translate(106.764062 331.993437)scale(0.1 -0.1)">
       <defs>
        <path d="M 33.09375 72.734375 
L 24.296875 72.734375 
L 6.109375 60.65625 
L 6.109375 51.703125 
L 23.859375 63.5 
L 24.296875 63.5 
L 24.296875 0 
L 33.09375 0 
z
" id="Inter-Regular-49"/>
        <path d="M 30.25 -1 
C 44.109375 -1 54.265625 9.234375 54.265625 23.15625 
C 54.265625 37.25 44.46875 47.578125 31.109375 47.578125 
C 26.203125 47.578125 21.453125 45.84375 18.46875 43.46875 
L 18.046875 43.46875 
L 20.59375 64.921875 
L 51 64.921875 
L 51 72.734375 
L 13.21875 72.734375 
L 8.8125 36.9375 
L 17.046875 35.9375 
C 20.0625 38.109375 25.21875 39.671875 29.6875 39.625 
C 38.953125 39.5625 45.734375 32.53125 45.734375 23.015625 
C 45.734375 13.671875 39.203125 6.8125 30.25 6.8125 
C 22.796875 6.8125 16.875 11.609375 16.1875 18.1875 
L 7.671875 18.1875 
C 8.203125 7.109375 17.75 -1 30.25 -1 
z
" id="Inter-Regular-53"/>
       </defs>
       <use xlink:href="#Inter-Regular-8722"/>
       <use x="65.909103" xlink:href="#Inter-Regular-48"/>
       <use x="128.409119" xlink:href="#Inter-Regular-46"/>
       <use x="155.965942" xlink:href="#Inter-Regular-48"/>
       <use x="218.465958" xlink:href="#Inter-Regular-49"/>
       <use x="264.914825" xlink:href="#Inter-Regular-53"/>
      </g>
     </g>
    </g>
    <g id="xtick_3">
     <g id="line2d_5">
      <path clip-path="url(#pcd0bc33148)" d="M 182.8 317.72 
L 182.8 10.8 
" style="fill:none;stroke:#e5e7eb;stroke-dasharray:3.7,1.6;stroke-dashoffset:0;"/>
     </g>
     <g id="line2d_6">
      <g>
       <use style="stroke:#000000;stroke-width:0.8;" x="182.8" xlink:href="#ma39775d8c3" y="317.72"/>
      </g>
     </g>
     <g id="text_3">
      <!-- −0.010 -->
      <g transform="translate(166.428906 331.993437)scale(0.1 -0.1)">
       <use xlink:href="#Inter-Regular-8722"/>
       <use x="65.909103" xlink:href="#Inter-Regular-48"/>
       <use x="128.409119" xlink:href="#Inter-Regular-46"/>
       <use x="155.965942" xlink:href="#Inter-Regular-48"/>
       <use x="218.465958" xlink:href="#Inter-Regular-49"/>
       <use x="264.914825" xlink:href="#Inter-Regular-48"/>
      </g>
     </g>
    </g>
    <g id="xtick_4">
     <g id="line2d_7">
      <path clip-path="url(#pcd0bc33148)" d="M 242.55 317.72 
L 242.55 10.8 
" style="fill:none;stroke:#e5e7eb;stroke-dasharray:3.7,1.6;stroke-dashoffset:0;"/>
     </g>
     <g id="line2d_8">
      <g>
       <use style="stroke:#000000;stroke-width:0.8;" x="242.55" xlink:href="#ma39775d8c3" y="317.72"/>
      </g>
     </g>
     <g id="text_4">
      <!-- −0.005 -->
      <g transform="translate(225.461719 331.993437)scale(0.1 -0.1)">
       <use xlink:href="#Inter-Regular-8722"/>
       <use x="65.909103" xlink:href="#Inter-Regular-48"/>
       <use x="128.409119" xlink:href="#Inter-Regular-46"/>
       <use x="155.965942" xlink:href="#Inter-Regular-48"/>
       <use x="218.465958" xlink:href="#Inter-Regular-48"/>
       <use x="280.965973" xlink:href="#Inter-Regular-53"/>
      </g>
     </g>
    </g>
    <g id="xtick_5">
     <g id="line2d_9">
      <path clip-path="url(#pcd0bc33148)" d="M 302.3 317.72 
L 302.3 10.8 
" style="fill:none;stroke:#e5e7eb;stroke-dasharray:3.7,1.6;stroke-dashoffset:0;"/>
     </g>
     <g id="line2d_10">
      <g>
       <use style="stroke:#000000;stroke-width:0.8;" x="302.3" xlink:href="#ma39775d8c3" y="317.72"/>
      </g>
     </g>
     <g id="text_5">
      <!-- 0.000 -->
      <g transform="translate(288.421875 331.993437)scale(0.1 -0.1)">
       <use xlink:href="#Inter-Regular-48"/>
       <use x="62.500015" xlink:href="#Inter-Regular-46"/>
       <use x="90.056839" xlink:href="#Inter-Regular-48"/>
       <use x="152.556854" xlink:href="#Inter-Regular-48"/>
       <use x="215.05687" xlink:href="#Inter-Regular-48"/>
      </g>
     </g>
    </g>
    <g id="xtick_6">
     <g id="line2d_11">
      <path clip-path="url(#pcd0bc33148)" d="M 362.05 317.72 
L 362.05 10.8 
" style="fill:none;stroke:#e5e7eb;stroke-dasharray:3.7,1.6;stroke-dashoffset:0;"/>
     </g>
     <g id="line2d_12">
      <g>
       <use style="stroke:#000000;stroke-width:0.8;" x="362.05" xlink:href="#ma39775d8c3" y="317.72"/>
      </g>
     </g>
     <g id="text_6">
      <!-- 0.005 -->
      <g transform="translate(348.257031 331.993437)scale(0.1 -0.1)">
       <use xlink:href="#Inter-Regular-48"/>
       <use x="62.500015" xlink:href="#Inter-Regular-46"/>
       <use x="90.056839" xlink:href="#Inter-Regular-48"/>
       <use x="152.556854" xlink:href="#Inter-Regular-48"/>
       <use x="215.05687" xlink:href="#Inter-Regular-53"/>
      </g>
     </g>
    </g>
    <g id="xtick_7">
     <g id="line2d_13">
      <path clip-path="url(#pcd0bc33148)" d="M 421.8 317.72 
L 421.8 10.8 
" style="fill:none;stroke:#e5e7eb;stroke-dasharray:3.7,1.6;stroke-dashoffset:0;"/>
     </g>
     <g id="line2d_14">
      <g>
       <use style="stroke:#000000;stroke-width:0.8;" x="421.8" xlink:href="#ma39775d8c3" y="317.72"/>
      </g>
     </g>
     <g id="text_7">
      <!-- 0.010 -->
      <g transform="translate(408.724219 331.993437)scale(0.1 -0.1)">
       <use xlink:href="#Inter-Regular-48"/>
       <use x="62.500015" xlink:href="#Inter-Regular-46"/>
       <use x="90.056839" xlink:href="#Inter-Regular-48"/>
       <use x="152.556854" xlink:href="#Inter-Regular-49"/>
       <use x="199.005722" xlink:href="#Inter-Regular-48"/>
      </g>
     </g>
    </g>
    <g id="xtick_8">
     <g id="line2d_15">
      <path clip-path="url(#pcd0bc33148)" d="M 481.55 317.72 
L 481.55 10.8 
" style="fill:none;stroke:#e5e7eb;stroke-dasharray:3.7,1.6;stroke-dashoffset:0;"/>
     </g>
     <g id="line2d_16">
      <g>
       <use style="stroke:#000000;stroke-width:0.8;" x="481.55" xlink:href="#ma39775d8c3" y="317.72"/>
      </g>
     </g>
     <g id="text_8">
      <!-- 0.015 -->
      <g transform="translate(468.559375 331.993437)scale(0.1 -0.1)">
       <use xlink:href="#Inter-Regular-48"/>
       <use x="62.500015" xlink:href="#Inter-Regular-46"/>
       <use x="90.056839" xlink:href="#Inter-Regular-48"/>
       <use x="152.556854" xlink:href="#Inter-Regular-49"/>
       <use x="199.005722" xlink:href="#Inter-Regular-53"/>
      </g>
     </g>
    </g>
    <g id="xtick_9">
     <g id="line2d_17">
      <path clip-path="url(#pcd0bc33148)" d="M 541.3 317.72 
L 541.3 10.8 
" style="fill:none;stroke:#e5e7eb;stroke-dasharray:3.7,1.6;stroke-dashoffset:0;"/>
     </g>
     <g id="line2d_18">
      <g>
       <use style="stroke:#000000;stroke-width:0.8;" x="541.3" xlink:href="#ma39775d8c3" y="317.72"/>
      </g>
     </g>
     <g id="text_9">
      <!-- 0.020 -->
      <g transform="translate(527.521094 331.993437)scale(0.1 -0.1)">
       <use xlink:href="#Inter-Regular-48"/>
       <use x="62.500015" xlink:href="#Inter-Regular-46"/>
       <use x="90.056839" xlink:href="#Inter-Regular-48"/>
       <use x="152.556854" xlink:href="#Inter-Regular-50"/>
       <use x="213.068237" xlink:href="#Inter-Regular-48"/>
      </g>
     </g>
    </g>
   </g>
   <g id="matplotlib.axis_2">
    <g id="ytick_1">
     <g id="line2d_19">
      <path clip-path="url(#pcd0bc33148)" d="M 39.4 314.985204 
L 565.2 314.985204 
" style="fill:none;stroke:#e5e7eb;stroke-dasharray:3.7,1.6;stroke-dashoffset:0;"/>
     </g>
     <g id="line2d_20">
      <defs>
       <path d="M 0 0 
L -3.5 0 
" id="m4fea61486f" style="stroke:#000000;stroke-width:0.8;"/>
      </defs>
      <g>
       <use style="stroke:#000000;stroke-width:0.8;" x="39.4" xlink:href="#m4fea61486f" y="314.985204"/>
      </g>
     </g>
     <g id="text_10">
      <!-- −0.2 -->
      <g transform="translate(10.751563 318.621923)scale(0.1 -0.1)">
       <use xlink:href="#Inter-Regular-8722"/>
       <use x="65.909103" xlink:href="#Inter-Regular-48"/>
       <use x="128.409119" xlink:href="#Inter-Regular-46"/>
       <use x="155.965942" xlink:href="#Inter-Regular-50"/>
      </g>
     </g>
    </g>
    <g id="ytick_2">
     <g id="line2d_21">
      <path clip-path="url(#pcd0bc33148)" d="M 39.4 266.192361 
L 565.2 266.192361 
" style="fill:none;stroke:#e5e7eb;stroke-dasharray:3.7,1.6;stroke-dashoffset:0;"/>
     </g>
     <g id="line2d_22">
      <g>
       <use style="stroke:#000000;stroke-width:0.8;" x="39.4" xlink:href="#m4fea61486f" y="266.192361"/>
      </g>
     </g>
     <g id="text_11">
      <!-- −0.1 -->
      <g transform="translate(12.157813 269.82908)scale(0.1 -0.1)">
       <use xlink:href="#Inter-Regular-8722"/>
       <use x="65.909103" xlink:href="#Inter-Regular-48"/>
       <use x="128.409119" xlink:href="#Inter-Regular-46"/>
       <use x="155.965942" xlink:href="#Inter-Regular-49"/>
      </g>
     </g>
    </g>
    <g id="ytick_3">
     <g id="line2d_23">
      <path clip-path="url(#pcd0bc33148)" d="M 39.4 217.399519 
L 565.2 217.399519 
" style="fill:none;stroke:#e5e7eb;stroke-dasharray:3.7,1.6;stroke-dashoffset:0;"/>
     </g>
     <g id="line2d_24">
      <g>
       <use style="stroke:#000000;stroke-width:0.8;" x="39.4" xlink:href="#m4fea61486f" y="217.399519"/>
      </g>
     </g>
     <g id="text_12">
      <!-- 0.0 -->
      <g transform="translate(17.14375 221.036237)scale(0.1 -0.1)">
       <use xlink:href="#Inter-Regular-48"/>
       <use x="62.500015" xlink:href="#Inter-Regular-46"/>
       <use x="90.056839" xlink:href="#Inter-Regular-48"/>
      </g>
     </g>
    </g>
    <g id="ytick_4">
     <g id="line2d_25">
      <path clip-path="url(#pcd0bc33148)" d="M 39.4 168.606676 
L 565.2 168.606676 
" style="fill:none;stroke:#e5e7eb;stroke-dasharray:3.7,1.6;stroke-dashoffset:0;"/>
     </g>
     <g id="line2d_26">
      <g>
       <use style="stroke:#000000;stroke-width:0.8;" x="39.4" xlink:href="#m4fea61486f" y="168.606676"/>
      </g>
     </g>
     <g id="text_13">
      <!-- 0.1 -->
      <g transform="translate(18.748438 172.243395)scale(0.1 -0.1)">
       <use xlink:href="#Inter-Regular-48"/>
       <use x="62.500015" xlink:href="#Inter-Regular-46"/>
       <use x="90.056839" xlink:href="#Inter-Regular-49"/>
      </g>
     </g>
    </g>
    <g id="ytick_5">
     <g id="line2d_27">
      <path clip-path="url(#pcd0bc33148)" d="M 39.4 119.813834 
L 565.2 119.813834 
" style="fill:none;stroke:#e5e7eb;stroke-dasharray:3.7,1.6;stroke-dashoffset:0;"/>
     </g>
     <g id="line2d_28">
      <g>
       <use style="stroke:#000000;stroke-width:0.8;" x="39.4" xlink:href="#m4fea61486f" y="119.813834"/>
      </g>
     </g>
     <g id="text_14">
      <!-- 0.2 -->
      <g transform="translate(17.342188 123.450552)scale(0.1 -0.1)">
       <use xlink:href="#Inter-Regular-48"/>
       <use x="62.500015" xlink:href="#Inter-Regular-46"/>
       <use x="90.056839" xlink:href="#Inter-Regular-50"/>
      </g>
     </g>
    </g>
    <g id="ytick_6">
     <g id="line2d_29">
      <path clip-path="url(#pcd0bc33148)" d="M 39.4 71.020991 
L 565.2 71.020991 
" style="fill:none;stroke:#e5e7eb;stroke-dasharray:3.7,1.6;stroke-dashoffset:0;"/>
     </g>
     <g id="line2d_30">
      <g>
       <use style="stroke:#000000;stroke-width:0.8;" x="39.4" xlink:href="#m4fea61486f" y="71.020991"/>
      </g>
     </g>
     <g id="text_15">
      <!-- 0.3 -->
      <g transform="translate(17.029688 74.65771)scale(0.1 -0.1)">
       <defs>
        <path d="M 32.109375 -1 
C 46.203125 -1 56.671875 7.84375 56.671875 19.75 
C 56.671875 28.984375 51.203125 35.6875 42.046875 37.21875 
L 42.046875 37.78125 
C 49.390625 40.015625 53.984375 46.0625 53.984375 54.265625 
C 53.984375 64.5625 45.84375 73.71875 32.390625 73.71875 
C 19.8125 73.71875 9.375 65.984375 8.953125 54.546875 
L 17.46875 54.546875 
C 17.796875 61.796875 24.6875 66.046875 32.25 66.046875 
C 40.265625 66.046875 45.453125 61.1875 45.453125 53.828125 
C 45.453125 46.171875 39.453125 41.1875 30.828125 41.1875 
L 25 41.1875 
L 25 33.375 
L 30.828125 33.375 
C 41.875 33.375 48.015625 27.765625 48.015625 19.75 
C 48.015625 12.03125 41.296875 6.8125 31.96875 6.8125 
C 23.546875 6.8125 16.875 11.15625 16.34375 18.1875 
L 7.390625 18.1875 
C 7.921875 6.75 18 -1 32.109375 -1 
z
" id="Inter-Regular-51"/>
       </defs>
       <use xlink:href="#Inter-Regular-48"/>
       <use x="62.500015" xlink:href="#Inter-Regular-46"/>
       <use x="90.056839" xlink:href="#Inter-Regular-51"/>
      </g>
     </g>
    </g>
    <g id="ytick_7">
     <g id="line2d_31">
      <path clip-path="url(#pcd0bc33148)" d="M 39.4 22.228148 
L 565.2 22.228148 
" style="fill:none;stroke:#e5e7eb;stroke-dasharray:3.7,1.6;stroke-dashoffset:0;"/>
     </g>
     <g id="line2d_32">
      <g>
       <use style="stroke:#000000;stroke-width:0.8;" x="39.4" xlink:href="#m4fea61486f" y="22.228148"/>
      </g>
     </g>
     <g id="text_16">
      <!-- 0.4 -->
      <g transform="translate(16.973438 25.864867)scale(0.1 -0.1)">
       <defs>
        <path d="M 5.828125 14.921875 
L 40.0625 14.921875 
L 40.0625 0 
L 48.4375 0 
L 48.4375 14.921875 
L 58.375 14.921875 
L 58.375 22.734375 
L 48.4375 22.734375 
L 48.4375 72.734375 
L 37.78125 72.734375 
L 5.828125 22.15625 
z
M 15.34375 22.734375 
L 15.34375 23.296875 
L 39.484375 61.5 
L 40.0625 61.5 
L 40.0625 22.734375 
z
" id="Inter-Regular-52"/>
       </defs>
       <use xlink:href="#Inter-Regular-48"/>
       <use x="62.500015" xlink:href="#Inter-Regular-46"/>
       <use x="90.056839" xlink:href="#Inter-Regular-52"/>
      </g>
     </g>
    </g>
   </g>
   <g id="line2d_33">
    <path clip-path="url(#pcd0bc33148)" d="M 63.3 24.750909 
L 68.128283 35.208602 
L 72.956566 45.28533 
L 77.784848 54.988054 
L 82.613131 64.323736 
L 87.441414 73.299335 
L 92.269697 81.921812 
L 97.09798 90.198127 
L 101.926263 98.135242 
L 106.754545 105.740117 
L 111.582828 113.019712 
L 116.411111 119.980989 
L 121.239394 126.630907 
L 126.067677 132.976427 
L 130.89596 139.024511 
L 135.724242 144.782118 
L 140.552525 150.256209 
L 145.380808 155.453745 
L 150.209091 160.381687 
L 155.037374 165.046994 
L 159.865657 169.456628 
L 164.693939 173.61755 
L 169.522222 177.536719 
L 174.350505 181.221096 
L 179.178788 184.677643 
L 184.007071 187.913319 
L 188.835354 190.935086 
L 193.663636 193.749904 
L 198.491919 196.364733 
L 203.320202 198.786534 
L 208.148485 201.022267 
L 212.976768 203.078895 
L 217.805051 204.963376 
L 222.633333 206.682671 
L 227.461616 208.243742 
L 232.289899 209.653549 
L 237.118182 210.919052 
L 241.946465 212.047212 
L 246.774747 213.044989 
L 251.60303 213.919345 
L 256.431313 214.67724 
L 261.259596 215.325634 
L 266.087879 215.871488 
L 270.916162 216.321763 
L 275.744444 216.683419 
L 280.572727 216.963416 
L 285.40101 217.168717 
L 290.229293 217.30628 
L 295.057576 217.383067 
L 299.885859 217.406039 
L 304.714141 217.382155 
L 309.542424 217.318377 
L 314.370707 217.221665 
L 319.19899 217.09898 
L 324.027273 216.957282 
L 328.855556 216.803532 
L 333.683838 216.644691 
L 338.512121 216.487719 
L 343.340404 216.339576 
L 348.168687 216.207224 
L 352.99697 216.097624 
L 357.825253 216.017734 
L 362.653535 215.974517 
L 367.481818 215.974933 
L 372.310101 216.025943 
L 377.138384 216.134506 
L 381.966667 216.307584 
L 386.794949 216.552137 
L 391.623232 216.875127 
L 396.451515 217.283513 
L 401.279798 217.784255 
L 406.108081 218.384316 
L 410.936364 219.090655 
L 415.764646 219.910233 
L 420.592929 220.850011 
L 425.421212 221.916948 
L 430.249495 223.118007 
L 435.077778 224.460147 
L 439.906061 225.950328 
L 444.734343 227.595513 
L 449.562626 229.402661 
L 454.390909 231.378732 
L 459.219192 233.530688 
L 464.047475 235.865489 
L 468.875758 238.390096 
L 473.70404 241.111469 
L 478.532323 244.036569 
L 483.360606 247.172356 
L 488.188889 250.525792 
L 493.017172 254.103836 
L 497.845455 257.913449 
L 502.673737 261.961593 
L 507.50202 266.255227 
L 512.330303 270.801312 
L 517.158586 275.606809 
L 521.986869 280.678678 
L 526.815152 286.02388 
L 531.643434 291.649376 
L 536.471717 297.562126 
L 541.3 303.769091 
" style="fill:none;stroke:#1f77b4;stroke-linecap:square;stroke-width:1.5;"/>
   </g>
   <g id="line2d_34">
    <path clip-path="url(#pcd0bc33148)" d="M 63.3 174.429581 
L 68.128283 180.849933 
L 72.956566 186.962178 
L 77.784848 192.771315 
L 82.613131 198.282343 
L 87.441414 203.500259 
L 92.269697 208.430064 
L 97.09798 213.076755 
L 101.926263 217.445333 
L 106.754545 221.540794 
L 111.582828 225.368139 
L 116.411111 228.932366 
L 121.239394 232.238473 
L 126.067677 235.29146 
L 130.89596 238.096326 
L 135.724242 240.658068 
L 140.552525 242.981687 
L 145.380808 245.07218 
L 150.209091 246.934546 
L 155.037374 248.573785 
L 159.865657 249.994894 
L 164.693939 251.202874 
L 169.522222 252.202722 
L 174.350505 252.999437 
L 179.178788 253.598018 
L 184.007071 254.003465 
L 188.835354 254.220775 
L 193.663636 254.254947 
L 198.491919 254.110981 
L 203.320202 253.793875 
L 208.148485 253.308627 
L 212.976768 252.660237 
L 217.805051 251.853704 
L 222.633333 250.894025 
L 227.461616 249.786201 
L 232.289899 248.535229 
L 237.118182 247.146109 
L 241.946465 245.623839 
L 246.774747 243.973417 
L 251.60303 242.199844 
L 256.431313 240.308118 
L 261.259596 238.303237 
L 266.087879 236.190199 
L 270.916162 233.974005 
L 275.744444 231.659653 
L 280.572727 229.252141 
L 285.40101 226.756469 
L 290.229293 224.177634 
L 295.057576 221.520636 
L 299.885859 218.790474 
L 304.714141 215.992147 
L 309.542424 213.130652 
L 314.370707 210.21099 
L 319.19899 207.238158 
L 324.027273 204.217156 
L 328.855556 201.152982 
L 333.683838 198.050635 
L 338.512121 194.915114 
L 343.340404 191.751418 
L 348.168687 188.564545 
L 352.99697 185.359494 
L 357.825253 182.141264 
L 362.653535 178.914854 
L 367.481818 175.685263 
L 372.310101 172.457489 
L 377.138384 169.236531 
L 381.966667 166.027388 
L 386.794949 162.835059 
L 391.623232 159.664542 
L 396.451515 156.520836 
L 401.279798 153.40894 
L 406.108081 150.333853 
L 410.936364 147.300574 
L 415.764646 144.314101 
L 420.592929 141.379433 
L 425.421212 138.501569 
L 430.249495 135.685508 
L 435.077778 132.936248 
L 439.906061 130.258789 
L 444.734343 127.658128 
L 449.562626 125.139265 
L 454.390909 122.707199 
L 459.219192 120.366929 
L 464.047475 118.123452 
L 468.875758 115.981768 
L 473.70404 113.946877 
L 478.532323 112.023775 
L 483.360606 110.217463 
L 488.188889 108.532939 
L 493.017172 106.975202 
L 497.845455 105.54925 
L 502.673737 104.260083 
L 507.50202 103.112699 
L 512.330303 102.112097 
L 517.158586 101.263275 
L 521.986869 100.571233 
L 526.815152 100.04097 
L 531.643434 99.677483 
L 536.471717 99.485773 
L 541.3 99.470837 
" style="fill:none;stroke:#ff7f0e;stroke-linecap:square;stroke-width:1.5;"/>
   </g>
   <g id="patch_3">
    <path d="M 39.4 317.72 
L 39.4 10.8 
" style="fill:none;stroke:#000000;stroke-linecap:square;stroke-linejoin:miter;stroke-width:0.8;"/>
   </g>
   <g id="patch_4">
    <path d="M 565.2 317.72 
L 565.2 10.8 
" style="fill:none;stroke:#000000;stroke-linecap:square;stroke-linejoin:miter;stroke-width:0.8;"/>
   </g>
   <g id="patch_5">
    <path d="M 39.4 317.72 
L 565.2 317.72 
" style="fill:none;stroke:#000000;stroke-linecap:square;stroke-linejoin:miter;stroke-width:0.8;"/>
   </g>
   <g id="patch_6">
    <path d="M 39.4 10.8 
L 565.2 10.8 
" style="fill:none;stroke:#000000;stroke-linecap:square;stroke-linejoin:miter;stroke-width:0.8;"/>
   </g>
   <g id="legend_1">
    <g id="patch_7">
     <path d="M 508.9625 47.4375 
L 558.2 47.4375 
Q 560.2 47.4375 560.2 45.4375 
L 560.2 17.8 
Q 560.2 15.8 558.2 15.8 
L 508.9625 15.8 
Q 506.9625 15.8 506.9625 17.8 
L 506.9625 45.4375 
Q 506.9625 47.4375 508.9625 47.4375 
z
" style="fill:#ffffff;opacity:0.8;stroke:#cccccc;stroke-linejoin:miter;"/>
    </g>
    <g id="line2d_35">
     <path d="M 510.9625 23.573438 
L 530.9625 23.573438 
" style="fill:none;stroke:#1f77b4;stroke-linecap:square;stroke-width:1.5;"/>
    </g>
    <g id="line2d_36"/>
    <g id="text_17">
     <!-- nux -->
     <g transform="translate(538.9625 27.073438)scale(0.1 -0.1)">
      <defs>
       <path d="M 16.046875 32.8125 
C 16.046875 42.328125 21.953125 47.734375 29.96875 47.734375 
C 37.75 47.734375 42.46875 42.65625 42.46875 34.09375 
L 42.46875 0 
L 50.859375 0 
L 50.859375 34.65625 
C 50.859375 48.578125 43.4375 55.25 32.390625 55.25 
C 24.15625 55.25 19.03125 51.5625 16.484375 46.015625 
L 15.765625 46.015625 
L 15.765625 54.546875 
L 7.671875 54.546875 
L 7.671875 0 
L 16.046875 0 
z
" id="Inter-Regular-110"/>
       <path d="M 42.046875 22.296875 
C 42.046875 12.078125 34.234375 7.390625 27.984375 7.390625 
C 21.03125 7.390625 16.046875 12.5 16.046875 20.453125 
L 16.046875 54.546875 
L 7.671875 54.546875 
L 7.671875 19.890625 
C 7.671875 5.96875 15.0625 -0.703125 25.28125 -0.703125 
C 33.53125 -0.703125 38.921875 3.6875 41.484375 9.234375 
L 42.046875 9.234375 
L 42.046875 0 
L 50.421875 0 
L 50.421875 54.546875 
L 42.046875 54.546875 
z
" id="Inter-Regular-117"/>
       <path d="M 13.921875 54.546875 
L 4.265625 54.546875 
L 21.59375 27.265625 
L 4.265625 0 
L 13.921875 0 
L 26.984375 21.171875 
L 40.0625 0 
L 49.71875 0 
L 32.109375 27.265625 
L 49.71875 54.546875 
L 40.0625 54.546875 
L 26.984375 32.25 
z
" id="Inter-Regular-120"/>
      </defs>
      <use xlink:href="#Inter-Regular-110"/>
      <use x="58.522736" xlink:href="#Inter-Regular-117"/>
      <use x="116.619339" xlink:href="#Inter-Regular-120"/>
     </g>
    </g>
    <g id="line2d_37">
     <path d="M 510.9625 37.892188 
L 530.9625 37.892188 
" style="fill:none;stroke:#ff7f0e;stroke-linecap:square;stroke-width:1.5;"/>
    </g>
    <g id="line2d_38"/>
    <g id="text_18">
     <!-- nuy -->
     <g transform="translate(538.9625 41.392188)scale(0.1 -0.1)">
      <defs>
       <path d="M 13.0625 -20.3125 
C 20.640625 -20.3125 26 -16.296875 29.125 -7.953125 
L 52.34375 54.40625 
L 43.1875 54.546875 
L 28.125 11.078125 
L 27.5625 11.078125 
L 12.5 54.546875 
L 3.40625 54.546875 
L 23.578125 -0.28125 
L 22.015625 -4.546875 
C 19.03125 -12.71875 15.203125 -13.5 9.09375 -11.9375 
L 6.96875 -19.3125 
C 7.8125 -19.75 10.234375 -20.3125 13.0625 -20.3125 
z
" id="Inter-Regular-121"/>
      </defs>
      <use xlink:href="#Inter-Regular-110"/>
      <use x="58.522736" xlink:href="#Inter-Regular-117"/>
      <use x="116.619339" xlink:href="#Inter-Regular-121"/>
     </g>
    </g>
   </g>
  </g>
 </g>
 <defs>
  <clipPath id="pcd0bc33148">
   <rect height="306.92" width="525.8" x="39.4" y="10.8"/>
  </clipPath>
 </defs>
</svg>
