<?xml version="1.0" encoding="utf-8" standalone="no"?>
<!DOCTYPE svg PUBLIC "-//W3C//DTD SVG 1.1//EN"
  "http://www.w3.org/Graphics/SVG/1.1/DTD/svg11.dtd">
<!-- Created with matplotlib (https://matplotlib.org/) -->
<svg height="345.6pt" version="1.1" viewBox="0 0 576 345.6" width="576pt" xmlns="http://www.w3.org/2000/svg" xmlns:xlink="http://www.w3.org/1999/xlink">
 <metadata>
  <rdf:RDF xmlns:cc="http://creativecommons.org/ns#" xmlns:dc="http://purl.org/dc/elements/1.1/" xmlns:rdf="http://www.w3.org/1999/02/22-rdf-syntax-ns#">
   <cc:Work>
    <dc:type rdf:resource="http://purl.org/dc/dcmitype/StillImage"/>
    <dc:date>2020-12-16T19:49:12.354206</dc:date>
    <dc:format>image/svg+xml</dc:format>
    <dc:creator>
     <cc:Agent>
      <dc:title>Matplotlib v3.3.3, https://matplotlib.org/</dc:title>
     </cc:Agent>
    </dc:creator>
   </cc:Work>
  </rdf:RDF>
 </metadata>
 <defs>
  <style type="text/css">*{stroke-linecap:butt;stroke-linejoin:round;}</style>
 </defs>
 <g id="figure_1">
  <g id="patch_1">
   <path d="M 0 345.6 
L 576 345.6 
L 576 0 
L 0 0 
z
" style="fill:#ffffff;"/>
  </g>
  <g id="axes_1">
   <g id="patch_2">
    <path d="M 38.05 317.72 
L 565.2 317.72 
L 565.2 10.8 
L 38.05 10.8 
z
" style="fill:#ffffff;"/>
   </g>
   <g id="matplotlib.axis_1">
    <g id="xtick_1">
     <g id="line2d_1">
      <path clip-path="url(#pc47fdb0966)" d="M 62.011364 317.72 
L 62.011364 10.8 
" style="fill:none;stroke:#e5e7eb;stroke-dasharray:3.7,1.6;stroke-dashoffset:0;"/>
     </g>
     <g id="line2d_2">
      <defs>
       <path d="M 0 0 
L 0 3.5 
" id="m838d253d87" style="stroke:#000000;stroke-width:0.8;"/>
      </defs>
      <g>
       <use style="stroke:#000000;stroke-width:0.8;" x="62.011364" xlink:href="#m838d253d87" y="317.72"/>
      </g>
     </g>
     <g id="text_1">
      <!-- −0.020 -->
      <g transform="translate(44.937145 331.993437)scale(0.1 -0.1)">
       <defs>
        <path d="M 55.6875 32.390625 
L 10.234375 32.390625 
L 10.234375 24.4375 
L 55.6875 24.4375 
z
" id="Inter-Regular-8722"/>
        <path d="M 31.25 -1 
C 47.296875 -1 56.53125 12.609375 56.53125 36.359375 
C 56.53125 59.9375 47.15625 73.71875 31.25 73.71875 
C 15.34375 73.71875 5.96875 59.9375 5.96875 36.359375 
C 5.96875 12.609375 15.203125 -1 31.25 -1 
z
M 31.25 6.8125 
C 20.671875 6.8125 14.484375 17.4375 14.484375 36.359375 
C 14.484375 55.25 20.734375 66.046875 31.25 66.046875 
C 41.765625 66.046875 48.015625 55.25 48.015625 36.359375 
C 48.015625 17.4375 41.828125 6.8125 31.25 6.8125 
z
" id="Inter-Regular-48"/>
        <path d="M 13.78125 -0.5625 
C 17.296875 -0.5625 20.171875 2.3125 20.171875 5.828125 
C 20.171875 9.34375 17.296875 12.21875 13.78125 12.21875 
C 10.265625 12.21875 7.390625 9.34375 7.390625 5.828125 
C 7.390625 2.3125 10.265625 -0.5625 13.78125 -0.5625 
z
" id="Inter-Regular-46"/>
        <path d="M 7.53125 0 
L 53.40625 0 
L 53.40625 7.8125 
L 19.609375 7.8125 
L 19.609375 8.375 
L 35.9375 25.859375 
C 48.4375 39.234375 52.125 45.484375 52.125 53.546875 
C 52.125 64.765625 43.046875 73.71875 30.25 73.71875 
C 17.515625 73.71875 7.8125 65.0625 7.8125 52.265625 
L 16.1875 52.265625 
C 16.1875 60.546875 21.5625 66.046875 29.96875 66.046875 
C 37.859375 66.046875 43.890625 61.21875 43.890625 53.546875 
C 43.890625 46.84375 39.953125 41.875 31.53125 32.671875 
L 7.53125 6.390625 
z
" id="Inter-Regular-50"/>
       </defs>
       <use xlink:href="#Inter-Regular-8722"/>
       <use x="65.909103" xlink:href="#Inter-Regular-48"/>
       <use x="128.409119" xlink:href="#Inter-Regular-46"/>
       <use x="155.965942" xlink:href="#Inter-Regular-48"/>
       <use x="218.465958" xlink:href="#Inter-Regular-50"/>
       <use x="278.977341" xlink:href="#Inter-Regular-48"/>
      </g>
     </g>
    </g>
    <g id="xtick_2">
     <g id="line2d_3">
      <path clip-path="url(#pc47fdb0966)" d="M 121.914773 317.72 
L 121.914773 10.8 
" style="fill:none;stroke:#e5e7eb;stroke-dasharray:3.7,1.6;stroke-dashoffset:0;"/>
     </g>
     <g id="line2d_4">
      <g>
       <use style="stroke:#000000;stroke-width:0.8;" x="121.914773" xlink:href="#m838d253d87" y="317.72"/>
      </g>
     </g>
     <g id="text_2">
      <!-- −0.015 -->
      <g transform="translate(105.628835 331.993437)scale(0.1 -0.1)">
       <defs>
        <path d="M 33.09375 72.734375 
L 24.296875 72.734375 
L 6.109375 60.65625 
L 6.109375 51.703125 
L 23.859375 63.5 
L 24.296875 63.5 
L 24.296875 0 
L 33.09375 0 
z
" id="Inter-Regular-49"/>
        <path d="M 30.25 -1 
C 44.109375 -1 54.265625 9.234375 54.265625 23.15625 
C 54.265625 37.25 44.46875 47.578125 31.109375 47.578125 
C 26.203125 47.578125 21.453125 45.84375 18.46875 43.46875 
L 18.046875 43.46875 
L 20.59375 64.921875 
L 51 64.921875 
L 51 72.734375 
L 13.21875 72.734375 
L 8.8125 36.9375 
L 17.046875 35.9375 
C 20.0625 38.109375 25.21875 39.671875 29.6875 39.625 
C 38.953125 39.5625 45.734375 32.53125 45.734375 23.015625 
C 45.734375 13.671875 39.203125 6.8125 30.25 6.8125 
C 22.796875 6.8125 16.875 11.609375 16.1875 18.1875 
L 7.671875 18.1875 
C 8.203125 7.109375 17.75 -1 30.25 -1 
z
" id="Inter-Regular-53"/>
       </defs>
       <use xlink:href="#Inter-Regular-8722"/>
       <use x="65.909103" xlink:href="#Inter-Regular-48"/>
       <use x="128.409119" xlink:href="#Inter-Regular-46"/>
       <use x="155.965942" xlink:href="#Inter-Regular-48"/>
       <use x="218.465958" xlink:href="#Inter-Regular-49"/>
       <use x="264.914825" xlink:href="#Inter-Regular-53"/>
      </g>
     </g>
    </g>
    <g id="xtick_3">
     <g id="line2d_5">
      <path clip-path="url(#pc47fdb0966)" d="M 181.818182 317.72 
L 181.818182 10.8 
" style="fill:none;stroke:#e5e7eb;stroke-dasharray:3.7,1.6;stroke-dashoffset:0;"/>
     </g>
     <g id="line2d_6">
      <g>
       <use style="stroke:#000000;stroke-width:0.8;" x="181.818182" xlink:href="#m838d253d87" y="317.72"/>
      </g>
     </g>
     <g id="text_3">
      <!-- −0.010 -->
      <g transform="translate(165.447088 331.993437)scale(0.1 -0.1)">
       <use xlink:href="#Inter-Regular-8722"/>
       <use x="65.909103" xlink:href="#Inter-Regular-48"/>
       <use x="128.409119" xlink:href="#Inter-Regular-46"/>
       <use x="155.965942" xlink:href="#Inter-Regular-48"/>
       <use x="218.465958" xlink:href="#Inter-Regular-49"/>
       <use x="264.914825" xlink:href="#Inter-Regular-48"/>
      </g>
     </g>
    </g>
    <g id="xtick_4">
     <g id="line2d_7">
      <path clip-path="url(#pc47fdb0966)" d="M 241.721591 317.72 
L 241.721591 10.8 
" style="fill:none;stroke:#e5e7eb;stroke-dasharray:3.7,1.6;stroke-dashoffset:0;"/>
     </g>
     <g id="line2d_8">
      <g>
       <use style="stroke:#000000;stroke-width:0.8;" x="241.721591" xlink:href="#m838d253d87" y="317.72"/>
      </g>
     </g>
     <g id="text_4">
      <!-- −0.005 -->
      <g transform="translate(224.63331 331.993437)scale(0.1 -0.1)">
       <use xlink:href="#Inter-Regular-8722"/>
       <use x="65.909103" xlink:href="#Inter-Regular-48"/>
       <use x="128.409119" xlink:href="#Inter-Regular-46"/>
       <use x="155.965942" xlink:href="#Inter-Regular-48"/>
       <use x="218.465958" xlink:href="#Inter-Regular-48"/>
       <use x="280.965973" xlink:href="#Inter-Regular-53"/>
      </g>
     </g>
    </g>
    <g id="xtick_5">
     <g id="line2d_9">
      <path clip-path="url(#pc47fdb0966)" d="M 301.625 317.72 
L 301.625 10.8 
" style="fill:none;stroke:#e5e7eb;stroke-dasharray:3.7,1.6;stroke-dashoffset:0;"/>
     </g>
     <g id="line2d_10">
      <g>
       <use style="stroke:#000000;stroke-width:0.8;" x="301.625" xlink:href="#m838d253d87" y="317.72"/>
      </g>
     </g>
     <g id="text_5">
      <!-- 0.000 -->
      <g transform="translate(287.746875 331.993437)scale(0.1 -0.1)">
       <use xlink:href="#Inter-Regular-48"/>
       <use x="62.500015" xlink:href="#Inter-Regular-46"/>
       <use x="90.056839" xlink:href="#Inter-Regular-48"/>
       <use x="152.556854" xlink:href="#Inter-Regular-48"/>
       <use x="215.05687" xlink:href="#Inter-Regular-48"/>
      </g>
     </g>
    </g>
    <g id="xtick_6">
     <g id="line2d_11">
      <path clip-path="url(#pc47fdb0966)" d="M 361.528409 317.72 
L 361.528409 10.8 
" style="fill:none;stroke:#e5e7eb;stroke-dasharray:3.7,1.6;stroke-dashoffset:0;"/>
     </g>
     <g id="line2d_12">
      <g>
       <use style="stroke:#000000;stroke-width:0.8;" x="361.528409" xlink:href="#m838d253d87" y="317.72"/>
      </g>
     </g>
     <g id="text_6">
      <!-- 0.005 -->
      <g transform="translate(347.73544 331.993437)scale(0.1 -0.1)">
       <use xlink:href="#Inter-Regular-48"/>
       <use x="62.500015" xlink:href="#Inter-Regular-46"/>
       <use x="90.056839" xlink:href="#Inter-Regular-48"/>
       <use x="152.556854" xlink:href="#Inter-Regular-48"/>
       <use x="215.05687" xlink:href="#Inter-Regular-53"/>
      </g>
     </g>
    </g>
    <g id="xtick_7">
     <g id="line2d_13">
      <path clip-path="url(#pc47fdb0966)" d="M 421.431818 317.72 
L 421.431818 10.8 
" style="fill:none;stroke:#e5e7eb;stroke-dasharray:3.7,1.6;stroke-dashoffset:0;"/>
     </g>
     <g id="line2d_14">
      <g>
       <use style="stroke:#000000;stroke-width:0.8;" x="421.431818" xlink:href="#m838d253d87" y="317.72"/>
      </g>
     </g>
     <g id="text_7">
      <!-- 0.010 -->
      <g transform="translate(408.356037 331.993437)scale(0.1 -0.1)">
       <use xlink:href="#Inter-Regular-48"/>
       <use x="62.500015" xlink:href="#Inter-Regular-46"/>
       <use x="90.056839" xlink:href="#Inter-Regular-48"/>
       <use x="152.556854" xlink:href="#Inter-Regular-49"/>
       <use x="199.005722" xlink:href="#Inter-Regular-48"/>
      </g>
     </g>
    </g>
    <g id="xtick_8">
     <g id="line2d_15">
      <path clip-path="url(#pc47fdb0966)" d="M 481.335227 317.72 
L 481.335227 10.8 
" style="fill:none;stroke:#e5e7eb;stroke-dasharray:3.7,1.6;stroke-dashoffset:0;"/>
     </g>
     <g id="line2d_16">
      <g>
       <use style="stroke:#000000;stroke-width:0.8;" x="481.335227" xlink:href="#m838d253d87" y="317.72"/>
      </g>
     </g>
     <g id="text_8">
      <!-- 0.015 -->
      <g transform="translate(468.344602 331.993437)scale(0.1 -0.1)">
       <use xlink:href="#Inter-Regular-48"/>
       <use x="62.500015" xlink:href="#Inter-Regular-46"/>
       <use x="90.056839" xlink:href="#Inter-Regular-48"/>
       <use x="152.556854" xlink:href="#Inter-Regular-49"/>
       <use x="199.005722" xlink:href="#Inter-Regular-53"/>
      </g>
     </g>
    </g>
    <g id="xtick_9">
     <g id="line2d_17">
      <path clip-path="url(#pc47fdb0966)" d="M 541.238636 317.72 
L 541.238636 10.8 
" style="fill:none;stroke:#e5e7eb;stroke-dasharray:3.7,1.6;stroke-dashoffset:0;"/>
     </g>
     <g id="line2d_18">
      <g>
       <use style="stroke:#000000;stroke-width:0.8;" x="541.238636" xlink:href="#m838d253d87" y="317.72"/>
      </g>
     </g>
     <g id="text_9">
      <!-- 0.020 -->
      <g transform="translate(527.45973 331.993437)scale(0.1 -0.1)">
       <use xlink:href="#Inter-Regular-48"/>
       <use x="62.500015" xlink:href="#Inter-Regular-46"/>
       <use x="90.056839" xlink:href="#Inter-Regular-48"/>
       <use x="152.556854" xlink:href="#Inter-Regular-50"/>
       <use x="213.068237" xlink:href="#Inter-Regular-48"/>
      </g>
     </g>
    </g>
   </g>
   <g id="matplotlib.axis_2">
    <g id="ytick_1">
     <g id="line2d_19">
      <path clip-path="url(#pc47fdb0966)" d="M 38.05 278.641202 
L 565.2 278.641202 
" style="fill:none;stroke:#e5e7eb;stroke-dasharray:3.7,1.6;stroke-dashoffset:0;"/>
     </g>
     <g id="line2d_20">
      <defs>
       <path d="M 0 0 
L -3.5 0 
" id="m262da8fa5b" style="stroke:#000000;stroke-width:0.8;"/>
      </defs>
      <g>
       <use style="stroke:#000000;stroke-width:0.8;" x="38.05" xlink:href="#m262da8fa5b" y="278.641202"/>
      </g>
     </g>
     <g id="text_10">
      <!-- −0.1 -->
      <g transform="translate(10.807813 282.27792)scale(0.1 -0.1)">
       <use xlink:href="#Inter-Regular-8722"/>
       <use x="65.909103" xlink:href="#Inter-Regular-48"/>
       <use x="128.409119" xlink:href="#Inter-Regular-46"/>
       <use x="155.965942" xlink:href="#Inter-Regular-49"/>
      </g>
     </g>
    </g>
    <g id="ytick_2">
     <g id="line2d_21">
      <path clip-path="url(#pc47fdb0966)" d="M 38.05 238.515334 
L 565.2 238.515334 
" style="fill:none;stroke:#e5e7eb;stroke-dasharray:3.7,1.6;stroke-dashoffset:0;"/>
     </g>
     <g id="line2d_22">
      <g>
       <use style="stroke:#000000;stroke-width:0.8;" x="38.05" xlink:href="#m262da8fa5b" y="238.515334"/>
      </g>
     </g>
     <g id="text_11">
      <!-- 0.0 -->
      <g transform="translate(15.79375 242.152052)scale(0.1 -0.1)">
       <use xlink:href="#Inter-Regular-48"/>
       <use x="62.500015" xlink:href="#Inter-Regular-46"/>
       <use x="90.056839" xlink:href="#Inter-Regular-48"/>
      </g>
     </g>
    </g>
    <g id="ytick_3">
     <g id="line2d_23">
      <path clip-path="url(#pc47fdb0966)" d="M 38.05 198.389466 
L 565.2 198.389466 
" style="fill:none;stroke:#e5e7eb;stroke-dasharray:3.7,1.6;stroke-dashoffset:0;"/>
     </g>
     <g id="line2d_24">
      <g>
       <use style="stroke:#000000;stroke-width:0.8;" x="38.05" xlink:href="#m262da8fa5b" y="198.389466"/>
      </g>
     </g>
     <g id="text_12">
      <!-- 0.1 -->
      <g transform="translate(17.398438 202.026184)scale(0.1 -0.1)">
       <use xlink:href="#Inter-Regular-48"/>
       <use x="62.500015" xlink:href="#Inter-Regular-46"/>
       <use x="90.056839" xlink:href="#Inter-Regular-49"/>
      </g>
     </g>
    </g>
    <g id="ytick_4">
     <g id="line2d_25">
      <path clip-path="url(#pc47fdb0966)" d="M 38.05 158.263598 
L 565.2 158.263598 
" style="fill:none;stroke:#e5e7eb;stroke-dasharray:3.7,1.6;stroke-dashoffset:0;"/>
     </g>
     <g id="line2d_26">
      <g>
       <use style="stroke:#000000;stroke-width:0.8;" x="38.05" xlink:href="#m262da8fa5b" y="158.263598"/>
      </g>
     </g>
     <g id="text_13">
      <!-- 0.2 -->
      <g transform="translate(15.992188 161.900317)scale(0.1 -0.1)">
       <use xlink:href="#Inter-Regular-48"/>
       <use x="62.500015" xlink:href="#Inter-Regular-46"/>
       <use x="90.056839" xlink:href="#Inter-Regular-50"/>
      </g>
     </g>
    </g>
    <g id="ytick_5">
     <g id="line2d_27">
      <path clip-path="url(#pc47fdb0966)" d="M 38.05 118.13773 
L 565.2 118.13773 
" style="fill:none;stroke:#e5e7eb;stroke-dasharray:3.7,1.6;stroke-dashoffset:0;"/>
     </g>
     <g id="line2d_28">
      <g>
       <use style="stroke:#000000;stroke-width:0.8;" x="38.05" xlink:href="#m262da8fa5b" y="118.13773"/>
      </g>
     </g>
     <g id="text_14">
      <!-- 0.3 -->
      <g transform="translate(15.679688 121.774449)scale(0.1 -0.1)">
       <defs>
        <path d="M 32.109375 -1 
C 46.203125 -1 56.671875 7.84375 56.671875 19.75 
C 56.671875 28.984375 51.203125 35.6875 42.046875 37.21875 
L 42.046875 37.78125 
C 49.390625 40.015625 53.984375 46.0625 53.984375 54.265625 
C 53.984375 64.5625 45.84375 73.71875 32.390625 73.71875 
C 19.8125 73.71875 9.375 65.984375 8.953125 54.546875 
L 17.46875 54.546875 
C 17.796875 61.796875 24.6875 66.046875 32.25 66.046875 
C 40.265625 66.046875 45.453125 61.1875 45.453125 53.828125 
C 45.453125 46.171875 39.453125 41.1875 30.828125 41.1875 
L 25 41.1875 
L 25 33.375 
L 30.828125 33.375 
C 41.875 33.375 48.015625 27.765625 48.015625 19.75 
C 48.015625 12.03125 41.296875 6.8125 31.96875 6.8125 
C 23.546875 6.8125 16.875 11.15625 16.34375 18.1875 
L 7.390625 18.1875 
C 7.921875 6.75 18 -1 32.109375 -1 
z
" id="Inter-Regular-51"/>
       </defs>
       <use xlink:href="#Inter-Regular-48"/>
       <use x="62.500015" xlink:href="#Inter-Regular-46"/>
       <use x="90.056839" xlink:href="#Inter-Regular-51"/>
      </g>
     </g>
    </g>
    <g id="ytick_6">
     <g id="line2d_29">
      <path clip-path="url(#pc47fdb0966)" d="M 38.05 78.011862 
L 565.2 78.011862 
" style="fill:none;stroke:#e5e7eb;stroke-dasharray:3.7,1.6;stroke-dashoffset:0;"/>
     </g>
     <g id="line2d_30">
      <g>
       <use style="stroke:#000000;stroke-width:0.8;" x="38.05" xlink:href="#m262da8fa5b" y="78.011862"/>
      </g>
     </g>
     <g id="text_15">
      <!-- 0.4 -->
      <g transform="translate(15.623438 81.648581)scale(0.1 -0.1)">
       <defs>
        <path d="M 5.828125 14.921875 
L 40.0625 14.921875 
L 40.0625 0 
L 48.4375 0 
L 48.4375 14.921875 
L 58.375 14.921875 
L 58.375 22.734375 
L 48.4375 22.734375 
L 48.4375 72.734375 
L 37.78125 72.734375 
L 5.828125 22.15625 
z
M 15.34375 22.734375 
L 15.34375 23.296875 
L 39.484375 61.5 
L 40.0625 61.5 
L 40.0625 22.734375 
z
" id="Inter-Regular-52"/>
       </defs>
       <use xlink:href="#Inter-Regular-48"/>
       <use x="62.500015" xlink:href="#Inter-Regular-46"/>
       <use x="90.056839" xlink:href="#Inter-Regular-52"/>
      </g>
     </g>
    </g>
    <g id="ytick_7">
     <g id="line2d_31">
      <path clip-path="url(#pc47fdb0966)" d="M 38.05 37.885994 
L 565.2 37.885994 
" style="fill:none;stroke:#e5e7eb;stroke-dasharray:3.7,1.6;stroke-dashoffset:0;"/>
     </g>
     <g id="line2d_32">
      <g>
       <use style="stroke:#000000;stroke-width:0.8;" x="38.05" xlink:href="#m262da8fa5b" y="37.885994"/>
      </g>
     </g>
     <g id="text_16">
      <!-- 0.5 -->
      <g transform="translate(15.964063 41.522713)scale(0.1 -0.1)">
       <use xlink:href="#Inter-Regular-48"/>
       <use x="62.500015" xlink:href="#Inter-Regular-46"/>
       <use x="90.056839" xlink:href="#Inter-Regular-53"/>
      </g>
     </g>
    </g>
   </g>
   <g id="line2d_33">
    <path clip-path="url(#pc47fdb0966)" d="M 62.011364 87.865387 
L 66.852043 96.175863 
L 71.692723 104.18076 
L 76.533402 111.885659 
L 81.374082 119.296143 
L 86.214761 126.417794 
L 91.055441 133.256193 
L 95.89612 139.816923 
L 100.7368 146.105565 
L 105.577479 152.127702 
L 110.418159 157.888915 
L 115.258838 163.394787 
L 120.099518 168.6509 
L 124.940197 173.662836 
L 129.780877 178.436176 
L 134.621556 182.976502 
L 139.462236 187.289398 
L 144.302916 191.380444 
L 149.143595 195.255222 
L 153.984275 198.919316 
L 158.824954 202.378306 
L 163.665634 205.637775 
L 168.506313 208.703304 
L 173.346993 211.580477 
L 178.187672 214.274874 
L 183.028352 216.792077 
L 187.869031 219.13767 
L 192.709711 221.317233 
L 197.55039 223.336349 
L 202.39107 225.2006 
L 207.231749 226.915568 
L 212.072429 228.486834 
L 216.913108 229.919981 
L 221.753788 231.220591 
L 226.594467 232.394246 
L 231.435147 233.446528 
L 236.275826 234.383019 
L 241.116506 235.2093 
L 245.957185 235.930954 
L 250.797865 236.553563 
L 255.638545 237.082709 
L 260.479224 237.523974 
L 265.319904 237.88294 
L 270.160583 238.165189 
L 275.001263 238.376302 
L 279.841942 238.521863 
L 284.682622 238.607452 
L 289.523301 238.638653 
L 294.363981 238.621046 
L 299.20466 238.560215 
L 304.04534 238.46174 
L 308.886019 238.331204 
L 313.726699 238.174189 
L 318.567378 237.996277 
L 323.408058 237.803051 
L 328.248737 237.600091 
L 333.089417 237.39298 
L 337.930096 237.1873 
L 342.770776 236.988634 
L 347.611455 236.802562 
L 352.452135 236.634667 
L 357.292815 236.490532 
L 362.133494 236.375737 
L 366.974174 236.295866 
L 371.814853 236.2565 
L 376.655533 236.26322 
L 381.496212 236.32161 
L 386.336892 236.437251 
L 391.177571 236.615725 
L 396.018251 236.862615 
L 400.85893 237.183501 
L 405.69961 237.583967 
L 410.540289 238.069593 
L 415.380969 238.645963 
L 420.221648 239.318658 
L 425.062328 240.09326 
L 429.903007 240.975352 
L 434.743687 241.970514 
L 439.584366 243.08433 
L 444.425046 244.322381 
L 449.265725 245.690249 
L 454.106405 247.193517 
L 458.947084 248.837766 
L 463.787764 250.628578 
L 468.628444 252.571535 
L 473.469123 254.672219 
L 478.309803 256.936213 
L 483.150482 259.369098 
L 487.991162 261.976457 
L 492.831841 264.76387 
L 497.672521 267.736921 
L 502.5132 270.901192 
L 507.35388 274.262263 
L 512.194559 277.825718 
L 517.035239 281.597139 
L 521.875918 285.582106 
L 526.716598 289.786203 
L 531.557277 294.215012 
L 536.397957 298.874114 
L 541.238636 303.769091 
" style="fill:none;stroke:#1f77b4;stroke-linecap:square;stroke-width:1.5;"/>
   </g>
   <g id="line2d_34">
    <path clip-path="url(#pc47fdb0966)" d="M 62.011364 24.750909 
L 66.852043 36.050536 
L 71.692723 46.960038 
L 76.533402 57.485872 
L 81.374082 67.634496 
L 86.214761 77.412367 
L 91.055441 86.825942 
L 95.89612 95.881679 
L 100.7368 104.586036 
L 105.577479 112.945469 
L 110.418159 120.966437 
L 115.258838 128.655396 
L 120.099518 136.018804 
L 124.940197 143.063119 
L 129.780877 149.794798 
L 134.621556 156.220298 
L 139.462236 162.346077 
L 144.302916 168.178591 
L 149.143595 173.7243 
L 153.984275 178.98966 
L 158.824954 183.981128 
L 163.665634 188.705162 
L 168.506313 193.168219 
L 173.346993 197.376757 
L 178.187672 201.337233 
L 183.028352 205.056105 
L 187.869031 208.539829 
L 192.709711 211.794864 
L 197.55039 214.827667 
L 202.39107 217.644696 
L 207.231749 220.252407 
L 212.072429 222.657258 
L 216.913108 224.865706 
L 221.753788 226.88421 
L 226.594467 228.719226 
L 231.435147 230.377212 
L 236.275826 231.864625 
L 241.116506 233.187923 
L 245.957185 234.353563 
L 250.797865 235.368002 
L 255.638545 236.237699 
L 260.479224 236.969109 
L 265.319904 237.568692 
L 270.160583 238.042904 
L 275.001263 238.398202 
L 279.841942 238.641045 
L 284.682622 238.777889 
L 289.523301 238.815192 
L 294.363981 238.759411 
L 299.20466 238.617004 
L 304.04534 238.394428 
L 308.886019 238.098141 
L 313.726699 237.7346 
L 318.567378 237.310263 
L 323.408058 236.831586 
L 328.248737 236.305028 
L 333.089417 235.737045 
L 337.930096 235.134096 
L 342.770776 234.502637 
L 347.611455 233.849126 
L 352.452135 233.180021 
L 357.292815 232.501778 
L 362.133494 231.820856 
L 366.974174 231.143712 
L 371.814853 230.476802 
L 376.655533 229.826586 
L 381.496212 229.199519 
L 386.336892 228.60206 
L 391.177571 228.040665 
L 396.018251 227.521793 
L 400.85893 227.051901 
L 405.69961 226.637445 
L 410.540289 226.284885 
L 415.380969 226.000676 
L 420.221648 225.791276 
L 425.062328 225.663144 
L 429.903007 225.622736 
L 434.743687 225.676509 
L 439.584366 225.830921 
L 444.425046 226.09243 
L 449.265725 226.467493 
L 454.106405 226.962568 
L 458.947084 227.584111 
L 463.787764 228.33858 
L 468.628444 229.232433 
L 473.469123 230.272127 
L 478.309803 231.464119 
L 483.150482 232.814868 
L 487.991162 234.33083 
L 492.831841 236.018462 
L 497.672521 237.884223 
L 502.5132 239.934569 
L 507.35388 242.175959 
L 512.194559 244.614849 
L 517.035239 247.257697 
L 521.875918 250.11096 
L 526.716598 253.181096 
L 531.557277 256.474562 
L 536.397957 259.997815 
L 541.238636 263.757314 
" style="fill:none;stroke:#ff7f0e;stroke-linecap:square;stroke-width:1.5;"/>
   </g>
   <g id="patch_3">
    <path d="M 38.05 317.72 
L 38.05 10.8 
" style="fill:none;stroke:#000000;stroke-linecap:square;stroke-linejoin:miter;stroke-width:0.8;"/>
   </g>
   <g id="patch_4">
    <path d="M 565.2 317.72 
L 565.2 10.8 
" style="fill:none;stroke:#000000;stroke-linecap:square;stroke-linejoin:miter;stroke-width:0.8;"/>
   </g>
   <g id="patch_5">
    <path d="M 38.05 317.72 
L 565.2 317.72 
" style="fill:none;stroke:#000000;stroke-linecap:square;stroke-linejoin:miter;stroke-width:0.8;"/>
   </g>
   <g id="patch_6">
    <path d="M 38.05 10.8 
L 565.2 10.8 
" style="fill:none;stroke:#000000;stroke-linecap:square;stroke-linejoin:miter;stroke-width:0.8;"/>
   </g>
   <g id="legend_1">
    <g id="patch_7">
     <path d="M 508.9625 47.4375 
L 558.2 47.4375 
Q 560.2 47.4375 560.2 45.4375 
L 560.2 17.8 
Q 560.2 15.8 558.2 15.8 
L 508.9625 15.8 
Q 506.9625 15.8 506.9625 17.8 
L 506.9625 45.4375 
Q 506.9625 47.4375 508.9625 47.4375 
z
" style="fill:#ffffff;opacity:0.8;stroke:#cccccc;stroke-linejoin:miter;"/>
    </g>
    <g id="line2d_35">
     <path d="M 510.9625 23.573438 
L 530.9625 23.573438 
" style="fill:none;stroke:#1f77b4;stroke-linecap:square;stroke-width:1.5;"/>
    </g>
    <g id="line2d_36"/>
    <g id="text_17">
     <!-- nux -->
     <g transform="translate(538.9625 27.073438)scale(0.1 -0.1)">
      <defs>
       <path d="M 16.046875 32.8125 
C 16.046875 42.328125 21.953125 47.734375 29.96875 47.734375 
C 37.75 47.734375 42.46875 42.65625 42.46875 34.09375 
L 42.46875 0 
L 50.859375 0 
L 50.859375 34.65625 
C 50.859375 48.578125 43.4375 55.25 32.390625 55.25 
C 24.15625 55.25 19.03125 51.5625 16.484375 46.015625 
L 15.765625 46.015625 
L 15.765625 54.546875 
L 7.671875 54.546875 
L 7.671875 0 
L 16.046875 0 
z
" id="Inter-Regular-110"/>
       <path d="M 42.046875 22.296875 
C 42.046875 12.078125 34.234375 7.390625 27.984375 7.390625 
C 21.03125 7.390625 16.046875 12.5 16.046875 20.453125 
L 16.046875 54.546875 
L 7.671875 54.546875 
L 7.671875 19.890625 
C 7.671875 5.96875 15.0625 -0.703125 25.28125 -0.703125 
C 33.53125 -0.703125 38.921875 3.6875 41.484375 9.234375 
L 42.046875 9.234375 
L 42.046875 0 
L 50.421875 0 
L 50.421875 54.546875 
L 42.046875 54.546875 
z
" id="Inter-Regular-117"/>
       <path d="M 13.921875 54.546875 
L 4.265625 54.546875 
L 21.59375 27.265625 
L 4.265625 0 
L 13.921875 0 
L 26.984375 21.171875 
L 40.0625 0 
L 49.71875 0 
L 32.109375 27.265625 
L 49.71875 54.546875 
L 40.0625 54.546875 
L 26.984375 32.25 
z
" id="Inter-Regular-120"/>
      </defs>
      <use xlink:href="#Inter-Regular-110"/>
      <use x="58.522736" xlink:href="#Inter-Regular-117"/>
      <use x="116.619339" xlink:href="#Inter-Regular-120"/>
     </g>
    </g>
    <g id="line2d_37">
     <path d="M 510.9625 37.892188 
L 530.9625 37.892188 
" style="fill:none;stroke:#ff7f0e;stroke-linecap:square;stroke-width:1.5;"/>
    </g>
    <g id="line2d_38"/>
    <g id="text_18">
     <!-- nuy -->
     <g transform="translate(538.9625 41.392188)scale(0.1 -0.1)">
      <defs>
       <path d="M 13.0625 -20.3125 
C 20.640625 -20.3125 26 -16.296875 29.125 -7.953125 
L 52.34375 54.40625 
L 43.1875 54.546875 
L 28.125 11.078125 
L 27.5625 11.078125 
L 12.5 54.546875 
L 3.40625 54.546875 
L 23.578125 -0.28125 
L 22.015625 -4.546875 
C 19.03125 -12.71875 15.203125 -13.5 9.09375 -11.9375 
L 6.96875 -19.3125 
C 7.8125 -19.75 10.234375 -20.3125 13.0625 -20.3125 
z
" id="Inter-Regular-121"/>
      </defs>
      <use xlink:href="#Inter-Regular-110"/>
      <use x="58.522736" xlink:href="#Inter-Regular-117"/>
      <use x="116.619339" xlink:href="#Inter-Regular-121"/>
     </g>
    </g>
   </g>
  </g>
 </g>
 <defs>
  <clipPath id="pc47fdb0966">
   <rect height="306.92" width="527.15" x="38.05" y="10.8"/>
  </clipPath>
 </defs>
</svg>
