<?xml version="1.0" encoding="utf-8" standalone="no"?>
<!DOCTYPE svg PUBLIC "-//W3C//DTD SVG 1.1//EN"
  "http://www.w3.org/Graphics/SVG/1.1/DTD/svg11.dtd">
<!-- Created with matplotlib (https://matplotlib.org/) -->
<svg height="345.6pt" version="1.1" viewBox="0 0 576 345.6" width="576pt" xmlns="http://www.w3.org/2000/svg" xmlns:xlink="http://www.w3.org/1999/xlink">
 <metadata>
  <rdf:RDF xmlns:cc="http://creativecommons.org/ns#" xmlns:dc="http://purl.org/dc/elements/1.1/" xmlns:rdf="http://www.w3.org/1999/02/22-rdf-syntax-ns#">
   <cc:Work>
    <dc:type rdf:resource="http://purl.org/dc/dcmitype/StillImage"/>
    <dc:date>2020-12-15T10:10:53.901752</dc:date>
    <dc:format>image/svg+xml</dc:format>
    <dc:creator>
     <cc:Agent>
      <dc:title>Matplotlib v3.3.3, https://matplotlib.org/</dc:title>
     </cc:Agent>
    </dc:creator>
   </cc:Work>
  </rdf:RDF>
 </metadata>
 <defs>
  <style type="text/css">*{stroke-linecap:butt;stroke-linejoin:round;}</style>
 </defs>
 <g id="figure_1">
  <g id="patch_1">
   <path d="M 0 345.6 
L 576 345.6 
L 576 0 
L 0 0 
z
" style="fill:#ffffff;"/>
  </g>
  <g id="axes_1">
   <g id="patch_2">
    <path d="M 30.4 317.72 
L 565.2 317.72 
L 565.2 51.0736 
L 30.4 51.0736 
z
" style="fill:#ffffff;"/>
   </g>
   <g id="matplotlib.axis_1">
    <g id="xtick_1">
     <g id="line2d_1">
      <path clip-path="url(#pfa416447b7)" d="M 30.4 317.72 
L 30.4 51.0736 
" style="fill:none;stroke:#e5e7eb;stroke-dasharray:3.7,1.6;stroke-dashoffset:0;"/>
     </g>
     <g id="line2d_2">
      <defs>
       <path d="M 0 0 
L 0 3.5 
" id="m18b44ff07a" style="stroke:#000000;stroke-width:0.8;"/>
      </defs>
      <g>
       <use style="stroke:#000000;stroke-width:0.8;" x="30.4" xlink:href="#m18b44ff07a" y="317.72"/>
      </g>
     </g>
     <g id="text_1">
      <!-- 0 -->
      <g transform="translate(27.275 331.993437)scale(0.1 -0.1)">
       <defs>
        <path d="M 31.25 -1 
C 47.296875 -1 56.53125 12.609375 56.53125 36.359375 
C 56.53125 59.9375 47.15625 73.71875 31.25 73.71875 
C 15.34375 73.71875 5.96875 59.9375 5.96875 36.359375 
C 5.96875 12.609375 15.203125 -1 31.25 -1 
z
M 31.25 6.8125 
C 20.671875 6.8125 14.484375 17.4375 14.484375 36.359375 
C 14.484375 55.25 20.734375 66.046875 31.25 66.046875 
C 41.765625 66.046875 48.015625 55.25 48.015625 36.359375 
C 48.015625 17.4375 41.828125 6.8125 31.25 6.8125 
z
" id="Inter-Regular-48"/>
       </defs>
       <use xlink:href="#Inter-Regular-48"/>
      </g>
     </g>
    </g>
    <g id="xtick_2">
     <g id="line2d_3">
      <path clip-path="url(#pfa416447b7)" d="M 101.706667 317.72 
L 101.706667 51.0736 
" style="fill:none;stroke:#e5e7eb;stroke-dasharray:3.7,1.6;stroke-dashoffset:0;"/>
     </g>
     <g id="line2d_4">
      <g>
       <use style="stroke:#000000;stroke-width:0.8;" x="101.706667" xlink:href="#m18b44ff07a" y="317.72"/>
      </g>
     </g>
     <g id="text_2">
      <!-- 2 -->
      <g transform="translate(98.680885 331.993437)scale(0.1 -0.1)">
       <defs>
        <path d="M 7.53125 0 
L 53.40625 0 
L 53.40625 7.8125 
L 19.609375 7.8125 
L 19.609375 8.375 
L 35.9375 25.859375 
C 48.4375 39.234375 52.125 45.484375 52.125 53.546875 
C 52.125 64.765625 43.046875 73.71875 30.25 73.71875 
C 17.515625 73.71875 7.8125 65.0625 7.8125 52.265625 
L 16.1875 52.265625 
C 16.1875 60.546875 21.5625 66.046875 29.96875 66.046875 
C 37.859375 66.046875 43.890625 61.21875 43.890625 53.546875 
C 43.890625 46.84375 39.953125 41.875 31.53125 32.671875 
L 7.53125 6.390625 
z
" id="Inter-Regular-50"/>
       </defs>
       <use xlink:href="#Inter-Regular-50"/>
      </g>
     </g>
    </g>
    <g id="xtick_3">
     <g id="line2d_5">
      <path clip-path="url(#pfa416447b7)" d="M 173.013333 317.72 
L 173.013333 51.0736 
" style="fill:none;stroke:#e5e7eb;stroke-dasharray:3.7,1.6;stroke-dashoffset:0;"/>
     </g>
     <g id="line2d_6">
      <g>
       <use style="stroke:#000000;stroke-width:0.8;" x="173.013333" xlink:href="#m18b44ff07a" y="317.72"/>
      </g>
     </g>
     <g id="text_3">
      <!-- 4 -->
      <g transform="translate(169.803177 331.993437)scale(0.1 -0.1)">
       <defs>
        <path d="M 5.828125 14.921875 
L 40.0625 14.921875 
L 40.0625 0 
L 48.4375 0 
L 48.4375 14.921875 
L 58.375 14.921875 
L 58.375 22.734375 
L 48.4375 22.734375 
L 48.4375 72.734375 
L 37.78125 72.734375 
L 5.828125 22.15625 
z
M 15.34375 22.734375 
L 15.34375 23.296875 
L 39.484375 61.5 
L 40.0625 61.5 
L 40.0625 22.734375 
z
" id="Inter-Regular-52"/>
       </defs>
       <use xlink:href="#Inter-Regular-52"/>
      </g>
     </g>
    </g>
    <g id="xtick_4">
     <g id="line2d_7">
      <path clip-path="url(#pfa416447b7)" d="M 244.32 317.72 
L 244.32 51.0736 
" style="fill:none;stroke:#e5e7eb;stroke-dasharray:3.7,1.6;stroke-dashoffset:0;"/>
     </g>
     <g id="line2d_8">
      <g>
       <use style="stroke:#000000;stroke-width:0.8;" x="244.32" xlink:href="#m18b44ff07a" y="317.72"/>
      </g>
     </g>
     <g id="text_4">
      <!-- 6 -->
      <g transform="translate(241.202031 331.993437)scale(0.1 -0.1)">
       <defs>
        <path d="M 31.671875 -1 
C 46.375 -1.171875 55.96875 9.90625 55.96875 23.4375 
C 55.96875 37.5 45.5625 47.578125 33.09375 47.578125 
C 25.609375 47.578125 19.171875 43.921875 15.203125 37.921875 
L 14.625 37.921875 
C 14.671875 55.78125 21.5625 66.046875 32.8125 66.046875 
C 40.484375 66.046875 45.09375 61.21875 46.734375 54.546875 
L 55.40625 54.546875 
C 53.625 65.984375 45.03125 73.859375 32.8125 73.859375 
C 16.4375 73.859375 6.390625 59.375 6.390625 33.515625 
C 6.390625 6.640625 19.75 -0.859375 31.671875 -1 
z
M 31.671875 6.8125 
C 22.546875 6.8125 15.875 14.59375 15.90625 23.296875 
C 15.953125 32 22.9375 39.765625 31.96875 39.765625 
C 40.875 39.765625 47.4375 32.453125 47.4375 23.4375 
C 47.4375 14.203125 40.59375 6.8125 31.671875 6.8125 
z
" id="Inter-Regular-54"/>
       </defs>
       <use xlink:href="#Inter-Regular-54"/>
      </g>
     </g>
    </g>
    <g id="xtick_5">
     <g id="line2d_9">
      <path clip-path="url(#pfa416447b7)" d="M 315.626667 317.72 
L 315.626667 51.0736 
" style="fill:none;stroke:#e5e7eb;stroke-dasharray:3.7,1.6;stroke-dashoffset:0;"/>
     </g>
     <g id="line2d_10">
      <g>
       <use style="stroke:#000000;stroke-width:0.8;" x="315.626667" xlink:href="#m18b44ff07a" y="317.72"/>
      </g>
     </g>
     <g id="text_5">
      <!-- 8 -->
      <g transform="translate(312.543854 331.993437)scale(0.1 -0.1)">
       <defs>
        <path d="M 30.828125 -1 
C 45.34375 -1 55.46875 7.5 55.546875 19.3125 
C 55.46875 28.515625 49.328125 36.328125 41.484375 37.78125 
L 41.484375 38.203125 
C 48.296875 39.984375 52.765625 46.65625 52.84375 54.40625 
C 52.765625 65.484375 43.46875 73.71875 30.828125 73.71875 
C 18.046875 73.71875 8.734375 65.484375 8.8125 54.40625 
C 8.734375 46.65625 13.21875 39.984375 20.171875 38.203125 
L 20.171875 37.78125 
C 12.1875 36.328125 6.03125 28.515625 6.109375 19.3125 
C 6.03125 7.5 16.15625 -1 30.828125 -1 
z
M 30.828125 41.328125 
C 22.875 41.328125 17.265625 46.3125 17.328125 53.828125 
C 17.265625 61.21875 22.65625 66.046875 30.828125 66.046875 
C 38.84375 66.046875 44.25 61.21875 44.3125 53.828125 
C 44.25 46.3125 38.640625 41.328125 30.828125 41.328125 
z
M 30.828125 6.8125 
C 20.84375 6.8125 14.703125 11.9375 14.78125 19.75 
C 14.703125 27.953125 21.484375 33.8125 30.828125 33.8125 
C 40.015625 33.8125 46.8125 27.953125 46.875 19.75 
C 46.8125 11.9375 40.65625 6.8125 30.828125 6.8125 
z
" id="Inter-Regular-56"/>
       </defs>
       <use xlink:href="#Inter-Regular-56"/>
      </g>
     </g>
    </g>
    <g id="xtick_6">
     <g id="line2d_11">
      <path clip-path="url(#pfa416447b7)" d="M 386.933333 317.72 
L 386.933333 51.0736 
" style="fill:none;stroke:#e5e7eb;stroke-dasharray:3.7,1.6;stroke-dashoffset:0;"/>
     </g>
     <g id="line2d_12">
      <g>
       <use style="stroke:#000000;stroke-width:0.8;" x="386.933333" xlink:href="#m18b44ff07a" y="317.72"/>
      </g>
     </g>
     <g id="text_6">
      <!-- 10 -->
      <g transform="translate(381.485677 331.993437)scale(0.1 -0.1)">
       <defs>
        <path d="M 33.09375 72.734375 
L 24.296875 72.734375 
L 6.109375 60.65625 
L 6.109375 51.703125 
L 23.859375 63.5 
L 24.296875 63.5 
L 24.296875 0 
L 33.09375 0 
z
" id="Inter-Regular-49"/>
       </defs>
       <use xlink:href="#Inter-Regular-49"/>
       <use x="46.448868" xlink:href="#Inter-Regular-48"/>
      </g>
     </g>
    </g>
    <g id="xtick_7">
     <g id="line2d_13">
      <path clip-path="url(#pfa416447b7)" d="M 458.24 317.72 
L 458.24 51.0736 
" style="fill:none;stroke:#e5e7eb;stroke-dasharray:3.7,1.6;stroke-dashoffset:0;"/>
     </g>
     <g id="line2d_14">
      <g>
       <use style="stroke:#000000;stroke-width:0.8;" x="458.24" xlink:href="#m18b44ff07a" y="317.72"/>
      </g>
     </g>
     <g id="text_7">
      <!-- 12 -->
      <g transform="translate(452.891562 331.993437)scale(0.1 -0.1)">
       <use xlink:href="#Inter-Regular-49"/>
       <use x="46.448868" xlink:href="#Inter-Regular-50"/>
      </g>
     </g>
    </g>
    <g id="xtick_8">
     <g id="line2d_15">
      <path clip-path="url(#pfa416447b7)" d="M 529.546667 317.72 
L 529.546667 51.0736 
" style="fill:none;stroke:#e5e7eb;stroke-dasharray:3.7,1.6;stroke-dashoffset:0;"/>
     </g>
     <g id="line2d_16">
      <g>
       <use style="stroke:#000000;stroke-width:0.8;" x="529.546667" xlink:href="#m18b44ff07a" y="317.72"/>
      </g>
     </g>
     <g id="text_8">
      <!-- 14 -->
      <g transform="translate(524.013854 331.993437)scale(0.1 -0.1)">
       <use xlink:href="#Inter-Regular-49"/>
       <use x="46.448868" xlink:href="#Inter-Regular-52"/>
      </g>
     </g>
    </g>
   </g>
   <g id="matplotlib.axis_2">
    <g id="ytick_1">
     <g id="line2d_17">
      <path clip-path="url(#pfa416447b7)" d="M 30.4 306.01033 
L 565.2 306.01033 
" style="fill:none;stroke:#e5e7eb;stroke-dasharray:3.7,1.6;stroke-dashoffset:0;"/>
     </g>
     <g id="line2d_18">
      <defs>
       <path d="M 0 0 
L -3.5 0 
" id="mbbd1aa1f53" style="stroke:#000000;stroke-width:0.8;"/>
      </defs>
      <g>
       <use style="stroke:#000000;stroke-width:0.8;" x="30.4" xlink:href="#mbbd1aa1f53" y="306.01033"/>
      </g>
     </g>
     <g id="text_9">
      <!-- 0 -->
      <g transform="translate(17.15 309.647049)scale(0.1 -0.1)">
       <use xlink:href="#Inter-Regular-48"/>
      </g>
     </g>
    </g>
    <g id="ytick_2">
     <g id="line2d_19">
      <path clip-path="url(#pfa416447b7)" d="M 30.4 269.131261 
L 565.2 269.131261 
" style="fill:none;stroke:#e5e7eb;stroke-dasharray:3.7,1.6;stroke-dashoffset:0;"/>
     </g>
     <g id="line2d_20">
      <g>
       <use style="stroke:#000000;stroke-width:0.8;" x="30.4" xlink:href="#mbbd1aa1f53" y="269.131261"/>
      </g>
     </g>
     <g id="text_10">
      <!-- 5 -->
      <g transform="translate(17.320313 272.76798)scale(0.1 -0.1)">
       <defs>
        <path d="M 30.25 -1 
C 44.109375 -1 54.265625 9.234375 54.265625 23.15625 
C 54.265625 37.25 44.46875 47.578125 31.109375 47.578125 
C 26.203125 47.578125 21.453125 45.84375 18.46875 43.46875 
L 18.046875 43.46875 
L 20.59375 64.921875 
L 51 64.921875 
L 51 72.734375 
L 13.21875 72.734375 
L 8.8125 36.9375 
L 17.046875 35.9375 
C 20.0625 38.109375 25.21875 39.671875 29.6875 39.625 
C 38.953125 39.5625 45.734375 32.53125 45.734375 23.015625 
C 45.734375 13.671875 39.203125 6.8125 30.25 6.8125 
C 22.796875 6.8125 16.875 11.609375 16.1875 18.1875 
L 7.671875 18.1875 
C 8.203125 7.109375 17.75 -1 30.25 -1 
z
" id="Inter-Regular-53"/>
       </defs>
       <use xlink:href="#Inter-Regular-53"/>
      </g>
     </g>
    </g>
    <g id="ytick_3">
     <g id="line2d_21">
      <path clip-path="url(#pfa416447b7)" d="M 30.4 232.252192 
L 565.2 232.252192 
" style="fill:none;stroke:#e5e7eb;stroke-dasharray:3.7,1.6;stroke-dashoffset:0;"/>
     </g>
     <g id="line2d_22">
      <g>
       <use style="stroke:#000000;stroke-width:0.8;" x="30.4" xlink:href="#mbbd1aa1f53" y="232.252192"/>
      </g>
     </g>
     <g id="text_11">
      <!-- 10 -->
      <g transform="translate(12.504688 235.88891)scale(0.1 -0.1)">
       <use xlink:href="#Inter-Regular-49"/>
       <use x="46.448868" xlink:href="#Inter-Regular-48"/>
      </g>
     </g>
    </g>
    <g id="ytick_4">
     <g id="line2d_23">
      <path clip-path="url(#pfa416447b7)" d="M 30.4 195.373123 
L 565.2 195.373123 
" style="fill:none;stroke:#e5e7eb;stroke-dasharray:3.7,1.6;stroke-dashoffset:0;"/>
     </g>
     <g id="line2d_24">
      <g>
       <use style="stroke:#000000;stroke-width:0.8;" x="30.4" xlink:href="#mbbd1aa1f53" y="195.373123"/>
      </g>
     </g>
     <g id="text_12">
      <!-- 15 -->
      <g transform="translate(12.675 199.009841)scale(0.1 -0.1)">
       <use xlink:href="#Inter-Regular-49"/>
       <use x="46.448868" xlink:href="#Inter-Regular-53"/>
      </g>
     </g>
    </g>
    <g id="ytick_5">
     <g id="line2d_25">
      <path clip-path="url(#pfa416447b7)" d="M 30.4 158.494053 
L 565.2 158.494053 
" style="fill:none;stroke:#e5e7eb;stroke-dasharray:3.7,1.6;stroke-dashoffset:0;"/>
     </g>
     <g id="line2d_26">
      <g>
       <use style="stroke:#000000;stroke-width:0.8;" x="30.4" xlink:href="#mbbd1aa1f53" y="158.494053"/>
      </g>
     </g>
     <g id="text_13">
      <!-- 20 -->
      <g transform="translate(11.098438 162.130772)scale(0.1 -0.1)">
       <use xlink:href="#Inter-Regular-50"/>
       <use x="60.511383" xlink:href="#Inter-Regular-48"/>
      </g>
     </g>
    </g>
    <g id="ytick_6">
     <g id="line2d_27">
      <path clip-path="url(#pfa416447b7)" d="M 30.4 121.614984 
L 565.2 121.614984 
" style="fill:none;stroke:#e5e7eb;stroke-dasharray:3.7,1.6;stroke-dashoffset:0;"/>
     </g>
     <g id="line2d_28">
      <g>
       <use style="stroke:#000000;stroke-width:0.8;" x="30.4" xlink:href="#mbbd1aa1f53" y="121.614984"/>
      </g>
     </g>
     <g id="text_14">
      <!-- 25 -->
      <g transform="translate(11.26875 125.251703)scale(0.1 -0.1)">
       <use xlink:href="#Inter-Regular-50"/>
       <use x="60.511383" xlink:href="#Inter-Regular-53"/>
      </g>
     </g>
    </g>
    <g id="ytick_7">
     <g id="line2d_29">
      <path clip-path="url(#pfa416447b7)" d="M 30.4 84.735915 
L 565.2 84.735915 
" style="fill:none;stroke:#e5e7eb;stroke-dasharray:3.7,1.6;stroke-dashoffset:0;"/>
     </g>
     <g id="line2d_30">
      <g>
       <use style="stroke:#000000;stroke-width:0.8;" x="30.4" xlink:href="#mbbd1aa1f53" y="84.735915"/>
      </g>
     </g>
     <g id="text_15">
      <!-- 30 -->
      <g transform="translate(10.785938 88.372634)scale(0.1 -0.1)">
       <defs>
        <path d="M 32.109375 -1 
C 46.203125 -1 56.671875 7.84375 56.671875 19.75 
C 56.671875 28.984375 51.203125 35.6875 42.046875 37.21875 
L 42.046875 37.78125 
C 49.390625 40.015625 53.984375 46.0625 53.984375 54.265625 
C 53.984375 64.5625 45.84375 73.71875 32.390625 73.71875 
C 19.8125 73.71875 9.375 65.984375 8.953125 54.546875 
L 17.46875 54.546875 
C 17.796875 61.796875 24.6875 66.046875 32.25 66.046875 
C 40.265625 66.046875 45.453125 61.1875 45.453125 53.828125 
C 45.453125 46.171875 39.453125 41.1875 30.828125 41.1875 
L 25 41.1875 
L 25 33.375 
L 30.828125 33.375 
C 41.875 33.375 48.015625 27.765625 48.015625 19.75 
C 48.015625 12.03125 41.296875 6.8125 31.96875 6.8125 
C 23.546875 6.8125 16.875 11.15625 16.34375 18.1875 
L 7.390625 18.1875 
C 7.921875 6.75 18 -1 32.109375 -1 
z
" id="Inter-Regular-51"/>
       </defs>
       <use xlink:href="#Inter-Regular-51"/>
       <use x="63.636383" xlink:href="#Inter-Regular-48"/>
      </g>
     </g>
    </g>
   </g>
   <g id="line2d_31">
    <path clip-path="url(#pfa416447b7)" d="M 30.4 293.232937 
L 35.769478 293.147883 
L 41.138956 292.869684 
L 46.508434 292.39834 
L 51.877912 291.733851 
L 57.24739 290.876218 
L 62.616867 289.82544 
L 67.986345 288.581516 
L 73.355823 287.144448 
L 78.725301 285.514236 
L 85.168675 283.303029 
L 91.612048 280.813694 
L 98.055422 278.04623 
L 104.498795 275.000637 
L 110.942169 271.676916 
L 117.385542 268.075067 
L 119.533333 266.812644 
L 120.602933 265.776672 
L 121.672533 263.908591 
L 122.742133 261.133768 
L 125.119022 253.586923 
L 128.208978 242.884694 
L 131.536622 230.232387 
L 132.725067 225.430508 
L 133.794667 221.855562 
L 134.864267 219.996582 
L 135.933867 219.931388 
L 137.003467 221.66271 
L 138.073067 225.118071 
L 139.142667 230.152823 
L 140.212267 236.556199 
L 143.658756 260.46857 
L 144.8472 267.724567 
L 145.9168 273.430173 
L 146.9864 278.175659 
L 148.056 282.118769 
L 150.432889 289.416012 
L 152.572089 294.828924 
L 154.4736 298.722118 
L 155.662044 300.716479 
L 156.850489 302.373235 
L 158.038933 303.692387 
L 159.063967 304.558625 
L 160.089 305.173978 
L 161.114033 305.538377 
L 162.139067 305.651779 
L 163.1641 305.514173 
L 164.189133 305.125574 
L 165.214167 304.486026 
L 166.2392 303.595601 
L 167.427644 302.248387 
L 168.616089 300.563568 
L 169.804533 298.541145 
L 170.963267 296.137004 
L 172.122 293.116281 
L 173.280733 289.334124 
L 174.439467 284.60917 
L 175.627911 278.862699 
L 176.816356 272.428632 
L 178.955556 259.114572 
L 180.857067 245.409592 
L 183.233956 225.803024 
L 185.563307 205.091795 
L 186.704213 197.224827 
L 187.84512 191.742451 
L 188.986027 188.906009 
L 190.126933 188.850711 
L 197.732978 197.639511 
L 204.269422 204.883528 
L 205.457867 206.16995 
L 206.527467 208.32697 
L 207.597067 212.418899 
L 208.666667 218.279318 
L 213.3016 250.283823 
L 215.203111 261.568863 
L 217.342311 272.732544 
L 219.7192 283.234162 
L 220.7888 287.106064 
L 221.8584 290.269681 
L 222.928 292.851877 
L 224.116444 295.306551 
L 225.304889 297.497858 
L 227.518367 300.877255 
L 228.5434 302.132996 
L 229.568433 303.19288 
L 230.593467 304.056794 
L 231.6185 304.724642 
L 232.643533 305.196352 
L 233.668567 305.471873 
L 234.6936 305.551175 
L 235.718633 305.434249 
L 236.743667 305.121108 
L 237.7687 304.611786 
L 238.793733 303.906339 
L 239.818767 303.004843 
L 240.8438 301.907396 
L 241.868833 300.614118 
L 242.893867 299.125148 
L 244.082311 297.149811 
L 245.270756 294.910199 
L 246.4592 292.40631 
L 247.5288 289.77428 
L 248.5984 286.549159 
L 249.668 282.601617 
L 250.856444 277.505411 
L 253.233333 265.794486 
L 255.134844 254.967975 
L 257.274044 241.239267 
L 261.64752 211.234324 
L 262.645813 206.975926 
L 263.644107 204.367928 
L 264.6424 203.500461 
L 281.399467 203.683331 
L 286.747467 203.692245 
L 287.74576 204.575277 
L 288.744053 207.194989 
L 289.742347 211.460844 
L 290.74064 217.225417 
L 295.304267 249.278406 
L 297.205778 260.739866 
L 299.344978 272.082421 
L 301.721867 282.758451 
L 302.791467 286.696188 
L 303.861067 289.913537 
L 304.930667 292.539516 
L 306.119111 295.036807 
L 307.307556 297.268356 
L 309.521033 300.71638 
L 310.546067 302.00112 
L 311.5711 303.088241 
L 312.596133 303.977625 
L 313.621167 304.669176 
L 314.6462 305.162819 
L 315.671233 305.458499 
L 316.696267 305.556184 
L 317.7213 305.455865 
L 318.746333 305.157551 
L 319.771367 304.661276 
L 320.7964 303.967092 
L 321.821433 303.075077 
L 322.846467 301.985326 
L 323.8715 300.697959 
L 324.896533 299.213114 
L 326.084978 297.240372 
L 327.273422 295.000962 
L 328.461867 292.494882 
L 329.531467 289.859698 
L 330.601067 286.631128 
L 331.670667 282.679703 
L 332.859111 277.57756 
L 335.236 265.846806 
L 337.137511 254.996794 
L 339.276711 241.233534 
L 343.650187 211.134149 
L 344.64848 206.853355 
L 345.646773 204.224395 
L 346.645067 203.338124 
L 363.402133 203.227635 
L 368.750133 203.143096 
L 369.748427 204.013537 
L 370.74672 206.630585 
L 371.745013 210.903796 
L 372.743307 216.68549 
L 377.306933 248.870162 
L 379.208444 260.384635 
L 381.347644 271.784172 
L 383.724533 282.520216 
L 384.794133 286.481611 
L 385.863733 289.718085 
L 386.933333 292.359423 
L 388.121778 294.872211 
L 389.310222 297.119822 
L 391.5237 300.599275 
L 392.548733 301.899242 
L 393.573767 303.002015 
L 394.5988 303.907476 
L 395.623833 304.615524 
L 396.648867 305.126084 
L 397.6739 305.439099 
L 398.698933 305.554536 
L 399.723967 305.472382 
L 400.749 305.192647 
L 401.774033 304.71536 
L 402.799067 304.040573 
L 403.8241 303.16836 
L 404.849133 302.098815 
L 405.874167 300.832056 
L 406.8992 299.368219 
L 408.087644 297.420422 
L 409.276089 295.206513 
L 410.464533 292.726493 
L 411.534133 290.11772 
L 412.603733 286.921718 
L 413.673333 283.010324 
L 414.861778 277.958868 
L 417.238667 266.338489 
L 419.140178 255.585419 
L 421.279378 241.940399 
L 424.725867 217.390669 
L 425.795467 211.469781 
L 426.865067 207.335282 
L 427.934667 205.155321 
L 434.471111 197.884023 
L 441.482933 189.763611 
L 443.2656 187.646243 
L 444.406507 187.701312 
L 445.547413 190.566165 
L 446.68832 196.104236 
L 447.829227 204.051532 
L 452.535467 244.782799 
L 454.436978 258.628691 
L 456.576178 272.079932 
L 457.764622 278.580445 
L 458.953067 284.386387 
L 460.1118 289.16036 
L 461.270533 292.981887 
L 462.429267 296.034221 
L 463.588 298.463727 
L 464.776444 300.50774 
L 465.964889 302.210824 
L 467.153333 303.572981 
L 468.178367 304.47362 
L 469.2034 305.120913 
L 470.228433 305.514786 
L 471.253467 305.655195 
L 472.2785 305.542124 
L 473.303533 305.175585 
L 474.328567 304.55562 
L 475.3536 303.682299 
L 476.542044 302.351839 
L 477.730489 300.68045 
L 478.918933 298.668133 
L 480.820444 294.739296 
L 481.7712 292.447587 
L 482.959644 289.276115 
L 485.336533 281.910387 
L 486.406133 277.930199 
L 487.475733 273.14024 
L 488.545333 267.381286 
L 490.922222 252.095316 
L 493.180267 235.92025 
L 494.249867 229.455962 
L 495.319467 224.372731 
L 496.389067 220.883351 
L 497.458667 219.133895 
L 498.528267 219.1976 
L 499.597867 221.071798 
L 500.667467 224.678031 
L 504.2328 238.760795 
L 507.085067 249.053202 
L 509.461956 256.968983 
L 510.6504 260.701456 
L 511.72 263.501327 
L 512.7896 265.385823 
L 513.8592 266.430234 
L 520.302573 270.152437 
L 526.745947 273.596512 
L 533.18932 276.762458 
L 539.632694 279.650275 
L 546.076067 282.259964 
L 552.519441 284.591524 
L 558.962814 286.644956 
L 564.332292 288.14369 
L 565.406188 288.420259 
L 565.406188 288.420259 
" style="fill:none;stroke:#ef4444;stroke-linecap:square;stroke-width:1.5;"/>
   </g>
   <g id="line2d_32">
    <path clip-path="url(#pfa416447b7)" d="M 30.4 300.566643 
L 34.695582 300.377343 
L 38.991165 299.897729 
L 43.286747 299.127801 
L 47.582329 298.067559 
L 51.877912 296.717003 
L 56.173494 295.076132 
L 60.469076 293.144947 
L 64.764659 290.923448 
L 69.060241 288.411635 
L 73.355823 285.609508 
L 77.651406 282.517066 
L 81.946988 279.13431 
L 86.24257 275.461239 
L 90.538153 271.497855 
L 94.833735 267.244156 
L 99.129317 262.700143 
L 103.4249 257.865816 
L 107.720482 252.741175 
L 112.016064 247.326219 
L 117.385542 240.14927 
L 119.533333 237.151478 
L 120.602933 236.32477 
L 121.672533 236.879384 
L 122.742133 238.793311 
L 126.307467 247.087177 
L 129.159733 253.316757 
L 132.725067 260.596842 
L 133.794667 262.207068 
L 134.864267 262.877077 
L 135.933867 262.635115 
L 137.003467 261.470981 
L 138.073067 259.335599 
L 139.142667 256.138951 
L 140.212267 251.746277 
L 141.281867 245.972399 
L 143.658756 230.554787 
L 145.9168 215.007072 
L 146.9864 209.096797 
L 148.056 204.647818 
L 151.621333 192.057646 
L 155.662044 176.885815 
L 160.089 159.227311 
L 164.189133 141.92617 
L 168.616089 122.247798 
L 169.804533 116.795796 
L 170.963267 113.695754 
L 172.122 115.167797 
L 173.280733 121.141898 
L 174.439467 131.333854 
L 176.816356 155.376025 
L 179.906311 183.966374 
L 182.045511 201.995259 
L 184.4224 220.334209 
L 185.563307 227.54079 
L 186.704213 232.622977 
L 187.84512 235.824975 
L 188.986027 237.300641 
L 190.126933 237.120883 
L 196.544533 231.333437 
L 203.080978 225.150747 
L 205.457867 222.831756 
L 206.527467 220.916916 
L 207.597067 217.21283 
L 208.666667 211.567823 
L 209.736267 203.750748 
L 212.113156 182.766078 
L 215.203111 152.553833 
L 217.342311 129.695957 
L 220.7888 91.640263 
L 221.8584 84.9343 
L 222.928 82.584302 
L 244.082311 80.112683 
L 246.4592 80.038723 
L 247.5288 82.255339 
L 248.5984 88.883972 
L 249.668 99.660573 
L 252.044889 126.959101 
L 255.134844 159.549066 
L 257.274044 180.192192 
L 259.650933 201.287383 
L 260.649227 208.707676 
L 261.64752 214.222881 
L 262.645813 218.024706 
L 263.644107 220.245299 
L 264.6424 220.961849 
L 280.211022 220.49621 
L 286.747467 220.23558 
L 287.74576 219.446748 
L 288.744053 217.138739 
L 289.742347 213.231326 
L 290.74064 207.58869 
L 291.738933 200.014694 
L 294.115822 178.491391 
L 297.205778 147.532731 
L 299.344978 124.127516 
L 302.791467 85.201124 
L 303.861067 78.388628 
L 304.930667 76.063 
L 326.084978 75.381314 
L 328.461867 75.513976 
L 329.531467 77.868019 
L 330.601067 84.71873 
L 331.670667 95.793212 
L 334.047556 123.797216 
L 337.137511 157.207338 
L 339.276711 178.354057 
L 341.6536 199.94718 
L 342.651893 207.546732 
L 343.650187 213.212662 
L 344.64848 217.141914 
L 345.646773 219.471069 
L 346.645067 220.281086 
L 362.213689 221.171273 
L 368.750133 221.4788 
L 369.748427 220.787984 
L 370.74672 218.60299 
L 371.745013 214.847866 
L 372.743307 209.392087 
L 373.7416 202.046011 
L 376.118489 181.158901 
L 379.208444 151.142909 
L 381.347644 128.466873 
L 384.794133 90.792231 
L 385.863733 84.244735 
L 386.933333 82.070467 
L 408.087644 83.204106 
L 410.464533 83.532798 
L 411.534133 85.894522 
L 412.603733 92.592837 
L 413.673333 103.360918 
L 416.050222 130.542985 
L 419.140178 162.950726 
L 421.279378 183.447285 
L 423.656267 204.360038 
L 424.725867 212.151475 
L 425.795467 217.782708 
L 426.865067 221.484319 
L 427.934667 223.407883 
L 434.471111 229.77789 
L 441.482933 236.280872 
L 443.2656 237.878753 
L 444.406507 238.079262 
L 445.547413 236.643279 
L 446.68832 233.501803 
L 447.829227 228.503883 
L 448.970133 221.409366 
L 451.347022 203.352204 
L 454.436978 177.260918 
L 456.576178 157.464739 
L 460.1118 123.781559 
L 461.270533 117.915699 
L 462.429267 116.487496 
L 463.588 119.564893 
L 468.178367 139.999963 
L 472.2785 157.353997 
L 476.542044 174.40948 
L 480.820444 190.554853 
L 484.148089 202.373334 
L 485.336533 206.437506 
L 486.406133 210.827775 
L 487.475733 216.652112 
L 492.110667 247.128358 
L 493.180267 252.810112 
L 494.249867 257.135801 
L 495.319467 260.287781 
L 496.389067 262.398925 
L 497.458667 263.558233 
L 498.528267 263.814577 
L 499.597867 263.178762 
L 500.667467 261.623986 
L 504.2328 254.577245 
L 507.085067 248.549823 
L 510.6504 240.528009 
L 511.72 238.682115 
L 512.7896 238.160337 
L 513.8592 238.983384 
L 519.228678 246.231424 
L 524.598156 253.025848 
L 528.893738 258.134783 
L 533.18932 262.953404 
L 537.484903 267.481711 
L 541.780485 271.719704 
L 546.076067 275.667382 
L 550.37165 279.324746 
L 554.667232 282.691796 
L 558.962814 285.768532 
L 563.258397 288.554953 
L 565.406188 289.839296 
L 565.406188 289.839296 
" style="fill:none;stroke:#1d4ed8;stroke-linecap:square;stroke-width:1.5;"/>
   </g>
   <g id="line2d_33">
    <path clip-path="url(#pfa416447b7)" d="M 30.4 306.086979 
L 156.850489 306.036793 
L 159.063967 305.96579 
L 160.089 305.789434 
L 162.139067 305.097411 
L 164.189133 303.953046 
L 166.2392 302.356469 
L 170.963267 298.111746 
L 173.280733 295.667584 
L 176.816356 291.25818 
L 185.563307 280.331755 
L 186.704213 279.342723 
L 187.84512 278.672449 
L 188.986027 278.328943 
L 190.126933 278.316313 
L 201.892533 279.962037 
L 205.457867 280.704655 
L 206.527467 281.056039 
L 207.597067 281.661793 
L 208.666667 282.515743 
L 210.924711 284.953263 
L 220.7888 296.05557 
L 222.928 298.079747 
L 227.518367 302.000322 
L 229.568433 303.33408 
L 231.6185 304.225862 
L 233.668567 304.675571 
L 235.718633 304.683156 
L 237.7687 304.248619 
L 239.818767 303.372005 
L 241.868833 302.05341 
L 245.270756 299.184909 
L 247.5288 297.202812 
L 249.668 295.007406 
L 260.649227 282.785141 
L 261.64752 281.963978 
L 262.645813 281.351023 
L 263.644107 280.951583 
L 264.6424 280.769117 
L 269.9904 280.44244 
L 283.182133 280.516328 
L 287.74576 280.965977 
L 288.744053 281.366431 
L 289.742347 281.980266 
L 290.74064 282.802168 
L 292.927378 285.158969 
L 302.791467 296.177839 
L 304.930667 298.188655 
L 309.521033 302.085403 
L 311.5711 303.408512 
L 313.621167 304.289637 
L 315.671233 304.72868 
L 317.7213 304.725596 
L 319.771367 304.280383 
L 321.821433 303.393091 
L 323.8715 302.063815 
L 327.273422 299.177592 
L 329.531467 297.183655 
L 331.670667 294.976317 
L 342.651893 282.69043 
L 343.650187 281.864662 
L 344.64848 281.247962 
L 345.646773 280.84567 
L 346.645067 280.661268 
L 351.993067 280.326714 
L 365.1848 280.381168 
L 369.748427 280.824705 
L 370.74672 281.225521 
L 371.745013 281.840939 
L 372.743307 282.66563 
L 374.930044 285.031821 
L 384.794133 296.09524 
L 386.933333 298.112514 
L 391.5237 302.019774 
L 393.573767 303.347585 
L 395.623833 304.233417 
L 397.6739 304.677175 
L 399.723967 304.67881 
L 401.774033 304.238323 
L 403.8241 303.35576 
L 405.874167 302.031218 
L 409.276089 299.152839 
L 411.534133 297.163999 
L 413.673333 294.960812 
L 424.725867 282.631727 
L 425.795467 281.781359 
L 426.865067 281.177969 
L 427.934667 280.827706 
L 433.282667 279.782229 
L 443.2656 278.446453 
L 444.406507 278.458832 
L 445.547413 278.800534 
L 446.68832 279.467473 
L 447.829227 280.451679 
L 450.158578 283.238904 
L 460.1118 295.713654 
L 462.429267 298.145875 
L 467.153333 302.369451 
L 469.2034 303.956933 
L 471.253467 305.092202 
L 473.303533 305.77513 
L 474.328567 305.946939 
L 476.542044 306.008122 
L 556.815023 306.065977 
L 565.406188 306.069885 
L 565.406188 306.069885 
" style="fill:none;stroke:#10b981;stroke-linecap:square;stroke-width:1.5;"/>
   </g>
   <g id="patch_3">
    <path d="M 30.4 317.72 
L 30.4 51.0736 
" style="fill:none;stroke:#000000;stroke-linecap:square;stroke-linejoin:miter;stroke-width:0.8;"/>
   </g>
   <g id="patch_4">
    <path d="M 565.2 317.72 
L 565.2 51.0736 
" style="fill:none;stroke:#000000;stroke-linecap:square;stroke-linejoin:miter;stroke-width:0.8;"/>
   </g>
   <g id="patch_5">
    <path d="M 30.4 317.72 
L 565.2 317.72 
" style="fill:none;stroke:#000000;stroke-linecap:square;stroke-linejoin:miter;stroke-width:0.8;"/>
   </g>
   <g id="patch_6">
    <path d="M 30.4 51.0736 
L 565.2 51.0736 
" style="fill:none;stroke:#000000;stroke-linecap:square;stroke-linejoin:miter;stroke-width:0.8;"/>
   </g>
   <g id="legend_1">
    <g id="line2d_34">
     <path d="M 39.4 22.14128 
L 59.4 22.14128 
" style="fill:none;stroke:#ef4444;stroke-linecap:square;stroke-width:1.5;"/>
    </g>
    <g id="line2d_35"/>
    <g id="text_16">
     <!-- $\beta_x$ / m -->
     <g transform="translate(67.4 25.64128)scale(0.1 -0.1)">
      <defs>
       <path d="M 13.625 3.375 
L 8.9375 -20.796875 
L -0.09375 -20.796875 
L 14.5 54.34375 
Q 18.84375 76.609375 39.65625 76.609375 
Q 60.75 76.609375 57.171875 57.8125 
Q 54.734375 44.4375 45.21875 39.546875 
Q 58.015625 35.15625 55.515625 22.125 
Q 51.125 -1.078125 27.484375 -1.03125 
Q 17.140625 -0.984375 13.625 3.375 
z
M 15.921875 15.09375 
Q 19.671875 6.59375 29.296875 6.640625 
Q 43.359375 6.640625 46.34375 21.96875 
Q 49.03125 35.75 26.171875 34.671875 
L 27.78125 42.96875 
Q 45.453125 42.671875 48.53125 58.59375 
Q 50.640625 69.34375 39.203125 69.28125 
Q 26.421875 69.28125 23.484375 54.046875 
z
" id="DejaVuSans-Oblique-946"/>
       <path d="M 60.015625 54.6875 
L 34.90625 27.875 
L 50.296875 0 
L 39.984375 0 
L 28.421875 21.6875 
L 8.296875 0 
L -2.59375 0 
L 24.3125 28.8125 
L 10.015625 54.6875 
L 20.3125 54.6875 
L 30.8125 34.90625 
L 49.125 54.6875 
z
" id="DejaVuSans-Oblique-120"/>
       <path id="Inter-Regular-32"/>
       <path d="M 33.375 76.140625 
L 25.71875 76.140625 
L 2.28125 -10.9375 
L 9.9375 -10.9375 
z
" id="Inter-Regular-47"/>
       <path d="M 7.671875 0 
L 16.046875 0 
L 16.046875 34.09375 
C 16.046875 42.078125 21.875 47.734375 28.40625 47.734375 
C 34.765625 47.734375 39.203125 43.578125 39.203125 37.359375 
L 39.203125 0 
L 47.734375 0 
L 47.734375 35.515625 
C 47.734375 42.546875 52.125 47.734375 59.796875 47.734375 
C 65.765625 47.734375 70.875 44.5625 70.875 36.5 
L 70.875 0 
L 79.265625 0 
L 79.265625 36.5 
C 79.265625 49.328125 72.375 55.25 62.640625 55.25 
C 54.828125 55.25 49.109375 51.671875 46.3125 46.015625 
L 45.734375 46.015625 
C 43.046875 51.84375 38.28125 55.25 31.109375 55.25 
C 24 55.25 18.75 51.84375 16.484375 46.015625 
L 15.765625 46.015625 
L 15.765625 54.546875 
L 7.671875 54.546875 
z
" id="Inter-Regular-109"/>
      </defs>
      <use transform="translate(0 0.390625)" xlink:href="#DejaVuSans-Oblique-946"/>
      <use transform="translate(63.818359 -16.015625)scale(0.7)" xlink:href="#DejaVuSans-Oblique-120"/>
      <use transform="translate(107.978516 0.390625)" xlink:href="#Inter-Regular-32"/>
      <use transform="translate(136.103516 0.390625)" xlink:href="#Inter-Regular-47"/>
      <use transform="translate(171.756927 0.390625)" xlink:href="#Inter-Regular-32"/>
      <use transform="translate(199.881927 0.390625)" xlink:href="#Inter-Regular-109"/>
     </g>
    </g>
    <g id="line2d_36">
     <path d="M 259.5 22.14128 
L 279.5 22.14128 
" style="fill:none;stroke:#1d4ed8;stroke-linecap:square;stroke-width:1.5;"/>
    </g>
    <g id="line2d_37"/>
    <g id="text_17">
     <!-- $\beta_y$ / m -->
     <g transform="translate(287.5 25.64128)scale(0.1 -0.1)">
      <defs>
       <path d="M 24.8125 -5.078125 
Q 18.5625 -15.578125 14.625 -18.1875 
Q 10.6875 -20.796875 4.59375 -20.796875 
L -2.484375 -20.796875 
L -0.984375 -13.28125 
L 4.203125 -13.28125 
Q 7.953125 -13.28125 10.59375 -11.234375 
Q 13.234375 -9.1875 16.5 -3.21875 
L 19.28125 2 
L 7.171875 54.6875 
L 16.703125 54.6875 
L 25.78125 12.796875 
L 50.875 54.6875 
L 60.296875 54.6875 
z
" id="DejaVuSans-Oblique-121"/>
      </defs>
      <use transform="translate(0 0.390625)" xlink:href="#DejaVuSans-Oblique-946"/>
      <use transform="translate(63.818359 -16.015625)scale(0.7)" xlink:href="#DejaVuSans-Oblique-121"/>
      <use transform="translate(107.978516 0.390625)" xlink:href="#Inter-Regular-32"/>
      <use transform="translate(136.103516 0.390625)" xlink:href="#Inter-Regular-47"/>
      <use transform="translate(171.756927 0.390625)" xlink:href="#Inter-Regular-32"/>
      <use transform="translate(199.881927 0.390625)" xlink:href="#Inter-Regular-109"/>
     </g>
    </g>
    <g id="line2d_38">
     <path d="M 479.6 22.14128 
L 499.6 22.14128 
" style="fill:none;stroke:#10b981;stroke-linecap:square;stroke-width:1.5;"/>
    </g>
    <g id="line2d_39"/>
    <g id="text_18">
     <!-- 100 $\eta_x$ / m -->
     <g transform="translate(507.6 25.64128)scale(0.1 -0.1)">
      <defs>
       <path d="M 57.859375 33.015625 
L 47.40625 -20.796875 
L 38.421875 -20.796875 
L 48.828125 32.71875 
Q 50.34375 40.484375 48.046875 44.34375 
Q 45.796875 48.1875 39.75 48.1875 
Q 32.46875 48.1875 27.34375 43.5625 
Q 22.265625 38.921875 20.703125 30.90625 
L 14.703125 0 
L 5.671875 0 
L 16.3125 54.6875 
L 25.34375 54.6875 
L 23.6875 46.1875 
Q 27.828125 51.125 32.71875 53.5625 
Q 37.546875 56 43.265625 56 
Q 52.6875 56 56.390625 50.203125 
Q 60.0625 44.34375 57.859375 33.015625 
z
" id="DejaVuSans-Oblique-951"/>
      </defs>
      <use transform="translate(0 0.859375)" xlink:href="#Inter-Regular-49"/>
      <use transform="translate(46.448868 0.859375)" xlink:href="#Inter-Regular-48"/>
      <use transform="translate(108.948883 0.859375)" xlink:href="#Inter-Regular-48"/>
      <use transform="translate(171.448898 0.859375)" xlink:href="#Inter-Regular-32"/>
      <use transform="translate(199.573898 0.859375)" xlink:href="#DejaVuSans-Oblique-951"/>
      <use transform="translate(262.952805 -15.546875)scale(0.7)" xlink:href="#DejaVuSans-Oblique-120"/>
      <use transform="translate(307.112961 0.859375)" xlink:href="#Inter-Regular-32"/>
      <use transform="translate(335.237961 0.859375)" xlink:href="#Inter-Regular-47"/>
      <use transform="translate(370.891373 0.859375)" xlink:href="#Inter-Regular-32"/>
      <use transform="translate(399.016373 0.859375)" xlink:href="#Inter-Regular-109"/>
     </g>
    </g>
   </g>
   <g id="patch_7">
    <path d="M 119.533333 57.422324 
L 122.742133 57.422324 
L 122.742133 44.724876 
L 119.533333 44.724876 
z
" style="fill:#ef4444;"/>
   </g>
   <g id="patch_8">
    <path d="M 126.307467 57.422324 
L 129.159733 57.422324 
L 129.159733 44.724876 
L 126.307467 44.724876 
z
" style="fill:#10b981;"/>
   </g>
   <g id="patch_9">
    <path d="M 132.725067 57.422324 
L 141.281867 57.422324 
L 141.281867 44.724876 
L 132.725067 44.724876 
z
" style="fill:#ef4444;"/>
   </g>
   <g id="patch_10">
    <path d="M 144.8472 57.422324 
L 148.056 57.422324 
L 148.056 44.724876 
L 144.8472 44.724876 
z
" style="fill:#ef4444;"/>
   </g>
   <g id="patch_11">
    <path d="M 151.621333 57.422324 
L 154.4736 57.422324 
L 154.4736 44.724876 
L 151.621333 44.724876 
z
" style="fill:#10b981;"/>
   </g>
   <g id="patch_12">
    <path d="M 158.038933 57.422324 
L 166.2392 57.422324 
L 166.2392 44.724876 
L 158.038933 44.724876 
z
" style="fill:#fbbf24;"/>
   </g>
   <g id="patch_13">
    <path d="M 169.804533 57.422324 
L 174.439467 57.422324 
L 174.439467 44.724876 
L 169.804533 44.724876 
z
" style="fill:#ef4444;"/>
   </g>
   <g id="patch_14">
    <path d="M 178.0048 57.422324 
L 180.857067 57.422324 
L 180.857067 44.724876 
L 178.0048 44.724876 
z
" style="fill:#10b981;"/>
   </g>
   <g id="patch_15">
    <path d="M 184.4224 57.422324 
L 190.126933 57.422324 
L 190.126933 44.724876 
L 184.4224 44.724876 
z
" style="fill:#ef4444;"/>
   </g>
   <g id="patch_16">
    <path d="M 193.692267 57.422324 
L 196.544533 57.422324 
L 196.544533 44.724876 
L 193.692267 44.724876 
z
" style="fill:#10b981;"/>
   </g>
   <g id="patch_17">
    <path d="M 200.109867 57.422324 
L 201.892533 57.422324 
L 201.892533 44.724876 
L 200.109867 44.724876 
z
" style="fill:#fbbf24;"/>
   </g>
   <g id="patch_18">
    <path d="M 205.457867 57.422324 
L 209.736267 57.422324 
L 209.736267 44.724876 
L 205.457867 44.724876 
z
" style="fill:#ef4444;"/>
   </g>
   <g id="patch_19">
    <path d="M 213.3016 57.422324 
L 216.153867 57.422324 
L 216.153867 44.724876 
L 213.3016 44.724876 
z
" style="fill:#10b981;"/>
   </g>
   <g id="patch_20">
    <path d="M 219.7192 57.422324 
L 222.928 57.422324 
L 222.928 44.724876 
L 219.7192 44.724876 
z
" style="fill:#ef4444;"/>
   </g>
   <g id="patch_21">
    <path d="M 226.493333 57.422324 
L 242.893867 57.422324 
L 242.893867 44.724876 
L 226.493333 44.724876 
z
" style="fill:#fbbf24;"/>
   </g>
   <g id="patch_22">
    <path d="M 246.4592 57.422324 
L 249.668 57.422324 
L 249.668 44.724876 
L 246.4592 44.724876 
z
" style="fill:#ef4444;"/>
   </g>
   <g id="patch_23">
    <path d="M 253.233333 57.422324 
L 256.0856 57.422324 
L 256.0856 44.724876 
L 253.233333 44.724876 
z
" style="fill:#10b981;"/>
   </g>
   <g id="patch_24">
    <path d="M 259.650933 57.422324 
L 264.6424 57.422324 
L 264.6424 44.724876 
L 259.650933 44.724876 
z
" style="fill:#ef4444;"/>
   </g>
   <g id="patch_25">
    <path d="M 268.207733 57.422324 
L 269.9904 57.422324 
L 269.9904 44.724876 
L 268.207733 44.724876 
z
" style="fill:#fbbf24;"/>
   </g>
   <g id="patch_26">
    <path d="M 273.555733 57.422324 
L 277.834133 57.422324 
L 277.834133 44.724876 
L 273.555733 44.724876 
z
" style="fill:#10b981;"/>
   </g>
   <g id="patch_27">
    <path d="M 281.399467 57.422324 
L 283.182133 57.422324 
L 283.182133 44.724876 
L 281.399467 44.724876 
z
" style="fill:#fbbf24;"/>
   </g>
   <g id="patch_28">
    <path d="M 286.747467 57.422324 
L 291.738933 57.422324 
L 291.738933 44.724876 
L 286.747467 44.724876 
z
" style="fill:#ef4444;"/>
   </g>
   <g id="patch_29">
    <path d="M 295.304267 57.422324 
L 298.156533 57.422324 
L 298.156533 44.724876 
L 295.304267 44.724876 
z
" style="fill:#10b981;"/>
   </g>
   <g id="patch_30">
    <path d="M 301.721867 57.422324 
L 304.930667 57.422324 
L 304.930667 44.724876 
L 301.721867 44.724876 
z
" style="fill:#ef4444;"/>
   </g>
   <g id="patch_31">
    <path d="M 308.496 57.422324 
L 324.896533 57.422324 
L 324.896533 44.724876 
L 308.496 44.724876 
z
" style="fill:#fbbf24;"/>
   </g>
   <g id="patch_32">
    <path d="M 328.461867 57.422324 
L 331.670667 57.422324 
L 331.670667 44.724876 
L 328.461867 44.724876 
z
" style="fill:#ef4444;"/>
   </g>
   <g id="patch_33">
    <path d="M 335.236 57.422324 
L 338.088267 57.422324 
L 338.088267 44.724876 
L 335.236 44.724876 
z
" style="fill:#10b981;"/>
   </g>
   <g id="patch_34">
    <path d="M 341.6536 57.422324 
L 346.645067 57.422324 
L 346.645067 44.724876 
L 341.6536 44.724876 
z
" style="fill:#ef4444;"/>
   </g>
   <g id="patch_35">
    <path d="M 350.2104 57.422324 
L 351.993067 57.422324 
L 351.993067 44.724876 
L 350.2104 44.724876 
z
" style="fill:#fbbf24;"/>
   </g>
   <g id="patch_36">
    <path d="M 355.5584 57.422324 
L 359.8368 57.422324 
L 359.8368 44.724876 
L 355.5584 44.724876 
z
" style="fill:#10b981;"/>
   </g>
   <g id="patch_37">
    <path d="M 363.402133 57.422324 
L 365.1848 57.422324 
L 365.1848 44.724876 
L 363.402133 44.724876 
z
" style="fill:#fbbf24;"/>
   </g>
   <g id="patch_38">
    <path d="M 368.750133 57.422324 
L 373.7416 57.422324 
L 373.7416 44.724876 
L 368.750133 44.724876 
z
" style="fill:#ef4444;"/>
   </g>
   <g id="patch_39">
    <path d="M 377.306933 57.422324 
L 380.1592 57.422324 
L 380.1592 44.724876 
L 377.306933 44.724876 
z
" style="fill:#10b981;"/>
   </g>
   <g id="patch_40">
    <path d="M 383.724533 57.422324 
L 386.933333 57.422324 
L 386.933333 44.724876 
L 383.724533 44.724876 
z
" style="fill:#ef4444;"/>
   </g>
   <g id="patch_41">
    <path d="M 390.498667 57.422324 
L 406.8992 57.422324 
L 406.8992 44.724876 
L 390.498667 44.724876 
z
" style="fill:#fbbf24;"/>
   </g>
   <g id="patch_42">
    <path d="M 410.464533 57.422324 
L 413.673333 57.422324 
L 413.673333 44.724876 
L 410.464533 44.724876 
z
" style="fill:#ef4444;"/>
   </g>
   <g id="patch_43">
    <path d="M 417.238667 57.422324 
L 420.090933 57.422324 
L 420.090933 44.724876 
L 417.238667 44.724876 
z
" style="fill:#10b981;"/>
   </g>
   <g id="patch_44">
    <path d="M 423.656267 57.422324 
L 427.934667 57.422324 
L 427.934667 44.724876 
L 423.656267 44.724876 
z
" style="fill:#ef4444;"/>
   </g>
   <g id="patch_45">
    <path d="M 431.5 57.422324 
L 433.282667 57.422324 
L 433.282667 44.724876 
L 431.5 44.724876 
z
" style="fill:#fbbf24;"/>
   </g>
   <g id="patch_46">
    <path d="M 436.848 57.422324 
L 439.700267 57.422324 
L 439.700267 44.724876 
L 436.848 44.724876 
z
" style="fill:#10b981;"/>
   </g>
   <g id="patch_47">
    <path d="M 443.2656 57.422324 
L 448.970133 57.422324 
L 448.970133 44.724876 
L 443.2656 44.724876 
z
" style="fill:#ef4444;"/>
   </g>
   <g id="patch_48">
    <path d="M 452.535467 57.422324 
L 455.387733 57.422324 
L 455.387733 44.724876 
L 452.535467 44.724876 
z
" style="fill:#10b981;"/>
   </g>
   <g id="patch_49">
    <path d="M 458.953067 57.422324 
L 463.588 57.422324 
L 463.588 44.724876 
L 458.953067 44.724876 
z
" style="fill:#ef4444;"/>
   </g>
   <g id="patch_50">
    <path d="M 467.153333 57.422324 
L 475.3536 57.422324 
L 475.3536 44.724876 
L 467.153333 44.724876 
z
" style="fill:#fbbf24;"/>
   </g>
   <g id="patch_51">
    <path d="M 478.918933 57.422324 
L 481.7712 57.422324 
L 481.7712 44.724876 
L 478.918933 44.724876 
z
" style="fill:#10b981;"/>
   </g>
   <g id="patch_52">
    <path d="M 485.336533 57.422324 
L 488.545333 57.422324 
L 488.545333 44.724876 
L 485.336533 44.724876 
z
" style="fill:#ef4444;"/>
   </g>
   <g id="patch_53">
    <path d="M 492.110667 57.422324 
L 500.667467 57.422324 
L 500.667467 44.724876 
L 492.110667 44.724876 
z
" style="fill:#ef4444;"/>
   </g>
   <g id="patch_54">
    <path d="M 504.2328 57.422324 
L 507.085067 57.422324 
L 507.085067 44.724876 
L 504.2328 44.724876 
z
" style="fill:#10b981;"/>
   </g>
   <g id="patch_55">
    <path d="M 510.6504 57.422324 
L 513.8592 57.422324 
L 513.8592 44.724876 
L 510.6504 44.724876 
z
" style="fill:#ef4444;"/>
   </g>
   <g id="text_19">
    <!-- UQ3 -->
    <g transform="translate(115.789296 39.683184)scale(0.05 -0.05)">
     <defs>
      <path d="M 56.53125 72.734375 
L 56.53125 25.28125 
C 56.53125 14.625 49.21875 6.953125 37.078125 6.953125 
C 24.9375 6.953125 17.609375 14.625 17.609375 25.28125 
L 17.609375 72.734375 
L 8.8125 72.734375 
L 8.8125 24.578125 
C 8.8125 9.65625 19.953125 -1.28125 37.078125 -1.28125 
C 54.1875 -1.28125 65.34375 9.65625 65.34375 24.578125 
L 65.34375 72.734375 
z
" id="Inter-Regular-85"/>
      <path d="M 70.171875 36.359375 
C 70.171875 59.375 56.671875 73.71875 38.0625 73.71875 
C 19.46875 73.71875 5.96875 59.375 5.96875 36.359375 
C 5.96875 13.359375 19.46875 -1 38.0625 -1 
C 42.828125 -1 47.234375 -0.078125 51.171875 1.703125 
L 57.53125 -6.8125 
L 67.1875 -6.8125 
L 57.703125 5.78125 
C 65.453125 12.140625 70.171875 22.734375 70.171875 36.359375 
z
M 35.234375 22.734375 
L 45.984375 8.59375 
C 43.53125 7.703125 40.875 7.25 38.0625 7.25 
C 24.859375 7.25 14.484375 17.46875 14.484375 36.359375 
C 14.484375 55.25 24.859375 65.484375 38.0625 65.484375 
C 51.28125 65.484375 61.65625 55.25 61.65625 36.359375 
C 61.65625 25.390625 58.171875 17.359375 52.625 12.53125 
L 44.890625 22.734375 
z
" id="Inter-Regular-81"/>
     </defs>
     <use xlink:href="#Inter-Regular-85"/>
     <use x="74.147751" xlink:href="#Inter-Regular-81"/>
     <use x="150.284134" xlink:href="#Inter-Regular-51"/>
    </g>
   </g>
   <g id="text_20">
    <!-- S5 -->
    <g transform="translate(124.619147 65.078079)scale(0.05 -0.05)">
     <defs>
      <path d="M 48.578125 54.546875 
L 57.109375 54.546875 
C 56.71875 65.515625 46.59375 73.71875 32.53125 73.71875 
C 18.609375 73.71875 7.671875 65.625 7.671875 53.40625 
C 7.671875 43.609375 14.78125 37.78125 26.140625 34.515625 
L 35.09375 31.953125 
C 42.75 29.828125 49.578125 27.125 49.578125 19.890625 
C 49.578125 11.9375 41.90625 6.671875 31.8125 6.671875 
C 23.15625 6.671875 15.484375 10.515625 14.78125 18.75 
L 5.6875 18.75 
C 6.53125 6.8125 16.1875 -1.28125 31.8125 -1.28125 
C 48.578125 -1.28125 58.09375 7.953125 58.09375 19.75 
C 58.09375 33.375 45.171875 37.78125 37.640625 39.765625 
L 30.25 41.765625 
C 24.859375 43.1875 16.1875 46.015625 16.1875 53.828125 
C 16.1875 60.796875 22.59375 65.90625 32.25 65.90625 
C 41.046875 65.90625 47.734375 61.71875 48.578125 54.546875 
z
" id="Inter-Regular-83"/>
     </defs>
     <use xlink:href="#Inter-Regular-83"/>
     <use x="63.778427" xlink:href="#Inter-Regular-53"/>
    </g>
   </g>
   <g id="text_21">
    <!-- UQ2 -->
    <g transform="translate(131.733154 39.683184)scale(0.05 -0.05)">
     <use xlink:href="#Inter-Regular-85"/>
     <use x="74.147751" xlink:href="#Inter-Regular-81"/>
     <use x="150.284134" xlink:href="#Inter-Regular-50"/>
    </g>
   </g>
   <g id="text_22">
    <!-- UQ1 -->
    <g transform="translate(141.53285 65.078079)scale(0.05 -0.05)">
     <use xlink:href="#Inter-Regular-85"/>
     <use x="74.147751" xlink:href="#Inter-Regular-81"/>
     <use x="150.284134" xlink:href="#Inter-Regular-49"/>
    </g>
   </g>
   <g id="text_23">
    <!-- S3 -->
    <g transform="translate(149.86192 39.683184)scale(0.05 -0.05)">
     <use xlink:href="#Inter-Regular-83"/>
     <use x="63.778427" xlink:href="#Inter-Regular-51"/>
    </g>
   </g>
   <g id="text_24">
    <!-- MB0 -->
    <g transform="translate(156.726957 65.078079)scale(0.05 -0.05)">
     <defs>
      <path d="M 8.8125 72.734375 
L 8.8125 0 
L 17.046875 0 
L 17.046875 55.25 
L 17.75 55.25 
L 40.484375 0 
L 48.4375 0 
L 71.171875 55.25 
L 71.875 55.25 
L 71.875 0 
L 80.109375 0 
L 80.109375 72.734375 
L 69.609375 72.734375 
L 44.890625 12.359375 
L 44.03125 12.359375 
L 19.3125 72.734375 
z
" id="Inter-Regular-77"/>
      <path d="M 8.8125 0 
L 35.09375 0 
C 52.28125 0 59.375 8.375 59.375 19.3125 
C 59.375 30.828125 51.421875 37.078125 44.75 37.5 
L 44.75 38.203125 
C 51 39.921875 56.53125 44.03125 56.53125 53.40625 
C 56.53125 64.0625 49.4375 72.734375 34.234375 72.734375 
L 8.8125 72.734375 
z
M 17.609375 40.765625 
L 17.609375 64.921875 
L 34.234375 64.921875 
C 43.890625 64.921875 48.15625 59.796875 48.15625 53.40625 
C 48.15625 45.734375 41.90625 40.765625 33.953125 40.765625 
z
M 17.609375 7.8125 
L 17.609375 33.09375 
L 35.515625 33.09375 
C 45.03125 33.09375 51 26.703125 51 19.3125 
C 51 12.921875 46.59375 7.8125 35.09375 7.8125 
z
" id="Inter-Regular-66"/>
     </defs>
     <use xlink:href="#Inter-Regular-77"/>
     <use x="88.920471" xlink:href="#Inter-Regular-66"/>
     <use x="153.97731" xlink:href="#Inter-Regular-48"/>
    </g>
   </g>
   <g id="text_25">
    <!-- MQ1 -->
    <g transform="translate(166.834109 39.683184)scale(0.05 -0.05)">
     <use xlink:href="#Inter-Regular-77"/>
     <use x="88.920471" xlink:href="#Inter-Regular-81"/>
     <use x="165.056854" xlink:href="#Inter-Regular-49"/>
    </g>
   </g>
   <g id="text_26">
    <!-- S1A -->
    <g transform="translate(174.98484 65.078079)scale(0.05 -0.05)">
     <defs>
      <path d="M 11.796875 0 
L 19.109375 20.59375 
L 48.515625 20.59375 
L 55.828125 0 
L 65.0625 0 
L 38.359375 72.734375 
L 29.265625 72.734375 
L 2.5625 0 
z
M 33.53125 61.21875 
L 34.09375 61.21875 
L 45.734375 28.40625 
L 21.875 28.40625 
z
" id="Inter-Regular-65"/>
     </defs>
     <use xlink:href="#Inter-Regular-83"/>
     <use x="63.778427" xlink:href="#Inter-Regular-49"/>
     <use x="110.227295" xlink:href="#Inter-Regular-65"/>
    </g>
   </g>
   <g id="text_27">
    <!-- MQ2 -->
    <g transform="translate(181.635214 39.683184)scale(0.05 -0.05)">
     <use xlink:href="#Inter-Regular-77"/>
     <use x="88.920471" xlink:href="#Inter-Regular-81"/>
     <use x="165.056854" xlink:href="#Inter-Regular-50"/>
    </g>
   </g>
   <g id="text_28">
    <!-- S0A -->
    <g transform="translate(190.271134 65.078079)scale(0.05 -0.05)">
     <use xlink:href="#Inter-Regular-83"/>
     <use x="63.778427" xlink:href="#Inter-Regular-48"/>
     <use x="126.278442" xlink:href="#Inter-Regular-65"/>
    </g>
   </g>
   <g id="text_29">
    <!-- B1 -->
    <g transform="translate(198.213309 39.683184)scale(0.05 -0.05)">
     <use xlink:href="#Inter-Regular-66"/>
     <use x="65.056839" xlink:href="#Inter-Regular-49"/>
    </g>
   </g>
   <g id="text_30">
    <!-- Q1A -->
    <g transform="translate(202.841989 65.078079)scale(0.05 -0.05)">
     <use xlink:href="#Inter-Regular-81"/>
     <use x="76.136383" xlink:href="#Inter-Regular-49"/>
     <use x="122.585251" xlink:href="#Inter-Regular-65"/>
    </g>
   </g>
   <g id="text_31">
    <!-- S1 -->
    <g transform="translate(211.971874 39.683184)scale(0.05 -0.05)">
     <use xlink:href="#Inter-Regular-83"/>
     <use x="63.778427" xlink:href="#Inter-Regular-49"/>
    </g>
   </g>
   <g id="text_32">
    <!-- Q0 -->
    <g transform="translate(217.857584 65.078079)scale(0.05 -0.05)">
     <use xlink:href="#Inter-Regular-81"/>
     <use x="76.136383" xlink:href="#Inter-Regular-48"/>
    </g>
   </g>
   <g id="text_33">
    <!-- B0 -->
    <g transform="translate(231.504537 39.683184)scale(0.05 -0.05)">
     <use xlink:href="#Inter-Regular-66"/>
     <use x="65.056839" xlink:href="#Inter-Regular-48"/>
    </g>
   </g>
   <g id="text_34">
    <!-- Q0 -->
    <g transform="translate(244.597584 65.078079)scale(0.05 -0.05)">
     <use xlink:href="#Inter-Regular-81"/>
     <use x="76.136383" xlink:href="#Inter-Regular-48"/>
    </g>
   </g>
   <g id="text_35">
    <!-- S1 -->
    <g transform="translate(251.903607 39.683184)scale(0.05 -0.05)">
     <use xlink:href="#Inter-Regular-83"/>
     <use x="63.778427" xlink:href="#Inter-Regular-49"/>
    </g>
   </g>
   <g id="text_36">
    <!-- Q1 -->
    <g transform="translate(259.081823 65.078079)scale(0.05 -0.05)">
     <use xlink:href="#Inter-Regular-81"/>
     <use x="76.136383" xlink:href="#Inter-Regular-49"/>
    </g>
   </g>
   <g id="text_37">
    <!-- B1 -->
    <g transform="translate(266.311176 39.683184)scale(0.05 -0.05)">
     <use xlink:href="#Inter-Regular-66"/>
     <use x="65.056839" xlink:href="#Inter-Regular-49"/>
    </g>
   </g>
   <g id="text_38">
    <!-- S0 -->
    <g transform="translate(272.537902 65.078079)scale(0.05 -0.05)">
     <use xlink:href="#Inter-Regular-83"/>
     <use x="63.778427" xlink:href="#Inter-Regular-48"/>
    </g>
   </g>
   <g id="text_39">
    <!-- B1 -->
    <g transform="translate(279.502909 39.683184)scale(0.05 -0.05)">
     <use xlink:href="#Inter-Regular-66"/>
     <use x="65.056839" xlink:href="#Inter-Regular-49"/>
    </g>
   </g>
   <g id="text_40">
    <!-- Q1 -->
    <g transform="translate(286.178356 65.078079)scale(0.05 -0.05)">
     <use xlink:href="#Inter-Regular-81"/>
     <use x="76.136383" xlink:href="#Inter-Regular-49"/>
    </g>
   </g>
   <g id="text_41">
    <!-- S1 -->
    <g transform="translate(293.974541 39.683184)scale(0.05 -0.05)">
     <use xlink:href="#Inter-Regular-83"/>
     <use x="63.778427" xlink:href="#Inter-Regular-49"/>
    </g>
   </g>
   <g id="text_42">
    <!-- Q0 -->
    <g transform="translate(299.860251 65.078079)scale(0.05 -0.05)">
     <use xlink:href="#Inter-Regular-81"/>
     <use x="76.136383" xlink:href="#Inter-Regular-48"/>
    </g>
   </g>
   <g id="text_43">
    <!-- B0 -->
    <g transform="translate(313.507204 39.683184)scale(0.05 -0.05)">
     <use xlink:href="#Inter-Regular-66"/>
     <use x="65.056839" xlink:href="#Inter-Regular-48"/>
    </g>
   </g>
   <g id="text_44">
    <!-- Q0 -->
    <g transform="translate(326.600251 65.078079)scale(0.05 -0.05)">
     <use xlink:href="#Inter-Regular-81"/>
     <use x="76.136383" xlink:href="#Inter-Regular-48"/>
    </g>
   </g>
   <g id="text_45">
    <!-- S1 -->
    <g transform="translate(333.906274 39.683184)scale(0.05 -0.05)">
     <use xlink:href="#Inter-Regular-83"/>
     <use x="63.778427" xlink:href="#Inter-Regular-49"/>
    </g>
   </g>
   <g id="text_46">
    <!-- Q1 -->
    <g transform="translate(341.08449 65.078079)scale(0.05 -0.05)">
     <use xlink:href="#Inter-Regular-81"/>
     <use x="76.136383" xlink:href="#Inter-Regular-49"/>
    </g>
   </g>
   <g id="text_47">
    <!-- B1 -->
    <g transform="translate(348.313843 39.683184)scale(0.05 -0.05)">
     <use xlink:href="#Inter-Regular-66"/>
     <use x="65.056839" xlink:href="#Inter-Regular-49"/>
    </g>
   </g>
   <g id="text_48">
    <!-- S0 -->
    <g transform="translate(354.540569 65.078079)scale(0.05 -0.05)">
     <use xlink:href="#Inter-Regular-83"/>
     <use x="63.778427" xlink:href="#Inter-Regular-48"/>
    </g>
   </g>
   <g id="text_49">
    <!-- B1 -->
    <g transform="translate(361.505576 39.683184)scale(0.05 -0.05)">
     <use xlink:href="#Inter-Regular-66"/>
     <use x="65.056839" xlink:href="#Inter-Regular-49"/>
    </g>
   </g>
   <g id="text_50">
    <!-- Q1 -->
    <g transform="translate(368.181023 65.078079)scale(0.05 -0.05)">
     <use xlink:href="#Inter-Regular-81"/>
     <use x="76.136383" xlink:href="#Inter-Regular-49"/>
    </g>
   </g>
   <g id="text_51">
    <!-- S1 -->
    <g transform="translate(375.977207 39.683184)scale(0.05 -0.05)">
     <use xlink:href="#Inter-Regular-83"/>
     <use x="63.778427" xlink:href="#Inter-Regular-49"/>
    </g>
   </g>
   <g id="text_52">
    <!-- Q0 -->
    <g transform="translate(381.862918 65.078079)scale(0.05 -0.05)">
     <use xlink:href="#Inter-Regular-81"/>
     <use x="76.136383" xlink:href="#Inter-Regular-48"/>
    </g>
   </g>
   <g id="text_53">
    <!-- B0 -->
    <g transform="translate(395.509871 39.683184)scale(0.05 -0.05)">
     <use xlink:href="#Inter-Regular-66"/>
     <use x="65.056839" xlink:href="#Inter-Regular-48"/>
    </g>
   </g>
   <g id="text_54">
    <!-- Q0 -->
    <g transform="translate(408.602918 65.078079)scale(0.05 -0.05)">
     <use xlink:href="#Inter-Regular-81"/>
     <use x="76.136383" xlink:href="#Inter-Regular-48"/>
    </g>
   </g>
   <g id="text_55">
    <!-- S1 -->
    <g transform="translate(415.908941 39.683184)scale(0.05 -0.05)">
     <use xlink:href="#Inter-Regular-83"/>
     <use x="63.778427" xlink:href="#Inter-Regular-49"/>
    </g>
   </g>
   <g id="text_56">
    <!-- Q1A -->
    <g transform="translate(421.040389 65.078079)scale(0.05 -0.05)">
     <use xlink:href="#Inter-Regular-81"/>
     <use x="76.136383" xlink:href="#Inter-Regular-49"/>
     <use x="122.585251" xlink:href="#Inter-Regular-65"/>
    </g>
   </g>
   <g id="text_57">
    <!-- B1 -->
    <g transform="translate(429.603443 39.683184)scale(0.05 -0.05)">
     <use xlink:href="#Inter-Regular-66"/>
     <use x="65.056839" xlink:href="#Inter-Regular-49"/>
    </g>
   </g>
   <g id="text_58">
    <!-- S0A -->
    <g transform="translate(433.426868 65.078079)scale(0.05 -0.05)">
     <use xlink:href="#Inter-Regular-83"/>
     <use x="63.778427" xlink:href="#Inter-Regular-48"/>
     <use x="126.278442" xlink:href="#Inter-Regular-65"/>
    </g>
   </g>
   <g id="text_59">
    <!-- MQ2 -->
    <g transform="translate(440.478414 39.683184)scale(0.05 -0.05)">
     <use xlink:href="#Inter-Regular-77"/>
     <use x="88.920471" xlink:href="#Inter-Regular-81"/>
     <use x="165.056854" xlink:href="#Inter-Regular-50"/>
    </g>
   </g>
   <g id="text_60">
    <!-- S1A -->
    <g transform="translate(449.515506 65.078079)scale(0.05 -0.05)">
     <use xlink:href="#Inter-Regular-83"/>
     <use x="63.778427" xlink:href="#Inter-Regular-49"/>
     <use x="110.227295" xlink:href="#Inter-Regular-65"/>
    </g>
   </g>
   <g id="text_61">
    <!-- MQ1 -->
    <g transform="translate(455.982643 39.683184)scale(0.05 -0.05)">
     <use xlink:href="#Inter-Regular-77"/>
     <use x="88.920471" xlink:href="#Inter-Regular-81"/>
     <use x="165.056854" xlink:href="#Inter-Regular-49"/>
    </g>
   </g>
   <g id="text_62">
    <!-- MB0 -->
    <g transform="translate(465.841357 65.078079)scale(0.05 -0.05)">
     <use xlink:href="#Inter-Regular-77"/>
     <use x="88.920471" xlink:href="#Inter-Regular-66"/>
     <use x="153.97731" xlink:href="#Inter-Regular-48"/>
    </g>
   </g>
   <g id="text_63">
    <!-- S3 -->
    <g transform="translate(477.15952 39.683184)scale(0.05 -0.05)">
     <use xlink:href="#Inter-Regular-83"/>
     <use x="63.778427" xlink:href="#Inter-Regular-51"/>
    </g>
   </g>
   <g id="text_64">
    <!-- UQ1 -->
    <g transform="translate(482.022183 65.078079)scale(0.05 -0.05)">
     <use xlink:href="#Inter-Regular-85"/>
     <use x="74.147751" xlink:href="#Inter-Regular-81"/>
     <use x="150.284134" xlink:href="#Inter-Regular-49"/>
    </g>
   </g>
   <g id="text_65">
    <!-- UQ2 -->
    <g transform="translate(491.118754 39.683184)scale(0.05 -0.05)">
     <use xlink:href="#Inter-Regular-85"/>
     <use x="74.147751" xlink:href="#Inter-Regular-81"/>
     <use x="150.284134" xlink:href="#Inter-Regular-50"/>
    </g>
   </g>
   <g id="text_66">
    <!-- S5 -->
    <g transform="translate(502.54448 65.078079)scale(0.05 -0.05)">
     <use xlink:href="#Inter-Regular-83"/>
     <use x="63.778427" xlink:href="#Inter-Regular-53"/>
    </g>
   </g>
   <g id="text_67">
    <!-- UQ3 -->
    <g transform="translate(506.906362 39.683184)scale(0.05 -0.05)">
     <use xlink:href="#Inter-Regular-85"/>
     <use x="74.147751" xlink:href="#Inter-Regular-81"/>
     <use x="150.284134" xlink:href="#Inter-Regular-51"/>
    </g>
   </g>
  </g>
 </g>
 <defs>
  <clipPath id="pfa416447b7">
   <rect height="266.6464" width="534.8" x="30.4" y="51.0736"/>
  </clipPath>
 </defs>
</svg>
