<?xml version="1.0" encoding="utf-8" standalone="no"?>
<!DOCTYPE svg PUBLIC "-//W3C//DTD SVG 1.1//EN"
  "http://www.w3.org/Graphics/SVG/1.1/DTD/svg11.dtd">
<!-- Created with matplotlib (https://matplotlib.org/) -->
<svg height="360pt" version="1.1" viewBox="0 0 576 360" width="576pt" xmlns="http://www.w3.org/2000/svg" xmlns:xlink="http://www.w3.org/1999/xlink">
 <metadata>
  <rdf:RDF xmlns:cc="http://creativecommons.org/ns#" xmlns:dc="http://purl.org/dc/elements/1.1/" xmlns:rdf="http://www.w3.org/1999/02/22-rdf-syntax-ns#">
   <cc:Work>
    <dc:type rdf:resource="http://purl.org/dc/dcmitype/StillImage"/>
    <dc:date>2020-12-08T15:37:29.815903</dc:date>
    <dc:format>image/svg+xml</dc:format>
    <dc:creator>
     <cc:Agent>
      <dc:title>Matplotlib v3.3.3, https://matplotlib.org/</dc:title>
     </cc:Agent>
    </dc:creator>
   </cc:Work>
  </rdf:RDF>
 </metadata>
 <defs>
  <style type="text/css">*{stroke-linecap:butt;stroke-linejoin:round;}</style>
 </defs>
 <g id="figure_1">
  <g id="patch_1">
   <path d="M 0 360 
L 576 360 
L 576 0 
L 0 0 
z
" style="fill:#ffffff;"/>
  </g>
  <g id="axes_1">
   <g id="patch_2">
    <path d="M 30.13 315.88 
L 561.33 315.88 
L 561.33 28.26 
L 30.13 28.26 
z
" style="fill:#ffffff;"/>
   </g>
   <g id="matplotlib.axis_1">
    <g id="xtick_1">
     <g id="line2d_1">
      <defs>
       <path d="M 0 0 
L 0 3.5 
" id="m91c5f1479b" style="stroke:#000000;stroke-width:0.8;"/>
      </defs>
      <g>
       <use style="stroke:#000000;stroke-width:0.8;" x="30.13" xlink:href="#m91c5f1479b" y="315.88"/>
      </g>
     </g>
     <g id="text_1">
      <!-- 0 -->
      <g transform="translate(27.005 330.153437)scale(0.1 -0.1)">
       <defs>
        <path d="M 31.25 -1 
C 47.296875 -1 56.53125 12.609375 56.53125 36.359375 
C 56.53125 59.9375 47.15625 73.71875 31.25 73.71875 
C 15.34375 73.71875 5.96875 59.9375 5.96875 36.359375 
C 5.96875 12.609375 15.203125 -1 31.25 -1 
z
M 31.25 6.8125 
C 20.671875 6.8125 14.484375 17.4375 14.484375 36.359375 
C 14.484375 55.25 20.734375 66.046875 31.25 66.046875 
C 41.765625 66.046875 48.015625 55.25 48.015625 36.359375 
C 48.015625 17.4375 41.828125 6.8125 31.25 6.8125 
z
" id="Inter-Regular-48"/>
       </defs>
       <use xlink:href="#Inter-Regular-48"/>
      </g>
     </g>
    </g>
    <g id="xtick_2">
     <g id="line2d_2">
      <g>
       <use style="stroke:#000000;stroke-width:0.8;" x="100.956667" xlink:href="#m91c5f1479b" y="315.88"/>
      </g>
     </g>
     <g id="text_2">
      <!-- 1 -->
      <g transform="translate(98.63401 330.153437)scale(0.1 -0.1)">
       <defs>
        <path d="M 33.09375 72.734375 
L 24.296875 72.734375 
L 6.109375 60.65625 
L 6.109375 51.703125 
L 23.859375 63.5 
L 24.296875 63.5 
L 24.296875 0 
L 33.09375 0 
z
" id="Inter-Regular-49"/>
       </defs>
       <use xlink:href="#Inter-Regular-49"/>
      </g>
     </g>
    </g>
    <g id="xtick_3">
     <g id="line2d_3">
      <g>
       <use style="stroke:#000000;stroke-width:0.8;" x="171.783333" xlink:href="#m91c5f1479b" y="315.88"/>
      </g>
     </g>
     <g id="text_3">
      <!-- 2 -->
      <g transform="translate(168.757552 330.153437)scale(0.1 -0.1)">
       <defs>
        <path d="M 7.53125 0 
L 53.40625 0 
L 53.40625 7.8125 
L 19.609375 7.8125 
L 19.609375 8.375 
L 35.9375 25.859375 
C 48.4375 39.234375 52.125 45.484375 52.125 53.546875 
C 52.125 64.765625 43.046875 73.71875 30.25 73.71875 
C 17.515625 73.71875 7.8125 65.0625 7.8125 52.265625 
L 16.1875 52.265625 
C 16.1875 60.546875 21.5625 66.046875 29.96875 66.046875 
C 37.859375 66.046875 43.890625 61.21875 43.890625 53.546875 
C 43.890625 46.84375 39.953125 41.875 31.53125 32.671875 
L 7.53125 6.390625 
z
" id="Inter-Regular-50"/>
       </defs>
       <use xlink:href="#Inter-Regular-50"/>
      </g>
     </g>
    </g>
    <g id="xtick_4">
     <g id="line2d_4">
      <g>
       <use style="stroke:#000000;stroke-width:0.8;" x="242.61" xlink:href="#m91c5f1479b" y="315.88"/>
      </g>
     </g>
     <g id="text_4">
      <!-- 3 -->
      <g transform="translate(239.427969 330.153437)scale(0.1 -0.1)">
       <defs>
        <path d="M 32.109375 -1 
C 46.203125 -1 56.671875 7.84375 56.671875 19.75 
C 56.671875 28.984375 51.203125 35.6875 42.046875 37.21875 
L 42.046875 37.78125 
C 49.390625 40.015625 53.984375 46.0625 53.984375 54.265625 
C 53.984375 64.5625 45.84375 73.71875 32.390625 73.71875 
C 19.8125 73.71875 9.375 65.984375 8.953125 54.546875 
L 17.46875 54.546875 
C 17.796875 61.796875 24.6875 66.046875 32.25 66.046875 
C 40.265625 66.046875 45.453125 61.1875 45.453125 53.828125 
C 45.453125 46.171875 39.453125 41.1875 30.828125 41.1875 
L 25 41.1875 
L 25 33.375 
L 30.828125 33.375 
C 41.875 33.375 48.015625 27.765625 48.015625 19.75 
C 48.015625 12.03125 41.296875 6.8125 31.96875 6.8125 
C 23.546875 6.8125 16.875 11.15625 16.34375 18.1875 
L 7.390625 18.1875 
C 7.921875 6.75 18 -1 32.109375 -1 
z
" id="Inter-Regular-51"/>
       </defs>
       <use xlink:href="#Inter-Regular-51"/>
      </g>
     </g>
    </g>
    <g id="xtick_5">
     <g id="line2d_5">
      <g>
       <use style="stroke:#000000;stroke-width:0.8;" x="313.436667" xlink:href="#m91c5f1479b" y="315.88"/>
      </g>
     </g>
     <g id="text_5">
      <!-- 4 -->
      <g transform="translate(310.22651 330.153437)scale(0.1 -0.1)">
       <defs>
        <path d="M 5.828125 14.921875 
L 40.0625 14.921875 
L 40.0625 0 
L 48.4375 0 
L 48.4375 14.921875 
L 58.375 14.921875 
L 58.375 22.734375 
L 48.4375 22.734375 
L 48.4375 72.734375 
L 37.78125 72.734375 
L 5.828125 22.15625 
z
M 15.34375 22.734375 
L 15.34375 23.296875 
L 39.484375 61.5 
L 40.0625 61.5 
L 40.0625 22.734375 
z
" id="Inter-Regular-52"/>
       </defs>
       <use xlink:href="#Inter-Regular-52"/>
      </g>
     </g>
    </g>
    <g id="xtick_6">
     <g id="line2d_6">
      <g>
       <use style="stroke:#000000;stroke-width:0.8;" x="384.263333" xlink:href="#m91c5f1479b" y="315.88"/>
      </g>
     </g>
     <g id="text_6">
      <!-- 5 -->
      <g transform="translate(381.22349 330.153437)scale(0.1 -0.1)">
       <defs>
        <path d="M 30.25 -1 
C 44.109375 -1 54.265625 9.234375 54.265625 23.15625 
C 54.265625 37.25 44.46875 47.578125 31.109375 47.578125 
C 26.203125 47.578125 21.453125 45.84375 18.46875 43.46875 
L 18.046875 43.46875 
L 20.59375 64.921875 
L 51 64.921875 
L 51 72.734375 
L 13.21875 72.734375 
L 8.8125 36.9375 
L 17.046875 35.9375 
C 20.0625 38.109375 25.21875 39.671875 29.6875 39.625 
C 38.953125 39.5625 45.734375 32.53125 45.734375 23.015625 
C 45.734375 13.671875 39.203125 6.8125 30.25 6.8125 
C 22.796875 6.8125 16.875 11.609375 16.1875 18.1875 
L 7.671875 18.1875 
C 8.203125 7.109375 17.75 -1 30.25 -1 
z
" id="Inter-Regular-53"/>
       </defs>
       <use xlink:href="#Inter-Regular-53"/>
      </g>
     </g>
    </g>
    <g id="xtick_7">
     <g id="line2d_7">
      <g>
       <use style="stroke:#000000;stroke-width:0.8;" x="455.09" xlink:href="#m91c5f1479b" y="315.88"/>
      </g>
     </g>
     <g id="text_7">
      <!-- 6 -->
      <g transform="translate(451.972031 330.153437)scale(0.1 -0.1)">
       <defs>
        <path d="M 31.671875 -1 
C 46.375 -1.171875 55.96875 9.90625 55.96875 23.4375 
C 55.96875 37.5 45.5625 47.578125 33.09375 47.578125 
C 25.609375 47.578125 19.171875 43.921875 15.203125 37.921875 
L 14.625 37.921875 
C 14.671875 55.78125 21.5625 66.046875 32.8125 66.046875 
C 40.484375 66.046875 45.09375 61.21875 46.734375 54.546875 
L 55.40625 54.546875 
C 53.625 65.984375 45.03125 73.859375 32.8125 73.859375 
C 16.4375 73.859375 6.390625 59.375 6.390625 33.515625 
C 6.390625 6.640625 19.75 -0.859375 31.671875 -1 
z
M 31.671875 6.8125 
C 22.546875 6.8125 15.875 14.59375 15.90625 23.296875 
C 15.953125 32 22.9375 39.765625 31.96875 39.765625 
C 40.875 39.765625 47.4375 32.453125 47.4375 23.4375 
C 47.4375 14.203125 40.59375 6.8125 31.671875 6.8125 
z
" id="Inter-Regular-54"/>
       </defs>
       <use xlink:href="#Inter-Regular-54"/>
      </g>
     </g>
    </g>
    <g id="xtick_8">
     <g id="line2d_8">
      <g>
       <use style="stroke:#000000;stroke-width:0.8;" x="525.916667" xlink:href="#m91c5f1479b" y="315.88"/>
      </g>
     </g>
     <g id="text_8">
      <!-- 7 -->
      <g transform="translate(523.061198 330.153437)scale(0.1 -0.1)">
       <defs>
        <path d="M 9.796875 0 
L 19.03125 0 
L 51.421875 64.484375 
L 51.421875 72.734375 
L 4.828125 72.734375 
L 4.828125 64.921875 
L 42.328125 64.921875 
L 42.328125 64.34375 
z
" id="Inter-Regular-55"/>
       </defs>
       <use xlink:href="#Inter-Regular-55"/>
      </g>
     </g>
    </g>
    <g id="text_9">
     <!-- Orbit Position $s$ / m -->
     <g transform="translate(250.68 343.472188)scale(0.1 -0.1)">
      <defs>
       <path d="M 70.171875 36.359375 
C 70.171875 59.375 56.671875 73.71875 38.0625 73.71875 
C 19.46875 73.71875 5.96875 59.375 5.96875 36.359375 
C 5.96875 13.359375 19.46875 -1 38.0625 -1 
C 56.671875 -1 70.171875 13.359375 70.171875 36.359375 
z
M 61.65625 36.359375 
C 61.65625 17.46875 51.28125 7.25 38.0625 7.25 
C 24.859375 7.25 14.484375 17.46875 14.484375 36.359375 
C 14.484375 55.25 24.859375 65.484375 38.0625 65.484375 
C 51.28125 65.484375 61.65625 55.25 61.65625 36.359375 
z
" id="Inter-Regular-79"/>
       <path d="M 7.671875 0 
L 16.046875 0 
L 16.046875 34.515625 
C 16.046875 41.90625 21.875 47.296875 29.828125 47.296875 
C 32.0625 47.296875 34.375 46.875 34.9375 46.734375 
L 34.9375 55.25 
C 33.984375 55.328125 31.78125 55.390625 30.546875 55.390625 
C 24 55.390625 18.328125 51.703125 16.34375 46.3125 
L 15.765625 46.3125 
L 15.765625 54.546875 
L 7.671875 54.546875 
z
" id="Inter-Regular-114"/>
       <path d="M 8.8125 0 
L 16.90625 0 
L 16.90625 8.375 
L 17.90625 8.375 
C 19.75 5.390625 23.296875 -1.140625 33.8125 -1.140625 
C 47.4375 -1.140625 56.96875 9.796875 56.96875 27.125 
C 56.96875 44.3125 47.4375 55.25 33.671875 55.25 
C 23.015625 55.25 19.75 48.71875 17.90625 45.875 
L 17.1875 45.875 
L 17.1875 72.734375 
L 8.8125 72.734375 
z
M 17.046875 27.265625 
C 17.046875 39.484375 22.4375 47.734375 32.671875 47.734375 
C 43.328125 47.734375 48.578125 38.78125 48.578125 27.265625 
C 48.578125 15.625 43.1875 6.390625 32.671875 6.390625 
C 22.59375 6.390625 17.046875 14.921875 17.046875 27.265625 
z
" id="Inter-Regular-98"/>
       <path d="M 11.9375 63.640625 
C 15.203125 63.640625 17.90625 66.1875 17.90625 69.3125 
C 17.90625 72.4375 15.203125 75 11.9375 75 
C 8.671875 75 5.96875 72.4375 5.96875 69.3125 
C 5.96875 66.1875 8.671875 63.640625 11.9375 63.640625 
z
M 7.671875 0 
L 16.046875 0 
L 16.046875 54.546875 
L 7.671875 54.546875 
z
" id="Inter-Regular-105"/>
       <path d="M 31.390625 54.546875 
L 19.75 54.546875 
L 19.75 67.609375 
L 11.359375 67.609375 
L 11.359375 54.546875 
L 3.125 54.546875 
L 3.125 47.4375 
L 11.359375 47.4375 
L 11.359375 13.359375 
C 11.359375 3.828125 19.03125 -0.703125 26.140625 -0.703125 
C 29.265625 -0.703125 31.25 -0.140625 32.390625 0.28125 
L 30.6875 7.8125 
C 29.96875 7.671875 28.84375 7.390625 26.984375 7.390625 
C 23.296875 7.390625 19.75 8.515625 19.75 15.625 
L 19.75 47.4375 
L 31.390625 47.4375 
z
" id="Inter-Regular-116"/>
       <path id="Inter-Regular-32"/>
       <path d="M 8.8125 0 
L 17.609375 0 
L 17.609375 26.5625 
L 33.53125 26.5625 
C 50.46875 26.5625 58.09375 36.859375 58.09375 49.71875 
C 58.09375 62.578125 50.46875 72.734375 33.375 72.734375 
L 8.8125 72.734375 
z
M 33.09375 64.921875 
C 44.921875 64.921875 49.4375 58.453125 49.4375 49.71875 
C 49.4375 40.984375 44.921875 34.375 33.234375 34.375 
L 17.609375 34.375 
L 17.609375 64.921875 
z
" id="Inter-Regular-80"/>
       <path d="M 29.828125 -1.140625 
C 44.609375 -1.140625 54.546875 10.078125 54.546875 26.984375 
C 54.546875 44.03125 44.609375 55.25 29.828125 55.25 
C 15.0625 55.25 5.109375 44.03125 5.109375 26.984375 
C 5.109375 10.078125 15.0625 -1.140625 29.828125 -1.140625 
z
M 29.828125 6.390625 
C 18.609375 6.390625 13.5 16.046875 13.5 26.984375 
C 13.5 37.921875 18.609375 47.734375 29.828125 47.734375 
C 41.046875 47.734375 46.171875 37.921875 46.171875 26.984375 
C 46.171875 16.046875 41.046875 6.390625 29.828125 6.390625 
z
" id="Inter-Regular-111"/>
       <path d="M 46.3125 42.328125 
C 43.6875 50.078125 37.78125 55.25 26.984375 55.25 
C 15.484375 55.25 6.96875 48.71875 6.96875 39.484375 
C 6.96875 31.953125 11.4375 26.921875 21.453125 24.578125 
L 30.546875 22.4375 
C 36.046875 21.171875 38.640625 18.53125 38.640625 14.765625 
C 38.640625 10.078125 33.671875 6.25 25.859375 6.25 
C 19 6.25 14.703125 9.203125 13.21875 15.0625 
L 5.25 13.0625 
C 7.203125 3.796875 14.84375 -1.140625 26 -1.140625 
C 38.671875 -1.140625 47.296875 5.78125 47.296875 15.203125 
C 47.296875 22.796875 42.546875 27.59375 32.8125 29.96875 
L 24.71875 31.953125 
C 18.25 33.5625 15.34375 35.71875 15.34375 39.921875 
C 15.34375 44.609375 20.3125 48.015625 26.984375 48.015625 
C 34.3125 48.015625 37.328125 43.96875 38.78125 40.203125 
z
" id="Inter-Regular-115"/>
       <path d="M 16.046875 32.8125 
C 16.046875 42.328125 21.953125 47.734375 29.96875 47.734375 
C 37.75 47.734375 42.46875 42.65625 42.46875 34.09375 
L 42.46875 0 
L 50.859375 0 
L 50.859375 34.65625 
C 50.859375 48.578125 43.4375 55.25 32.390625 55.25 
C 24.15625 55.25 19.03125 51.5625 16.484375 46.015625 
L 15.765625 46.015625 
L 15.765625 54.546875 
L 7.671875 54.546875 
L 7.671875 0 
L 16.046875 0 
z
" id="Inter-Regular-110"/>
       <path d="M 50 53.078125 
L 48.296875 44.578125 
Q 44.734375 46.53125 40.765625 47.5 
Q 36.8125 48.484375 32.625 48.484375 
Q 25.53125 48.484375 21.453125 46.0625 
Q 17.390625 43.65625 17.390625 39.5 
Q 17.390625 34.671875 26.859375 32.078125 
Q 27.59375 31.890625 27.9375 31.78125 
L 30.8125 30.90625 
Q 39.796875 28.421875 42.796875 25.6875 
Q 45.796875 22.953125 45.796875 18.21875 
Q 45.796875 9.515625 38.890625 4.046875 
Q 31.984375 -1.421875 20.796875 -1.421875 
Q 16.453125 -1.421875 11.671875 -0.578125 
Q 6.890625 0.25 1.125 2 
L 2.875 11.28125 
Q 7.8125 8.734375 12.59375 7.421875 
Q 17.390625 6.109375 21.78125 6.109375 
Q 28.375 6.109375 32.5 8.9375 
Q 36.625 11.765625 36.625 16.109375 
Q 36.625 20.796875 25.78125 23.6875 
L 24.859375 23.921875 
L 21.78125 24.703125 
Q 14.9375 26.515625 11.765625 29.46875 
Q 8.59375 32.421875 8.59375 37.015625 
Q 8.59375 45.75 15.15625 50.875 
Q 21.734375 56 33.015625 56 
Q 37.453125 56 41.671875 55.265625 
Q 45.90625 54.546875 50 53.078125 
z
" id="DejaVuSans-Oblique-115"/>
       <path d="M 33.375 76.140625 
L 25.71875 76.140625 
L 2.28125 -10.9375 
L 9.9375 -10.9375 
z
" id="Inter-Regular-47"/>
       <path d="M 7.671875 0 
L 16.046875 0 
L 16.046875 34.09375 
C 16.046875 42.078125 21.875 47.734375 28.40625 47.734375 
C 34.765625 47.734375 39.203125 43.578125 39.203125 37.359375 
L 39.203125 0 
L 47.734375 0 
L 47.734375 35.515625 
C 47.734375 42.546875 52.125 47.734375 59.796875 47.734375 
C 65.765625 47.734375 70.875 44.5625 70.875 36.5 
L 70.875 0 
L 79.265625 0 
L 79.265625 36.5 
C 79.265625 49.328125 72.375 55.25 62.640625 55.25 
C 54.828125 55.25 49.109375 51.671875 46.3125 46.015625 
L 45.734375 46.015625 
C 43.046875 51.84375 38.28125 55.25 31.109375 55.25 
C 24 55.25 18.75 51.84375 16.484375 46.015625 
L 15.765625 46.015625 
L 15.765625 54.546875 
L 7.671875 54.546875 
z
" id="Inter-Regular-109"/>
      </defs>
      <use transform="translate(0 0.859375)" xlink:href="#Inter-Regular-79"/>
      <use transform="translate(76.136383 0.859375)" xlink:href="#Inter-Regular-114"/>
      <use transform="translate(113.352295 0.859375)" xlink:href="#Inter-Regular-98"/>
      <use transform="translate(175.426178 0.859375)" xlink:href="#Inter-Regular-105"/>
      <use transform="translate(199.147766 0.859375)" xlink:href="#Inter-Regular-116"/>
      <use transform="translate(235.511414 0.859375)" xlink:href="#Inter-Regular-32"/>
      <use transform="translate(263.636414 0.859375)" xlink:href="#Inter-Regular-80"/>
      <use transform="translate(327.130737 0.859375)" xlink:href="#Inter-Regular-111"/>
      <use transform="translate(386.789841 0.859375)" xlink:href="#Inter-Regular-115"/>
      <use transform="translate(439.062576 0.859375)" xlink:href="#Inter-Regular-105"/>
      <use transform="translate(462.784164 0.859375)" xlink:href="#Inter-Regular-116"/>
      <use transform="translate(499.147812 0.859375)" xlink:href="#Inter-Regular-105"/>
      <use transform="translate(522.8694 0.859375)" xlink:href="#Inter-Regular-111"/>
      <use transform="translate(582.528503 0.859375)" xlink:href="#Inter-Regular-110"/>
      <use transform="translate(641.051239 0.859375)" xlink:href="#Inter-Regular-32"/>
      <use transform="translate(669.176239 0.859375)" xlink:href="#DejaVuSans-Oblique-115"/>
      <use transform="translate(721.275848 0.859375)" xlink:href="#Inter-Regular-32"/>
      <use transform="translate(749.400848 0.859375)" xlink:href="#Inter-Regular-47"/>
      <use transform="translate(785.05426 0.859375)" xlink:href="#Inter-Regular-32"/>
      <use transform="translate(813.17926 0.859375)" xlink:href="#Inter-Regular-109"/>
     </g>
    </g>
   </g>
   <g id="matplotlib.axis_2">
    <g id="ytick_1">
     <g id="line2d_9">
      <defs>
       <path d="M 0 0 
L -3.5 0 
" id="mdfe5638b15" style="stroke:#000000;stroke-width:0.8;"/>
      </defs>
      <g>
       <use style="stroke:#000000;stroke-width:0.8;" x="30.13" xlink:href="#mdfe5638b15" y="301.142532"/>
      </g>
     </g>
     <g id="text_10">
      <!-- 0 -->
      <g transform="translate(16.88 304.77925)scale(0.1 -0.1)">
       <use xlink:href="#Inter-Regular-48"/>
      </g>
     </g>
    </g>
    <g id="ytick_2">
     <g id="line2d_10">
      <g>
       <use style="stroke:#000000;stroke-width:0.8;" x="30.13" xlink:href="#mdfe5638b15" y="250.979587"/>
      </g>
     </g>
     <g id="text_11">
      <!-- 5 -->
      <g transform="translate(17.050313 254.616306)scale(0.1 -0.1)">
       <use xlink:href="#Inter-Regular-53"/>
      </g>
     </g>
    </g>
    <g id="ytick_3">
     <g id="line2d_11">
      <g>
       <use style="stroke:#000000;stroke-width:0.8;" x="30.13" xlink:href="#mdfe5638b15" y="200.816643"/>
      </g>
     </g>
     <g id="text_12">
      <!-- 10 -->
      <g transform="translate(12.234688 204.453362)scale(0.1 -0.1)">
       <use xlink:href="#Inter-Regular-49"/>
       <use x="46.448868" xlink:href="#Inter-Regular-48"/>
      </g>
     </g>
    </g>
    <g id="ytick_4">
     <g id="line2d_12">
      <g>
       <use style="stroke:#000000;stroke-width:0.8;" x="30.13" xlink:href="#mdfe5638b15" y="150.653699"/>
      </g>
     </g>
     <g id="text_13">
      <!-- 15 -->
      <g transform="translate(12.405 154.290418)scale(0.1 -0.1)">
       <use xlink:href="#Inter-Regular-49"/>
       <use x="46.448868" xlink:href="#Inter-Regular-53"/>
      </g>
     </g>
    </g>
    <g id="ytick_5">
     <g id="line2d_13">
      <g>
       <use style="stroke:#000000;stroke-width:0.8;" x="30.13" xlink:href="#mdfe5638b15" y="100.490755"/>
      </g>
     </g>
     <g id="text_14">
      <!-- 20 -->
      <g transform="translate(10.828438 104.127473)scale(0.1 -0.1)">
       <use xlink:href="#Inter-Regular-50"/>
       <use x="60.511383" xlink:href="#Inter-Regular-48"/>
      </g>
     </g>
    </g>
    <g id="ytick_6">
     <g id="line2d_14">
      <g>
       <use style="stroke:#000000;stroke-width:0.8;" x="30.13" xlink:href="#mdfe5638b15" y="50.32781"/>
      </g>
     </g>
     <g id="text_15">
      <!-- 25 -->
      <g transform="translate(10.99875 53.964529)scale(0.1 -0.1)">
       <use xlink:href="#Inter-Regular-50"/>
       <use x="60.511383" xlink:href="#Inter-Regular-53"/>
      </g>
     </g>
    </g>
   </g>
   <g id="patch_3">
    <path d="M 30.13 315.88 
L 30.13 28.26 
" style="fill:none;stroke:#000000;stroke-linecap:square;stroke-linejoin:miter;stroke-width:0.8;"/>
   </g>
   <g id="patch_4">
    <path d="M 561.33 315.88 
L 561.33 28.26 
" style="fill:none;stroke:#000000;stroke-linecap:square;stroke-linejoin:miter;stroke-width:0.8;"/>
   </g>
   <g id="patch_5">
    <path d="M 30.13 315.88 
L 561.33 315.88 
" style="fill:none;stroke:#000000;stroke-linecap:square;stroke-linejoin:miter;stroke-width:0.8;"/>
   </g>
   <g id="patch_6">
    <path d="M 30.13 28.26 
L 561.33 28.26 
" style="fill:none;stroke:#000000;stroke-linecap:square;stroke-linejoin:miter;stroke-width:0.8;"/>
   </g>
   <g id="line2d_15">
    <path clip-path="url(#p4300e150af)" d="M 30.13 301.992618 
L 283.61864 301.765472 
L 375.360586 301.031187 
L 382.402074 300.607782 
L 389.443563 299.956939 
L 396.485051 299.078999 
L 403.52654 297.974419 
L 410.568028 296.643774 
L 417.609516 295.087759 
L 424.651005 293.307183 
L 434.550267 290.519283 
L 462.880933 282.362754 
L 468.547067 280.424743 
L 475.588608 277.743576 
L 527.687333 257.754627 
L 531.228667 256.733192 
L 534.77 255.982655 
L 538.311333 255.507594 
L 541.1444 255.327893 
L 546.102267 255.304101 
L 562.006073 255.299568 
L 562.006073 255.299568 
" style="fill:none;stroke:#10b981;stroke-linecap:square;stroke-width:1.3;"/>
   </g>
   <g id="line2d_16">
    <path clip-path="url(#p4300e150af)" d="M 30.13 264.018137 
L 44.275169 263.847036 
L 58.420338 263.459599 
L 72.565507 262.855828 
L 86.710677 262.035722 
L 100.855846 260.999281 
L 115.001015 259.746505 
L 129.146184 258.277395 
L 143.291353 256.59195 
L 157.436522 254.69017 
L 171.581692 252.572055 
L 185.726861 250.237605 
L 199.87203 247.68682 
L 214.017199 244.919701 
L 228.162368 241.936247 
L 242.911013 238.595133 
L 252.454907 236.271464 
L 255.287973 235.28038 
L 258.12104 233.978852 
L 260.954107 232.355198 
L 263.787173 230.394842 
L 266.62024 228.080188 
L 269.453307 225.39046 
L 272.286373 222.301514 
L 275.11944 218.785622 
L 277.952507 214.811226 
L 280.785573 210.34265 
L 283.61864 205.339783 
L 286.451707 199.757718 
L 291.192667 189.660828 
L 295.933627 179.076258 
L 300.82952 167.633942 
L 305.787387 155.516796 
L 311.329573 141.340244 
L 316.747813 126.836486 
L 322.29 111.94632 
L 324.4148 107.111352 
L 326.5396 102.92838 
L 327.956133 100.517172 
L 329.372667 98.417156 
L 330.7892 96.635118 
L 332.205733 95.17682 
L 333.622267 94.046976 
L 335.0388 93.249239 
L 336.455333 92.786187 
L 338.580133 92.553579 
L 368.319098 89.977145 
L 402.118242 91.176578 
L 428.175867 92.044935 
L 458.631333 96.974576 
L 460.047867 97.644868 
L 461.4644 98.614891 
L 462.880933 99.881769 
L 464.297467 101.441743 
L 465.714 103.290188 
L 467.130533 105.421621 
L 469.255333 109.135319 
L 471.380133 113.446548 
L 477.692846 126.862061 
L 484.005558 139.771358 
L 490.31827 152.174438 
L 496.665253 164.134508 
L 503.039653 175.631192 
L 508.676479 185.367582 
L 514.303536 194.684525 
L 519.930592 203.599246 
L 525.562533 212.097138 
L 527.687333 214.887186 
L 529.812133 217.257324 
L 531.936933 219.228396 
L 534.061733 220.817737 
L 536.186533 222.039327 
L 538.311333 222.903909 
L 540.436133 223.419086 
L 541.852667 223.570787 
L 546.102267 223.583843 
L 562.006073 223.478921 
L 562.006073 223.478921 
" style="fill:none;stroke:#3b82f6;stroke-linecap:square;stroke-width:1.3;"/>
   </g>
   <g id="patch_7">
    <path d="M 228.869627 35.4505 
L 240.201893 35.4505 
L 240.201893 21.0695 
L 228.869627 21.0695 
z
" style="fill:#10b981;"/>
   </g>
   <g id="patch_8">
    <path d="M 251.038373 35.4505 
L 286.451707 35.4505 
L 286.451707 21.0695 
L 251.038373 21.0695 
z
" style="fill:#ef4444;"/>
   </g>
   <g id="patch_9">
    <path d="M 297.288187 35.4505 
L 308.620453 35.4505 
L 308.620453 21.0695 
L 297.288187 21.0695 
z
" style="fill:#10b981;"/>
   </g>
   <g id="patch_10">
    <path d="M 319.456933 35.4505 
L 337.1636 35.4505 
L 337.1636 21.0695 
L 319.456933 21.0695 
z
" style="fill:#ef4444;"/>
   </g>
   <g id="patch_11">
    <path d="M 366.9108 35.4505 
L 427.4676 35.4505 
L 427.4676 21.0695 
L 366.9108 21.0695 
z
" style="fill:#fbbf24;"/>
   </g>
   <g id="patch_12">
    <path d="M 457.2148 35.4505 
L 471.380133 35.4505 
L 471.380133 21.0695 
L 457.2148 21.0695 
z
" style="fill:#ef4444;"/>
   </g>
   <g id="patch_13">
    <path d="M 493.12392 35.4505 
L 504.456187 35.4505 
L 504.456187 21.0695 
L 493.12392 21.0695 
z
" style="fill:#10b981;"/>
   </g>
   <g id="patch_14">
    <path d="M 524.854267 35.4505 
L 542.560933 35.4505 
L 542.560933 21.0695 
L 524.854267 21.0695 
z
" style="fill:#ef4444;"/>
   </g>
   <g id="patch_15">
    <path d="M 553.8932 35.4505 
L 561.33 35.4505 
L 561.33 21.0695 
L 553.8932 21.0695 
z
" style="fill:#10b981;"/>
   </g>
   <g id="line2d_17">
    <path clip-path="url(#p4300e150af)" d="M 30.13 135.509637 
L 60.542114 135.935592 
L 90.954227 136.136589 
L 121.366341 136.112627 
L 151.778455 135.863707 
L 182.190568 135.389829 
L 212.602682 134.690993 
L 242.911013 133.770734 
L 252.454907 133.528684 
L 253.87144 133.758753 
L 255.287973 134.175663 
L 256.704507 134.778478 
L 258.12104 135.565847 
L 259.537573 136.536005 
L 261.662373 138.329102 
L 263.787173 140.519442 
L 265.911973 143.095979 
L 268.036773 146.045718 
L 270.161573 149.353784 
L 272.286373 153.003492 
L 275.11944 158.369165 
L 277.952507 164.261201 
L 280.785573 170.626792 
L 284.326907 179.162435 
L 293.901787 202.930609 
L 297.996453 212.354566 
L 302.246053 221.624946 
L 306.495653 230.375695 
L 310.652293 238.432316 
L 314.715973 245.828164 
L 318.779653 252.748853 
L 321.581733 257.162269 
L 324.4148 261.141845 
L 327.247867 264.678425 
L 330.080933 267.817799 
L 332.914 270.600619 
L 335.747067 273.062916 
L 339.2884 275.785367 
L 344.246267 279.30431 
L 349.204133 282.518585 
L 353.453733 285.031186 
L 357.703333 287.319948 
L 361.952933 289.384873 
L 366.202533 291.225959 
L 370.431544 292.816954 
L 374.656437 294.187738 
L 378.88133 295.343401 
L 383.106223 296.283077 
L 387.331116 297.006059 
L 391.556009 297.511806 
L 395.780902 297.799938 
L 400.005795 297.870237 
L 404.230688 297.722653 
L 408.455581 297.357295 
L 412.680474 296.774438 
L 416.905367 295.974519 
L 421.13026 294.958139 
L 425.355153 293.72606 
L 429.5924 292.262746 
L 433.842 290.561528 
L 438.0916 288.636471 
L 442.3412 286.487576 
L 446.5908 284.114842 
L 450.8404 281.51827 
L 455.798267 278.20603 
L 459.3396 275.611932 
L 462.172667 273.259591 
L 465.005733 270.618639 
L 467.8388 267.657708 
L 470.671867 264.341624 
L 474.185783 259.792435 
L 478.394258 253.969221 
L 482.602733 247.746439 
L 486.811208 241.124088 
L 491.019683 234.102167 
L 495.24872 226.643436 
L 499.49832 218.742007 
L 504.456187 209.008745 
L 509.379861 198.793794 
L 514.303536 188.031926 
L 519.22721 176.723141 
L 524.150885 164.86744 
L 526.979067 158.120929 
L 529.103867 153.66096 
L 531.228667 149.788383 
L 533.353467 146.537208 
L 534.77 144.729312 
L 536.186533 143.217462 
L 537.603067 142.00756 
L 539.0196 141.104331 
L 540.436133 140.511301 
L 541.852667 140.230787 
L 543.977467 140.240963 
L 562.006073 140.615044 
L 562.006073 140.615044 
" style="fill:none;stroke:#ef4444;stroke-linecap:square;stroke-width:1.3;"/>
   </g>
   <g id="text_16">
    <!-- s4d1 -->
    <g transform="translate(231.201268 44.73225)scale(0.08 -0.08)">
     <defs>
      <path d="M 28.265625 -1.140625 
C 38.78125 -1.140625 42.328125 5.390625 44.171875 8.375 
L 45.171875 8.375 
L 45.171875 0 
L 53.265625 0 
L 53.265625 72.734375 
L 44.890625 72.734375 
L 44.890625 45.875 
L 44.171875 45.875 
C 42.328125 48.71875 39.0625 55.25 28.40625 55.25 
C 14.625 55.25 5.109375 44.3125 5.109375 27.125 
C 5.109375 9.796875 14.625 -1.140625 28.265625 -1.140625 
z
M 29.40625 6.390625 
C 18.890625 6.390625 13.5 15.625 13.5 27.265625 
C 13.5 38.78125 18.75 47.734375 29.40625 47.734375 
C 39.625 47.734375 45.03125 39.484375 45.03125 27.265625 
C 45.03125 14.921875 39.484375 6.390625 29.40625 6.390625 
z
" id="Inter-Regular-100"/>
     </defs>
     <use xlink:href="#Inter-Regular-115"/>
     <use x="52.272736" xlink:href="#Inter-Regular-52"/>
     <use x="116.477295" xlink:href="#Inter-Regular-100"/>
     <use x="178.551178" xlink:href="#Inter-Regular-49"/>
    </g>
   </g>
   <g id="text_17">
    <!-- q4d1 -->
    <g transform="translate(277.104832 15.97025)scale(0.08 -0.08)">
     <defs>
      <path d="M 53.265625 -20.453125 
L 53.265625 54.546875 
L 45.171875 54.546875 
L 45.171875 45.875 
L 44.171875 45.875 
C 42.328125 48.71875 39.0625 55.25 28.40625 55.25 
C 14.625 55.25 5.109375 44.3125 5.109375 27.125 
C 5.109375 9.796875 14.625 -1.140625 28.265625 -1.140625 
C 38.78125 -1.140625 42.328125 5.390625 44.171875 8.375 
L 44.890625 8.375 
L 44.890625 -20.453125 
z
M 45.03125 27.265625 
C 45.03125 14.921875 39.484375 6.390625 29.40625 6.390625 
C 18.890625 6.390625 13.5 15.625 13.5 27.265625 
C 13.5 38.78125 18.75 47.734375 29.40625 47.734375 
C 39.625 47.734375 45.03125 39.484375 45.03125 27.265625 
z
" id="Inter-Regular-113"/>
     </defs>
     <use xlink:href="#Inter-Regular-113"/>
     <use x="60.937515" xlink:href="#Inter-Regular-52"/>
     <use x="125.142075" xlink:href="#Inter-Regular-100"/>
     <use x="187.215958" xlink:href="#Inter-Regular-49"/>
    </g>
   </g>
   <g id="text_18">
    <!-- s3d1 -->
    <g transform="translate(299.642328 44.73225)scale(0.08 -0.08)">
     <use xlink:href="#Inter-Regular-115"/>
     <use x="52.272736" xlink:href="#Inter-Regular-51"/>
     <use x="115.909119" xlink:href="#Inter-Regular-100"/>
     <use x="177.983002" xlink:href="#Inter-Regular-49"/>
    </g>
   </g>
   <g id="text_19">
    <!-- q3d1 -->
    <g transform="translate(327.839225 16.009625)scale(0.08 -0.08)">
     <use xlink:href="#Inter-Regular-113"/>
     <use x="60.937515" xlink:href="#Inter-Regular-51"/>
     <use x="124.573898" xlink:href="#Inter-Regular-100"/>
     <use x="186.647781" xlink:href="#Inter-Regular-49"/>
    </g>
   </g>
   <g id="text_20">
    <!-- b -->
    <g transform="translate(424.984475 44.73225)scale(0.08 -0.08)">
     <use xlink:href="#Inter-Regular-98"/>
    </g>
   </g>
   <g id="text_21">
    <!-- q2d -->
    <g transform="translate(464.038883 16.009625)scale(0.08 -0.08)">
     <use xlink:href="#Inter-Regular-113"/>
     <use x="60.937515" xlink:href="#Inter-Regular-50"/>
     <use x="121.448898" xlink:href="#Inter-Regular-100"/>
    </g>
   </g>
   <g id="text_22">
    <!-- s2 -->
    <g transform="translate(499.944312 44.73225)scale(0.08 -0.08)">
     <use xlink:href="#Inter-Regular-115"/>
     <use x="52.272736" xlink:href="#Inter-Regular-50"/>
    </g>
   </g>
   <g id="text_23">
    <!-- q1d -->
    <g transform="translate(535.782183 15.97025)scale(0.08 -0.08)">
     <use xlink:href="#Inter-Regular-113"/>
     <use x="60.937515" xlink:href="#Inter-Regular-49"/>
     <use x="107.386383" xlink:href="#Inter-Regular-100"/>
    </g>
   </g>
   <g id="text_24">
    <!-- s1 -->
    <g transform="translate(557.380625 44.73225)scale(0.08 -0.08)">
     <use xlink:href="#Inter-Regular-115"/>
     <use x="52.272736" xlink:href="#Inter-Regular-49"/>
    </g>
   </g>
  </g>
 </g>
 <defs>
  <clipPath id="p4300e150af">
   <rect height="287.62" width="531.2" x="30.13" y="28.26"/>
  </clipPath>
 </defs>
</svg>
