<?xml version="1.0" encoding="utf-8" standalone="no"?>
<!DOCTYPE svg PUBLIC "-//W3C//DTD SVG 1.1//EN"
  "http://www.w3.org/Graphics/SVG/1.1/DTD/svg11.dtd">
<!-- Created with matplotlib (https://matplotlib.org/) -->
<svg height="345.6pt" version="1.1" viewBox="0 0 576 345.6" width="576pt" xmlns="http://www.w3.org/2000/svg" xmlns:xlink="http://www.w3.org/1999/xlink">
 <metadata>
  <rdf:RDF xmlns:cc="http://creativecommons.org/ns#" xmlns:dc="http://purl.org/dc/elements/1.1/" xmlns:rdf="http://www.w3.org/1999/02/22-rdf-syntax-ns#">
   <cc:Work>
    <dc:type rdf:resource="http://purl.org/dc/dcmitype/StillImage"/>
    <dc:date>2020-12-15T10:10:57.034282</dc:date>
    <dc:format>image/svg+xml</dc:format>
    <dc:creator>
     <cc:Agent>
      <dc:title>Matplotlib v3.3.3, https://matplotlib.org/</dc:title>
     </cc:Agent>
    </dc:creator>
   </cc:Work>
  </rdf:RDF>
 </metadata>
 <defs>
  <style type="text/css">*{stroke-linecap:butt;stroke-linejoin:round;}</style>
 </defs>
 <g id="figure_1">
  <g id="patch_1">
   <path d="M 0 345.6 
L 576 345.6 
L 576 0 
L 0 0 
z
" style="fill:#ffffff;"/>
  </g>
  <g id="axes_1">
   <g id="patch_2">
    <path d="M 30.13 301.48 
L 551.655 301.48 
L 551.655 51.0736 
L 30.13 51.0736 
z
" style="fill:#ffffff;"/>
   </g>
   <g id="matplotlib.axis_1">
    <g id="xtick_1">
     <g id="line2d_1">
      <path clip-path="url(#pd6320d13f3)" d="M 30.13 301.48 
L 30.13 51.0736 
" style="fill:none;stroke:#e5e7eb;stroke-dasharray:3.7,1.6;stroke-dashoffset:0;"/>
     </g>
     <g id="line2d_2">
      <defs>
       <path d="M 0 0 
L 0 3.5 
" id="mb9708a142c" style="stroke:#000000;stroke-width:0.8;"/>
      </defs>
      <g>
       <use style="stroke:#000000;stroke-width:0.8;" x="30.13" xlink:href="#mb9708a142c" y="301.48"/>
      </g>
     </g>
     <g id="text_1">
      <!-- 0.000 -->
      <g transform="translate(16.251875 315.753437)scale(0.1 -0.1)">
       <defs>
        <path d="M 31.25 -1 
C 47.296875 -1 56.53125 12.609375 56.53125 36.359375 
C 56.53125 59.9375 47.15625 73.71875 31.25 73.71875 
C 15.34375 73.71875 5.96875 59.9375 5.96875 36.359375 
C 5.96875 12.609375 15.203125 -1 31.25 -1 
z
M 31.25 6.8125 
C 20.671875 6.8125 14.484375 17.4375 14.484375 36.359375 
C 14.484375 55.25 20.734375 66.046875 31.25 66.046875 
C 41.765625 66.046875 48.015625 55.25 48.015625 36.359375 
C 48.015625 17.4375 41.828125 6.8125 31.25 6.8125 
z
" id="Inter-Regular-48"/>
        <path d="M 13.78125 -0.5625 
C 17.296875 -0.5625 20.171875 2.3125 20.171875 5.828125 
C 20.171875 9.34375 17.296875 12.21875 13.78125 12.21875 
C 10.265625 12.21875 7.390625 9.34375 7.390625 5.828125 
C 7.390625 2.3125 10.265625 -0.5625 13.78125 -0.5625 
z
" id="Inter-Regular-46"/>
       </defs>
       <use xlink:href="#Inter-Regular-48"/>
       <use x="62.500015" xlink:href="#Inter-Regular-46"/>
       <use x="90.056839" xlink:href="#Inter-Regular-48"/>
       <use x="152.556854" xlink:href="#Inter-Regular-48"/>
       <use x="215.05687" xlink:href="#Inter-Regular-48"/>
      </g>
     </g>
    </g>
    <g id="xtick_2">
     <g id="line2d_3">
      <path clip-path="url(#pd6320d13f3)" d="M 360.77685 301.48 
L 360.77685 51.0736 
" style="fill:none;stroke:#e5e7eb;stroke-dasharray:3.7,1.6;stroke-dashoffset:0;"/>
     </g>
     <g id="line2d_4">
      <g>
       <use style="stroke:#000000;stroke-width:0.8;" x="360.77685" xlink:href="#mb9708a142c" y="301.48"/>
      </g>
     </g>
     <g id="text_2">
      <!-- 4.755 -->
      <g transform="translate(347.253412 315.753437)scale(0.1 -0.1)">
       <defs>
        <path d="M 5.828125 14.921875 
L 40.0625 14.921875 
L 40.0625 0 
L 48.4375 0 
L 48.4375 14.921875 
L 58.375 14.921875 
L 58.375 22.734375 
L 48.4375 22.734375 
L 48.4375 72.734375 
L 37.78125 72.734375 
L 5.828125 22.15625 
z
M 15.34375 22.734375 
L 15.34375 23.296875 
L 39.484375 61.5 
L 40.0625 61.5 
L 40.0625 22.734375 
z
" id="Inter-Regular-52"/>
        <path d="M 9.796875 0 
L 19.03125 0 
L 51.421875 64.484375 
L 51.421875 72.734375 
L 4.828125 72.734375 
L 4.828125 64.921875 
L 42.328125 64.921875 
L 42.328125 64.34375 
z
" id="Inter-Regular-55"/>
        <path d="M 30.25 -1 
C 44.109375 -1 54.265625 9.234375 54.265625 23.15625 
C 54.265625 37.25 44.46875 47.578125 31.109375 47.578125 
C 26.203125 47.578125 21.453125 45.84375 18.46875 43.46875 
L 18.046875 43.46875 
L 20.59375 64.921875 
L 51 64.921875 
L 51 72.734375 
L 13.21875 72.734375 
L 8.8125 36.9375 
L 17.046875 35.9375 
C 20.0625 38.109375 25.21875 39.671875 29.6875 39.625 
C 38.953125 39.5625 45.734375 32.53125 45.734375 23.015625 
C 45.734375 13.671875 39.203125 6.8125 30.25 6.8125 
C 22.796875 6.8125 16.875 11.609375 16.1875 18.1875 
L 7.671875 18.1875 
C 8.203125 7.109375 17.75 -1 30.25 -1 
z
" id="Inter-Regular-53"/>
       </defs>
       <use xlink:href="#Inter-Regular-52"/>
       <use x="64.204559" xlink:href="#Inter-Regular-46"/>
       <use x="91.761383" xlink:href="#Inter-Regular-55"/>
       <use x="148.863663" xlink:href="#Inter-Regular-53"/>
       <use x="209.659134" xlink:href="#Inter-Regular-53"/>
      </g>
     </g>
    </g>
    <g id="xtick_3">
     <g id="line2d_5">
      <path clip-path="url(#pd6320d13f3)" d="M 420.2307 301.48 
L 420.2307 51.0736 
" style="fill:none;stroke:#e5e7eb;stroke-dasharray:3.7,1.6;stroke-dashoffset:0;"/>
     </g>
     <g id="line2d_6">
      <g>
       <use style="stroke:#000000;stroke-width:0.8;" x="420.2307" xlink:href="#mb9708a142c" y="301.48"/>
      </g>
     </g>
     <g id="text_3">
      <!-- 5.610 -->
      <g transform="translate(407.247106 315.753437)scale(0.1 -0.1)">
       <defs>
        <path d="M 31.671875 -1 
C 46.375 -1.171875 55.96875 9.90625 55.96875 23.4375 
C 55.96875 37.5 45.5625 47.578125 33.09375 47.578125 
C 25.609375 47.578125 19.171875 43.921875 15.203125 37.921875 
L 14.625 37.921875 
C 14.671875 55.78125 21.5625 66.046875 32.8125 66.046875 
C 40.484375 66.046875 45.09375 61.21875 46.734375 54.546875 
L 55.40625 54.546875 
C 53.625 65.984375 45.03125 73.859375 32.8125 73.859375 
C 16.4375 73.859375 6.390625 59.375 6.390625 33.515625 
C 6.390625 6.640625 19.75 -0.859375 31.671875 -1 
z
M 31.671875 6.8125 
C 22.546875 6.8125 15.875 14.59375 15.90625 23.296875 
C 15.953125 32 22.9375 39.765625 31.96875 39.765625 
C 40.875 39.765625 47.4375 32.453125 47.4375 23.4375 
C 47.4375 14.203125 40.59375 6.8125 31.671875 6.8125 
z
" id="Inter-Regular-54"/>
        <path d="M 33.09375 72.734375 
L 24.296875 72.734375 
L 6.109375 60.65625 
L 6.109375 51.703125 
L 23.859375 63.5 
L 24.296875 63.5 
L 24.296875 0 
L 33.09375 0 
z
" id="Inter-Regular-49"/>
       </defs>
       <use xlink:href="#Inter-Regular-53"/>
       <use x="60.795471" xlink:href="#Inter-Regular-46"/>
       <use x="88.352295" xlink:href="#Inter-Regular-54"/>
       <use x="150.710266" xlink:href="#Inter-Regular-49"/>
       <use x="197.159134" xlink:href="#Inter-Regular-48"/>
      </g>
     </g>
    </g>
    <g id="xtick_4">
     <g id="line2d_7">
      <path clip-path="url(#pd6320d13f3)" d="M 551.655 301.48 
L 551.655 51.0736 
" style="fill:none;stroke:#e5e7eb;stroke-dasharray:3.7,1.6;stroke-dashoffset:0;"/>
     </g>
     <g id="line2d_8">
      <g>
       <use style="stroke:#000000;stroke-width:0.8;" x="551.655" xlink:href="#mb9708a142c" y="301.48"/>
      </g>
     </g>
     <g id="text_4">
      <!-- 7.500 -->
      <g transform="translate(538.131562 315.753437)scale(0.1 -0.1)">
       <use xlink:href="#Inter-Regular-55"/>
       <use x="57.10228" xlink:href="#Inter-Regular-46"/>
       <use x="84.659103" xlink:href="#Inter-Regular-53"/>
       <use x="145.454575" xlink:href="#Inter-Regular-48"/>
       <use x="207.95459" xlink:href="#Inter-Regular-48"/>
      </g>
     </g>
    </g>
    <g id="text_5">
     <!-- Orbit Position $s$ / m -->
     <g transform="translate(245.8425 329.072187)scale(0.1 -0.1)">
      <defs>
       <path d="M 70.171875 36.359375 
C 70.171875 59.375 56.671875 73.71875 38.0625 73.71875 
C 19.46875 73.71875 5.96875 59.375 5.96875 36.359375 
C 5.96875 13.359375 19.46875 -1 38.0625 -1 
C 56.671875 -1 70.171875 13.359375 70.171875 36.359375 
z
M 61.65625 36.359375 
C 61.65625 17.46875 51.28125 7.25 38.0625 7.25 
C 24.859375 7.25 14.484375 17.46875 14.484375 36.359375 
C 14.484375 55.25 24.859375 65.484375 38.0625 65.484375 
C 51.28125 65.484375 61.65625 55.25 61.65625 36.359375 
z
" id="Inter-Regular-79"/>
       <path d="M 7.671875 0 
L 16.046875 0 
L 16.046875 34.515625 
C 16.046875 41.90625 21.875 47.296875 29.828125 47.296875 
C 32.0625 47.296875 34.375 46.875 34.9375 46.734375 
L 34.9375 55.25 
C 33.984375 55.328125 31.78125 55.390625 30.546875 55.390625 
C 24 55.390625 18.328125 51.703125 16.34375 46.3125 
L 15.765625 46.3125 
L 15.765625 54.546875 
L 7.671875 54.546875 
z
" id="Inter-Regular-114"/>
       <path d="M 8.8125 0 
L 16.90625 0 
L 16.90625 8.375 
L 17.90625 8.375 
C 19.75 5.390625 23.296875 -1.140625 33.8125 -1.140625 
C 47.4375 -1.140625 56.96875 9.796875 56.96875 27.125 
C 56.96875 44.3125 47.4375 55.25 33.671875 55.25 
C 23.015625 55.25 19.75 48.71875 17.90625 45.875 
L 17.1875 45.875 
L 17.1875 72.734375 
L 8.8125 72.734375 
z
M 17.046875 27.265625 
C 17.046875 39.484375 22.4375 47.734375 32.671875 47.734375 
C 43.328125 47.734375 48.578125 38.78125 48.578125 27.265625 
C 48.578125 15.625 43.1875 6.390625 32.671875 6.390625 
C 22.59375 6.390625 17.046875 14.921875 17.046875 27.265625 
z
" id="Inter-Regular-98"/>
       <path d="M 11.9375 63.640625 
C 15.203125 63.640625 17.90625 66.1875 17.90625 69.3125 
C 17.90625 72.4375 15.203125 75 11.9375 75 
C 8.671875 75 5.96875 72.4375 5.96875 69.3125 
C 5.96875 66.1875 8.671875 63.640625 11.9375 63.640625 
z
M 7.671875 0 
L 16.046875 0 
L 16.046875 54.546875 
L 7.671875 54.546875 
z
" id="Inter-Regular-105"/>
       <path d="M 31.390625 54.546875 
L 19.75 54.546875 
L 19.75 67.609375 
L 11.359375 67.609375 
L 11.359375 54.546875 
L 3.125 54.546875 
L 3.125 47.4375 
L 11.359375 47.4375 
L 11.359375 13.359375 
C 11.359375 3.828125 19.03125 -0.703125 26.140625 -0.703125 
C 29.265625 -0.703125 31.25 -0.140625 32.390625 0.28125 
L 30.6875 7.8125 
C 29.96875 7.671875 28.84375 7.390625 26.984375 7.390625 
C 23.296875 7.390625 19.75 8.515625 19.75 15.625 
L 19.75 47.4375 
L 31.390625 47.4375 
z
" id="Inter-Regular-116"/>
       <path id="Inter-Regular-32"/>
       <path d="M 8.8125 0 
L 17.609375 0 
L 17.609375 26.5625 
L 33.53125 26.5625 
C 50.46875 26.5625 58.09375 36.859375 58.09375 49.71875 
C 58.09375 62.578125 50.46875 72.734375 33.375 72.734375 
L 8.8125 72.734375 
z
M 33.09375 64.921875 
C 44.921875 64.921875 49.4375 58.453125 49.4375 49.71875 
C 49.4375 40.984375 44.921875 34.375 33.234375 34.375 
L 17.609375 34.375 
L 17.609375 64.921875 
z
" id="Inter-Regular-80"/>
       <path d="M 29.828125 -1.140625 
C 44.609375 -1.140625 54.546875 10.078125 54.546875 26.984375 
C 54.546875 44.03125 44.609375 55.25 29.828125 55.25 
C 15.0625 55.25 5.109375 44.03125 5.109375 26.984375 
C 5.109375 10.078125 15.0625 -1.140625 29.828125 -1.140625 
z
M 29.828125 6.390625 
C 18.609375 6.390625 13.5 16.046875 13.5 26.984375 
C 13.5 37.921875 18.609375 47.734375 29.828125 47.734375 
C 41.046875 47.734375 46.171875 37.921875 46.171875 26.984375 
C 46.171875 16.046875 41.046875 6.390625 29.828125 6.390625 
z
" id="Inter-Regular-111"/>
       <path d="M 46.3125 42.328125 
C 43.6875 50.078125 37.78125 55.25 26.984375 55.25 
C 15.484375 55.25 6.96875 48.71875 6.96875 39.484375 
C 6.96875 31.953125 11.4375 26.921875 21.453125 24.578125 
L 30.546875 22.4375 
C 36.046875 21.171875 38.640625 18.53125 38.640625 14.765625 
C 38.640625 10.078125 33.671875 6.25 25.859375 6.25 
C 19 6.25 14.703125 9.203125 13.21875 15.0625 
L 5.25 13.0625 
C 7.203125 3.796875 14.84375 -1.140625 26 -1.140625 
C 38.671875 -1.140625 47.296875 5.78125 47.296875 15.203125 
C 47.296875 22.796875 42.546875 27.59375 32.8125 29.96875 
L 24.71875 31.953125 
C 18.25 33.5625 15.34375 35.71875 15.34375 39.921875 
C 15.34375 44.609375 20.3125 48.015625 26.984375 48.015625 
C 34.3125 48.015625 37.328125 43.96875 38.78125 40.203125 
z
" id="Inter-Regular-115"/>
       <path d="M 16.046875 32.8125 
C 16.046875 42.328125 21.953125 47.734375 29.96875 47.734375 
C 37.75 47.734375 42.46875 42.65625 42.46875 34.09375 
L 42.46875 0 
L 50.859375 0 
L 50.859375 34.65625 
C 50.859375 48.578125 43.4375 55.25 32.390625 55.25 
C 24.15625 55.25 19.03125 51.5625 16.484375 46.015625 
L 15.765625 46.015625 
L 15.765625 54.546875 
L 7.671875 54.546875 
L 7.671875 0 
L 16.046875 0 
z
" id="Inter-Regular-110"/>
       <path d="M 50 53.078125 
L 48.296875 44.578125 
Q 44.734375 46.53125 40.765625 47.5 
Q 36.8125 48.484375 32.625 48.484375 
Q 25.53125 48.484375 21.453125 46.0625 
Q 17.390625 43.65625 17.390625 39.5 
Q 17.390625 34.671875 26.859375 32.078125 
Q 27.59375 31.890625 27.9375 31.78125 
L 30.8125 30.90625 
Q 39.796875 28.421875 42.796875 25.6875 
Q 45.796875 22.953125 45.796875 18.21875 
Q 45.796875 9.515625 38.890625 4.046875 
Q 31.984375 -1.421875 20.796875 -1.421875 
Q 16.453125 -1.421875 11.671875 -0.578125 
Q 6.890625 0.25 1.125 2 
L 2.875 11.28125 
Q 7.8125 8.734375 12.59375 7.421875 
Q 17.390625 6.109375 21.78125 6.109375 
Q 28.375 6.109375 32.5 8.9375 
Q 36.625 11.765625 36.625 16.109375 
Q 36.625 20.796875 25.78125 23.6875 
L 24.859375 23.921875 
L 21.78125 24.703125 
Q 14.9375 26.515625 11.765625 29.46875 
Q 8.59375 32.421875 8.59375 37.015625 
Q 8.59375 45.75 15.15625 50.875 
Q 21.734375 56 33.015625 56 
Q 37.453125 56 41.671875 55.265625 
Q 45.90625 54.546875 50 53.078125 
z
" id="DejaVuSans-Oblique-115"/>
       <path d="M 33.375 76.140625 
L 25.71875 76.140625 
L 2.28125 -10.9375 
L 9.9375 -10.9375 
z
" id="Inter-Regular-47"/>
       <path d="M 7.671875 0 
L 16.046875 0 
L 16.046875 34.09375 
C 16.046875 42.078125 21.875 47.734375 28.40625 47.734375 
C 34.765625 47.734375 39.203125 43.578125 39.203125 37.359375 
L 39.203125 0 
L 47.734375 0 
L 47.734375 35.515625 
C 47.734375 42.546875 52.125 47.734375 59.796875 47.734375 
C 65.765625 47.734375 70.875 44.5625 70.875 36.5 
L 70.875 0 
L 79.265625 0 
L 79.265625 36.5 
C 79.265625 49.328125 72.375 55.25 62.640625 55.25 
C 54.828125 55.25 49.109375 51.671875 46.3125 46.015625 
L 45.734375 46.015625 
C 43.046875 51.84375 38.28125 55.25 31.109375 55.25 
C 24 55.25 18.75 51.84375 16.484375 46.015625 
L 15.765625 46.015625 
L 15.765625 54.546875 
L 7.671875 54.546875 
z
" id="Inter-Regular-109"/>
      </defs>
      <use transform="translate(0 0.859375)" xlink:href="#Inter-Regular-79"/>
      <use transform="translate(76.136383 0.859375)" xlink:href="#Inter-Regular-114"/>
      <use transform="translate(113.352295 0.859375)" xlink:href="#Inter-Regular-98"/>
      <use transform="translate(175.426178 0.859375)" xlink:href="#Inter-Regular-105"/>
      <use transform="translate(199.147766 0.859375)" xlink:href="#Inter-Regular-116"/>
      <use transform="translate(235.511414 0.859375)" xlink:href="#Inter-Regular-32"/>
      <use transform="translate(263.636414 0.859375)" xlink:href="#Inter-Regular-80"/>
      <use transform="translate(327.130737 0.859375)" xlink:href="#Inter-Regular-111"/>
      <use transform="translate(386.789841 0.859375)" xlink:href="#Inter-Regular-115"/>
      <use transform="translate(439.062576 0.859375)" xlink:href="#Inter-Regular-105"/>
      <use transform="translate(462.784164 0.859375)" xlink:href="#Inter-Regular-116"/>
      <use transform="translate(499.147812 0.859375)" xlink:href="#Inter-Regular-105"/>
      <use transform="translate(522.8694 0.859375)" xlink:href="#Inter-Regular-111"/>
      <use transform="translate(582.528503 0.859375)" xlink:href="#Inter-Regular-110"/>
      <use transform="translate(641.051239 0.859375)" xlink:href="#Inter-Regular-32"/>
      <use transform="translate(669.176239 0.859375)" xlink:href="#DejaVuSans-Oblique-115"/>
      <use transform="translate(721.275848 0.859375)" xlink:href="#Inter-Regular-32"/>
      <use transform="translate(749.400848 0.859375)" xlink:href="#Inter-Regular-47"/>
      <use transform="translate(785.05426 0.859375)" xlink:href="#Inter-Regular-32"/>
      <use transform="translate(813.17926 0.859375)" xlink:href="#Inter-Regular-109"/>
     </g>
    </g>
   </g>
   <g id="matplotlib.axis_2">
    <g id="ytick_1">
     <g id="line2d_9">
      <path clip-path="url(#pd6320d13f3)" d="M 30.13 271.616857 
L 551.655 271.616857 
" style="fill:none;stroke:#e5e7eb;stroke-dasharray:3.7,1.6;stroke-dashoffset:0;"/>
     </g>
     <g id="line2d_10">
      <defs>
       <path d="M 0 0 
L -3.5 0 
" id="m9ef9f22f4a" style="stroke:#000000;stroke-width:0.8;"/>
      </defs>
      <g>
       <use style="stroke:#000000;stroke-width:0.8;" x="30.13" xlink:href="#m9ef9f22f4a" y="271.616857"/>
      </g>
     </g>
     <g id="text_6">
      <!-- 0 -->
      <g transform="translate(16.88 275.253575)scale(0.1 -0.1)">
       <use xlink:href="#Inter-Regular-48"/>
      </g>
     </g>
    </g>
    <g id="ytick_2">
     <g id="line2d_11">
      <path clip-path="url(#pd6320d13f3)" d="M 30.13 233.104836 
L 551.655 233.104836 
" style="fill:none;stroke:#e5e7eb;stroke-dasharray:3.7,1.6;stroke-dashoffset:0;"/>
     </g>
     <g id="line2d_12">
      <g>
       <use style="stroke:#000000;stroke-width:0.8;" x="30.13" xlink:href="#m9ef9f22f4a" y="233.104836"/>
      </g>
     </g>
     <g id="text_7">
      <!-- 5 -->
      <g transform="translate(17.050313 236.741555)scale(0.1 -0.1)">
       <use xlink:href="#Inter-Regular-53"/>
      </g>
     </g>
    </g>
    <g id="ytick_3">
     <g id="line2d_13">
      <path clip-path="url(#pd6320d13f3)" d="M 30.13 194.592815 
L 551.655 194.592815 
" style="fill:none;stroke:#e5e7eb;stroke-dasharray:3.7,1.6;stroke-dashoffset:0;"/>
     </g>
     <g id="line2d_14">
      <g>
       <use style="stroke:#000000;stroke-width:0.8;" x="30.13" xlink:href="#m9ef9f22f4a" y="194.592815"/>
      </g>
     </g>
     <g id="text_8">
      <!-- 10 -->
      <g transform="translate(12.234688 198.229534)scale(0.1 -0.1)">
       <use xlink:href="#Inter-Regular-49"/>
       <use x="46.448868" xlink:href="#Inter-Regular-48"/>
      </g>
     </g>
    </g>
    <g id="ytick_4">
     <g id="line2d_15">
      <path clip-path="url(#pd6320d13f3)" d="M 30.13 156.080794 
L 551.655 156.080794 
" style="fill:none;stroke:#e5e7eb;stroke-dasharray:3.7,1.6;stroke-dashoffset:0;"/>
     </g>
     <g id="line2d_16">
      <g>
       <use style="stroke:#000000;stroke-width:0.8;" x="30.13" xlink:href="#m9ef9f22f4a" y="156.080794"/>
      </g>
     </g>
     <g id="text_9">
      <!-- 15 -->
      <g transform="translate(12.405 159.717513)scale(0.1 -0.1)">
       <use xlink:href="#Inter-Regular-49"/>
       <use x="46.448868" xlink:href="#Inter-Regular-53"/>
      </g>
     </g>
    </g>
    <g id="ytick_5">
     <g id="line2d_17">
      <path clip-path="url(#pd6320d13f3)" d="M 30.13 117.568774 
L 551.655 117.568774 
" style="fill:none;stroke:#e5e7eb;stroke-dasharray:3.7,1.6;stroke-dashoffset:0;"/>
     </g>
     <g id="line2d_18">
      <g>
       <use style="stroke:#000000;stroke-width:0.8;" x="30.13" xlink:href="#m9ef9f22f4a" y="117.568774"/>
      </g>
     </g>
     <g id="text_10">
      <!-- 20 -->
      <g transform="translate(10.828438 121.205492)scale(0.1 -0.1)">
       <defs>
        <path d="M 7.53125 0 
L 53.40625 0 
L 53.40625 7.8125 
L 19.609375 7.8125 
L 19.609375 8.375 
L 35.9375 25.859375 
C 48.4375 39.234375 52.125 45.484375 52.125 53.546875 
C 52.125 64.765625 43.046875 73.71875 30.25 73.71875 
C 17.515625 73.71875 7.8125 65.0625 7.8125 52.265625 
L 16.1875 52.265625 
C 16.1875 60.546875 21.5625 66.046875 29.96875 66.046875 
C 37.859375 66.046875 43.890625 61.21875 43.890625 53.546875 
C 43.890625 46.84375 39.953125 41.875 31.53125 32.671875 
L 7.53125 6.390625 
z
" id="Inter-Regular-50"/>
       </defs>
       <use xlink:href="#Inter-Regular-50"/>
       <use x="60.511383" xlink:href="#Inter-Regular-48"/>
      </g>
     </g>
    </g>
    <g id="ytick_6">
     <g id="line2d_19">
      <path clip-path="url(#pd6320d13f3)" d="M 30.13 79.056753 
L 551.655 79.056753 
" style="fill:none;stroke:#e5e7eb;stroke-dasharray:3.7,1.6;stroke-dashoffset:0;"/>
     </g>
     <g id="line2d_20">
      <g>
       <use style="stroke:#000000;stroke-width:0.8;" x="30.13" xlink:href="#m9ef9f22f4a" y="79.056753"/>
      </g>
     </g>
     <g id="text_11">
      <!-- 25 -->
      <g transform="translate(10.99875 82.693472)scale(0.1 -0.1)">
       <use xlink:href="#Inter-Regular-50"/>
       <use x="60.511383" xlink:href="#Inter-Regular-53"/>
      </g>
     </g>
    </g>
   </g>
   <g id="patch_3">
    <path d="M 30.13 301.48 
L 30.13 51.0736 
" style="fill:none;stroke:#000000;stroke-linecap:square;stroke-linejoin:miter;stroke-width:0.8;"/>
   </g>
   <g id="patch_4">
    <path d="M 551.655 301.48 
L 551.655 51.0736 
" style="fill:none;stroke:#000000;stroke-linecap:square;stroke-linejoin:miter;stroke-width:0.8;"/>
   </g>
   <g id="patch_5">
    <path d="M 30.13 301.48 
L 551.655 301.48 
" style="fill:none;stroke:#000000;stroke-linecap:square;stroke-linejoin:miter;stroke-width:0.8;"/>
   </g>
   <g id="patch_6">
    <path d="M 30.13 51.0736 
L 551.655 51.0736 
" style="fill:none;stroke:#000000;stroke-linecap:square;stroke-linejoin:miter;stroke-width:0.8;"/>
   </g>
   <g id="legend_1">
    <g id="line2d_21">
     <path d="M 39.13 22.95328 
L 59.13 22.95328 
" style="fill:none;stroke:#ef4444;stroke-linecap:square;stroke-width:1.3;"/>
    </g>
    <g id="line2d_22"/>
    <g id="text_12">
     <!-- $\beta_x$ / m -->
     <g transform="translate(67.13 26.45328)scale(0.1 -0.1)">
      <defs>
       <path d="M 13.625 3.375 
L 8.9375 -20.796875 
L -0.09375 -20.796875 
L 14.5 54.34375 
Q 18.84375 76.609375 39.65625 76.609375 
Q 60.75 76.609375 57.171875 57.8125 
Q 54.734375 44.4375 45.21875 39.546875 
Q 58.015625 35.15625 55.515625 22.125 
Q 51.125 -1.078125 27.484375 -1.03125 
Q 17.140625 -0.984375 13.625 3.375 
z
M 15.921875 15.09375 
Q 19.671875 6.59375 29.296875 6.640625 
Q 43.359375 6.640625 46.34375 21.96875 
Q 49.03125 35.75 26.171875 34.671875 
L 27.78125 42.96875 
Q 45.453125 42.671875 48.53125 58.59375 
Q 50.640625 69.34375 39.203125 69.28125 
Q 26.421875 69.28125 23.484375 54.046875 
z
" id="DejaVuSans-Oblique-946"/>
       <path d="M 60.015625 54.6875 
L 34.90625 27.875 
L 50.296875 0 
L 39.984375 0 
L 28.421875 21.6875 
L 8.296875 0 
L -2.59375 0 
L 24.3125 28.8125 
L 10.015625 54.6875 
L 20.3125 54.6875 
L 30.8125 34.90625 
L 49.125 54.6875 
z
" id="DejaVuSans-Oblique-120"/>
      </defs>
      <use transform="translate(0 0.390625)" xlink:href="#DejaVuSans-Oblique-946"/>
      <use transform="translate(63.818359 -16.015625)scale(0.7)" xlink:href="#DejaVuSans-Oblique-120"/>
      <use transform="translate(107.978516 0.390625)" xlink:href="#Inter-Regular-32"/>
      <use transform="translate(136.103516 0.390625)" xlink:href="#Inter-Regular-47"/>
      <use transform="translate(171.756927 0.390625)" xlink:href="#Inter-Regular-32"/>
      <use transform="translate(199.881927 0.390625)" xlink:href="#Inter-Regular-109"/>
     </g>
    </g>
    <g id="line2d_23">
     <path d="M 255.6925 22.95328 
L 275.6925 22.95328 
" style="fill:none;stroke:#3b82f6;stroke-linecap:square;stroke-width:1.3;"/>
    </g>
    <g id="line2d_24"/>
    <g id="text_13">
     <!-- $\beta_y$ / m -->
     <g transform="translate(283.6925 26.45328)scale(0.1 -0.1)">
      <defs>
       <path d="M 24.8125 -5.078125 
Q 18.5625 -15.578125 14.625 -18.1875 
Q 10.6875 -20.796875 4.59375 -20.796875 
L -2.484375 -20.796875 
L -0.984375 -13.28125 
L 4.203125 -13.28125 
Q 7.953125 -13.28125 10.59375 -11.234375 
Q 13.234375 -9.1875 16.5 -3.21875 
L 19.28125 2 
L 7.171875 54.6875 
L 16.703125 54.6875 
L 25.78125 12.796875 
L 50.875 54.6875 
L 60.296875 54.6875 
z
" id="DejaVuSans-Oblique-121"/>
      </defs>
      <use transform="translate(0 0.390625)" xlink:href="#DejaVuSans-Oblique-946"/>
      <use transform="translate(63.818359 -16.015625)scale(0.7)" xlink:href="#DejaVuSans-Oblique-121"/>
      <use transform="translate(107.978516 0.390625)" xlink:href="#Inter-Regular-32"/>
      <use transform="translate(136.103516 0.390625)" xlink:href="#Inter-Regular-47"/>
      <use transform="translate(171.756927 0.390625)" xlink:href="#Inter-Regular-32"/>
      <use transform="translate(199.881927 0.390625)" xlink:href="#Inter-Regular-109"/>
     </g>
    </g>
    <g id="line2d_25">
     <path d="M 472.255 22.95328 
L 492.255 22.95328 
" style="fill:none;stroke:#10b981;stroke-linecap:square;stroke-width:1.3;"/>
    </g>
    <g id="line2d_26"/>
    <g id="text_14">
     <!-- 10 $\eta_x$ / m -->
     <g transform="translate(500.255 26.45328)scale(0.1 -0.1)">
      <defs>
       <path d="M 57.859375 33.015625 
L 47.40625 -20.796875 
L 38.421875 -20.796875 
L 48.828125 32.71875 
Q 50.34375 40.484375 48.046875 44.34375 
Q 45.796875 48.1875 39.75 48.1875 
Q 32.46875 48.1875 27.34375 43.5625 
Q 22.265625 38.921875 20.703125 30.90625 
L 14.703125 0 
L 5.671875 0 
L 16.3125 54.6875 
L 25.34375 54.6875 
L 23.6875 46.1875 
Q 27.828125 51.125 32.71875 53.5625 
Q 37.546875 56 43.265625 56 
Q 52.6875 56 56.390625 50.203125 
Q 60.0625 44.34375 57.859375 33.015625 
z
" id="DejaVuSans-Oblique-951"/>
      </defs>
      <use transform="translate(0 0.859375)" xlink:href="#Inter-Regular-49"/>
      <use transform="translate(46.448868 0.859375)" xlink:href="#Inter-Regular-48"/>
      <use transform="translate(108.948883 0.859375)" xlink:href="#Inter-Regular-32"/>
      <use transform="translate(137.073883 0.859375)" xlink:href="#DejaVuSans-Oblique-951"/>
      <use transform="translate(200.452789 -15.546875)scale(0.7)" xlink:href="#DejaVuSans-Oblique-120"/>
      <use transform="translate(244.612946 0.859375)" xlink:href="#Inter-Regular-32"/>
      <use transform="translate(272.737946 0.859375)" xlink:href="#Inter-Regular-47"/>
      <use transform="translate(308.391357 0.859375)" xlink:href="#Inter-Regular-32"/>
      <use transform="translate(336.516357 0.859375)" xlink:href="#Inter-Regular-109"/>
     </g>
    </g>
   </g>
   <g id="line2d_27">
    <path clip-path="url(#pd6320d13f3)" d="M 30.13 272.269501 
L 284.442974 272.064384 
L 370.455384 271.480338 
L 378.059946 271.07473 
L 385.664508 270.457925 
L 393.26907 269.630314 
L 400.873633 268.592417 
L 408.478195 267.344891 
L 416.082757 265.888521 
L 425.098267 263.924617 
L 455.6944 257.022622 
L 461.9527 255.310259 
L 479.870729 249.918087 
L 519.32045 238.133028 
L 522.797283 237.390087 
L 526.274117 236.855929 
L 529.75095 236.533814 
L 533.227783 236.425707 
L 552.318759 236.421451 
L 552.318759 236.421451 
" style="fill:none;stroke:#10b981;stroke-linecap:square;stroke-width:1.3;"/>
   </g>
   <g id="line2d_28">
    <path clip-path="url(#pd6320d13f3)" d="M 30.13 243.115032 
L 46.100667 242.949641 
L 62.071334 242.564599 
L 78.042001 241.959904 
L 94.012668 241.135557 
L 109.983334 240.091558 
L 125.954001 238.827907 
L 141.924668 237.344603 
L 157.895335 235.641648 
L 173.866002 233.71904 
L 189.836669 231.576781 
L 205.807336 229.214869 
L 221.778003 226.633305 
L 237.705642 223.839931 
L 248.405597 221.812844 
L 251.187063 221.051951 
L 253.96853 220.052718 
L 256.749997 218.806176 
L 259.531463 217.301136 
L 262.31293 215.524087 
L 265.094397 213.459079 
L 267.875863 211.087577 
L 270.65733 208.388291 
L 273.438797 205.336994 
L 276.220263 201.906297 
L 279.00173 198.065403 
L 281.783197 193.779838 
L 286.437807 186.028067 
L 291.757362 176.710439 
L 296.594507 167.813277 
L 302.15744 157.081232 
L 307.53784 146.19257 
L 312.857395 134.935221 
L 316.273383 127.707654 
L 318.359483 123.834633 
L 320.445583 120.453572 
L 322.531683 117.589056 
L 323.922417 115.976792 
L 325.31315 114.608653 
L 326.703883 113.489062 
L 328.094617 112.621637 
L 329.48535 112.009184 
L 330.876083 111.653681 
L 333.65755 111.426187 
L 362.159498 109.497071 
L 400.182309 110.538026 
L 421.621433 111.171955 
L 450.826833 114.869268 
L 452.217567 115.383877 
L 453.6083 116.128601 
L 454.999033 117.101232 
L 456.389767 118.298884 
L 457.7805 119.718007 
L 459.8666 122.252562 
L 461.9527 125.258893 
L 464.720708 129.837822 
L 471.607081 141.161876 
L 477.804817 150.943293 
L 484.002553 160.336067 
L 490.254123 169.416709 
L 496.507628 178.104554 
L 502.722767 186.347065 
L 508.937906 194.198749 
L 515.153046 201.659605 
L 517.23435 204.004217 
L 519.32045 206.036834 
L 521.40655 207.752711 
L 523.49265 209.16694 
L 525.57875 210.291958 
L 527.66485 211.13766 
L 529.75095 211.711485 
L 531.83705 212.018477 
L 533.92315 212.075876 
L 552.318759 211.991517 
L 552.318759 211.991517 
" style="fill:none;stroke:#3b82f6;stroke-linecap:square;stroke-width:1.3;"/>
   </g>
   <g id="patch_7">
    <path d="M 225.249887 56.594023 
L 236.375753 56.594023 
L 236.375753 45.553177 
L 225.249887 45.553177 
z
" style="fill:#10b981;"/>
   </g>
   <g id="patch_8">
    <path d="M 247.014863 56.594023 
L 281.783197 56.594023 
L 281.783197 45.553177 
L 247.014863 45.553177 
z
" style="fill:#ef4444;"/>
   </g>
   <g id="patch_9">
    <path d="M 292.422307 56.594023 
L 303.548173 56.594023 
L 303.548173 45.553177 
L 292.422307 45.553177 
z
" style="fill:#10b981;"/>
   </g>
   <g id="patch_10">
    <path d="M 314.187283 56.594023 
L 331.57145 56.594023 
L 331.57145 45.553177 
L 314.187283 45.553177 
z
" style="fill:#ef4444;"/>
   </g>
   <g id="patch_11">
    <path d="M 360.77685 56.594023 
L 420.2307 56.594023 
L 420.2307 45.553177 
L 360.77685 45.553177 
z
" style="fill:#fbbf24;"/>
   </g>
   <g id="patch_12">
    <path d="M 449.4361 56.594023 
L 463.343433 56.594023 
L 463.343433 45.553177 
L 449.4361 45.553177 
z
" style="fill:#ef4444;"/>
   </g>
   <g id="patch_13">
    <path d="M 484.69119 56.594023 
L 495.817057 56.594023 
L 495.817057 45.553177 
L 484.69119 45.553177 
z
" style="fill:#10b981;"/>
   </g>
   <g id="patch_14">
    <path d="M 515.843617 56.594023 
L 533.227783 56.594023 
L 533.227783 45.553177 
L 515.843617 45.553177 
z
" style="fill:#ef4444;"/>
   </g>
   <g id="patch_15">
    <path d="M 544.35365 56.594023 
L 551.655 56.594023 
L 551.655 45.553177 
L 544.35365 45.553177 
z
" style="fill:#10b981;"/>
   </g>
   <g id="line2d_29">
    <path clip-path="url(#pd6320d13f3)" d="M 30.13 144.454116 
L 64.154464 144.813038 
L 98.178928 144.947691 
L 132.203393 144.858074 
L 166.227857 144.544187 
L 200.252321 144.006031 
L 234.289653 143.243274 
L 248.405597 142.933262 
L 250.491697 143.252041 
L 252.577797 143.892777 
L 254.663897 144.85224 
L 256.749997 146.12559 
L 258.836097 147.706405 
L 260.922197 149.586715 
L 263.008297 151.757034 
L 265.094397 154.206419 
L 267.875863 157.884821 
L 270.65733 162.004255 
L 273.438797 166.527797 
L 276.91563 172.688423 
L 280.392463 179.330642 
L 287.767696 193.740798 
L 292.422307 202.225932 
L 296.594507 209.409649 
L 300.766707 216.194426 
L 304.878062 222.490001 
L 308.867728 228.228877 
L 312.857395 233.602956 
L 316.273383 237.851518 
L 319.05485 240.906792 
L 321.836317 243.62196 
L 324.617783 246.032179 
L 327.39925 248.168656 
L 330.180717 250.059056 
L 333.65755 252.149186 
L 338.525117 254.850815 
L 343.392683 257.318537 
L 348.26025 259.552353 
L 353.127817 261.552263 
L 357.995383 263.318267 
L 362.850822 264.837622 
L 367.690088 266.113443 
L 372.529355 267.164641 
L 377.368622 267.990142 
L 382.207889 268.589103 
L 387.047156 268.960911 
L 391.886423 269.105187 
L 396.72569 269.021783 
L 401.564956 268.710785 
L 406.404223 268.17251 
L 411.24349 267.407509 
L 416.082757 266.416562 
L 420.926067 265.196679 
L 425.793633 263.723029 
L 430.6612 262.015473 
L 435.528767 260.074011 
L 440.396333 257.898643 
L 445.2639 255.489369 
L 450.131467 252.842733 
L 453.6083 250.681439 
L 456.389767 248.711424 
L 459.171233 246.50203 
L 461.9527 244.027014 
L 465.409345 240.586091 
L 469.541169 236.166513 
L 473.672993 231.440172 
L 477.804817 226.407065 
L 481.936641 221.067195 
L 486.77729 214.421037 
L 491.644857 207.313358 
L 496.507628 199.78757 
L 501.341625 191.885175 
L 506.175622 183.562891 
L 511.009619 174.820718 
L 519.32045 159.482247 
L 521.40655 156.355698 
L 523.49265 153.697974 
L 524.883383 152.198318 
L 526.274117 150.923348 
L 527.66485 149.87804 
L 529.055583 149.066478 
L 530.446317 148.49183 
L 531.83705 148.156339 
L 533.227783 148.061317 
L 552.318759 148.373733 
L 552.318759 148.373733 
" style="fill:none;stroke:#ef4444;stroke-linecap:square;stroke-width:1.3;"/>
   </g>
   <g id="text_15">
    <!-- q4d1 -->
    <g transform="translate(255.052155 42.124003)scale(0.08 -0.08)">
     <defs>
      <path d="M 53.265625 -20.453125 
L 53.265625 54.546875 
L 45.171875 54.546875 
L 45.171875 45.875 
L 44.171875 45.875 
C 42.328125 48.71875 39.0625 55.25 28.40625 55.25 
C 14.625 55.25 5.109375 44.3125 5.109375 27.125 
C 5.109375 9.796875 14.625 -1.140625 28.265625 -1.140625 
C 38.78125 -1.140625 42.328125 5.390625 44.171875 8.375 
L 44.890625 8.375 
L 44.890625 -20.453125 
z
M 45.03125 27.265625 
C 45.03125 14.921875 39.484375 6.390625 29.40625 6.390625 
C 18.890625 6.390625 13.5 15.625 13.5 27.265625 
C 13.5 38.78125 18.75 47.734375 29.40625 47.734375 
C 39.625 47.734375 45.03125 39.484375 45.03125 27.265625 
z
" id="Inter-Regular-113"/>
      <path d="M 28.265625 -1.140625 
C 38.78125 -1.140625 42.328125 5.390625 44.171875 8.375 
L 45.171875 8.375 
L 45.171875 0 
L 53.265625 0 
L 53.265625 72.734375 
L 44.890625 72.734375 
L 44.890625 45.875 
L 44.171875 45.875 
C 42.328125 48.71875 39.0625 55.25 28.40625 55.25 
C 14.625 55.25 5.109375 44.3125 5.109375 27.125 
C 5.109375 9.796875 14.625 -1.140625 28.265625 -1.140625 
z
M 29.40625 6.390625 
C 18.890625 6.390625 13.5 15.625 13.5 27.265625 
C 13.5 38.78125 18.75 47.734375 29.40625 47.734375 
C 39.625 47.734375 45.03125 39.484375 45.03125 27.265625 
C 45.03125 14.921875 39.484375 6.390625 29.40625 6.390625 
z
" id="Inter-Regular-100"/>
     </defs>
     <use xlink:href="#Inter-Regular-113"/>
     <use x="60.937515" xlink:href="#Inter-Regular-52"/>
     <use x="125.142075" xlink:href="#Inter-Regular-100"/>
     <use x="187.215958" xlink:href="#Inter-Regular-49"/>
    </g>
   </g>
   <g id="text_16">
    <!-- q3d1 -->
    <g transform="translate(313.554992 64.245072)scale(0.08 -0.08)">
     <defs>
      <path d="M 32.109375 -1 
C 46.203125 -1 56.671875 7.84375 56.671875 19.75 
C 56.671875 28.984375 51.203125 35.6875 42.046875 37.21875 
L 42.046875 37.78125 
C 49.390625 40.015625 53.984375 46.0625 53.984375 54.265625 
C 53.984375 64.5625 45.84375 73.71875 32.390625 73.71875 
C 19.8125 73.71875 9.375 65.984375 8.953125 54.546875 
L 17.46875 54.546875 
C 17.796875 61.796875 24.6875 66.046875 32.25 66.046875 
C 40.265625 66.046875 45.453125 61.1875 45.453125 53.828125 
C 45.453125 46.171875 39.453125 41.1875 30.828125 41.1875 
L 25 41.1875 
L 25 33.375 
L 30.828125 33.375 
C 41.875 33.375 48.015625 27.765625 48.015625 19.75 
C 48.015625 12.03125 41.296875 6.8125 31.96875 6.8125 
C 23.546875 6.8125 16.875 11.15625 16.34375 18.1875 
L 7.390625 18.1875 
C 7.921875 6.75 18 -1 32.109375 -1 
z
" id="Inter-Regular-51"/>
     </defs>
     <use xlink:href="#Inter-Regular-113"/>
     <use x="60.937515" xlink:href="#Inter-Regular-51"/>
     <use x="124.573898" xlink:href="#Inter-Regular-100"/>
     <use x="186.647781" xlink:href="#Inter-Regular-49"/>
    </g>
   </g>
   <g id="text_17">
    <!-- b -->
    <g transform="translate(388.02065 42.124003)scale(0.08 -0.08)">
     <use xlink:href="#Inter-Regular-98"/>
    </g>
   </g>
   <g id="text_18">
    <!-- q2d -->
    <g transform="translate(449.048517 64.245072)scale(0.08 -0.08)">
     <use xlink:href="#Inter-Regular-113"/>
     <use x="60.937515" xlink:href="#Inter-Regular-50"/>
     <use x="121.448898" xlink:href="#Inter-Regular-100"/>
    </g>
   </g>
   <g id="text_19">
    <!-- q1d -->
    <g transform="translate(517.75695 42.124003)scale(0.08 -0.08)">
     <use xlink:href="#Inter-Regular-113"/>
     <use x="60.937515" xlink:href="#Inter-Regular-49"/>
     <use x="107.386383" xlink:href="#Inter-Regular-100"/>
    </g>
   </g>
   <g id="text_20">
    <g clip-path="url(#pd6320d13f3)">
     <!-- d1rh -->
     <g style="opacity:0.5;" transform="translate(185.197175 291.728314)scale(0.1 -0.1)">
      <defs>
       <path d="M 23.71875 -1.140625 
C 34.203125 -1.140625 38.84375 5.390625 41.1875 8.375 
L 42.1875 8.375 
L 40.765625 0 
L 48.859375 0 
L 60.9375 72.734375 
L 52.5625 72.734375 
L 48.078125 45.875 
L 47.375 45.875 
C 46.03125 48.71875 43.828125 55.25 33.171875 55.25 
C 19.390625 55.25 8.0625 44.3125 5.1875 27.125 
C 2.34375 9.796875 10.046875 -1.140625 23.71875 -1.140625 
z
M 25.78125 6.390625 
C 15.265625 6.390625 11.6875 15.625 13.640625 27.265625 
C 15.515625 38.78125 21.984375 47.734375 32.59375 47.734375 
C 42.859375 47.734375 47.203125 39.484375 45.171875 27.265625 
C 43.109375 14.921875 35.875 6.390625 25.78125 6.390625 
z
" id="Inter-Italic-100"/>
       <path d="M 40.625 72.734375 
L 31.8125 72.734375 
L 11.65625 60.65625 
L 10.09375 51.703125 
L 29.828125 63.5 
L 30.25 63.5 
L 19.75 0 
L 28.546875 0 
z
" id="Inter-Italic-49"/>
       <path d="M 3.125 0 
L 11.5 0 
L 17.1875 34.515625 
C 18.46875 41.90625 25.140625 47.296875 33.09375 47.296875 
C 35.375 47.296875 37.640625 46.875 38.21875 46.734375 
L 39.625 55.25 
C 38.640625 55.390625 36.5 55.390625 35.234375 55.390625 
C 28.6875 55.390625 22.296875 51.703125 19.46875 46.3125 
L 18.890625 46.3125 
L 20.3125 54.546875 
L 12.21875 54.546875 
z
" id="Inter-Italic-114"/>
       <path d="M 16.90625 32.8125 
C 18.609375 42.328125 25.5625 47.734375 33.8125 47.734375 
C 41.625 47.734375 45.59375 42.75 44.171875 34.09375 
L 38.5 0 
L 46.875 0 
L 52.703125 34.65625 
C 54.96875 48.71875 48.578125 55.25 37.5 55.25 
C 28.84375 55.25 23.296875 51.703125 19.890625 46.015625 
L 19.171875 46.015625 
L 23.578125 72.734375 
L 15.203125 72.734375 
L 3.125 0 
L 11.5 0 
z
" id="Inter-Italic-104"/>
      </defs>
      <use xlink:href="#Inter-Italic-100"/>
      <use x="62.215927" xlink:href="#Inter-Italic-49"/>
      <use x="108.664795" xlink:href="#Inter-Italic-114"/>
      <use x="146.022751" xlink:href="#Inter-Italic-104"/>
     </g>
    </g>
   </g>
   <g id="text_21">
    <g clip-path="url(#pd6320d13f3)">
     <!-- achlh -->
     <g style="opacity:0.5;" transform="translate(473.2366 291.728314)scale(0.1 -0.1)">
      <defs>
       <path d="M 19.03125 -1.28125 
C 28.546875 -1.28125 34.375 3.828125 36.65625 7.390625 
L 37.078125 7.390625 
L 35.796875 0 
L 44.171875 0 
L 50.140625 35.9375 
C 52.984375 53.265625 40.203125 55.25 33.234375 55.25 
C 25 55.25 15.0625 52.421875 9.234375 42.46875 
L 16.625 39.625 
C 19.171875 43.609375 24.578125 47.875 32.53125 47.875 
C 40.203125 47.875 43.046875 43.75 41.90625 36.796875 
L 41.90625 36.5 
C 41.1875 32.53125 37.078125 32.8125 26.984375 31.53125 
C 16.625 30.25 5.25 27.984375 3.125 15.484375 
C 1.421875 4.828125 8.671875 -1.28125 19.03125 -1.28125 
z
M 21.453125 6.25 
C 14.78125 6.25 10.515625 9.234375 11.5 15.0625 
C 12.5 21.453125 18.75 23.4375 25.421875 24.296875 
C 28.984375 24.71875 38.640625 25.703125 40.34375 27.421875 
L 39.0625 19.75 
C 37.921875 12.921875 31.390625 6.25 21.453125 6.25 
z
" id="Inter-Italic-97"/>
       <path d="M 25.140625 -1.140625 
C 37.1875 -1.140625 46.265625 6.25 49.4375 15.90625 
L 41.046875 15.90625 
C 38.453125 9.9375 32.921875 6.390625 26.421875 6.390625 
C 16.4375 6.390625 11.328125 14.625 13.5 27.265625 
C 15.453125 39.625 23.40625 47.734375 33.234375 47.734375 
C 40.59375 47.734375 44.28125 43.1875 44.75 38.203125 
L 53.125 38.203125 
C 53.375 48.4375 45.84375 55.25 34.375 55.25 
C 19.5625 55.25 7.78125 43.609375 5.109375 26.984375 
C 2.375 10.65625 9.765625 -1.140625 25.140625 -1.140625 
z
" id="Inter-Italic-99"/>
       <path d="M 23.578125 72.734375 
L 15.203125 72.734375 
L 3.125 0 
L 11.5 0 
z
" id="Inter-Italic-108"/>
      </defs>
      <use xlink:href="#Inter-Italic-97"/>
      <use x="56.392059" xlink:href="#Inter-Italic-99"/>
      <use x="112.215927" xlink:href="#Inter-Italic-104"/>
      <use x="171.306854" xlink:href="#Inter-Italic-108"/>
      <use x="195.028442" xlink:href="#Inter-Italic-104"/>
     </g>
    </g>
   </g>
  </g>
 </g>
 <defs>
  <clipPath id="pd6320d13f3">
   <rect height="250.4064" width="521.525" x="30.13" y="51.0736"/>
  </clipPath>
 </defs>
</svg>
