<?xml version="1.0" encoding="utf-8" standalone="no"?>
<!DOCTYPE svg PUBLIC "-//W3C//DTD SVG 1.1//EN"
  "http://www.w3.org/Graphics/SVG/1.1/DTD/svg11.dtd">
<!-- Created with matplotlib (https://matplotlib.org/) -->
<svg height="288pt" version="1.1" viewBox="0 0 720 288" width="720pt" xmlns="http://www.w3.org/2000/svg" xmlns:xlink="http://www.w3.org/1999/xlink">
 <metadata>
  <rdf:RDF xmlns:cc="http://creativecommons.org/ns#" xmlns:dc="http://purl.org/dc/elements/1.1/" xmlns:rdf="http://www.w3.org/1999/02/22-rdf-syntax-ns#">
   <cc:Work>
    <dc:type rdf:resource="http://purl.org/dc/dcmitype/StillImage"/>
    <dc:date>2020-12-03T08:58:31.113124</dc:date>
    <dc:format>image/svg+xml</dc:format>
    <dc:creator>
     <cc:Agent>
      <dc:title>Matplotlib v3.3.3, https://matplotlib.org/</dc:title>
     </cc:Agent>
    </dc:creator>
   </cc:Work>
  </rdf:RDF>
 </metadata>
 <defs>
  <style type="text/css">*{stroke-linecap:butt;stroke-linejoin:round;}</style>
 </defs>
 <g id="figure_1">
  <g id="patch_1">
   <path d="M 0 288 
L 720 288 
L 720 0 
L 0 0 
z
" style="fill:#ffffff;"/>
  </g>
  <g id="axes_1">
   <g id="patch_2">
    <path d="M 62.388 246.04 
L 708.669411 246.04 
L 708.669411 24.048 
L 62.388 24.048 
z
" style="fill:#ffffff;"/>
   </g>
   <g id="matplotlib.axis_1">
    <g id="xtick_1">
     <g id="line2d_1">
      <path clip-path="url(#p07c04273cf)" d="M 91.764428 246.04 
L 91.764428 24.048 
" style="fill:none;stroke:#e5e7eb;stroke-dasharray:3.7,1.6;stroke-dashoffset:0;"/>
     </g>
     <g id="line2d_2">
      <defs>
       <path d="M 0 0 
L 0 3.5 
" id="m07608f3443" style="stroke:#000000;stroke-width:0.8;"/>
      </defs>
      <g>
       <use style="stroke:#000000;stroke-width:0.8;" x="91.764428" xlink:href="#m07608f3443" y="246.04"/>
      </g>
     </g>
     <g id="text_1">
      <!-- 0 -->
      <g transform="translate(88.639428 260.313437)scale(0.1 -0.1)">
       <defs>
        <path d="M 31.25 -1 
C 47.296875 -1 56.53125 12.609375 56.53125 36.359375 
C 56.53125 59.9375 47.15625 73.71875 31.25 73.71875 
C 15.34375 73.71875 5.96875 59.9375 5.96875 36.359375 
C 5.96875 12.609375 15.203125 -1 31.25 -1 
z
M 31.25 6.8125 
C 20.671875 6.8125 14.484375 17.4375 14.484375 36.359375 
C 14.484375 55.25 20.734375 66.046875 31.25 66.046875 
C 41.765625 66.046875 48.015625 55.25 48.015625 36.359375 
C 48.015625 17.4375 41.828125 6.8125 31.25 6.8125 
z
" id="Inter-Regular-48"/>
       </defs>
       <use xlink:href="#Inter-Regular-48"/>
      </g>
     </g>
    </g>
    <g id="xtick_2">
     <g id="line2d_3">
      <path clip-path="url(#p07c04273cf)" d="M 168.16606 246.04 
L 168.16606 24.048 
" style="fill:none;stroke:#e5e7eb;stroke-dasharray:3.7,1.6;stroke-dashoffset:0;"/>
     </g>
     <g id="line2d_4">
      <g>
       <use style="stroke:#000000;stroke-width:0.8;" x="168.16606" xlink:href="#m07608f3443" y="246.04"/>
      </g>
     </g>
     <g id="text_2">
      <!-- 2 -->
      <g transform="translate(165.140279 260.313437)scale(0.1 -0.1)">
       <defs>
        <path d="M 7.53125 0 
L 53.40625 0 
L 53.40625 7.8125 
L 19.609375 7.8125 
L 19.609375 8.375 
L 35.9375 25.859375 
C 48.4375 39.234375 52.125 45.484375 52.125 53.546875 
C 52.125 64.765625 43.046875 73.71875 30.25 73.71875 
C 17.515625 73.71875 7.8125 65.0625 7.8125 52.265625 
L 16.1875 52.265625 
C 16.1875 60.546875 21.5625 66.046875 29.96875 66.046875 
C 37.859375 66.046875 43.890625 61.21875 43.890625 53.546875 
C 43.890625 46.84375 39.953125 41.875 31.53125 32.671875 
L 7.53125 6.390625 
z
" id="Inter-Regular-50"/>
       </defs>
       <use xlink:href="#Inter-Regular-50"/>
      </g>
     </g>
    </g>
    <g id="xtick_3">
     <g id="line2d_5">
      <path clip-path="url(#p07c04273cf)" d="M 244.567693 246.04 
L 244.567693 24.048 
" style="fill:none;stroke:#e5e7eb;stroke-dasharray:3.7,1.6;stroke-dashoffset:0;"/>
     </g>
     <g id="line2d_6">
      <g>
       <use style="stroke:#000000;stroke-width:0.8;" x="244.567693" xlink:href="#m07608f3443" y="246.04"/>
      </g>
     </g>
     <g id="text_3">
      <!-- 4 -->
      <g transform="translate(241.357537 260.313437)scale(0.1 -0.1)">
       <defs>
        <path d="M 5.828125 14.921875 
L 40.0625 14.921875 
L 40.0625 0 
L 48.4375 0 
L 48.4375 14.921875 
L 58.375 14.921875 
L 58.375 22.734375 
L 48.4375 22.734375 
L 48.4375 72.734375 
L 37.78125 72.734375 
L 5.828125 22.15625 
z
M 15.34375 22.734375 
L 15.34375 23.296875 
L 39.484375 61.5 
L 40.0625 61.5 
L 40.0625 22.734375 
z
" id="Inter-Regular-52"/>
       </defs>
       <use xlink:href="#Inter-Regular-52"/>
      </g>
     </g>
    </g>
    <g id="xtick_4">
     <g id="line2d_7">
      <path clip-path="url(#p07c04273cf)" d="M 320.969326 246.04 
L 320.969326 24.048 
" style="fill:none;stroke:#e5e7eb;stroke-dasharray:3.7,1.6;stroke-dashoffset:0;"/>
     </g>
     <g id="line2d_8">
      <g>
       <use style="stroke:#000000;stroke-width:0.8;" x="320.969326" xlink:href="#m07608f3443" y="246.04"/>
      </g>
     </g>
     <g id="text_4">
      <!-- 6 -->
      <g transform="translate(317.851357 260.313437)scale(0.1 -0.1)">
       <defs>
        <path d="M 31.671875 -1 
C 46.375 -1.171875 55.96875 9.90625 55.96875 23.4375 
C 55.96875 37.5 45.5625 47.578125 33.09375 47.578125 
C 25.609375 47.578125 19.171875 43.921875 15.203125 37.921875 
L 14.625 37.921875 
C 14.671875 55.78125 21.5625 66.046875 32.8125 66.046875 
C 40.484375 66.046875 45.09375 61.21875 46.734375 54.546875 
L 55.40625 54.546875 
C 53.625 65.984375 45.03125 73.859375 32.8125 73.859375 
C 16.4375 73.859375 6.390625 59.375 6.390625 33.515625 
C 6.390625 6.640625 19.75 -0.859375 31.671875 -1 
z
M 31.671875 6.8125 
C 22.546875 6.8125 15.875 14.59375 15.90625 23.296875 
C 15.953125 32 22.9375 39.765625 31.96875 39.765625 
C 40.875 39.765625 47.4375 32.453125 47.4375 23.4375 
C 47.4375 14.203125 40.59375 6.8125 31.671875 6.8125 
z
" id="Inter-Regular-54"/>
       </defs>
       <use xlink:href="#Inter-Regular-54"/>
      </g>
     </g>
    </g>
    <g id="xtick_5">
     <g id="line2d_9">
      <path clip-path="url(#p07c04273cf)" d="M 397.370958 246.04 
L 397.370958 24.048 
" style="fill:none;stroke:#e5e7eb;stroke-dasharray:3.7,1.6;stroke-dashoffset:0;"/>
     </g>
     <g id="line2d_10">
      <g>
       <use style="stroke:#000000;stroke-width:0.8;" x="397.370958" xlink:href="#m07608f3443" y="246.04"/>
      </g>
     </g>
     <g id="text_5">
      <!-- 8 -->
      <g transform="translate(394.288146 260.313437)scale(0.1 -0.1)">
       <defs>
        <path d="M 30.828125 -1 
C 45.34375 -1 55.46875 7.5 55.546875 19.3125 
C 55.46875 28.515625 49.328125 36.328125 41.484375 37.78125 
L 41.484375 38.203125 
C 48.296875 39.984375 52.765625 46.65625 52.84375 54.40625 
C 52.765625 65.484375 43.46875 73.71875 30.828125 73.71875 
C 18.046875 73.71875 8.734375 65.484375 8.8125 54.40625 
C 8.734375 46.65625 13.21875 39.984375 20.171875 38.203125 
L 20.171875 37.78125 
C 12.1875 36.328125 6.03125 28.515625 6.109375 19.3125 
C 6.03125 7.5 16.15625 -1 30.828125 -1 
z
M 30.828125 41.328125 
C 22.875 41.328125 17.265625 46.3125 17.328125 53.828125 
C 17.265625 61.21875 22.65625 66.046875 30.828125 66.046875 
C 38.84375 66.046875 44.25 61.21875 44.3125 53.828125 
C 44.25 46.3125 38.640625 41.328125 30.828125 41.328125 
z
M 30.828125 6.8125 
C 20.84375 6.8125 14.703125 11.9375 14.78125 19.75 
C 14.703125 27.953125 21.484375 33.8125 30.828125 33.8125 
C 40.015625 33.8125 46.8125 27.953125 46.875 19.75 
C 46.8125 11.9375 40.65625 6.8125 30.828125 6.8125 
z
" id="Inter-Regular-56"/>
       </defs>
       <use xlink:href="#Inter-Regular-56"/>
      </g>
     </g>
    </g>
    <g id="xtick_6">
     <g id="line2d_11">
      <path clip-path="url(#p07c04273cf)" d="M 473.772591 246.04 
L 473.772591 24.048 
" style="fill:none;stroke:#e5e7eb;stroke-dasharray:3.7,1.6;stroke-dashoffset:0;"/>
     </g>
     <g id="line2d_12">
      <g>
       <use style="stroke:#000000;stroke-width:0.8;" x="473.772591" xlink:href="#m07608f3443" y="246.04"/>
      </g>
     </g>
     <g id="text_6">
      <!-- 10 -->
      <g transform="translate(468.324935 260.313437)scale(0.1 -0.1)">
       <defs>
        <path d="M 33.09375 72.734375 
L 24.296875 72.734375 
L 6.109375 60.65625 
L 6.109375 51.703125 
L 23.859375 63.5 
L 24.296875 63.5 
L 24.296875 0 
L 33.09375 0 
z
" id="Inter-Regular-49"/>
       </defs>
       <use xlink:href="#Inter-Regular-49"/>
       <use x="46.448868" xlink:href="#Inter-Regular-48"/>
      </g>
     </g>
    </g>
    <g id="xtick_7">
     <g id="line2d_13">
      <path clip-path="url(#p07c04273cf)" d="M 550.174224 246.04 
L 550.174224 24.048 
" style="fill:none;stroke:#e5e7eb;stroke-dasharray:3.7,1.6;stroke-dashoffset:0;"/>
     </g>
     <g id="line2d_14">
      <g>
       <use style="stroke:#000000;stroke-width:0.8;" x="550.174224" xlink:href="#m07608f3443" y="246.04"/>
      </g>
     </g>
     <g id="text_7">
      <!-- 12 -->
      <g transform="translate(544.825786 260.313437)scale(0.1 -0.1)">
       <use xlink:href="#Inter-Regular-49"/>
       <use x="46.448868" xlink:href="#Inter-Regular-50"/>
      </g>
     </g>
    </g>
    <g id="xtick_8">
     <g id="line2d_15">
      <path clip-path="url(#p07c04273cf)" d="M 626.575856 246.04 
L 626.575856 24.048 
" style="fill:none;stroke:#e5e7eb;stroke-dasharray:3.7,1.6;stroke-dashoffset:0;"/>
     </g>
     <g id="line2d_16">
      <g>
       <use style="stroke:#000000;stroke-width:0.8;" x="626.575856" xlink:href="#m07608f3443" y="246.04"/>
      </g>
     </g>
     <g id="text_8">
      <!-- 14 -->
      <g transform="translate(621.043044 260.313437)scale(0.1 -0.1)">
       <use xlink:href="#Inter-Regular-49"/>
       <use x="46.448868" xlink:href="#Inter-Regular-52"/>
      </g>
     </g>
    </g>
    <g id="xtick_9">
     <g id="line2d_17">
      <path clip-path="url(#p07c04273cf)" d="M 702.977489 246.04 
L 702.977489 24.048 
" style="fill:none;stroke:#e5e7eb;stroke-dasharray:3.7,1.6;stroke-dashoffset:0;"/>
     </g>
     <g id="line2d_18">
      <g>
       <use style="stroke:#000000;stroke-width:0.8;" x="702.977489" xlink:href="#m07608f3443" y="246.04"/>
      </g>
     </g>
     <g id="text_9">
      <!-- 16 -->
      <g transform="translate(697.536864 260.313437)scale(0.1 -0.1)">
       <use xlink:href="#Inter-Regular-49"/>
       <use x="46.448868" xlink:href="#Inter-Regular-54"/>
      </g>
     </g>
    </g>
    <g id="text_10">
     <!-- s / m -->
     <g transform="translate(373.972455 273.632187)scale(0.1 -0.1)">
      <defs>
       <path d="M 46.3125 42.328125 
C 43.6875 50.078125 37.78125 55.25 26.984375 55.25 
C 15.484375 55.25 6.96875 48.71875 6.96875 39.484375 
C 6.96875 31.953125 11.4375 26.921875 21.453125 24.578125 
L 30.546875 22.4375 
C 36.046875 21.171875 38.640625 18.53125 38.640625 14.765625 
C 38.640625 10.078125 33.671875 6.25 25.859375 6.25 
C 19 6.25 14.703125 9.203125 13.21875 15.0625 
L 5.25 13.0625 
C 7.203125 3.796875 14.84375 -1.140625 26 -1.140625 
C 38.671875 -1.140625 47.296875 5.78125 47.296875 15.203125 
C 47.296875 22.796875 42.546875 27.59375 32.8125 29.96875 
L 24.71875 31.953125 
C 18.25 33.5625 15.34375 35.71875 15.34375 39.921875 
C 15.34375 44.609375 20.3125 48.015625 26.984375 48.015625 
C 34.3125 48.015625 37.328125 43.96875 38.78125 40.203125 
z
" id="Inter-Regular-115"/>
       <path id="Inter-Regular-32"/>
       <path d="M 33.375 76.140625 
L 25.71875 76.140625 
L 2.28125 -10.9375 
L 9.9375 -10.9375 
z
" id="Inter-Regular-47"/>
       <path d="M 7.671875 0 
L 16.046875 0 
L 16.046875 34.09375 
C 16.046875 42.078125 21.875 47.734375 28.40625 47.734375 
C 34.765625 47.734375 39.203125 43.578125 39.203125 37.359375 
L 39.203125 0 
L 47.734375 0 
L 47.734375 35.515625 
C 47.734375 42.546875 52.125 47.734375 59.796875 47.734375 
C 65.765625 47.734375 70.875 44.5625 70.875 36.5 
L 70.875 0 
L 79.265625 0 
L 79.265625 36.5 
C 79.265625 49.328125 72.375 55.25 62.640625 55.25 
C 54.828125 55.25 49.109375 51.671875 46.3125 46.015625 
L 45.734375 46.015625 
C 43.046875 51.84375 38.28125 55.25 31.109375 55.25 
C 24 55.25 18.75 51.84375 16.484375 46.015625 
L 15.765625 46.015625 
L 15.765625 54.546875 
L 7.671875 54.546875 
z
" id="Inter-Regular-109"/>
      </defs>
      <use xlink:href="#Inter-Regular-115"/>
      <use x="52.272736" xlink:href="#Inter-Regular-32"/>
      <use x="80.397736" xlink:href="#Inter-Regular-47"/>
      <use x="116.051147" xlink:href="#Inter-Regular-32"/>
      <use x="144.176147" xlink:href="#Inter-Regular-109"/>
     </g>
    </g>
   </g>
   <g id="matplotlib.axis_2">
    <g id="ytick_1">
     <g id="line2d_19">
      <path clip-path="url(#p07c04273cf)" d="M 62.388 234.971427 
L 708.669411 234.971427 
" style="fill:none;stroke:#e5e7eb;stroke-dasharray:3.7,1.6;stroke-dashoffset:0;"/>
     </g>
     <g id="line2d_20">
      <defs>
       <path d="M 0 0 
L -3.5 0 
" id="m90f2bc2842" style="stroke:#000000;stroke-width:0.8;"/>
      </defs>
      <g>
       <use style="stroke:#000000;stroke-width:0.8;" x="62.388" xlink:href="#m90f2bc2842" y="234.971427"/>
      </g>
     </g>
     <g id="text_11">
      <!-- 0 -->
      <g transform="translate(49.138 238.608146)scale(0.1 -0.1)">
       <use xlink:href="#Inter-Regular-48"/>
      </g>
     </g>
    </g>
    <g id="ytick_2">
     <g id="line2d_21">
      <path clip-path="url(#p07c04273cf)" d="M 62.388 202.014091 
L 708.669411 202.014091 
" style="fill:none;stroke:#e5e7eb;stroke-dasharray:3.7,1.6;stroke-dashoffset:0;"/>
     </g>
     <g id="line2d_22">
      <g>
       <use style="stroke:#000000;stroke-width:0.8;" x="62.388" xlink:href="#m90f2bc2842" y="202.014091"/>
      </g>
     </g>
     <g id="text_12">
      <!-- 2 -->
      <g transform="translate(49.336437 205.65081)scale(0.1 -0.1)">
       <use xlink:href="#Inter-Regular-50"/>
      </g>
     </g>
    </g>
    <g id="ytick_3">
     <g id="line2d_23">
      <path clip-path="url(#p07c04273cf)" d="M 62.388 169.056755 
L 708.669411 169.056755 
" style="fill:none;stroke:#e5e7eb;stroke-dasharray:3.7,1.6;stroke-dashoffset:0;"/>
     </g>
     <g id="line2d_24">
      <g>
       <use style="stroke:#000000;stroke-width:0.8;" x="62.388" xlink:href="#m90f2bc2842" y="169.056755"/>
      </g>
     </g>
     <g id="text_13">
      <!-- 4 -->
      <g transform="translate(48.967687 172.693473)scale(0.1 -0.1)">
       <use xlink:href="#Inter-Regular-52"/>
      </g>
     </g>
    </g>
    <g id="ytick_4">
     <g id="line2d_25">
      <path clip-path="url(#p07c04273cf)" d="M 62.388 136.099418 
L 708.669411 136.099418 
" style="fill:none;stroke:#e5e7eb;stroke-dasharray:3.7,1.6;stroke-dashoffset:0;"/>
     </g>
     <g id="line2d_26">
      <g>
       <use style="stroke:#000000;stroke-width:0.8;" x="62.388" xlink:href="#m90f2bc2842" y="136.099418"/>
      </g>
     </g>
     <g id="text_14">
      <!-- 6 -->
      <g transform="translate(49.152062 139.736137)scale(0.1 -0.1)">
       <use xlink:href="#Inter-Regular-54"/>
      </g>
     </g>
    </g>
    <g id="ytick_5">
     <g id="line2d_27">
      <path clip-path="url(#p07c04273cf)" d="M 62.388 103.142082 
L 708.669411 103.142082 
" style="fill:none;stroke:#e5e7eb;stroke-dasharray:3.7,1.6;stroke-dashoffset:0;"/>
     </g>
     <g id="line2d_28">
      <g>
       <use style="stroke:#000000;stroke-width:0.8;" x="62.388" xlink:href="#m90f2bc2842" y="103.142082"/>
      </g>
     </g>
     <g id="text_15">
      <!-- 8 -->
      <g transform="translate(49.222375 106.7788)scale(0.1 -0.1)">
       <use xlink:href="#Inter-Regular-56"/>
      </g>
     </g>
    </g>
    <g id="ytick_6">
     <g id="line2d_29">
      <path clip-path="url(#p07c04273cf)" d="M 62.388 70.184745 
L 708.669411 70.184745 
" style="fill:none;stroke:#e5e7eb;stroke-dasharray:3.7,1.6;stroke-dashoffset:0;"/>
     </g>
     <g id="line2d_30">
      <g>
       <use style="stroke:#000000;stroke-width:0.8;" x="62.388" xlink:href="#m90f2bc2842" y="70.184745"/>
      </g>
     </g>
     <g id="text_16">
      <!-- 10 -->
      <g transform="translate(44.492687 73.821464)scale(0.1 -0.1)">
       <use xlink:href="#Inter-Regular-49"/>
       <use x="46.448868" xlink:href="#Inter-Regular-48"/>
      </g>
     </g>
    </g>
    <g id="ytick_7">
     <g id="line2d_31">
      <path clip-path="url(#p07c04273cf)" d="M 62.388 37.227409 
L 708.669411 37.227409 
" style="fill:none;stroke:#e5e7eb;stroke-dasharray:3.7,1.6;stroke-dashoffset:0;"/>
     </g>
     <g id="line2d_32">
      <g>
       <use style="stroke:#000000;stroke-width:0.8;" x="62.388" xlink:href="#m90f2bc2842" y="37.227409"/>
      </g>
     </g>
     <g id="text_17">
      <!-- 12 -->
      <g transform="translate(44.691125 40.864128)scale(0.1 -0.1)">
       <use xlink:href="#Inter-Regular-49"/>
       <use x="46.448868" xlink:href="#Inter-Regular-50"/>
      </g>
     </g>
    </g>
   </g>
   <g id="line2d_33">
    <path clip-path="url(#p07c04273cf)" d="M 91.764428 208.118811 
L 96.366936 207.972019 
L 100.969444 207.531644 
L 105.571952 206.797686 
L 110.17446 205.770144 
L 114.776968 204.449019 
L 119.379476 202.834311 
L 123.981984 200.926019 
L 128.584492 198.724144 
L 133.187 196.228685 
L 137.789508 193.439643 
L 142.392016 190.357018 
L 146.994524 186.98081 
L 151.597032 183.311018 
L 156.19954 179.347643 
L 160.802048 175.090684 
L 165.404556 170.540142 
L 170.007064 165.696017 
L 174.609572 160.558308 
L 179.21208 155.127016 
L 183.814588 149.402141 
L 187.266469 144.915821 
L 191.08655 128.786287 
L 193.633271 108.990158 
L 196.944009 80.695893 
L 199.236058 59.41277 
L 201.782779 34.138545 
L 211.714991 86.673196 
L 214.261712 128.864272 
L 215.535073 147.310407 
L 221.647203 198.887304 
L 224.193924 209.712726 
L 226.485973 217.740907 
L 228.52335 223.513331 
L 229.796711 226.46931 
L 231.070071 228.923915 
L 232.343432 230.877146 
L 233.441705 232.158271 
L 234.539979 233.066945 
L 235.638252 233.603041 
L 236.736526 233.766482 
L 237.834799 233.557246 
L 238.933073 232.975363 
L 240.031346 232.020914 
L 241.12962 230.694034 
L 242.40298 228.687706 
L 243.676341 226.180005 
L 244.949701 223.17093 
L 248.387775 211.885006 
L 249.661135 206.380103 
L 250.934496 200.263634 
L 253.226545 187.712845 
L 255.263922 174.89313 
L 257.810643 156.666849 
L 259.084003 146.636361 
L 262.522077 126.340497 
L 266.342158 113.276521 
L 270.671584 97.517088 
L 273.218305 87.773544 
L 274.459832 84.653922 
L 275.701358 85.037217 
L 276.942885 88.905513 
L 278.184411 96.078001 
L 280.731133 113.389407 
L 282.004493 121.606218 
L 287.989288 162.256986 
L 290.281337 176.196822 
L 292.318713 187.318522 
L 294.865435 199.540737 
L 297.314205 209.468616 
L 298.489615 213.499507 
L 299.665024 217.078798 
L 300.840434 220.236892 
L 302.015844 223.000617 
L 303.191254 225.393449 
L 304.366663 227.435714 
L 305.542073 229.14476 
L 306.717483 230.535105 
L 307.892892 231.61856 
L 309.068302 232.404328 
L 310.243712 232.899083 
L 311.419122 233.107029 
L 312.594531 233.029932 
L 313.769941 232.667137 
L 314.945351 232.015562 
L 316.120761 231.069672 
L 317.29617 229.821433 
L 318.47158 228.260241 
L 319.64699 226.372834 
L 320.8224 224.14318 
L 321.997809 221.552338 
L 323.173219 218.578302 
L 324.348629 215.195806 
L 325.524038 211.376119 
L 326.699448 207.086793 
L 329.246169 196.332054 
L 331.538218 185.09348 
L 333.575595 173.863483 
L 336.122316 158.184608 
L 338.637203 141.976031 
L 339.87873 136.21201 
L 341.120256 132.638617 
L 342.361783 131.422877 
L 350.765962 131.235705 
L 354.586044 131.066704 
L 355.827571 132.214821 
L 357.069097 135.732076 
L 358.310624 141.454068 
L 360.825511 157.621156 
L 363.372232 173.283162 
L 365.409609 184.513293 
L 367.701658 195.766498 
L 370.248379 206.555476 
L 371.423789 210.86576 
L 372.599198 214.708367 
L 373.774608 218.115939 
L 374.950018 221.117421 
L 376.125427 223.73831 
L 377.300837 226.000869 
L 378.476247 227.924318 
L 379.651657 229.524995 
L 380.827066 230.816498 
L 382.002476 231.809797 
L 383.177886 232.513331 
L 384.353296 232.933074 
L 385.528705 233.072594 
L 386.704115 232.933074 
L 387.879525 232.513331 
L 389.054935 231.809797 
L 390.230344 230.816498 
L 391.405754 229.524995 
L 392.581164 227.924318 
L 393.756573 226.000869 
L 394.931983 223.73831 
L 396.107393 221.117421 
L 397.282803 218.115939 
L 398.458212 214.708367 
L 399.633622 210.86576 
L 400.809032 206.555476 
L 403.355753 195.766498 
L 405.647802 184.513293 
L 407.685179 173.283162 
L 410.2319 157.621156 
L 412.746787 141.454068 
L 413.988314 135.732076 
L 415.22984 132.214821 
L 416.471367 131.066704 
L 424.875546 131.36927 
L 428.695628 131.422877 
L 429.937154 132.638617 
L 431.178681 136.21201 
L 432.420207 141.976031 
L 434.935094 158.184608 
L 437.481816 173.863483 
L 439.519192 185.09348 
L 441.811241 196.332054 
L 444.357962 207.086793 
L 445.533372 211.376119 
L 446.708782 215.195806 
L 447.884192 218.578302 
L 449.059601 221.552338 
L 450.235011 224.14318 
L 451.410421 226.372834 
L 452.585831 228.260241 
L 453.76124 229.821433 
L 454.93665 231.069672 
L 456.11206 232.015562 
L 457.28747 232.667137 
L 458.462879 233.029932 
L 459.638289 233.107029 
L 460.813699 232.899083 
L 461.989108 232.404328 
L 463.164518 231.61856 
L 464.339928 230.535105 
L 465.515338 229.14476 
L 466.690747 227.435714 
L 467.866157 225.393449 
L 469.041567 223.000617 
L 470.216977 220.236892 
L 471.392386 217.078798 
L 472.567796 213.499507 
L 473.743206 209.468616 
L 474.918616 204.951882 
L 477.465337 193.662951 
L 479.757386 181.906997 
L 481.794762 170.187996 
L 484.341484 153.859335 
L 489.052918 121.606218 
L 491.599639 104.880001 
L 492.872999 96.078001 
L 494.114526 88.905513 
L 495.356052 85.037217 
L 496.597579 84.653922 
L 497.839105 87.773544 
L 501.659187 102.257391 
L 505.670273 116.616466 
L 508.535334 126.340497 
L 511.973407 146.636361 
L 514.520128 166.085772 
L 516.812177 181.498688 
L 518.849554 193.5356 
L 520.122915 200.263634 
L 521.396275 206.380103 
L 522.669636 211.885006 
L 526.107709 223.17093 
L 527.38107 226.180005 
L 528.654431 228.687706 
L 529.927791 230.694034 
L 531.026065 232.020914 
L 532.124338 232.975363 
L 533.222611 233.557246 
L 534.320885 233.766482 
L 535.419158 233.603041 
L 536.517432 233.066945 
L 537.615705 232.158271 
L 538.713979 230.877146 
L 539.987339 228.923915 
L 541.2607 226.46931 
L 542.53406 223.513331 
L 543.552749 220.787558 
L 545.590126 214.373376 
L 546.863486 209.712726 
L 548.136847 204.550702 
L 549.410207 198.887304 
L 555.522338 147.310407 
L 556.795699 128.864272 
L 559.34242 86.673196 
L 569.274632 34.138545 
L 571.821353 59.41277 
L 575.13209 89.709964 
L 577.424139 108.990158 
L 579.97086 128.786287 
L 583.790942 144.915821 
L 589.544077 152.301277 
L 594.146585 157.87936 
L 598.749093 163.163861 
L 603.351601 168.154778 
L 607.954109 172.852111 
L 612.556617 177.255861 
L 617.159125 181.366028 
L 621.761633 185.182612 
L 626.364141 188.705612 
L 630.966649 191.935029 
L 635.569157 194.870862 
L 640.171665 197.513112 
L 644.774173 199.861779 
L 649.376681 201.916863 
L 653.979189 203.678363 
L 658.581697 205.146279 
L 663.184205 206.320613 
L 667.786713 207.201363 
L 672.389221 207.78853 
L 676.991729 208.082113 
L 679.292983 208.118811 
L 679.292983 208.118811 
" style="fill:none;stroke:#ef4444;stroke-linecap:square;stroke-width:1.5;"/>
   </g>
   <g id="line2d_34">
    <path clip-path="url(#p07c04273cf)" d="M 91.764428 208.459136 
L 95.216309 208.375505 
L 98.66819 208.124615 
L 103.270698 207.529911 
L 107.873206 206.637855 
L 112.475714 205.448447 
L 117.078222 203.961688 
L 121.68073 202.177576 
L 126.283238 200.096113 
L 130.885746 197.717297 
L 135.488254 195.04113 
L 140.090762 192.067611 
L 144.69327 188.796739 
L 149.295778 185.228516 
L 153.898286 181.362941 
L 158.500794 177.200014 
L 163.103302 172.739735 
L 167.70581 167.982104 
L 172.308318 162.927122 
L 176.910826 157.574787 
L 181.513334 151.9251 
L 186.115842 145.978062 
L 187.266469 144.444841 
L 191.08655 149.463708 
L 193.633271 159.017474 
L 196.944009 170.546726 
L 199.236058 177.938723 
L 201.782779 185.586092 
L 211.714991 176.464177 
L 214.261712 162.523946 
L 215.535073 154.981861 
L 221.647203 141.025899 
L 226.485973 150.152664 
L 231.070071 158.278913 
L 235.638252 165.933889 
L 240.031346 172.836532 
L 244.949701 180.059338 
L 248.387775 186.581262 
L 250.934496 192.327447 
L 254.245233 199.175251 
L 256.537282 203.503989 
L 259.084003 207.918297 
L 262.522077 210.941972 
L 266.342158 211.444381 
L 270.671584 211.730905 
L 273.218305 211.759051 
L 274.459832 211.461646 
L 275.701358 210.578708 
L 276.942885 209.068648 
L 278.184411 206.860334 
L 280.731133 201.255652 
L 282.004493 198.23298 
L 285.442567 188.175681 
L 287.989288 178.890282 
L 290.281337 169.775113 
L 292.318713 161.06964 
L 294.865435 149.389578 
L 298.489615 132.133985 
L 300.840434 122.240396 
L 303.191254 113.87267 
L 304.366663 110.352244 
L 305.542073 107.315393 
L 306.717483 104.787993 
L 307.892892 102.791579 
L 309.068302 101.343162 
L 310.243712 100.455083 
L 311.419122 100.134909 
L 312.594531 100.385369 
L 313.769941 101.204328 
L 314.945351 102.584808 
L 316.120761 104.515048 
L 317.29617 106.978598 
L 318.47158 109.95447 
L 319.64699 113.417305 
L 320.8224 117.3376 
L 323.173219 126.413336 
L 325.524038 136.873013 
L 330.51953 160.299208 
L 333.575595 173.114932 
L 336.122316 182.834646 
L 337.395677 187.367211 
L 338.637203 191.04933 
L 339.87873 193.575448 
L 341.120256 195.064558 
L 342.361783 195.586806 
L 347.327889 195.673401 
L 352.039323 195.539647 
L 354.586044 195.379818 
L 355.827571 194.81276 
L 357.069097 193.271853 
L 358.310624 190.684513 
L 359.55215 186.928863 
L 362.098871 177.468408 
L 364.39092 168.188249 
L 366.428297 159.3302 
L 368.975018 147.451585 
L 372.599198 129.917931 
L 374.950018 119.88219 
L 377.300837 111.410515 
L 378.476247 107.8536 
L 379.651657 104.791028 
L 380.827066 102.248894 
L 382.002476 100.248859 
L 383.177886 98.807964 
L 384.353296 97.938486 
L 385.528705 97.647835 
L 386.704115 97.938486 
L 387.879525 98.807964 
L 389.054935 100.248859 
L 390.230344 102.248894 
L 391.405754 104.791028 
L 392.581164 107.8536 
L 393.756573 111.410515 
L 394.931983 115.431466 
L 397.282803 124.724766 
L 399.633622 135.417436 
L 403.355753 153.502844 
L 406.66649 168.188249 
L 408.958539 177.468408 
L 411.50526 186.928863 
L 412.746787 190.684513 
L 413.988314 193.271853 
L 415.22984 194.81276 
L 416.471367 195.379818 
L 421.437473 195.63459 
L 426.148907 195.66039 
L 428.695628 195.586806 
L 429.937154 195.064558 
L 431.178681 193.575448 
L 432.420207 191.04933 
L 433.661734 187.367211 
L 436.208455 178.083886 
L 438.500504 168.982668 
L 440.537881 160.299208 
L 443.084602 148.659384 
L 446.708782 131.491447 
L 449.059601 121.681949 
L 451.410421 113.417305 
L 452.585831 109.95447 
L 453.76124 106.978598 
L 454.93665 104.515048 
L 456.11206 102.584808 
L 457.28747 101.204328 
L 458.462879 100.385369 
L 459.638289 100.134909 
L 460.813699 100.455083 
L 461.989108 101.343162 
L 463.164518 102.791579 
L 464.339928 104.787993 
L 465.515338 107.315393 
L 466.690747 110.352244 
L 467.866157 113.87267 
L 469.041567 117.846674 
L 471.392386 127.016398 
L 473.743206 137.549552 
L 477.465337 155.340473 
L 480.776074 169.775113 
L 483.068123 178.890282 
L 485.614844 188.175681 
L 489.052918 198.23298 
L 491.599639 204.131436 
L 492.872999 206.860334 
L 494.114526 209.068648 
L 495.356052 210.578708 
L 496.597579 211.461646 
L 497.839105 211.759051 
L 501.659187 211.677832 
L 505.670273 211.340716 
L 508.535334 210.941972 
L 511.973407 207.918297 
L 514.520128 203.503989 
L 517.830866 197.143152 
L 520.122915 192.327447 
L 522.669636 186.581262 
L 526.107709 180.059338 
L 529.927791 174.48826 
L 534.320885 167.70391 
L 538.713979 160.446387 
L 543.552749 152.002234 
L 548.136847 143.482351 
L 549.410207 141.025899 
L 555.522338 154.981861 
L 558.069059 169.684718 
L 559.34242 176.464177 
L 569.274632 185.586092 
L 571.821353 177.938723 
L 575.13209 167.106499 
L 577.424139 159.017474 
L 579.97086 149.463708 
L 583.790942 144.444841 
L 588.39345 150.466218 
L 592.995958 156.190242 
L 597.598466 161.616915 
L 602.200974 166.746236 
L 606.803482 171.578204 
L 611.40599 176.112821 
L 616.008498 180.350086 
L 620.611006 184.289999 
L 625.213514 187.93256 
L 629.816022 191.277769 
L 634.41853 194.325627 
L 639.021038 197.076132 
L 643.623546 199.529285 
L 648.226054 201.685087 
L 652.828562 203.543536 
L 657.43107 205.104634 
L 662.033578 206.36838 
L 666.636086 207.334774 
L 671.238594 208.003815 
L 675.841102 208.375505 
L 679.292983 208.459136 
L 679.292983 208.459136 
" style="fill:none;stroke:#1d4ed8;stroke-linecap:square;stroke-width:1.5;"/>
   </g>
   <g id="line2d_35">
    <path clip-path="url(#p07c04273cf)" d="M 91.764428 235.680205 
L 193.633271 235.775148 
L 201.782779 235.949455 
L 214.261712 235.644895 
L 222.920564 235.283831 
L 232.343432 234.986413 
L 233.441705 234.81144 
L 234.539979 234.355852 
L 235.638252 233.619666 
L 236.736526 232.602907 
L 237.834799 231.305611 
L 238.933073 229.727824 
L 240.031346 227.8696 
L 242.40298 223.087466 
L 244.949701 217.800388 
L 249.661135 207.395573 
L 259.084003 185.799459 
L 262.522077 180.338056 
L 273.218305 171.137375 
L 274.459832 170.46941 
L 275.701358 170.605246 
L 276.942885 171.54329 
L 278.184411 173.272549 
L 282.004493 179.791858 
L 285.442567 186.379407 
L 297.314205 211.401846 
L 299.665024 215.546594 
L 302.015844 218.899618 
L 303.191254 220.28839 
L 304.366663 221.489401 
L 305.542073 222.505199 
L 306.717483 223.33794 
L 307.892892 223.989393 
L 309.068302 224.46094 
L 310.243712 224.753582 
L 311.419122 224.867939 
L 312.594531 224.804255 
L 313.769941 224.562395 
L 314.945351 224.141845 
L 316.120761 223.541712 
L 317.29617 222.760723 
L 318.47158 221.79722 
L 319.64699 220.649158 
L 320.8224 219.3141 
L 321.997809 217.789213 
L 324.348629 214.156593 
L 326.699448 209.720442 
L 337.395677 187.624923 
L 338.637203 185.366573 
L 339.87873 183.737433 
L 341.120256 182.756597 
L 342.361783 182.43556 
L 354.586044 182.540725 
L 355.827571 182.882466 
L 357.069097 183.88253 
L 358.310624 185.529198 
L 359.55215 187.803171 
L 371.423789 212.359434 
L 373.774608 216.419988 
L 376.125427 219.696238 
L 377.300837 221.049199 
L 378.476247 222.216012 
L 379.651657 223.199156 
L 380.827066 224.000717 
L 382.002476 224.622395 
L 383.177886 225.065511 
L 384.353296 225.331005 
L 385.528705 225.41944 
L 386.704115 225.331005 
L 387.879525 225.065511 
L 389.054935 224.622395 
L 390.230344 224.000717 
L 391.405754 223.199156 
L 392.581164 222.216012 
L 393.756573 221.049199 
L 394.931983 219.696238 
L 396.107393 218.154259 
L 398.458212 214.489746 
L 400.809032 210.024531 
L 411.50526 187.803171 
L 412.746787 185.529198 
L 413.988314 183.88253 
L 415.22984 182.882466 
L 416.471367 182.540725 
L 428.695628 182.43556 
L 429.937154 182.756597 
L 431.178681 183.737433 
L 432.420207 185.366573 
L 433.661734 187.624923 
L 445.533372 212.041151 
L 447.884192 216.071259 
L 450.235011 219.3141 
L 451.410421 220.649158 
L 452.585831 221.79722 
L 453.76124 222.760723 
L 454.93665 223.541712 
L 456.11206 224.141845 
L 457.28747 224.562395 
L 458.462879 224.804255 
L 459.638289 224.867939 
L 460.813699 224.753582 
L 461.989108 224.46094 
L 463.164518 223.989393 
L 464.339928 223.33794 
L 465.515338 222.505199 
L 466.690747 221.489401 
L 467.866157 220.28839 
L 469.041567 218.899618 
L 470.216977 217.320137 
L 472.567796 213.575225 
L 474.918616 209.021843 
L 485.614844 186.379407 
L 489.052918 179.791858 
L 492.872999 173.272549 
L 494.114526 171.54329 
L 495.356052 170.605246 
L 496.597579 170.46941 
L 497.839105 171.137375 
L 508.535334 180.338056 
L 511.973407 185.799459 
L 522.669636 210.313967 
L 528.654431 223.087466 
L 531.026065 227.8696 
L 532.124338 229.727824 
L 533.222611 231.305611 
L 534.320885 232.602907 
L 535.419158 233.619666 
L 536.517432 234.355852 
L 537.615705 234.81144 
L 538.713979 234.986413 
L 556.795699 235.644895 
L 559.34242 235.780392 
L 571.821353 235.894984 
L 586.092196 235.680205 
L 679.292983 235.680205 
L 679.292983 235.680205 
" style="fill:none;stroke:#10b981;stroke-linecap:square;stroke-width:1.5;"/>
   </g>
   <g id="patch_3">
    <path d="M 62.388 246.04 
L 62.388 24.048 
" style="fill:none;stroke:#000000;stroke-linecap:square;stroke-linejoin:miter;stroke-width:0.8;"/>
   </g>
   <g id="patch_4">
    <path d="M 708.669411 246.04 
L 708.669411 24.048 
" style="fill:none;stroke:#000000;stroke-linecap:square;stroke-linejoin:miter;stroke-width:0.8;"/>
   </g>
   <g id="patch_5">
    <path d="M 62.388 246.04 
L 708.669411 246.04 
" style="fill:none;stroke:#000000;stroke-linecap:square;stroke-linejoin:miter;stroke-width:0.8;"/>
   </g>
   <g id="patch_6">
    <path d="M 62.388 24.048 
L 708.669411 24.048 
" style="fill:none;stroke:#000000;stroke-linecap:square;stroke-linejoin:miter;stroke-width:0.8;"/>
   </g>
   <g id="text_18">
    <!--        $\eta_x / 1\mathrm{cm}$ -->
    <g style="fill:#008000;" transform="translate(13.985487 174.7912)rotate(-90)scale(0.1 -0.1)">
     <defs>
      <path d="M 57.859375 33.015625 
L 47.40625 -20.796875 
L 38.421875 -20.796875 
L 48.828125 32.71875 
Q 50.34375 40.484375 48.046875 44.34375 
Q 45.796875 48.1875 39.75 48.1875 
Q 32.46875 48.1875 27.34375 43.5625 
Q 22.265625 38.921875 20.703125 30.90625 
L 14.703125 0 
L 5.671875 0 
L 16.3125 54.6875 
L 25.34375 54.6875 
L 23.6875 46.1875 
Q 27.828125 51.125 32.71875 53.5625 
Q 37.546875 56 43.265625 56 
Q 52.6875 56 56.390625 50.203125 
Q 60.0625 44.34375 57.859375 33.015625 
z
" id="DejaVuSans-Oblique-951"/>
      <path d="M 60.015625 54.6875 
L 34.90625 27.875 
L 50.296875 0 
L 39.984375 0 
L 28.421875 21.6875 
L 8.296875 0 
L -2.59375 0 
L 24.3125 28.8125 
L 10.015625 54.6875 
L 20.3125 54.6875 
L 30.8125 34.90625 
L 49.125 54.6875 
z
" id="DejaVuSans-Oblique-120"/>
      <path d="M 25.390625 72.90625 
L 33.6875 72.90625 
L 8.296875 -9.28125 
L 0 -9.28125 
z
" id="DejaVuSans-47"/>
      <path d="M 12.40625 8.296875 
L 28.515625 8.296875 
L 28.515625 63.921875 
L 10.984375 60.40625 
L 10.984375 69.390625 
L 28.421875 72.90625 
L 38.28125 72.90625 
L 38.28125 8.296875 
L 54.390625 8.296875 
L 54.390625 0 
L 12.40625 0 
z
" id="DejaVuSans-49"/>
      <path d="M 48.78125 52.59375 
L 48.78125 44.1875 
Q 44.96875 46.296875 41.140625 47.34375 
Q 37.3125 48.390625 33.40625 48.390625 
Q 24.65625 48.390625 19.8125 42.84375 
Q 14.984375 37.3125 14.984375 27.296875 
Q 14.984375 17.28125 19.8125 11.734375 
Q 24.65625 6.203125 33.40625 6.203125 
Q 37.3125 6.203125 41.140625 7.25 
Q 44.96875 8.296875 48.78125 10.40625 
L 48.78125 2.09375 
Q 45.015625 0.34375 40.984375 -0.53125 
Q 36.96875 -1.421875 32.421875 -1.421875 
Q 20.0625 -1.421875 12.78125 6.34375 
Q 5.515625 14.109375 5.515625 27.296875 
Q 5.515625 40.671875 12.859375 48.328125 
Q 20.21875 56 33.015625 56 
Q 37.15625 56 41.109375 55.140625 
Q 45.0625 54.296875 48.78125 52.59375 
z
" id="DejaVuSans-99"/>
      <path d="M 52 44.1875 
Q 55.375 50.25 60.0625 53.125 
Q 64.75 56 71.09375 56 
Q 79.640625 56 84.28125 50.015625 
Q 88.921875 44.046875 88.921875 33.015625 
L 88.921875 0 
L 79.890625 0 
L 79.890625 32.71875 
Q 79.890625 40.578125 77.09375 44.375 
Q 74.3125 48.1875 68.609375 48.1875 
Q 61.625 48.1875 57.5625 43.546875 
Q 53.515625 38.921875 53.515625 30.90625 
L 53.515625 0 
L 44.484375 0 
L 44.484375 32.71875 
Q 44.484375 40.625 41.703125 44.40625 
Q 38.921875 48.1875 33.109375 48.1875 
Q 26.21875 48.1875 22.15625 43.53125 
Q 18.109375 38.875 18.109375 30.90625 
L 18.109375 0 
L 9.078125 0 
L 9.078125 54.6875 
L 18.109375 54.6875 
L 18.109375 46.1875 
Q 21.1875 51.21875 25.484375 53.609375 
Q 29.78125 56 35.6875 56 
Q 41.65625 56 45.828125 52.96875 
Q 50 49.953125 52 44.1875 
z
" id="DejaVuSans-109"/>
     </defs>
     <use transform="translate(0 0.09375)" xlink:href="#Inter-Regular-32"/>
     <use transform="translate(28.125 0.09375)" xlink:href="#Inter-Regular-32"/>
     <use transform="translate(56.25 0.09375)" xlink:href="#Inter-Regular-32"/>
     <use transform="translate(84.375 0.09375)" xlink:href="#Inter-Regular-32"/>
     <use transform="translate(112.5 0.09375)" xlink:href="#Inter-Regular-32"/>
     <use transform="translate(140.625 0.09375)" xlink:href="#Inter-Regular-32"/>
     <use transform="translate(168.75 0.09375)" xlink:href="#Inter-Regular-32"/>
     <use transform="translate(196.875 0.09375)" xlink:href="#DejaVuSans-Oblique-951"/>
     <use transform="translate(260.253906 -16.3125)scale(0.7)" xlink:href="#DejaVuSans-Oblique-120"/>
     <use transform="translate(304.414062 0.09375)" xlink:href="#DejaVuSans-47"/>
     <use transform="translate(338.105469 0.09375)" xlink:href="#DejaVuSans-49"/>
     <use transform="translate(401.728516 0.09375)" xlink:href="#DejaVuSans-99"/>
     <use transform="translate(456.708984 0.09375)" xlink:href="#DejaVuSans-109"/>
    </g>
   </g>
   <g id="text_19">
    <!--   $\beta_y / \mathrm{m}$ -->
    <g style="fill:#0000ff;" transform="translate(12.985487 195.4412)rotate(-90)scale(0.1 -0.1)">
     <defs>
      <path d="M 13.625 3.375 
L 8.9375 -20.796875 
L -0.09375 -20.796875 
L 14.5 54.34375 
Q 18.84375 76.609375 39.65625 76.609375 
Q 60.75 76.609375 57.171875 57.8125 
Q 54.734375 44.4375 45.21875 39.546875 
Q 58.015625 35.15625 55.515625 22.125 
Q 51.125 -1.078125 27.484375 -1.03125 
Q 17.140625 -0.984375 13.625 3.375 
z
M 15.921875 15.09375 
Q 19.671875 6.59375 29.296875 6.640625 
Q 43.359375 6.640625 46.34375 21.96875 
Q 49.03125 35.75 26.171875 34.671875 
L 27.78125 42.96875 
Q 45.453125 42.671875 48.53125 58.59375 
Q 50.640625 69.34375 39.203125 69.28125 
Q 26.421875 69.28125 23.484375 54.046875 
z
" id="DejaVuSans-Oblique-946"/>
      <path d="M 24.8125 -5.078125 
Q 18.5625 -15.578125 14.625 -18.1875 
Q 10.6875 -20.796875 4.59375 -20.796875 
L -2.484375 -20.796875 
L -0.984375 -13.28125 
L 4.203125 -13.28125 
Q 7.953125 -13.28125 10.59375 -11.234375 
Q 13.234375 -9.1875 16.5 -3.21875 
L 19.28125 2 
L 7.171875 54.6875 
L 16.703125 54.6875 
L 25.78125 12.796875 
L 50.875 54.6875 
L 60.296875 54.6875 
z
" id="DejaVuSans-Oblique-121"/>
     </defs>
     <use transform="translate(0 0.390625)" xlink:href="#Inter-Regular-32"/>
     <use transform="translate(28.125 0.390625)" xlink:href="#Inter-Regular-32"/>
     <use transform="translate(56.25 0.390625)" xlink:href="#DejaVuSans-Oblique-946"/>
     <use transform="translate(120.068359 -16.015625)scale(0.7)" xlink:href="#DejaVuSans-Oblique-121"/>
     <use transform="translate(164.228516 0.390625)" xlink:href="#DejaVuSans-47"/>
     <use transform="translate(197.919922 0.390625)" xlink:href="#DejaVuSans-109"/>
    </g>
   </g>
   <g id="text_20">
    <!-- $\beta_x / \mathrm{m}$ -->
    <g style="fill:#ff0000;" transform="translate(13.985487 222.6412)rotate(-90)scale(0.1 -0.1)">
     <use transform="translate(0 0.390625)" xlink:href="#DejaVuSans-Oblique-946"/>
     <use transform="translate(63.818359 -16.015625)scale(0.7)" xlink:href="#DejaVuSans-Oblique-120"/>
     <use transform="translate(107.978516 0.390625)" xlink:href="#DejaVuSans-47"/>
     <use transform="translate(141.669922 0.390625)" xlink:href="#DejaVuSans-109"/>
    </g>
   </g>
   <g id="patch_7">
    <path d="M 187.266469 29.5978 
L 191.08655 29.5978 
L 191.08655 18.4982 
L 187.266469 18.4982 
z
" style="fill:#ef4444;"/>
   </g>
   <g id="patch_8">
    <path d="M 194.906632 29.5978 
L 197.962697 29.5978 
L 197.962697 18.4982 
L 194.906632 18.4982 
z
" style="fill:#10b981;"/>
   </g>
   <g id="patch_9">
    <path d="M 201.782779 29.5978 
L 211.714991 29.5978 
L 211.714991 18.4982 
L 201.782779 18.4982 
z
" style="fill:#ef4444;"/>
   </g>
   <g id="patch_10">
    <path d="M 215.535073 29.5978 
L 221.647203 29.5978 
L 221.647203 18.4982 
L 215.535073 18.4982 
z
" style="fill:#ef4444;"/>
   </g>
   <g id="patch_11">
    <path d="M 225.467285 29.5978 
L 228.52335 29.5978 
L 228.52335 18.4982 
L 225.467285 18.4982 
z
" style="fill:#10b981;"/>
   </g>
   <g id="patch_12">
    <path d="M 232.343432 29.5978 
L 241.12962 29.5978 
L 241.12962 18.4982 
L 232.343432 18.4982 
z
" style="fill:#fbbf24;"/>
   </g>
   <g id="patch_13">
    <path d="M 244.949701 29.5978 
L 248.387775 29.5978 
L 248.387775 18.4982 
L 244.949701 18.4982 
z
" style="fill:#ef4444;"/>
   </g>
   <g id="patch_14">
    <path d="M 252.207856 29.5978 
L 255.263922 29.5978 
L 255.263922 18.4982 
L 252.207856 18.4982 
z
" style="fill:#10b981;"/>
   </g>
   <g id="patch_15">
    <path d="M 259.084003 29.5978 
L 262.522077 29.5978 
L 262.522077 18.4982 
L 259.084003 18.4982 
z
" style="fill:#ef4444;"/>
   </g>
   <g id="patch_16">
    <path d="M 266.342158 29.5978 
L 269.398224 29.5978 
L 269.398224 18.4982 
L 266.342158 18.4982 
z
" style="fill:#10b981;"/>
   </g>
   <g id="patch_17">
    <path d="M 273.218305 29.5978 
L 278.184411 29.5978 
L 278.184411 18.4982 
L 273.218305 18.4982 
z
" style="fill:#fbbf24;"/>
   </g>
   <g id="patch_18">
    <path d="M 282.004493 29.5978 
L 285.442567 29.5978 
L 285.442567 18.4982 
L 282.004493 18.4982 
z
" style="fill:#ef4444;"/>
   </g>
   <g id="patch_19">
    <path d="M 289.262648 29.5978 
L 292.318713 29.5978 
L 292.318713 18.4982 
L 289.262648 18.4982 
z
" style="fill:#10b981;"/>
   </g>
   <g id="patch_20">
    <path d="M 296.138795 29.5978 
L 326.699448 29.5978 
L 326.699448 18.4982 
L 296.138795 18.4982 
z
" style="fill:#fbbf24;"/>
   </g>
   <g id="patch_21">
    <path d="M 330.51953 29.5978 
L 333.575595 29.5978 
L 333.575595 18.4982 
L 330.51953 18.4982 
z
" style="fill:#10b981;"/>
   </g>
   <g id="patch_22">
    <path d="M 337.395677 29.5978 
L 342.361783 29.5978 
L 342.361783 18.4982 
L 337.395677 18.4982 
z
" style="fill:#fbbf24;"/>
   </g>
   <g id="patch_23">
    <path d="M 346.181865 29.5978 
L 350.765962 29.5978 
L 350.765962 18.4982 
L 346.181865 18.4982 
z
" style="fill:#10b981;"/>
   </g>
   <g id="patch_24">
    <path d="M 354.586044 29.5978 
L 359.55215 29.5978 
L 359.55215 18.4982 
L 354.586044 18.4982 
z
" style="fill:#fbbf24;"/>
   </g>
   <g id="patch_25">
    <path d="M 363.372232 29.5978 
L 366.428297 29.5978 
L 366.428297 18.4982 
L 363.372232 18.4982 
z
" style="fill:#10b981;"/>
   </g>
   <g id="patch_26">
    <path d="M 370.248379 29.5978 
L 400.809032 29.5978 
L 400.809032 18.4982 
L 370.248379 18.4982 
z
" style="fill:#fbbf24;"/>
   </g>
   <g id="patch_27">
    <path d="M 404.629114 29.5978 
L 407.685179 29.5978 
L 407.685179 18.4982 
L 404.629114 18.4982 
z
" style="fill:#10b981;"/>
   </g>
   <g id="patch_28">
    <path d="M 411.50526 29.5978 
L 416.471367 29.5978 
L 416.471367 18.4982 
L 411.50526 18.4982 
z
" style="fill:#fbbf24;"/>
   </g>
   <g id="patch_29">
    <path d="M 420.291448 29.5978 
L 424.875546 29.5978 
L 424.875546 18.4982 
L 420.291448 18.4982 
z
" style="fill:#10b981;"/>
   </g>
   <g id="patch_30">
    <path d="M 428.695628 29.5978 
L 433.661734 29.5978 
L 433.661734 18.4982 
L 428.695628 18.4982 
z
" style="fill:#fbbf24;"/>
   </g>
   <g id="patch_31">
    <path d="M 437.481816 29.5978 
L 440.537881 29.5978 
L 440.537881 18.4982 
L 437.481816 18.4982 
z
" style="fill:#10b981;"/>
   </g>
   <g id="patch_32">
    <path d="M 444.357962 29.5978 
L 474.918616 29.5978 
L 474.918616 18.4982 
L 444.357962 18.4982 
z
" style="fill:#fbbf24;"/>
   </g>
   <g id="patch_33">
    <path d="M 478.738697 29.5978 
L 481.794762 29.5978 
L 481.794762 18.4982 
L 478.738697 18.4982 
z
" style="fill:#10b981;"/>
   </g>
   <g id="patch_34">
    <path d="M 485.614844 29.5978 
L 489.052918 29.5978 
L 489.052918 18.4982 
L 485.614844 18.4982 
z
" style="fill:#ef4444;"/>
   </g>
   <g id="patch_35">
    <path d="M 492.872999 29.5978 
L 497.839105 29.5978 
L 497.839105 18.4982 
L 492.872999 18.4982 
z
" style="fill:#fbbf24;"/>
   </g>
   <g id="patch_36">
    <path d="M 501.659187 29.5978 
L 504.715252 29.5978 
L 504.715252 18.4982 
L 501.659187 18.4982 
z
" style="fill:#10b981;"/>
   </g>
   <g id="patch_37">
    <path d="M 508.535334 29.5978 
L 511.973407 29.5978 
L 511.973407 18.4982 
L 508.535334 18.4982 
z
" style="fill:#ef4444;"/>
   </g>
   <g id="patch_38">
    <path d="M 515.793489 29.5978 
L 518.849554 29.5978 
L 518.849554 18.4982 
L 515.793489 18.4982 
z
" style="fill:#10b981;"/>
   </g>
   <g id="patch_39">
    <path d="M 522.669636 29.5978 
L 526.107709 29.5978 
L 526.107709 18.4982 
L 522.669636 18.4982 
z
" style="fill:#ef4444;"/>
   </g>
   <g id="patch_40">
    <path d="M 529.927791 29.5978 
L 538.713979 29.5978 
L 538.713979 18.4982 
L 529.927791 18.4982 
z
" style="fill:#fbbf24;"/>
   </g>
   <g id="patch_41">
    <path d="M 542.53406 29.5978 
L 545.590126 29.5978 
L 545.590126 18.4982 
L 542.53406 18.4982 
z
" style="fill:#10b981;"/>
   </g>
   <g id="patch_42">
    <path d="M 549.410207 29.5978 
L 555.522338 29.5978 
L 555.522338 18.4982 
L 549.410207 18.4982 
z
" style="fill:#ef4444;"/>
   </g>
   <g id="patch_43">
    <path d="M 559.34242 29.5978 
L 569.274632 29.5978 
L 569.274632 18.4982 
L 559.34242 18.4982 
z
" style="fill:#ef4444;"/>
   </g>
   <g id="patch_44">
    <path d="M 573.094714 29.5978 
L 576.150779 29.5978 
L 576.150779 18.4982 
L 573.094714 18.4982 
z
" style="fill:#10b981;"/>
   </g>
   <g id="patch_45">
    <path d="M 579.97086 29.5978 
L 583.790942 29.5978 
L 583.790942 18.4982 
L 579.97086 18.4982 
z
" style="fill:#ef4444;"/>
   </g>
   <g id="text_21">
    <!-- UQ3 -->
    <g transform="translate(183.828072 14.255431)scale(0.05 -0.05)">
     <defs>
      <path d="M 56.53125 72.734375 
L 56.53125 25.28125 
C 56.53125 14.625 49.21875 6.953125 37.078125 6.953125 
C 24.9375 6.953125 17.609375 14.625 17.609375 25.28125 
L 17.609375 72.734375 
L 8.8125 72.734375 
L 8.8125 24.578125 
C 8.8125 9.65625 19.953125 -1.28125 37.078125 -1.28125 
C 54.1875 -1.28125 65.34375 9.65625 65.34375 24.578125 
L 65.34375 72.734375 
z
" id="Inter-Regular-85"/>
      <path d="M 70.171875 36.359375 
C 70.171875 59.375 56.671875 73.71875 38.0625 73.71875 
C 19.46875 73.71875 5.96875 59.375 5.96875 36.359375 
C 5.96875 13.359375 19.46875 -1 38.0625 -1 
C 42.828125 -1 47.234375 -0.078125 51.171875 1.703125 
L 57.53125 -6.8125 
L 67.1875 -6.8125 
L 57.703125 5.78125 
C 65.453125 12.140625 70.171875 22.734375 70.171875 36.359375 
z
M 35.234375 22.734375 
L 45.984375 8.59375 
C 43.53125 7.703125 40.875 7.25 38.0625 7.25 
C 24.859375 7.25 14.484375 17.46875 14.484375 36.359375 
C 14.484375 55.25 24.859375 65.484375 38.0625 65.484375 
C 51.28125 65.484375 61.65625 55.25 61.65625 36.359375 
C 61.65625 25.390625 58.171875 17.359375 52.625 12.53125 
L 44.890625 22.734375 
z
" id="Inter-Regular-81"/>
      <path d="M 32.109375 -1 
C 46.203125 -1 56.671875 7.84375 56.671875 19.75 
C 56.671875 28.984375 51.203125 35.6875 42.046875 37.21875 
L 42.046875 37.78125 
C 49.390625 40.015625 53.984375 46.0625 53.984375 54.265625 
C 53.984375 64.5625 45.84375 73.71875 32.390625 73.71875 
C 19.8125 73.71875 9.375 65.984375 8.953125 54.546875 
L 17.46875 54.546875 
C 17.796875 61.796875 24.6875 66.046875 32.25 66.046875 
C 40.265625 66.046875 45.453125 61.1875 45.453125 53.828125 
C 45.453125 46.171875 39.453125 41.1875 30.828125 41.1875 
L 25 41.1875 
L 25 33.375 
L 30.828125 33.375 
C 41.875 33.375 48.015625 27.765625 48.015625 19.75 
C 48.015625 12.03125 41.296875 6.8125 31.96875 6.8125 
C 23.546875 6.8125 16.875 11.15625 16.34375 18.1875 
L 7.390625 18.1875 
C 7.921875 6.75 18 -1 32.109375 -1 
z
" id="Inter-Regular-51"/>
     </defs>
     <use xlink:href="#Inter-Regular-85"/>
     <use x="74.147751" xlink:href="#Inter-Regular-81"/>
     <use x="150.284134" xlink:href="#Inter-Regular-51"/>
    </g>
   </g>
   <g id="text_22">
    <!-- S5 -->
    <g transform="translate(193.320211 36.454631)scale(0.05 -0.05)">
     <defs>
      <path d="M 48.578125 54.546875 
L 57.109375 54.546875 
C 56.71875 65.515625 46.59375 73.71875 32.53125 73.71875 
C 18.609375 73.71875 7.671875 65.625 7.671875 53.40625 
C 7.671875 43.609375 14.78125 37.78125 26.140625 34.515625 
L 35.09375 31.953125 
C 42.75 29.828125 49.578125 27.125 49.578125 19.890625 
C 49.578125 11.9375 41.90625 6.671875 31.8125 6.671875 
C 23.15625 6.671875 15.484375 10.515625 14.78125 18.75 
L 5.6875 18.75 
C 6.53125 6.8125 16.1875 -1.28125 31.8125 -1.28125 
C 48.578125 -1.28125 58.09375 7.953125 58.09375 19.75 
C 58.09375 33.375 45.171875 37.78125 37.640625 39.765625 
L 30.25 41.765625 
C 24.859375 43.1875 16.1875 46.015625 16.1875 53.828125 
C 16.1875 60.796875 22.59375 65.90625 32.25 65.90625 
C 41.046875 65.90625 47.734375 61.71875 48.578125 54.546875 
z
" id="Inter-Regular-83"/>
      <path d="M 30.25 -1 
C 44.109375 -1 54.265625 9.234375 54.265625 23.15625 
C 54.265625 37.25 44.46875 47.578125 31.109375 47.578125 
C 26.203125 47.578125 21.453125 45.84375 18.46875 43.46875 
L 18.046875 43.46875 
L 20.59375 64.921875 
L 51 64.921875 
L 51 72.734375 
L 13.21875 72.734375 
L 8.8125 36.9375 
L 17.046875 35.9375 
C 20.0625 38.109375 25.21875 39.671875 29.6875 39.625 
C 38.953125 39.5625 45.734375 32.53125 45.734375 23.015625 
C 45.734375 13.671875 39.203125 6.8125 30.25 6.8125 
C 22.796875 6.8125 16.875 11.609375 16.1875 18.1875 
L 7.671875 18.1875 
C 8.203125 7.109375 17.75 -1 30.25 -1 
z
" id="Inter-Regular-53"/>
     </defs>
     <use xlink:href="#Inter-Regular-83"/>
     <use x="63.778427" xlink:href="#Inter-Regular-53"/>
    </g>
   </g>
   <g id="text_23">
    <!-- UQ2 -->
    <g transform="translate(201.478572 14.255431)scale(0.05 -0.05)">
     <use xlink:href="#Inter-Regular-85"/>
     <use x="74.147751" xlink:href="#Inter-Regular-81"/>
     <use x="150.284134" xlink:href="#Inter-Regular-50"/>
    </g>
   </g>
   <g id="text_24">
    <!-- UQ1 -->
    <g transform="translate(213.672388 14.255431)scale(0.05 -0.05)">
     <use xlink:href="#Inter-Regular-85"/>
     <use x="74.147751" xlink:href="#Inter-Regular-81"/>
     <use x="150.284134" xlink:href="#Inter-Regular-49"/>
    </g>
   </g>
   <g id="text_25">
    <!-- S3 -->
    <g transform="translate(223.809771 36.454631)scale(0.05 -0.05)">
     <use xlink:href="#Inter-Regular-83"/>
     <use x="63.778427" xlink:href="#Inter-Regular-51"/>
    </g>
   </g>
   <g id="text_26">
    <!-- MB0 -->
    <g transform="translate(231.324416 36.454631)scale(0.05 -0.05)">
     <defs>
      <path d="M 8.8125 72.734375 
L 8.8125 0 
L 17.046875 0 
L 17.046875 55.25 
L 17.75 55.25 
L 40.484375 0 
L 48.4375 0 
L 71.171875 55.25 
L 71.875 55.25 
L 71.875 0 
L 80.109375 0 
L 80.109375 72.734375 
L 69.609375 72.734375 
L 44.890625 12.359375 
L 44.03125 12.359375 
L 19.3125 72.734375 
z
" id="Inter-Regular-77"/>
      <path d="M 8.8125 0 
L 35.09375 0 
C 52.28125 0 59.375 8.375 59.375 19.3125 
C 59.375 30.828125 51.421875 37.078125 44.75 37.5 
L 44.75 38.203125 
C 51 39.921875 56.53125 44.03125 56.53125 53.40625 
C 56.53125 64.0625 49.4375 72.734375 34.234375 72.734375 
L 8.8125 72.734375 
z
M 17.609375 40.765625 
L 17.609375 64.921875 
L 34.234375 64.921875 
C 43.890625 64.921875 48.15625 59.796875 48.15625 53.40625 
C 48.15625 45.734375 41.90625 40.765625 33.953125 40.765625 
z
M 17.609375 7.8125 
L 17.609375 33.09375 
L 35.515625 33.09375 
C 45.03125 33.09375 51 26.703125 51 19.3125 
C 51 12.921875 46.59375 7.8125 35.09375 7.8125 
z
" id="Inter-Regular-66"/>
     </defs>
     <use xlink:href="#Inter-Regular-77"/>
     <use x="88.920471" xlink:href="#Inter-Regular-66"/>
     <use x="153.97731" xlink:href="#Inter-Regular-48"/>
    </g>
   </g>
   <g id="text_27">
    <!-- MQ1 -->
    <g transform="translate(241.380847 14.255431)scale(0.05 -0.05)">
     <use xlink:href="#Inter-Regular-77"/>
     <use x="88.920471" xlink:href="#Inter-Regular-81"/>
     <use x="165.056854" xlink:href="#Inter-Regular-49"/>
    </g>
   </g>
   <g id="text_28">
    <!-- S1A -->
    <g transform="translate(249.289795 36.454631)scale(0.05 -0.05)">
     <defs>
      <path d="M 11.796875 0 
L 19.109375 20.59375 
L 48.515625 20.59375 
L 55.828125 0 
L 65.0625 0 
L 38.359375 72.734375 
L 29.265625 72.734375 
L 2.5625 0 
z
M 33.53125 61.21875 
L 34.09375 61.21875 
L 45.734375 28.40625 
L 21.875 28.40625 
z
" id="Inter-Regular-65"/>
     </defs>
     <use xlink:href="#Inter-Regular-83"/>
     <use x="63.778427" xlink:href="#Inter-Regular-49"/>
     <use x="110.227295" xlink:href="#Inter-Regular-65"/>
    </g>
   </g>
   <g id="text_29">
    <!-- MQ2 -->
    <g transform="translate(255.163587 14.255431)scale(0.05 -0.05)">
     <use xlink:href="#Inter-Regular-77"/>
     <use x="88.920471" xlink:href="#Inter-Regular-81"/>
     <use x="165.056854" xlink:href="#Inter-Regular-50"/>
    </g>
   </g>
   <g id="text_30">
    <!-- S0A -->
    <g transform="translate(263.022925 36.454631)scale(0.05 -0.05)">
     <use xlink:href="#Inter-Regular-83"/>
     <use x="63.778427" xlink:href="#Inter-Regular-48"/>
     <use x="126.278442" xlink:href="#Inter-Regular-65"/>
    </g>
   </g>
   <g id="text_31">
    <!-- B1 -->
    <g transform="translate(272.913468 36.454631)scale(0.05 -0.05)">
     <use xlink:href="#Inter-Regular-66"/>
     <use x="65.056839" xlink:href="#Inter-Regular-49"/>
    </g>
   </g>
   <g id="text_32">
    <!-- Q1A -->
    <g transform="translate(278.968452 14.255431)scale(0.05 -0.05)">
     <use xlink:href="#Inter-Regular-81"/>
     <use x="76.136383" xlink:href="#Inter-Regular-49"/>
     <use x="122.585251" xlink:href="#Inter-Regular-65"/>
    </g>
   </g>
   <g id="text_33">
    <!-- S1 -->
    <g transform="translate(288.034821 36.454631)scale(0.05 -0.05)">
     <use xlink:href="#Inter-Regular-83"/>
     <use x="63.778427" xlink:href="#Inter-Regular-49"/>
    </g>
   </g>
   <g id="text_34">
    <!-- B0 -->
    <g transform="translate(308.230059 36.454631)scale(0.05 -0.05)">
     <use xlink:href="#Inter-Regular-66"/>
     <use x="65.056839" xlink:href="#Inter-Regular-48"/>
    </g>
   </g>
   <g id="text_35">
    <!-- S1 -->
    <g transform="translate(329.291703 36.454631)scale(0.05 -0.05)">
     <use xlink:href="#Inter-Regular-83"/>
     <use x="63.778427" xlink:href="#Inter-Regular-49"/>
    </g>
   </g>
   <g id="text_36">
    <!-- B1 -->
    <g transform="translate(337.090839 36.454631)scale(0.05 -0.05)">
     <use xlink:href="#Inter-Regular-66"/>
     <use x="65.056839" xlink:href="#Inter-Regular-49"/>
    </g>
   </g>
   <g id="text_37">
    <!-- S0 -->
    <g transform="translate(345.316882 36.454631)scale(0.05 -0.05)">
     <use xlink:href="#Inter-Regular-83"/>
     <use x="63.778427" xlink:href="#Inter-Regular-48"/>
    </g>
   </g>
   <g id="text_38">
    <!-- B1 -->
    <g transform="translate(354.281207 36.454631)scale(0.05 -0.05)">
     <use xlink:href="#Inter-Regular-66"/>
     <use x="65.056839" xlink:href="#Inter-Regular-49"/>
    </g>
   </g>
   <g id="text_39">
    <!-- S1 -->
    <g transform="translate(362.144405 36.454631)scale(0.05 -0.05)">
     <use xlink:href="#Inter-Regular-83"/>
     <use x="63.778427" xlink:href="#Inter-Regular-49"/>
    </g>
   </g>
   <g id="text_40">
    <!-- B0 -->
    <g transform="translate(382.339643 36.454631)scale(0.05 -0.05)">
     <use xlink:href="#Inter-Regular-66"/>
     <use x="65.056839" xlink:href="#Inter-Regular-48"/>
    </g>
   </g>
   <g id="text_41">
    <!-- S1 -->
    <g transform="translate(403.401287 36.454631)scale(0.05 -0.05)">
     <use xlink:href="#Inter-Regular-83"/>
     <use x="63.778427" xlink:href="#Inter-Regular-49"/>
    </g>
   </g>
   <g id="text_42">
    <!-- B1 -->
    <g transform="translate(411.200423 36.454631)scale(0.05 -0.05)">
     <use xlink:href="#Inter-Regular-66"/>
     <use x="65.056839" xlink:href="#Inter-Regular-49"/>
    </g>
   </g>
   <g id="text_43">
    <!-- S0 -->
    <g transform="translate(419.426466 36.454631)scale(0.05 -0.05)">
     <use xlink:href="#Inter-Regular-83"/>
     <use x="63.778427" xlink:href="#Inter-Regular-48"/>
    </g>
   </g>
   <g id="text_44">
    <!-- B1 -->
    <g transform="translate(428.39079 36.454631)scale(0.05 -0.05)">
     <use xlink:href="#Inter-Regular-66"/>
     <use x="65.056839" xlink:href="#Inter-Regular-49"/>
    </g>
   </g>
   <g id="text_45">
    <!-- S1 -->
    <g transform="translate(436.253989 36.454631)scale(0.05 -0.05)">
     <use xlink:href="#Inter-Regular-83"/>
     <use x="63.778427" xlink:href="#Inter-Regular-49"/>
    </g>
   </g>
   <g id="text_46">
    <!-- B0 -->
    <g transform="translate(456.449227 36.454631)scale(0.05 -0.05)">
     <use xlink:href="#Inter-Regular-66"/>
     <use x="65.056839" xlink:href="#Inter-Regular-48"/>
    </g>
   </g>
   <g id="text_47">
    <!-- S1 -->
    <g transform="translate(477.51087 36.454631)scale(0.05 -0.05)">
     <use xlink:href="#Inter-Regular-83"/>
     <use x="63.778427" xlink:href="#Inter-Regular-49"/>
    </g>
   </g>
   <g id="text_48">
    <!-- Q1A -->
    <g transform="translate(482.578803 14.255431)scale(0.05 -0.05)">
     <use xlink:href="#Inter-Regular-81"/>
     <use x="76.136383" xlink:href="#Inter-Regular-49"/>
     <use x="122.585251" xlink:href="#Inter-Regular-65"/>
    </g>
   </g>
   <g id="text_49">
    <!-- B1 -->
    <g transform="translate(492.568162 36.454631)scale(0.05 -0.05)">
     <use xlink:href="#Inter-Regular-66"/>
     <use x="65.056839" xlink:href="#Inter-Regular-49"/>
    </g>
   </g>
   <g id="text_50">
    <!-- S0A -->
    <g transform="translate(498.339954 36.454631)scale(0.05 -0.05)">
     <use xlink:href="#Inter-Regular-83"/>
     <use x="63.778427" xlink:href="#Inter-Regular-48"/>
     <use x="126.278442" xlink:href="#Inter-Regular-65"/>
    </g>
   </g>
   <g id="text_51">
    <!-- MQ2 -->
    <g transform="translate(504.614918 14.255431)scale(0.05 -0.05)">
     <use xlink:href="#Inter-Regular-77"/>
     <use x="88.920471" xlink:href="#Inter-Regular-81"/>
     <use x="165.056854" xlink:href="#Inter-Regular-50"/>
    </g>
   </g>
   <g id="text_52">
    <!-- S1A -->
    <g transform="translate(512.875428 36.454631)scale(0.05 -0.05)">
     <use xlink:href="#Inter-Regular-83"/>
     <use x="63.778427" xlink:href="#Inter-Regular-49"/>
     <use x="110.227295" xlink:href="#Inter-Regular-65"/>
    </g>
   </g>
   <g id="text_53">
    <!-- MQ1 -->
    <g transform="translate(519.100782 14.255431)scale(0.05 -0.05)">
     <use xlink:href="#Inter-Regular-77"/>
     <use x="88.920471" xlink:href="#Inter-Regular-81"/>
     <use x="165.056854" xlink:href="#Inter-Regular-49"/>
    </g>
   </g>
   <g id="text_54">
    <!-- MB0 -->
    <g transform="translate(528.908776 36.454631)scale(0.05 -0.05)">
     <use xlink:href="#Inter-Regular-77"/>
     <use x="88.920471" xlink:href="#Inter-Regular-66"/>
     <use x="153.97731" xlink:href="#Inter-Regular-48"/>
    </g>
   </g>
   <g id="text_55">
    <!-- S3 -->
    <g transform="translate(540.876546 36.454631)scale(0.05 -0.05)">
     <use xlink:href="#Inter-Regular-83"/>
     <use x="63.778427" xlink:href="#Inter-Regular-51"/>
    </g>
   </g>
   <g id="text_56">
    <!-- UQ1 -->
    <g transform="translate(547.547523 14.255431)scale(0.05 -0.05)">
     <use xlink:href="#Inter-Regular-85"/>
     <use x="74.147751" xlink:href="#Inter-Regular-81"/>
     <use x="150.284134" xlink:href="#Inter-Regular-49"/>
    </g>
   </g>
   <g id="text_57">
    <!-- UQ2 -->
    <g transform="translate(559.038213 14.255431)scale(0.05 -0.05)">
     <use xlink:href="#Inter-Regular-85"/>
     <use x="74.147751" xlink:href="#Inter-Regular-81"/>
     <use x="150.284134" xlink:href="#Inter-Regular-50"/>
    </g>
   </g>
   <g id="text_58">
    <!-- S5 -->
    <g transform="translate(571.508293 36.454631)scale(0.05 -0.05)">
     <use xlink:href="#Inter-Regular-83"/>
     <use x="63.778427" xlink:href="#Inter-Regular-53"/>
    </g>
   </g>
   <g id="text_59">
    <!-- UQ3 -->
    <g transform="translate(576.532464 14.255431)scale(0.05 -0.05)">
     <use xlink:href="#Inter-Regular-85"/>
     <use x="74.147751" xlink:href="#Inter-Regular-81"/>
     <use x="150.284134" xlink:href="#Inter-Regular-51"/>
    </g>
   </g>
  </g>
 </g>
 <defs>
  <clipPath id="p07c04273cf">
   <rect height="221.992" width="646.281411" x="62.388" y="24.048"/>
  </clipPath>
 </defs>
</svg>
